<svg xmlns="http://www.w3.org/2000/svg" width="140" height="20" viewBox="0 0 140 20" fill="none">
  <path d="M7.69866 5.13244C9.40947 5.13244 10.7815 5.63213 11.8148 6.63152C12.848 7.63091 13.3647 9.11305 13.3647 11.0779V18.8528H10.1887V11.4845C10.1887 10.2988 9.90917 9.40947 9.35019 8.81662C8.79121 8.20682 7.99509 7.90193 6.96182 7.90193C5.79305 7.90193 4.86989 8.25764 4.19234 8.96907C3.51479 9.66356 3.17602 10.6714 3.17602 11.9926V18.8528H0V5.28489H3.02357V7.03805C3.54867 6.41132 4.20928 5.93703 5.0054 5.61519C5.80152 5.29336 6.69927 5.13244 7.69866 5.13244Z" fill="#646AEE"/>
  <path d="M20.8237 19.0307C19.7227 19.0307 18.6471 18.8867 17.5969 18.5987C16.5467 18.3108 15.7082 17.9466 15.0815 17.5062L16.3011 15.0924C16.9109 15.499 17.6393 15.8293 18.4862 16.0833C19.3501 16.3205 20.197 16.4391 21.027 16.4391C22.9241 16.4391 23.8727 15.9394 23.8727 14.94C23.8727 14.4657 23.6271 14.1354 23.1359 13.9491C22.6616 13.7627 21.8909 13.5849 20.8237 13.4155C19.7058 13.2461 18.7911 13.0513 18.0797 12.8311C17.3852 12.6109 16.7754 12.2298 16.2503 11.6877C15.7421 11.1288 15.488 10.358 15.488 9.3756C15.488 8.08825 16.0216 7.06346 17.0887 6.30121C18.1728 5.52203 19.6296 5.13244 21.4589 5.13244C22.3906 5.13244 23.3222 5.24254 24.2538 5.46275C25.1855 5.66601 25.9477 5.9455 26.5406 6.30121L25.321 8.71498C24.1691 8.03744 22.8733 7.69866 21.4335 7.69866C20.5019 7.69866 19.7905 7.84264 19.2993 8.1306C18.825 8.40162 18.5878 8.7658 18.5878 9.22315C18.5878 9.73131 18.8419 10.0955 19.3501 10.3157C19.8752 10.519 20.6798 10.7138 21.7638 10.9001C22.8479 11.0695 23.7372 11.2643 24.4317 11.4845C25.1262 11.7047 25.719 12.0773 26.2103 12.6024C26.7184 13.1275 26.9725 13.8728 26.9725 14.8383C26.9725 16.1087 26.422 17.1251 25.321 17.8873C24.22 18.6496 22.7209 19.0307 20.8237 19.0307Z" fill="#646AEE"/>
  <path d="M36.5678 18.116C36.1952 18.4209 35.7378 18.6496 35.1958 18.802C34.6707 18.9545 34.1117 19.0307 33.5189 19.0307C32.0283 19.0307 30.8764 18.6411 30.0634 17.8619C29.2503 17.0827 28.8438 15.9478 28.8438 14.4572V7.92733H26.9725L28.1685 5.38652H28.8438V2.28673H32.0198V5.38652H35.6532V7.92733H32.0198V14.381C32.0198 15.0416 32.1807 15.5498 32.5025 15.9055C32.8413 16.2443 33.3071 16.4136 33.9 16.4136C34.6114 16.4136 35.2043 16.2273 35.6786 15.8547L36.5678 18.116Z" fill="#646AEE"/>
  <path d="M45.9516 5.13244C47.2728 5.13244 48.45 5.4204 49.4833 5.99632C50.5335 6.57223 51.355 7.38529 51.9479 8.4355C52.5407 9.4857 52.8372 10.6968 52.8372 12.0689C52.8372 13.4409 52.5407 14.6605 51.9479 15.7276C51.355 16.7778 50.5335 17.5909 49.4833 18.1668C48.45 18.7427 47.2728 19.0307 45.9516 19.0307C45.0199 19.0307 44.1645 18.8698 43.3854 18.5479C42.6231 18.2261 41.9794 17.7433 41.4543 17.0997V18.8528H38.4308V0H41.6068V6.93642C42.1488 6.34356 42.784 5.89468 43.5124 5.58979C44.2577 5.28489 45.0708 5.13244 45.9516 5.13244ZM45.5959 16.312C46.7646 16.312 47.7217 15.9224 48.467 15.1432C49.2292 14.3641 49.6103 13.3393 49.6103 12.0689C49.6103 10.7985 49.2292 9.77366 48.467 8.99448C47.7217 8.21529 46.7646 7.8257 45.5959 7.8257C44.8336 7.8257 44.1476 8.00356 43.5378 8.35927C42.928 8.69805 42.4453 9.18927 42.0895 9.83294C41.7338 10.4766 41.556 11.2219 41.556 12.0689C41.556 12.9158 41.7338 13.6611 42.0895 14.3048C42.4453 14.9484 42.928 15.4481 43.5378 15.8039C44.1476 16.1426 44.8336 16.312 45.5959 16.312Z" fill="#646AEE"/>
  <path d="M58.1106 7.26672C59.0252 5.84387 60.6344 5.13244 62.9381 5.13244V8.15601C62.6671 8.10519 62.4215 8.07978 62.2013 8.07978C60.9647 8.07978 59.9992 8.44396 59.3047 9.17233C58.6102 9.88376 58.263 10.917 58.263 12.2721V18.8528H55.087V5.28489H58.1106V7.26672Z" fill="#646AEE"/>
  <path d="M70.844 19.0307C69.4719 19.0307 68.2354 18.7343 67.1344 18.1414C66.0334 17.5485 65.1695 16.727 64.5428 15.6768C63.933 14.6097 63.6281 13.407 63.6281 12.0689C63.6281 10.7307 63.933 9.53651 64.5428 8.48631C65.1695 7.43611 66.0334 6.61458 67.1344 6.02172C68.2354 5.42887 69.4719 5.13244 70.844 5.13244C72.233 5.13244 73.478 5.42887 74.579 6.02172C75.68 6.61458 76.5354 7.43611 77.1452 8.48631C77.7719 9.53651 78.0853 10.7307 78.0853 12.0689C78.0853 13.407 77.7719 14.6097 77.1452 15.6768C76.5354 16.727 75.68 17.5485 74.579 18.1414C73.478 18.7343 72.233 19.0307 70.844 19.0307ZM70.844 16.312C72.0128 16.312 72.9783 15.9224 73.7405 15.1432C74.5028 14.3641 74.8839 13.3393 74.8839 12.0689C74.8839 10.7985 74.5028 9.77366 73.7405 8.99448C72.9783 8.21529 72.0128 7.8257 70.844 7.8257C69.6752 7.8257 68.7097 8.21529 67.9475 8.99448C67.2022 9.77366 66.8295 10.7985 66.8295 12.0689C66.8295 13.3393 67.2022 14.3641 67.9475 15.1432C68.7097 15.9224 69.6752 16.312 70.844 16.312Z" fill="#646AEE"/>
  <path d="M101.22 5.28489V12.7803C101.22 14.7621 100.704 16.3035 99.6703 17.4046C98.637 18.4886 97.1549 19.0307 95.2239 19.0307C93.1404 19.0307 91.6413 18.3277 90.7266 16.9218C90.2524 17.6332 89.6426 18.1668 88.8973 18.5225C88.1689 18.8613 87.2796 19.0307 86.2294 19.0307C84.2984 19.0307 82.8162 18.4886 81.783 17.4046C80.7667 16.3035 80.2585 14.7621 80.2585 12.7803V5.28489H83.4345V12.5008C83.4345 13.7881 83.6547 14.7367 84.0951 15.3465C84.5525 15.9563 85.2724 16.2612 86.2548 16.2612C87.2373 16.2612 87.9656 15.9563 88.4399 15.3465C88.9142 14.7198 89.1513 13.7712 89.1513 12.5008V5.28489H92.3273V12.5008C92.3273 13.7712 92.5645 14.7198 93.0388 15.3465C93.5131 15.9563 94.2414 16.2612 95.2239 16.2612C96.2063 16.2612 96.9177 15.9563 97.3582 15.3465C97.8155 14.7367 98.0442 13.7881 98.0442 12.5008V5.28489H101.22Z" fill="#646AEE"/>
  <path d="M108.702 19.0307C107.601 19.0307 106.525 18.8867 105.475 18.5987C104.425 18.3108 103.587 17.9466 102.96 17.5062L104.179 15.0924C104.789 15.499 105.518 15.8293 106.365 16.0833C107.228 16.3205 108.075 16.4391 108.905 16.4391C110.802 16.4391 111.751 15.9394 111.751 14.94C111.751 14.4657 111.505 14.1354 111.014 13.9491C110.54 13.7627 109.769 13.5849 108.702 13.4155C107.584 13.2461 106.669 13.0513 105.958 12.8311C105.264 12.6109 104.654 12.2298 104.129 11.6877C103.62 11.1288 103.366 10.358 103.366 9.3756C103.366 8.08825 103.9 7.06346 104.967 6.30121C106.051 5.52203 107.508 5.13244 109.337 5.13244C110.269 5.13244 111.201 5.24254 112.132 5.46275C113.064 5.66601 113.826 5.9455 114.419 6.30121L113.199 8.71498C112.047 8.03744 110.752 7.69866 109.312 7.69866C108.38 7.69866 107.669 7.84264 107.178 8.1306C106.703 8.40162 106.466 8.7658 106.466 9.22315C106.466 9.73131 106.72 10.0955 107.228 10.3157C107.754 10.519 108.558 10.7138 109.642 10.9001C110.726 11.0695 111.616 11.2643 112.31 11.4845C113.005 11.7047 113.597 12.0773 114.089 12.6024C114.597 13.1275 114.851 13.8728 114.851 14.8383C114.851 16.1087 114.3 17.1251 113.199 17.8873C112.098 18.6496 110.599 19.0307 108.702 19.0307Z" fill="#646AEE"/>
  <path d="M123.277 16.3374C124.751 16.3374 125.979 15.8462 126.962 14.8638L128.639 16.8202C128.046 17.5485 127.283 18.0991 126.352 18.4717C125.42 18.8444 124.37 19.0307 123.201 19.0307C121.711 19.0307 120.398 18.7343 119.263 18.1414C118.128 17.5485 117.247 16.727 116.62 15.6768C116.011 14.6097 115.706 13.407 115.706 12.0689C115.706 10.7476 116.002 9.56192 116.595 8.51172C117.205 7.44458 118.035 6.61458 119.085 6.02172C120.152 5.42887 121.355 5.13244 122.693 5.13244C123.963 5.13244 125.115 5.41193 126.149 5.97091C127.199 6.51295 128.029 7.3006 128.639 8.33386C129.248 9.35019 129.553 10.5444 129.553 11.9164L119.161 13.9491C119.483 14.7282 120 15.3211 120.711 15.7276C121.423 16.1342 122.278 16.3374 123.277 16.3374ZM122.693 7.67325C121.524 7.67325 120.576 8.05437 119.847 8.81662C119.136 9.57886 118.78 10.6037 118.78 11.891V11.9164L126.453 10.4427C126.233 9.61274 125.784 8.94366 125.107 8.4355C124.446 7.92733 123.642 7.67325 122.693 7.67325Z" fill="#646AEE"/>
  <path d="M134.866 7.26672C135.781 5.84387 137.39 5.13244 139.693 5.13244V8.15601C139.422 8.10519 139.177 8.07978 138.957 8.07978C137.72 8.07978 136.755 8.44396 136.06 9.17233C135.366 9.88376 135.018 10.917 135.018 12.2721V18.8528H131.842V5.28489H134.866V7.26672Z" fill="#646AEE"/>
</svg>
