<svg width="32" height="32" viewBox="0 0 32 32" fill="none" xmlns="http://www.w3.org/2000/svg">
<path d="M12.0001 2.66675V6.66675M20.0001 2.66675V6.66675M12.0001 25.3334V29.3334M20.0001 25.3334V29.3334M25.3334 12.0001H29.3334M25.3334 18.6667H29.3334M2.66675 12.0001H6.66675M2.66675 18.6667H6.66675M13.0667 25.3334H18.9334C21.1736 25.3334 22.2937 25.3334 23.1494 24.8974C23.902 24.5139 24.5139 23.902 24.8974 23.1494C25.3334 22.2937 25.3334 21.1736 25.3334 18.9334V13.0667C25.3334 10.8265 25.3334 9.70643 24.8974 8.85079C24.5139 8.09814 23.902 7.48622 23.1494 7.10272C22.2937 6.66675 21.1736 6.66675 18.9334 6.66675H13.0667C10.8265 6.66675 9.70643 6.66675 8.85079 7.10272C8.09814 7.48622 7.48622 8.09814 7.10272 8.85079C6.66675 9.70643 6.66675 10.8265 6.66675 13.0667V18.9334C6.66675 21.1736 6.66675 22.2937 7.10272 23.1494C7.48622 23.902 8.09814 24.5139 8.85079 24.8974C9.70643 25.3334 10.8265 25.3334 13.0667 25.3334Z" stroke="#646AEE" stroke-width="2.66667" stroke-linecap="round" stroke-linejoin="round"/>
</svg>
