<svg width="80" height="80" viewBox="0 0 80 80" fill="none" xmlns="http://www.w3.org/2000/svg">
<path d="M31.6666 26.3158C31.6666 27.1952 32.0178 28.0386 32.6429 28.6604C32.9978 29.0135 33.4246 29.2787 33.8889 29.442V32.3104H20.682C19.0421 32.3104 17.7181 33.6493 17.7181 35.2964V42.9535L15 44.4952V51.4007L17.7181 52.8368V62.0089C17.7181 63.661 19.0471 64.9949 20.682 64.9949H35V32.9473L35 65H49.318C50.9579 65 52.2818 63.6611 52.2818 62.014V52.7835L55 51.2417V44.3416L52.2818 42.9001V35.3015C52.2818 33.6493 50.9529 32.3155 49.318 32.3155H36.1111V29.4419C36.5754 29.2786 37.0021 29.0134 37.357 28.6604C37.9821 28.0386 38.3333 27.1952 38.3333 26.3158C38.3333 25.4364 37.9821 24.593 37.357 23.9712C36.7319 23.3493 35.884 23 35 23C34.1159 23 33.2681 23.3493 32.6429 23.9712C32.0178 24.593 31.6666 25.4364 31.6666 26.3158Z" fill="#1677FF" style="mix-blend-mode:multiply"/>
<path d="M42.1 14.1941L45.2625 18.9294C46.775 16.7647 49.25 15.4118 52 15.4118C56.5375 15.4118 60.25 19.0647 60.25 23.5294V26.9412H39.5C36.475 26.9412 34 29.3765 34 32.3529V48.5882C34 51.5647 36.475 54 39.5 54H65.5C68.525 54 71 51.5647 71 48.5882V32.3529C71 29.3765 68.525 26.9412 65.5 26.9412H65.75V23.5294C65.75 16.0882 59.5625 10 52 10C48.15 10 44.7125 11.6235 42.1 14.1941Z" fill="#FFEFDF" style="mix-blend-mode:multiply"/>
<g style="mix-blend-mode:soft-light">
<path fill-rule="evenodd" clip-rule="evenodd" d="M52.2818 54.0001V52.7836L55 51.2418V44.3417L52.2818 42.9002V35.3016C52.2818 33.6494 50.9529 32.3156 49.318 32.3156H36.1111V29.442C36.5754 29.2787 37.0021 29.0135 37.357 28.6605C37.7965 28.2233 38.1006 27.6767 38.2424 27.085C35.8181 27.6484 34 29.8019 34 32.353V48.5883C34 49.7399 34.3705 50.8105 35 51.6904C35 51.6904 35 51.6904 35 51.6904C35.9975 53.0847 37.6454 54.0001 39.5 54.0001H52.2818Z" fill="url(#paint0_linear_498_4767)"/>
</g>
<circle cx="28" cy="46" r="3" fill="white"/>
<circle cx="42" cy="46" r="3" fill="white"/>
<g style="mix-blend-mode:multiply">
<path fill-rule="evenodd" clip-rule="evenodd" d="M19.48 22.4068L24.5071 25.3819C25.4306 25.9285 26 26.9424 26 28.0402V33.9598C26 35.0576 25.4306 36.0715 24.5071 36.618L19.48 39.5932C18.5635 40.1356 17.4365 40.1356 16.52 39.5932L11.4929 36.618C10.5694 36.0715 10 35.0576 10 33.9598V28.0402C10 26.9424 10.5694 25.9285 11.4929 25.3819L16.52 22.4068C17.4365 21.8644 18.5635 21.8644 19.48 22.4068Z" fill="#00BFD0"/>
</g>
<path d="M50 68H55V63" stroke="black" stroke-width="1.5" stroke-linecap="round" stroke-linejoin="round"/>
<defs>
<linearGradient id="paint0_linear_498_4767" x1="44.4904" y1="27.085" x2="44.4904" y2="52.9649" gradientUnits="userSpaceOnUse">
<stop stop-color="white"/>
<stop offset="1" stop-color="#FFC187"/>
</linearGradient>
</defs>
</svg>
