<svg width="24" height="24" viewBox="0 0 24 24" fill="none" xmlns="http://www.w3.org/2000/svg">
<g clip-path="url(#clip0_103_741)">
<path d="M22.9385 2.20779L21.7953 1.06423C21.7522 1.02108 21.6983 1.0022 21.6416 1.0022C21.585 1.0022 21.5311 1.02377 21.488 1.06423L19.4361 3.1167C18.5275 2.49907 17.4706 2.19161 16.4136 2.19161C15.0331 2.19161 13.6527 2.71753 12.5984 3.77209L9.85097 6.5204C9.76738 6.60401 9.76738 6.74156 9.85097 6.82517L17.1767 14.1531C17.2198 14.1963 17.2737 14.2151 17.3303 14.2151C17.3843 14.2151 17.4409 14.1936 17.484 14.1531L20.2315 11.4048C22.0892 9.54382 22.3076 6.66604 20.8867 4.56772L22.9385 2.51525C23.0221 2.42895 23.0221 2.2914 22.9385 2.20779ZM18.9319 10.1075L17.3303 11.7096L12.2938 6.67144L13.8953 5.06938C14.5667 4.39781 15.4619 4.02561 16.4136 4.02561C17.3654 4.02561 18.2579 4.39511 18.9319 5.06938C19.6033 5.74095 19.9754 6.63638 19.9754 7.58844C19.9754 8.54051 19.6033 9.43324 18.9319 10.1075ZM13.8037 12.9394C13.7201 12.8558 13.5826 12.8558 13.499 12.9394L11.7033 14.7357L9.26858 12.3002L11.067 10.5013C11.1506 10.4177 11.1506 10.2801 11.067 10.1965L10.0855 9.21478C10.002 9.13117 9.86445 9.13117 9.78086 9.21478L7.98247 11.0137L6.82308 9.85398C6.77994 9.81083 6.72602 9.79195 6.6694 9.79195C6.61547 9.79195 6.55885 9.81352 6.51571 9.85398L3.77094 12.6023C1.91323 14.4633 1.69483 17.341 3.11575 19.4394L1.06391 21.4918C0.980325 21.5754 0.980325 21.713 1.06391 21.7966L2.20712 22.9402C2.25026 22.9833 2.30418 23.0022 2.3608 23.0022C2.41742 23.0022 2.47135 22.9806 2.51449 22.9402L4.56633 20.8877C5.47496 21.5053 6.53189 21.8128 7.58882 21.8128C8.9693 21.8128 10.3498 21.2869 11.404 20.2323L14.1515 17.484C14.2351 17.4004 14.2351 17.2628 14.1515 17.1792L12.9921 16.0195L14.7905 14.2205C14.8741 14.1369 14.8741 13.9994 14.7905 13.9158L13.8037 12.9394ZM10.1044 18.9377C9.43305 19.6093 8.5379 19.9815 7.58612 19.9815C6.63435 19.9815 5.74189 19.612 5.06783 18.9377C4.39647 18.2661 4.02438 17.3707 4.02438 16.4186C4.02438 15.4666 4.39377 14.5739 5.06783 13.8996L6.6694 12.2975L11.706 17.3357L10.1044 18.9377Z" fill="#1E1F24" stroke="#1E1F24" stroke-width="0.1"/>
</g>
<defs>
<clipPath id="clip0_103_741">
<rect width="24" height="24" fill="white"/>
</clipPath>
</defs>
</svg>
