<svg width="24" height="24" viewBox="0 0 24 24" fill="none" xmlns="http://www.w3.org/2000/svg">
<path d="M8.72727 15.2728C8.51151 15.2728 8.3006 15.3367 8.1212 15.4566C7.9418 15.5765 7.80197 15.7469 7.7194 15.9462C7.63684 16.1455 7.61523 16.3649 7.65733 16.5765C7.69942 16.7881 7.80332 16.9825 7.95588 17.1351C8.10845 17.2876 8.30283 17.3915 8.51445 17.4336C8.72606 17.4757 8.94541 17.4541 9.14475 17.3715C9.34408 17.289 9.51446 17.1491 9.63433 16.9697C9.7542 16.7903 9.81818 16.5794 9.81818 16.3637C9.81818 16.0743 9.70325 15.7969 9.49866 15.5923C9.29408 15.3877 9.0166 15.2728 8.72727 15.2728ZM1.09091 14.1819C0.801582 14.1819 0.524105 14.2968 0.31952 14.5014C0.114935 14.706 0 14.9834 0 15.2728V17.4546C0 17.7439 0.114935 18.0214 0.31952 18.226C0.524105 18.4306 0.801582 18.5455 1.09091 18.5455C1.38024 18.5455 1.65771 18.4306 1.8623 18.226C2.06688 18.0214 2.18182 17.7439 2.18182 17.4546V15.2728C2.18182 14.9834 2.06688 14.706 1.8623 14.5014C1.65771 14.2968 1.38024 14.1819 1.09091 14.1819ZM22.9091 14.1819C22.6198 14.1819 22.3423 14.2968 22.1377 14.5014C21.9331 14.706 21.8182 14.9834 21.8182 15.2728V17.4546C21.8182 17.7439 21.9331 18.0214 22.1377 18.226C22.3423 18.4306 22.6198 18.5455 22.9091 18.5455C23.1984 18.5455 23.4759 18.4306 23.6805 18.226C23.8851 18.0214 24 17.7439 24 17.4546V15.2728C24 14.9834 23.8851 14.706 23.6805 14.5014C23.4759 14.2968 23.1984 14.1819 22.9091 14.1819ZM17.4545 6.54549H13.0909V5.14912C13.4207 4.95875 13.6949 4.68539 13.8862 4.35622C14.0776 4.02704 14.1795 3.65352 14.1818 3.27276C14.1818 2.69411 13.9519 2.13915 13.5428 1.72998C13.1336 1.32081 12.5787 1.09094 12 1.09094C11.4213 1.09094 10.8664 1.32081 10.4572 1.72998C10.0481 2.13915 9.81818 2.69411 9.81818 3.27276C9.82048 3.65352 9.92238 4.02704 10.1138 4.35622C10.3051 4.68539 10.5793 4.95875 10.9091 5.14912V6.54549H6.54545C5.67747 6.54549 4.84504 6.89029 4.23129 7.50405C3.61753 8.1178 3.27273 8.95023 3.27273 9.81822V19.6364C3.27273 20.5044 3.61753 21.3368 4.23129 21.9506C4.84504 22.5643 5.67747 22.9091 6.54545 22.9091H17.4545C18.3225 22.9091 19.155 22.5643 19.7687 21.9506C20.3825 21.3368 20.7273 20.5044 20.7273 19.6364V9.81822C20.7273 8.95023 20.3825 8.1178 19.7687 7.50405C19.155 6.89029 18.3225 6.54549 17.4545 6.54549ZM13.8764 8.72731L13.3309 10.9091H10.6691L10.1236 8.72731H13.8764ZM18.5455 19.6364C18.5455 19.9257 18.4305 20.2032 18.2259 20.4078C18.0214 20.6124 17.7439 20.7273 17.4545 20.7273H6.54545C6.25613 20.7273 5.97865 20.6124 5.77407 20.4078C5.56948 20.2032 5.45455 19.9257 5.45455 19.6364V9.81822C5.45455 9.52889 5.56948 9.25141 5.77407 9.04683C5.97865 8.84224 6.25613 8.72731 6.54545 8.72731H7.87636L8.72727 12.2619C8.787 12.5039 8.92783 12.7182 9.12632 12.869C9.32481 13.0199 9.56898 13.0982 9.81818 13.0909H14.1818C14.431 13.0982 14.6752 13.0199 14.8737 12.869C15.0722 12.7182 15.213 12.5039 15.2727 12.2619L16.1236 8.72731H17.4545C17.7439 8.72731 18.0214 8.84224 18.2259 9.04683C18.4305 9.25141 18.5455 9.52889 18.5455 9.81822V19.6364ZM15.2727 15.2728C15.057 15.2728 14.846 15.3367 14.6667 15.4566C14.4873 15.5765 14.3474 15.7469 14.2649 15.9462C14.1823 16.1455 14.1607 16.3649 14.2028 16.5765C14.2449 16.7881 14.3488 16.9825 14.5013 17.1351C14.6539 17.2876 14.8483 17.3915 15.0599 17.4336C15.2715 17.4757 15.4909 17.4541 15.6902 17.3715C15.8895 17.289 16.0599 17.1491 16.1798 16.9697C16.2997 16.7903 16.3636 16.5794 16.3636 16.3637C16.3636 16.0743 16.2487 15.7969 16.0441 15.5923C15.8395 15.3877 15.5621 15.2728 15.2727 15.2728Z" fill="#1E1F24"/>
</svg>
