<svg width="80" height="80" viewBox="0 0 80 80" fill="none" xmlns="http://www.w3.org/2000/svg">
<g style="mix-blend-mode:multiply">
<rect x="16" y="26" width="50" height="28" rx="6" fill="#1677FF"/>
</g>
<g style="mix-blend-mode:multiply">
<path fill-rule="evenodd" clip-rule="evenodd" d="M40 35C38.3431 35 37 36.3431 37 38V44C37 45.6569 38.3431 47 40 47H70C71.6569 47 73 45.6569 73 44V38C73 36.3431 71.6569 35 70 35H40ZM40 50C38.3431 50 37 51.3431 37 53V59C37 60.6569 38.3431 62 40 62H70C71.6569 62 73 60.6569 73 59V53C73 51.3431 71.6569 50 70 50H40Z" fill="#FFEFDF"/>
</g>
<g style="mix-blend-mode:soft-light">
<path fill-rule="evenodd" clip-rule="evenodd" d="M65.6586 50C64.8349 52.3304 62.6124 54 60 54H37V53C37 51.3431 38.3431 50 40 50H65.6586ZM66 35V47H40C38.3431 47 37 45.6569 37 44V38C37 36.3431 38.3431 35 40 35H66Z" fill="url(#paint0_linear_492_2171)"/>
</g>
<g style="mix-blend-mode:multiply">
<path fill-rule="evenodd" clip-rule="evenodd" d="M23.9999 20.5556V29.4444C23.9999 31.4081 22.4053 33 20.4382 33H11.5617C9.59459 33 7.99994 31.4081 7.99994 29.4444V20.5556C7.99994 18.5919 9.59459 17 11.5617 17H20.4382C22.4053 17 23.9999 18.5919 23.9999 20.5556Z" fill="#00BFD0"/>
</g>
<path d="M15.9999 28C17.6568 28 18.9999 26.6569 18.9999 25C18.9999 23.3431 17.6568 22 15.9999 22C14.3431 22 12.9999 23.3431 12.9999 25C12.9999 26.6569 14.3431 28 15.9999 28Z" fill="white"/>
<path d="M19.4039 39.85C19.4039 39.232 19.5419 38.68 19.8179 38.194C20.0999 37.702 20.4809 37.321 20.9609 37.051C21.4469 36.775 21.9899 36.637 22.5899 36.637C23.2919 36.637 23.9069 36.817 24.4349 37.177C24.9629 37.537 25.3319 38.035 25.5419 38.671H24.0929C23.9489 38.371 23.7449 38.146 23.4809 37.996C23.2229 37.846 22.9229 37.771 22.5809 37.771C22.2149 37.771 21.8879 37.858 21.5999 38.032C21.3179 38.2 21.0959 38.44 20.9339 38.752C20.7779 39.064 20.6999 39.43 20.6999 39.85C20.6999 40.264 20.7779 40.63 20.9339 40.948C21.0959 41.26 21.3179 41.503 21.5999 41.677C21.8879 41.845 22.2149 41.929 22.5809 41.929C22.9229 41.929 23.2229 41.854 23.4809 41.704C23.7449 41.548 23.9489 41.32 24.0929 41.02H25.5419C25.3319 41.662 24.9629 42.163 24.4349 42.523C23.9129 42.877 23.2979 43.054 22.5899 43.054C21.9899 43.054 21.4469 42.919 20.9609 42.649C20.4809 42.373 20.0999 41.992 19.8179 41.506C19.5419 41.02 19.4039 40.468 19.4039 39.85ZM30.4701 41.803H27.9681L27.5541 43H26.2311L28.4901 36.709H29.9571L32.2161 43H30.8841L30.4701 41.803ZM30.1281 40.795L29.2191 38.167L28.3101 40.795H30.1281ZM37.6415 38.662C37.6415 38.998 37.5605 39.313 37.3985 39.607C37.2425 39.901 36.9935 40.138 36.6515 40.318C36.3155 40.498 35.8895 40.588 35.3735 40.588H34.3205V43H33.0605V36.718H35.3735C35.8595 36.718 36.2735 36.802 36.6155 36.97C36.9575 37.138 37.2125 37.369 37.3805 37.663C37.5545 37.957 37.6415 38.29 37.6415 38.662ZM35.3195 39.571C35.6675 39.571 35.9255 39.493 36.0935 39.337C36.2615 39.175 36.3455 38.95 36.3455 38.662C36.3455 38.05 36.0035 37.744 35.3195 37.744H34.3205V39.571H35.3195ZM42.811 36.718V37.735H41.137V43H39.877V37.735H38.203V36.718H42.811ZM43.4244 39.85C43.4244 39.232 43.5624 38.68 43.8384 38.194C44.1204 37.702 44.5014 37.321 44.9814 37.051C45.4674 36.775 46.0104 36.637 46.6104 36.637C47.3124 36.637 47.9274 36.817 48.4554 37.177C48.9834 37.537 49.3524 38.035 49.5624 38.671H48.1134C47.9694 38.371 47.7654 38.146 47.5014 37.996C47.2434 37.846 46.9434 37.771 46.6014 37.771C46.2354 37.771 45.9084 37.858 45.6204 38.032C45.3384 38.2 45.1164 38.44 44.9544 38.752C44.7984 39.064 44.7204 39.43 44.7204 39.85C44.7204 40.264 44.7984 40.63 44.9544 40.948C45.1164 41.26 45.3384 41.503 45.6204 41.677C45.9084 41.845 46.2354 41.929 46.6014 41.929C46.9434 41.929 47.2434 41.854 47.5014 41.704C47.7654 41.548 47.9694 41.32 48.1134 41.02H49.5624C49.3524 41.662 48.9834 42.163 48.4554 42.523C47.9334 42.877 47.3184 43.054 46.6104 43.054C46.0104 43.054 45.4674 42.919 44.9814 42.649C44.5014 42.373 44.1204 41.992 43.8384 41.506C43.5624 41.02 43.4244 40.468 43.4244 39.85ZM55.8496 36.718V43H54.5896V40.327H51.8986V43H50.6386V36.718H51.8986V39.301H54.5896V36.718H55.8496ZM60.9418 41.803H58.4398L58.0258 43H56.7028L58.9618 36.709H60.4288L62.6878 43H61.3558L60.9418 41.803ZM60.5998 40.795L59.6908 38.167L58.7817 40.795H60.5998Z" fill="black"/>
<g style="mix-blend-mode:multiply">
<path d="M9.34501 52.9422C9.33041 53.5823 9.62937 55.0334 9.83344 55.6704C11.3144 60.2823 17.2935 61.2755 20.91 59.3862C17.7734 59.0957 14.1802 57.1148 13.3912 53.9307C13.2951 53.5386 13.2336 53.1462 13.2024 52.7569L16.3891 52.3246L13.8219 50.5132L11.2537 48.6982L9.04461 50.9589L6.835 53.2222L9.34501 52.9422Z" fill="#E0F7FF"/>
</g>
<defs>
<linearGradient id="paint0_linear_492_2171" x1="51.5" y1="32" x2="51.5" y2="56" gradientUnits="userSpaceOnUse">
<stop stop-color="white"/>
<stop offset="1" stop-color="#FFC187"/>
</linearGradient>
</defs>
</svg>
