<svg width="32" height="32" viewBox="0 0 32 32" fill="none" xmlns="http://www.w3.org/2000/svg">
<path opacity="0.12" d="M4 10.4C4 8.15979 4 7.03969 4.43597 6.18404C4.81947 5.43139 5.43139 4.81947 6.18404 4.43597C7.03969 4 8.15979 4 10.4 4H21.6C23.8402 4 24.9603 4 25.816 4.43597C26.5686 4.81947 27.1805 5.43139 27.564 6.18404C28 7.03969 28 8.15979 28 10.4V21.6C28 23.8402 28 24.9603 27.564 25.816C27.1805 26.5686 26.5686 27.1805 25.816 27.564C24.9603 28 23.8402 28 21.6 28H10.4C8.15979 28 7.03969 28 6.18404 27.564C5.43139 27.1805 4.81947 26.5686 4.43597 25.816C4 24.9603 4 23.8402 4 21.6V10.4Z" fill="#646AEE"/>
<path fill-rule="evenodd" clip-rule="evenodd" d="M10.3453 2.66663H21.6554C22.7287 2.66661 23.6145 2.6666 24.3361 2.72555C25.0856 2.78679 25.7745 2.9182 26.4216 3.24793C27.4251 3.75925 28.241 4.57515 28.7524 5.57868C29.0821 6.22579 29.2135 6.91473 29.2747 7.66419C29.3337 8.38578 29.3337 9.27158 29.3337 10.3449V21.6551C29.3337 22.7283 29.3337 23.6141 29.2747 24.3357C29.2135 25.0852 29.0821 25.7741 28.7524 26.4212C28.241 27.4248 27.4251 28.2407 26.4216 28.752C25.7745 29.0817 25.0856 29.2131 24.3361 29.2744C23.6145 29.3333 22.7287 29.3333 21.6554 29.3333H10.3452C9.27195 29.3333 8.38615 29.3333 7.66456 29.2744C6.9151 29.2131 6.22616 29.0817 5.57904 28.752C4.57551 28.2407 3.75962 27.4248 3.24829 26.4212C2.91857 25.7741 2.78715 25.0852 2.72592 24.3357C2.68842 23.8768 2.67478 23.3514 2.66982 22.7537C2.66646 22.702 2.6661 22.6502 2.66873 22.5985C2.66698 22.3015 2.66699 21.9872 2.66699 21.655V10.3449C2.66698 9.2716 2.66696 8.38579 2.72592 7.66419C2.78715 6.91473 2.91857 6.22579 3.24829 5.57868C3.75962 4.57515 4.57551 3.75925 5.57904 3.24793C6.22616 2.9182 6.9151 2.78679 7.66456 2.72555C8.38615 2.6666 9.27197 2.66661 10.3453 2.66663ZM5.34292 23.2097C5.34991 23.5573 5.36219 23.855 5.38373 24.1186C5.43149 24.7031 5.51806 25.0021 5.62431 25.2106C5.87997 25.7124 6.28792 26.1203 6.78969 26.376C6.99822 26.4822 7.29716 26.5688 7.88171 26.6166C8.48183 26.6656 9.25822 26.6666 10.4003 26.6666H21.6003C22.7424 26.6666 23.5188 26.6656 24.1189 26.6166C24.7035 26.5688 25.0024 26.4822 25.211 26.376C25.7127 26.1203 26.1207 25.7124 26.3763 25.2106C26.4826 25.0021 26.5692 24.7031 26.6169 24.1186C26.666 23.5185 26.667 22.7421 26.667 21.6V10.4C26.667 9.25785 26.666 8.48146 26.6169 7.88134C26.5692 7.29679 26.4826 6.99785 26.3763 6.78932C26.1207 6.28755 25.7127 5.87961 25.211 5.62394C25.0024 5.51769 24.7035 5.43112 24.1189 5.38336C23.5188 5.33433 22.7424 5.33329 21.6003 5.33329H10.4003C9.25822 5.33329 8.48183 5.33433 7.88171 5.38336C7.29716 5.43112 6.99822 5.51769 6.78969 5.62394C6.28792 5.87961 5.87997 6.28755 5.62431 6.78932C5.51806 6.99785 5.43149 7.29679 5.38373 7.88134C5.3347 8.48146 5.33366 9.25785 5.33366 10.4V19.4477L8.96994 15.8114C8.97711 15.8042 8.98438 15.797 8.99174 15.7896C9.104 15.6772 9.23807 15.5431 9.36588 15.4346C9.51398 15.3088 9.73878 15.1414 10.049 15.0407C10.4506 14.9101 10.8833 14.9101 11.285 15.0407C11.5952 15.1414 11.82 15.3088 11.9681 15.4346C12.0959 15.5431 12.23 15.6772 12.3423 15.7896C12.3496 15.797 12.3569 15.8042 12.364 15.8114L14.667 18.1143L19.448 13.3333H17.3337C16.5973 13.3333 16.0003 12.7363 16.0003 12C16.0003 11.2636 16.5973 10.6666 17.3337 10.6666H22.667C23.4034 10.6666 24.0003 11.2636 24.0003 12V17.3333C24.0003 18.0697 23.4034 18.6666 22.667 18.6666C21.9306 18.6666 21.3337 18.0697 21.3337 17.3333V15.2189L16.364 20.1885C16.3569 20.1957 16.3496 20.203 16.3422 20.2104C16.23 20.3227 16.0959 20.4569 15.9681 20.5654C15.82 20.6911 15.5952 20.8585 15.285 20.9593C14.8833 21.0898 14.4506 21.0898 14.049 20.9593C13.7388 20.8585 13.514 20.6911 13.3659 20.5654C13.2381 20.4569 13.104 20.3227 12.9918 20.2104C12.9844 20.203 12.9771 20.1957 12.9699 20.1885L10.667 17.8856L5.34292 23.2097Z" fill="#646AEE"/>
</svg>
