<svg width="80" height="80" viewBox="0 0 80 80" fill="none" xmlns="http://www.w3.org/2000/svg">
<g style="mix-blend-mode:multiply">
<path fill-rule="evenodd" clip-rule="evenodd" d="M21.0481 59.9319C18.3252 59.9319 15.9698 59.0345 13.9819 57.2396C11.994 55.4447 11 53.2083 11 50.5305C11 47.8846 11.976 45.6943 13.9279 43.9596C15.8798 42.2249 18.1931 41.3575 20.868 41.3575C23.275 41.3575 25.3186 42.181 26.9988 43.8279C28.6789 45.4747 29.519 47.4877 29.519 49.8668H33.314C33.282 46.4863 32.0998 43.6092 29.7673 41.2356C27.4348 38.862 24.4527 37.6315 20.821 37.544C22.0122 35.1409 23.7604 33.307 26.0656 32.0424C28.3708 30.7778 30.8368 30.1455 33.4636 30.1455C37.0341 30.1455 40.105 31.2999 42.6761 33.6086C45.2472 35.9173 46.5769 38.8104 46.6649 42.2879C49.08 42.4162 51.0935 43.3238 52.7057 45.0108C54.3177 46.6978 55.1238 48.7308 55.1238 51.1099C55.1238 53.5611 54.2677 55.6443 52.5556 57.3593C50.8434 59.0744 48.7638 59.9319 46.3167 59.9319H21.0481Z" fill="#1677FF"/>
</g>
<g style="mix-blend-mode:soft-light">
<path fill-rule="evenodd" clip-rule="evenodd" d="M33.4636 30.1455C37.0341 30.1455 40.105 31.2999 42.6761 33.6086C45.2473 35.9173 46.5769 38.8104 46.6649 42.2879C49.08 42.4162 51.0935 43.3238 52.7057 45.0108C54.3178 46.6978 55.1238 48.7308 55.1238 51.1099C55.1238 53.5611 54.2677 55.6443 52.5556 57.3593C51.8136 58.1025 51.0027 58.6847 50.1228 59.1058L50.1025 59.1107C48.1876 59.5839 46.1854 59.8349 44.1246 59.8349C32.6186 59.8349 22.9371 52.0098 20.0947 41.3825C20.3497 41.3657 20.6071 41.3575 20.868 41.3575C23.275 41.3575 25.3186 42.181 26.9988 43.8279C28.6789 45.4747 29.519 47.4877 29.519 49.8668H33.314C33.282 46.4863 32.0998 43.6092 29.7673 41.2356C27.4348 38.862 24.4527 37.6315 20.821 37.544C22.0122 35.1409 23.7604 33.307 26.0656 32.0424C28.3708 30.7778 30.8368 30.1455 33.4636 30.1455Z" fill="url(#paint0_linear_60_824)"/>
</g>
<g style="mix-blend-mode:multiply">
<path fill-rule="evenodd" clip-rule="evenodd" d="M51.9451 34.6178V34.6456C51.9451 39.067 48.3669 42.6511 43.9531 42.6511C39.5393 42.6511 35.9611 39.067 35.9611 34.6456V34.6178C35.9611 30.1965 39.5393 26.6123 43.9531 26.6123C48.3669 26.6123 51.9451 30.1965 51.9451 34.6178Z" fill="#00BFD0"/>
</g>
<path d="M39.089 52.3884V69.0001L41.2015 66.884" stroke="black" stroke-width="1.71554" stroke-linecap="round" stroke-linejoin="round"/>
<path d="M32.7987 69V52.3883L30.6862 54.5045" stroke="black" stroke-width="1.71554" stroke-linecap="round" stroke-linejoin="round"/>
<g style="mix-blend-mode:multiply">
<path fill-rule="evenodd" clip-rule="evenodd" d="M44.1246 10C57.8629 10 69 21.1559 69 34.9175C69 46.6063 60.965 56.4154 50.1259 59.105C51.0045 58.6835 51.8144 58.1018 52.5555 57.3594C54.2677 55.6443 55.1238 53.5612 55.1238 51.11C55.1238 48.7309 54.3177 46.6979 52.7056 45.0109C51.0935 43.3239 49.0799 42.4163 46.6649 42.288C46.5768 38.8105 45.2472 35.9174 42.6761 33.6087C40.105 31.2999 37.0341 30.1456 33.4635 30.1456C30.8367 30.1456 28.3707 30.7779 26.0655 32.0425C23.7603 33.3071 22.0122 35.141 20.821 37.5441C24.4527 37.6315 27.4348 38.8621 29.7672 41.2356C32.0997 43.6093 33.282 46.4863 33.314 49.8669H29.519C29.519 47.4878 28.6789 45.4748 26.9987 43.8279C25.3186 42.181 23.275 41.3576 20.8679 41.3576C20.6069 41.3576 20.3493 41.3658 20.0951 41.3823C19.5433 39.3209 19.2492 37.1536 19.2492 34.9175C19.2492 21.1559 30.3863 10 44.1246 10Z" fill="#FFEFDF"/>
</g>
<defs>
<linearGradient id="paint0_linear_60_824" x1="37.6088" y1="36.0832" x2="37.6091" y2="59.8349" gradientUnits="userSpaceOnUse">
<stop stop-color="white"/>
<stop offset="1" stop-color="#FFC187"/>
</linearGradient>
</defs>
</svg>
