<svg width="80" height="80" viewBox="0 0 80 80" fill="none" xmlns="http://www.w3.org/2000/svg">
<g style="mix-blend-mode:multiply">
<path d="M48.3629 23.4668H29.4947C24.2843 23.4668 20.0605 27.6985 20.0605 32.9186V51.8222C20.0605 57.0423 24.2843 61.274 29.4947 61.274H48.3629C53.5732 61.274 57.797 57.0423 57.797 51.8222V32.9186C57.797 27.6985 53.5732 23.4668 48.3629 23.4668Z" fill="#1677FF"/>
</g>
<g style="mix-blend-mode:soft-light">
<path fill-rule="evenodd" clip-rule="evenodd" d="M57.797 51.8222C57.797 57.0423 53.5732 61.274 48.3629 61.274H30.674V55.3667C30.674 53.4091 32.2579 51.8222 34.2117 51.8222H57.797ZM57.797 34.1001V48.2778H34.2117C32.2579 48.2778 30.674 46.6909 30.674 44.7334V37.6445C30.674 35.687 32.2579 34.1001 34.2117 34.1001H57.797Z" fill="url(#paint0_linear_60_828)"/>
</g>
<g style="mix-blend-mode:multiply">
<path fill-rule="evenodd" clip-rule="evenodd" d="M34.2117 34.1001H65.4622C67.4161 34.1001 69 35.687 69 37.6445V44.7334C69 46.6909 67.4161 48.2778 65.4622 48.2778H34.2117C32.2579 48.2778 30.674 46.6909 30.674 44.7334V37.6445C30.674 35.687 32.2579 34.1001 34.2117 34.1001ZM34.2117 51.8222H65.4622C67.4161 51.8222 69 53.4091 69 55.3667V62.4555C69 64.4131 67.4161 65.9999 65.4622 65.9999H34.2117C32.2579 65.9999 30.674 64.4131 30.674 62.4555V55.3667C30.674 53.4091 32.2579 51.8222 34.2117 51.8222Z" fill="#FFEFDF"/>
</g>
<path d="M44.8251 48.2779L50.7214 42.3705L44.8251 36.4631M33.0324 36.4631L27.1361 42.3705L33.0324 48.2779" stroke="black" stroke-width="1.7689" stroke-linecap="round" stroke-linejoin="round"/>
<g style="mix-blend-mode:multiply">
<path fill-rule="evenodd" clip-rule="evenodd" d="M30.2759 18.7259V26.6126C30.2759 29.2226 28.164 31.3385 25.5589 31.3385H17.717C15.1118 31.3385 12.9999 29.2226 12.9999 26.6126V18.7259C12.9999 16.1159 15.1118 14 17.717 14H25.5589C28.164 14 30.2759 16.1159 30.2759 18.7259Z" fill="#00BFD0"/>
</g>
<path fill-rule="evenodd" clip-rule="evenodd" d="M24.7776 22.8761C24.7776 24.5073 23.4577 25.8297 21.8294 25.8297C20.2012 25.8297 18.8813 24.5073 18.8813 22.8761C18.8813 21.2448 20.2012 19.9224 21.8294 19.9224C23.4577 19.9224 24.7776 21.2448 24.7776 22.8761Z" fill="white"/>
<defs>
<linearGradient id="paint0_linear_60_828" x1="44.2355" y1="34.1001" x2="44.2355" y2="61.274" gradientUnits="userSpaceOnUse">
<stop stop-color="white"/>
<stop offset="1" stop-color="#FFC187"/>
</linearGradient>
</defs>
</svg>
