<svg width="32" height="32" viewBox="0 0 32 32" fill="none" xmlns="http://www.w3.org/2000/svg">
<path opacity="0.12" d="M10.667 29.3334C15.0853 29.3334 18.667 25.7517 18.667 21.3334C18.667 16.9151 15.0853 13.3334 10.667 13.3334C6.24871 13.3334 2.66699 16.9151 2.66699 21.3334C2.66699 25.7517 6.24871 29.3334 10.667 29.3334Z" fill="#646AEE"/>
<path fill-rule="evenodd" clip-rule="evenodd" d="M7.05687 1.7239C7.57756 1.2032 8.42178 1.2032 8.94248 1.7239L11.6092 4.39057C12.1299 4.91126 12.1299 5.75548 11.6092 6.27618L8.94248 8.94285C8.42178 9.46355 7.57756 9.46355 7.05687 8.94285C6.53617 8.42215 6.53617 7.57793 7.05687 7.05723L7.40322 6.71088C5.47698 6.99886 3.99967 8.66026 3.99967 10.6667C3.99967 11.4031 3.40272 12 2.66634 12C1.92996 12 1.33301 11.4031 1.33301 10.6667C1.33301 7.16368 4.03481 4.29169 7.46826 4.02091L7.05687 3.60952C6.53617 3.08882 6.53617 2.2446 7.05687 1.7239ZM12.2938 8.33436C13.3298 4.30912 16.9822 1.33337 21.333 1.33337C26.4877 1.33337 30.6663 5.51205 30.6663 10.6667C30.6663 15.0175 27.6906 18.6698 23.6654 19.7059C22.9523 19.8895 22.2254 19.4601 22.0418 18.747C21.8583 18.0339 22.2876 17.307 23.0007 17.1234C25.8764 16.3832 27.9997 13.7713 27.9997 10.6667C27.9997 6.98481 25.0149 4.00004 21.333 4.00004C18.2284 4.00004 15.6164 6.12339 14.8763 8.99905C14.6927 9.71219 13.9658 10.1415 13.2527 9.95796C12.5396 9.77441 12.1102 9.0475 12.2938 8.33436ZM10.6663 14.6667C6.98444 14.6667 3.99967 17.6515 3.99967 21.3334C3.99967 25.0153 6.98444 28 10.6663 28C14.3482 28 17.333 25.0153 17.333 21.3334C17.333 17.6515 14.3482 14.6667 10.6663 14.6667ZM1.33301 21.3334C1.33301 16.1787 5.51168 12 10.6663 12C15.821 12 19.9997 16.1787 19.9997 21.3334C19.9997 26.488 15.821 30.6667 10.6663 30.6667C5.51168 30.6667 1.33301 26.488 1.33301 21.3334ZM29.333 20C30.0694 20 30.6663 20.597 30.6663 21.3334C30.6663 24.8364 27.9645 27.7084 24.5311 27.9792L24.9425 28.3906C25.4632 28.9113 25.4632 29.7555 24.9425 30.2762C24.4218 30.7969 23.5776 30.7969 23.0569 30.2762L20.3902 27.6095C19.8695 27.0888 19.8695 26.2446 20.3902 25.7239L23.0569 23.0572C23.5776 22.5365 24.4218 22.5365 24.9425 23.0572C25.4632 23.5779 25.4632 24.4222 24.9425 24.9429L24.5961 25.2892C26.5224 25.0012 27.9997 23.3398 27.9997 21.3334C27.9997 20.597 28.5966 20 29.333 20Z" fill="#646AEE"/>
</svg>
