<svg width="80" height="80" viewBox="0 0 80 80" fill="none" xmlns="http://www.w3.org/2000/svg">
<path d="M50.3864 26.9351C53.3676 26.9351 55.7841 29.55 55.7841 32.7794V44.4663H58.483C59.9744 44.4663 61.1818 45.7745 61.1818 47.3888V59.0774C61.1818 60.6925 59.9727 61.9999 58.483 61.9999H39.5909C38.0995 61.9999 36.892 60.6925 36.892 59.0782V47.3896C36.892 45.7754 38.1011 44.4671 39.5909 44.4671H52.0057V32.7794C52.0057 31.8106 51.2799 31.026 50.3864 31.026H44.9886V26.9351H50.3864ZM39.5909 21.0908C41.0823 21.0908 42.2898 22.3983 42.2898 24.0125V35.7011C42.2898 37.3154 41.0807 38.6236 39.5909 38.6236H27.1761V50.3114C27.1761 51.2801 27.9019 52.0647 28.7955 52.0647H33.9091V56.1556H28.7955C25.9081 56.1556 23.5489 53.7011 23.4052 50.6125L23.3977 50.3114V38.6245H20.6989C19.2074 38.6245 18 37.3162 18 35.7019V24.0125C18 22.3983 19.2091 21.0908 20.6989 21.0908H39.5909Z" fill="#1677FF"/>
<circle cx="48.6818" cy="31.3182" r="19.3182" fill="#FFEFDF" style="mix-blend-mode:multiply"/>
<rect x="18" y="46.0908" width="15.9091" height="15.9091" rx="3.40909" fill="#00BFD0" style="mix-blend-mode:multiply"/>
<circle cx="25.9545" cy="54.0454" r="2.27273" fill="#FFF9FF"/>
<path fill-rule="evenodd" clip-rule="evenodd" d="M36.9714 46.6835C37.2632 45.4105 38.3258 44.4671 39.5909 44.4671H52.0057V32.7794C52.0057 31.8106 51.2799 31.026 50.3864 31.026H44.9886V26.9351H50.3864C53.3676 26.9351 55.7841 29.55 55.7841 32.7794V44.4663H58.483C59.5945 44.4663 60.5483 45.193 60.9621 46.2315C57.6239 48.9834 53.3459 50.6363 48.6818 50.6363C44.2791 50.6363 40.2203 49.1634 36.9714 46.6835ZM30.7928 38.6236H39.5909C41.0807 38.6236 42.2898 37.3154 42.2898 35.7011V24.0125C42.2898 22.3983 41.0823 21.0908 39.5909 21.0908H32.2899C30.4354 24.0568 29.3636 27.5623 29.3636 31.3181C29.3636 33.9033 29.8715 36.3699 30.7928 38.6236Z" fill="url(#paint0_linear_84_10590)"/>
<path d="M59.4773 23.9319C59.4773 23.9319 58.7236 26.9459 58.7236 26.7728C57.8177 23.2768 54.1547 21.0448 50.9545 21.5464" stroke="black" stroke-width="1.36364" stroke-linecap="round"/>
<defs>
<linearGradient id="paint0_linear_84_10590" x1="56.0682" y1="35.8635" x2="29.3636" y2="35.8635" gradientUnits="userSpaceOnUse">
<stop stop-color="#60B1FF"/>
<stop offset="1" stop-color="#5C91FF"/>
</linearGradient>
</defs>
</svg>
