<svg width="32" height="32" viewBox="0 0 32 32" fill="none" xmlns="http://www.w3.org/2000/svg">
<path fill-rule="evenodd" clip-rule="evenodd" d="M16.0007 3.99992C9.37323 3.99992 4.00065 9.3725 4.00065 15.9999C4.00065 22.6273 9.37323 27.9999 16.0007 27.9999C22.6281 27.9999 28.0007 22.6273 28.0007 15.9999C28.0007 9.3725 22.6281 3.99992 16.0007 3.99992ZM1.33398 15.9999C1.33398 7.89974 7.90047 1.33325 16.0007 1.33325C24.1008 1.33325 30.6673 7.89974 30.6673 15.9999C30.6673 24.1001 24.1008 30.6666 16.0007 30.6666C7.90047 30.6666 1.33398 24.1001 1.33398 15.9999ZM16.0007 5.99992C16.737 5.99992 17.334 6.59687 17.334 7.33325V7.99992H17.5562C20.0108 7.99992 22.0007 9.98976 22.0007 12.4444C22.0007 13.1807 21.4037 13.7777 20.6673 13.7777C19.9309 13.7777 19.334 13.1807 19.334 12.4444C19.334 11.4625 18.538 10.6666 17.5562 10.6666H14.6673C13.5627 10.6666 12.6673 11.562 12.6673 12.6666C12.6673 13.7712 13.5627 14.6666 14.6673 14.6666H17.334C19.9113 14.6666 22.0007 16.7559 22.0007 19.3333C22.0007 21.9106 19.9113 23.9999 17.334 23.9999V24.6666C17.334 25.403 16.737 25.9999 16.0007 25.9999C15.2643 25.9999 14.6673 25.403 14.6673 24.6666V23.9999H14.4451C11.9905 23.9999 10.0007 22.0101 10.0007 19.5555C10.0007 18.8191 10.5976 18.2221 11.334 18.2221C12.0704 18.2221 12.6673 18.8191 12.6673 19.5555C12.6673 20.5373 13.4633 21.3333 14.4451 21.3333H17.334C18.4386 21.3333 19.334 20.4378 19.334 19.3333C19.334 18.2287 18.4386 17.3333 17.334 17.3333H14.6673C12.09 17.3333 10.0007 15.2439 10.0007 12.6666C10.0007 10.0893 12.09 7.99992 14.6673 7.99992V7.33325C14.6673 6.59687 15.2643 5.99992 16.0007 5.99992Z" fill="#646AEE"/>
</svg>
