<svg width="80" height="80" viewBox="0 0 80 80" fill="none" xmlns="http://www.w3.org/2000/svg">
<g style="mix-blend-mode:multiply">
<path d="M59 39C59.5523 39 60.0026 39.448 59.975 39.9996C59.8607 42.2845 59.355 44.5355 58.4776 46.6537C57.4725 49.0802 55.9993 51.285 54.1421 53.1421C52.285 54.9993 50.0802 56.4725 47.6537 57.4776C45.2272 58.4827 42.6264 59 40 59C37.3736 59 34.7728 58.4827 32.3463 57.4776C29.9198 56.4725 27.715 54.9993 25.8579 53.1421C24.0007 51.285 22.5275 49.0802 21.5224 46.6537C20.645 44.5355 20.1393 42.2845 20.025 39.9996C19.9974 39.448 20.4477 39 21 39L40 39H59Z" fill="#1677FF"/>
</g>
<g style="mix-blend-mode:multiply">
<path d="M26.3629 37.1777H30.5111C30.6074 37.1777 30.6997 37.1392 30.7678 37.0705C30.8359 37.0019 30.8742 36.9088 30.8742 36.8118V33.0863C30.8742 32.9892 30.8359 32.8962 30.7678 32.8275C30.6997 32.7589 30.6074 32.7203 30.5111 32.7203H26.3631C26.2668 32.7203 26.1744 32.7589 26.1063 32.8275C26.0383 32.8962 26 32.9892 26 33.0863V36.8118C26 36.9088 26.0383 37.0019 26.1063 37.0705C26.1744 37.1392 26.2666 37.1777 26.3629 37.1777ZM32.0793 37.1777H36.2274C36.2751 37.1778 36.3223 37.1683 36.3664 37.1499C36.4104 37.1316 36.4505 37.1046 36.4842 37.0706C36.518 37.0366 36.5447 36.9963 36.563 36.9519C36.5812 36.9074 36.5906 36.8598 36.5906 36.8118V33.0863C36.5906 32.9892 36.5524 32.8962 36.4843 32.8275C36.4162 32.7589 36.3239 32.7203 36.2276 32.7203H32.0795C31.9832 32.7203 31.8909 32.7589 31.8228 32.8275C31.7547 32.8962 31.7165 32.9892 31.7165 33.0863V36.8118C31.7165 36.9088 31.7547 37.0019 31.8228 37.0705C31.8909 37.1392 31.9831 37.1777 32.0793 37.1777ZM37.8844 37.1777H42.0329C42.1291 37.1777 42.2215 37.1392 42.2896 37.0705C42.3577 37.0019 42.3959 36.9088 42.3959 36.8118V33.0863C42.3959 32.9892 42.3577 32.8962 42.2896 32.8275C42.2215 32.7589 42.1291 32.7203 42.0329 32.7203H37.8844C37.8368 32.7203 37.7895 32.7298 37.7455 32.7482C37.7014 32.7666 37.6614 32.7935 37.6277 32.8275C37.594 32.8615 37.5672 32.9018 37.549 32.9462C37.5308 32.9907 37.5214 33.0382 37.5214 33.0863V36.8118C37.5214 36.8598 37.5308 36.9074 37.549 36.9518C37.5672 36.9962 37.594 37.0366 37.6277 37.0705C37.6614 37.1045 37.7014 37.1315 37.7455 37.1499C37.7895 37.1683 37.8368 37.1777 37.8844 37.1777ZM43.62 37.1777H47.7683C47.8645 37.1777 47.9569 37.1392 48.025 37.0705C48.0931 37.0019 48.1313 36.9088 48.1313 36.8118V33.0863C48.1313 32.9892 48.0931 32.8962 48.025 32.8275C47.9569 32.7589 47.8645 32.7203 47.7683 32.7203H43.62C43.5237 32.7203 43.4314 32.7589 43.3633 32.8275C43.2952 32.8962 43.257 32.9892 43.257 33.0863V36.8118C43.257 36.9088 43.2952 37.0019 43.3633 37.0705C43.4314 37.1392 43.5237 37.1777 43.62 37.1777ZM32.0793 31.8176H36.2274C36.2751 31.8176 36.3223 31.8082 36.3664 31.7898C36.4104 31.7714 36.4505 31.7445 36.4842 31.7105C36.518 31.6765 36.5447 31.6361 36.563 31.5917C36.5812 31.5473 36.5906 31.4997 36.5906 31.4516V27.7262C36.5906 27.6291 36.5524 27.536 36.4843 27.4674C36.4162 27.3987 36.3239 27.3602 36.2276 27.3602H32.0795C31.9832 27.3602 31.8909 27.3987 31.8228 27.4674C31.7547 27.536 31.7165 27.6291 31.7165 27.7262V31.4514C31.7164 31.4995 31.7258 31.5471 31.744 31.5915C31.7623 31.636 31.789 31.6763 31.8227 31.7103C31.8565 31.7443 31.8965 31.7713 31.9406 31.7897C31.9846 31.8081 32.0317 31.8176 32.0793 31.8176ZM37.8844 31.8176H42.0329C42.1291 31.8176 42.2215 31.779 42.2896 31.7104C42.3577 31.6418 42.3959 31.5487 42.3959 31.4516V27.7262C42.3959 27.6291 42.3577 27.536 42.2896 27.4674C42.2215 27.3987 42.1291 27.3602 42.0329 27.3602H37.8844C37.8368 27.3602 37.7895 27.3696 37.7455 27.388C37.7014 27.4064 37.6614 27.4334 37.6277 27.4674C37.594 27.5014 37.5672 27.5417 37.549 27.5861C37.5308 27.6305 37.5214 27.6781 37.5214 27.7262V31.4514C37.5213 31.4995 37.5307 31.5471 37.5489 31.5915C37.5672 31.636 37.5939 31.6763 37.6276 31.7103C37.6614 31.7443 37.7014 31.7713 37.7454 31.7897C37.7895 31.8081 37.8367 31.8176 37.8844 31.8176ZM43.62 31.8176H47.7683C47.8645 31.8176 47.9569 31.779 48.025 31.7104C48.0931 31.6418 48.1313 31.5487 48.1313 31.4516V27.7262C48.1313 27.6291 48.0931 27.536 48.025 27.4674C47.9569 27.3987 47.8645 27.3602 47.7683 27.3602H43.62C43.5237 27.3602 43.4314 27.3987 43.3633 27.4674C43.2952 27.536 43.257 27.6291 43.257 27.7262V31.4514C43.2569 31.4995 43.2663 31.5471 43.2845 31.5915C43.3028 31.636 43.3295 31.6763 43.3632 31.7103C43.3969 31.7443 43.437 31.7713 43.481 31.7897C43.5251 31.8081 43.5723 31.8176 43.62 31.8176ZM43.62 26.4574H47.7683C47.8645 26.4574 47.9569 26.4189 48.025 26.3503C48.0931 26.2816 48.1313 26.1885 48.1313 26.0915V22.366C48.1313 22.2689 48.0931 22.1759 48.025 22.1072C47.9569 22.0386 47.8645 22 47.7683 22H43.62C43.5237 22 43.4314 22.0386 43.3633 22.1072C43.2952 22.1759 43.257 22.2689 43.257 22.366V26.0915C43.257 26.1885 43.2952 26.2816 43.3633 26.3503C43.4314 26.4189 43.5237 26.4574 43.62 26.4574ZM49.4062 37.1777H53.5544C53.6021 37.1777 53.6493 37.1683 53.6933 37.1499C53.7374 37.1315 53.7774 37.1045 53.8111 37.0705C53.8449 37.0366 53.8716 36.9962 53.8898 36.9518C53.9081 36.9074 53.9175 36.8598 53.9175 36.8118V33.0863C53.9175 33.0382 53.9081 32.9907 53.8898 32.9462C53.8716 32.9018 53.8449 32.8615 53.8111 32.8275C53.7774 32.7935 53.7374 32.7666 53.6933 32.7482C53.6493 32.7298 53.6021 32.7203 53.5544 32.7203H49.4064C49.3101 32.7203 49.2177 32.7589 49.1496 32.8275C49.0816 32.8962 49.0433 32.9892 49.0433 33.0863V36.8118C49.0433 36.9088 49.0816 37.0019 49.1496 37.0705C49.2177 37.1392 49.3101 37.1777 49.4064 37.1777" fill="#1677FF"/>
</g>
<g style="mix-blend-mode:multiply">
<circle cx="28" cy="30" r="18" fill="#FFEFDF"/>
</g>
<g style="mix-blend-mode:multiply">
<rect x="37" y="20" width="29" height="12" rx="2" fill="#E0F7FF"/>
</g>
<g style="mix-blend-mode:multiply">
<path d="M61.173 48.1846C60.3864 50.0836 59.3609 51.8694 58.1245 53.5001" stroke="black" stroke-width="1.6" stroke-linecap="round"/>
</g>
<g style="mix-blend-mode:soft-light">
<path fill-rule="evenodd" clip-rule="evenodd" d="M45.9094 31.8176C45.9693 31.2198 46 30.6135 46 30C46 29.1032 45.9344 28.2218 45.8078 27.3601H43.6199C43.5236 27.3601 43.4313 27.3987 43.3632 27.4673C43.2951 27.536 43.2569 27.6291 43.2569 27.7261V31.4514C43.2568 31.4995 43.2662 31.5471 43.2844 31.5915C43.3027 31.6359 43.3294 31.6763 43.3631 31.7103C43.3968 31.7443 43.4369 31.7713 43.4809 31.7897C43.525 31.8081 43.5722 31.8176 43.6199 31.8176H45.9094ZM45.7958 32.7203H43.6199C43.5236 32.7203 43.4313 32.7589 43.3632 32.8275C43.2951 32.8961 43.2569 32.9892 43.2569 33.0863V36.8117C43.2569 36.9088 43.2951 37.0019 43.3632 37.0705C43.4313 37.1391 43.5236 37.1777 43.6199 37.1777H44.512C45.1223 35.7757 45.5592 34.2809 45.7958 32.7203ZM43.5919 39H39.9999L20.9999 39C20.4476 39 19.9973 39.448 20.0249 39.9996C20.1392 42.2845 20.6449 44.5354 21.5223 46.6536C21.5463 46.7116 21.5706 46.7694 21.5951 46.8271C23.585 47.585 25.7441 48 28 48C34.6626 48 40.4797 44.3802 43.5919 39ZM44.129 22C44.8212 23.393 45.3383 24.8884 45.6515 26.4574H43.6199C43.5236 26.4574 43.4313 26.4189 43.3632 26.3502C43.2951 26.2816 43.2569 26.1885 43.2569 26.0914V22.366C43.2569 22.2689 43.2951 22.1758 43.3632 22.1072C43.4313 22.0386 43.5236 22 43.6199 22H44.129ZM26.3628 37.1777H30.511C30.6073 37.1777 30.6996 37.1391 30.7677 37.0705C30.8358 37.0019 30.8741 36.9088 30.8741 36.8117V33.0863C30.8741 32.9892 30.8358 32.8961 30.7677 32.8275C30.6996 32.7589 30.6073 32.7203 30.511 32.7203H26.363C26.2667 32.7203 26.1743 32.7589 26.1062 32.8275C26.0381 32.8961 25.9999 32.9892 25.9999 33.0863V36.8117C25.9999 36.9088 26.0381 37.0019 26.1062 37.0705C26.1743 37.1391 26.2665 37.1777 26.3628 37.1777ZM32.0792 37.1777H36.2273C36.275 37.1777 36.3222 37.1683 36.3663 37.1499C36.4103 37.1315 36.4504 37.1046 36.4841 37.0706C36.5179 37.0366 36.5446 36.9962 36.5629 36.9518C36.5811 36.9074 36.5905 36.8598 36.5905 36.8117V33.0863C36.5905 32.9892 36.5523 32.8961 36.4842 32.8275C36.4161 32.7589 36.3238 32.7203 36.2275 32.7203H32.0794C31.9831 32.7203 31.8908 32.7589 31.8227 32.8275C31.7546 32.8961 31.7164 32.9892 31.7164 33.0863V36.8117C31.7164 36.9088 31.7546 37.0019 31.8227 37.0705C31.8908 37.1391 31.9829 37.1777 32.0792 37.1777ZM37.8843 37.1777H42.0327C42.129 37.1777 42.2214 37.1391 42.2895 37.0705C42.3576 37.0019 42.3958 36.9088 42.3958 36.8117V33.0863C42.3958 32.9892 42.3576 32.8961 42.2895 32.8275C42.2214 32.7589 42.129 32.7203 42.0327 32.7203H37.8843C37.8366 32.7203 37.7894 32.7298 37.7454 32.7482C37.7013 32.7665 37.6613 32.7935 37.6276 32.8275C37.5939 32.8615 37.5671 32.9018 37.5489 32.9462C37.5306 32.9906 37.5213 33.0382 37.5213 33.0863V36.8117C37.5213 36.8598 37.5306 36.9074 37.5489 36.9518C37.5671 36.9962 37.5939 37.0365 37.6276 37.0705C37.6613 37.1045 37.7013 37.1314 37.7454 37.1498C37.7894 37.1682 37.8366 37.1777 37.8843 37.1777ZM32.0792 31.8176H36.2273C36.275 31.8176 36.3222 31.8081 36.3663 31.7898C36.4103 31.7714 36.4504 31.7444 36.4841 31.7104C36.5179 31.6764 36.5446 31.6361 36.5629 31.5917C36.5811 31.5473 36.5905 31.4997 36.5905 31.4516V27.7261C36.5905 27.6291 36.5523 27.536 36.4842 27.4673C36.4161 27.3987 36.3238 27.3601 36.2275 27.3601H32.0794C31.9831 27.3601 31.8908 27.3987 31.8227 27.4673C31.7546 27.536 31.7164 27.6291 31.7164 27.7261V31.4514C31.7163 31.4995 31.7257 31.5471 31.7439 31.5915C31.7622 31.6359 31.7889 31.6763 31.8226 31.7103C31.8563 31.7443 31.8964 31.7713 31.9404 31.7897C31.9845 31.8081 32.0315 31.8176 32.0792 31.8176ZM37.8843 31.8176H42.0327C42.129 31.8176 42.2214 31.779 42.2895 31.7104C42.3576 31.6417 42.3958 31.5486 42.3958 31.4516V27.7261C42.3958 27.6291 42.3576 27.536 42.2895 27.4673C42.2214 27.3987 42.129 27.3601 42.0327 27.3601H37.8843C37.8366 27.3601 37.7894 27.3696 37.7454 27.388C37.7013 27.4064 37.6613 27.4334 37.6276 27.4673C37.5939 27.5013 37.5671 27.5417 37.5489 27.5861C37.5306 27.6305 37.5213 27.6781 37.5213 27.7261V31.4514C37.5212 31.4995 37.5306 31.5471 37.5488 31.5915C37.5671 31.6359 37.5938 31.6763 37.6275 31.7103C37.6612 31.7443 37.7013 31.7713 37.7453 31.7897C37.7894 31.8081 37.8366 31.8176 37.8843 31.8176Z" fill="url(#paint0_linear_497_1986)"/>
</g>
<g style="mix-blend-mode:multiply">
<path fill-rule="evenodd" clip-rule="evenodd" d="M40 55.1111V62.8889C40 64.6071 38.6047 66 36.8835 66H29.1165C27.3953 66 26 64.6071 26 62.8889V55.1111C26 53.3929 27.3953 52 29.1165 52H36.8835C38.6047 52 40 53.3929 40 55.1111Z" fill="#00BFD0"/>
</g>
<path d="M33 61.625C34.4497 61.625 35.625 60.4497 35.625 59C35.625 57.5503 34.4497 56.375 33 56.375C31.5503 56.375 30.375 57.5503 30.375 59C30.375 60.4497 31.5503 61.625 33 61.625Z" fill="white"/>
<defs>
<linearGradient id="paint0_linear_497_1986" x1="33" y1="22" x2="33" y2="47" gradientUnits="userSpaceOnUse">
<stop stop-color="white"/>
<stop offset="1" stop-color="#FFC187"/>
</linearGradient>
</defs>
</svg>
