<svg width="80" height="80" viewBox="0 0 80 80" fill="none" xmlns="http://www.w3.org/2000/svg">
<g style="mix-blend-mode:multiply">
<path fill-rule="evenodd" clip-rule="evenodd" d="M36.3474 21.9294L51.4147 30.5901C52.5097 31.2194 53.1849 32.3871 53.1849 33.6513V50.9374C53.1849 52.2016 52.5097 53.3693 51.4147 53.9986L36.3474 62.6593C35.2606 63.2839 33.9243 63.2839 32.8375 62.6593L17.7702 53.9986C16.6752 53.3693 16 52.2016 16 50.9374V33.6513C16 32.3871 16.6752 31.2194 17.7702 30.5901L32.8375 21.9294C33.9243 21.3048 35.2606 21.3048 36.3474 21.9294Z" fill="#1677FF"/>
</g>
<g style="mix-blend-mode:soft-light">
<path fill-rule="evenodd" clip-rule="evenodd" d="M36.3473 21.9294L51.4147 30.5901C52.5097 31.2194 53.1849 32.3871 53.1849 33.6513L53.1848 42.7643L34.1543 42.7891L34.1544 21.4883C34.9019 21.3946 35.6727 21.5417 36.3473 21.9294Z" fill="url(#paint0_linear_60_816)"/>
</g>
<g style="mix-blend-mode:multiply">
<path fill-rule="evenodd" clip-rule="evenodd" d="M52.1203 43.739L58.0811 47.1653C59.1761 47.7946 59.8513 48.9623 59.8513 50.2266V57.0439C59.8513 58.3081 59.1761 59.4758 58.0811 60.1051L52.1203 63.5314C51.0335 64.1561 49.6972 64.1561 48.6104 63.5314L42.6496 60.1051C41.5546 59.4758 40.8794 58.3081 40.8794 57.0439V50.2266C40.8794 48.9623 41.5546 47.7946 42.6496 47.1653L48.6104 43.739C49.6972 43.1143 51.0335 43.1143 52.1203 43.739Z" fill="#00BFD0"/>
</g>
<g style="mix-blend-mode:multiply">
<path fill-rule="evenodd" clip-rule="evenodd" d="M34.1543 14L37.311 14.002C53.1585 14.0123 66 26.8792 66 42.7479L53.1848 42.7646L53.1849 33.6512C53.1849 32.466 52.5914 31.3656 51.615 30.7141L51.4147 30.5899L36.3473 21.9293C35.6727 21.5415 34.9019 21.3944 34.1543 21.4881L34.1543 14Z" fill="#FFEFDF"/>
</g>
<path d="M36.3449 42.2942H24.884" stroke="black" stroke-width="1.76254" stroke-linecap="round"/>
<path d="M34.5924 46.2199C36.7702 46.2199 38.5356 44.4623 38.5356 42.2942C38.5356 40.126 36.7702 38.3684 34.5924 38.3684C32.4146 38.3684 30.6492 40.126 30.6492 42.2942C30.6492 44.4623 32.4146 46.2199 34.5924 46.2199Z" fill="white"/>
<defs>
<linearGradient id="paint0_linear_60_816" x1="43.6693" y1="25.7265" x2="43.6697" y2="42.7891" gradientUnits="userSpaceOnUse">
<stop stop-color="white"/>
<stop offset="1" stop-color="#FFC187"/>
</linearGradient>
</defs>
</svg>
