<svg width="32" height="32" viewBox="0 0 32 32" fill="none" xmlns="http://www.w3.org/2000/svg">
<path opacity="0.12" d="M22.6667 29.3333C26.3486 29.3333 29.3333 26.3486 29.3333 22.6667C29.3333 18.9848 26.3486 16 22.6667 16C18.9848 16 16 18.9848 16 22.6667C16 26.3486 18.9848 29.3333 22.6667 29.3333Z" fill="#646AEE"/>
<path d="M16.0001 22.6667C16.0001 26.3486 18.9849 29.3333 22.6667 29.3333C26.3486 29.3333 29.3334 26.3486 29.3334 22.6667C29.3334 18.9848 26.3486 16 22.6667 16C18.9849 16 16.0001 18.9848 16.0001 22.6667ZM16.0001 22.6667C16.0001 21.1656 16.4962 19.7803 17.3334 18.666V6.66667M16.0001 22.6667C16.0001 23.7671 16.2667 24.8053 16.7389 25.7202C15.6156 26.669 13.0212 27.3333 10.0001 27.3333C5.94999 27.3333 2.66675 26.1394 2.66675 24.6667V6.66667M17.3334 6.66667C17.3334 8.13943 14.0502 9.33333 10.0001 9.33333C5.94999 9.33333 2.66675 8.13943 2.66675 6.66667M17.3334 6.66667C17.3334 5.19391 14.0502 4 10.0001 4C5.94999 4 2.66675 5.19391 2.66675 6.66667M2.66675 18.6667C2.66675 20.1394 5.94999 21.3333 10.0001 21.3333C12.9188 21.3333 15.4392 20.7133 16.6196 19.8157M17.3334 12.6667C17.3334 14.1394 14.0502 15.3333 10.0001 15.3333C5.94999 15.3333 2.66675 14.1394 2.66675 12.6667" stroke="#646AEE" stroke-width="2.66667" stroke-linecap="round" stroke-linejoin="round"/>
</svg>
