<svg width="32" height="32" viewBox="0 0 32 32" fill="none" xmlns="http://www.w3.org/2000/svg">
<path opacity="0.12" d="M7 15C7 12.7909 8.79086 11 11 11H21C23.2091 11 25 12.7909 25 15V20C25 24.9706 20.9706 29 16 29C11.0294 29 7 24.9706 7 20V15Z" fill="#646AEE"/>
<path d="M10.0188 1.5241C9.71558 1.34216 9.35249 1.28813 9.00942 1.3739C8.66636 1.45966 8.37141 1.6782 8.18947 1.98143C8.00753 2.28466 7.95351 2.64775 8.03927 2.99082C8.12504 3.33389 8.34358 3.62883 8.64681 3.81077L10.6335 5.00277C9.36744 6.35858 8.66436 8.14511 8.66681 10.0001V10.1908C8.44854 10.3146 8.23753 10.4509 8.03481 10.5988C7.97081 10.5588 7.90147 10.5241 7.82814 10.4948L5.16147 9.42812C4.83446 9.30338 4.47151 9.31221 4.15096 9.45272C3.83041 9.59324 3.57796 9.85415 3.44809 10.1792C3.31823 10.5042 3.32136 10.8672 3.45682 11.1899C3.59228 11.5127 3.8492 11.7692 4.17213 11.9041L6.16947 12.7041C5.61963 13.6857 5.33173 14.7924 5.33347 15.9175V17.3335H2.66679C2.49168 17.3334 2.31828 17.3679 2.15648 17.4349C1.99469 17.5019 1.84768 17.6001 1.72385 17.7239C1.60002 17.8477 1.50178 17.9947 1.43477 18.1565C1.36775 18.3183 1.33325 18.4917 1.33325 18.6668C1.33325 18.8419 1.36775 19.0153 1.43477 19.1771C1.50178 19.3389 1.60002 19.4859 1.72385 19.6097C1.84768 19.7335 1.99469 19.8317 2.15648 19.8987C2.31828 19.9657 2.49168 20.0002 2.66679 20.0001H5.33347C5.33347 21.6295 5.6988 23.1735 6.35347 24.5575L4.17213 25.4295C4.00689 25.4925 3.85583 25.5878 3.72777 25.7098C3.5997 25.8318 3.49718 25.978 3.42618 26.14C3.35518 26.302 3.31711 26.4764 3.31419 26.6533C3.31128 26.8301 3.34357 27.0058 3.40919 27.17C3.47481 27.3342 3.57246 27.4838 3.69643 27.6099C3.8204 27.736 3.96823 27.8362 4.13131 27.9047C4.29438 27.9731 4.46945 28.0085 4.6463 28.0086C4.82316 28.0087 4.99828 27.9737 5.16147 27.9055L7.81747 26.8428C8.81758 28.0412 10.069 29.005 11.4831 29.6658C12.8972 30.3266 14.4393 30.6684 16.0002 30.6668C17.561 30.6683 19.1031 30.3265 20.5172 29.6657C21.9312 29.0048 23.1827 28.0411 24.1828 26.8428L26.8388 27.9055C27.1659 28.0302 27.5288 28.0214 27.8494 27.8809C28.1699 27.7404 28.4224 27.4795 28.5522 27.1545C28.6821 26.8294 28.679 26.4664 28.5435 26.1437C28.408 25.821 28.1511 25.5644 27.8282 25.4295L25.6468 24.5575C26.3206 23.1328 26.669 21.5761 26.6668 20.0001H29.3335C29.6871 20.0001 30.0262 19.8596 30.2762 19.6095C30.5262 19.3595 30.6667 19.0204 30.6667 18.6668C30.6667 18.3132 30.5262 17.9741 30.2762 17.7241C30.0262 17.474 29.6871 17.3335 29.3335 17.3335H26.6668V15.9175C26.6668 14.7508 26.3629 13.6548 25.8308 12.7041L27.8282 11.9041C27.9934 11.8411 28.1445 11.7458 28.2725 11.6238C28.4006 11.5019 28.5031 11.3556 28.5741 11.1936C28.6451 11.0317 28.6832 10.8572 28.6861 10.6803C28.689 10.5035 28.6567 10.3279 28.5911 10.1636C28.5255 9.99939 28.4279 9.84985 28.3039 9.72372C28.1799 9.59758 28.0321 9.49737 27.869 9.42892C27.7059 9.36047 27.5309 9.32515 27.354 9.32501C27.1772 9.32488 27.002 9.35992 26.8388 9.42812L24.1722 10.4948C24.1004 10.5234 24.0313 10.5582 23.9655 10.5988C23.7628 10.4509 23.5518 10.3146 23.3335 10.1908V10.0001C23.3335 8.06945 22.5868 6.31211 21.3668 5.00277L23.3535 3.81077C23.6567 3.62865 23.8752 3.33354 23.9608 2.99035C24.0465 2.64716 23.9923 2.284 23.8102 1.98077C23.6281 1.67753 23.3329 1.45907 22.9898 1.37343C22.6466 1.28778 22.2834 1.34198 21.9802 1.5241L19.0055 3.30944C18.0606 2.88465 17.0362 2.66559 16.0002 2.66677C14.9295 2.66677 13.9122 2.8961 12.9948 3.30944L10.0188 1.52277V1.5241ZM11.9175 9.33345C11.7361 9.33345 11.5575 9.34145 11.3788 9.35478C11.5332 8.23848 12.0863 7.21575 12.936 6.47548C13.7857 5.73522 14.8746 5.32743 16.0015 5.32743C17.1284 5.32743 18.2173 5.73522 19.067 6.47548C19.9167 7.21575 20.4698 8.23848 20.6242 9.35478C20.4441 9.34034 20.2635 9.33323 20.0828 9.33345H11.9188H11.9175ZM10.0001 12.6668C10.2172 12.667 10.431 12.6141 10.6229 12.5128C10.8149 12.4114 10.9792 12.2648 11.1015 12.0855C11.3641 12.0295 11.6375 12.0001 11.9161 12.0001H20.0842C20.3642 12.0001 20.6362 12.0295 20.8975 12.0855C21.0429 12.2986 21.2471 12.4649 21.4852 12.5643C21.7232 12.6637 21.985 12.6919 22.2388 12.6455C22.7806 13.0022 23.2252 13.4879 23.5326 14.0591C23.8401 14.6302 24.0008 15.2688 24.0002 15.9175V20.0001C23.9999 21.8908 23.3303 23.7203 22.11 25.1644C20.8898 26.6084 19.1976 27.5739 17.3335 27.8895V20.0001C17.3335 19.6465 17.193 19.3074 16.943 19.0573C16.6929 18.8073 16.3538 18.6668 16.0002 18.6668C15.6465 18.6668 15.3074 18.8073 15.0573 19.0573C14.8073 19.3074 14.6668 19.6465 14.6668 20.0001V27.8895C12.8027 27.5739 11.1106 26.6084 9.89028 25.1644C8.66999 23.7203 8.00038 21.8908 8.00014 20.0001V15.9175C8.00014 14.5508 8.70014 13.3468 9.76148 12.6455C9.84014 12.6588 9.91881 12.6668 10.0001 12.6668Z" fill="#646AEE"/>
</svg>
