<svg width="17" height="16" viewBox="0 0 17 16" fill="none" xmlns="http://www.w3.org/2000/svg">
<path d="M15.0001 6H1.66675M1.66675 5.2L1.66675 10.8C1.66675 11.9201 1.66675 12.4802 1.88474 12.908C2.07648 13.2843 2.38244 13.5903 2.75877 13.782C3.18659 14 3.74664 14 4.86675 14H11.8001C12.9202 14 13.4802 14 13.9081 13.782C14.2844 13.5903 14.5903 13.2843 14.7821 12.908C15.0001 12.4802 15.0001 11.9201 15.0001 10.8V5.2C15.0001 4.0799 15.0001 3.51984 14.7821 3.09202C14.5903 2.7157 14.2844 2.40973 13.9081 2.21799C13.4802 2 12.9202 2 11.8001 2L4.86675 2C3.74664 2 3.18659 2 2.75877 2.21799C2.38244 2.40973 2.07648 2.71569 1.88474 3.09202C1.66675 3.51984 1.66675 4.0799 1.66675 5.2Z" stroke="#8B8D98" stroke-width="1.33333" stroke-linecap="round" stroke-linejoin="round"/>
</svg>
