<svg width="80" height="80" viewBox="0 0 80 80" fill="none" xmlns="http://www.w3.org/2000/svg">
<g style="mix-blend-mode:multiply">
<path fill-rule="evenodd" clip-rule="evenodd" d="M24.9038 25.0747H53.0693L53.6058 45.6699C53.7759 52.1969 48.6049 57.6255 42.0561 57.7949C41.9535 57.7976 41.8509 57.7989 41.7482 57.7989H33.1695L34.0221 62.9621H19.8203V30.1413C19.8203 27.3431 22.0963 25.0747 24.9038 25.0747Z" fill="#1677FF"/>
</g>
<path fill-rule="evenodd" clip-rule="evenodd" d="M47.642 44.684C47.9049 45.069 47.7981 45.5891 47.4034 45.8456C45.4795 47.0957 43.5275 47.7299 41.56 47.7299C39.5926 47.7299 37.6406 47.0957 35.7167 45.8456C35.322 45.5891 35.2151 45.069 35.4781 44.684C35.741 44.2989 36.2741 44.1947 36.6689 44.4512C38.3231 45.5261 39.9494 46.0545 41.56 46.0545C43.1707 46.0545 44.7969 45.5261 46.4512 44.4512C46.8459 44.1947 47.3791 44.2989 47.642 44.684ZM42.1643 33.2721L42.1848 33.3679L42.8155 37.4781C43.0351 38.9098 42.0431 40.2507 40.5809 40.4984C40.1137 40.5776 39.6691 40.2722 39.5879 39.8164C39.5125 39.3931 39.7771 38.9889 40.1894 38.87L40.2871 38.8477C40.7938 38.7619 41.1485 38.3223 41.1273 37.8319L41.1169 37.7261L40.4862 33.6159C40.416 33.1583 40.7394 32.7319 41.2084 32.6634C41.644 32.5998 42.052 32.8672 42.1643 33.2721ZM32.6146 31.7874C33.055 31.7874 33.418 32.1107 33.4676 32.5274L33.4734 32.6251V35.2408C33.4734 35.7034 33.0889 36.0785 32.6146 36.0785C32.1742 36.0785 31.8112 35.7551 31.7616 35.3385L31.7559 35.2408V32.6251C31.7559 32.1624 32.1403 31.7874 32.6146 31.7874ZM50.3534 31.7926C50.7927 31.7623 51.1777 32.06 51.2567 32.4722L51.2694 32.5693L51.4548 35.1786C51.4876 35.6401 51.1306 36.0407 50.6575 36.0732C50.2182 36.1035 49.8332 35.8058 49.7542 35.3936L49.7415 35.2965L49.5561 32.6872C49.5233 32.2257 49.8803 31.8251 50.3534 31.7926Z" fill="black"/>
<g style="mix-blend-mode:multiply">
<path fill-rule="evenodd" clip-rule="evenodd" d="M14.6945 49.408H41.1088C41.6591 49.408 42.1751 49.6743 42.4927 50.1221L47.2608 56.8468C47.6761 57.4325 47.6749 58.2157 47.258 58.8002L42.4929 65.4794C42.1751 65.925 41.6605 66.1896 41.1119 66.1896H14.6945C13.7587 66.1896 13 65.4335 13 64.5007V51.0968C13 50.1641 13.7587 49.408 14.6945 49.408Z" fill="#00BFD0"/>
</g>
<g style="mix-blend-mode:soft-light">
<path fill-rule="evenodd" clip-rule="evenodd" d="M53.0693 25.0746L53.6058 45.6699C53.7759 52.1968 48.6049 57.6254 42.0561 57.7949C41.9535 57.7975 41.8509 57.7988 41.7482 57.7988L40.1798 57.7986C30.9913 49.3887 25.7086 37.4855 25.7463 25.0745L53.0693 25.0746Z" fill="url(#paint0_linear_60_814)"/>
</g>
<g style="mix-blend-mode:multiply">
<path fill-rule="evenodd" clip-rule="evenodd" d="M28.4832 10L64.5127 22.9067L64.5642 22.9254C68.0766 24.2157 69.8745 28.0996 68.5799 31.6003L55.4889 67C49.6286 64.9006 44.4778 61.7321 40.181 57.7996L41.6763 57.799L41.9822 57.7949C48.5719 57.6286 53.7769 52.2362 53.6079 45.7505L53.0692 25.0746L25.7463 25.0749C25.7614 20.0672 26.6427 14.9769 28.4832 10Z" fill="#FFEFDF"/>
</g>
<path d="M38.576 60.3162C39.9886 60.3162 41.1337 59.1892 41.1337 57.799C41.1337 56.4087 39.9886 55.2817 38.576 55.2817C37.1635 55.2817 36.0184 56.4087 36.0184 57.799C36.0184 59.1892 37.1635 60.3162 38.576 60.3162Z" fill="white"/>
<defs>
<linearGradient id="paint0_linear_60_814" x1="40.046" y1="25.7344" x2="41.5552" y2="56.5206" gradientUnits="userSpaceOnUse">
<stop stop-color="white"/>
<stop offset="1" stop-color="#FFC187"/>
</linearGradient>
</defs>
</svg>
