<svg width="32" height="32" viewBox="0 0 32 32" fill="none" xmlns="http://www.w3.org/2000/svg">
<path opacity="0.12" fill-rule="evenodd" clip-rule="evenodd" d="M15.9912 6.84775C13.3254 3.7312 8.87999 2.89286 5.53992 5.74668C2.19985 8.60051 1.72962 13.372 4.35259 16.7472C6.53341 19.5535 13.1334 25.4721 15.2965 27.3878C15.5385 27.6021 15.6595 27.7093 15.8006 27.7514C15.9238 27.7881 16.0586 27.7881 16.1818 27.7514C16.3229 27.7093 16.4439 27.6021 16.6859 27.3878C18.849 25.4721 25.449 19.5535 27.6298 16.7472C30.2528 13.372 29.8399 8.57049 26.4425 5.74668C23.045 2.92288 18.657 3.7312 15.9912 6.84775Z" fill="#646AEE"/>
<path fill-rule="evenodd" clip-rule="evenodd" d="M15.9902 4.956C12.8703 2.22948 8.25636 1.67154 4.67329 4.73299C0.797572 8.04449 0.234466 13.6216 3.29929 17.5654C4.46266 19.0624 6.73331 21.3114 8.91547 23.3711C11.1232 25.4549 13.3258 27.424 14.412 28.386L14.4327 28.4043C14.5348 28.4948 14.6619 28.6075 14.7838 28.6993C14.9297 28.8092 15.1392 28.9456 15.4189 29.0291C15.7908 29.14 16.1906 29.14 16.5625 29.0291C16.8422 28.9456 17.0517 28.8092 17.1976 28.6993C17.3195 28.6075 17.4466 28.4948 17.5487 28.4043L17.5694 28.386C18.6556 27.424 20.8582 25.4549 23.0659 23.3711C25.2481 21.3114 27.5187 19.0624 28.6821 17.5654C31.7352 13.6367 31.259 8.01663 27.2942 4.7213C23.6712 1.71007 19.1065 2.22845 15.9902 4.956ZM14.9775 7.71445C12.7041 5.05663 9.09034 4.46646 6.40555 6.7604C3.60114 9.15656 3.22377 13.1224 5.4049 15.9291C6.42235 17.2383 8.54208 19.3517 10.7459 21.4319C12.8033 23.3738 14.8613 25.2194 15.9907 26.2218C17.1201 25.2194 19.1781 23.3738 21.2355 21.4319C23.4393 19.3517 25.559 17.2383 26.5765 15.9291C28.7694 13.1072 28.4199 9.12438 25.5897 6.77209C22.8338 4.48152 19.2673 5.06838 17.0039 7.71445C16.7506 8.0106 16.3804 8.1811 15.9907 8.1811C15.601 8.1811 15.2308 8.0106 14.9775 7.71445Z" fill="#646AEE"/>
</svg>
