<svg width="24" height="24" viewBox="0 0 24 24" fill="none" xmlns="http://www.w3.org/2000/svg">
<path d="M12 2C10.0222 2 8.08879 2.58649 6.4443 3.6853C4.79981 4.78412 3.51809 6.3459 2.76121 8.17317C2.00433 10.0004 1.8063 12.0111 2.19215 13.9509C2.578 15.8907 3.53041 17.6725 4.92894 19.0711C6.32746 20.4696 8.10929 21.422 10.0491 21.8079C11.9889 22.1937 13.9996 21.9957 15.8268 21.2388C17.6541 20.4819 19.2159 19.2002 20.3147 17.5557C21.4135 15.9112 22 13.9778 22 12C22 10.6868 21.7413 9.38642 21.2388 8.17317C20.7363 6.95991 19.9997 5.85752 19.0711 4.92893C18.1425 4.00035 17.0401 3.26375 15.8268 2.7612C14.6136 2.25866 13.3132 2 12 2ZM12 20C10.4178 20 8.87104 19.5308 7.55544 18.6518C6.23985 17.7727 5.21447 16.5233 4.60897 15.0615C4.00347 13.5997 3.84504 11.9911 4.15372 10.4393C4.4624 8.88743 5.22433 7.46197 6.34315 6.34315C7.46197 5.22433 8.88743 4.4624 10.4393 4.15372C11.9911 3.84504 13.5997 4.00346 15.0615 4.60896C16.5233 5.21447 17.7727 6.23984 18.6518 7.55544C19.5308 8.87103 20 10.4177 20 12C20 14.1217 19.1572 16.1566 17.6569 17.6569C16.1566 19.1571 14.1217 20 12 20Z" fill="#1E1F24"/>
<path d="M17.2844 12.4025C17.0414 12.6994 16.686 12.9379 16.218 13.1179C15.759 13.2889 15.2191 13.3744 14.5981 13.3744H13.0323V17.1271H11.1289V7.70483H14.5981C15.687 7.70483 16.524 7.97931 17.1089 8.52827C17.7029 9.06823 17.9999 9.70718 17.9999 10.4451C17.9999 11.1831 17.7614 11.8355 17.2844 12.4025ZM13.0323 11.9165H14.5981C15.0751 11.9165 15.4396 11.795 15.6915 11.552C15.9435 11.3001 16.0695 10.9626 16.0695 10.5396C16.0695 10.1166 15.9435 9.78367 15.6915 9.54069C15.4396 9.28871 15.0751 9.16272 14.5981 9.16272H13.0323V11.9165Z" fill="#1E1F24"/>
<path d="M7.20068 17.1272V7.7049H9.10403V17.1272H7.20068Z" fill="#1E1F24"/>
</svg>
