<svg width="80" height="80" viewBox="0 0 80 80" fill="none" xmlns="http://www.w3.org/2000/svg">
<g style="mix-blend-mode:multiply">
<path fill-rule="evenodd" clip-rule="evenodd" d="M37.6552 59.1724C37.6552 59.1724 55.8276 48.7943 55.8276 35.0948C55.8276 24.7776 47.6915 16.4138 37.6552 16.4138C27.6189 16.4138 19.4828 24.7776 19.4828 35.0948C19.4828 48.7943 37.6552 59.1724 37.6552 59.1724ZM43 34.5862C43 37.5381 40.6071 39.9311 37.6552 39.9311C34.7033 39.9311 32.3104 37.5381 32.3104 34.5862C32.3104 31.6344 34.7033 29.2414 37.6552 29.2414C40.6071 29.2414 43 31.6344 43 34.5862Z" fill="#1677FF"/>
</g>
<path d="M20.5517 61.3103L35.5172 50.6206L35.5172 55.6071H54.7586C55.9394 55.6071 56.8965 56.5642 56.8965 57.745V64.8755C56.8965 66.0563 55.9394 67.0135 54.7586 67.0135H35.5172L35.5018 71.9999L20.5517 61.3103Z" fill="#FFEFDF" style="mix-blend-mode:multiply"/>
<path fill-rule="evenodd" clip-rule="evenodd" d="M42.6966 36.3658C41.9635 38.4428 39.9831 39.9311 37.6552 39.9311C37.6552 39.9311 37.6552 39.9311 37.6552 39.9311V45.6343C37.6552 46.8151 38.6123 47.7723 39.7931 47.7723H57.9655L57.981 52.7587L74 42.0691L57.9655 31.3794L57.9655 36.3658H42.6966Z" fill="#FFEFDF" style="mix-blend-mode:multiply"/>
<g style="mix-blend-mode:multiply">
<path fill-rule="evenodd" clip-rule="evenodd" d="M29.1035 13.8008V23.3027C29.1035 25.4018 27.3988 27.1034 25.2961 27.1034H15.8074C13.7046 27.1034 12 25.4018 12 23.3027V13.8008C12 11.7017 13.7046 10 15.8074 10H25.2961C27.3988 10 29.1035 11.7017 29.1035 13.8008Z" fill="#00BFD0"/>
</g>
<path d="M20.5517 21.7585C22.3229 21.7585 23.7586 20.3227 23.7586 18.5516C23.7586 16.7805 22.3229 15.3447 20.5517 15.3447C18.7806 15.3447 17.3448 16.7805 17.3448 18.5516C17.3448 20.3227 18.7806 21.7585 20.5517 21.7585Z" fill="white"/>
<path d="M40.8399 62.3682C39.078 64.1332 36.2189 64.1356 34.4539 62.3737C34.452 62.3719 34.4502 62.37 34.4483 62.3682" stroke="black" stroke-width="1.81095" stroke-linecap="round" stroke-linejoin="round"/>
<g style="mix-blend-mode:soft-light">
<path fill-rule="evenodd" clip-rule="evenodd" d="M42.6967 36.3657C41.9635 38.4428 39.9832 39.9311 37.6552 39.9311C37.6552 39.9311 37.6552 39.9311 37.6552 39.9311V45.6342C37.6552 46.815 38.6123 47.7721 39.7931 47.7721H50.8511C53.4191 44.4613 55.4322 40.587 55.7757 36.3657H42.6967Z" fill="url(#paint0_linear_441_11274)"/>
</g>
<defs>
<linearGradient id="paint0_linear_441_11274" x1="46.7154" y1="38.5034" x2="46.7154" y2="49.9098" gradientUnits="userSpaceOnUse">
<stop stop-color="white"/>
<stop offset="1" stop-color="#FFC187"/>
</linearGradient>
</defs>
</svg>
