<svg width="80" height="80" viewBox="0 0 80 80" fill="none" xmlns="http://www.w3.org/2000/svg">
<g style="mix-blend-mode:multiply">
<path d="M24.83 28.966C34.1266 18.1477 51.3666 20.2827 57.81 32.9244H42.3216C39.5316 32.9244 37.73 32.861 35.7783 33.8877C33.485 35.096 31.755 37.3344 31.15 39.9627L24.83 28.9677V28.966Z" fill="#1677FF"/>
<path d="M33.3466 41.9994C33.3466 45.666 36.3283 48.6494 39.9933 48.6494C43.66 48.6494 46.64 45.666 46.64 41.9994C46.64 38.3327 43.6583 35.3494 39.9933 35.3494C36.3266 35.3494 33.3466 38.3327 33.3466 41.9994Z" fill="#1677FF"/>
<path d="M42.5733 50.7044C38.8416 51.8127 34.4766 50.5827 32.085 46.4544C30.2583 43.3044 25.435 34.9011 23.2433 31.0811C15.565 42.8477 22.1833 58.8861 36.1216 61.6227L42.5716 50.7044H42.5733Z" fill="#1677FF"/>
<path d="M46.1666 35.3493C47.6693 36.7521 48.6531 38.622 48.9581 40.6548C49.2632 42.6877 48.8714 44.764 47.8466 46.546C46.2616 49.2793 41.2 57.8227 38.7466 61.9593C53.1083 62.8443 63.58 48.7693 58.85 35.3477H46.1666V35.3493Z" fill="#1677FF"/>
</g>
<g style="mix-blend-mode:multiply">
<path d="M70 42C70 38.0603 69.224 34.1593 67.7164 30.5195C66.2087 26.8797 63.999 23.5726 61.2132 20.7868C58.4274 18.001 55.1203 15.7913 51.4805 14.2836C47.8407 12.776 43.9397 12 40 12L40 42H70Z" fill="#FFEFDF"/>
</g>
<g style="mix-blend-mode:soft-light">
<path fill-rule="evenodd" clip-rule="evenodd" d="M60.0005 41.9999C59.9998 39.8119 59.6334 37.5708 58.8499 35.3476H46.1666V35.3493C47.6692 36.752 48.653 38.6219 48.9581 40.6548C49.0252 41.1023 49.0586 41.5518 49.0589 41.9999H60.0005ZM40 35.3493V41.9999H46.64C46.64 41.9997 46.64 41.9995 46.64 41.9993C46.64 38.3349 43.662 35.3529 40 35.3493ZM40 22V32.9397C40.5746 32.9222 41.1895 32.923 41.8625 32.9239C42.0126 32.9241 42.1657 32.9243 42.3217 32.9243H57.8101C54.1817 25.8054 47.1295 22.0184 40 22Z" fill="url(#paint0_linear_492_2157)"/>
</g>
<g style="mix-blend-mode:multiply">
<path fill-rule="evenodd" clip-rule="evenodd" d="M23.48 45.4068L28.5071 48.3819C29.4306 48.9285 30 49.9424 30 51.0402V56.9598C30 58.0576 29.4306 59.0715 28.5071 59.618L23.48 62.5932C22.5635 63.1356 21.4365 63.1356 20.52 62.5932L15.4929 59.618C14.5694 59.0715 14 58.0576 14 56.9598V51.0402C14 49.9424 14.5694 48.9285 15.4929 48.3819L20.52 45.4068C21.4365 44.8644 22.5635 44.8644 23.48 45.4068Z" fill="#00BFD0"/>
</g>
<path d="M54 62V49L52 51.111" stroke="black" stroke-width="1.6" stroke-linecap="round" stroke-linejoin="round"/>
<path d="M60 49V62L62 59.889" stroke="black" stroke-width="1.6" stroke-linecap="round" stroke-linejoin="round"/>
<defs>
<linearGradient id="paint0_linear_492_2157" x1="50" y1="25.9999" x2="50.0003" y2="41.9999" gradientUnits="userSpaceOnUse">
<stop stop-color="white"/>
<stop offset="1" stop-color="#FFC187"/>
</linearGradient>
</defs>
</svg>
