<svg width="32" height="32" viewBox="0 0 32 32" fill="none" xmlns="http://www.w3.org/2000/svg">
<path opacity="0.12" d="M4 10.4C4 8.15979 4 7.03969 4.43597 6.18404C4.81947 5.43139 5.43139 4.81947 6.18404 4.43597C7.03969 4 8.15979 4 10.4 4H21.6C23.8402 4 24.9603 4 25.816 4.43597C26.5686 4.81947 27.1805 5.43139 27.564 6.18404C28 7.03969 28 8.15979 28 10.4V21.6C28 23.8402 28 24.9603 27.564 25.816C27.1805 26.5686 26.5686 27.1805 25.816 27.564C24.9603 28 23.8402 28 21.6 28H10.4C8.15979 28 7.03969 28 6.18404 27.564C5.43139 27.1805 4.81947 26.5686 4.43597 25.816C4 24.9603 4 23.8402 4 21.6V10.4Z" fill="#646AEE"/>
<path fill-rule="evenodd" clip-rule="evenodd" d="M10.345 2.66675H21.6551C22.7284 2.66673 23.6143 2.66672 24.3359 2.72567C25.0853 2.78691 25.7743 2.91833 26.4214 3.24805C27.4249 3.75937 28.2408 4.57527 28.7521 5.5788C29.0818 6.22591 29.2133 6.91485 29.2745 7.66431C29.3334 8.3859 29.3334 9.27171 29.3334 10.345V21.6552C29.3334 22.7285 29.3334 23.6143 29.2745 24.3359C29.2133 25.0853 29.0818 25.7743 28.7521 26.4214C28.2408 27.4249 27.4249 28.2408 26.4214 28.7521C25.7743 29.0818 25.0853 29.2133 24.3358 29.2745C23.6143 29.3334 22.7285 29.3334 21.6552 29.3334H10.345C9.2717 29.3334 8.3859 29.3334 7.66431 29.2745C6.91485 29.2133 6.22591 29.0818 5.5788 28.7521C4.57527 28.2408 3.75937 27.4249 3.24805 26.4214C2.91833 25.7743 2.78691 25.0853 2.72567 24.3358C2.68818 23.8769 2.67453 23.3516 2.66958 22.7538C2.66622 22.7021 2.66585 22.6503 2.66848 22.5986C2.66674 22.3016 2.66674 21.9874 2.66675 21.6551V10.345C2.66673 9.27172 2.66672 8.38591 2.72567 7.66431C2.78691 6.91485 2.91833 6.22591 3.24805 5.5788C3.75937 4.57527 4.57527 3.75937 5.5788 3.24805C6.22591 2.91833 6.91485 2.78691 7.66431 2.72567C8.38591 2.66672 9.27172 2.66673 10.345 2.66675ZM5.34267 23.2098C5.34967 23.5575 5.36195 23.8551 5.38348 24.1187C5.43124 24.7033 5.51781 25.0022 5.62406 25.2107C5.87973 25.7125 6.28768 26.1204 6.78944 26.3761C6.99797 26.4824 7.29691 26.5689 7.88147 26.6167C8.48159 26.6657 9.25798 26.6667 10.4001 26.6667H21.6001C22.7422 26.6667 23.5186 26.6657 24.1187 26.6167C24.7033 26.5689 25.0022 26.4824 25.2107 26.3761C25.7125 26.1204 26.1204 25.7125 26.3761 25.2107C26.4824 25.0022 26.5689 24.7033 26.6167 24.1187C26.6657 23.5186 26.6667 22.7422 26.6667 21.6001V10.4001C26.6667 9.25798 26.6657 8.48159 26.6167 7.88147C26.5689 7.29691 26.4824 6.99797 26.3761 6.78944C26.1204 6.28768 25.7125 5.87973 25.2107 5.62406C25.0022 5.51781 24.7033 5.43124 24.1187 5.38348C23.5186 5.33445 22.7422 5.33342 21.6001 5.33342H10.4001C9.25798 5.33342 8.48159 5.33445 7.88147 5.38348C7.29691 5.43124 6.99797 5.51781 6.78944 5.62406C6.28768 5.87973 5.87973 6.28768 5.62406 6.78944C5.51781 6.99797 5.43124 7.29691 5.38348 7.88147C5.33445 8.48159 5.33342 9.25798 5.33342 10.4001V19.4478L8.96969 15.8115C8.97686 15.8044 8.98413 15.7971 8.9915 15.7897C9.10376 15.6774 9.23783 15.5432 9.36564 15.4347C9.51374 15.309 9.73854 15.1416 10.0487 15.0408C10.4504 14.9103 10.8831 14.9103 11.2848 15.0408C11.595 15.1416 11.8198 15.309 11.9679 15.4347C12.0957 15.5432 12.2297 15.6774 12.342 15.7897C12.3494 15.7971 12.3566 15.8044 12.3638 15.8115L14.6667 18.1145L19.4478 13.3334H17.3334C16.597 13.3334 16.0001 12.7365 16.0001 12.0001C16.0001 11.2637 16.597 10.6667 17.3334 10.6667H22.6667C23.4031 10.6667 24.0001 11.2637 24.0001 12.0001V17.3334C24.0001 18.0698 23.4031 18.6667 22.6667 18.6667C21.9304 18.6667 21.3334 18.0698 21.3334 17.3334V15.219L16.3638 20.1886C16.3566 20.1958 16.3493 20.2031 16.342 20.2105C16.2297 20.3228 16.0957 20.457 15.9679 20.5655C15.8198 20.6912 15.595 20.8586 15.2848 20.9594C14.8831 21.0899 14.4504 21.0899 14.0487 20.9594C13.7385 20.8586 13.5137 20.6912 13.3656 20.5655C13.2378 20.457 13.1038 20.3228 12.9915 20.2105C12.9842 20.2031 12.9769 20.1958 12.9697 20.1886L10.6667 17.8857L5.34267 23.2098Z" fill="#646AEE"/>
</svg>
