<svg width="32" height="32" viewBox="0 0 32 32" fill="none" xmlns="http://www.w3.org/2000/svg">
<path opacity="0.12" d="M26.8284 5.17157C28.3905 6.73367 28.3905 9.26633 26.8284 10.8284C25.2663 12.3905 22.7337 12.3905 21.1716 10.8284C19.6095 9.26633 19.6095 6.73367 21.1716 5.17157C22.7337 3.60948 25.2663 3.60948 26.8284 5.17157Z" fill="#646AEE"/>
<path fill-rule="evenodd" clip-rule="evenodd" d="M25.8861 6.11434C24.8447 5.07294 23.1562 5.07294 22.1148 6.11434C21.0734 7.15574 21.0734 8.84418 22.1148 9.88558C23.1562 10.927 24.8447 10.927 25.8861 9.88558C26.9275 8.84418 26.9275 7.15574 25.8861 6.11434ZM20.2292 4.22872C22.312 2.14593 25.6889 2.14593 27.7717 4.22872C29.8545 6.31152 29.8545 9.6884 27.7717 11.7712C25.6889 13.854 22.312 13.854 20.2292 11.7712C18.1464 9.6884 18.1464 6.31152 20.2292 4.22872ZM10.3454 3.99996H14.6671C15.4035 3.99996 16.0005 4.59691 16.0005 5.33329C16.0005 6.06967 15.4035 6.66663 14.6671 6.66663H10.4005C9.25835 6.66663 8.48196 6.66766 7.88184 6.71669C7.29728 6.76445 6.99835 6.85102 6.78981 6.95728C6.28805 7.21294 5.8801 7.62089 5.62444 8.12265C5.51818 8.33118 5.43162 8.63012 5.38386 9.21468C5.33482 9.8148 5.33379 10.5912 5.33379 11.7333V18.6666C5.33379 19.9924 5.34524 20.3938 5.42465 20.6901C5.67123 21.6104 6.39002 22.3292 7.31027 22.5758C7.60664 22.6552 8.00798 22.6666 9.33379 22.6666C10.0702 22.6666 10.6671 23.2636 10.6671 24V26.5591L13.4145 24.3612C13.4448 24.337 13.4747 24.313 13.5042 24.2894C14.067 23.8388 14.4924 23.4982 14.9772 23.2505C15.4051 23.0319 15.8606 22.8721 16.3314 22.7755C16.8646 22.6661 17.4096 22.6663 18.1305 22.6666C18.1683 22.6666 18.2066 22.6666 18.2455 22.6666H20.2671C21.4092 22.6666 22.1856 22.6656 22.7857 22.6166C23.3703 22.5688 23.6692 22.4822 23.8778 22.376C24.3795 22.1203 24.7875 21.7124 25.0431 21.2106C25.1494 21.0021 25.236 20.7031 25.2837 20.1186C25.3328 19.5185 25.3338 18.7421 25.3338 17.6V17.3333C25.3338 16.5969 25.9307 16 26.6671 16C27.4035 16 28.0005 16.5969 28.0005 17.3333V17.655C28.0005 18.7283 28.0005 19.6141 27.9415 20.3357C27.8803 21.0852 27.7489 21.7741 27.4192 22.4212C26.9078 23.4248 26.0919 24.2407 25.0884 24.752C24.4413 25.0817 23.7524 25.2131 23.0029 25.2744C22.2813 25.3333 21.3955 25.3333 20.3222 25.3333H18.2455C17.36 25.3333 17.1021 25.3396 16.8675 25.3877C16.6321 25.436 16.4043 25.5159 16.1904 25.6252C15.9771 25.7342 15.7718 25.8904 15.0803 26.4436L11.8628 29.0176C11.6179 29.2136 11.3683 29.4134 11.1488 29.5585C10.9389 29.6972 10.5319 29.9456 10.0026 29.9462C9.39353 29.9469 8.81735 29.6699 8.43737 29.1939C8.10716 28.7802 8.04689 28.3073 8.02413 28.0567C8.00033 27.7946 8.00039 27.4749 8.00045 27.1612L8.00045 25.3223C7.47804 25.3051 7.03004 25.2614 6.62009 25.1516C4.7796 24.6584 3.34201 23.2208 2.84885 21.3803C2.66605 20.6981 2.66648 19.9106 2.66706 18.8501C2.66709 18.7898 2.66712 18.7287 2.66712 18.6666L2.66712 11.6782C2.6671 10.6049 2.66709 9.71912 2.72605 8.99753C2.78728 8.24806 2.9187 7.55912 3.24842 6.91201C3.75974 5.90848 4.57564 5.09258 5.57917 4.58126C6.22629 4.25154 6.91522 4.12012 7.66469 4.05888C8.38628 3.99993 9.2721 3.99994 10.3454 3.99996Z" fill="#646AEE"/>
</svg>
