<svg width="24" height="24" viewBox="0 0 24 24" fill="none" xmlns="http://www.w3.org/2000/svg">
<path d="M10.0909 5.31818C9.90212 5.31818 9.71757 5.37417 9.56059 5.47905C9.40362 5.58394 9.28127 5.73302 9.20902 5.90744C9.13678 6.08186 9.11787 6.27379 9.1547 6.45895C9.19154 6.64411 9.28245 6.8142 9.41594 6.94769C9.54944 7.08119 9.71952 7.1721 9.90469 7.20893C10.0899 7.24576 10.2818 7.22686 10.4562 7.15461C10.6306 7.08237 10.7797 6.96002 10.8846 6.80304C10.9895 6.64607 11.0455 6.46152 11.0455 6.27273C11.0455 6.01957 10.9449 5.77677 10.7659 5.59776C10.5869 5.41875 10.3441 5.31818 10.0909 5.31818ZM6.27273 5.31818C6.08394 5.31818 5.89938 5.37417 5.74241 5.47905C5.58544 5.58394 5.46309 5.73302 5.39084 5.90744C5.31859 6.08186 5.29969 6.27379 5.33652 6.45895C5.37335 6.64411 5.46427 6.8142 5.59776 6.94769C5.73126 7.08119 5.90134 7.1721 6.0865 7.20893C6.27167 7.24576 6.4636 7.22686 6.63802 7.15461C6.81244 7.08237 6.96152 6.96002 7.0664 6.80304C7.17129 6.64607 7.22727 6.46152 7.22727 6.27273C7.22727 6.01957 7.1267 5.77677 6.94769 5.59776C6.76868 5.41875 6.52589 5.31818 6.27273 5.31818ZM13.9091 5.31818C13.7203 5.31818 13.5357 5.37417 13.3788 5.47905C13.2218 5.58394 13.0995 5.73302 13.0272 5.90744C12.955 6.08186 12.9361 6.27379 12.9729 6.45895C13.0097 6.64411 13.1006 6.8142 13.2341 6.94769C13.3676 7.08119 13.5377 7.1721 13.7229 7.20893C13.908 7.24576 14.1 7.22686 14.2744 7.15461C14.4488 7.08237 14.5979 6.96002 14.7028 6.80304C14.8077 6.64607 14.8636 6.46152 14.8636 6.27273C14.8636 6.01957 14.7631 5.77677 14.5841 5.59776C14.405 5.41875 14.1623 5.31818 13.9091 5.31818ZM19.6364 1.5H4.36364C3.60415 1.5 2.87578 1.8017 2.33874 2.33874C1.8017 2.87578 1.5 3.60415 1.5 4.36364V19.6364C1.5 20.3958 1.8017 21.1242 2.33874 21.6613C2.87578 22.1983 3.60415 22.5 4.36364 22.5H19.6364C20.3958 22.5 21.1242 22.1983 21.6613 21.6613C22.1983 21.1242 22.5 20.3958 22.5 19.6364V4.36364C22.5 3.60415 22.1983 2.87578 21.6613 2.33874C21.1242 1.8017 20.3958 1.5 19.6364 1.5ZM20.5909 19.6364C20.5909 19.8895 20.4903 20.1323 20.3113 20.3113C20.1323 20.4903 19.8895 20.5909 19.6364 20.5909H4.36364C4.11048 20.5909 3.86768 20.4903 3.68867 20.3113C3.50966 20.1323 3.40909 19.8895 3.40909 19.6364V11.0455H20.5909V19.6364ZM20.5909 9.13636H3.40909V4.36364C3.40909 4.11048 3.50966 3.86768 3.68867 3.68867C3.86768 3.50966 4.11048 3.40909 4.36364 3.40909H19.6364C19.8895 3.40909 20.1323 3.50966 20.3113 3.68867C20.4903 3.86768 20.5909 4.11048 20.5909 4.36364V9.13636Z" fill="#1E1F24"/>
</svg>
