<svg width="80" height="80" viewBox="0 0 80 80" fill="none" xmlns="http://www.w3.org/2000/svg">
<g style="mix-blend-mode:multiply">
<path fill-rule="evenodd" clip-rule="evenodd" d="M41.0702 21.3505C41.4404 21.4266 41.6543 21.5069 42.1073 21.7476L55.4172 29.1306C56.2602 29.5983 56.4748 29.7349 56.8215 30.1106C57.1565 30.474 57.4102 30.9047 57.5649 31.373C57.7251 31.8573 57.7403 32.11 57.7403 33.0745V47.1596C57.7403 48.1241 57.7251 48.3768 57.5652 48.8601C57.4102 49.3293 57.1565 49.7601 56.8206 50.1245C56.5131 50.4576 56.3095 50.6025 55.676 50.959L42.5636 58.237C41.7657 58.6799 41.5463 58.7856 41.0707 58.8834C40.6084 58.9786 40.1317 58.9786 39.6702 58.8835L39.3816 58.8135C39.068 58.722 38.7974 58.5816 38.1769 58.2371L25.323 51.1034C24.4791 50.6351 24.2654 50.4991 23.9192 50.124C23.5841 49.7606 23.3305 49.33 23.1754 48.8608C23.033 48.4305 23.0052 48.183 23.0007 47.456L23 33.0745C23 32.11 23.0152 31.8574 23.1754 31.3731C23.3306 30.904 23.5842 30.4734 23.9194 30.11C24.2269 29.7767 24.43 29.6321 25.064 29.2752L38.1769 21.9969C38.8461 21.6255 39.0827 21.5046 39.4305 21.4087L39.6703 21.3505C40.132 21.2556 40.6081 21.2556 41.0702 21.3505ZM54.2663 34.3872L42.1054 41.1373V54.5211L54.2528 47.7766L54.2651 47.5183L54.2663 34.3872ZM52.4268 31.4391L40.3719 24.7532L39.864 25.0307L28.3118 31.4391L40.3702 38.1301L52.4268 31.4391Z" fill="#1677FF"/>
</g>
<path style="mix-blend-mode:soft-light" fill-rule="evenodd" clip-rule="evenodd" d="M29.0017 27.0894L32.5034 29.1136L28.3118 31.4391L40.3702 38.1302L43.818 36.2169C44.5441 37.1392 45.027 38.2401 45.207 39.4163L42.1054 41.1373V54.5211L45.2857 52.7549V56.7257L42.5636 58.237C41.7657 58.68 41.5463 58.7856 41.0707 58.8835C40.6084 58.9786 40.1317 58.9786 39.6702 58.8836L39.3816 58.8135C39.068 58.7221 38.7974 58.5816 38.1769 58.2371L25.323 51.1034C24.4791 50.6351 24.2654 50.4991 23.9192 50.124C23.5841 49.7607 23.3305 49.33 23.1754 48.8609C23.033 48.4305 23.0052 48.183 23.0007 47.4561L23 33.0745C23 32.1101 23.0152 31.8574 23.1754 31.3731C23.3306 30.904 23.5842 30.4734 23.9194 30.11C24.2269 29.7767 24.43 29.6322 25.064 29.2753L29.0017 27.0894Z" fill="url(#paint0_linear_60_826)"/>
<path d="M34.4286 62.0718L38.1695 64.142C38.8897 64.5407 39.2499 64.7401 39.6313 64.818C39.9688 64.8873 40.3168 64.8873 40.6546 64.818C41.0358 64.7401 41.396 64.5407 42.1162 64.142L45.8572 62.0718" stroke="black" stroke-width="1.71429" stroke-linecap="round" stroke-linejoin="round"/>
<path d="M23.0001 55.7469L19.3758 53.7412C18.6152 53.3202 18.2348 53.1097 17.9578 52.8105C17.7128 52.5456 17.5274 52.2316 17.414 51.8896C17.2858 51.503 17.2858 51.0696 17.2858 50.2029V46.2598" stroke="black" stroke-width="1.71429" stroke-linecap="round" stroke-linejoin="round"/>
<path d="M17.2858 33.6102V29.6672C17.2858 28.8003 17.2858 28.3669 17.414 27.9803C17.5274 27.6384 17.7128 27.3244 17.9578 27.0596C18.2348 26.7602 18.6152 26.5497 19.3758 26.1287L23.0001 24.123" stroke="black" stroke-width="1.71429" stroke-linecap="round" stroke-linejoin="round"/>
<path d="M34.4286 17.7982L38.1695 15.7279C38.8897 15.3293 39.2499 15.13 39.6313 15.0519C39.9688 14.9827 40.3168 14.9827 40.6546 15.0519C41.0358 15.13 41.396 15.3293 42.1162 15.7279L45.8572 17.7982" stroke="black" stroke-width="1.71429" stroke-linecap="round" stroke-linejoin="round"/>
<path d="M57.2858 24.123L60.9099 26.1287C61.6708 26.5497 62.051 26.7602 62.3281 27.0596C62.5729 27.3244 62.7585 27.6384 62.8718 27.9803C63.0001 28.3669 63.0001 28.8003 63.0001 29.6672V33.6102" stroke="black" stroke-width="1.71429" stroke-linecap="round" stroke-linejoin="round"/>
<path d="M63.0001 46.2598V50.2029C63.0001 51.0696 63.0001 51.503 62.8718 51.8896C62.7585 52.2316 62.5729 52.5456 62.3281 52.8105C62.051 53.1097 61.6708 53.3202 60.9099 53.7412L57.2858 55.7469" stroke="black" stroke-width="1.71429" stroke-linecap="round" stroke-linejoin="round"/>
<g style="mix-blend-mode:multiply">
<path fill-rule="evenodd" clip-rule="evenodd" d="M18.4229 55.986L40.14 68.5389C41.779 69.4863 43.8764 68.927 44.8247 67.2897C45.1267 66.7684 45.2857 66.1767 45.2857 65.5744V40.4522C45.2857 38.0073 43.9812 35.7476 41.8628 34.5231L20.1457 21.9702C18.5067 21.0228 16.4093 21.5821 15.461 23.2194C15.159 23.7407 15 24.3324 15 24.9347L15 50.0569C15 52.5019 16.3045 54.7615 18.4229 55.986Z" fill="#FFEFDF"/>
</g>
<g style="mix-blend-mode:multiply">
<path fill-rule="evenodd" clip-rule="evenodd" d="M49.0144 39.9172V39.9462C49.0144 44.5648 45.2664 48.309 40.6431 48.309C36.0197 48.309 32.2718 44.5648 32.2718 39.9462V39.9172C32.2718 35.2986 36.0197 31.5544 40.6431 31.5544C45.2664 31.5544 49.0144 35.2986 49.0144 39.9172Z" fill="#00BFD0"/>
</g>
<path fill-rule="evenodd" clip-rule="evenodd" d="M43 40.1171C43 41.6935 41.7208 42.9713 40.1429 42.9713C38.5649 42.9713 37.2857 41.6935 37.2857 40.1171C37.2857 38.5408 38.5649 37.2629 40.1429 37.2629C41.7208 37.2629 43 38.5408 43 40.1171Z" fill="white"/>
<defs>
<linearGradient id="paint0_linear_60_826" x1="1137.29" y1="369.296" x2="1137.29" y2="2334.04" gradientUnits="userSpaceOnUse">
<stop stop-color="white"/>
<stop offset="1" stop-color="#FFC187"/>
</linearGradient>
</defs>
</svg>
