<svg width="80" height="80" viewBox="0 0 80 80" fill="none" xmlns="http://www.w3.org/2000/svg">
<g style="mix-blend-mode:multiply">
<path d="M65.3753 18.24H29.6094C27.7242 18.24 26.196 19.7682 26.196 21.6533V31.8933C26.196 33.7785 27.7242 35.3067 29.6094 35.3067H65.3753C67.2605 35.3067 68.7887 33.7785 68.7887 31.8933V21.6533C68.7887 19.7682 67.2605 18.24 65.3753 18.24Z" fill="#E0F7FF"/>
</g>
<path d="M32.1287 23.7867C33.7892 22.1233 36.4837 22.121 38.147 23.7814C38.1488 23.7832 38.1505 23.7849 38.1523 23.7867" stroke="black" stroke-width="1.70667" stroke-linecap="round" stroke-linejoin="round"/>
<g style="mix-blend-mode:multiply">
<path fill-rule="evenodd" clip-rule="evenodd" d="M30.4708 49.3138L31.2194 30.1113C31.2967 28.1276 32.9246 26.5593 34.9064 26.5593C36.8982 26.5593 38.544 28.1161 38.6581 30.1081L39.342 42.0474L50.6809 44.5238C54.2969 45.3135 56.7 48.7542 56.2014 52.4277L54.6162 64.106H30.4708L21.6207 52.3698C20.365 50.7046 20.3977 48.398 21.7 46.7691C22.8764 45.2979 24.9883 45.0194 26.5002 46.1036L26.668 46.2315L30.4708 49.3138Z" fill="#1677FF"/>
</g>
<g style="mix-blend-mode:soft-light">
<path fill-rule="evenodd" clip-rule="evenodd" d="M34.9063 26.5593C36.8981 26.5593 38.544 28.1161 38.6581 30.1081L39.3419 42.0474L48.1006 43.9601C44.514 47.075 39.834 48.96 34.7146 48.96C33.27 48.96 31.8605 48.8099 30.5007 48.5245L31.2194 30.1113C31.2967 28.1276 32.9245 26.5593 34.9063 26.5593ZM26.5002 46.1036L26.668 46.2315L29.0501 48.1637C27.0464 47.5861 25.169 46.7099 23.4689 45.5861C24.4743 45.2937 25.5948 45.4543 26.5002 46.1036Z" fill="url(#paint0_linear_60_818)"/>
</g>
<g style="mix-blend-mode:multiply">
<path fill-rule="evenodd" clip-rule="evenodd" d="M34.7146 8C46.0058 8 55.1591 17.1692 55.1591 28.48C55.1591 34.6625 52.4244 40.2051 48.1006 43.9602L39.342 42.0474L38.6581 30.1082C38.544 28.1162 36.8982 26.5594 34.9064 26.5594C32.9246 26.5594 31.2967 28.1276 31.2194 30.1113L30.5016 48.5247C30.0119 48.422 29.5287 48.3016 29.0525 48.1645L26.668 46.2316L26.5002 46.1036C25.5952 45.4546 24.4752 45.2939 23.4695 45.585C17.9271 41.9231 14.2701 35.6293 14.2701 28.48C14.2701 17.1692 23.4234 8 34.7146 8Z" fill="#FFEFDF"/>
</g>
<g style="mix-blend-mode:multiply">
<path fill-rule="evenodd" clip-rule="evenodd" d="M38.1221 60.0535V68.5868C38.1221 70.4719 36.5939 72.0001 34.7087 72.0001H26.2021C24.3169 72.0001 22.7887 70.4719 22.7887 68.5868V60.0535C22.7887 58.1683 24.3169 56.6401 26.2021 56.6401H34.7087C36.5939 56.6401 38.1221 58.1683 38.1221 60.0535Z" fill="#00BFD0"/>
</g>
<path d="M30.4553 66.88C31.8667 66.88 33.0109 65.7339 33.0109 64.32C33.0109 62.9062 31.8667 61.76 30.4553 61.76C29.0439 61.76 27.8998 62.9062 27.8998 64.32C27.8998 65.7339 29.0439 66.88 30.4553 66.88Z" fill="white"/>
<defs>
<linearGradient id="paint0_linear_60_818" x1="35.6035" y1="26.963" x2="35.6035" y2="49.4815" gradientUnits="userSpaceOnUse">
<stop stop-color="white"/>
<stop offset="1" stop-color="#FFC187"/>
</linearGradient>
</defs>
</svg>
