<svg width="80" height="80" viewBox="0 0 80 80" fill="none" xmlns="http://www.w3.org/2000/svg">
<g style="mix-blend-mode:multiply">
<path fill-rule="evenodd" clip-rule="evenodd" d="M39.7777 25.0876C49.4377 25.0876 57.9792 30.8971 61.4725 39.5712C61.5833 39.8463 61.5833 40.1537 61.4725 40.4288C57.9791 49.1028 49.4376 54.9122 39.7777 54.9122C30.124 54.9122 21.5751 49.0997 18.0831 40.4288C17.9723 40.1537 17.9723 39.8463 18.0831 39.5712C21.5751 30.9002 30.1239 25.0876 39.7777 25.0876Z" fill="#1677FF"/>
</g>
<g style="mix-blend-mode:soft-light">
<path fill-rule="evenodd" clip-rule="evenodd" d="M39.7778 25.0876C49.4378 25.0876 57.9792 30.8971 61.4725 39.5712C61.5833 39.8463 61.5833 40.1537 61.4725 40.4288C60.4797 42.8941 59.0791 45.1279 57.361 47.0627C56.6386 47.3174 55.861 47.4561 55.0511 47.4561H38.7269C34.889 47.4561 31.7779 44.3415 31.7779 40.4995L31.7766 26.474C34.2876 25.5736 36.9865 25.0876 39.7778 25.0876Z" fill="url(#paint0_linear_60_822)"/>
</g>
<g style="mix-blend-mode:multiply">
<path fill-rule="evenodd" clip-rule="evenodd" d="M62.0001 15V40.4996C62.0001 43.5303 60.0641 46.1084 57.3626 47.062C59.0797 45.127 60.4799 42.8936 61.4725 40.4289C61.5833 40.1538 61.5833 39.8464 61.4725 39.5713C57.9792 30.8972 49.4378 25.0877 39.7778 25.0877C36.9865 25.0877 34.2876 25.5737 31.7766 26.4741L31.7779 21.9565C31.7779 18.1145 34.889 15 38.7269 15L62.0001 15Z" fill="#FFEFDF"/>
</g>
<path d="M39.7778 43.07C42.2324 43.07 44.2223 41.1064 44.2223 38.6841C44.2223 36.2618 42.2324 34.2981 39.7778 34.2981C37.3232 34.2981 35.3334 36.2618 35.3334 38.6841C35.3334 41.1064 37.3232 43.07 39.7778 43.07Z" fill="white"/>
<g style="mix-blend-mode:multiply">
<path d="M39.7778 59.7367C44.687 59.7367 48.6667 55.8094 48.6667 50.9648C48.6667 46.1202 44.687 42.1929 39.7778 42.1929C34.8686 42.1929 30.8889 46.1202 30.8889 50.9648C30.8889 55.8094 34.8686 59.7367 39.7778 59.7367Z" fill="#00BFD0"/>
</g>
<path d="M18.4445 19.4155V15H22.889M57.5556 15H62.0001V19.4155M62.0001 60.6367V65H57.5634M22.8983 65H18.4445V60.6729" stroke="black" stroke-width="1.73725" stroke-linecap="round" stroke-linejoin="round"/>
<defs>
<linearGradient id="paint0_linear_60_822" x1="46.6657" y1="29.5612" x2="46.666" y2="47.4561" gradientUnits="userSpaceOnUse">
<stop stop-color="white"/>
<stop offset="1" stop-color="#FFC187"/>
</linearGradient>
</defs>
</svg>
