<svg width="32" height="32" viewBox="0 0 32 32" fill="none" xmlns="http://www.w3.org/2000/svg">
<path opacity="0.12" d="M22.6669 4L13.8717 16.3133C13.4824 16.8583 13.2877 17.1308 13.2962 17.358C13.3035 17.5558 13.3983 17.7402 13.555 17.8611C13.735 18 14.0699 18 14.7396 18H21.3336L20.0002 28L28.7955 15.6867C29.1848 15.1417 29.3794 14.8692 29.371 14.642C29.3637 14.4442 29.2688 14.2598 29.1121 14.1389C28.9321 14 28.5973 14 27.9275 14H21.3336L22.6669 4Z" fill="#646AEE"/>
<path fill-rule="evenodd" clip-rule="evenodd" d="M23.1564 2.75996C23.726 2.98506 24.0689 3.56915 23.988 4.17617L22.8559 12.6666L27.9729 12.6666C28.2673 12.6665 28.5723 12.6665 28.8243 12.6895C29.0722 12.7122 29.5231 12.7722 29.9262 13.0833C30.3963 13.4462 30.6808 13.9991 30.7028 14.5925C30.7217 15.1013 30.5085 15.5032 30.3828 15.7181C30.2551 15.9365 30.0778 16.1847 29.9067 16.4241L21.0847 28.7749C20.7287 29.2733 20.0791 29.465 19.5096 29.2399C18.9401 29.0148 18.5971 28.4307 18.678 27.8237L19.8101 19.3333H14.7391C14.7238 19.3333 14.7085 19.3333 14.6931 19.3333C14.3988 19.3334 14.0937 19.3334 13.8417 19.3104C13.5938 19.2877 13.1429 19.2277 12.7398 18.9166C12.2697 18.5537 11.9852 18.0008 11.9632 17.4074C11.9443 16.8986 12.1575 16.4967 12.2832 16.2818C12.4109 16.0634 12.5882 15.8152 12.7594 15.5757C12.7683 15.5632 12.7772 15.5508 12.7861 15.5383L21.5814 3.22496C21.9373 2.72665 22.5869 2.53486 23.1564 2.75996ZM15.2573 16.6666H21.333C21.7174 16.6666 22.083 16.8325 22.3362 17.1217C22.5894 17.4108 22.7054 17.7952 22.6546 18.1762L22.0296 22.8641L27.4088 15.3333H21.333C20.9487 15.3333 20.583 15.1674 20.3298 14.8782C20.0767 14.5891 19.9606 14.2047 20.0114 13.8237L20.6364 9.13578L15.2573 16.6666ZM3.99967 8.66662C3.99967 7.93024 4.59663 7.33328 5.33301 7.33328H11.9997C12.7361 7.33328 13.333 7.93024 13.333 8.66662C13.333 9.403 12.7361 9.99995 11.9997 9.99995H5.33301C4.59663 9.99995 3.99967 9.403 3.99967 8.66662ZM1.33301 15.9999C1.33301 15.2636 1.92996 14.6666 2.66634 14.6666H8.66634C9.40272 14.6666 9.99967 15.2636 9.99967 15.9999C9.99967 16.7363 9.40272 17.3333 8.66634 17.3333H2.66634C1.92996 17.3333 1.33301 16.7363 1.33301 15.9999ZM3.33301 23.3333C3.33301 22.5969 3.92996 22 4.66634 22H11.9997C12.7361 22 13.333 22.5969 13.333 23.3333C13.333 24.0697 12.7361 24.6666 11.9997 24.6666H4.66634C3.92996 24.6666 3.33301 24.0697 3.33301 23.3333Z" fill="#646AEE"/>
</svg>
