<svg width="60" height="45" viewBox="0 0 60 45" fill="none" xmlns="http://www.w3.org/2000/svg">
<path d="M6.81677 5C6.81677 2.79086 8.60763 1 10.8168 1H49.1245C51.3336 1 53.1245 2.79086 53.1245 5V29.6667H6.81677V5Z" stroke="#D8D9E0" stroke-width="2"/>
<path d="M10.1217 6.30762C10.1217 5.20305 11.0171 4.30762 12.1217 4.30762H47.814C48.9186 4.30762 49.814 5.20305 49.814 6.30762V29.6666H10.1217V6.30762Z" fill="url(#paint0_linear_923_4321)" fill-opacity="0.4"/>
<path d="M1.50991 41.1622C0.898263 42.4874 1.86625 44.0003 3.32583 44.0003H56.6127C58.0722 44.0003 59.0402 42.4874 58.4286 41.1622L53.1231 29.667H6.8154L1.50991 41.1622Z" stroke="#D8D9E0" stroke-width="2"/>
<path d="M19.8018 36.9311C19.9481 36.5408 20.3212 36.2822 20.7381 36.2822H39.1982C39.6151 36.2822 39.9882 36.5408 40.1346 36.9311L41.0384 39.3414C41.2836 39.9951 40.8003 40.6925 40.1021 40.6925H19.8342C19.136 40.6925 18.6527 39.9951 18.8979 39.3414L19.8018 36.9311Z" fill="#D8D9E0"/>
<path d="M29.9704 10.3497V33.6336M39.8935 21.9916C39.8935 28.0068 33.2525 32.3816 30.8362 33.7744C30.5615 33.9326 30.4242 34.0118 30.2305 34.0528C30.0801 34.0847 29.8607 34.0847 29.7103 34.0528C29.5165 34.0118 29.3792 33.9326 29.1046 33.7744C26.6883 32.3816 20.0473 28.0068 20.0473 21.9916V16.131C20.0473 15.1512 20.0473 14.6613 20.2095 14.2402C20.3528 13.8682 20.5856 13.5363 20.8879 13.2731C21.23 12.9752 21.6943 12.8032 22.6228 12.4592L29.2735 9.99515C29.5314 9.89962 29.6603 9.85185 29.793 9.83291C29.9106 9.81611 30.0301 9.81611 30.1478 9.83291C30.2804 9.85185 30.4094 9.89962 30.6672 9.99515L37.3179 12.4592C38.2465 12.8032 38.7108 12.9752 39.0529 13.2731C39.3552 13.5363 39.588 13.8682 39.7313 14.2402C39.8935 14.6613 39.8935 15.1512 39.8935 16.131V21.9916Z" stroke="#1E1F24" stroke-width="2" stroke-linecap="round" stroke-linejoin="round"/>
<path fill-rule="evenodd" clip-rule="evenodd" d="M31.0709 11.3213L36.9329 13.4931C37.946 13.8684 38.1735 13.9711 38.3269 14.1047C38.4943 14.2504 38.622 14.4332 38.7004 14.6365C38.7711 14.8202 38.7889 15.0601 38.7889 16.131V21.9917C38.7889 24.5837 37.3529 26.9185 35.4781 28.8481C33.9798 30.3903 32.2839 31.5869 31.0709 32.3457V11.3213Z" fill="#54D38F"/>
<defs>
<linearGradient id="paint0_linear_923_4321" x1="17.8397" y1="6.51275" x2="22.8012" y2="21.9486" gradientUnits="userSpaceOnUse">
<stop stop-color="#54D38F"/>
<stop offset="1" stop-color="#54D38F" stop-opacity="0"/>
</linearGradient>
</defs>
</svg>
