<svg width="64" height="64" viewBox="0 0 64 64" fill="none" xmlns="http://www.w3.org/2000/svg">
<path d="M57 28V15C57 11.6863 54.3137 9 51 9H13C9.68629 9 7 11.6863 7 15V49C7 52.3137 9.68629 55 13 55H15" stroke="#D8D9E0" stroke-width="2" stroke-linecap="round"/>
<path d="M8 15C8 12.2386 10.2386 10 13 10H51C53.7614 10 56 12.2386 56 15V20H8V15Z" fill="#D8D9E0"/>
<circle cx="14" cy="15" r="2" fill="white"/>
<circle cx="20" cy="15" r="2" fill="white"/>
<circle cx="26" cy="15" r="2" fill="white"/>
<path d="M19 35C19 33.3431 20.3431 32 22 32H54C55.6569 32 57 33.3431 57 35V38H19V35Z" fill="#646AEE" fill-opacity="0.8"/>
<rect x="19" y="42" width="38" height="4" fill="#D8D9E0"/>
<rect x="19" y="50" width="38" height="4" fill="#D8D9E0"/>
<rect x="19" y="32" width="38" height="23" rx="3" stroke="#1E1F24" stroke-width="2"/>
<path d="M31.5 32V55" stroke="#1E1F24" stroke-width="2" stroke-linecap="round"/>
<path d="M44.5 32V55" stroke="#1E1F24" stroke-width="2" stroke-linecap="round"/>
</svg>
