<svg width="64" height="64" viewBox="0 0 64 64" fill="none" xmlns="http://www.w3.org/2000/svg">
<path d="M39.5527 38.738C39.6862 38.3885 39.7333 38.0126 39.69 37.6415C39.6467 37.2704 39.5143 36.9149 39.3038 36.6047C39.0876 36.3484 38.8224 36.1367 38.5234 35.9819C38.2244 35.827 37.8974 35.7319 37.5612 35.7022L23.1227 35.5381C23.0397 35.5381 22.9567 35.456 22.8737 35.456C22.8544 35.4417 22.8387 35.4231 22.8279 35.4017C22.8171 35.3804 22.8115 35.3568 22.8115 35.3329C22.8115 35.3091 22.8171 35.2855 22.8279 35.2641C22.8387 35.2428 22.8544 35.2242 22.8737 35.2099C22.9567 35.0458 23.0397 34.9637 23.2057 34.9637L37.7272 34.7996C38.6491 34.6985 39.5271 34.3563 40.2709 33.8083C41.0147 33.2603 41.5974 32.5263 41.9592 31.6818L42.789 29.5485C42.789 29.4664 42.8719 29.3844 42.789 29.3024C42.3378 27.3155 41.2431 25.5285 39.671 24.213C38.099 22.8975 36.1356 22.1254 34.0793 22.014C32.0229 21.9026 29.986 22.458 28.278 23.5958C26.57 24.7335 25.2843 26.3915 24.6163 28.3178C23.7491 27.7054 22.6914 27.4149 21.629 27.4973C20.6541 27.6048 19.7451 28.037 19.0514 28.7228C18.3578 29.4087 17.9207 30.3075 17.812 31.2715C17.7567 31.765 17.7847 32.264 17.8949 32.7484C16.3174 32.7915 14.8192 33.4415 13.7189 34.5601C12.6186 35.6787 12.0031 37.1776 12.0034 38.738C11.9897 39.0411 12.0176 39.3447 12.0863 39.6405C12.0901 39.7045 12.1176 39.765 12.1635 39.8104C12.2094 39.8557 12.2705 39.8829 12.3353 39.8866H38.9719C39.1378 39.8866 39.3038 39.8046 39.3038 39.6405L39.5527 38.738Z" fill="#FA8525"/>
<path d="M44.117 29.5486H43.7021C43.6191 29.5486 43.5361 29.6306 43.4531 29.7127L42.8723 31.6819C42.7388 32.0313 42.6917 32.4073 42.735 32.7783C42.7783 33.1494 42.9107 33.5049 43.1212 33.8151C43.3374 34.0714 43.6026 34.2831 43.9016 34.4379C44.2006 34.5928 44.5276 34.6879 44.8638 34.7177L47.9341 34.8818C48.017 34.8818 48.1 34.9638 48.183 34.9638C48.2023 34.9781 48.218 34.9967 48.2288 35.0181C48.2396 35.0394 48.2452 35.063 48.2452 35.0869C48.2452 35.1108 48.2396 35.1343 48.2288 35.1557C48.218 35.177 48.2023 35.1956 48.183 35.21C48.1 35.374 48.017 35.4561 47.8511 35.4561L44.6978 35.6202C43.7759 35.7214 42.8979 36.0635 42.1541 36.6115C41.4103 37.1595 40.8276 37.8935 40.4659 38.738L40.2999 39.4765C40.2169 39.5585 40.2999 39.7226 40.4659 39.7226H51.4192C51.453 39.7274 51.4875 39.7243 51.5199 39.7137C51.5523 39.703 51.5818 39.685 51.6059 39.6611C51.6301 39.6372 51.6483 39.6081 51.6591 39.5761C51.6699 39.544 51.673 39.5099 51.6682 39.4765C51.8657 38.7813 51.9772 38.065 52.0001 37.3432C51.9869 35.28 51.1522 33.3049 49.6766 31.846C48.2011 30.387 46.2036 29.5616 44.117 29.5486Z" fill="#FAAD3F"/>
<rect x="7" y="7" width="50" height="50" rx="12" stroke="#D8D9E0" stroke-width="2"/>
</svg>
