<svg width="64" height="64" viewBox="0 0 64 64" fill="none" xmlns="http://www.w3.org/2000/svg">
<rect x="7" y="9" width="50" height="46" rx="6" stroke="#1E1F24" stroke-width="2"/>
<path d="M45.4999 37C45.4999 45 40.4999 54 40.4999 54C40.4999 54 17.585 54 13.4999 54C15.4999 48 15.9998 46 17.9999 37C19.9999 28 25.768 23 33.4999 23C41.2319 23 45.4999 29 45.4999 37Z" fill="url(#paint0_linear_80_8583)" fill-opacity="0.3"/>
<path d="M8 15C8 12.2386 10.2386 10 13 10H51C53.7614 10 56 12.2386 56 15V20H8V15Z" fill="#D8D9E0"/>
<path d="M26.4767 42.9258C26.4923 42.899 26.5083 42.8724 26.5247 42.8459C27.7198 40.9152 28.4117 38.6319 28.4117 36.1734C28.4117 34.1925 29.9919 32.5867 31.9411 32.5867C33.8903 32.5867 35.4705 34.1925 35.4705 36.1734C35.4705 37.0854 35.4094 37.9835 35.2911 38.8635M33.4228 45C33.9626 43.9052 34.4051 42.7523 34.7389 41.5535M38.1262 42.5685C38.6953 40.5364 39 38.3911 39 36.1734C39 32.2117 35.8397 29 31.9412 29C30.6555 29 29.45 29.3493 28.4118 29.9597M24 40.0867C24.5653 38.9041 24.8824 37.5764 24.8824 36.1734C24.8824 34.8668 25.2261 33.6418 25.8267 32.5867M31.9411 36.1734C31.9411 39.3272 31.051 42.2698 29.5121 44.7557" stroke="#FA8525" stroke-opacity="0.8" stroke-width="2" stroke-linecap="round" stroke-linejoin="round"/>
<circle cx="14" cy="15" r="2" fill="white"/>
<circle cx="20" cy="15" r="2" fill="#FA8525" fill-opacity="0.8"/>
<circle cx="26" cy="15" r="2" fill="white"/>
<defs>
<linearGradient id="paint0_linear_80_8583" x1="36.4999" y1="32" x2="36.4999" y2="52.5" gradientUnits="userSpaceOnUse">
<stop stop-color="#FA8525"/>
<stop offset="1" stop-color="#FA8525" stop-opacity="0"/>
</linearGradient>
</defs>
</svg>
