<svg width="64" height="64" viewBox="0 0 64 64" fill="none" xmlns="http://www.w3.org/2000/svg">
<path d="M12 18.375V18C12 15.7909 13.7909 14 16 14H49C51.2091 14 53 15.7909 53 18V45C53 47.2091 51.2091 49 49 49V49" stroke="#D8D9E0" stroke-width="2"/>
<path d="M21 12V12C21 9.79086 22.7909 8 25 8H55C57.2091 8 59 9.79086 59 12V36C59 38.2091 57.2091 40 55 40V40" stroke="#D8D9E0" stroke-width="2"/>
<path d="M5 24C5 21.7909 6.79086 20 9 20H43C45.2091 20 47 21.7909 47 24V30H5V24Z" fill="#D8D9E0"/>
<path d="M13 36C13 34.8954 13.8954 34 15 34H37C38.1046 34 39 34.8954 39 36V44.4444C39 45.549 38.1046 46.4444 37 46.4444H25.4286H23.4454C22.8882 46.4444 22.3562 46.6769 21.9777 47.0858L18.2955 51.0635C17.9865 51.3973 17.4286 51.1787 17.4286 50.7239V46.9444C17.4286 46.6683 17.2047 46.4444 16.9286 46.4444H15C13.8954 46.4444 13 45.549 13 44.4444V36Z" fill="url(#paint0_linear_507_9969)" fill-opacity="0.4"/>
<rect x="16" y="37" width="20" height="2" fill="url(#paint1_linear_507_9969)" fill-opacity="0.4"/>
<rect x="16" y="41" width="11" height="2" fill="url(#paint2_linear_507_9969)" fill-opacity="0.4"/>
<rect x="5" y="20" width="42" height="36" rx="4" stroke="black" stroke-width="2"/>
<circle cx="10.5" cy="25.5" r="1.5" fill="white"/>
<circle cx="15.5" cy="25.5" r="1.5" fill="white"/>
<circle cx="20.5" cy="25.5" r="1.5" fill="#646AEE"/>
<defs>
<linearGradient id="paint0_linear_507_9969" x1="26" y1="52" x2="26.2927" y2="34" gradientUnits="userSpaceOnUse">
<stop stop-color="#646AEE" stop-opacity="0"/>
<stop offset="1" stop-color="#646AEE"/>
</linearGradient>
<linearGradient id="paint1_linear_507_9969" x1="36" y1="38" x2="16.2804" y2="40.3514" gradientUnits="userSpaceOnUse">
<stop stop-color="#646AEE" stop-opacity="0"/>
<stop offset="1" stop-color="#646AEE"/>
</linearGradient>
<linearGradient id="paint2_linear_507_9969" x1="27" y1="42" x2="16.0471" y2="42.7183" gradientUnits="userSpaceOnUse">
<stop stop-color="#646AEE" stop-opacity="0"/>
<stop offset="1" stop-color="#646AEE"/>
</linearGradient>
</defs>
</svg>
