<svg width="64" height="64" viewBox="0 0 64 64" fill="none" xmlns="http://www.w3.org/2000/svg">
<rect x="8" y="8" width="48" height="48" rx="24" stroke="#D8D9E0" stroke-width="2"/>
<path d="M51.799 51.799C49.1989 54.399 46.1123 56.4615 42.7151 57.8686C39.318 59.2758 35.677 60 32 60C28.323 60 24.682 59.2758 21.2849 57.8686C17.8877 56.4615 14.801 54.399 12.201 51.799L32 32L51.799 51.799Z" fill="url(#paint0_linear_80_8928)" fill-opacity="0.5"/>
<rect x="18" y="18" width="28" height="28" rx="14" stroke="#1E1F24" stroke-width="2"/>
<path d="M32 32V5" stroke="#646AEE" stroke-width="2" stroke-linecap="round"/>
<path d="M52 32C52 29.3736 51.4827 26.7728 50.4776 24.3463C49.4725 21.9198 47.9993 19.715 46.1421 17.8579C44.285 16.0007 42.0802 14.5275 39.6537 13.5224C37.2272 12.5173 34.6264 12 32 12L32 32H52Z" fill="url(#paint1_angular_80_8928)" fill-opacity="0.8"/>
<rect x="27" y="27" width="10" height="10" rx="5" fill="#FAFAFA" stroke="#1E1F24" stroke-width="2"/>
<defs>
<linearGradient id="paint0_linear_80_8928" x1="32" y1="32" x2="32" y2="60" gradientUnits="userSpaceOnUse">
<stop stop-color="#646AEE"/>
<stop offset="1" stop-color="#646AEE" stop-opacity="0"/>
</linearGradient>
<radialGradient id="paint1_angular_80_8928" cx="0" cy="0" r="1" gradientUnits="userSpaceOnUse" gradientTransform="translate(32 32) rotate(-90) scale(19)">
<stop offset="0.253912" stop-color="#646AEE" stop-opacity="0"/>
<stop offset="0.999192" stop-color="#646AEE"/>
</radialGradient>
</defs>
</svg>
