<svg width="64" height="64" viewBox="0 0 64 64" fill="none" xmlns="http://www.w3.org/2000/svg">
<g clip-path="url(#clip0_923_3507)">
<rect x="7" y="9" width="50" height="46" rx="6" stroke="#D8D9E0" stroke-width="2"/>
<path d="M8 15C8 12.2386 10.2386 10 13 10H51C53.7614 10 56 12.2386 56 15V20H8V15Z" fill="#D8D9E0"/>
<path fill-rule="evenodd" clip-rule="evenodd" d="M43 27C43 26.4477 42.5523 26 42 26H38C37.4477 26 37 26.4477 37 27V31C37 31.5523 37.4477 32 38 32H42C42.5523 32 43 31.5523 43 31V27ZM51 27C51 26.4477 50.5523 26 50 26H46C45.4477 26 45 26.4477 45 27V31C45 31.5523 45.4477 32 46 32H50C50.5523 32 51 31.5523 51 31V27ZM37 35C37 34.4477 37.4477 34 38 34H42C42.5523 34 43 34.4477 43 35V39C43 39.5523 42.5523 40 42 40H38C37.4477 40 37 39.5523 37 39V35ZM43 43C43 42.4477 42.5523 42 42 42H38C37.4477 42 37 42.4477 37 43V47C37 47.5523 37.4477 48 38 48H42C42.5523 48 43 47.5523 43 47V43ZM45 35C45 34.4477 45.4477 34 46 34H50C50.5523 34 51 34.4477 51 35V39C51 39.5523 50.5523 40 50 40H46C45.4477 40 45 39.5523 45 39V35ZM51 43C51 42.4477 50.5523 42 50 42H46C45.4477 42 45 42.4477 45 43V47C45 47.5523 45.4477 48 46 48H50C50.5523 48 51 47.5523 51 47V43Z" fill="url(#paint0_linear_923_3507)" fill-opacity="0.2"/>
<circle cx="14" cy="15" r="2" fill="white"/>
<circle cx="20" cy="15" r="2" fill="white"/>
<circle cx="26" cy="15" r="2" fill="white"/>
<path d="M26 27.2695V31.4001C26 31.9601 26 32.2401 26.109 32.4541C26.2049 32.6422 26.3578 32.7952 26.546 32.8911C26.7599 33.0001 27.0399 33.0001 27.6 33.0001H31.7305M26 27H20.8C19.1198 27 18.2798 27 17.638 27.327C17.0735 27.6146 16.6146 28.0735 16.327 28.638C16 29.2798 16 30.1198 16 31.8V42.2C16 43.8802 16 44.7202 16.327 45.362C16.6146 45.9265 17.0735 46.3854 17.638 46.673C18.2798 47 19.1198 47 20.8 47H27.2C28.8802 47 29.7202 47 30.362 46.673C30.9265 46.3854 31.3854 45.9265 31.673 45.362C32 44.7202 32 43.8802 32 42.2V33L26 27Z" stroke="#1E1F24" stroke-width="2" stroke-linecap="round" stroke-linejoin="round"/>
<path fill-rule="evenodd" clip-rule="evenodd" d="M18.911 28.0376C18.4726 28.0734 18.2484 28.1383 18.092 28.218C17.7157 28.4097 17.4097 28.7157 17.218 29.092C17.1383 29.2484 17.0734 29.4726 17.0376 29.911C17.0008 30.3611 17 30.9434 17 31.8V42.2C17 43.0566 17.0008 43.6389 17.0376 44.089C17.0734 44.5274 17.1383 44.7516 17.218 44.908C17.4097 45.2843 17.7157 45.5903 18.092 45.782C18.2484 45.8617 18.4726 45.9266 18.911 45.9624C19.3611 45.9992 19.9434 46 20.8 46H27.2C28.0566 46 28.6389 45.9992 29.089 45.9624C29.5274 45.9266 29.7516 45.8617 29.908 45.782C30.2843 45.5903 30.5903 45.2843 30.782 44.908C30.8617 44.7516 30.9266 44.5274 30.9624 44.089C30.9992 43.6389 31 43.0566 31 42.2V34.0001L27.5681 34.0001C27.3157 34.0001 27.0699 34.0001 26.8618 33.9831C26.6332 33.9644 26.3634 33.9204 26.092 33.7821C25.7157 33.5903 25.4097 33.2844 25.218 32.9081C25.0797 32.6366 25.0356 32.3669 25.0169 32.1383C24.9999 31.9301 25 31.6843 25 31.432L25 28H20.8C19.9434 28 19.3611 28.0008 18.911 28.0376Z" fill="#FA8525" fill-opacity="0.6"/>
<path d="M2 37C0.89543 37 0 37.8954 0 39C0 40.1046 0.89543 41 2 41H62C63.1046 41 64 40.1046 64 39C64 37.8954 63.1046 37 62 37H2Z" fill="#1E1F24" stroke="white" stroke-width="2" stroke-linecap="round"/>
</g>
<defs>
<linearGradient id="paint0_linear_923_3507" x1="40" y1="29" x2="52.7892" y2="53.0485" gradientUnits="userSpaceOnUse">
<stop stop-color="#FA8525"/>
<stop offset="1" stop-color="#FA8525" stop-opacity="0"/>
</linearGradient>
<clipPath id="clip0_923_3507">
<rect width="64" height="64" fill="white"/>
</clipPath>
</defs>
</svg>
