<svg width="64" height="64" viewBox="0 0 64 64" fill="none" xmlns="http://www.w3.org/2000/svg">
<path d="M10 22H54V47C54 48.1046 53.1046 49 52 49H12C10.8954 49 10 48.1046 10 47V22Z" fill="url(#paint0_linear_932_6247)" fill-opacity="0.4"/>
<path fill-rule="evenodd" clip-rule="evenodd" d="M24.8959 36H16.124C15.7137 36 15.3074 36.0783 14.9284 36.2305C14.5493 36.3828 14.2049 36.6059 13.9148 36.8871C13.6246 37.1683 13.3945 37.5022 13.2376 37.8696C13.0806 38.2371 12.9999 38.6309 13 39.0286C12.9996 39.1645 13.009 39.3003 13.028 39.435L13.5185 42.9397C13.8587 45.3468 15.0878 47.5528 16.9781 49.1486C18.8683 50.7444 21.2915 51.6218 23.7983 51.6182H25.02C26.4113 51.6179 27.7742 51.9995 28.951 52.7187L30.2462 53.5088C30.7714 53.8297 31.3796 54 32.0005 54C32.6213 54 33.2295 53.8297 33.7548 53.5088L35.0499 52.718C36.2268 51.9987 37.5897 51.6172 38.9809 51.6175H40.2012C42.7079 51.6212 45.1311 50.744 47.0215 49.1486C48.912 47.5531 50.1416 45.3474 50.4824 42.9404L50.9722 39.435C51.0315 39.0069 50.9957 38.5714 50.8673 38.1577C50.7388 37.7441 50.5206 37.3618 50.2273 37.0366C49.934 36.7113 49.5723 36.4505 49.1666 36.2718C48.7608 36.093 48.3203 36.0003 47.8746 36H39.1043C37.0556 36.0002 35.0401 36.5008 33.2438 37.4556L32.0001 38.1159L30.7549 37.4556C28.9592 36.5006 26.9441 35.9999 24.8959 36ZM29.7963 45.3359C28.8978 43.4805 26.4641 42.03 23.4922 41.8026C22.142 41.6886 20.7832 41.8627 19.5098 42.3125C20.4068 44.1686 22.8405 45.6169 25.8139 45.8495C27.1641 45.9619 28.5234 45.7866 29.7963 45.3359ZM44.9684 42.3125C43.6958 41.8623 42.3369 41.6883 40.9874 41.8026C38.0155 42.03 35.5811 43.4805 34.6818 45.3322C35.9548 45.7829 37.314 45.9582 38.6643 45.8458C41.6377 45.614 44.0721 44.1672 44.9684 42.3125Z" fill="#FFB800" fill-opacity="0.8"/>
<path d="M7 49V15C7 11.6863 9.68629 9 13 9H51C54.3137 9 57 11.6863 57 15V49" stroke="#1E1F24" stroke-width="2" stroke-linecap="round"/>
<path d="M8 15C8 12.2386 10.2386 10 13 10H51C53.7614 10 56 12.2386 56 15V20H8V15Z" fill="#D8D9E0"/>
<circle cx="14" cy="15" r="2" fill="white"/>
<circle cx="20" cy="15" r="2" fill="white"/>
<circle cx="26" cy="15" r="2" fill="white"/>
<defs>
<linearGradient id="paint0_linear_932_6247" x1="32" y1="41.35" x2="32" y2="18.85" gradientUnits="userSpaceOnUse">
<stop stop-color="#FFB800" stop-opacity="0"/>
<stop offset="1" stop-color="#FFB800"/>
</linearGradient>
</defs>
</svg>
