<svg width="64" height="64" viewBox="0 0 64 64" fill="none" xmlns="http://www.w3.org/2000/svg">
<path d="M31.8313 13.8635C32.217 13.4979 32.8214 13.4979 33.2072 13.8635L49.782 29.5745C50.11 29.8854 49.8899 30.4373 49.438 30.4373H42.3176L42.085 31.7971C40.5286 40.8976 41.5222 50.2512 44.9559 58.8216L46.237 62.0191H18.8015L20.0825 58.8216C23.5162 50.2513 24.5098 40.8976 22.9534 31.7971L22.7208 30.4373H15.6004C15.1485 30.4373 14.9285 29.8854 15.2565 29.5745L31.8313 13.8635Z" fill="url(#paint0_linear_80_8678)" fill-opacity="0.4"/>
<path d="M15.8 47.4807C9.83533 47.4807 5 42.6454 5 36.6807C5 31.6473 8.44336 27.4181 13.103 26.2202C13.101 26.1073 13.1 25.9941 13.1 25.8807C13.1 15.4425 21.5618 6.98071 32 6.98071C41.7466 6.98071 49.7701 14.3584 50.7905 23.834C55.5666 25.4706 59 29.9997 59 35.3307C59 42.041 53.5603 47.4807 46.85 47.4807" stroke="#D8D9E0" stroke-width="2" stroke-linecap="round" stroke-linejoin="round"/>
<path d="M19.5385 29.3285C19.5385 28.049 19.5385 27.4092 19.7875 26.9205C20.0065 26.4906 20.356 26.1411 20.7859 25.9221C21.2746 25.6731 21.9143 25.6731 23.1938 25.6731H38.7292C40.0087 25.6731 40.6485 25.6731 41.1372 25.9221C41.5671 26.1411 41.9166 26.4906 42.1356 26.9205C42.3846 27.4092 42.3846 28.049 42.3846 29.3285V31.1562C42.3846 32.4357 42.3846 33.0754 42.1356 33.5641C41.9166 33.994 41.5671 34.3435 41.1372 34.5626C40.6485 34.8116 40.0087 34.8116 38.7292 34.8116H23.1938C21.9143 34.8116 21.2746 34.8116 20.7859 34.5626C20.356 34.3435 20.0065 33.994 19.7875 33.5641C19.5385 33.0754 19.5385 32.4357 19.5385 31.1562V29.3285Z" stroke="#1E1F24" stroke-width="2" stroke-linecap="round" stroke-linejoin="round"/>
<path d="M19.5385 43.0362C19.5385 41.7567 19.5385 41.1169 19.7875 40.6282C20.0065 40.1983 20.356 39.8488 20.7859 39.6298C21.2746 39.3808 21.9143 39.3808 23.1938 39.3808H38.7292C40.0087 39.3808 40.6485 39.3808 41.1372 39.6298C41.5671 39.8488 41.9166 40.1983 42.1356 40.6282C42.3846 41.1169 42.3846 41.7567 42.3846 43.0362V44.8639C42.3846 46.1434 42.3846 46.7831 42.1356 47.2718C41.9166 47.7017 41.5671 48.0512 41.1372 48.2702C40.6485 48.5193 40.0087 48.5193 38.7292 48.5193H23.1938C21.9143 48.5193 21.2746 48.5193 20.7859 48.2702C20.356 48.0512 20.0065 47.7017 19.7875 47.2718C19.5385 46.7831 19.5385 46.1434 19.5385 44.8639V43.0362Z" stroke="#1E1F24" stroke-width="2" stroke-linecap="round" stroke-linejoin="round"/>
<circle cx="36.673" cy="30.3463" r="1.55769" fill="#54D38F"/>
<circle cx="36.673" cy="43.8463" r="1.55769" fill="#54D38F"/>
<defs>
<linearGradient id="paint0_linear_80_8678" x1="31.866" y1="21.4507" x2="31.866" y2="66.6409" gradientUnits="userSpaceOnUse">
<stop stop-color="#54D38F"/>
<stop offset="1" stop-color="#54D38F" stop-opacity="0"/>
</linearGradient>
</defs>
</svg>
