<svg width="64" height="64" viewBox="0 0 64 64" fill="none" xmlns="http://www.w3.org/2000/svg">
<path d="M31.8313 13.8635C32.2171 13.4979 32.8215 13.4979 33.2072 13.8635L49.782 29.5745C50.11 29.8854 49.89 30.4373 49.4381 30.4373H42.3177L42.0851 31.7971C40.5286 40.8976 41.5223 50.2512 44.9559 58.8216L46.237 62.0191H18.8015L20.0826 58.8216C23.5163 50.2513 24.5099 40.8976 22.9535 31.7971L22.7209 30.4373H15.6005C15.1486 30.4373 14.9285 29.8854 15.2565 29.5745L31.8313 13.8635Z" fill="url(#paint0_linear_115_10508)" fill-opacity="0.4"/>
<path d="M15.8 47.4807C9.83533 47.4807 5 42.6454 5 36.6807C5 31.6473 8.44336 27.4181 13.103 26.2202C13.101 26.1073 13.1 25.9941 13.1 25.8807C13.1 15.4425 21.5618 6.98071 32 6.98071C41.7466 6.98071 49.7701 14.3584 50.7905 23.834C55.5666 25.4706 59 29.9997 59 35.3307C59 42.041 53.5603 47.4807 46.85 47.4807" stroke="#D8D9E0" stroke-width="2" stroke-linecap="round" stroke-linejoin="round"/>
<path d="M31.9525 32.8965C29.0811 32.8965 26.745 35.2063 26.745 38.0455C26.745 40.8848 29.0811 43.1948 31.9525 43.1948C32.2319 43.1948 32.5273 43.1661 32.884 43.1043C33.4171 43.0082 33.7715 42.5026 33.674 41.9772C33.5883 41.5163 33.1849 41.1818 32.7145 41.1818C32.6539 41.1818 32.5927 41.1875 32.5351 41.1983C32.3026 41.2394 32.1182 41.2585 31.9549 41.2585C30.1631 41.2585 28.7054 39.8171 28.7054 38.0455C28.7054 36.274 30.1608 34.8328 31.9499 34.8328C33.7405 34.8328 35.197 36.274 35.197 38.0455C35.197 38.2181 35.1777 38.3995 35.1358 38.6177C35.0383 39.143 35.3927 39.6487 35.9256 39.7446C35.9844 39.7551 36.0441 39.7606 36.1034 39.7606C36.5782 39.7606 36.9829 39.4257 37.0653 38.9662C37.128 38.6307 37.1573 38.3382 37.1573 38.0457C37.1586 36.6725 36.6172 35.38 35.6329 34.4064C34.6486 33.4327 33.3415 32.8965 31.9525 32.8965Z" fill="#FFB800"/>
<path d="M44.4945 35.6797C44.4305 35.345 44.1711 35.0791 43.8334 35.0024C42.6056 34.7238 41.584 33.979 40.9569 32.9061C40.3319 31.835 40.1896 30.5888 40.5559 29.399C40.6592 29.0732 40.5561 28.7183 40.2936 28.4955C39.0672 27.449 37.6705 26.6516 36.1424 26.1258C36.05 26.0939 35.9538 26.0778 35.8559 26.0778C35.6141 26.0778 35.3818 26.1783 35.2195 26.3525C34.3629 27.262 33.2027 27.7629 31.9526 27.7629C30.7024 27.7629 29.5413 27.2612 28.6828 26.3499C28.452 26.1057 28.0819 26.0126 27.7576 26.1235C26.22 26.6559 24.8241 27.454 23.608 28.4962C23.3497 28.7186 23.2469 29.071 23.3462 29.3948C23.715 30.5856 23.5735 31.8317 22.9478 32.904C22.3236 33.9762 21.3028 34.7206 20.0716 35.0006C19.7335 35.0799 19.4741 35.3466 19.4107 35.6793C19.2575 36.4753 19.1799 37.2715 19.1799 38.0456C19.1799 38.8198 19.2575 39.616 19.4106 40.4117C19.4743 40.746 19.7335 41.012 20.0713 41.0891C21.2993 41.3678 22.3209 42.1122 22.948 43.1852C23.5735 44.2573 23.715 45.5034 23.346 46.6948C23.2475 47.0162 23.3496 47.369 23.6089 47.5959C24.8349 48.6421 26.2308 49.4393 27.7592 49.9661C28.0951 50.08 28.4546 49.9822 28.6807 49.7411C29.539 48.8302 30.7 48.3285 31.95 48.3285C33.2 48.3285 34.3612 48.8302 35.2184 49.7402C35.3812 49.9146 35.6137 50.015 35.8565 50.015C35.9526 50.015 36.0481 49.9997 36.1445 49.9681C37.6717 49.4417 39.0676 48.6444 40.2945 47.5976C40.5521 47.3756 40.6551 47.0226 40.5565 46.6965C40.1874 45.5047 40.3295 44.2588 40.957 43.1875C41.5818 42.1145 42.6033 41.3702 43.8337 41.0914C44.1674 41.0154 44.4266 40.7505 44.4944 40.4144C44.6474 39.618 44.725 38.8219 44.725 38.0481C44.725 37.2727 44.6475 36.4756 44.4945 35.6797ZM38.345 46.141C37.5825 46.7316 36.7414 47.2119 35.8405 47.5713C34.7658 46.6296 33.3912 46.1129 31.9501 46.1129C30.5167 46.1129 29.1423 46.6296 28.0604 47.5715C27.1597 47.2122 26.3185 46.732 25.5558 46.1414C25.8456 44.7515 25.6111 43.3157 24.8889 42.0801C24.1726 40.8506 23.0306 39.9315 21.6607 39.4773C21.591 38.9985 21.5557 38.5176 21.5557 38.0456C21.5557 37.5756 21.591 37.0949 21.6607 36.6144C23.0264 36.1636 24.1681 35.2445 24.8889 34.0114C25.6073 32.7802 25.8418 31.3444 25.5553 29.9502C26.3178 29.3599 27.1589 28.8796 28.0601 28.5201C29.1388 29.4635 30.5133 29.9809 31.95 29.9809C33.3913 29.9809 34.7658 29.4642 35.8404 28.5225C36.7414 28.8819 37.5824 29.3622 38.3448 29.9525C38.0574 31.3481 38.291 32.7836 39.0088 34.0137C39.725 35.2432 40.8667 36.1624 42.2368 36.6167C42.3066 37.0968 42.3419 37.5777 42.3419 38.0505C42.3461 38.503 42.3116 38.9821 42.2393 39.4773C40.8693 39.9316 39.7275 40.8506 39.0112 42.08C38.2943 43.3083 38.06 44.7439 38.345 46.141Z" fill="#1E1F24"/>
<defs>
<linearGradient id="paint0_linear_115_10508" x1="31.866" y1="21.4507" x2="31.866" y2="66.6409" gradientUnits="userSpaceOnUse">
<stop stop-color="#FFB800"/>
<stop offset="1" stop-color="#FFB800" stop-opacity="0"/>
</linearGradient>
</defs>
</svg>
