<svg width="64" height="64" viewBox="0 0 64 64" fill="none" xmlns="http://www.w3.org/2000/svg">
<path d="M39.8802 36.8365C39.5011 37.2137 39.1034 37.6094 38.7807 37.9331C38.49 38.2248 38.2848 38.5845 38.1808 38.9743C38.034 39.5246 37.9154 40.0807 37.7171 40.6144L36.0264 45.1692C34.6887 45.4608 33.3043 45.6251 31.88 45.6251V42.9633C32.0443 41.7364 31.1372 39.4381 29.6799 37.9808C29.0966 37.3974 28.769 36.6061 28.769 35.7807V32.6687C28.769 31.537 28.1594 30.4968 27.1687 29.9494C25.7717 29.1765 23.7845 28.0964 22.4234 27.411C21.3073 26.8491 20.2749 26.1336 19.3464 25.2965L19.2686 25.2265C18.6047 24.6272 18.0152 23.9502 17.5129 23.2102C16.6009 21.8714 15.1154 19.6694 14.15 18.2383C16.1401 13.8148 19.7266 10.2624 24.1831 8.33261L26.5174 9.50022C27.5518 10.0174 28.769 9.26592 28.769 8.109V7.01042C29.5458 6.88501 30.3362 6.80528 31.1402 6.77515L33.8915 9.52647C34.4991 10.1341 34.4991 11.1189 33.8915 11.7266L33.4355 12.1815L32.4303 13.1868C32.1269 13.4901 32.1269 13.983 32.4303 14.2863L32.8862 14.7423C33.1896 15.0456 33.1896 15.5385 32.8862 15.8419L32.1085 16.6196C31.9624 16.7654 31.7645 16.8472 31.5582 16.8471H30.6842C30.482 16.8471 30.2875 16.9259 30.1417 17.0678L29.1773 18.006C29.0591 18.1211 28.9805 18.2708 28.9529 18.4335C28.9253 18.5962 28.9501 18.7634 29.0237 18.9111L30.5393 21.9434C30.7979 22.4606 30.4217 23.0692 29.8442 23.0692H29.2959C29.1083 23.0692 28.9274 23.0011 28.7865 22.8786L27.8843 22.095C27.6801 21.9179 27.4334 21.797 27.1683 21.7442C26.9032 21.6913 26.629 21.7084 26.3725 21.7937L23.3422 22.8038C23.1108 22.8809 22.9096 23.0289 22.767 23.2268C22.6245 23.4247 22.5478 23.6624 22.5479 23.9062C22.5479 24.3467 22.7968 24.7482 23.1905 24.9455L24.2677 25.4841C25.1825 25.942 26.1917 26.1802 27.2144 26.1802C28.2372 26.1802 29.4106 28.8333 30.3255 29.2912H36.8149C37.6403 29.2912 38.4307 29.6189 39.015 30.2022L40.3459 31.5331C40.9019 32.0894 41.2142 32.8437 41.2141 33.6302C41.2139 34.2261 41.0959 34.8162 40.867 35.3664C40.6381 35.9166 40.3028 36.4162 39.8802 36.8365Z" fill="url(#paint0_linear_105_2949)" fill-opacity="0.5"/>
<path d="M32 45.625V53" stroke="#1E1F24" stroke-width="2"/>
<circle cx="32" cy="25.6751" r="19.95" stroke="#1E1F24" stroke-width="2"/>
<path d="M35 56.125H53" stroke="#D8D9E0" stroke-width="2" stroke-linecap="round"/>
<path d="M11 56.125H29" stroke="#D8D9E0" stroke-width="2" stroke-linecap="round"/>
<circle cx="32" cy="56" r="3" stroke="#1E1F24" stroke-width="2"/>
<circle cx="32" cy="56" r="2" fill="#646AEE" fill-opacity="0.8"/>
<defs>
<linearGradient id="paint0_linear_105_2949" x1="27.682" y1="26.2001" x2="27.682" y2="45.6251" gradientUnits="userSpaceOnUse">
<stop stop-color="#646AEE"/>
<stop offset="1" stop-color="#646AEE" stop-opacity="0"/>
</linearGradient>
</defs>
</svg>
