<svg width="64" height="64" viewBox="0 0 64 64" fill="none" xmlns="http://www.w3.org/2000/svg">
<rect x="17" y="10" width="30" height="44" fill="url(#paint0_linear_105_3465)" fill-opacity="0.3"/>
<circle cx="32" cy="32" r="8" fill="#646AEE" fill-opacity="0.8"/>
<path d="M29 32H35" stroke="white" stroke-width="2" stroke-linecap="round"/>
<path d="M32 29V35" stroke="white" stroke-width="2" stroke-linecap="round"/>
<path d="M35.0304 35.7868C34.8649 35.274 35.4064 34.8196 35.8827 35.0717L44.6764 39.7262C45.1592 39.9817 45.0776 40.6968 44.5497 40.8371L41.0968 41.7544C40.9244 41.8002 40.7813 41.9203 40.7062 42.0821L39.2033 45.3233C38.9735 45.8188 38.255 45.775 38.0872 45.2552L35.0304 35.7868Z" fill="#1E1F24"/>
<rect x="17" y="10" width="30" height="44" rx="3" stroke="#1E1F24" stroke-width="2" stroke-linejoin="round"/>
<path d="M5 16.2361C5 15.4785 5.428 14.786 6.10557 14.4472L10.1056 12.4472C11.4354 11.7823 13 12.7493 13 14.2361V49.7639C13 51.2507 11.4354 52.2177 10.1056 51.5528L6.10557 49.5528C5.428 49.214 5 48.5215 5 47.7639V16.2361Z" stroke="#D8D9E0" stroke-width="2" stroke-linejoin="round"/>
<path d="M51 14.2361C51 12.7493 52.5646 11.7823 53.8944 12.4472L57.8944 14.4472C58.572 14.786 59 15.4785 59 16.2361V47.7639C59 48.5215 58.572 49.214 57.8944 49.5528L53.8944 51.5528C52.5646 52.2177 51 51.2507 51 49.7639V14.2361Z" stroke="#D8D9E0" stroke-width="2" stroke-linejoin="round"/>
<defs>
<linearGradient id="paint0_linear_105_3465" x1="27.5" y1="10" x2="27.5" y2="44.7368" gradientUnits="userSpaceOnUse">
<stop stop-color="#646AEE"/>
<stop offset="1" stop-color="#646AEE" stop-opacity="0"/>
</linearGradient>
</defs>
</svg>
