<svg width="64" height="64" viewBox="0 0 64 64" fill="none" xmlns="http://www.w3.org/2000/svg">
<rect x="7" y="9" width="50" height="46" rx="6" stroke="#D8D9E0" stroke-width="2"/>
<path d="M8 15C8 12.2386 10.2386 10 13 10H51C53.7614 10 56 12.2386 56 15V20H8V15Z" fill="#D8D9E0"/>
<circle cx="14" cy="15" r="2" fill="white"/>
<circle cx="20" cy="15" r="2" fill="white"/>
<circle cx="26" cy="15" r="2" fill="white"/>
<path d="M10 22H54V50C54 51.1046 53.1046 52 52 52H12C10.8954 52 10 51.1046 10 50V22Z" fill="url(#paint0_linear_923_4500)" fill-opacity="0.3"/>
<path d="M43.6663 36.2501L43.1128 31.8222C42.8958 30.0854 42.7872 29.2171 42.3785 28.5627C42.0184 27.9861 41.4982 27.5269 40.8815 27.2411C40.1815 26.9167 39.3063 26.9167 37.5561 26.9167H26.4433C24.693 26.9167 23.8179 26.9167 23.1179 27.2411C22.5011 27.5269 21.9809 27.9861 21.6208 28.5627C21.2121 29.2171 21.1036 30.0854 20.8865 31.8222L20.333 36.2501M24.4163 40.9167H39.583M24.4163 40.9167C22.1612 40.9167 20.333 39.0886 20.333 36.8334C20.333 34.5783 22.1612 32.7501 24.4163 32.7501H39.583C41.8382 32.7501 43.6663 34.5783 43.6663 36.8334C43.6663 39.0886 41.8382 40.9167 39.583 40.9167M24.4163 40.9167C22.1612 40.9167 20.333 42.7449 20.333 45.0001C20.333 47.2552 22.1612 49.0834 24.4163 49.0834H39.583C41.8382 49.0834 43.6663 47.2552 43.6663 45.0001C43.6663 42.7449 41.8382 40.9167 39.583 40.9167M24.9997 36.8334H25.0113M24.9997 45.0001H25.0113M31.9997 36.8334H38.9997M31.9997 45.0001H38.9997" stroke="#1E1F24" stroke-width="2" stroke-linecap="round" stroke-linejoin="round"/>
<path fill-rule="evenodd" clip-rule="evenodd" d="M21.8135 32.4659C22.5748 32.0113 23.4649 31.7501 24.416 31.7501H39.5827C40.5338 31.7501 41.4239 32.0113 42.1852 32.4659L42.1202 31.9462C42.0098 31.0625 41.9333 30.456 41.8374 29.9866C41.7441 29.5294 41.646 29.2781 41.53 29.0924C41.2728 28.6806 40.9012 28.3526 40.4607 28.1484C40.2621 28.0564 40.0005 27.9903 39.5353 27.9543C39.0576 27.9174 38.4463 27.9167 37.5558 27.9167H26.4429C25.5524 27.9167 24.9411 27.9174 24.4634 27.9543C23.9982 27.9903 23.7366 28.0564 23.538 28.1484C23.0974 28.3526 22.7259 28.6806 22.4687 29.0924C22.3527 29.2781 22.2546 29.5294 22.1613 29.9866C22.0654 30.456 21.9889 31.0625 21.8784 31.9462L21.8135 32.4659Z" fill="#646AEE" fill-opacity="0.8"/>
<defs>
<linearGradient id="paint0_linear_923_4500" x1="25.4" y1="22" x2="25.4" y2="45.6842" gradientUnits="userSpaceOnUse">
<stop stop-color="#646AEE"/>
<stop offset="1" stop-color="#646AEE" stop-opacity="0"/>
</linearGradient>
</defs>
</svg>
