<svg width="64" height="64" viewBox="0 0 64 64" fill="none" xmlns="http://www.w3.org/2000/svg">
<path d="M57 32V15C57 11.6863 54.3137 9 51 9H13C9.68629 9 7 11.6863 7 15V49C7 52.3137 9.68629 55 13 55H32" stroke="#D8D9E0" stroke-width="2" stroke-linecap="round"/>
<rect x="8" y="10" width="48" height="10" fill="#D8D9E0"/>
<circle cx="14" cy="15" r="2" fill="white"/>
<rect x="15" y="27" width="34" height="12" rx="2" fill="url(#paint0_linear_938_7132)" fill-opacity="0.3"/>
<circle cx="20" cy="15" r="2" fill="white"/>
<circle cx="26" cy="15" r="2" fill="white"/>
<circle cx="46" cy="44" r="6" fill="#646AEE" fill-opacity="0.8"/>
<path d="M46 33V38.5M46 33C45.2154 33 44.45 33.0821 43.7119 33.2383M46 33C46.7846 33 47.55 33.0821 48.288 33.2383M46 38.5C42.9624 38.5 40.5 40.9625 40.5 44M46 38.5C49.0375 38.5 51.5 40.9625 51.5 44M46 49.5V55M46 49.5C49.0375 49.5 51.5 47.0376 51.5 44M46 49.5C42.9624 49.5 40.5 47.0376 40.5 44M46 55C46.7834 55 47.5477 54.9181 48.2847 54.7624M46 55C45.2136 55 44.4466 54.9175 43.707 54.7607M38.2218 36.2218L42.1109 40.1109M49.8891 47.8891L53.7781 51.7782M35 44H40.5M35 44C35 44.7847 35.0821 45.5501 35.2383 46.2882M35 44C35 43.2142 35.0824 42.4477 35.239 41.7085M51.5 44H57M57 44C57 43.2154 56.9178 42.4499 56.7616 41.7118M57 44C57 44.7844 56.9179 45.5495 56.7618 46.2874M38.2218 51.7782L42.1109 47.8891M49.8891 40.1109L53.7781 36.2218M51.9913 34.7733C53.2831 35.6138 54.3873 36.7183 55.2277 38.0102M55.2246 49.9945C54.3842 51.2852 53.2801 52.3886 51.9889 53.2283M40.0091 53.227C38.7191 52.3878 37.6161 51.2853 36.7762 49.9959M36.7729 38.0093C37.613 36.7179 38.7168 35.614 40.008 34.7737" stroke="#1E1F24" stroke-width="2" stroke-linecap="round" stroke-linejoin="round"/>
<defs>
<linearGradient id="paint0_linear_938_7132" x1="33" y1="22" x2="44" y2="42.5" gradientUnits="userSpaceOnUse">
<stop stop-color="#646AEE"/>
<stop offset="1" stop-color="#646AEE" stop-opacity="0"/>
</linearGradient>
</defs>
</svg>
