<svg width="64" height="64" viewBox="0 0 64 64" fill="none" xmlns="http://www.w3.org/2000/svg">
<path d="M46 48.1667L44.8713 26.3143C44.5149 19.4129 38.8152 14 31.9046 14C26.5678 14 21.7746 17.2655 19.8214 22.232L16.4013 30.9284C16.1859 31.4761 16.4877 32.0904 17.0528 32.2547L21.3355 33.4992C21.8169 33.6391 22.1203 34.1138 22.0451 34.6094L21.1539 40.4851C21.0696 41.0413 21.4604 41.5575 22.0186 41.6273L26.6958 42.212C27.2354 42.2794 27.6222 42.7657 27.5665 43.3067L26.9804 49L46 48.1667Z" fill="url(#paint0_linear_80_4533)" fill-opacity="0.2"/>
<path d="M46 48.1667L44.8713 26.3143C44.5149 19.4129 38.8152 14 31.9046 14V14C26.5678 14 21.7746 17.2655 19.8214 22.232L16.4013 30.9284C16.1859 31.4761 16.4877 32.0904 17.0528 32.2547L21.3355 33.4992C21.8169 33.6391 22.1203 34.1138 22.0451 34.6094L21.1539 40.4851C21.0696 41.0413 21.4604 41.5575 22.0186 41.6273L26.6958 42.212C27.2354 42.2794 27.6222 42.7657 27.5665 43.3066L26.9804 49" stroke="#1E1F24" stroke-width="2" stroke-linecap="round"/>
<path d="M39.75 29.4978C40.5833 26.1644 38.5 20.3311 32.6667 19.4977C26.8333 18.6644 23.5 24.4977 24.3333 26.1644C26 28.6644 29.3333 26.1644 31.8333 28.6644C35.1667 31.9977 38.9167 32.8311 39.75 29.4978Z" fill="#FA8525" fill-opacity="0.6"/>
<rect x="7" y="7" width="50" height="50" rx="12" stroke="#D8D9E0" stroke-width="2"/>
<path d="M61 27C62.1046 27 63 26.1046 63 25C63 23.8954 62.1046 23 61 23H3C1.89543 23 1 23.8954 1 25C1 26.1046 1.89543 27 3 27H61Z" fill="#1E1F24" stroke="white" stroke-width="2"/>
<defs>
<linearGradient id="paint0_linear_80_4533" x1="33.5" y1="29" x2="35.5" y2="45" gradientUnits="userSpaceOnUse">
<stop stop-color="#FA8525"/>
<stop offset="1" stop-color="#FA8525" stop-opacity="0"/>
</linearGradient>
</defs>
</svg>
