<svg width="64" height="64" viewBox="0 0 64 64" fill="none" xmlns="http://www.w3.org/2000/svg">
<rect x="4" y="15" width="56" height="3" fill="url(#paint0_linear_105_3010)" fill-opacity="0.4"/>
<rect x="3" y="14" width="58" height="21" rx="2" stroke="#1E1F24" stroke-width="2"/>
<rect x="21" y="24" width="24" height="3" fill="#D8D9E0"/>
<path d="M58 37V40C58 40.5523 57.5523 41 57 41H7C6.44772 41 6 40.5523 6 40V37" stroke="#D8D9E0" stroke-width="2"/>
<path d="M9 43V45C9 45.5523 9.44772 46 10 46H54C54.5523 46 55 45.5523 55 45V43" stroke="#D8D9E0" stroke-width="2"/>
<path d="M11 48V49.5C11 50.0523 11.4477 50.5 12 50.5H52C52.5523 50.5 53 50.0523 53 49.5V48" stroke="#D8D9E0" stroke-width="2"/>
<path d="M18 22L13 27L10.375 24.375" stroke="#54D38F" stroke-width="2"/>
<defs>
<linearGradient id="paint0_linear_105_3010" x1="60" y1="16.5714" x2="4" y2="16.5714" gradientUnits="userSpaceOnUse">
<stop stop-color="#54D38F" stop-opacity="0"/>
<stop offset="1" stop-color="#54D38F"/>
</linearGradient>
</defs>
</svg>
