<svg width="64" height="64" viewBox="0 0 64 64" fill="none" xmlns="http://www.w3.org/2000/svg">
<circle cx="32" cy="37" r="13" fill="url(#paint0_linear_105_2852)" fill-opacity="0.4"/>
<rect x="7" y="9" width="50" height="46" rx="6" stroke="#1E1F24" stroke-width="2"/>
<path d="M8 15C8 12.2386 10.2386 10 13 10H51C53.7614 10 56 12.2386 56 15V20H8V15Z" fill="#D8D9E0"/>
<circle cx="14" cy="15" r="2" fill="white"/>
<circle cx="20" cy="15" r="2" fill="white"/>
<circle cx="26" cy="15" r="2" fill="#54D38F"/>
<path d="M27.5 33.8929H34.25V31.75C34.25 31.125 34.0312 30.5938 33.5938 30.1563C33.1563 29.7188 32.625 29.5 32 29.5C31.375 29.5 30.8438 29.7188 30.4062 30.1563C29.9688 30.5938 29.75 31.125 29.75 31.75C29.75 31.8881 29.6381 32 29.5 32L28.5 32C28.3619 32 28.25 31.8881 28.25 31.75C28.25 30.7125 28.6156 29.8281 29.3469 29.0969C30.0781 28.3656 30.9625 28 32 28C33.0375 28 33.9219 28.3656 34.6531 29.0969C35.3844 29.8281 35.75 30.7125 35.75 31.75V33.8929H36.5C36.9125 33.8929 37.2656 34.0397 37.5594 34.3335C37.8531 34.6272 38 34.9804 38 35.3929V42.8929C38 43.3054 37.8531 43.6585 37.5594 43.9522C37.2656 44.246 36.9125 44.3929 36.5 44.3929H27.5C27.0875 44.3929 26.7344 44.246 26.4406 43.9522C26.1469 43.6585 26 43.3054 26 42.8929V35.3929C26 34.9804 26.1469 34.6272 26.4406 34.3335C26.7344 34.0397 27.0875 33.8929 27.5 33.8929ZM32 40.6429C32.4125 40.6429 32.7656 40.496 33.0594 40.2022C33.3531 39.9085 33.5 39.5554 33.5 39.1429C33.5 38.7304 33.3531 38.3772 33.0594 38.0835C32.7656 37.7897 32.4125 37.6429 32 37.6429C31.5875 37.6429 31.2344 37.7897 30.9406 38.0835C30.6469 38.3772 30.5 38.7304 30.5 39.1429C30.5 39.5554 30.6469 39.9085 30.9406 40.2022C31.2344 40.496 31.5875 40.6429 32 40.6429Z" fill="#54D38F"/>
<defs>
<linearGradient id="paint0_linear_105_2852" x1="32" y1="24" x2="32" y2="50" gradientUnits="userSpaceOnUse">
<stop stop-color="#54D38F"/>
<stop offset="1" stop-color="#54D38F" stop-opacity="0"/>
</linearGradient>
</defs>
</svg>
