<svg width="64" height="64" viewBox="0 0 64 64" fill="none" xmlns="http://www.w3.org/2000/svg">
<rect x="12" y="44" width="40" height="10" rx="3" fill="#D8D9E0" stroke="#D8D9E0" stroke-width="2"/>
<path d="M32 38V43" stroke="url(#paint0_linear_115_10603)" stroke-width="2"/>
<rect x="10" y="35" width="44" height="2" fill="url(#paint1_linear_115_10603)" fill-opacity="0.4"/>
<rect x="9" y="10" width="46" height="28" rx="3" stroke="#1E1F24" stroke-width="2"/>
<path d="M17.0667 19.088C16.1879 19.2548 15.3699 19.6543 14.6982 20.245C14.0266 20.8357 13.5257 21.5958 13.2481 22.4461H17.8854C17.9818 22.4475 18.0763 22.4575 18.1672 22.4757L17.0667 19.088ZM19.2896 23.4417C19.3292 23.5508 19.3565 23.6654 19.3701 23.7845L22.3827 21.5956C21.7717 20.4783 20.756 19.6374 19.5442 19.2458C18.9805 19.0626 18.4077 18.9848 17.8472 19.0021L19.2896 23.4417ZM18.7423 25.191L22.7055 22.312C23.0673 23.3185 23.1101 24.4486 22.7537 25.5451C22.5107 26.2969 22.0923 26.98 21.5331 27.5381L18.4964 25.3324C18.5832 25.2928 18.6655 25.2451 18.7423 25.191ZM16.9657 25.1705C16.8896 25.1138 16.819 25.05 16.7548 24.98L15.6411 28.4091C15.897 28.5454 16.1684 28.6618 16.4543 28.7546C17.203 28.9986 17.9988 29.0621 18.7767 28.9398C19.5547 28.8175 20.2926 28.5129 20.9303 28.0508L16.9657 25.1705ZM13.0617 23.2158H16.5512C16.5052 23.2971 16.4661 23.384 16.4357 23.474L14.9719 27.9804C14.253 27.4326 13.6958 26.7003 13.3595 25.8614C13.0231 25.0224 12.9202 24.108 13.0617 23.2153V23.2158Z" fill="#FFC633"/>
<rect x="27" y="18" width="16" height="4" fill="#FFB800" fill-opacity="0.8"/>
<rect x="27" y="24" width="24" height="2" fill="#D8D9E0"/>
<rect x="27" y="28" width="24" height="2" fill="#D8D9E0"/>
<rect x="21" y="47.5" width="22" height="2" fill="white"/>
<defs>
<linearGradient id="paint0_linear_115_10603" x1="32.5" y1="39" x2="32.5" y2="42" gradientUnits="userSpaceOnUse">
<stop stop-color="#1E1F24"/>
<stop offset="1" stop-color="#D8D9E0"/>
</linearGradient>
<linearGradient id="paint1_linear_115_10603" x1="54" y1="36.0476" x2="10" y2="36.0476" gradientUnits="userSpaceOnUse">
<stop stop-color="#FFB800" stop-opacity="0"/>
<stop offset="1" stop-color="#FFB800"/>
</linearGradient>
</defs>
</svg>
