<svg width="64" height="64" viewBox="0 0 64 64" fill="none" xmlns="http://www.w3.org/2000/svg">
<rect x="10" y="11.1001" width="44" height="17.6" rx="2" fill="url(#paint0_linear_102_2784)" fill-opacity="0.4"/>
<path d="M46.96 28.7001C49.4242 28.7001 50.6563 28.7001 51.5976 28.2205C52.4255 27.7987 53.0986 27.1256 53.5204 26.2977C54 25.3564 54 24.1243 54 21.6601V18.1401C54 15.6759 54 14.4438 53.5204 13.5025C53.0986 12.6746 52.4255 12.0015 51.5976 11.5797C50.6563 11.1001 49.4242 11.1001 46.96 11.1001H17.04C14.5758 11.1001 13.3437 11.1001 12.4024 11.5797C11.5745 12.0015 10.9014 12.6746 10.4796 13.5025C10 14.4438 10 15.6759 10 18.1401V21.6601C10 24.1243 10 25.3564 10.4796 26.2977C10.9014 27.1256 11.5745 27.7987 12.4024 28.2205C13.3437 28.7001 14.5758 28.7001 17.04 28.7001H39.7" stroke="#1E1F24" stroke-width="2" stroke-linecap="round" stroke-linejoin="round"/>
<path d="M46.96 35.3C49.4242 35.3 50.6563 35.3 51.5976 35.7796C52.4255 36.2015 53.0986 36.8746 53.5204 37.7025C54 38.6437 54 39.8758 54 42.34V45.86C54 48.3243 54 49.5564 53.5204 50.4976C53.0986 51.3255 52.4255 51.9986 51.5976 52.4205C50.6563 52.9 49.4242 52.9 46.96 52.9H17.04C14.5758 52.9 13.3437 52.9 12.4024 52.4205C11.5745 51.9986 10.9014 51.3255 10.4796 50.4976C10 49.5564 10 48.3243 10 45.86V42.34C10 39.8758 10 38.6437 10.4796 37.7025C10.9014 36.8746 11.5745 36.2015 12.4024 35.7796C13.3437 35.3 14.5758 35.3 17.04 35.3H39.7" stroke="#D8D9E0" stroke-width="2" stroke-linecap="round" stroke-linejoin="round"/>
<circle cx="18.8" cy="19.9002" r="2.2" fill="#FFB800" fill-opacity="0.8"/>
<circle cx="18.8" cy="44.1001" r="2.2" fill="#D8D9E0"/>
<rect x="23.2" y="17.7002" width="13.2" height="4.4" rx="1" fill="#FFB800" fill-opacity="0.8"/>
<defs>
<linearGradient id="paint0_linear_102_2784" x1="54" y1="20.3191" x2="10" y2="20.3191" gradientUnits="userSpaceOnUse">
<stop stop-color="#FFB800" stop-opacity="0"/>
<stop offset="1" stop-color="#FFB800"/>
</linearGradient>
</defs>
</svg>
