<svg width="64" height="64" viewBox="0 0 64 64" fill="none" xmlns="http://www.w3.org/2000/svg">
<circle cx="32" cy="37" r="13" fill="url(#paint0_linear_115_9832)" fill-opacity="0.4"/>
<path fill-rule="evenodd" clip-rule="evenodd" d="M25.4406 31.1973C25.8142 31.5765 25.8142 32.1913 25.4406 32.5705L20.7056 37.3765L25.4406 42.1826C25.8142 42.5618 25.8142 43.1765 25.4406 43.5557C25.067 43.9349 24.4613 43.9349 24.0877 43.5557L18.6764 38.0631C18.3028 37.6839 18.3028 37.0691 18.6764 36.6899L24.0877 31.1973C24.4613 30.8181 25.067 30.8181 25.4406 31.1973Z" fill="#FFB800"/>
<path fill-rule="evenodd" clip-rule="evenodd" d="M38.5594 31.1973C38.1858 31.5765 38.1858 32.1913 38.5594 32.5705L43.2944 37.3765L38.5594 42.1826C38.1858 42.5618 38.1858 43.1765 38.5594 43.5557C38.933 43.9349 39.5387 43.9349 39.9123 43.5557L45.3236 38.0631C45.6972 37.6839 45.6972 37.0691 45.3236 36.6899L39.9123 31.1973C39.5387 30.8181 38.933 30.8181 38.5594 31.1973Z" fill="#FFB800"/>
<path fill-rule="evenodd" clip-rule="evenodd" d="M35.0777 28.332C35.5741 28.5154 35.8301 29.0726 35.6494 29.5765L30.0874 45.0875C29.9067 45.5914 29.3577 45.8512 28.8613 45.6678C28.3648 45.4844 28.1089 44.9272 28.2896 44.4233L33.8516 28.9123C34.0323 28.4084 34.5812 28.1486 35.0777 28.332Z" fill="#FFB800"/>
<rect x="7" y="9" width="50" height="46" rx="6" stroke="#1E1F24" stroke-width="2"/>
<path d="M8 15C8 12.2386 10.2386 10 13 10H51C53.7614 10 56 12.2386 56 15V20H8V15Z" fill="#D8D9E0"/>
<circle cx="14" cy="15" r="2" fill="#FFB800"/>
<circle cx="20" cy="15" r="2" fill="white"/>
<circle cx="26" cy="15" r="2" fill="white"/>
<defs>
<linearGradient id="paint0_linear_115_9832" x1="32" y1="24" x2="32" y2="50" gradientUnits="userSpaceOnUse">
<stop stop-color="#FFB800"/>
<stop offset="1" stop-color="#FFB800" stop-opacity="0"/>
</linearGradient>
</defs>
</svg>
