<svg width="64" height="64" viewBox="0 0 64 64" fill="none" xmlns="http://www.w3.org/2000/svg">
<path d="M46.96 28.7C49.4242 28.7 50.6563 28.7 51.5976 28.2204C52.4255 27.7985 53.0986 27.1254 53.5204 26.2975C54 25.3563 54 24.1242 54 21.66V18.14C54 15.6757 54 14.4436 53.5204 13.5024C53.0986 12.6745 52.4255 12.0014 51.5976 11.5795C50.6563 11.1 49.4242 11.1 46.96 11.1H17.04C14.5758 11.1 13.3437 11.1 12.4024 11.5795C11.5745 12.0014 10.9014 12.6745 10.4796 13.5024C10 14.4436 10 15.6757 10 18.14V21.66C10 24.1242 10 25.3563 10.4796 26.2975C10.9014 27.1254 11.5745 27.7985 12.4024 28.2204C13.3437 28.7 14.5758 28.7 17.04 28.7H39.7" stroke="#D8D9E0" stroke-width="2" stroke-linecap="round" stroke-linejoin="round"/>
<circle cx="2.2" cy="2.2" r="2.2" transform="matrix(1 0 0 -1 16.6 22.1001)" fill="#D8D9E0"/>
<g clip-path="url(#clip0_115_10469)">
<path fill-rule="evenodd" clip-rule="evenodd" d="M31.4096 15.4973C31.139 15.772 31.139 16.2173 31.4096 16.4919L34.8392 19.9731L31.4096 23.4542C31.139 23.7289 31.139 24.1742 31.4096 24.4488C31.6802 24.7235 32.1189 24.7235 32.3895 24.4488L36.3091 20.4704C36.5797 20.1957 36.5797 19.7504 36.3091 19.4758L32.3895 15.4973C32.1189 15.2227 31.6802 15.2227 31.4096 15.4973Z" fill="#D8D9E0"/>
<path fill-rule="evenodd" clip-rule="evenodd" d="M36.9933 23.6941C36.997 23.3108 37.3143 23 37.7021 23H43.1187C43.5064 23 43.8178 23.3108 43.8141 23.6941C43.8104 24.0774 43.4931 24.3882 43.1054 24.3882H37.6888C37.301 24.3882 36.9897 24.0774 36.9933 23.6941Z" fill="#D8D9E0"/>
</g>
<rect width="44" height="17.6" rx="2" transform="matrix(1 0 0 -1 10 53.3)" fill="url(#paint0_linear_115_10469)" fill-opacity="0.4"/>
<path d="M32.99 46.76H30.37L29.95 48H28.16L30.7 40.98H32.68L35.22 48H33.41L32.99 46.76ZM32.55 45.44L31.68 42.87L30.82 45.44H32.55ZM41.743 43.24C41.743 43.6467 41.6497 44.02 41.463 44.36C41.2764 44.6933 40.9897 44.9633 40.603 45.17C40.2164 45.3767 39.7364 45.48 39.163 45.48H38.103V48H36.393V40.98H39.163C39.723 40.98 40.1964 41.0767 40.583 41.27C40.9697 41.4633 41.2597 41.73 41.453 42.07C41.6464 42.41 41.743 42.8 41.743 43.24ZM39.033 44.12C39.3597 44.12 39.603 44.0433 39.763 43.89C39.923 43.7367 40.003 43.52 40.003 43.24C40.003 42.96 39.923 42.7433 39.763 42.59C39.603 42.4367 39.3597 42.36 39.033 42.36H38.103V44.12H39.033ZM44.7433 40.98V48H43.0333V40.98H44.7433Z" fill="#FA8525"/>
<path d="M46.96 35.7C49.4242 35.7 50.6563 35.7 51.5976 36.1796C52.4255 36.6015 53.0986 37.2746 53.5204 38.1025C54 39.0437 54 40.2758 54 42.74V46.26C54 48.7243 54 49.9564 53.5204 50.8976C53.0986 51.7255 52.4255 52.3986 51.5976 52.8205C50.6563 53.3 49.4242 53.3 46.96 53.3H17.04C14.5758 53.3 13.3437 53.3 12.4024 52.8205C11.5745 52.3986 10.9014 51.7255 10.4796 50.8976C10 49.9564 10 48.7243 10 46.26V42.74C10 40.2758 10 39.0437 10.4796 38.1025C10.9014 37.2746 11.5745 36.6015 12.4024 36.1796C13.3437 35.7 14.5758 35.7 17.04 35.7H39.7" stroke="#1E1F24" stroke-width="2" stroke-linecap="round" stroke-linejoin="round"/>
<circle cx="2.2" cy="2.2" r="2.2" transform="matrix(1 0 0 -1 16.6 46.7002)" fill="#FA8525" fill-opacity="0.8"/>
<defs>
<linearGradient id="paint0_linear_115_10469" x1="44" y1="9.21905" x2="-2.84282e-08" y2="9.21905" gradientUnits="userSpaceOnUse">
<stop stop-color="#FA8525" stop-opacity="0"/>
<stop offset="1" stop-color="#FA8525"/>
</linearGradient>
<clipPath id="clip0_115_10469">
<rect width="13" height="10" fill="white" transform="translate(31 15)"/>
</clipPath>
</defs>
</svg>
