<svg width="64" height="64" viewBox="0 0 64 64" fill="none" xmlns="http://www.w3.org/2000/svg">
<path d="M41.48 44.4272C41.0239 44.881 40.5455 45.357 40.1572 45.7464C39.8075 46.0973 39.5607 46.5301 39.4356 46.9991C39.259 47.661 39.1163 48.33 38.8777 48.9721L36.8438 54.4515C35.2345 54.8024 33.5691 55 31.8557 55V51.7978C32.0533 50.3218 30.9621 47.5569 29.2089 45.8038C28.5072 45.102 28.1131 44.15 28.1131 43.157V39.4133C28.1131 38.0519 27.3797 36.8005 26.188 36.142C24.5073 35.2122 22.1167 33.9128 20.4793 33.0883C19.1367 32.4123 17.8946 31.5515 16.7777 30.5445L16.6841 30.4603C15.8854 29.7393 15.1762 28.9249 14.5719 28.0346C13.4748 26.4241 11.6877 23.7751 10.5264 22.0535C12.9205 16.732 17.235 12.4584 22.5962 10.1368L25.4044 11.5415C26.6488 12.1637 28.1131 11.2596 28.1131 9.86782V8.54622C29.0475 8.39534 29.9984 8.29944 30.9656 8.26318L34.2755 11.573C35.0065 12.304 35.0065 13.4888 34.2755 14.2198L33.727 14.7671L32.5176 15.9764C32.1527 16.3413 32.1527 16.9343 32.5176 17.2992L33.0662 17.8477C33.4311 18.2126 33.4311 18.8056 33.0662 19.1705L32.1305 20.1062C31.9548 20.2815 31.7167 20.3799 31.4685 20.3798H30.4171C30.1738 20.3798 29.9399 20.4746 29.7645 20.6453L28.6043 21.774C28.4621 21.9124 28.3675 22.0925 28.3343 22.2882C28.3011 22.484 28.3309 22.6852 28.4195 22.8628L30.2428 26.5107C30.5539 27.1329 30.1013 27.865 29.4066 27.865H28.747C28.5212 27.865 28.3037 27.7832 28.1341 27.6358L27.0488 26.6931C26.8032 26.4801 26.5063 26.3346 26.1874 26.271C25.8686 26.2074 25.5386 26.228 25.2301 26.3306L21.5846 27.5457C21.3062 27.6385 21.0642 27.8166 20.8927 28.0546C20.7212 28.2927 20.629 28.5786 20.629 28.872C20.629 29.4018 20.9284 29.8849 21.4021 30.1223L22.698 30.7702C23.7986 31.3211 25.0126 31.6076 26.2429 31.6076C27.4733 31.6076 28.885 34.7994 29.9855 35.3502H37.7924C38.7853 35.3502 39.7362 35.7444 40.4391 36.4461L42.0402 38.0472C42.7091 38.7164 43.0848 39.6238 43.0846 40.57C43.0844 41.2869 42.9425 41.9967 42.6671 42.6587C42.3918 43.3206 41.9883 43.9216 41.48 44.4272Z" fill="url(#paint0_linear_449_17906)" fill-opacity="0.5"/>
<path d="M38.0459 8.77401C32.9398 7.44483 27.5379 7.83537 22.676 9.88523C17.8141 11.9351 13.7633 15.53 11.1501 20.1138C8.53696 24.6976 7.50718 30.0147 8.22007 35.2427C8.93297 40.4706 11.3488 45.318 15.0939 49.0347C18.8389 52.7515 23.7044 55.1306 28.9376 55.8038C34.1708 56.4771 39.48 55.407 44.0439 52.7592C48.6077 50.1114 52.1718 46.0334 54.1848 41.1562C56.1977 36.2789 56.5473 30.8742 55.1795 25.7783" stroke="#1E1F24" stroke-width="2" stroke-linecap="round"/>
<path d="M48 27C52 23 56 19.4183 56 15C56 10.5817 52.4183 7 48 7C43.5817 7 40 10.5817 40 15C40 19.4183 44 23 48 27Z" stroke="#1E1F24" stroke-width="2" stroke-linecap="round" stroke-linejoin="round"/>
<path d="M20 46C21.5 44.4 23 42.9673 23 41.2C23 39.4327 21.6569 38 20 38C18.3431 38 17 39.4327 17 41.2C17 42.9673 18.5 44.4 20 46Z" fill="#D8D9E0" stroke="#D8D9E0" stroke-linecap="round" stroke-linejoin="round"/>
<path d="M48 18C49.6569 18 51 16.6569 51 15C51 13.3431 49.6569 12 48 12C46.3431 12 45 13.3431 45 15C45 16.6569 46.3431 18 48 18Z" fill="#646AEE"/>
<defs>
<linearGradient id="paint0_linear_449_17906" x1="26.8055" y1="31.6316" x2="26.8055" y2="55" gradientUnits="userSpaceOnUse">
<stop stop-color="#646AEE"/>
<stop offset="1" stop-color="#646AEE" stop-opacity="0"/>
</linearGradient>
</defs>
</svg>
