<svg width="64" height="64" viewBox="0 0 64 64" fill="none" xmlns="http://www.w3.org/2000/svg">
<rect x="7" y="20" width="40" height="17" fill="url(#paint0_linear_507_9936)" fill-opacity="0.4"/>
<rect x="12" y="26" width="29" height="3" fill="#54D38F"/>
<rect x="12" y="34" width="18" height="3" fill="#54D38F"/>
<path d="M37 45H26H21.9478C21.3479 45 20.7797 45.2693 20.3998 45.7335L13.774 53.8318C13.1788 54.5592 12 54.1384 12 53.1986V45.5C12 45.2239 11.7761 45 11.5 45H8C6.89543 45 6 44.1046 6 43V21C6 19.8954 6.89543 19 8 19H46C47.1046 19 48 19.8954 48 21V34.5" stroke="#1E1F24" stroke-width="2"/>
<path d="M11 17.25V16C11 14.8954 11.8954 14 13 14H51C52.1046 14 53 14.8954 53 16V36" stroke="#D8D9E0" stroke-width="2"/>
<path d="M17 12.125V11C17 9.89543 17.8954 9 19 9H56C57.1046 9 58 9.89543 58 11V32C58 33.1046 57.1046 34 56 34H55.3155" stroke="#D8D9E0" stroke-width="2"/>
<path d="M46.5286 34.5821C47.4739 34.2081 48.5261 34.2081 49.4714 34.5821L51.9149 35.5487L54.3261 36.593C55.259 36.997 56.003 37.741 56.407 38.6739L57.4513 41.0851L58.4179 43.5286C58.7919 44.4739 58.7919 45.5261 58.4179 46.4714L57.4513 48.9149L56.407 51.3261C56.003 52.259 55.259 53.003 54.3261 53.407L51.9149 54.4513L49.4714 55.4179C48.5261 55.7919 47.4739 55.7919 46.5286 55.4179L44.0851 54.4513L41.6739 53.407C40.741 53.003 39.997 52.259 39.593 51.3261L38.5487 48.9149L37.5821 46.4714C37.2081 45.5261 37.2081 44.4739 37.5821 43.5286L38.5487 41.0851L39.593 38.6739C39.997 37.741 40.741 36.997 41.6739 36.593L44.0851 35.5487L46.5286 34.5821Z" stroke="black" stroke-width="2"/>
<path d="M52.1523 48.2308C52.5195 48.2308 52.8717 48.3766 53.1313 48.6363C53.391 48.896 53.5369 49.2482 53.5369 49.6154C53.5369 49.9826 53.391 50.3348 53.1313 50.5945C52.8717 50.8541 52.5195 51 52.1523 51C51.785 51 51.4329 50.8541 51.1732 50.5945C50.9135 50.3348 50.7677 49.9826 50.7677 49.6154C50.7677 49.2482 50.9135 48.896 51.1732 48.6363C51.4329 48.3766 51.785 48.2308 52.1523 48.2308ZM45.6907 48.2308C46.058 48.2308 46.4101 48.3766 46.6698 48.6363C46.9295 48.896 47.0753 49.2482 47.0753 49.6154C47.0753 49.9826 46.9295 50.3348 46.6698 50.5945C46.4101 50.8541 46.058 51 45.6907 51C45.3235 51 44.9713 50.8541 44.7117 50.5945C44.452 50.3348 44.3061 49.9826 44.3061 49.6154C44.3061 49.2482 44.452 48.896 44.7117 48.6363C44.9713 48.3766 45.3235 48.2308 45.6907 48.2308ZM49.383 44.5385C49.7503 44.5385 50.1024 44.6843 50.3621 44.944C50.6218 45.2037 50.7677 45.5559 50.7677 45.9231C50.7677 46.2903 50.6218 46.6425 50.3621 46.9021C50.1024 47.1618 49.7503 47.3077 49.383 47.3077C49.0158 47.3077 48.6636 47.1618 48.404 46.9021C48.1443 46.6425 47.9984 46.2903 47.9984 45.9231C47.9984 45.5559 48.1443 45.2037 48.404 44.944C48.6636 44.6843 49.0158 44.5385 49.383 44.5385ZM43.8446 41.7692C44.2118 41.7692 44.564 41.9151 44.8236 42.1748C45.0833 42.4344 45.2292 42.7866 45.2292 43.1538C45.2292 43.5211 45.0833 43.8733 44.8236 44.1329C44.564 44.3926 44.2118 44.5385 43.8446 44.5385C43.4774 44.5385 43.1252 44.3926 42.8655 44.1329C42.6058 43.8733 42.46 43.5211 42.46 43.1538C42.46 42.7866 42.6058 42.4344 42.8655 42.1748C43.1252 41.9151 43.4774 41.7692 43.8446 41.7692ZM50.3061 39C50.6733 39 51.0255 39.1459 51.2852 39.4055C51.5449 39.6652 51.6907 40.0174 51.6907 40.3846C51.6907 40.7518 51.5449 41.104 51.2852 41.3637C51.0255 41.6234 50.6733 41.7692 50.3061 41.7692C49.9389 41.7692 49.5867 41.6234 49.327 41.3637C49.0674 41.104 48.9215 40.7518 48.9215 40.3846C48.9215 40.0174 49.0674 39.6652 49.327 39.4055C49.5867 39.1459 49.9389 39 50.3061 39Z" fill="#54D38F"/>
<defs>
<linearGradient id="paint0_linear_507_9936" x1="27.4878" y1="37" x2="27.4878" y2="20" gradientUnits="userSpaceOnUse">
<stop stop-color="#54D38F" stop-opacity="0"/>
<stop offset="1" stop-color="#54D38F"/>
</linearGradient>
</defs>
</svg>
