<svg width="64" height="64" viewBox="0 0 64 64" fill="none" xmlns="http://www.w3.org/2000/svg">
<path d="M12.1364 16.1819C12.1364 14.525 13.4795 13.1819 15.1364 13.1819H32V32.0001H12.1364V16.1819Z" stroke="#D8D9E0" stroke-width="2"/>
<path d="M32 32H51.8636V47.8182C51.8636 49.475 50.5205 50.8182 48.8636 50.8182H32V32Z" stroke="#D8D9E0" stroke-width="2"/>
<path d="M32 12C32 10.3431 33.3431 9 35 9H53.0455C54.7023 9 56.0455 10.3431 56.0455 12V29C56.0455 30.6569 54.7023 32 53.0455 32H32V12Z" stroke="#1E1F24" stroke-width="2"/>
<path d="M7.95453 34C7.95453 32.8954 8.84996 32 9.95453 32H30C31.1046 32 32 32.8954 32 34V53C32 54.1046 31.1046 55 30 55H9.95453C8.84996 55 7.95453 54.1046 7.95453 53V34Z" fill="url(#paint0_linear_110_5004)" fill-opacity="0.4"/>
<path d="M7.95453 35C7.95453 33.3431 9.29767 32 10.9545 32H32V52C32 53.6569 30.6568 55 29 55H10.9545C9.29767 55 7.95453 53.6569 7.95453 52V35Z" stroke="#1E1F24" stroke-width="2"/>
<circle cx="36.1818" cy="13.1819" r="1.04545" fill="#1E1F24"/>
<circle cx="39.3182" cy="13.1819" r="1.04545" fill="#1E1F24"/>
<circle cx="42.4545" cy="13.1819" r="1.04545" fill="#1E1F24"/>
<circle cx="12.1363" cy="36.1819" r="1.04545" fill="#1E1F24"/>
<circle cx="36.1818" cy="36.1819" r="1.04545" fill="#D8D9E0"/>
<circle cx="39.3182" cy="36.1819" r="1.04545" fill="#D8D9E0"/>
<circle cx="42.4545" cy="36.1819" r="1.04545" fill="#D8D9E0"/>
<circle cx="15.2727" cy="36.1819" r="1.04545" fill="#1E1F24"/>
<circle cx="18.4091" cy="36.1819" r="1.04545" fill="#1E1F24"/>
<circle cx="16.3182" cy="17.3636" r="1.04545" fill="#D8D9E0"/>
<circle cx="19.4545" cy="17.3636" r="1.04545" fill="#D8D9E0"/>
<circle cx="22.5909" cy="17.3636" r="1.04545" fill="#D8D9E0"/>
<path d="M31.5 23.9251C31.8094 23.7465 32.1906 23.7465 32.5 23.9251L38.7431 27.5296C39.0525 27.7083 39.2431 28.0384 39.2431 28.3956V35.6046C39.2431 35.9618 39.0525 36.292 38.7431 36.4706L32.5 40.0751C32.1906 40.2537 31.8094 40.2537 31.5 40.0751L25.2569 36.4706C24.9475 36.292 24.7569 35.9618 24.7569 35.6046V28.3956C24.7569 28.0384 24.9475 27.7083 25.2569 27.5296L31.5 23.9251Z" fill="white" stroke="black" stroke-width="2"/>
<circle cx="32" cy="32.0001" r="2.61364" fill="#646AEE" fill-opacity="0.8"/>
<defs>
<linearGradient id="paint0_linear_110_5004" x1="11.0909" y1="55" x2="11.0909" y2="34.0909" gradientUnits="userSpaceOnUse">
<stop stop-color="#646AEE" stop-opacity="0"/>
<stop offset="1" stop-color="#646AEE"/>
</linearGradient>
</defs>
</svg>
