<svg width="17" height="16" viewBox="0 0 17 16" fill="none" xmlns="http://www.w3.org/2000/svg">
<path d="M15.0001 14V12.6667C15.0001 11.4241 14.1502 10.38 13.0001 10.084M10.6667 2.19384C11.644 2.58943 12.3334 3.54754 12.3334 4.66667C12.3334 5.78579 11.644 6.7439 10.6667 7.13949M11.6667 14C11.6667 12.7575 11.6667 12.1362 11.4638 11.6462C11.1931 10.9928 10.674 10.4736 10.0206 10.203C9.53051 10 8.90926 10 7.66675 10H5.66675C4.42424 10 3.80298 10 3.31293 10.203C2.65952 10.4736 2.14039 10.9928 1.86974 11.6462C1.66675 12.1362 1.66675 12.7575 1.66675 14M9.33341 4.66667C9.33341 6.13943 8.13951 7.33333 6.66675 7.33333C5.19399 7.33333 4.00008 6.13943 4.00008 4.66667C4.00008 3.19391 5.19399 2 6.66675 2C8.13951 2 9.33341 3.19391 9.33341 4.66667Z" stroke="#8B8D98" stroke-width="1.33333" stroke-linecap="round" stroke-linejoin="round"/>
</svg>
