<svg width="17" height="16" viewBox="0 0 17 16" fill="none" xmlns="http://www.w3.org/2000/svg">
<path fill-rule="evenodd" clip-rule="evenodd" d="M8.3337 1.99996C5.01999 1.99996 2.3337 4.68625 2.3337 7.99996C2.3337 11.3137 5.01999 14 8.3337 14C11.6474 14 14.3337 11.3137 14.3337 7.99996C14.3337 4.68625 11.6474 1.99996 8.3337 1.99996ZM1.00037 7.99996C1.00037 3.94987 4.28361 0.666626 8.3337 0.666626C12.3838 0.666626 15.667 3.94987 15.667 7.99996C15.667 12.05 12.3838 15.3333 8.3337 15.3333C4.28361 15.3333 1.00037 12.05 1.00037 7.99996ZM8.3337 2.99996C8.70189 2.99996 9.00037 3.29844 9.00037 3.66663V3.99996H9.11148C10.3388 3.99996 11.3337 4.99488 11.3337 6.22218C11.3337 6.59037 11.0352 6.88885 10.667 6.88885C10.2988 6.88885 10.0004 6.59037 10.0004 6.22218C10.0004 5.73126 9.6024 5.33329 9.11148 5.33329H7.66703C7.11475 5.33329 6.66703 5.78101 6.66703 6.33329C6.66703 6.88558 7.11475 7.33329 7.66703 7.33329H9.00037C10.289 7.33329 11.3337 8.37796 11.3337 9.66663C11.3337 10.9553 10.289 12 9.00037 12V12.3333C9.00037 12.7015 8.70189 13 8.3337 13C7.96551 13 7.66703 12.7015 7.66703 12.3333V12H7.55592C6.32862 12 5.3337 11.005 5.3337 9.77774C5.3337 9.40955 5.63218 9.11107 6.00037 9.11107C6.36856 9.11107 6.66703 9.40955 6.66703 9.77774C6.66703 10.2687 7.065 10.6666 7.55592 10.6666H9.00037C9.55265 10.6666 10.0004 10.2189 10.0004 9.66663C10.0004 9.11434 9.55265 8.66663 9.00037 8.66663H7.66703C6.37837 8.66663 5.3337 7.62196 5.3337 6.33329C5.3337 5.04463 6.37837 3.99996 7.66703 3.99996V3.66663C7.66703 3.29844 7.96551 2.99996 8.3337 2.99996Z" fill="#8B8D98"/>
</svg>
