<svg xmlns="http://www.w3.org/2000/svg" width="24" height="24" viewBox="0 0 24 24" fill="none">
  <path fill-rule="evenodd" clip-rule="evenodd" d="M12.0005 3C7.02999 3 3.00055 7.02944 3.00055 12C3.00055 16.9706 7.02999 21 12.0005 21C16.9711 21 21.0005 16.9706 21.0005 12C21.0005 7.02944 16.9711 3 12.0005 3ZM1.00055 12C1.00055 5.92487 5.92542 1 12.0005 1C18.0757 1 23.0005 5.92487 23.0005 12C23.0005 18.0751 18.0757 23 12.0005 23C5.92542 23 1.00055 18.0751 1.00055 12ZM12.0005 4.5C12.5528 4.5 13.0005 4.94772 13.0005 5.5V6H13.1672C15.0082 6 16.5005 7.49238 16.5005 9.33333C16.5005 9.88562 16.0528 10.3333 15.5005 10.3333C14.9483 10.3333 14.5005 9.88562 14.5005 9.33333C14.5005 8.59695 13.9036 8 13.1672 8H11.0005C10.1721 8 9.50055 8.67157 9.50055 9.5C9.50055 10.3284 10.1721 11 11.0005 11H13.0005C14.9335 11 16.5005 12.567 16.5005 14.5C16.5005 16.433 14.9335 18 13.0005 18V18.5C13.0005 19.0523 12.5528 19.5 12.0005 19.5C11.4483 19.5 11.0005 19.0523 11.0005 18.5V18H10.8339C8.99293 18 7.50055 16.5076 7.50055 14.6667C7.50055 14.1144 7.94826 13.6667 8.50055 13.6667C9.05283 13.6667 9.50055 14.1144 9.50055 14.6667C9.50055 15.403 10.0975 16 10.8339 16H13.0005C13.829 16 14.5005 15.3284 14.5005 14.5C14.5005 13.6716 13.829 13 13.0005 13H11.0005C9.06755 13 7.50055 11.433 7.50055 9.5C7.50055 7.567 9.06755 6 11.0005 6V5.5C11.0005 4.94772 11.4483 4.5 12.0005 4.5Z" fill="#8B8D98"/>
</svg>