<svg width="17" height="16" viewBox="0 0 17 16" fill="none" xmlns="http://www.w3.org/2000/svg">
<path d="M15.3333 8.00004H12.6667M4.66667 8.00004H2M8.66667 4.00004V1.33337M8.66667 14.6667V12M14 8.00004C14 10.9456 11.6122 13.3334 8.66667 13.3334C5.72115 13.3334 3.33333 10.9456 3.33333 8.00004C3.33333 5.05452 5.72115 2.66671 8.66667 2.66671C11.6122 2.66671 14 5.05452 14 8.00004ZM10.6667 8.00004C10.6667 9.10461 9.77124 10 8.66667 10C7.5621 10 6.66667 9.10461 6.66667 8.00004C6.66667 6.89547 7.5621 6.00004 8.66667 6.00004C9.77124 6.00004 10.6667 6.89547 10.6667 8.00004Z" stroke="#8B8D98" stroke-width="1.33333" stroke-linecap="round" stroke-linejoin="round"/>
</svg>
