<svg width="17" height="16" viewBox="0 0 17 16" fill="none" xmlns="http://www.w3.org/2000/svg">
<path d="M5.33329 7.33333V5.33333C5.33329 3.49238 6.82568 2 8.66663 2C10.2793 2 11.6244 3.14517 11.9333 4.66667M5.86663 14H11.4666C12.5867 14 13.1468 14 13.5746 13.782C13.9509 13.5903 14.2569 13.2843 14.4486 12.908C14.6666 12.4802 14.6666 11.9201 14.6666 10.8V10.5333C14.6666 9.41323 14.6666 8.85318 14.4486 8.42535C14.2569 8.04903 13.9509 7.74307 13.5746 7.55132C13.1468 7.33333 12.5867 7.33333 11.4666 7.33333H5.86663C4.74652 7.33333 4.18647 7.33333 3.75865 7.55132C3.38232 7.74307 3.07636 8.04903 2.88461 8.42535C2.66663 8.85318 2.66663 9.41323 2.66663 10.5333V10.8C2.66663 11.9201 2.66663 12.4802 2.88461 12.908C3.07636 13.2843 3.38232 13.5903 3.75865 13.782C4.18647 14 4.74652 14 5.86663 14Z" stroke="#8B8D98" stroke-width="1.33333" stroke-linecap="round" stroke-linejoin="round"/>
</svg>
