<svg width="16" height="16" viewBox="0 0 16 16" fill="none" xmlns="http://www.w3.org/2000/svg">
<g clip-path="url(#clip0_1367_3462)">
<mask id="path-1-outside-1_1367_3462" maskUnits="userSpaceOnUse" x="-0.00012207" y="0" width="16" height="16" fill="black">
<rect fill="white" x="-0.00012207" width="16" height="16"/>
<path fill-rule="evenodd" clip-rule="evenodd" d="M10.5017 2.57111C9.71802 2.21345 8.86644 2.02691 8.00341 2.0253C6.42284 2.02531 4.907 2.65626 3.78937 3.77936C2.67174 4.90246 2.04385 6.4257 2.04385 8.014C2.04011 8.62398 2.13401 9.2306 2.32196 9.81062C2.34153 9.87616 2.34806 9.94492 2.34117 10.013C2.33429 10.0811 2.31413 10.1471 2.28185 10.2074C2.24957 10.2676 2.2058 10.3209 2.15303 10.3641C2.10026 10.4074 2.03954 10.4397 1.97432 10.4594C1.9091 10.4791 1.84067 10.4856 1.77292 10.4787C1.70518 10.4718 1.63946 10.4515 1.57951 10.4191C1.51956 10.3867 1.46655 10.3427 1.42351 10.2896C1.38048 10.2366 1.34826 10.1756 1.32869 10.1101C0.908204 8.78535 0.890615 7.36469 1.27818 6.02988C1.66574 4.69507 2.44083 3.50682 3.50426 2.6172C4.56768 1.72757 5.87108 1.17703 7.24764 1.03602C8.52358 0.905326 9.80859 1.13199 10.9613 1.68799C11.1635 1.49889 11.4143 1.36971 11.6858 1.31543C11.9748 1.25766 12.2744 1.28731 12.5466 1.40063C12.8189 1.51395 13.0516 1.70585 13.2153 1.95206C13.379 2.19827 13.4664 2.48773 13.4664 2.78385C13.4664 2.98046 13.4279 3.17515 13.353 3.3568C13.2781 3.53844 13.1684 3.70349 13.03 3.84252C12.8917 3.98154 12.7274 4.09183 12.5466 4.16707C12.3659 4.24231 12.1721 4.28103 11.9765 4.28103C11.6818 4.28103 11.3938 4.19322 11.1487 4.02871C10.9037 3.8642 10.7128 3.63037 10.6 3.3568C10.4975 3.10806 10.4638 2.83663 10.5017 2.57111ZM12.3277 3.13674C12.2345 3.23033 12.1082 3.28291 11.9765 3.28291C11.8448 3.28291 11.7185 3.23033 11.6253 3.13674C11.5322 3.04315 11.4799 2.91621 11.4799 2.78385C11.4799 2.65149 11.5322 2.52455 11.6253 2.43096C11.7185 2.33737 11.8448 2.28479 11.9765 2.28479C12.1082 2.28479 12.2345 2.33737 12.3277 2.43096C12.4208 2.52455 12.4731 2.65149 12.4731 2.78385C12.4731 2.91621 12.4208 3.04315 12.3277 3.13674Z"/>
<path fill-rule="evenodd" clip-rule="evenodd" d="M8.00343 14.0027C7.22356 14.0013 6.45129 13.8488 5.72885 13.5536C5.76871 13.4243 5.7888 13.2897 5.78845 13.1543C5.78845 12.8582 5.70107 12.5687 5.53735 12.3225C5.37364 12.0763 5.14095 11.8844 4.86871 11.7711C4.59647 11.6578 4.2969 11.6281 4.00788 11.6859C3.71887 11.7437 3.4534 11.8863 3.24503 12.0956C3.03666 12.305 2.89476 12.5718 2.83728 12.8622C2.77979 13.1527 2.80929 13.4537 2.92206 13.7273C3.03483 14.0008 3.22579 14.2347 3.4708 14.3992C3.71582 14.5637 4.00387 14.6515 4.29855 14.6515C4.60085 14.651 4.89567 14.5569 5.14283 14.382C6.04091 14.7928 7.01668 15.0039 8.00343 15.0008C9.09351 15.0077 10.1699 14.7569 11.1458 14.2687C12.1216 13.7805 12.9696 13.0686 13.6211 12.1904C14.2727 11.3122 14.7097 10.2923 14.8967 9.21313C15.0838 8.13395 15.0157 7.0257 14.698 5.97783C14.6598 5.84547 14.5709 5.73378 14.4507 5.66733C14.3306 5.60088 14.1891 5.58511 14.0574 5.62349C13.9257 5.66188 13.8145 5.75127 13.7484 5.872C13.6823 5.99274 13.6666 6.13492 13.7048 6.26728C13.8751 6.83375 13.9621 7.42222 13.963 8.014C13.963 9.6023 13.3351 11.1256 12.2175 12.2487C11.0999 13.3718 9.58401 14.0027 8.00343 14.0027ZM4.64689 13.5044C4.5543 13.5974 4.42945 13.6508 4.29853 13.6534C4.16682 13.6534 4.0405 13.6008 3.94736 13.5072C3.85423 13.4136 3.8019 13.2867 3.8019 13.1543C3.8019 13.0888 3.81475 13.0239 3.83971 12.9633C3.86466 12.9028 3.90125 12.8478 3.94736 12.8014C3.99348 12.7551 4.04823 12.7183 4.10848 12.6933C4.16874 12.6682 4.23332 12.6553 4.29853 12.6553C4.36375 12.6553 4.42833 12.6682 4.48859 12.6933C4.54884 12.7183 4.60359 12.7551 4.64971 12.8014C4.69582 12.8478 4.73241 12.9028 4.75736 12.9633C4.78232 13.0239 4.79517 13.0888 4.79517 13.1543C4.79263 13.2859 4.73949 13.4113 4.64689 13.5044Z"/>
<path d="M7.31505 10.7339C7.19479 10.9432 7.00916 11.1068 6.78695 11.1993C6.56474 11.2918 6.31837 11.308 6.08605 11.2455C5.85373 11.1829 5.64844 11.0451 5.50202 10.8533C5.35561 10.6616 5.27624 10.4266 5.27624 10.1849C5.27624 9.94324 5.35561 9.7083 5.50202 9.51655C5.64844 9.3248 5.85373 9.18696 6.08605 9.12441C6.31837 9.06185 6.56474 9.07808 6.78695 9.17057C7.00916 9.26306 7.19479 9.42665 7.31505 9.63596H10.1886C10.3335 9.63596 10.4724 9.57813 10.5749 9.47517C10.6773 9.37222 10.7349 9.23259 10.7349 9.08699C10.7349 8.9414 10.6773 8.80177 10.5749 8.69882C10.4724 8.59586 10.3335 8.53803 10.1886 8.53803H5.81821C5.38355 8.53803 4.96669 8.36452 4.65934 8.05566C4.35199 7.74681 4.17932 7.32791 4.17932 6.89112C4.17932 6.45434 4.35199 6.03544 4.65934 5.72659C4.96669 5.41773 5.38355 5.24422 5.81821 5.24422H10.1886C10.3335 5.24422 10.4724 5.30206 10.5749 5.40501C10.6773 5.50796 10.7349 5.64759 10.7349 5.79319C10.7349 5.93878 10.6773 6.07842 10.5749 6.18137C10.4724 6.28432 10.3335 6.34216 10.1886 6.34216H5.81821C5.67332 6.34216 5.53437 6.39999 5.43192 6.50295C5.32947 6.6059 5.27191 6.74553 5.27191 6.89112C5.27191 7.03672 5.32947 7.17635 5.43192 7.2793C5.53437 7.38225 5.67332 7.44009 5.81821 7.44009H10.1886C10.6232 7.44009 11.0401 7.6136 11.3475 7.92246C11.6548 8.23131 11.8275 8.65021 11.8275 9.08699C11.8275 9.52378 11.6548 9.94268 11.3475 10.2515C11.0401 10.5604 10.6232 10.7339 10.1886 10.7339H7.31505Z"/>
</mask>
<path fill-rule="evenodd" clip-rule="evenodd" d="M10.5017 2.57111C9.71802 2.21345 8.86644 2.02691 8.00341 2.0253C6.42284 2.02531 4.907 2.65626 3.78937 3.77936C2.67174 4.90246 2.04385 6.4257 2.04385 8.014C2.04011 8.62398 2.13401 9.2306 2.32196 9.81062C2.34153 9.87616 2.34806 9.94492 2.34117 10.013C2.33429 10.0811 2.31413 10.1471 2.28185 10.2074C2.24957 10.2676 2.2058 10.3209 2.15303 10.3641C2.10026 10.4074 2.03954 10.4397 1.97432 10.4594C1.9091 10.4791 1.84067 10.4856 1.77292 10.4787C1.70518 10.4718 1.63946 10.4515 1.57951 10.4191C1.51956 10.3867 1.46655 10.3427 1.42351 10.2896C1.38048 10.2366 1.34826 10.1756 1.32869 10.1101C0.908204 8.78535 0.890615 7.36469 1.27818 6.02988C1.66574 4.69507 2.44083 3.50682 3.50426 2.6172C4.56768 1.72757 5.87108 1.17703 7.24764 1.03602C8.52358 0.905326 9.80859 1.13199 10.9613 1.68799C11.1635 1.49889 11.4143 1.36971 11.6858 1.31543C11.9748 1.25766 12.2744 1.28731 12.5466 1.40063C12.8189 1.51395 13.0516 1.70585 13.2153 1.95206C13.379 2.19827 13.4664 2.48773 13.4664 2.78385C13.4664 2.98046 13.4279 3.17515 13.353 3.3568C13.2781 3.53844 13.1684 3.70349 13.03 3.84252C12.8917 3.98154 12.7274 4.09183 12.5466 4.16707C12.3659 4.24231 12.1721 4.28103 11.9765 4.28103C11.6818 4.28103 11.3938 4.19322 11.1487 4.02871C10.9037 3.8642 10.7128 3.63037 10.6 3.3568C10.4975 3.10806 10.4638 2.83663 10.5017 2.57111ZM12.3277 3.13674C12.2345 3.23033 12.1082 3.28291 11.9765 3.28291C11.8448 3.28291 11.7185 3.23033 11.6253 3.13674C11.5322 3.04315 11.4799 2.91621 11.4799 2.78385C11.4799 2.65149 11.5322 2.52455 11.6253 2.43096C11.7185 2.33737 11.8448 2.28479 11.9765 2.28479C12.1082 2.28479 12.2345 2.33737 12.3277 2.43096C12.4208 2.52455 12.4731 2.65149 12.4731 2.78385C12.4731 2.91621 12.4208 3.04315 12.3277 3.13674Z" fill="#8B8D98"/>
<path fill-rule="evenodd" clip-rule="evenodd" d="M8.00343 14.0027C7.22356 14.0013 6.45129 13.8488 5.72885 13.5536C5.76871 13.4243 5.7888 13.2897 5.78845 13.1543C5.78845 12.8582 5.70107 12.5687 5.53735 12.3225C5.37364 12.0763 5.14095 11.8844 4.86871 11.7711C4.59647 11.6578 4.2969 11.6281 4.00788 11.6859C3.71887 11.7437 3.4534 11.8863 3.24503 12.0956C3.03666 12.305 2.89476 12.5718 2.83728 12.8622C2.77979 13.1527 2.80929 13.4537 2.92206 13.7273C3.03483 14.0008 3.22579 14.2347 3.4708 14.3992C3.71582 14.5637 4.00387 14.6515 4.29855 14.6515C4.60085 14.651 4.89567 14.5569 5.14283 14.382C6.04091 14.7928 7.01668 15.0039 8.00343 15.0008C9.09351 15.0077 10.1699 14.7569 11.1458 14.2687C12.1216 13.7805 12.9696 13.0686 13.6211 12.1904C14.2727 11.3122 14.7097 10.2923 14.8967 9.21313C15.0838 8.13395 15.0157 7.0257 14.698 5.97783C14.6598 5.84547 14.5709 5.73378 14.4507 5.66733C14.3306 5.60088 14.1891 5.58511 14.0574 5.62349C13.9257 5.66188 13.8145 5.75127 13.7484 5.872C13.6823 5.99274 13.6666 6.13492 13.7048 6.26728C13.8751 6.83375 13.9621 7.42222 13.963 8.014C13.963 9.6023 13.3351 11.1256 12.2175 12.2487C11.0999 13.3718 9.58401 14.0027 8.00343 14.0027ZM4.64689 13.5044C4.5543 13.5974 4.42945 13.6508 4.29853 13.6534C4.16682 13.6534 4.0405 13.6008 3.94736 13.5072C3.85423 13.4136 3.8019 13.2867 3.8019 13.1543C3.8019 13.0888 3.81475 13.0239 3.83971 12.9633C3.86466 12.9028 3.90125 12.8478 3.94736 12.8014C3.99348 12.7551 4.04823 12.7183 4.10848 12.6933C4.16874 12.6682 4.23332 12.6553 4.29853 12.6553C4.36375 12.6553 4.42833 12.6682 4.48859 12.6933C4.54884 12.7183 4.60359 12.7551 4.64971 12.8014C4.69582 12.8478 4.73241 12.9028 4.75736 12.9633C4.78232 13.0239 4.79517 13.0888 4.79517 13.1543C4.79263 13.2859 4.73949 13.4113 4.64689 13.5044Z" fill="#8B8D98"/>
<path d="M7.31505 10.7339C7.19479 10.9432 7.00916 11.1068 6.78695 11.1993C6.56474 11.2918 6.31837 11.308 6.08605 11.2455C5.85373 11.1829 5.64844 11.0451 5.50202 10.8533C5.35561 10.6616 5.27624 10.4266 5.27624 10.1849C5.27624 9.94324 5.35561 9.7083 5.50202 9.51655C5.64844 9.3248 5.85373 9.18696 6.08605 9.12441C6.31837 9.06185 6.56474 9.07808 6.78695 9.17057C7.00916 9.26306 7.19479 9.42665 7.31505 9.63596H10.1886C10.3335 9.63596 10.4724 9.57813 10.5749 9.47517C10.6773 9.37222 10.7349 9.23259 10.7349 9.08699C10.7349 8.9414 10.6773 8.80177 10.5749 8.69882C10.4724 8.59586 10.3335 8.53803 10.1886 8.53803H5.81821C5.38355 8.53803 4.96669 8.36452 4.65934 8.05566C4.35199 7.74681 4.17932 7.32791 4.17932 6.89112C4.17932 6.45434 4.35199 6.03544 4.65934 5.72659C4.96669 5.41773 5.38355 5.24422 5.81821 5.24422H10.1886C10.3335 5.24422 10.4724 5.30206 10.5749 5.40501C10.6773 5.50796 10.7349 5.64759 10.7349 5.79319C10.7349 5.93878 10.6773 6.07842 10.5749 6.18137C10.4724 6.28432 10.3335 6.34216 10.1886 6.34216H5.81821C5.67332 6.34216 5.53437 6.39999 5.43192 6.50295C5.32947 6.6059 5.27191 6.74553 5.27191 6.89112C5.27191 7.03672 5.32947 7.17635 5.43192 7.2793C5.53437 7.38225 5.67332 7.44009 5.81821 7.44009H10.1886C10.6232 7.44009 11.0401 7.6136 11.3475 7.92246C11.6548 8.23131 11.8275 8.65021 11.8275 9.08699C11.8275 9.52378 11.6548 9.94268 11.3475 10.2515C11.0401 10.5604 10.6232 10.7339 10.1886 10.7339H7.31505Z" fill="#8B8D98"/>
<path fill-rule="evenodd" clip-rule="evenodd" d="M10.5017 2.57111C9.71802 2.21345 8.86644 2.02691 8.00341 2.0253C6.42284 2.02531 4.907 2.65626 3.78937 3.77936C2.67174 4.90246 2.04385 6.4257 2.04385 8.014C2.04011 8.62398 2.13401 9.2306 2.32196 9.81062C2.34153 9.87616 2.34806 9.94492 2.34117 10.013C2.33429 10.0811 2.31413 10.1471 2.28185 10.2074C2.24957 10.2676 2.2058 10.3209 2.15303 10.3641C2.10026 10.4074 2.03954 10.4397 1.97432 10.4594C1.9091 10.4791 1.84067 10.4856 1.77292 10.4787C1.70518 10.4718 1.63946 10.4515 1.57951 10.4191C1.51956 10.3867 1.46655 10.3427 1.42351 10.2896C1.38048 10.2366 1.34826 10.1756 1.32869 10.1101C0.908204 8.78535 0.890615 7.36469 1.27818 6.02988C1.66574 4.69507 2.44083 3.50682 3.50426 2.6172C4.56768 1.72757 5.87108 1.17703 7.24764 1.03602C8.52358 0.905326 9.80859 1.13199 10.9613 1.68799C11.1635 1.49889 11.4143 1.36971 11.6858 1.31543C11.9748 1.25766 12.2744 1.28731 12.5466 1.40063C12.8189 1.51395 13.0516 1.70585 13.2153 1.95206C13.379 2.19827 13.4664 2.48773 13.4664 2.78385C13.4664 2.98046 13.4279 3.17515 13.353 3.3568C13.2781 3.53844 13.1684 3.70349 13.03 3.84252C12.8917 3.98154 12.7274 4.09183 12.5466 4.16707C12.3659 4.24231 12.1721 4.28103 11.9765 4.28103C11.6818 4.28103 11.3938 4.19322 11.1487 4.02871C10.9037 3.8642 10.7128 3.63037 10.6 3.3568C10.4975 3.10806 10.4638 2.83663 10.5017 2.57111ZM12.3277 3.13674C12.2345 3.23033 12.1082 3.28291 11.9765 3.28291C11.8448 3.28291 11.7185 3.23033 11.6253 3.13674C11.5322 3.04315 11.4799 2.91621 11.4799 2.78385C11.4799 2.65149 11.5322 2.52455 11.6253 2.43096C11.7185 2.33737 11.8448 2.28479 11.9765 2.28479C12.1082 2.28479 12.2345 2.33737 12.3277 2.43096C12.4208 2.52455 12.4731 2.65149 12.4731 2.78385C12.4731 2.91621 12.4208 3.04315 12.3277 3.13674Z" stroke="#8B8D98" stroke-width="0.127273" mask="url(#path-1-outside-1_1367_3462)"/>
<path fill-rule="evenodd" clip-rule="evenodd" d="M8.00343 14.0027C7.22356 14.0013 6.45129 13.8488 5.72885 13.5536C5.76871 13.4243 5.7888 13.2897 5.78845 13.1543C5.78845 12.8582 5.70107 12.5687 5.53735 12.3225C5.37364 12.0763 5.14095 11.8844 4.86871 11.7711C4.59647 11.6578 4.2969 11.6281 4.00788 11.6859C3.71887 11.7437 3.4534 11.8863 3.24503 12.0956C3.03666 12.305 2.89476 12.5718 2.83728 12.8622C2.77979 13.1527 2.80929 13.4537 2.92206 13.7273C3.03483 14.0008 3.22579 14.2347 3.4708 14.3992C3.71582 14.5637 4.00387 14.6515 4.29855 14.6515C4.60085 14.651 4.89567 14.5569 5.14283 14.382C6.04091 14.7928 7.01668 15.0039 8.00343 15.0008C9.09351 15.0077 10.1699 14.7569 11.1458 14.2687C12.1216 13.7805 12.9696 13.0686 13.6211 12.1904C14.2727 11.3122 14.7097 10.2923 14.8967 9.21313C15.0838 8.13395 15.0157 7.0257 14.698 5.97783C14.6598 5.84547 14.5709 5.73378 14.4507 5.66733C14.3306 5.60088 14.1891 5.58511 14.0574 5.62349C13.9257 5.66188 13.8145 5.75127 13.7484 5.872C13.6823 5.99274 13.6666 6.13492 13.7048 6.26728C13.8751 6.83375 13.9621 7.42222 13.963 8.014C13.963 9.6023 13.3351 11.1256 12.2175 12.2487C11.0999 13.3718 9.58401 14.0027 8.00343 14.0027ZM4.64689 13.5044C4.5543 13.5974 4.42945 13.6508 4.29853 13.6534C4.16682 13.6534 4.0405 13.6008 3.94736 13.5072C3.85423 13.4136 3.8019 13.2867 3.8019 13.1543C3.8019 13.0888 3.81475 13.0239 3.83971 12.9633C3.86466 12.9028 3.90125 12.8478 3.94736 12.8014C3.99348 12.7551 4.04823 12.7183 4.10848 12.6933C4.16874 12.6682 4.23332 12.6553 4.29853 12.6553C4.36375 12.6553 4.42833 12.6682 4.48859 12.6933C4.54884 12.7183 4.60359 12.7551 4.64971 12.8014C4.69582 12.8478 4.73241 12.9028 4.75736 12.9633C4.78232 13.0239 4.79517 13.0888 4.79517 13.1543C4.79263 13.2859 4.73949 13.4113 4.64689 13.5044Z" stroke="#8B8D98" stroke-width="0.127273" mask="url(#path-1-outside-1_1367_3462)"/>
<path d="M7.31505 10.7339C7.19479 10.9432 7.00916 11.1068 6.78695 11.1993C6.56474 11.2918 6.31837 11.308 6.08605 11.2455C5.85373 11.1829 5.64844 11.0451 5.50202 10.8533C5.35561 10.6616 5.27624 10.4266 5.27624 10.1849C5.27624 9.94324 5.35561 9.7083 5.50202 9.51655C5.64844 9.3248 5.85373 9.18696 6.08605 9.12441C6.31837 9.06185 6.56474 9.07808 6.78695 9.17057C7.00916 9.26306 7.19479 9.42665 7.31505 9.63596H10.1886C10.3335 9.63596 10.4724 9.57813 10.5749 9.47517C10.6773 9.37222 10.7349 9.23259 10.7349 9.08699C10.7349 8.9414 10.6773 8.80177 10.5749 8.69882C10.4724 8.59586 10.3335 8.53803 10.1886 8.53803H5.81821C5.38355 8.53803 4.96669 8.36452 4.65934 8.05566C4.35199 7.74681 4.17932 7.32791 4.17932 6.89112C4.17932 6.45434 4.35199 6.03544 4.65934 5.72659C4.96669 5.41773 5.38355 5.24422 5.81821 5.24422H10.1886C10.3335 5.24422 10.4724 5.30206 10.5749 5.40501C10.6773 5.50796 10.7349 5.64759 10.7349 5.79319C10.7349 5.93878 10.6773 6.07842 10.5749 6.18137C10.4724 6.28432 10.3335 6.34216 10.1886 6.34216H5.81821C5.67332 6.34216 5.53437 6.39999 5.43192 6.50295C5.32947 6.6059 5.27191 6.74553 5.27191 6.89112C5.27191 7.03672 5.32947 7.17635 5.43192 7.2793C5.53437 7.38225 5.67332 7.44009 5.81821 7.44009H10.1886C10.6232 7.44009 11.0401 7.6136 11.3475 7.92246C11.6548 8.23131 11.8275 8.65021 11.8275 9.08699C11.8275 9.52378 11.6548 9.94268 11.3475 10.2515C11.0401 10.5604 10.6232 10.7339 10.1886 10.7339H7.31505Z" stroke="#8B8D98" stroke-width="0.127273" mask="url(#path-1-outside-1_1367_3462)"/>
</g>
<defs>
<clipPath id="clip0_1367_3462">
<rect width="16" height="16" fill="white"/>
</clipPath>
</defs>
</svg>
