<svg width="24" height="24" viewBox="0 0 24 24" fill="none" xmlns="http://www.w3.org/2000/svg">
<mask id="path-1-outside-1_30_395" maskUnits="userSpaceOnUse" x="0.499939" y="0.5" width="23" height="23" fill="black">
<rect fill="white" x="0.499939" y="0.5" width="23" height="23"/>
<path fill-rule="evenodd" clip-rule="evenodd" d="M15.7527 3.85667C14.5771 3.32017 13.2998 3.04036 12.0052 3.03795C9.63437 3.03796 7.36062 3.98439 5.68418 5.66904C4.00773 7.35368 3.0659 9.63855 3.06589 12.021C3.06028 12.936 3.20114 13.8459 3.48306 14.7159C3.51241 14.8142 3.52221 14.9174 3.51188 15.0195C3.50156 15.1216 3.47132 15.2207 3.4229 15.311C3.37448 15.4014 3.30882 15.4813 3.22967 15.5462C3.15052 15.611 3.05943 15.6596 2.9616 15.6891C2.86377 15.7186 2.76112 15.7284 2.65951 15.7181C2.55789 15.7077 2.45931 15.6773 2.36938 15.6286C2.27946 15.58 2.19995 15.514 2.13539 15.4345C2.07084 15.3549 2.02251 15.2634 1.99316 15.1651C1.36243 13.178 1.33604 11.047 1.91739 9.04482C2.49874 7.0426 3.66137 5.26023 5.25651 3.92579C6.85165 2.59135 8.80674 1.76554 10.8716 1.55403C12.7855 1.35799 14.713 1.69798 16.4421 2.53199C16.7453 2.24833 17.1215 2.05457 17.5289 1.97315C17.9624 1.88649 18.4117 1.93097 18.8201 2.10095C19.2285 2.27092 19.5775 2.55877 19.8231 2.92809C20.0686 3.2974 20.1997 3.7316 20.1997 4.17577C20.1997 4.47069 20.1419 4.76272 20.0296 5.03519C19.9173 5.30766 19.7527 5.55524 19.5451 5.76378C19.3376 5.97232 19.0912 6.13774 18.8201 6.2506C18.5489 6.36346 18.2583 6.42155 17.9649 6.42155C17.5228 6.42155 17.0908 6.28984 16.7232 6.04307C16.3557 5.7963 16.0693 5.44556 15.9001 5.03519C15.7463 4.66209 15.6958 4.25495 15.7527 3.85667ZM18.4916 4.70511C18.3519 4.84549 18.1624 4.92436 17.9649 4.92436C17.7673 4.92436 17.5778 4.84549 17.4381 4.70511C17.2984 4.56472 17.2199 4.37431 17.2199 4.17577C17.2199 3.97723 17.2984 3.78683 17.4381 3.64644C17.5778 3.50605 17.7673 3.42718 17.9649 3.42718C18.1624 3.42718 18.3519 3.50605 18.4916 3.64644C18.6313 3.78683 18.7098 3.97723 18.7098 4.17577C18.7098 4.37431 18.6313 4.56472 18.4916 4.70511Z"/>
<path fill-rule="evenodd" clip-rule="evenodd" d="M12.0053 21.0041C10.8355 21.0019 9.67705 20.7731 8.5934 20.3304C8.65318 20.1364 8.68332 19.9345 8.6828 19.7315C8.6828 19.2873 8.55172 18.8531 8.30615 18.4838C8.06059 18.1145 7.71155 17.8266 7.30318 17.6566C6.89482 17.4867 6.44547 17.4422 6.01195 17.5289C5.57843 17.6155 5.18022 17.8294 4.86767 18.1435C4.55512 18.4575 4.34227 18.8577 4.25604 19.2933C4.1698 19.729 4.21406 20.1805 4.38321 20.5909C4.55236 21.0013 4.83881 21.352 5.20633 21.5988C5.57385 21.8455 6.00593 21.9772 6.44795 21.9772C6.9014 21.9766 7.34363 21.8354 7.71436 21.573C9.06149 22.1892 10.5251 22.5059 12.0053 22.5013C13.6404 22.5116 15.255 22.1354 16.7188 21.4031C18.1825 20.6708 19.4544 19.6028 20.4318 18.2855C21.4092 16.9682 22.0646 15.4385 22.3452 13.8197C22.6258 12.2009 22.5237 10.5385 22.0472 8.96674C21.9899 8.7682 21.8564 8.60067 21.6762 8.50099C21.496 8.40131 21.2837 8.37766 21.0862 8.43524C20.8886 8.49282 20.7219 8.6269 20.6227 8.808C20.5235 8.98911 20.5 9.20238 20.5573 9.40092C20.8128 10.2506 20.9433 11.1333 20.9446 12.021C20.9446 14.4035 20.0028 16.6883 18.3264 18.373C16.6499 20.0576 14.3761 21.0041 12.0053 21.0041ZM6.97046 20.2566C6.83158 20.3962 6.6443 20.4763 6.44792 20.4801C6.25035 20.4801 6.06087 20.4012 5.92117 20.2608C5.78146 20.1204 5.70297 19.93 5.70297 19.7315C5.70297 19.6332 5.72224 19.5358 5.75968 19.445C5.79712 19.3542 5.85199 19.2717 5.92117 19.2022C5.99034 19.1326 6.07246 19.0775 6.16284 19.0399C6.25323 19.0023 6.3501 18.9829 6.44792 18.9829C6.54575 18.9829 6.64262 19.0023 6.733 19.0399C6.82339 19.0775 6.90551 19.1326 6.97468 19.2022C7.04386 19.2717 7.09873 19.3542 7.13617 19.445C7.17361 19.5358 7.19287 19.6332 7.19287 19.7315C7.18906 19.9288 7.10935 20.117 6.97046 20.2566Z"/>
<path d="M10.9727 16.1008C10.7923 16.4148 10.5139 16.6602 10.1806 16.7989C9.84724 16.9377 9.47768 16.962 9.1292 16.8682C8.78072 16.7743 8.47278 16.5676 8.25316 16.28C8.03353 15.9923 7.91448 15.6399 7.91448 15.2774C7.91448 14.9149 8.03353 14.5624 8.25316 14.2748C8.47278 13.9872 8.78072 13.7804 9.1292 13.6866C9.47768 13.5928 9.84724 13.6171 10.1806 13.7559C10.5139 13.8946 10.7923 14.14 10.9727 14.4539H15.283C15.5003 14.4539 15.7087 14.3672 15.8624 14.2128C16.0161 14.0583 16.1024 13.8489 16.1024 13.6305C16.1024 13.4121 16.0161 13.2027 15.8624 13.0482C15.7087 12.8938 15.5003 12.807 15.283 12.807H8.72744C8.07545 12.807 7.45016 12.5468 6.98913 12.0835C6.52811 11.6202 6.2691 10.9919 6.2691 10.3367C6.2691 9.68151 6.52811 9.05316 6.98913 8.58988C7.45016 8.1266 8.07545 7.86633 8.72744 7.86633H15.283C15.5003 7.86633 15.7088 7.95309 15.8624 8.10752C16.0161 8.26194 16.1024 8.47139 16.1024 8.68978C16.1024 8.90818 16.0161 9.11763 15.8624 9.27205C15.7088 9.42648 15.5003 9.51324 15.283 9.51324H8.72744C8.51011 9.51324 8.30168 9.59999 8.148 9.75442C7.99433 9.90885 7.90799 10.1183 7.90799 10.3367C7.90799 10.5551 7.99433 10.7645 8.148 10.919C8.30168 11.0734 8.51011 11.1601 8.72744 11.1601H15.283C15.935 11.1601 16.5603 11.4204 17.0213 11.8837C17.4823 12.347 17.7413 12.9753 17.7413 13.6305C17.7413 14.2857 17.4823 14.914 17.0213 15.3773C16.5603 15.8406 15.935 16.1008 15.283 16.1008H10.9727Z"/>
</mask>
<path fill-rule="evenodd" clip-rule="evenodd" d="M15.7527 3.85667C14.5771 3.32017 13.2998 3.04036 12.0052 3.03795C9.63437 3.03796 7.36062 3.98439 5.68418 5.66904C4.00773 7.35368 3.0659 9.63855 3.06589 12.021C3.06028 12.936 3.20114 13.8459 3.48306 14.7159C3.51241 14.8142 3.52221 14.9174 3.51188 15.0195C3.50156 15.1216 3.47132 15.2207 3.4229 15.311C3.37448 15.4014 3.30882 15.4813 3.22967 15.5462C3.15052 15.611 3.05943 15.6596 2.9616 15.6891C2.86377 15.7186 2.76112 15.7284 2.65951 15.7181C2.55789 15.7077 2.45931 15.6773 2.36938 15.6286C2.27946 15.58 2.19995 15.514 2.13539 15.4345C2.07084 15.3549 2.02251 15.2634 1.99316 15.1651C1.36243 13.178 1.33604 11.047 1.91739 9.04482C2.49874 7.0426 3.66137 5.26023 5.25651 3.92579C6.85165 2.59135 8.80674 1.76554 10.8716 1.55403C12.7855 1.35799 14.713 1.69798 16.4421 2.53199C16.7453 2.24833 17.1215 2.05457 17.5289 1.97315C17.9624 1.88649 18.4117 1.93097 18.8201 2.10095C19.2285 2.27092 19.5775 2.55877 19.8231 2.92809C20.0686 3.2974 20.1997 3.7316 20.1997 4.17577C20.1997 4.47069 20.1419 4.76272 20.0296 5.03519C19.9173 5.30766 19.7527 5.55524 19.5451 5.76378C19.3376 5.97232 19.0912 6.13774 18.8201 6.2506C18.5489 6.36346 18.2583 6.42155 17.9649 6.42155C17.5228 6.42155 17.0908 6.28984 16.7232 6.04307C16.3557 5.7963 16.0693 5.44556 15.9001 5.03519C15.7463 4.66209 15.6958 4.25495 15.7527 3.85667ZM18.4916 4.70511C18.3519 4.84549 18.1624 4.92436 17.9649 4.92436C17.7673 4.92436 17.5778 4.84549 17.4381 4.70511C17.2984 4.56472 17.2199 4.37431 17.2199 4.17577C17.2199 3.97723 17.2984 3.78683 17.4381 3.64644C17.5778 3.50605 17.7673 3.42718 17.9649 3.42718C18.1624 3.42718 18.3519 3.50605 18.4916 3.64644C18.6313 3.78683 18.7098 3.97723 18.7098 4.17577C18.7098 4.37431 18.6313 4.56472 18.4916 4.70511Z" fill="#8B8D98"/>
<path fill-rule="evenodd" clip-rule="evenodd" d="M12.0053 21.0041C10.8355 21.0019 9.67705 20.7731 8.5934 20.3304C8.65318 20.1364 8.68332 19.9345 8.6828 19.7315C8.6828 19.2873 8.55172 18.8531 8.30615 18.4838C8.06059 18.1145 7.71155 17.8266 7.30318 17.6566C6.89482 17.4867 6.44547 17.4422 6.01195 17.5289C5.57843 17.6155 5.18022 17.8294 4.86767 18.1435C4.55512 18.4575 4.34227 18.8577 4.25604 19.2933C4.1698 19.729 4.21406 20.1805 4.38321 20.5909C4.55236 21.0013 4.83881 21.352 5.20633 21.5988C5.57385 21.8455 6.00593 21.9772 6.44795 21.9772C6.9014 21.9766 7.34363 21.8354 7.71436 21.573C9.06149 22.1892 10.5251 22.5059 12.0053 22.5013C13.6404 22.5116 15.255 22.1354 16.7188 21.4031C18.1825 20.6708 19.4544 19.6028 20.4318 18.2855C21.4092 16.9682 22.0646 15.4385 22.3452 13.8197C22.6258 12.2009 22.5237 10.5385 22.0472 8.96674C21.9899 8.7682 21.8564 8.60067 21.6762 8.50099C21.496 8.40131 21.2837 8.37766 21.0862 8.43524C20.8886 8.49282 20.7219 8.6269 20.6227 8.808C20.5235 8.98911 20.5 9.20238 20.5573 9.40092C20.8128 10.2506 20.9433 11.1333 20.9446 12.021C20.9446 14.4035 20.0028 16.6883 18.3264 18.373C16.6499 20.0576 14.3761 21.0041 12.0053 21.0041ZM6.97046 20.2566C6.83158 20.3962 6.6443 20.4763 6.44792 20.4801C6.25035 20.4801 6.06087 20.4012 5.92117 20.2608C5.78146 20.1204 5.70297 19.93 5.70297 19.7315C5.70297 19.6332 5.72224 19.5358 5.75968 19.445C5.79712 19.3542 5.85199 19.2717 5.92117 19.2022C5.99034 19.1326 6.07246 19.0775 6.16284 19.0399C6.25323 19.0023 6.3501 18.9829 6.44792 18.9829C6.54575 18.9829 6.64262 19.0023 6.733 19.0399C6.82339 19.0775 6.90551 19.1326 6.97468 19.2022C7.04386 19.2717 7.09873 19.3542 7.13617 19.445C7.17361 19.5358 7.19287 19.6332 7.19287 19.7315C7.18906 19.9288 7.10935 20.117 6.97046 20.2566Z" fill="#8B8D98"/>
<path d="M10.9727 16.1008C10.7923 16.4148 10.5139 16.6602 10.1806 16.7989C9.84724 16.9377 9.47768 16.962 9.1292 16.8682C8.78072 16.7743 8.47278 16.5676 8.25316 16.28C8.03353 15.9923 7.91448 15.6399 7.91448 15.2774C7.91448 14.9149 8.03353 14.5624 8.25316 14.2748C8.47278 13.9872 8.78072 13.7804 9.1292 13.6866C9.47768 13.5928 9.84724 13.6171 10.1806 13.7559C10.5139 13.8946 10.7923 14.14 10.9727 14.4539H15.283C15.5003 14.4539 15.7087 14.3672 15.8624 14.2128C16.0161 14.0583 16.1024 13.8489 16.1024 13.6305C16.1024 13.4121 16.0161 13.2027 15.8624 13.0482C15.7087 12.8938 15.5003 12.807 15.283 12.807H8.72744C8.07545 12.807 7.45016 12.5468 6.98913 12.0835C6.52811 11.6202 6.2691 10.9919 6.2691 10.3367C6.2691 9.68151 6.52811 9.05316 6.98913 8.58988C7.45016 8.1266 8.07545 7.86633 8.72744 7.86633H15.283C15.5003 7.86633 15.7088 7.95309 15.8624 8.10752C16.0161 8.26194 16.1024 8.47139 16.1024 8.68978C16.1024 8.90818 16.0161 9.11763 15.8624 9.27205C15.7088 9.42648 15.5003 9.51324 15.283 9.51324H8.72744C8.51011 9.51324 8.30168 9.59999 8.148 9.75442C7.99433 9.90885 7.90799 10.1183 7.90799 10.3367C7.90799 10.5551 7.99433 10.7645 8.148 10.919C8.30168 11.0734 8.51011 11.1601 8.72744 11.1601H15.283C15.935 11.1601 16.5603 11.4204 17.0213 11.8837C17.4823 12.347 17.7413 12.9753 17.7413 13.6305C17.7413 14.2857 17.4823 14.914 17.0213 15.3773C16.5603 15.8406 15.935 16.1008 15.283 16.1008H10.9727Z" fill="#8B8D98"/>
<path fill-rule="evenodd" clip-rule="evenodd" d="M15.7527 3.85667C14.5771 3.32017 13.2998 3.04036 12.0052 3.03795C9.63437 3.03796 7.36062 3.98439 5.68418 5.66904C4.00773 7.35368 3.0659 9.63855 3.06589 12.021C3.06028 12.936 3.20114 13.8459 3.48306 14.7159C3.51241 14.8142 3.52221 14.9174 3.51188 15.0195C3.50156 15.1216 3.47132 15.2207 3.4229 15.311C3.37448 15.4014 3.30882 15.4813 3.22967 15.5462C3.15052 15.611 3.05943 15.6596 2.9616 15.6891C2.86377 15.7186 2.76112 15.7284 2.65951 15.7181C2.55789 15.7077 2.45931 15.6773 2.36938 15.6286C2.27946 15.58 2.19995 15.514 2.13539 15.4345C2.07084 15.3549 2.02251 15.2634 1.99316 15.1651C1.36243 13.178 1.33604 11.047 1.91739 9.04482C2.49874 7.0426 3.66137 5.26023 5.25651 3.92579C6.85165 2.59135 8.80674 1.76554 10.8716 1.55403C12.7855 1.35799 14.713 1.69798 16.4421 2.53199C16.7453 2.24833 17.1215 2.05457 17.5289 1.97315C17.9624 1.88649 18.4117 1.93097 18.8201 2.10095C19.2285 2.27092 19.5775 2.55877 19.8231 2.92809C20.0686 3.2974 20.1997 3.7316 20.1997 4.17577C20.1997 4.47069 20.1419 4.76272 20.0296 5.03519C19.9173 5.30766 19.7527 5.55524 19.5451 5.76378C19.3376 5.97232 19.0912 6.13774 18.8201 6.2506C18.5489 6.36346 18.2583 6.42155 17.9649 6.42155C17.5228 6.42155 17.0908 6.28984 16.7232 6.04307C16.3557 5.7963 16.0693 5.44556 15.9001 5.03519C15.7463 4.66209 15.6958 4.25495 15.7527 3.85667ZM18.4916 4.70511C18.3519 4.84549 18.1624 4.92436 17.9649 4.92436C17.7673 4.92436 17.5778 4.84549 17.4381 4.70511C17.2984 4.56472 17.2199 4.37431 17.2199 4.17577C17.2199 3.97723 17.2984 3.78683 17.4381 3.64644C17.5778 3.50605 17.7673 3.42718 17.9649 3.42718C18.1624 3.42718 18.3519 3.50605 18.4916 3.64644C18.6313 3.78683 18.7098 3.97723 18.7098 4.17577C18.7098 4.37431 18.6313 4.56472 18.4916 4.70511Z" stroke="#8B8D98" stroke-width="0.190909" mask="url(#path-1-outside-1_30_395)"/>
<path fill-rule="evenodd" clip-rule="evenodd" d="M12.0053 21.0041C10.8355 21.0019 9.67705 20.7731 8.5934 20.3304C8.65318 20.1364 8.68332 19.9345 8.6828 19.7315C8.6828 19.2873 8.55172 18.8531 8.30615 18.4838C8.06059 18.1145 7.71155 17.8266 7.30318 17.6566C6.89482 17.4867 6.44547 17.4422 6.01195 17.5289C5.57843 17.6155 5.18022 17.8294 4.86767 18.1435C4.55512 18.4575 4.34227 18.8577 4.25604 19.2933C4.1698 19.729 4.21406 20.1805 4.38321 20.5909C4.55236 21.0013 4.83881 21.352 5.20633 21.5988C5.57385 21.8455 6.00593 21.9772 6.44795 21.9772C6.9014 21.9766 7.34363 21.8354 7.71436 21.573C9.06149 22.1892 10.5251 22.5059 12.0053 22.5013C13.6404 22.5116 15.255 22.1354 16.7188 21.4031C18.1825 20.6708 19.4544 19.6028 20.4318 18.2855C21.4092 16.9682 22.0646 15.4385 22.3452 13.8197C22.6258 12.2009 22.5237 10.5385 22.0472 8.96674C21.9899 8.7682 21.8564 8.60067 21.6762 8.50099C21.496 8.40131 21.2837 8.37766 21.0862 8.43524C20.8886 8.49282 20.7219 8.6269 20.6227 8.808C20.5235 8.98911 20.5 9.20238 20.5573 9.40092C20.8128 10.2506 20.9433 11.1333 20.9446 12.021C20.9446 14.4035 20.0028 16.6883 18.3264 18.373C16.6499 20.0576 14.3761 21.0041 12.0053 21.0041ZM6.97046 20.2566C6.83158 20.3962 6.6443 20.4763 6.44792 20.4801C6.25035 20.4801 6.06087 20.4012 5.92117 20.2608C5.78146 20.1204 5.70297 19.93 5.70297 19.7315C5.70297 19.6332 5.72224 19.5358 5.75968 19.445C5.79712 19.3542 5.85199 19.2717 5.92117 19.2022C5.99034 19.1326 6.07246 19.0775 6.16284 19.0399C6.25323 19.0023 6.3501 18.9829 6.44792 18.9829C6.54575 18.9829 6.64262 19.0023 6.733 19.0399C6.82339 19.0775 6.90551 19.1326 6.97468 19.2022C7.04386 19.2717 7.09873 19.3542 7.13617 19.445C7.17361 19.5358 7.19287 19.6332 7.19287 19.7315C7.18906 19.9288 7.10935 20.117 6.97046 20.2566Z" stroke="#8B8D98" stroke-width="0.190909" mask="url(#path-1-outside-1_30_395)"/>
<path d="M10.9727 16.1008C10.7923 16.4148 10.5139 16.6602 10.1806 16.7989C9.84724 16.9377 9.47768 16.962 9.1292 16.8682C8.78072 16.7743 8.47278 16.5676 8.25316 16.28C8.03353 15.9923 7.91448 15.6399 7.91448 15.2774C7.91448 14.9149 8.03353 14.5624 8.25316 14.2748C8.47278 13.9872 8.78072 13.7804 9.1292 13.6866C9.47768 13.5928 9.84724 13.6171 10.1806 13.7559C10.5139 13.8946 10.7923 14.14 10.9727 14.4539H15.283C15.5003 14.4539 15.7087 14.3672 15.8624 14.2128C16.0161 14.0583 16.1024 13.8489 16.1024 13.6305C16.1024 13.4121 16.0161 13.2027 15.8624 13.0482C15.7087 12.8938 15.5003 12.807 15.283 12.807H8.72744C8.07545 12.807 7.45016 12.5468 6.98913 12.0835C6.52811 11.6202 6.2691 10.9919 6.2691 10.3367C6.2691 9.68151 6.52811 9.05316 6.98913 8.58988C7.45016 8.1266 8.07545 7.86633 8.72744 7.86633H15.283C15.5003 7.86633 15.7088 7.95309 15.8624 8.10752C16.0161 8.26194 16.1024 8.47139 16.1024 8.68978C16.1024 8.90818 16.0161 9.11763 15.8624 9.27205C15.7088 9.42648 15.5003 9.51324 15.283 9.51324H8.72744C8.51011 9.51324 8.30168 9.59999 8.148 9.75442C7.99433 9.90885 7.90799 10.1183 7.90799 10.3367C7.90799 10.5551 7.99433 10.7645 8.148 10.919C8.30168 11.0734 8.51011 11.1601 8.72744 11.1601H15.283C15.935 11.1601 16.5603 11.4204 17.0213 11.8837C17.4823 12.347 17.7413 12.9753 17.7413 13.6305C17.7413 14.2857 17.4823 14.914 17.0213 15.3773C16.5603 15.8406 15.935 16.1008 15.283 16.1008H10.9727Z" stroke="#8B8D98" stroke-width="0.190909" mask="url(#path-1-outside-1_30_395)"/>
</svg>
