<svg xmlns="http://www.w3.org/2000/svg" width="24" height="24" viewBox="0 0 24 24" fill="none">
  <path d="M5.97199 18.9988C5.99074 18.9673 6.00995 18.9359 6.02962 18.9046C7.46378 16.6247 8.29402 13.9286 8.29402 11.0255C8.29402 8.68643 10.1902 6.79023 12.5293 6.79023C14.8684 6.79023 16.7646 8.68643 16.7646 11.0255C16.7646 12.1024 16.6913 13.1628 16.5494 14.202M14.3074 21.4482C14.9551 20.1554 15.4861 18.794 15.8866 17.3785M19.9514 18.577C20.6344 16.1774 21 13.6442 21 11.0255C21 6.34734 17.2076 2.55493 12.5294 2.55493C10.9865 2.55493 9.54003 2.96743 8.29412 3.68815M3 15.6464C3.67834 14.25 4.05882 12.6822 4.05882 11.0255C4.05882 9.48266 4.47132 8.03614 5.19204 6.79023M12.5293 11.0255C12.5293 14.7496 11.4612 18.2242 9.61455 21.1597" stroke="#8B8D98" stroke-width="2" stroke-linecap="round" stroke-linejoin="round"/>
</svg>