<svg width="16" height="16" viewBox="0 0 16 16" fill="none" xmlns="http://www.w3.org/2000/svg">
<path d="M3.98133 12.666C3.99383 12.6449 4.00663 12.624 4.01974 12.6031C4.97586 11.0832 5.52935 9.28579 5.52935 7.35043C5.52935 5.79104 6.79348 4.5269 8.35288 4.5269C9.91227 4.5269 11.1764 5.79104 11.1764 7.35043C11.1764 8.06834 11.1275 8.77531 11.0329 9.46808M9.53827 14.2989C9.97006 13.437 10.3241 12.5294 10.5911 11.5857M13.3009 12.3848C13.7563 10.785 14 9.09619 14 7.35043C14 4.23164 11.4717 1.70337 8.35294 1.70337C7.32437 1.70337 6.36002 1.97836 5.52941 2.45885M2 10.431C2.45223 9.5001 2.70588 8.45488 2.70588 7.35043C2.70588 6.32185 2.98088 5.35751 3.46136 4.5269M8.35285 7.35043C8.35285 9.83316 7.64077 12.1496 6.4097 14.1066" stroke="#8B8D98" stroke-width="1.33333" stroke-linecap="round" stroke-linejoin="round"/>
</svg>
