<svg width="17" height="16" viewBox="0 0 17 16" fill="none" xmlns="http://www.w3.org/2000/svg">
<path d="M6.33333 7.66666L7.66667 9L10.6667 6M13.6667 8C13.6667 11.2723 10.0974 13.6523 8.79866 14.4099C8.65107 14.496 8.57727 14.5391 8.47312 14.5614C8.39229 14.5787 8.27437 14.5787 8.19355 14.5614C8.0894 14.5391 8.0156 14.496 7.86801 14.4099C6.56931 13.6523 3 11.2723 3 8V4.81173C3 4.27872 3 4.01222 3.08717 3.78313C3.16418 3.58076 3.28932 3.40018 3.45177 3.25702C3.63566 3.09495 3.8852 3.00138 4.38427 2.81423L7.9588 1.47378C8.0974 1.4218 8.1667 1.39582 8.23799 1.38552C8.30122 1.37638 8.36544 1.37638 8.42868 1.38552C8.49997 1.39582 8.56927 1.4218 8.70786 1.47378L12.2824 2.81423C12.7815 3.00138 13.031 3.09495 13.2149 3.25702C13.3773 3.40018 13.5025 3.58076 13.5795 3.78313C13.6667 4.01222 13.6667 4.27872 13.6667 4.81173V8Z" stroke="#8B8D98" stroke-width="1.33333" stroke-linecap="round" stroke-linejoin="round"/>
</svg>
