<svg xmlns="http://www.w3.org/2000/svg" width="24" height="24" viewBox="0 0 24 24" fill="none">
  <path d="M7.51411 1.14301C7.28668 1.00656 7.01437 0.966037 6.75707 1.03036C6.49977 1.09469 6.27856 1.25859 6.1421 1.48601C6.00565 1.71344 5.96513 1.98575 6.02945 2.24305C6.09378 2.50035 6.25768 2.72156 6.48511 2.85802L7.97511 3.75202C7.02558 4.76887 6.49827 6.10877 6.50011 7.50003V7.64303C6.3364 7.73592 6.17815 7.83808 6.0261 7.94903C5.9781 7.91903 5.9261 7.89303 5.8711 7.87103L3.8711 7.07103C3.62584 6.97747 3.35363 6.9841 3.11322 7.08948C2.8728 7.19487 2.68347 7.39055 2.58607 7.63431C2.48867 7.87807 2.49102 8.15035 2.59262 8.39239C2.69421 8.63443 2.8869 8.82682 3.1291 8.92803L4.6271 9.52803C4.21473 10.2642 3.9988 11.0942 4.0001 11.938V13H2.00009C1.86876 13 1.73871 13.0259 1.61736 13.0761C1.49602 13.1264 1.38576 13.2 1.29289 13.2929C1.20001 13.3857 1.12634 13.496 1.07607 13.6173C1.02581 13.7387 0.999939 13.8687 0.999939 14C0.999939 14.1314 1.02581 14.2614 1.07607 14.3828C1.12634 14.5041 1.20001 14.6143 1.29289 14.7072C1.38576 14.8001 1.49602 14.8737 1.61736 14.924C1.73871 14.9742 1.86876 15.0001 2.00009 15H4.0001C4.0001 16.222 4.2741 17.3801 4.7651 18.4181L3.1291 19.0721C3.00516 19.1193 2.89187 19.1908 2.79583 19.2823C2.69978 19.3738 2.62289 19.4834 2.56963 19.6049C2.51638 19.7264 2.48783 19.8573 2.48564 19.9899C2.48346 20.1225 2.50768 20.2543 2.55689 20.3774C2.60611 20.5006 2.67934 20.6128 2.77232 20.7074C2.8653 20.802 2.97617 20.8771 3.09848 20.9285C3.22079 20.9798 3.35208 21.0063 3.48473 21.0064C3.61737 21.0065 3.74871 20.9802 3.8711 20.9291L5.8631 20.1321C6.61318 21.0308 7.55176 21.7537 8.61232 22.2493C9.67288 22.7449 10.8295 23.0012 12.0001 23.0001C13.1708 23.0012 14.3273 22.7448 15.3879 22.2492C16.4484 21.7536 17.387 21.0308 18.1371 20.1321L20.1291 20.9291C20.3744 21.0226 20.6466 21.016 20.887 20.9106C21.1274 20.8052 21.3168 20.6095 21.4142 20.3658C21.5116 20.122 21.5092 19.8497 21.4076 19.6077C21.306 19.3657 21.1133 19.1733 20.8711 19.0721L19.2351 18.4181C19.7404 17.3495 20.0017 16.182 20.0001 15H22.0001C22.2653 15 22.5196 14.8946 22.7071 14.7071C22.8947 14.5196 23 14.2652 23 14C23 13.7349 22.8947 13.4805 22.7071 13.293C22.5196 13.1055 22.2653 13.0001 22.0001 13H20.0001V11.938C20.0001 11.063 19.7721 10.241 19.3731 9.52803L20.8711 8.92803C20.9951 8.88076 21.1084 8.8093 21.2044 8.71781C21.3005 8.62633 21.3773 8.51665 21.4306 8.39517C21.4839 8.27368 21.5124 8.14282 21.5146 8.01019C21.5168 7.87756 21.4926 7.74583 21.4433 7.62265C21.3941 7.49948 21.3209 7.38733 21.2279 7.29273C21.1349 7.19813 21.0241 7.12297 20.9018 7.07163C20.7795 7.02029 20.6482 6.9938 20.5155 6.9937C20.3829 6.9936 20.2515 7.01988 20.1291 7.07103L18.1291 7.87103C18.0753 7.89249 18.0234 7.91859 17.9741 7.94903C17.8221 7.83808 17.6638 7.73592 17.5001 7.64303V7.50003C17.5001 6.05202 16.9401 4.73402 16.0251 3.75202L17.5151 2.85802C17.7426 2.72143 17.9064 2.50009 17.9706 2.2427C18.0349 1.98531 17.9942 1.71294 17.8576 1.48551C17.721 1.25809 17.4997 1.09424 17.2423 1.03001C16.9849 0.965777 16.7126 1.00643 16.4851 1.14301L14.2541 2.48202C13.5454 2.16343 12.7771 1.99913 12.0001 2.00002C11.1971 2.00002 10.4341 2.17202 9.74611 2.48202L7.51411 1.14201V1.14301ZM8.93811 7.00003C8.80211 7.00003 8.66811 7.00603 8.53411 7.01603C8.6499 6.1788 9.06474 5.41175 9.70201 4.85655C10.3393 4.30135 11.1559 3.99551 12.0011 3.99551C12.8463 3.99551 13.663 4.30135 14.3002 4.85655C14.9375 5.41175 15.3523 6.1788 15.4681 7.01603C15.3331 7.0052 15.1976 6.99986 15.0621 7.00003H8.93911H8.93811ZM7.50011 9.50003C7.66289 9.50016 7.82324 9.4605 7.9672 9.38451C8.11116 9.30852 8.23437 9.1985 8.32611 9.06403C8.52311 9.02203 8.72811 9.00003 8.93711 9.00003H15.0631C15.2731 9.00003 15.4771 9.02203 15.6731 9.06403C15.7822 9.22386 15.9353 9.34862 16.1139 9.42317C16.2924 9.49772 16.4888 9.51886 16.6791 9.48403C17.0854 9.75155 17.4189 10.1159 17.6495 10.5442C17.8801 10.9726 18.0006 11.4516 18.0001 11.938V15C18 16.418 17.4977 17.7901 16.5825 18.8732C15.6673 19.9563 14.3982 20.6803 13.0001 20.9171V15C13.0001 14.7348 12.8948 14.4805 12.7072 14.2929C12.5197 14.1054 12.2653 14 12.0001 14C11.7349 14 11.4805 14.1054 11.293 14.2929C11.1055 14.4805 11.0001 14.7348 11.0001 15V20.9171C9.60204 20.6803 8.33292 19.9563 7.41771 18.8732C6.50249 17.7901 6.00029 16.418 6.0001 15V11.938C6.0001 10.913 6.52511 10.01 7.32111 9.48403C7.38011 9.49403 7.43911 9.50003 7.50011 9.50003Z" fill="#8B8D98"/>
</svg>