<svg width="16" height="16" viewBox="0 0 16 16" fill="none" xmlns="http://www.w3.org/2000/svg">
<g clip-path="url(#clip0_1367_3446)">
<path d="M5.0094 0.762049C4.85779 0.67108 4.67625 0.644065 4.50471 0.686949C4.33318 0.729832 4.18571 0.839101 4.09474 0.990717C4.00377 1.14233 3.97675 1.32388 4.01964 1.49541C4.06252 1.66694 4.17179 1.81442 4.3234 1.90539L5.31674 2.50139C4.68372 3.17929 4.33218 4.07255 4.3334 5.00006V5.09539C4.22427 5.15732 4.11876 5.22543 4.0174 5.29939C3.9854 5.27939 3.95074 5.26206 3.91407 5.24739L2.58073 4.71406C2.41723 4.65169 2.23575 4.65611 2.07548 4.72636C1.9152 4.79662 1.78898 4.92708 1.72405 5.08958C1.65911 5.25209 1.66068 5.43361 1.72841 5.59497C1.79614 5.75633 1.9246 5.88458 2.08606 5.95206L3.08473 6.35206C2.80982 6.84287 2.66586 7.39618 2.66673 7.95873V8.66673H1.3334C1.24584 8.66672 1.15914 8.68396 1.07824 8.71745C0.997346 8.75095 0.923841 8.80005 0.861925 8.86196C0.800008 8.92387 0.750892 8.99737 0.717383 9.07826C0.683873 9.15915 0.666626 9.24585 0.666626 9.3334C0.666626 9.42096 0.683873 9.50766 0.717383 9.58855C0.750892 9.66944 0.800008 9.74294 0.861925 9.80484C0.923841 9.86675 0.997346 9.91586 1.07824 9.94935C1.15914 9.98285 1.24584 10.0001 1.3334 10.0001H2.66673C2.66673 10.8147 2.8494 11.5867 3.17673 12.2787L2.08606 12.7147C2.00344 12.7463 1.92792 12.7939 1.86388 12.8549C1.79985 12.9159 1.74859 12.989 1.71309 13.07C1.67759 13.151 1.65855 13.2382 1.6571 13.3266C1.65564 13.4151 1.67178 13.5029 1.7046 13.585C1.73741 13.6671 1.78623 13.7419 1.84821 13.8049C1.9102 13.868 1.98412 13.9181 2.06565 13.9523C2.14719 13.9866 2.23472 14.0042 2.32315 14.0043C2.41158 14.0044 2.49914 13.9868 2.58073 13.9527L3.90874 13.4214C4.40879 14.0206 5.03451 14.5025 5.74155 14.8329C6.44859 15.1633 7.21964 15.3342 8.00008 15.3334C8.78051 15.3341 9.55155 15.1633 10.2586 14.8328C10.9656 14.5024 11.5913 14.0206 12.0914 13.4214L13.4194 13.9527C13.5829 14.0151 13.7644 14.0107 13.9247 13.9404C14.085 13.8702 14.2112 13.7397 14.2761 13.5772C14.341 13.4147 14.3395 13.2332 14.2717 13.0718C14.204 12.9105 14.0756 12.7822 13.9141 12.7147L12.8234 12.2787C13.1603 11.5664 13.3345 10.788 13.3334 10.0001H14.6668C14.8436 10 15.0131 9.92979 15.1381 9.80477C15.2631 9.67975 15.3333 9.5102 15.3333 9.3334C15.3333 9.15661 15.2631 8.98706 15.1381 8.86203C15.0131 8.73701 14.8436 8.66676 14.6668 8.66673H13.3334V7.95873C13.3334 7.3754 13.1814 6.8274 12.9154 6.35206L13.9141 5.95206C13.9967 5.92054 14.0722 5.8729 14.1363 5.81192C14.2003 5.75093 14.2516 5.67781 14.2871 5.59682C14.3226 5.51583 14.3416 5.42859 14.3431 5.34017C14.3445 5.25175 14.3284 5.16393 14.2956 5.08181C14.2627 4.99969 14.2139 4.92492 14.1519 4.86186C14.09 4.79879 14.016 4.74869 13.9345 4.71446C13.853 4.68024 13.7654 4.66258 13.677 4.66251C13.5886 4.66244 13.501 4.67996 13.4194 4.71406L12.0861 5.24739C12.0502 5.2617 12.0156 5.2791 11.9828 5.29939C11.8814 5.22543 11.7759 5.15732 11.6668 5.09539V5.00006C11.6668 4.03472 11.2934 3.15605 10.6834 2.50139L11.6768 1.90539C11.8284 1.81433 11.9376 1.66677 11.9804 1.49517C12.0232 1.32358 11.9961 1.142 11.9051 0.990383C11.814 0.838767 11.6665 0.729534 11.4949 0.686713C11.3233 0.643892 11.1417 0.670992 10.9901 0.762049L9.50275 1.65472C9.03029 1.44233 8.51808 1.33279 8.00008 1.33338C7.46474 1.33338 6.95608 1.44805 6.49741 1.65472L5.0094 0.761383V0.762049ZM5.95874 4.66672C5.86807 4.66672 5.77874 4.67072 5.68941 4.67739C5.7666 4.11924 6.04316 3.60787 6.468 3.23774C6.89285 2.86761 7.43728 2.66371 8.00075 2.66371C8.56421 2.66371 9.10864 2.86761 9.53349 3.23774C9.95833 3.60787 10.2349 4.11924 10.3121 4.67739C10.222 4.67017 10.1317 4.66661 10.0414 4.66672H5.95941H5.95874ZM5.00007 6.3334C5.10859 6.33348 5.21549 6.30704 5.31147 6.25638C5.40744 6.20572 5.48958 6.13238 5.55074 6.04273C5.68207 6.01473 5.81874 6.00006 5.95807 6.00006H10.0421C10.1821 6.00006 10.3181 6.01473 10.4488 6.04273C10.5215 6.14928 10.6235 6.23245 10.7426 6.28215C10.8616 6.33185 10.9925 6.34595 11.1194 6.32273C11.3903 6.50108 11.6126 6.74396 11.7663 7.02953C11.92 7.31511 12.0004 7.63441 12.0001 7.95873V10.0001C12 10.9454 11.6652 11.8601 11.055 12.5822C10.4449 13.3042 9.5988 13.7869 8.66675 13.9447V10.0001C8.66675 9.82326 8.59651 9.65369 8.47148 9.52867C8.34646 9.40364 8.17689 9.3334 8.00008 9.3334C7.82327 9.3334 7.6537 9.40364 7.52867 9.52867C7.40365 9.65369 7.33341 9.82326 7.33341 10.0001V13.9447C6.40136 13.7869 5.55528 13.3042 4.94514 12.5822C4.33499 11.8601 4.00019 10.9454 4.00007 10.0001V7.95873C4.00007 7.2754 4.35007 6.6734 4.88074 6.32273C4.92007 6.3294 4.95941 6.3334 5.00007 6.3334Z" fill="#8B8D98"/>
</g>
<defs>
<clipPath id="clip0_1367_3446">
<rect width="16" height="16" fill="white"/>
</clipPath>
</defs>
</svg>
