<svg width="16" height="16" viewBox="0 0 16 16" fill="none" xmlns="http://www.w3.org/2000/svg">
<g clip-path="url(#clip0_1367_3456)">
<path d="M5.66671 10.3334L10.3334 5.66669M6.00004 2.66671V1.33337M10 13.3334V14.6667M2.66671 6.00004H1.33337M13.3334 10H14.6667M3.27618 3.27618L2.33337 2.33337M12.7239 12.7238L13.6667 13.6666M8.00006 11.7712L6.58585 13.1854C5.54445 14.2268 3.85601 14.2268 2.81461 13.1854C1.77322 12.144 1.77322 10.4556 2.81461 9.4142L4.22883 7.99998M11.7713 7.99998L13.1855 6.58577C14.2269 5.54437 14.2269 3.85593 13.1855 2.81453C12.1441 1.77313 10.4557 1.77313 9.41428 2.81453L8.00006 4.22875" stroke="#8B8D98" stroke-width="1.33333" stroke-linecap="round" stroke-linejoin="round"/>
</g>
<defs>
<clipPath id="clip0_1367_3456">
<rect width="16" height="16" fill="white"/>
</clipPath>
</defs>
</svg>
