<svg width="24" height="24" viewBox="0 0 24 24" fill="none" xmlns="http://www.w3.org/2000/svg">
<g clip-path="url(#clip0_33_1450)">
<rect x="-6" width="36" height="24" rx="3" fill="#9CADDE"/>
<mask id="mask0_33_1450" style="mask-type:luminance" maskUnits="userSpaceOnUse" x="-6" y="0" width="36" height="24">
<rect x="-6" width="36" height="24" rx="3" fill="white"/>
</mask>
<g mask="url(#mask0_33_1450)">
<path d="M-6 0H30V24H-6V0Z" fill="white"/>
<path fill-rule="evenodd" clip-rule="evenodd" d="M30 3.00012H-6V5.99958H30V3.00012ZM30 8.99976H-6V11.9992H30V8.99976ZM-6 14.9994H30V17.9989H-6V14.9994ZM30 20.9998H-6V23.9992H30V20.9998Z" fill="#D80027"/>
<path d="M-6 0H12V12.923H-6V0Z" fill="#2E52B2"/>
<path fill-rule="evenodd" clip-rule="evenodd" d="M1.01862 2.07568L0.728456 2.96775H-0.208984L0.549896 3.51853L0.259736 4.4106L1.01862 3.85909L1.77678 4.4106L1.48734 3.51853L2.2455 2.96775H1.30806L1.01862 2.07568ZM0.728456 6.18607L1.01862 5.29401L1.30806 6.18607H2.2455L1.48734 6.73686L1.77678 7.62892L1.01862 7.07813L0.259736 7.62892L0.549896 6.73686L-0.208984 6.18607H0.728456ZM1.01862 8.51233L1.30806 9.40439H2.2455L1.48734 9.95518L1.77678 10.8465L1.01862 10.2957L0.259736 10.8465L0.549896 9.95518L-0.208984 9.40439H0.728456L1.01862 8.51233ZM-2.65458 9.40442L-2.94402 8.51235L-3.23418 9.40442H-4.1709L-3.41202 9.95521L-3.70218 10.8465L-2.9433 10.2958L-2.18514 10.8465L-2.47458 9.95521L-1.71642 9.40442H-2.65458ZM-3.23418 6.18608L-2.94402 5.29402L-2.65458 6.18608H-1.71642L-2.47458 6.73687L-2.18514 7.62893L-2.9433 7.07814L-3.70218 7.62893L-3.41202 6.73687L-4.1709 6.18608H-3.23418ZM-3.23418 2.96775L-2.94402 2.07568L-2.65458 2.96775H-1.71642L-2.47458 3.51853L-2.18514 4.4106L-2.9433 3.85909L-3.70218 4.4106L-3.41202 3.51853L-4.1709 2.96775H-3.23418ZM4.98151 5.29401L4.69135 6.18607H3.75391L4.51279 6.73686L4.22263 7.62892L4.98151 7.07813L5.73967 7.62892L5.44951 6.73686L6.20839 6.18607H5.27095L4.98151 5.29401ZM4.98151 8.51233L5.27095 9.40439H6.20839L5.44951 9.95518L5.73967 10.8465L4.98151 10.2957L4.22263 10.8465L4.51279 9.95518L3.75391 9.40439H4.69135L4.98151 8.51233ZM9.23478 9.40442L8.94534 8.51235L8.65518 9.40442H7.71774L8.4759 9.95521L8.18646 10.8465L8.94534 10.2958L9.7035 10.8465L9.41334 9.95521L10.1722 9.40442H9.23478ZM8.65518 6.18608L8.94534 5.29402L9.23478 6.18608H10.1722L9.41334 6.73687L9.7035 7.62893L8.94534 7.07814L8.18646 7.62893L8.4759 6.73687L7.71774 6.18608H8.65518ZM4.98151 2.07568L4.69135 2.96775H3.75391L4.51279 3.51853L4.22263 4.4106L4.98151 3.85909L5.73967 4.4106L5.44951 3.51853L6.20839 2.96775H5.27095L4.98151 2.07568ZM8.65518 2.96775L8.94534 2.07568L9.23478 2.96775H10.1722L9.41334 3.51853L9.7035 4.4106L8.94534 3.85909L8.18646 4.4106L8.4759 3.51853L7.71774 2.96775H8.65518Z" fill="#F0F0F0"/>
</g>
</g>
<defs>
<clipPath id="clip0_33_1450">
<rect width="24" height="24" rx="12" fill="white"/>
</clipPath>
</defs>
</svg>
