<svg xmlns="http://www.w3.org/2000/svg" width="24" height="24" viewBox="0 0 24 24" fill="none">
  <path d="M1.71136 18.1165C1.56874 18.0196 1.52837 17.8527 1.45033 17.7154C1.0413 16.9912 0.734533 16.2212 0.495037 15.4243C0.110227 14.1509 -0.0377761 12.8478 0.00797043 11.5206C0.0698628 9.8083 0.489655 8.18489 1.24582 6.65032C1.44226 6.24918 1.66292 5.8615 1.91318 5.49266C2.01275 5.42805 2.12577 5.44689 2.2361 5.44689H21.7672C21.8721 5.44689 21.9771 5.43074 22.074 5.48997C22.4453 6.01765 22.7359 6.59109 22.9943 7.18338C23.8177 9.06794 24.1325 11.036 23.9496 13.0847C23.8634 14.0539 23.6697 15.0016 23.3468 15.9197C23.0938 16.6385 22.7871 17.3331 22.3969 17.9873C22.3673 18.0358 22.3484 18.095 22.2865 18.1165" fill="#FDC200"/>
  <path d="M22.1547 18.1273C22.2058 18.1273 22.2596 18.122 22.3108 18.122C22.3 18.2889 22.1762 18.402 22.0928 18.5285C20.9949 20.2138 19.5687 21.5465 17.8088 22.5157C16.579 23.1941 15.2712 23.641 13.88 23.8537C12.3057 24.096 10.7423 24.0395 9.19766 23.6679C7.62344 23.291 6.18377 22.6126 4.88134 21.6434C3.71076 20.7738 2.73125 19.7238 1.93472 18.5016C1.85668 18.3831 1.75443 18.2727 1.73828 18.122L22.1547 18.1273ZM1.99931 5.40387C2.63976 4.41852 3.41745 3.55431 4.31623 2.79779C5.2204 2.03859 6.21337 1.42476 7.29783 0.961694C8.23698 0.560552 9.20842 0.280561 10.2202 0.132488C11.1755 -0.00750785 12.1416 -0.0371223 13.1023 0.0463368C14.4908 0.167487 15.8201 0.522861 17.0822 1.10977C18.5192 1.78013 19.7759 2.69818 20.8469 3.86661C21.2936 4.3539 21.7134 4.86543 22.0605 5.43079C21.9771 5.48733 21.8802 5.4631 21.7887 5.4631C16.1592 5.46579 10.527 5.4631 4.89748 5.4631C3.99601 5.4631 3.09722 5.4631 2.19575 5.46041C2.12847 5.46579 2.03698 5.50618 1.99931 5.40387Z" fill="#C40B1E"/>
  <path d="M11.625 13.7475C11.5846 13.489 11.6357 13.2333 11.6519 12.9775C11.6546 12.9587 11.6573 12.9398 11.6627 12.921C11.7138 12.8241 11.7972 12.7487 11.8618 12.6598C12.0394 12.5306 12.2251 12.4202 12.4565 12.431C12.4969 12.4337 12.5318 12.4095 12.5695 12.396C12.9543 12.4983 13.1831 12.746 13.2584 13.1364C13.2719 13.209 13.2799 13.2898 13.366 13.3221C13.7643 13.3571 14.1653 13.3329 14.5635 13.3356C15.0102 13.3383 14.9349 13.3679 14.9376 13.7017C14.9403 14.0275 14.9241 14.3506 14.943 14.6763C14.9672 15.1178 14.8945 15.5271 14.6254 15.8878C14.6173 15.8959 14.6066 15.8986 14.5958 15.8986C14.4155 16.009 14.2406 16.1247 14.0361 16.184L14.0388 16.1813C13.8746 16.2674 13.697 16.219 13.5248 16.227C13.4548 16.2297 13.3849 16.227 13.3176 16.227C13.0916 16.2432 12.9436 16.0924 12.7794 15.974C12.7579 15.9578 12.7417 15.939 12.7229 15.9201C12.6664 15.8367 12.5991 15.7667 12.5372 15.6886C12.4673 15.5809 12.0421 15.9686 11.9775 15.8582C11.9291 15.6294 11.9479 15.2525 11.9318 15.0209C11.9264 14.9509 11.9075 14.1136 11.8968 14.0463" fill="#AA1619"/>
  <path d="M13.2988 13.3566C13.2261 13.3243 13.245 13.2543 13.2288 13.1951C13.1589 12.8855 13.0512 12.6055 12.7014 12.5166C12.6503 12.5032 12.6395 12.4089 12.5641 12.4547C12.4484 12.4493 12.3812 12.4036 12.3812 12.277C12.3812 11.7682 12.3758 11.2594 12.3839 10.7505C12.3839 10.7209 12.3919 10.694 12.4027 10.6671C12.4592 10.5675 12.5534 10.5513 12.6556 10.5486C13.3553 10.5298 14.0576 10.5782 14.7573 10.5621C14.9107 10.5594 14.9322 10.6482 14.9403 10.7748C14.9618 11.2378 14.9483 11.7009 14.9591 12.164C15.0237 12.382 15.0076 12.5974 14.9403 12.8101V12.8074C14.986 12.9635 14.9241 13.117 14.9349 13.2705C14.9403 13.3431 14.8918 13.3674 14.8219 13.3647C14.3133 13.3593 13.8047 13.3835 13.2988 13.3566Z" fill="#DADADA"/>
  <path d="M13.9822 10.1746C13.923 10.2284 14.0656 10.336 14.0818 10.3925C14.141 10.5944 13.8181 10.5029 13.7158 10.5432C13.6862 10.554 14.324 10.519 14.2944 10.5486C14.62 10.5486 14.3751 10.5298 14.7007 10.5298C14.9698 10.5298 14.9698 10.5298 14.9698 10.8069L14.9779 12.1632C14.9644 12.1766 14.951 12.1766 14.9375 12.1632C14.9294 11.7003 14.9133 11.2375 14.9133 10.7746C14.9133 10.6347 14.8648 10.5944 14.733 10.5944C14.0333 10.597 11.1648 10.5997 10.71 10.5944C10.3709 10.4598 10.753 10.0831 10.6669 10.1746H13.9822Z" fill="#9F8604"/>
  <path d="M12.2008 7.83252C12.2385 7.82175 12.2761 7.82175 12.3165 7.82444C12.4295 7.81636 12.5318 7.86752 12.6394 7.89175C12.7713 7.84598 12.9031 7.81367 13.0431 7.79752C13.3175 7.76252 13.5059 7.93751 13.7239 8.04789C13.7508 8.06136 13.7481 8.10982 13.8019 8.09635C14.0979 8.02097 14.3805 8.06136 14.6496 8.20135C14.9133 8.33866 15.0721 8.61326 15.0505 8.84479C15.0532 9.14363 14.48 9.91899 13.9849 10.1774H10.6669C10.4194 10.1478 9.32413 8.78557 9.6309 8.33327" fill="#9F8604"/>
  <path d="M9.60671 8.35968C9.85428 7.82418 10.8177 8.06367 10.893 8.06905C10.9953 8.07713 11.0894 7.92374 11.1567 7.84301C11.1567 7.84301 11.4258 7.66272 11.59 7.77036C11.7783 7.85109 12.0124 7.92105 12.2008 7.83225" fill="#9F8604"/>
  <path d="M15.769 12.659C15.7287 12.6429 15.7045 12.581 15.6506 12.6025C15.4757 12.6752 15.2874 12.6483 15.1044 12.6832C15.0156 12.6994 14.9725 12.7424 14.9375 12.8097C14.9187 12.5944 14.916 12.3792 14.9375 12.1612H14.9779C15.2174 12.1477 15.4569 12.1316 15.6964 12.1181C15.7233 12.1047 15.7475 12.0912 15.7798 12.0858C15.8578 12.0778 15.9359 12.0805 16.0112 12.0939C16.1915 12.1504 16.388 12.0778 16.5656 12.1612C16.692 12.293 16.8777 12.3173 17.023 12.4168C17.1441 12.4976 17.1926 12.581 17.136 12.7209C17.1145 12.7693 17.1038 12.8205 17.0903 12.8689C17.0203 13.1111 16.8723 13.2537 16.6086 13.2483" fill="#AB2C17"/>
  <path d="M16.5898 13.6877C16.6383 13.7065 16.6894 13.7227 16.7351 13.7415C17.1549 13.9218 17.1038 14.0241 17.0096 14.4062C16.98 14.5246 16.8239 14.5407 16.797 14.6672C16.7943 14.6833 16.7459 14.6564 16.7324 14.6295C16.6948 14.5569 16.6598 14.4761 16.7109 14.3981C16.789 14.2743 16.7298 14.2124 16.6194 14.1667C16.6033 14.1748 16.5871 14.1774 16.571 14.1774C16.4687 14.1425 16.3665 14.1075 16.2615 14.0752C16.1243 14.0187 15.9897 13.9568 15.8498 13.903C15.7583 13.8868 15.7449 13.7819 15.6722 13.7415C15.6372 13.72 15.6022 13.7011 15.5699 13.6769C15.3627 13.5208 15.3035 13.2544 15.4408 13.0392C15.4758 12.9853 15.5377 12.9369 15.613 12.9342C15.6749 12.9342 15.726 12.9127 15.7691 12.8696" fill="#AB1719"/>
  <path d="M9.30807 13.6204C9.20043 13.6715 8.72144 14.0052 8.60842 14.0456C8.50885 14.0967 8.39852 14.1209 8.29896 14.1693C8.26128 14.1882 8.22092 14.1774 8.18055 14.1747C8.0783 14.2285 8.08906 14.312 8.12135 14.3981C8.15095 14.4788 8.1671 14.5649 8.08099 14.616C7.98949 14.6726 7.80651 14.3012 7.75 14.2581C7.55894 14.1101 7.90338 13.7442 8.12135 13.6311C8.4039 13.432 9.01206 12.9315 9.07934 12.8831" fill="#AA1819"/>
  <path d="M9.06586 12.8428C9.18964 12.867 9.39954 12.9881 9.41837 13.1307C9.44259 13.311 9.52332 13.5074 9.2919 13.6312" fill="#AA1819"/>
  <path d="M9.89202 12.5731C9.10356 12.3256 8.45773 13.2512 8.26936 13.2512C8.01641 13.2136 7.55356 12.8611 7.59662 12.6135C7.62084 12.4789 8.11328 12.2529 8.229 12.1991C8.27205 12.1345 9.74671 12.0457 9.89202 12.156" fill="#A9231A"/>
  <path d="M9.32691 15.8227C9.29462 15.863 9.25156 15.8738 9.20312 15.8738C8.84253 15.8819 8.48463 15.8819 8.12404 15.8738C8.07561 15.8711 8.03255 15.863 8.00026 15.8227C8.02179 15.6074 8.15634 15.4352 8.21554 15.2333C8.23707 15.2145 8.26398 15.193 8.29089 15.1983C8.55729 15.2495 8.8237 15.1957 9.0901 15.1983C9.13316 15.236 9.16007 15.3383 9.16007 15.3383" fill="#B9A303"/>
  <path d="M10.1665 15.8285C10.2203 15.7746 10.1961 15.7073 10.1961 15.6481C10.1988 14.9993 10.1961 14.3504 10.1961 13.7043C10.1961 13.6585 10.1934 13.6101 10.1988 13.5643C10.2069 13.4943 10.223 13.4162 10.2984 13.3974C10.3925 13.3732 10.3522 13.4782 10.3952 13.5105C10.4087 13.5212 10.4275 13.5212 10.4437 13.5266C10.4948 13.5778 10.4894 13.6451 10.4894 13.707C10.4921 14.4097 10.4921 15.1123 10.4867 15.815C10.4867 15.9012 10.5271 16.0546 10.336 16.0035L10.1665 15.8285Z" fill="#A31518"/>
  <path d="M12.7821 15.9279C12.9489 15.9979 13.0458 16.1997 13.2584 16.1782C13.3795 16.2293 13.5113 16.2051 13.6324 16.2401C13.6889 16.2562 13.7804 16.275 13.6728 16.3531C13.4763 16.3665 13.2987 16.4553 13.1077 16.4903C12.5264 16.6114 11.9533 16.5737 11.3855 16.4177H11.3882C11.3424 16.38 11.2805 16.3935 11.2294 16.3719C11.1729 16.3477 11.1164 16.3154 11.1406 16.2347C11.1675 16.2105 11.4016 16.2212 11.4366 16.2185C11.5119 16.2132 11.7622 16.1055 11.8349 16.084C11.8671 16.0759 12.3219 15.753 12.4296 15.4758" fill="#CECECB"/>
  <path d="M16.5683 14.1589L16.6194 14.1642C16.6221 14.5571 16.5764 14.95 16.6463 15.3402C16.6598 15.4075 16.6867 15.4559 16.7217 15.5097C16.7055 15.6066 16.6221 15.5958 16.5575 15.5985C16.2911 15.6066 16.0247 15.6093 15.7583 15.5958C15.6884 15.5932 15.5834 15.6066 15.6022 15.4747C15.718 15.3806 15.691 15.2353 15.6964 15.1222C15.7153 14.6944 15.7045 14.2638 15.7045 13.8333C15.7045 13.801 15.683 13.7687 15.6722 13.7364C15.7583 13.7337 15.7691 13.8359 15.8391 13.8548C15.8229 14.2127 15.831 14.5733 15.831 14.9312C15.831 15.1276 15.8471 15.1384 16.0355 15.1438C16.1216 15.1464 16.2077 15.1411 16.2965 15.1464C16.5226 15.133 16.5253 15.133 16.5253 14.907C16.5279 14.724 16.5253 14.541 16.5253 14.3553C16.5279 14.288 16.5199 14.2181 16.5683 14.1589Z" fill="#A8920A"/>
  <path d="M9.95658 13.3891C10.1207 13.3568 10.1638 13.4295 10.1611 13.5883C10.153 14.1887 10.1557 14.7918 10.1584 15.3921C10.1584 15.5214 10.153 15.6425 10.0938 15.7583C9.9808 15.699 9.96465 15.5779 9.92429 15.4756C9.93774 15.4567 9.9512 15.4352 9.94581 15.411C9.83548 14.7864 9.93505 14.1591 9.90276 13.5318C9.90276 13.478 9.91621 13.4295 9.95658 13.3891Z" fill="#B8A100"/>
  <path d="M8.27735 10.5918C8.2935 10.4411 8.1132 10.4061 8.08898 10.2796C8.16971 10.2285 8.27466 10.2877 8.3527 10.2231C8.58412 10.25 8.55183 10.0616 8.59219 9.93247V9.92977C8.65678 9.8921 8.68638 9.92977 8.70791 9.98359C8.77787 10.1639 8.77787 10.1639 8.91242 10.0266L9.07926 10.0455C9.03889 10.1451 9.01737 10.2339 9.16537 10.2608C9.1869 10.2635 9.20035 10.2877 9.1869 10.3146L9.08195 10.4572C8.96893 10.6321 9.14922 10.5918 9.2165 10.6375L9.21919 10.6994C9.20035 10.7344 9.17344 10.7505 9.13308 10.7424C8.88013 10.694 8.62449 10.7263 8.36884 10.7155C8.29619 10.7128 8.22084 10.7155 8.16702 10.6563C8.19393 10.5971 8.25313 10.6267 8.27735 10.5918Z" fill="#6D5703"/>
  <path d="M16.1243 13.491C15.796 13.3726 15.796 13.3726 15.7798 13.0416C15.7771 12.9851 15.7717 12.9286 15.769 12.8694C15.769 12.7994 15.7717 12.7294 15.7717 12.6568C15.8121 12.6083 15.8498 12.5599 15.917 12.6191C15.9924 12.6514 16.065 12.6756 16.1485 12.6702C16.2669 12.6649 16.3341 12.7294 16.3449 12.8425C16.3611 13.0201 16.3611 13.2004 16.3449 13.378C16.3315 13.5313 16.24 13.5367 16.1243 13.491Z" fill="#D9D8D8"/>
  <path d="M15.7771 12.1204L15.6964 12.1177C15.7098 11.8728 15.7421 11.6253 15.7314 11.3804C15.726 11.2351 15.7314 11.0736 15.6345 10.9445C15.648 10.8557 15.7233 10.861 15.7825 10.8584C16.0247 10.8476 16.2669 10.8476 16.5091 10.861C16.5736 10.8637 16.6759 10.8557 16.6463 10.9794C16.571 11.0306 16.6382 11.0844 16.6382 11.1382C16.6382 11.2028 16.6248 11.2728 16.5817 11.3293C16.4041 11.3077 16.2292 11.2997 16.0516 11.3104C15.8417 11.3239 15.8309 11.332 15.8282 11.5445C15.8256 11.6764 15.8309 11.811 15.8256 11.9428C15.8256 12.0047 15.8282 12.072 15.7771 12.1204Z" fill="#A38F09"/>
  <path d="M16.6491 10.9793C16.6464 10.9308 16.6195 10.9093 16.571 10.9093C16.2804 10.9093 15.9871 10.9093 15.6965 10.912C15.6776 10.912 15.6588 10.9335 15.6399 10.9443C15.5296 10.8932 15.5162 10.7963 15.5458 10.6994C15.5807 10.5756 15.6938 10.5971 15.7879 10.5945C15.8956 10.5406 15.9978 10.6106 16.1082 10.5998C16.2723 10.5837 16.4338 10.5756 16.5791 10.4868C16.5872 10.5245 16.5791 10.5649 16.6248 10.5891C16.7998 10.6913 16.8078 10.8393 16.6491 10.9793Z" fill="#C1A900"/>
  <path d="M15.6022 15.4785C15.6076 15.5243 15.6345 15.5485 15.683 15.5485C16.0086 15.5485 16.3369 15.5485 16.6625 15.5458C16.6813 15.5458 16.7001 15.5243 16.719 15.5135C16.7782 15.6104 16.7351 15.7395 16.8239 15.8283C16.7916 15.866 16.7459 15.8768 16.6974 15.8795C16.3503 15.8875 16.0005 15.8902 15.6534 15.8768C15.6049 15.8741 15.5592 15.866 15.5296 15.8257C15.5592 15.7099 15.4731 15.57 15.6022 15.4785Z" fill="#C1AB01"/>
  <path d="M9.16806 10.8503C9.11962 10.9876 9.14653 11.2701 9.08195 11.4047C8.95547 11.3078 8.80747 11.3078 8.65677 11.3051C8.51953 11.3024 8.37691 11.3455 8.25044 11.2648C8.14818 11.1921 8.22353 10.9391 8.16971 10.853" fill="#A48F08"/>
  <path d="M8.23166 12.1986L8.2478 11.2622C8.48461 11.2595 8.71872 11.2595 8.95553 11.2514C9.07662 11.246 9.04164 11.351 9.08201 11.4021C9.08201 11.4802 9.07932 11.5609 9.07932 11.6389C9.04971 11.7439 9.06317 11.8515 9.07393 11.9591C9.07932 12.0157 9.09277 12.0722 9.05241 12.1233L8.23166 12.1986Z" fill="#B7B2AB"/>
  <path d="M9.15463 10.9793C9.14656 10.9201 9.10888 10.9066 9.05506 10.9066H8.27199C8.21817 10.9066 8.1805 10.9201 8.17242 10.9793C8.0594 10.9147 8.00289 10.8205 8.04326 10.6914C8.07824 10.5783 8.18319 10.5918 8.27468 10.5891L8.20202 10.651C8.54647 10.6833 8.88553 10.6268 9.21921 10.6941C9.27303 10.8098 9.24074 10.9013 9.15463 10.9793Z" fill="#BDA600"/>
  <path d="M16.1243 13.491C16.2561 13.5098 16.3126 13.4614 16.3019 13.3188C16.2911 13.1762 16.2965 13.0309 16.2992 12.8855C16.3019 12.7483 16.248 12.6783 16.1054 12.6864C16.0354 12.6891 15.9655 12.681 15.917 12.6218L16.4095 12.673C16.431 12.6622 16.4525 12.6676 16.4714 12.681C16.6571 12.8371 16.5575 13.0605 16.6113 13.2488C16.5736 13.3914 16.5817 13.5394 16.5898 13.6848C16.4176 13.6605 16.2803 13.5529 16.1243 13.491Z" fill="#BEB7B1"/>
  <path d="M16.0569 11.2625C16.1888 11.2625 16.3233 11.2625 16.4552 11.2571C16.5144 11.2544 16.5574 11.2732 16.5817 11.3271L16.5682 12.1586C16.3825 12.1855 16.1969 12.1693 16.0166 12.129C16.2453 12.0698 16.2749 11.9029 16.2534 11.7038C16.248 11.6527 16.248 11.5988 16.2534 11.5477C16.2614 11.4347 16.2453 11.3405 16.108 11.319C16.0758 11.319 16.0542 11.2974 16.0569 11.2625Z" fill="#C3C3C0"/>
  <path d="M15.422 16.2589C15.3439 16.1136 15.3601 16.0732 15.4946 16.0194C15.6615 15.9521 15.8256 15.9467 16.0005 16.0005C16.127 16.0409 16.2642 16.0355 16.3907 15.9844C16.5683 15.9144 16.8186 15.9871 16.9128 16.119C16.937 16.1566 16.9343 16.197 16.9262 16.2374" fill="#1C5DA4"/>
  <path d="M16.5736 10.4867C16.3395 10.737 16.0596 10.6536 15.7851 10.5944C15.7798 10.5056 15.734 10.441 15.6667 10.3898C15.9089 10.2391 16.178 10.2499 16.4471 10.2822C16.5117 10.2903 16.5763 10.3279 16.6166 10.3898L16.5736 10.4867Z" fill="#685303"/>
  <path d="M16.9235 16.3211C16.937 16.4395 16.9316 16.5229 16.7701 16.4529C16.6221 16.3883 16.4633 16.4018 16.3126 16.4529C16.2212 16.4825 16.1324 16.5014 16.0436 16.4637C15.8686 16.391 15.6937 16.391 15.5188 16.4556C15.4515 16.4798 15.3923 16.496 15.3762 16.3991C15.3789 16.3614 15.3681 16.3184 15.4085 16.2942C15.6076 16.2215 15.8121 16.1946 16.0166 16.2646C16.1377 16.3049 16.2615 16.2834 16.3745 16.2484C16.5737 16.1892 16.7486 16.235 16.9235 16.3211Z" fill="#27639F"/>
  <path d="M9.38603 15.855C9.46676 16.038 9.4533 16.256 9.43985 16.482C9.27839 16.4255 8.96624 16.3905 8.80209 16.4578C8.70521 16.4982 8.61372 16.4847 8.51415 16.4551C8.34731 16.404 8.12934 16.3932 7.95712 16.4551C7.77683 16.4793 7.90599 15.8954 7.90061 15.8254" fill="#2C6498"/>
  <path d="M16.014 10.3171C15.8929 10.3171 15.796 10.4274 15.6668 10.3897C15.6345 10.379 15.6103 10.3494 15.6023 10.3171C15.5942 10.1744 15.6749 10.0668 15.8202 10.0856C16.0597 10.1152 16.2965 10.0749 16.5333 10.1099C16.6087 10.1206 16.6894 10.1341 16.7217 10.2148C16.7567 10.309 16.6652 10.3413 16.6167 10.3924L16.6141 10.3897L16.014 10.3171Z" fill="#7E2F0E"/>
  <path d="M16.6166 10.3925C16.7404 10.2122 16.7162 10.153 16.4929 10.1476C16.3933 10.1449 16.2776 10.0723 16.1888 10.1826C16.1 10.1019 15.987 10.153 15.8847 10.1288C15.7475 10.0938 15.6317 10.1772 15.6021 10.3172C15.5456 10.1665 15.5914 10.083 15.7259 10.0319C15.8578 9.98348 16.0192 10.0104 16.1188 9.87853C16.1403 9.84893 16.1834 9.85162 16.213 9.88391C16.3099 9.99424 16.4444 10.0238 16.579 10.0373C16.6705 10.0454 16.7404 10.0723 16.7485 10.1745C16.7566 10.2741 16.7593 10.3764 16.6166 10.3925Z" fill="#986C02"/>
  <path d="M15.4004 16.3181L15.3762 16.3989C15.3654 16.224 15.352 16.0517 15.3816 15.8795C15.3923 15.8849 15.4058 15.893 15.4138 15.8903C15.7556 15.7961 16.0974 15.9818 16.4418 15.8741C16.6059 15.823 16.7755 15.8688 16.9208 15.9683C16.9369 16.0194 16.9316 16.0706 16.91 16.119C16.7217 16.0544 16.5521 15.9226 16.3315 16.0571C16.2265 16.119 16.0785 16.1056 15.9601 16.0437C15.7691 15.9414 15.5995 16.0383 15.43 16.0894C15.36 16.1109 15.3762 16.1917 15.4273 16.2428C15.4488 16.2805 15.4138 16.2966 15.4004 16.3181Z" fill="#AFB2B6"/>
  <path d="M9.44792 16.3129C9.37796 16.3237 9.31337 16.3103 9.2461 16.2941C9.10079 16.2618 8.95009 16.2457 8.81016 16.3156C8.74558 16.3452 8.6783 16.356 8.60834 16.3372C8.41459 16.278 8.21815 16.2484 8.01901 16.321C7.98403 16.3345 7.93829 16.3183 7.90061 16.3156V16.243C8.12665 16.1461 8.35 16.0977 8.57874 16.2349C8.62987 16.2645 8.69983 16.2645 8.74558 16.2349C8.95547 16.1084 9.16268 16.1434 9.37257 16.2268C9.40756 16.2403 9.42639 16.2188 9.44523 16.2026C9.44792 16.2376 9.44792 16.2753 9.44792 16.3129Z" fill="#A4B2C1"/>
  <path d="M12.7578 7.8427C12.7336 7.8427 12.6637 7.89114 12.6394 7.89114C12.5856 7.88845 12.5695 7.8454 12.5157 7.8427C12.4995 7.84001 12.4242 7.84809 12.4107 7.8427C12.3757 7.82925 12.1793 7.8427 12.1497 7.8158C12.1416 7.80234 12.1712 7.63819 12.1685 7.62204C12.182 7.55477 12.295 7.50364 12.2546 7.44982C12.3058 7.39331 12.2681 7.34218 12.2439 7.29106C12.1954 7.18611 12.2143 7.1 12.3192 7.0408C12.3865 7.00312 12.4457 6.98428 12.4968 7.0677C12.5479 7.15113 12.6664 7.2184 12.5237 7.32335C12.4726 7.36102 12.5103 7.40677 12.5372 7.44444C12.5345 7.49288 12.4887 7.5467 12.5426 7.58975C12.5775 7.61666 12.6072 7.58168 12.6341 7.56284C12.6798 7.66241 12.6287 7.77005 12.7578 7.8427Z" fill="#B79401"/>
  <path d="M16.9207 15.9708C16.8535 15.9627 16.7862 15.9681 16.7189 15.9331C16.6167 15.8793 16.509 15.8873 16.4014 15.9331C16.2668 15.9923 16.1161 15.995 15.9789 15.9438C15.8175 15.8873 15.6641 15.8712 15.5134 15.96C15.4165 16.0165 15.3788 15.9815 15.3815 15.8793C15.4165 15.8254 15.4784 15.8308 15.5322 15.8228L16.8266 15.8254C16.9154 15.8362 16.9611 15.8739 16.9207 15.9708Z" fill="#1F5E9B"/>
  <path d="M7.89801 15.963C8.12405 15.9172 8.34471 15.8634 8.57613 15.9603C8.67032 15.998 8.79141 15.9764 8.89905 15.9361C8.98516 15.9065 9.07934 15.8769 9.17084 15.9119C9.23273 15.9361 9.33768 15.9603 9.31346 16.033C9.28117 16.1271 9.2112 16.0356 9.16007 16.0195C9.09818 15.998 9.02821 15.9818 8.9717 16.0087C8.76988 16.1056 8.57882 16.0895 8.37431 16.0114C8.29089 15.9791 8.18325 15.9737 8.09176 16.041C8.03525 16.0841 7.96528 16.0922 7.89262 16.0787L7.89801 15.963Z" fill="#ABB4BE"/>
  <path d="M15.4004 16.3181C15.4112 16.2939 15.4193 16.2696 15.43 16.2427C15.5915 16.1566 15.7556 16.1485 15.9306 16.197C16.057 16.232 16.1862 16.2696 16.3181 16.2077C16.5253 16.1136 16.7244 16.2024 16.9262 16.2373L16.9289 16.3181C16.4176 16.275 15.909 16.2696 15.4004 16.3181Z" fill="#A8B7C6"/>
  <path d="M9.25416 12.4009C9.07925 12.3014 9.20572 12.2502 9.28376 12.1857C9.29991 12.1722 9.31067 12.148 9.32413 12.1292L9.43177 12.1318C9.39409 12.261 9.4506 12.3902 9.43446 12.522" fill="#B7610D"/>
  <path d="M9.04424 12.6541C9.06845 12.7267 9.03885 12.8101 9.07922 12.8801V12.8828C9.07115 13.0066 9.03347 13.1304 9.06576 13.2568C9.0846 13.3295 9.03347 13.3429 8.97696 13.351C8.89085 13.3537 8.86663 13.2918 8.86125 13.2272C8.84779 13.0712 8.84241 12.9151 8.86394 12.7617C8.88009 12.6675 8.92852 12.5975 9.04424 12.6541Z" fill="#CFCBC8"/>
  <path d="M8.59224 9.93234C8.59493 9.95925 8.59224 9.98885 8.59762 10.0158C8.63261 10.2149 8.57071 10.2768 8.35544 10.2445C8.29085 10.1961 8.25049 10.1288 8.20474 10.0669C8.307 9.95118 8.47653 10.0158 8.59224 9.93234ZM8.91247 10.0265C8.88556 10.1046 8.88287 10.2176 8.76716 10.1987C8.67835 10.1853 8.64875 10.1019 8.67566 10.0104C8.6945 9.94311 8.64068 9.93772 8.59493 9.92965C8.59224 9.87583 8.58686 9.81663 8.65683 9.80587C8.70257 9.79779 8.72679 9.84354 8.73486 9.8839C8.75101 9.98616 8.88018 9.9458 8.91247 10.0265Z" fill="#945409"/>
  <path d="M8.08904 10.2795C8.05675 10.1692 8.09711 10.0992 8.20206 10.0669C8.30701 10.0803 8.33123 10.1611 8.35276 10.2445L8.08904 10.2795Z" fill="#9E2D11"/>
  <path d="M9.18688 10.3172C9.16805 10.3064 9.1519 10.2876 9.13037 10.2849C9.07117 10.2768 9.0012 10.2876 8.98237 10.2042C8.96084 10.1181 9.02542 10.0858 9.07924 10.0454C9.18957 10.1073 9.28914 10.1719 9.18688 10.3172Z" fill="#9D400E"/>
  <path d="M12.6368 7.56298C12.6341 7.60872 12.6395 7.65985 12.5722 7.66254C12.5211 7.66254 12.4807 7.64371 12.4672 7.59258C12.4538 7.528 12.4511 7.46341 12.5372 7.44727C12.5695 7.48494 12.6045 7.52261 12.6368 7.56298ZM12.2547 7.44996C12.408 7.45803 12.3704 7.54145 12.3246 7.63025C12.2546 7.68138 12.1954 7.66793 12.1497 7.59796C12.1416 7.51723 12.2035 7.48763 12.2547 7.44996Z" fill="#7C7F43"/>
  <path d="M9.2165 10.6378C9.14653 10.6351 9.07926 10.6297 9.0066 10.6271C9.00391 10.5517 9.03351 10.5006 9.08195 10.4575C9.04158 10.584 9.16806 10.5813 9.2165 10.6378Z" fill="#BDA600"/>
  <path d="M13.5114 14.6087C13.4306 14.5118 13.358 14.4203 13.2207 14.3826C13.0674 14.3395 13.0808 14.1564 13.0297 14.0353C13.0135 13.9976 13.0781 13.9599 13.1158 13.9922C13.2342 14.0918 13.4549 14.0864 13.4522 14.3179C13.4522 14.3879 13.5221 14.4687 13.584 14.4472C13.6513 14.4229 13.6352 14.3179 13.5975 14.2668C13.5221 14.1618 13.4845 14.073 13.5706 13.9518C13.6082 13.898 13.5517 13.8414 13.5114 13.8037C13.4629 13.7607 13.428 13.8037 13.393 13.8333C13.3284 13.8899 13.2423 13.9087 13.1911 13.8522C13.14 13.793 13.1885 13.7014 13.2234 13.6422C13.2692 13.5668 13.3445 13.6395 13.3984 13.6368C13.5813 13.6234 13.7643 13.6557 13.9473 13.6314C13.9796 13.626 14.0119 13.5991 14.0442 13.5991C14.2056 13.6018 14.3536 13.7068 14.5366 13.6153C14.6174 13.5749 14.6981 13.7122 14.6254 13.8253C14.5555 13.933 14.5501 14.0272 14.6362 14.1241C14.6658 14.1564 14.6712 14.2022 14.6577 14.2399C14.5716 14.4983 14.655 14.7595 14.6389 15.0152C14.6281 15.2064 14.5366 15.4056 14.4344 15.5725C14.3806 15.6614 14.2352 15.6991 14.1949 15.8256C14.1922 15.8364 14.1787 15.8498 14.1707 15.8498C13.9608 15.8714 13.767 16.0114 13.5437 15.9441C13.5383 15.9414 13.5329 15.936 13.5275 15.936C13.2369 15.9764 13.097 15.726 12.8951 15.6021C12.8655 15.586 12.8225 15.551 12.8252 15.5321C12.8521 15.3168 12.7148 15.1364 12.7175 14.9156C12.7202 14.7326 12.7687 14.5414 12.7229 14.3637C12.7014 14.2803 12.696 14.2399 12.7687 14.2399C12.8575 14.2372 12.879 14.073 12.9624 14.151C13.0378 14.2237 12.9194 14.2883 12.8951 14.361C12.8736 14.431 12.8628 14.5118 12.914 14.5764C12.9516 14.6222 13.0243 14.6329 13.0566 14.6087H13.5114Z" fill="#C29C04"/>
  <path d="M12.1577 13.9215C11.9129 13.7789 11.8106 13.5529 11.8214 13.2811C11.8321 13.0201 11.929 12.8021 12.1846 12.6783C12.4295 12.5599 12.7524 12.681 12.887 12.9447C13.0727 13.308 12.9462 13.752 12.6179 13.9188C12.4618 13.9834 12.3111 13.9996 12.1577 13.9215Z" fill="#0359B7"/>
  <path d="M11.52 13.1038C11.0679 13.1038 10.3225 13.1254 10.3305 12.9962C10.3413 12.8939 10.3924 11.1977 10.5673 10.9501C10.6615 10.802 11.6518 10.8289 11.7756 10.9797C11.8482 11.0685 12.1819 12.2208 11.7971 12.6219" fill="#6D5F03"/>
  <path d="M11.8968 16.0139C11.843 16.1028 11.738 16.1028 11.6573 16.1486C11.5712 16.1324 11.5927 16.0651 11.5927 16.0113V13.8709C11.5927 13.8144 11.5766 13.7471 11.6654 13.739C11.886 14.0244 11.8403 14.3609 11.8403 14.6867C11.8403 15.0797 11.8403 15.4728 11.843 15.8659C11.8403 15.9224 11.8322 15.9816 11.8968 16.0139Z" fill="#C2AB00"/>
  <path d="M12.2197 15.6525C12.1766 15.5825 12.1524 15.5098 12.1524 15.4237C12.1524 15.09 12.1443 14.7537 12.1443 14.42C12.1443 14.3554 12.1094 14.2612 12.2385 14.2612C12.3488 14.2612 12.3973 14.315 12.3946 14.42C12.3865 14.6783 12.4134 14.9394 12.3811 15.1977C12.3731 15.2542 12.3865 15.3107 12.3919 15.3672C12.4269 15.4991 12.3596 15.5879 12.2681 15.6686C12.252 15.6713 12.2331 15.6659 12.2197 15.6525Z" fill="#BBA501"/>
  <path d="M14.0333 11.647C14.0118 11.6255 14.0064 11.6013 14.0011 11.5717C13.9957 11.421 13.9553 11.2703 14.0145 11.125C14.0791 11.0739 14.1598 11.0443 14.2136 10.977C14.2621 11.055 14.3132 11.09 14.4074 11.0227C14.4585 10.9878 14.5473 10.942 14.5984 11.0012C14.655 11.0658 14.6388 11.16 14.5769 11.2219C14.3482 11.4452 14.3966 11.6874 14.4962 11.9484C14.5446 12.0749 14.4827 12.1933 14.3563 12.2633C14.1544 12.3736 14.1544 12.3763 14.2809 12.562C14.3374 12.6427 14.3024 12.7019 14.2486 12.7611C14.1706 12.675 14.1302 12.5674 14.0737 12.4705C14.0011 12.3467 14.1248 12.2929 14.1921 12.2202C14.0603 12.1799 14.0603 12.1799 14.0495 12.0803" fill="#B57E96"/>
  <path d="M14.0361 12.0938C14.0791 12.2202 14.219 12.126 14.2971 12.2068C14.2433 12.2444 14.1868 12.2687 14.1437 12.3144C14.0791 12.379 14.0657 12.4247 14.1356 12.5001C14.2002 12.5701 14.2486 12.6615 14.246 12.7638L14.2352 12.9979C14.1195 13.0302 14.0522 12.9199 13.9553 12.8984C13.9015 12.7665 14.0414 12.7853 14.0926 12.7234C14.0334 12.6508 13.8369 12.7907 13.8611 12.5862C13.8289 12.5351 13.8369 12.4759 13.845 12.4221C13.8854 12.1852 13.8827 12.1799 13.6459 12.161L13.6136 12.0642C13.5705 11.9969 13.5113 11.9269 13.5867 11.8462C13.6782 11.7466 13.7912 11.7574 13.9069 11.787C14.0038 11.8677 14.0441 11.97 14.0361 12.0938Z" fill="#E173A5"/>
  <path d="M14.0334 11.1223V11.5717C13.8854 11.7762 13.8047 11.795 13.5813 11.6578C13.5275 11.6255 13.471 11.5959 13.4145 11.569C13.3553 11.5394 13.323 11.499 13.3768 11.4344C13.4387 11.4237 13.5141 11.4479 13.5437 11.3645C13.5786 11.2703 13.654 11.2003 13.6917 11.1007C13.7186 11.0281 13.872 11.0362 13.9715 11.0227C14.0146 11.0442 14.0549 11.0631 14.0334 11.1223Z" fill="#E56FA5"/>
  <path d="M13.1641 11.6418L13.1561 11.6445C13.0565 11.6579 12.9919 11.6095 12.9462 11.5234C12.9327 11.4991 12.9193 11.4561 12.9031 11.4534C12.7578 11.4372 12.7336 11.4023 12.7712 11.2381C12.7955 11.1278 12.7605 11.0713 12.9004 11.1063C12.9327 11.1143 12.9542 11.0928 12.9758 11.0713C13.0081 11.039 13.035 10.9879 13.0888 11.0309C13.1238 11.0578 13.1318 11.1063 13.1076 11.1412C13.0511 11.2354 13.1372 11.2866 13.1614 11.3565" fill="#AA7489"/>
  <path d="M13.8181 12.4386C13.7697 12.4493 13.7616 12.4843 13.7562 12.5301C13.7239 12.7884 13.7239 12.7884 13.4763 12.7211C13.4171 12.7104 13.3606 12.6862 13.3337 12.6323C13.3014 12.5677 13.2772 12.487 13.4064 12.5139C13.5302 12.5785 13.5463 12.5059 13.5328 12.409C13.5221 12.3417 13.4844 12.261 13.5624 12.2233C13.6405 12.1829 13.7347 12.1749 13.8154 12.2125C13.958 12.2771 13.8369 12.3632 13.8181 12.4386Z" fill="#E173A5"/>
  <path d="M13.9607 11.0496C13.8827 11.0469 13.8289 11.1572 13.7374 11.098C13.7212 11.0873 13.7024 11.1061 13.7078 11.125C13.7562 11.2757 13.6217 11.3026 13.5436 11.3698C13.5086 11.2918 13.4252 11.2837 13.366 11.2434C13.3283 11.2164 13.2907 11.1842 13.3041 11.1303C13.3176 11.0819 13.3633 11.0927 13.4037 11.0819C13.584 11.0415 13.7777 11.0119 13.8235 10.7832C13.8692 10.8693 13.9204 10.9554 13.9607 11.0496Z" fill="#A96571"/>
  <path d="M13.1238 12.0239C13.113 12.0643 13.1022 12.102 13.0915 12.1397C13.0699 12.215 13.0484 12.2177 12.9731 12.1746C12.8304 12.0912 12.8385 11.9647 12.8358 11.8383C12.8331 11.7683 12.8977 11.7791 12.9408 11.7818C13.0161 11.7871 13.0888 11.8006 13.1641 11.8114C13.1857 11.8598 13.1534 11.8867 13.1211 11.9055C13.0457 11.954 13.0888 11.9863 13.1238 12.0239Z" fill="#A67C8D"/>
  <path d="M13.4064 12.5114C13.3095 12.5384 13.3257 12.5895 13.3849 12.6379C13.4172 12.6648 13.4737 12.6594 13.4737 12.7187C13.3795 12.8909 13.4037 12.8586 13.2584 12.7509C13.1077 12.6379 13.2315 12.5464 13.2207 12.4469C13.2153 12.4092 13.2691 12.4065 13.3041 12.4038C13.3795 12.4065 13.4172 12.4361 13.4064 12.5114Z" fill="#AC6986"/>
  <path d="M13.1238 12.0239C13.078 12.0159 13.008 12.0508 12.9946 11.9782C12.9811 11.9136 13.0376 11.8948 13.0888 11.8813C13.1238 11.8732 13.1453 11.8463 13.1587 11.8113L13.1883 11.7817C13.2771 11.8275 13.3606 11.6983 13.4521 11.7737C13.4736 11.7925 13.5274 11.7737 13.5247 11.8248C13.522 11.8625 13.4843 11.8759 13.4494 11.8813C13.339 11.9001 13.2341 11.9271 13.156 12.0132L13.1238 12.0239Z" fill="#DB6D9F"/>
  <path d="M13.1641 11.6418C13.0699 11.5691 13.0672 11.4292 12.9623 11.3646C12.9327 11.3484 12.9192 11.3242 12.9408 11.2946C12.965 11.2623 12.9919 11.2785 13.0134 11.3C13.0565 11.3458 13.1049 11.37 13.1668 11.3592C13.191 11.3969 13.2637 11.3511 13.2691 11.4184C13.2691 11.4453 13.2637 11.4776 13.2745 11.5018C13.2933 11.5449 13.3606 11.5691 13.3202 11.631C13.2718 11.7037 13.2153 11.6364 13.1641 11.6418Z" fill="#DD6DA0"/>
  <path d="M13.9527 12.8992C14.0791 12.84 14.1303 12.988 14.2325 12.9987C14.2325 13.0526 14.2164 13.1279 14.1572 13.0956C14.0765 13.0526 13.9042 13.0822 13.9527 12.8992Z" fill="#8B5765"/>
  <path d="M11.894 9.44205C11.8805 9.42859 11.8751 9.3963 11.8482 9.40437C11.8321 9.40975 11.8402 9.43397 11.8375 9.45012C11.7406 9.64656 11.5791 9.68154 11.3827 9.54969C11.3208 9.41514 11.4231 9.39092 11.5119 9.35594C11.5657 9.32903 11.6114 9.29404 11.6168 9.22677C11.5953 9.14604 11.5307 9.15411 11.4688 9.15142C11.4284 9.14873 11.3746 9.16757 11.3773 9.09491C11.3612 8.99265 11.2374 8.94422 11.2697 8.80429C11.2912 8.71548 11.3127 8.64014 11.3773 8.57824C11.5899 8.42755 11.8402 8.41948 12.085 8.39795C12.2142 8.40602 12.1954 8.48944 12.1685 8.57017C12.1416 8.6509 12.1362 8.7101 12.225 8.75585C12.3703 8.8312 12.1685 8.91193 12.2223 8.98996C12.2169 9.08684 12.1308 9.04916 12.0824 9.07607C12.0151 9.10837 11.9182 9.12451 11.9774 9.23753C12.0662 9.3075 12.1685 9.29404 12.2707 9.29404C12.3461 9.33979 12.3245 9.41245 12.3218 9.47703L12.2896 9.5147L11.894 9.44205Z" fill="#A91718"/>
  <path d="M12.6744 9.09474C12.5184 9.02477 12.4888 8.90368 12.6018 8.76375C12.6422 8.71262 12.6475 8.65611 12.6395 8.5996C12.6233 8.46236 12.6879 8.41931 12.8117 8.43545C13.0054 8.41123 13.1911 8.41931 13.3418 8.57C13.366 8.6292 13.4468 8.58615 13.4737 8.63997C13.5544 8.98441 13.5544 8.98441 13.2342 9.16201C13.1346 9.21583 13.1185 9.27234 13.2288 9.33424C13.2449 9.33962 13.2611 9.34769 13.2745 9.35307C13.3526 9.38537 13.5006 9.34231 13.4387 9.51453C13.3714 9.66254 13.2395 9.61948 13.1238 9.6141C13.0243 9.60872 13.0027 9.5253 12.9893 9.44188C12.9812 9.42304 12.9866 9.39075 12.9624 9.38806C12.9435 9.38806 12.9382 9.42035 12.922 9.43649C12.9139 9.51453 12.8332 9.54682 12.809 9.6141L12.8117 9.61141C12.6637 9.63024 12.5614 9.56835 12.4941 9.43918C12.4672 9.38267 12.4699 9.33424 12.5345 9.30464C12.556 9.29656 12.5776 9.29387 12.6018 9.29118C12.6691 9.28311 12.7579 9.29387 12.7848 9.22122C12.8117 9.15394 12.6933 9.15932 12.6744 9.09474Z" fill="#AA1819"/>
  <path d="M10.0616 9.06252C10.0481 8.9791 10.0696 8.87953 10.1584 8.82033C10.2338 8.70462 10.3441 8.67771 10.4733 8.70462C10.5432 8.71807 10.6078 8.70193 10.6751 8.68847C10.8392 8.65618 10.9926 8.66156 11.0707 8.84724C11.0841 8.858 11.1083 8.87415 11.1057 8.88222C11.0626 9.01139 11.0814 9.15939 10.9711 9.26434C10.8931 9.36391 10.928 9.41235 11.0438 9.41773C11.0841 9.42042 11.1245 9.40696 11.1649 9.42311C11.2483 9.485 11.251 9.54958 11.1783 9.62224C11.0411 9.77024 11.0061 9.77024 10.7558 9.59264C10.7047 9.64915 10.7531 9.76486 10.6509 9.78639C10.5836 9.80254 10.5271 9.77294 10.4787 9.72719L10.4571 9.65722C10.2176 9.62493 10.1692 9.52267 10.0965 9.31816L10.0616 9.06252Z" fill="#AA1719"/>
  <path d="M14.0037 9.65188C13.8261 9.76221 13.74 9.75683 13.6136 9.61959C13.584 9.42853 13.584 9.42315 13.7562 9.47159C13.8127 9.48773 13.8369 9.44737 13.8773 9.43122C13.8907 9.42315 13.9042 9.41508 13.9176 9.40969C14.0011 9.36664 13.9445 9.30744 13.9096 9.29398C13.7589 9.2294 13.732 9.08409 13.6728 8.9603C13.6674 8.94416 13.6674 8.92801 13.6674 8.91186C13.6728 8.88495 13.6943 8.8715 13.7158 8.85804C13.7831 8.68851 13.9176 8.65891 14.0764 8.6939C14.1437 8.70735 14.211 8.72081 14.2782 8.71004C14.4316 8.68851 14.5662 8.71542 14.6523 8.86074C14.7626 8.94954 14.7142 9.08678 14.7545 9.1998C14.7653 9.2294 14.5123 9.39893 14.472 9.39355C14.4316 9.38817 14.3912 9.3774 14.3536 9.38009C14.2944 9.38278 14.2325 9.39355 14.2136 9.46082C14.1975 9.52272 14.2648 9.54693 14.289 9.58999C14.3159 9.63574 14.4235 9.60883 14.3966 9.6761C14.3724 9.73799 14.3078 9.79989 14.2217 9.79719C14.1625 9.79719 14.0899 9.8241 14.0629 9.7353C14.0549 9.70839 14.0387 9.68417 14.0253 9.65726C14.0253 9.6465 14.0226 9.63035 14.0172 9.63035C14.0037 9.62497 14.0091 9.64112 14.0037 9.65188Z" fill="#A91718"/>
  <path d="M13.4386 10.239C13.6297 10.2471 13.6673 10.3413 13.4009 10.3978C13.1937 10.3978 12.4214 10.4516 12.4214 10.4516C12.0151 10.4516 11.3396 10.4032 11.2966 10.3924C11.0732 10.3305 11.0356 10.2605 11.4284 10.1825C11.6087 10.1744 11.9909 10.1233 12.4214 10.1233L13.4386 10.239Z" fill="#931B14"/>
  <path d="M11.1728 8.41643C11.1567 8.27919 11.2589 8.10697 11.3988 8.06123C11.6114 7.99395 11.8294 7.99126 12.0474 8.0397C12.1362 8.05853 12.1738 8.10697 12.1873 8.1877C12.2034 8.28188 12.1846 8.35723 12.0877 8.39221L11.1728 8.41643Z" fill="#FAC100"/>
  <path d="M13.3445 8.57222C13.175 8.49956 12.992 8.47803 12.8144 8.43767C12.7875 8.35425 12.6529 8.40269 12.6394 8.29236C12.6233 8.15243 12.6045 8.04748 12.8063 8.01249C13.0727 7.96406 13.3095 7.97482 13.5113 8.17126C13.6001 8.25737 13.6539 8.36232 13.6028 8.48611C13.5544 8.60182 13.436 8.56414 13.3445 8.57222ZM14.655 8.85477C14.542 8.77404 14.4128 8.73637 14.2809 8.70407C14.2002 8.66102 14.1087 8.63949 14.0145 8.64218C13.8665 8.65026 13.8315 8.53993 13.8692 8.45112C13.9042 8.37039 13.8854 8.19279 14.0737 8.23854C14.2298 8.27352 14.3859 8.29774 14.5393 8.35425C14.7007 8.41345 14.7626 8.53185 14.7976 8.67178C14.8245 8.77673 14.7815 8.85746 14.655 8.85477ZM10.4732 8.70407C10.371 8.74713 10.2526 8.74713 10.1584 8.81979C10.1072 8.81709 10.0373 8.88437 10.0077 8.80364C9.97807 8.72291 9.96731 8.63142 10.0292 8.55607C10.1449 8.41614 10.2741 8.29505 10.4732 8.28966C10.5243 8.28697 10.5755 8.26814 10.6239 8.26006C10.8876 8.21163 10.9549 8.28966 10.8984 8.56414C10.8822 8.64756 10.8257 8.63949 10.7692 8.64218C10.667 8.64218 10.5593 8.62604 10.4732 8.70407Z" fill="#F9BF00"/>
  <path d="M12.4942 8.60208C12.4807 8.66397 12.4888 8.74201 12.3838 8.74201C12.3004 8.74201 12.2843 8.69626 12.295 8.62899C12.3058 8.55364 12.3139 8.46753 12.4134 8.46753C12.4915 8.47022 12.4915 8.54019 12.4942 8.60208Z" fill="#B0AA83"/>
  <path d="M12.6153 9.90018C12.5857 10.0589 12.2224 10.0589 12.1982 9.90287C12.252 9.67683 12.5803 9.73872 12.6153 9.90018Z" fill="#A71817"/>
  <path d="M13.0915 10.0375C13.0458 9.93254 13.0243 9.95945 13.0915 9.88949C13.1992 9.87065 13.3472 9.85451 13.401 9.9756L13.3687 10.0294C13.2772 10.0805 13.1857 10.094 13.0915 10.0375Z" fill="#218957"/>
  <path d="M11.8375 9.4502C11.8025 9.42329 11.7541 9.39907 11.7864 9.34256C11.7944 9.32642 11.8267 9.31296 11.8429 9.31834C11.9101 9.33718 11.9075 9.38831 11.8913 9.44213L11.8375 9.4502Z" fill="#B87875"/>
  <path d="M12.9274 9.4395C12.9166 9.38837 12.9031 9.33725 12.9543 9.29688C12.9623 9.2915 12.9892 9.29419 12.9973 9.30495C13.0404 9.3507 13.0323 9.39914 12.9946 9.44219L12.9274 9.4395Z" fill="#B6827C"/>
  <path d="M12.4027 8.42185C12.3596 8.41916 12.3462 8.38956 12.3462 8.35457C12.3435 8.34112 12.3489 8.32497 12.3596 8.3169C12.3704 8.30614 12.3838 8.30075 12.3973 8.30075C12.4323 8.29806 12.4673 8.30614 12.4646 8.35188C12.4619 8.38417 12.4377 8.41378 12.4027 8.42185Z" fill="#B0AA83"/>
  <path d="M14.0038 9.65221C13.9688 9.60646 13.9527 9.56071 14.0146 9.52573C14.028 9.51766 14.063 9.52842 14.0711 9.54188C14.1114 9.59839 14.0469 9.61453 14.0253 9.64951C14.0199 9.64951 14.0119 9.64952 14.0038 9.65221Z" fill="#A36F6F"/>
  <path d="M16.057 11.2623C16.2992 11.2676 16.3288 11.4156 16.3019 11.6121C16.2912 11.6847 16.2992 11.7628 16.2992 11.8381C16.2992 12.1018 16.2804 12.1207 16.0167 12.1314L15.7799 12.1207C15.7799 11.9189 15.7772 11.717 15.7772 11.5125C15.7772 11.238 15.7772 11.238 16.057 11.2623Z" fill="#DADADA"/>
  <path d="M16.4687 12.6808L16.4068 12.6728C16.3934 12.6324 16.3772 12.5947 16.3315 12.5866C16.1566 12.5624 16.2427 12.4521 16.2615 12.3687C16.2911 12.2503 16.3718 12.2799 16.4499 12.3122C16.5145 12.3364 16.5602 12.3633 16.5225 12.4521C16.4929 12.5221 16.4875 12.6055 16.4687 12.6808Z" fill="#C19405"/>
  <path d="M16.902 12.6112C16.8993 12.6569 16.8993 12.7054 16.8885 12.7484C16.8804 12.7753 16.8616 12.7968 16.8374 12.813C16.8239 12.8211 16.7809 12.7995 16.7809 12.7942C16.7836 12.6784 16.606 12.6758 16.6302 12.5789C16.649 12.4981 16.754 12.4497 16.8401 12.4605C16.9127 12.4685 16.9289 12.5412 16.902 12.6112Z" fill="#C08E05"/>
  <path d="M15.3842 12.5435C15.2631 12.4978 15.2039 12.4009 15.1582 12.2933C15.1474 12.2717 15.1609 12.2475 15.1878 12.2394C15.2281 12.226 15.2739 12.2314 15.2981 12.2664C15.3492 12.3417 15.395 12.4009 15.4703 12.2879C15.4811 12.269 15.5188 12.2717 15.5242 12.2986C15.5403 12.3578 15.5053 12.409 15.4838 12.4601C15.465 12.5032 15.4327 12.5435 15.3842 12.5435Z" fill="#BF8207"/>
  <path d="M16.178 12.2501C16.143 12.3201 16.0838 12.3578 16.0892 12.4304C16.0919 12.4654 16.0838 12.5058 16.0381 12.5004C16.0031 12.495 15.9896 12.46 15.9816 12.4224C15.952 12.2744 15.9977 12.2286 16.178 12.2501Z" fill="#C08D06"/>
  <path d="M15.6776 12.2419C15.7476 12.3307 15.7637 12.4034 15.7126 12.4814C15.7072 12.4895 15.6749 12.4895 15.6695 12.4841C15.613 12.4088 15.6265 12.3361 15.6776 12.2419Z" fill="#C08A06"/>
  <path d="M16.2964 15.1948C16.1646 15.2002 16.03 15.2029 15.8955 15.2083C15.8201 15.211 15.7744 15.1895 15.7744 15.1007C15.7771 14.7158 15.7744 14.3337 15.7744 13.9516C15.7744 13.9059 15.7959 13.8763 15.8363 13.8574C15.987 13.9032 16.1323 13.957 16.2641 14.0404" fill="#DADADA"/>
  <path d="M16.5763 14.9447C16.579 15.2192 16.5763 15.2192 16.2965 15.195C16.283 14.8101 16.3288 14.4253 16.2669 14.0405C16.3718 14.0647 16.4822 14.0836 16.5683 14.1589L16.5763 14.9447Z" fill="#C2C0BE"/>
  <path d="M8.80211 15.1951C8.28275 15.2193 8.28275 15.2193 8.28006 14.7053C8.28006 14.5224 8.27468 14.3367 8.27468 14.1537C8.36079 14.0595 8.50072 14.081 8.5976 14.0111C8.82633 13.9734 8.85593 13.9949 8.85862 14.2156C8.864 14.4766 8.86131 14.7376 8.85862 14.9987C8.85862 15.0713 8.85593 15.1413 8.80211 15.1951Z" fill="#D9D9D9"/>
  <path d="M8.52223 13.5879C8.27466 13.6525 8.26928 13.6471 8.27197 13.3834C8.27466 13.2354 8.27197 13.0847 8.27197 12.9367C8.27197 12.7887 8.32579 12.6918 8.48725 12.6864C8.85591 12.6434 8.8586 12.6461 8.85322 13.0147C8.85053 13.1627 8.89628 13.3161 8.80209 13.4534C8.70791 13.4964 8.61372 13.5422 8.52223 13.5879Z" fill="#D8D6D6"/>
  <path d="M8.80212 15.1948C8.80212 14.8665 8.79404 14.5409 8.81019 14.2126C8.81826 14.0404 8.75637 13.9839 8.5976 14.0108C8.71062 13.9597 8.81826 13.8924 8.94205 13.8708C8.99587 13.9193 8.99318 13.9839 8.99587 14.0458V15.0145C8.99587 15.0791 8.99587 15.1437 8.94743 15.1921C8.8963 15.1948 8.84786 15.1948 8.80212 15.1948Z" fill="#ADACAC"/>
  <path d="M11.6653 10.0479C11.5764 10.0452 11.5092 10.0748 11.4015 9.98328C11.4742 9.8568 11.6114 9.8568 11.7002 9.89178C11.7406 9.91869 11.6868 10.0156 11.6653 10.0479Z" fill="#1A895C"/>
  <path d="M8.45498 12.1639C8.35272 12.1693 8.31235 12.1209 8.31505 12.0159C8.32043 11.8141 8.32043 11.6123 8.31505 11.4104C8.31235 11.3216 8.35003 11.2947 8.43614 11.2894C8.8048 11.2678 8.8048 11.2651 8.8048 11.6311C8.8048 11.6957 8.79673 11.7603 8.80749 11.8222C8.82902 11.9729 8.78058 12.0778 8.63258 12.1316C8.57607 12.172 8.51418 12.1666 8.45498 12.1639Z" fill="#D9D9D9"/>
  <path d="M8.21545 12.3257C8.26389 12.323 8.30695 12.3418 8.33386 12.3822C8.36615 12.4306 8.33924 12.4683 8.30157 12.5033C8.28542 12.5168 8.26658 12.5329 8.25313 12.5517C8.22353 12.5948 8.27466 12.7159 8.16702 12.6782C8.06745 12.6432 8.05131 12.5168 8.04861 12.4253C8.04861 12.3391 8.15087 12.3472 8.21545 12.3257Z" fill="#C08D06"/>
  <path d="M9.06852 12.1938C9.11158 12.3123 9.03623 12.4011 8.98241 12.4899C8.95281 12.5383 8.90168 12.5652 8.85325 12.5087C8.79943 12.4441 8.72408 12.3661 8.75368 12.2827C8.78597 12.1938 8.83979 12.2665 8.88823 12.2961C9.00932 12.3715 8.98241 12.1938 9.06852 12.1938Z" fill="#B8710E"/>
  <path d="M8.67837 12.5729C8.61917 12.5944 8.56535 12.5971 8.51692 12.5756C8.40928 12.5271 8.41735 12.4302 8.42273 12.3361C8.42542 12.3038 8.41735 12.25 8.45771 12.25C8.55728 12.2446 8.52768 12.3522 8.56804 12.4006C8.61379 12.4491 8.64339 12.511 8.67837 12.5729Z" fill="#BD7C09"/>
  <path d="M9.91885 10.6994C9.93231 10.6132 9.99958 10.6321 10.0534 10.6321C10.7746 10.6321 11.4958 10.6348 12.2143 10.6294C12.33 10.6294 12.3623 10.6698 12.3623 10.7802C12.3569 11.2755 12.3596 11.7682 12.3623 12.2636C12.3623 12.347 12.3488 12.3955 12.2492 12.4197C12.1066 12.4574 11.9721 12.5274 11.8321 12.584C11.7433 12.5893 11.6922 12.5678 11.6949 12.4601C11.703 12.234 11.6922 12.0132 11.7541 11.7897C11.7864 11.674 11.8214 11.534 11.6653 11.4371C11.5899 11.3913 11.7406 11.3051 11.6976 11.2244C11.6491 11.1544 11.5738 11.1705 11.5065 11.1625C11.4204 11.1517 11.3531 11.1409 11.3612 11.0198C11.3693 10.8744 11.2482 10.8636 11.1406 10.8582C11.0329 10.8528 10.963 10.8986 10.9791 11.0252C10.9872 11.0655 10.9683 11.1086 10.936 11.1328C10.8365 11.1867 10.7127 11.1086 10.6185 11.1894C10.6158 11.2459 10.6077 11.3051 10.6347 11.359C10.6643 11.4209 10.632 11.4398 10.5808 11.4748C10.4732 11.5474 10.4328 11.6767 10.5162 11.7736C10.6239 11.9001 10.6131 12.0374 10.6131 12.1801C10.6131 12.312 10.6104 12.4466 10.6104 12.5786C10.3709 12.5463 10.4544 12.7266 10.4382 12.8397C10.4194 12.977 10.4866 13.0093 10.6104 13.0012C10.7261 12.9932 10.8419 12.9986 10.9576 12.9986C11.111 13.0712 11.2751 13.0147 11.4339 13.0336C11.4985 13.0416 11.5792 13.0093 11.5873 13.1197C11.5953 13.2166 11.555 13.2785 11.4662 13.3001C11.372 13.3243 11.2751 13.3459 11.1755 13.3459C10.8203 13.3432 10.4678 13.3405 10.1126 13.3485C9.96191 13.3512 9.9054 13.3055 9.91078 13.1493C9.91885 12.8424 9.91347 12.5355 9.91347 12.2259C9.91885 11.7224 9.91885 11.2109 9.91885 10.6994Z" fill="#AB1519"/>
  <path d="M10.7343 15.3437L10.7181 13.3945C10.9549 13.4188 10.963 13.4268 10.963 13.653V16.0895C10.963 16.146 10.9415 16.1756 10.8823 16.1783C10.8123 16.181 10.7908 16.146 10.7908 16.0814C10.7908 15.8848 10.7935 15.6856 10.7881 15.4891C10.7881 15.4352 10.8204 15.3652 10.7343 15.3437Z" fill="#9E1717"/>
  <path d="M11.5577 16.1784L11.4878 16.2161C11.2994 16.2376 11.2967 16.2376 11.2967 16.0626V13.5885C11.2967 13.5185 11.2913 13.4485 11.3478 13.3919C11.4824 13.3677 11.5281 13.4162 11.5281 13.5589C11.5227 14.3423 11.5254 15.1231 11.5254 15.9065C11.5227 15.998 11.5308 16.0869 11.5577 16.1784Z" fill="#9F2115"/>
  <path d="M10.6158 16.1055C10.5405 16.0651 10.5082 16.0113 10.5082 15.9144C10.5136 15.1444 10.5109 14.3744 10.5109 13.6017C10.5109 13.5721 10.5109 13.5425 10.5136 13.5156C10.519 13.4644 10.5432 13.4241 10.5997 13.4294C10.6535 13.4348 10.6508 13.4833 10.6508 13.5237C10.6508 13.6637 10.6427 13.8037 10.6535 13.941C10.6831 14.3313 10.6508 14.7244 10.6508 15.1148C10.6508 15.1955 10.6508 15.2763 10.7208 15.3382C10.7208 15.559 10.7181 15.7771 10.7181 15.9978C10.7208 16.0705 10.7127 16.1271 10.6158 16.1055Z" fill="#C4AD00"/>
  <path d="M10.9844 12.969C10.9871 12.9286 10.9871 12.8883 10.9952 12.8479C11.0087 12.7672 10.9521 12.6434 11.0921 12.6299C11.2589 12.6138 11.3181 12.6838 11.3235 12.8667C11.3235 12.9017 11.3289 12.9367 11.3343 12.969C11.2159 13.0174 11.1001 13.0255 10.9844 12.969Z" fill="#133DC3"/>
  <path d="M11.0383 16.2079C11.0383 15.3275 11.0356 14.4445 11.0356 13.5641C11.0356 13.486 11.0275 13.4107 11.1459 13.416C11.2562 13.4187 11.2428 13.4914 11.2428 13.5614C11.2428 14.4552 11.2401 15.3464 11.2401 16.2402L11.1432 16.2563L11.0383 16.2079Z" fill="#C3B000"/>
  <path d="M12.5022 16.1676C12.5641 16.3183 12.6367 16.1972 12.7067 16.1756C12.7874 16.1783 12.8709 16.1729 12.9489 16.1864C13.0269 16.2025 13.0404 16.2537 12.9731 16.3075C12.922 16.3479 12.8628 16.3775 12.7982 16.3775C12.6663 16.3775 12.521 16.3156 12.4269 16.477C12.4107 16.5039 12.3703 16.3855 12.3542 16.3532C12.338 16.3317 12.2089 16.4259 12.0259 16.4232C11.9479 16.4017 11.8644 16.2564 12.0124 16.1972C12.0878 16.1918 12.3999 16.251 12.3892 16.1756C12.4269 16.1487 12.4645 16.1433 12.5022 16.1676Z" fill="#2A6355"/>
  <path d="M12.2923 7.83768C12.2412 7.69506 12.3623 7.72466 12.4295 7.70044C12.4403 7.70313 12.4511 7.70313 12.4618 7.70313C12.5372 7.78386 12.5479 7.84306 12.4107 7.84306C12.3703 7.84306 12.33 7.84037 12.2923 7.83768Z" fill="#1F63A5"/>
  <path d="M10.4544 9.26465C10.4705 9.26465 10.4894 9.26196 10.5055 9.26196C10.5701 9.26734 10.675 9.24313 10.675 9.32655C10.6777 9.40189 10.6508 9.51222 10.5244 9.51222C10.449 9.51222 10.3844 9.488 10.3575 9.41266C10.3306 9.32924 10.4221 9.31309 10.4544 9.26465Z" fill="#A68503"/>
  <path d="M13.6189 15.0233C13.6162 15.0771 13.6216 15.1282 13.5866 15.174C13.5167 15.2682 13.5193 15.365 13.5866 15.4619C13.6189 15.5077 13.6189 15.5588 13.6189 15.6126C13.6189 15.6637 13.6243 15.7229 13.5624 15.7445C13.5113 15.766 13.4575 15.7579 13.4225 15.7095C13.374 15.6449 13.3014 15.6234 13.2314 15.5992C13.1749 15.5776 13.0996 15.5803 13.0969 15.4915C13.0915 15.3973 13.1157 15.2978 13.1991 15.2682C13.3471 15.217 13.4494 15.1471 13.479 14.9856C13.4844 14.9506 13.5328 14.8834 13.592 14.9022C13.6404 14.921 13.6082 14.9856 13.6189 15.0233Z" fill="#AD1E17"/>
  <path d="M13.7857 14.9021C13.9095 14.9559 13.818 15.1228 13.9149 15.1793C14.0091 15.2331 14.1302 15.2358 14.2055 15.3246C14.2916 15.4241 14.254 15.5641 14.1275 15.5991C14.0495 15.6206 13.9741 15.6529 13.9095 15.6986C13.7911 15.7794 13.6862 15.7336 13.7319 15.6152C13.8261 15.3757 13.74 15.1443 13.7669 14.9129C13.7642 14.9102 13.7723 14.9075 13.7857 14.9021Z" fill="#AD1D17"/>
  <path d="M13.8154 14.5816C13.8719 14.5009 13.9365 14.4309 14.0361 14.3959C14.1383 14.3609 14.2218 14.299 14.2164 14.1726C14.2137 14.1161 14.2594 14.0811 14.2944 14.0407C14.3294 14.0003 14.359 13.9169 14.4236 13.9573C14.4801 13.9923 14.4074 14.0461 14.3994 14.0945C14.3832 14.1914 14.359 14.2883 14.4451 14.369C14.4989 14.4201 14.472 14.4766 14.4397 14.5251C14.4074 14.5762 14.3456 14.6381 14.3025 14.6031C14.1357 14.4713 13.985 14.5924 13.8262 14.6058L13.8154 14.595V14.5816Z" fill="#AD1F17"/>
  <path d="M14.2997 13.8226C14.2459 13.9383 14.1921 14.0459 14.0656 14.0863C13.958 14.1212 13.888 14.1778 13.8853 14.3069C13.8826 14.3688 13.8423 14.4442 13.7642 14.4119C13.7024 14.3877 13.7077 14.3096 13.7427 14.2612C13.8127 14.1589 13.7965 14.0594 13.7616 13.949C13.7266 13.8441 13.8154 13.7633 13.9042 13.8199C14.0414 13.906 14.1598 13.8764 14.2997 13.8226Z" fill="#AE2117"/>
  <path d="M13.07 14.7515C13.218 14.7918 13.366 14.7865 13.5113 14.7461L13.5086 14.7434C13.4763 14.8134 13.4225 14.8753 13.3579 14.9022C13.2207 14.9587 13.1238 15.0287 13.1077 15.1928C13.1023 15.2412 13.0404 15.3112 12.965 15.2843C12.8951 15.2574 12.9112 15.1901 12.9274 15.1336C12.9462 15.0663 12.9785 15.0017 12.9247 14.9398L13.07 14.7515Z" fill="#AD2017"/>
  <path d="M14.4532 14.8644C14.3671 14.9774 14.3671 15.1092 14.4101 15.2492C14.4182 15.2761 14.3859 15.2976 14.3536 15.3003C14.2864 15.303 14.2245 15.2626 14.2245 15.2088C14.2218 15.0204 14.1141 14.9343 13.9554 14.8805C13.915 14.8671 13.8585 14.8294 13.88 14.7809C13.9042 14.7191 13.9581 14.7702 13.9984 14.7783C14.0926 14.7917 14.1787 14.7702 14.2702 14.7513C14.3509 14.7325 14.437 14.7406 14.4532 14.8644Z" fill="#AE2217"/>
  <path d="M13.8154 14.5819C13.8181 14.5899 13.8208 14.598 13.8235 14.6088C13.8019 14.8321 13.732 14.8644 13.5086 14.746L13.5113 14.7487V14.6088L13.5086 14.6115C13.6055 14.5173 13.7024 14.4661 13.8154 14.5819Z" fill="#368F53"/>
  <path d="M10.893 11.9622C10.9307 12.0322 10.9737 12.094 10.9764 12.1802C10.9818 12.2959 10.9414 12.3524 10.8257 12.347C10.6427 12.3093 10.7342 12.1667 10.7261 12.0698C10.7181 11.9541 10.8096 11.9568 10.893 11.9622Z" fill="#183B9F"/>
  <path d="M11.4878 12.3471L11.3586 12.3363C11.3559 12.269 11.3478 12.1991 11.3478 12.1318C11.3451 12.0565 11.364 11.9919 11.4555 11.9865C11.5362 11.9811 11.6008 12.0295 11.6035 12.0995C11.6088 12.191 11.625 12.3094 11.4878 12.3471Z" fill="#0C34AB"/>
  <path d="M11.5199 11.7062C11.4473 11.7062 11.4285 11.6524 11.4258 11.6039C11.4231 11.5501 11.4231 11.4748 11.4903 11.464C11.5657 11.4506 11.6007 11.5124 11.6114 11.5824C11.6249 11.6524 11.5765 11.682 11.5199 11.7062Z" fill="#9F8D00"/>
  <path d="M10.7504 11.4453C10.8123 11.4641 10.8473 11.4991 10.8554 11.5556C10.8635 11.6068 10.8688 11.666 10.7962 11.674C10.7343 11.6821 10.7208 11.6337 10.7208 11.5852C10.7208 11.5395 10.7128 11.4857 10.7504 11.4453Z" fill="#A18F00"/>
  <path d="M11.1352 11.5342C11.1755 11.5342 11.2051 11.5503 11.2051 11.5907C11.2051 11.6364 11.1917 11.6903 11.1379 11.6903C11.0948 11.6903 11.0813 11.6391 11.076 11.6015C11.0679 11.5611 11.0921 11.5369 11.1352 11.5342Z" fill="#AD9900"/>
  <path d="M12.6878 12.9343C12.7148 12.9559 12.7417 12.972 12.7551 12.9935C12.7928 13.0689 12.8762 13.1765 12.852 13.2169C12.8116 13.2868 12.7578 13.346 12.7417 13.4295C12.739 13.4429 12.6905 13.4591 12.6663 13.4537C12.5291 13.4241 12.5372 13.2788 12.5183 13.1954C12.4968 13.1119 12.5964 13.007 12.6878 12.9343Z" fill="#918D1A"/>
  <path d="M12.435 13.3838C12.505 13.4295 12.5184 13.5318 12.5588 13.5991C12.618 13.7013 12.4969 13.7982 12.4458 13.8924C12.4242 13.9354 12.33 13.9058 12.3193 13.8574C12.2978 13.7605 12.1659 13.6529 12.3112 13.556C12.3543 13.5264 12.3543 13.4914 12.3596 13.4538C12.365 13.4215 12.3731 13.3892 12.435 13.3838Z" fill="#898314"/>
  <path d="M12.3219 12.8424C12.3219 13.0415 12.3192 13.3187 12.1685 13.3079C12.0932 13.3025 12.1039 13.2164 12.0716 13.1895C11.8806 13.028 12.2277 12.6944 12.3219 12.8424Z" fill="#657234"/>
  <path d="M12.6824 16.0866C12.6313 16.1539 12.3945 16.1458 12.2411 16.127C12.1523 16.1162 12.1308 15.9252 12.2169 15.8956C12.4268 15.8283 12.4268 15.8283 12.6636 15.8552C12.6932 15.9521 12.7363 15.9951 12.6824 16.0866Z" fill="#D6B37C"/>
  <path d="M12.3704 16.1133C12.3516 16.0164 12.3516 15.9195 12.3946 15.828C12.4538 15.8119 12.4646 15.8684 12.4942 15.8953C12.5614 15.9841 12.5238 16.0756 12.5049 16.1671L12.3946 16.1725L12.3704 16.1133Z" fill="#822C24"/>
  <path d="M13.9311 11.8165C13.9903 11.7735 13.9929 11.6954 14.0333 11.6389C14.1544 11.6013 14.1544 11.5125 14.1275 11.4183C14.1087 11.3564 14.0925 11.2945 14.1221 11.2326C14.149 11.1761 14.2001 11.1384 14.2647 11.1572C14.3374 11.1788 14.3105 11.2353 14.2997 11.2864C14.2647 11.4586 14.2782 11.6282 14.3105 11.8031C14.3643 12.1072 14.3266 12.1421 14.0387 12.0937C13.9903 12.0049 13.9445 11.9188 13.9311 11.8165Z" fill="#D7D4D5"/>
  <path d="M13.6378 9.35349C13.6217 9.35349 13.6029 9.3508 13.5867 9.3508C13.4979 9.35349 13.4172 9.34273 13.4333 9.22433C13.4441 9.14898 13.5087 9.12207 13.5598 9.15167C13.6298 9.18934 13.7509 9.22164 13.6674 9.3508C13.6567 9.3508 13.6459 9.35349 13.6378 9.35349Z" fill="#B08D03"/>
  <path d="M12.2924 9.23209C12.2951 9.21056 12.2951 9.18904 12.2951 9.16751C12.3435 9.16751 12.3919 9.10831 12.4377 9.16482C12.4592 9.19173 12.4565 9.21864 12.4323 9.24016C12.3839 9.29129 12.3381 9.259 12.2924 9.23209Z" fill="#A91718"/>
</svg>