<svg width="24" height="24" viewBox="0 0 24 24" fill="none" xmlns="http://www.w3.org/2000/svg">
<g clip-path="url(#clip0_33_1477)">
<rect width="24" height="24" rx="3" fill="#9CADDE"/>
<mask id="mask0_33_1477" style="mask-type:luminance" maskUnits="userSpaceOnUse" x="0" y="0" width="24" height="24">
<rect width="24" height="24" rx="3" fill="white"/>
</mask>
<g mask="url(#mask0_33_1477)">
<path d="M25.3247 7.80442H-0.774739V0H24.4248V7.80442H25.3247Z" fill="white"/>
<path d="M24.8749 24.7511H-0.324631C-0.14816 24.9025 -0.0621225 25.2113 -0.114862 25.5039C-0.167602 25.7965 -0.345969 26 -0.54974 26C-0.753512 26 -0.931878 25.7965 -0.984618 25.5039C-1.03736 25.2113 -0.951321 24.9025 -0.77485 24.7511V16.2788H25.3246V24.0832C25.1482 23.9318 25.0621 23.623 25.1149 23.3304C25.1676 23.0378 25.346 22.8343 25.5497 22.8343C25.7535 22.8343 25.9319 23.0378 25.9846 23.3304C26.0374 23.623 25.9513 23.9318 25.7748 24.0832L24.8749 24.7511Z" fill="#FF4B55"/>
<path d="M-0.774739 7.80444H25.3247V16.2774H-0.774739V7.80444Z" fill="#41479B"/>
</g>
</g>
<defs>
<clipPath id="clip0_33_1477">
<rect width="24" height="24" rx="12" fill="white"/>
</clipPath>
</defs>
</svg>
