<svg width="24" height="24" viewBox="0 0 24 24" fill="none" xmlns="http://www.w3.org/2000/svg">
<g id="China" clip-path="url(#clip0_33_1518)">
<path id="Vector" d="M0 0H36V24H0V0Z" fill="#DE2910"/>
<path id="Vector_2" d="M3.90065 9.51216L4.66495 7.15193L2.66113 5.68669L5.14016 5.68273L5.91238 3.32646L6.68461 5.68273L9.16363 5.69065L7.15982 7.15193L7.92016 9.51216L5.91238 8.0588L3.90065 9.51216ZM10.815 10.7873L11.6545 11.1239L12.2367 10.4349L12.1733 11.3338L13.0089 11.6744L12.1337 11.8922L12.0704 12.7911L11.5912 12.0308L10.716 12.2446L11.2942 11.5516L10.815 10.7873ZM15.3454 6.25299L14.4583 6.09854L14.0346 6.89056L13.9039 5.99954L13.0168 5.84114L13.8286 5.44512L13.7059 4.55014L14.3316 5.1996L15.1434 4.80359L14.7236 5.60353L15.3454 6.25299ZM13.4604 10.2923L13.7376 9.43296L13.0089 8.9023H13.9118L14.193 8.04296L14.4741 8.9023H15.3731L14.6444 9.43296L14.9216 10.2923L14.193 9.7656L13.4604 10.2923ZM10.8586 2.45524L11.6783 2.83541L12.2961 2.17407L12.1892 3.06906L13.0049 3.45319L12.1179 3.62743L12.007 4.52242L11.5674 3.73436L10.6804 3.90464L11.2942 3.2433L10.8586 2.45524Z" fill="#FFDE00"/>
</g>
<defs>
<clipPath id="clip0_33_1518">
<rect width="36" height="24" fill="white"/>
</clipPath>
</defs>
</svg>
