<svg xmlns="http://www.w3.org/2000/svg" width="24" height="24" viewBox="0 0 24 24" fill="none">
  <path d="M8.69357 11.3728C9.69231 11.3728 10.5011 12.1805 10.4842 13.1677C10.4842 14.1558 9.69399 14.9626 8.69357 14.9626C7.71164 14.9626 6.9029 14.1558 6.9029 13.1677C6.9029 12.1805 7.69315 11.3728 8.69357 11.3728ZM15.0996 11.3728C16.1 11.3728 16.8903 12.1805 16.8903 13.1677C16.8903 14.1558 16.1 14.9626 15.0996 14.9626C14.1177 14.9626 13.3098 14.1558 13.3098 13.1677C13.3098 12.1805 14.0992 11.3728 15.0996 11.3728ZM16.7591 19.8333C20.5431 19.7019 22 16.9687 22 16.9687C22 10.8987 19.5326 5.97907 19.5326 5.97907C17.0694 3.94485 14.7222 4.00015 14.7222 4.00015L14.4826 4.30202C17.3939 5.28196 18.7449 6.69703 18.7449 6.69703C17.1553 5.73134 15.4035 5.11627 13.5914 4.88762C12.4418 4.74772 11.2806 4.7599 10.1337 4.92389C10.0303 4.92389 9.94452 4.94202 9.84279 4.96015C9.24338 5.01816 7.78647 5.26202 5.95544 6.14949C5.3224 6.46859 4.94494 6.69703 4.94494 6.69703C4.94494 6.69703 6.36654 5.20581 9.44767 4.22678L9.27617 4.00015C9.27617 4.00015 6.93064 3.94485 4.46574 5.97998C4.46574 5.97998 2 10.8987 2 16.9678C2 16.9678 3.43758 19.7001 7.22236 19.8324C7.22236 19.8324 7.85456 18.9857 8.37074 18.2696C6.19504 17.5516 5.37453 16.0432 5.37453 16.0432C5.37453 16.0432 5.54435 16.1765 5.85204 16.365C5.86885 16.3831 5.88567 16.4031 5.92013 16.4203C5.97226 16.4602 6.02354 16.4783 6.07566 16.5155C6.50273 16.7793 6.93064 16.9869 7.32409 17.1564C8.02606 17.4583 8.86507 17.7601 9.84279 17.9677C11.3065 18.2772 12.8115 18.2833 14.2774 17.9859C15.1312 17.8215 15.9641 17.5498 16.7591 17.1763C17.4527 16.8868 18.1135 16.5133 18.7289 16.0631C18.7289 16.0631 17.8731 17.6087 15.6293 18.3077C16.0005 18.8213 16.3778 19.3299 16.7608 19.8333H16.7591Z" fill="#8B8D98"/>
</svg>