<svg xmlns="http://www.w3.org/2000/svg" width="24" height="24" viewBox="0 0 24 24" fill="none">
  <path d="M10.9453 2.5H13.0564C13.2481 2.54307 13.4381 2.59373 13.6306 2.63005C16.6833 3.20511 18.9346 4.87627 20.4309 7.58862C21.0102 8.63827 21.2906 9.77911 21.5008 10.9444V13.0556C21.473 13.1924 21.4409 13.3292 21.4164 13.4676C21.0972 15.3938 20.2941 17.0869 18.9532 18.5107C17.6213 19.9451 15.883 20.9384 13.9709 21.3573C13.6534 21.4282 13.5487 21.3573 13.5563 21.0136C13.5791 20.1835 13.5648 19.3534 13.5656 18.5233C13.5656 17.3977 13.5749 16.272 13.5656 15.1456C13.5656 14.7715 13.6956 14.606 14.0866 14.6304C14.4776 14.6549 14.8745 14.6304 15.2688 14.6364C15.5585 14.644 15.7071 14.5308 15.7468 14.2327C15.8236 13.661 15.9089 13.0902 16.0204 12.5252C16.093 12.1613 15.9664 12.0338 15.6125 12.0405C15.078 12.0515 14.5435 12.0405 14.0081 12.0405C13.7108 12.0405 13.5648 11.9054 13.5707 11.6056C13.58 11.072 13.5555 10.5349 13.6002 10.0012C13.6695 9.15676 14.0461 8.82996 14.8838 8.81307C15.1793 8.80716 15.4749 8.79871 15.7696 8.81307C16.1074 8.82742 16.2628 8.69653 16.2518 8.34609C16.2366 7.85378 16.234 7.36062 16.2518 6.86916C16.2644 6.52631 16.1032 6.3912 15.7873 6.34982C15.1168 6.26538 14.4447 6.19107 13.7691 6.24258C11.8463 6.38867 10.5923 7.70009 10.5273 9.63556C10.5079 10.2123 10.5205 10.7891 10.518 11.3658C10.518 12.0169 10.4927 12.0414 9.86102 12.0414C9.4388 12.0414 9.01658 12.0481 8.59435 12.0414C8.2988 12.0414 8.15018 12.1638 8.15187 12.4687C8.15187 13.0454 8.15862 13.6222 8.15187 14.1989C8.1468 14.5316 8.30978 14.644 8.62307 14.6347C9.0588 14.6228 9.49538 14.6347 9.93111 14.6347C10.4842 14.6389 10.5222 14.6634 10.5222 15.1962C10.5273 17.0962 10.5273 18.9959 10.5222 20.8954C10.5222 21.397 10.4564 21.4569 9.98516 21.3421C7.20271 20.6665 5.08231 19.1009 3.66027 16.6014C3.03031 15.4952 2.70773 14.2935 2.5 13.0547V10.8592C2.54222 10.6818 2.58951 10.5053 2.62667 10.3272C3.336 6.88774 5.31284 4.50049 8.54622 3.12996C9.31889 2.80485 10.138 2.68324 10.9453 2.5Z" fill="#8B8D98"/>
</svg>