<svg xmlns="http://www.w3.org/2000/svg" width="24" height="24" viewBox="0 0 24 24" fill="none">
  <path d="M2.50005 2.50763C8.71751 2.50763 14.935 2.50508 21.1524 2.5C21.4432 2.5 21.5009 2.55678 21.5 2.84663C21.4887 8.94859 21.4887 15.0506 21.5 21.1525C21.5 21.4432 21.4432 21.5008 21.1524 21.5C14.935 21.4887 8.71751 21.4859 2.50005 21.4915V2.50763ZM12.6469 10.7631C12.5418 10.5834 12.5927 10.3826 12.5876 10.1927C12.5723 9.67914 12.5477 9.64862 12.0195 9.64608C11.4913 9.64354 10.9462 9.65371 10.4086 9.64608C10.1068 9.64015 9.96948 9.75541 9.97033 10.0698C9.97485 12.7965 9.97485 15.5226 9.97033 18.2482C9.97033 18.56 10.106 18.6719 10.4078 18.6719C10.9869 18.6617 11.566 18.6719 12.145 18.6719C12.697 18.6719 12.7275 18.6414 12.7292 18.1015C12.7292 16.6891 12.7292 15.2766 12.7292 13.8641C12.7224 13.4816 12.7931 13.1016 12.9369 12.7471C13.204 12.1165 13.8212 11.7758 14.558 11.8411C15.2447 11.9021 15.6432 12.253 15.8246 12.953C15.8932 13.2419 15.9248 13.5384 15.9187 13.8353C15.9187 15.2904 15.9255 16.7447 15.9187 18.1999C15.9187 18.5431 16.034 18.6863 16.3859 18.6761C16.9794 18.6592 17.5729 18.6558 18.1663 18.6761C18.5496 18.6897 18.692 18.5533 18.6886 18.1626C18.6717 16.4676 18.6801 14.7726 18.6742 13.0776C18.6667 12.5829 18.5995 12.0909 18.4741 11.6123C18.313 10.9639 18.0061 10.3995 17.4567 9.99525C16.4122 9.22657 14.0408 9.07741 12.9378 10.5165C12.8614 10.6071 12.8182 10.741 12.6469 10.7631ZM5.38692 14.1132C5.38692 15.4398 5.38692 16.7662 5.38692 18.0922C5.38692 18.6202 5.42592 18.6583 5.92954 18.6609C6.4942 18.6609 7.05885 18.6507 7.62521 18.6609C7.96434 18.6702 8.10847 18.5346 8.10847 18.1897C8.10338 15.4658 8.10338 12.7423 8.10847 10.019C8.10847 9.71218 7.98215 9.63167 7.70236 9.6376C7.10888 9.65032 6.51539 9.65964 5.92191 9.6376C5.51749 9.62065 5.37081 9.76897 5.3759 10.1749C5.40049 11.4919 5.38777 12.8047 5.38692 14.1166V14.1132ZM6.75703 5.15266C6.44163 5.15065 6.13274 5.24242 5.86964 5.4163C5.60655 5.59019 5.40111 5.83834 5.27944 6.12922C5.15777 6.4201 5.12537 6.74057 5.18635 7.0499C5.24732 7.35924 5.39893 7.64346 5.6219 7.86646C5.84486 8.08946 6.12913 8.24115 6.43855 8.30227C6.74797 8.36339 7.06859 8.33117 7.35965 8.20971C7.65071 8.08824 7.89907 7.88302 8.07317 7.62012C8.24727 7.35722 8.33924 7.04852 8.33739 6.73324C8.34083 6.5248 8.3023 6.3178 8.22411 6.12454C8.14591 5.93127 8.02965 5.7557 7.88222 5.60825C7.73479 5.4608 7.55921 5.34449 7.36591 5.26622C7.17261 5.18796 6.96555 5.14934 6.75703 5.15266Z" fill="#8B8D98"/>
</svg>