<svg xmlns="http://www.w3.org/2000/svg" width="24" height="24" viewBox="0 0 24 24" fill="none">
  <path fill-rule="evenodd" clip-rule="evenodd" d="M6.3 2.5C4.20132 2.5 2.5 4.20132 2.5 6.3V17.7C2.5 19.7987 4.20132 21.5 6.3 21.5H17.7C19.7987 21.5 21.5 19.7987 21.5 17.7V6.3C21.5 4.20132 19.7987 2.5 17.7 2.5H6.3ZM17.1935 17.527C17.2035 17.5391 17.2134 17.5512 17.2233 17.563C17.2219 17.5661 17.2195 17.5687 17.2165 17.5702C17.2135 17.5718 17.2101 17.5723 17.2068 17.5716C16.9152 17.5715 16.6235 17.5716 16.3319 17.5719C16.326 17.5719 16.3202 17.5704 16.315 17.5675C16.3099 17.5646 16.3055 17.5605 16.3023 17.5555C16.2237 17.4628 16.1446 17.3705 16.0654 17.2783C16.0423 17.2513 16.0191 17.2244 15.996 17.1974C15.8831 17.0664 15.7707 16.9352 15.6586 16.8036C15.619 16.7571 15.5798 16.7103 15.5406 16.6635C15.4996 16.6147 15.4586 16.5659 15.4173 16.5174C15.3851 16.4797 15.3525 16.4424 15.3199 16.4051C15.2872 16.3677 15.2546 16.3304 15.2223 16.2926C15.1824 16.2457 15.1428 16.1985 15.1032 16.1513C15.0641 16.1045 15.0249 16.0578 14.9853 16.0114C14.9164 15.9305 14.8471 15.8498 14.7779 15.7691C14.7094 15.6891 14.6408 15.6092 14.5725 15.5291C14.521 15.4686 14.4698 15.408 14.4187 15.3473C14.3692 15.2886 14.3197 15.2299 14.2699 15.1715C14.2256 15.1195 14.181 15.0678 14.1365 15.0162C14.0907 14.9631 14.045 14.9101 13.9996 14.8568C13.9473 14.7954 13.8953 14.7337 13.8433 14.6721C13.7818 14.5992 13.7203 14.5263 13.6583 14.4538C13.5908 14.3748 13.523 14.2962 13.4551 14.2175C13.3941 14.1468 13.333 14.0761 13.2723 14.0052C13.2375 13.9646 13.2033 13.9235 13.1691 13.8824C13.1391 13.8464 13.1091 13.8104 13.0787 13.7747C13.0384 13.7273 12.9978 13.6799 12.9572 13.6326C12.8911 13.5556 12.825 13.4785 12.7598 13.4008C12.7408 13.3782 12.7301 13.3834 12.7169 13.4027C12.7058 13.419 12.6948 13.4355 12.6838 13.4519C12.6756 13.4642 12.6674 13.4766 12.6591 13.4889C12.6291 13.5333 12.5992 13.5777 12.5692 13.6221C12.4944 13.7332 12.4195 13.8442 12.3442 13.9549C12.2799 14.0493 12.2153 14.1434 12.1508 14.2376C12.0923 14.3229 12.0338 14.4082 11.9755 14.4937C11.9242 14.5689 11.8732 14.6443 11.8223 14.7198C11.772 14.7941 11.7218 14.8684 11.6712 14.9426C11.5351 15.1412 11.3992 15.34 11.2635 15.5389L10.9323 16.0261L10.7118 16.3493L10.4646 16.7113C10.3821 16.8319 10.2996 16.9526 10.2173 17.0733C10.1976 17.1022 10.1779 17.1312 10.1582 17.1601C10.0711 17.2878 9.98392 17.4155 9.89789 17.544C9.89192 17.5538 9.88332 17.5616 9.8731 17.5666C9.86288 17.5716 9.85146 17.5735 9.84018 17.5722L6.81169 17.5715C6.80852 17.5715 6.80503 17.572 6.8015 17.5724C6.79187 17.5737 6.7819 17.5749 6.77697 17.5673C6.7715 17.5588 6.77766 17.5532 6.78398 17.5475C6.78733 17.5445 6.79073 17.5414 6.79246 17.5379C6.79753 17.5279 6.80331 17.5183 6.80976 17.5092L7.27724 16.8229C7.42205 16.6108 7.5667 16.3986 7.71118 16.1863C7.74732 16.1332 7.78328 16.0799 7.81924 16.0267C7.86569 15.9579 7.91214 15.8892 7.95898 15.8207C8.01636 15.7368 8.074 15.653 8.13164 15.5693C8.19366 15.4792 8.25569 15.3891 8.31739 15.2988L8.78455 14.6124L9.07686 14.1831C9.18413 14.0252 9.29152 13.8675 9.39904 13.7098C9.60143 13.4137 9.80349 13.1175 10.0052 12.821C10.0779 12.7141 10.1502 12.6071 10.2226 12.5C10.2947 12.3934 10.3667 12.2868 10.4391 12.1804C10.6196 11.9139 10.8013 11.6483 10.9841 11.3835C10.9888 11.3786 10.9923 11.3727 10.9946 11.3664C10.9968 11.36 10.9977 11.3532 10.9972 11.3464C10.9966 11.3396 10.9947 11.333 10.9915 11.3271C10.9882 11.3211 10.9838 11.3159 10.9784 11.3118C10.8975 11.2198 10.8178 11.1265 10.7384 11.0331C10.6016 10.8713 10.4646 10.7097 10.3274 10.5484C10.2874 10.5014 10.2471 10.4546 10.2068 10.4078C10.1686 10.3634 10.1303 10.319 10.0923 10.2744C9.96615 10.1254 9.83984 9.97658 9.71334 9.82794L9.28112 9.32125C9.15812 9.17691 9.03499 9.03267 8.91175 8.88853C8.75781 8.70922 8.60415 8.52965 8.45078 8.34984C8.26961 8.13673 8.08834 7.9237 7.90697 7.71075L7.54223 7.28354C7.4061 7.12449 7.27014 6.96529 7.13436 6.80593C7.13272 6.80401 7.13056 6.80221 7.12837 6.80037C7.12241 6.7954 7.11621 6.79022 7.11968 6.78209C7.12329 6.77364 7.13178 6.77469 7.13976 6.77568C7.14228 6.77599 7.14474 6.77629 7.14699 6.77629C7.42966 6.77635 7.71233 6.77623 7.995 6.77591C8.00376 6.77537 8.01251 6.77698 8.02052 6.7806C8.02853 6.78421 8.03556 6.78973 8.041 6.79667C8.11432 6.88364 8.1882 6.97013 8.26208 7.05662C8.28439 7.08275 8.3067 7.10887 8.329 7.135C8.47291 7.3039 8.61694 7.4727 8.76109 7.64139C8.92953 7.83789 9.09776 8.03458 9.26576 8.23146C9.30231 8.27429 9.33857 8.31738 9.37482 8.36046C9.41534 8.40861 9.45585 8.45675 9.49678 8.50454C9.53793 8.5526 9.57944 8.60036 9.62095 8.64811C9.66713 8.70124 9.71331 8.75437 9.75901 8.80793C9.82686 8.88745 9.89437 8.96728 9.96188 9.04711C10.0224 9.11872 10.083 9.19033 10.1438 9.26173C10.1899 9.31579 10.2363 9.36954 10.2827 9.42329C10.3274 9.47506 10.372 9.52682 10.4164 9.57886C10.4685 9.63997 10.5203 9.70132 10.5721 9.76268C10.6217 9.82137 10.6712 9.88006 10.7211 9.93854C10.7785 10.006 10.8362 10.0733 10.894 10.1405C10.9503 10.2062 11.0066 10.2718 11.0626 10.3376C11.1741 10.4682 11.285 10.5992 11.3954 10.7307C11.4108 10.7491 11.4193 10.7443 11.4303 10.7281C11.539 10.5689 11.6474 10.4095 11.7557 10.25C11.8063 10.1753 11.8569 10.1005 11.9074 10.0257C11.9788 9.92013 12.0501 9.81456 12.1218 9.70928C12.164 9.64735 12.2068 9.58578 12.2495 9.52421C12.2913 9.4639 12.3332 9.4036 12.3745 9.34296C12.4475 9.23592 12.5202 9.12863 12.5928 9.02135C12.654 8.931 12.7152 8.84065 12.7766 8.75045C12.8314 8.67 12.8864 8.58973 12.9414 8.50946C12.9943 8.4323 13.0472 8.35515 13.0998 8.27783C13.1596 8.19008 13.2191 8.1022 13.2787 8.01431C13.3442 7.91761 13.4097 7.82091 13.4755 7.7244C13.542 7.62681 13.6088 7.52941 13.6756 7.43201C13.7319 7.35 13.7881 7.26798 13.8442 7.18584C13.9319 7.05811 14.0188 6.92982 14.1049 6.80098C14.1098 6.7925 14.117 6.78561 14.1257 6.78113C14.1343 6.77665 14.1441 6.77475 14.1538 6.77566C15.1531 6.77595 16.1524 6.77609 17.1517 6.77608C17.1564 6.77608 17.1611 6.77606 17.1658 6.77605C17.1789 6.77601 17.192 6.77596 17.2051 6.77625C17.221 6.77659 17.2331 6.77706 17.2178 6.79858C17.1973 6.82747 17.1777 6.85704 17.1582 6.8866C17.1444 6.90733 17.1307 6.92805 17.1167 6.94855C17.0738 7.01113 17.0308 7.07361 16.9877 7.13609C16.9269 7.2245 16.866 7.3129 16.8055 7.40158C16.7574 7.4722 16.7096 7.54309 16.6618 7.61398C16.6155 7.68284 16.5691 7.7517 16.5223 7.82031C16.3521 8.06891 16.1822 8.31766 16.0124 8.56656C15.8284 8.83714 15.6443 9.10761 15.46 9.37799C15.2831 9.63702 15.1062 9.89611 14.9295 10.1553L14.528 10.7449L14.0099 11.5067L13.5444 12.1908C13.5147 12.2344 13.4851 12.278 13.4555 12.3216C13.3597 12.4629 13.2638 12.6041 13.1657 12.7437C13.1415 12.7781 13.1557 12.7948 13.175 12.8175C13.3388 13.0091 13.5024 13.2007 13.666 13.3924C13.7923 13.5411 13.9189 13.6896 14.0457 13.838C14.1963 14.013 14.3465 14.1883 14.4963 14.364C14.553 14.4304 14.6094 14.4971 14.6657 14.5639C14.7237 14.6325 14.7816 14.701 14.8399 14.7693C14.9135 14.8555 14.9873 14.9414 15.0612 15.0273C15.1255 15.1021 15.1897 15.1768 15.2538 15.2517L15.6419 15.7076C15.8185 15.9143 15.9949 16.1212 16.1712 16.3283C16.226 16.3927 16.2807 16.4573 16.3354 16.5219C16.3916 16.5883 16.4478 16.6547 16.5042 16.7209L16.7804 17.0433C16.8959 17.1777 17.0113 17.3122 17.1265 17.4469C17.1493 17.4735 17.1715 17.5005 17.1935 17.527ZM15.2653 7.47594V7.47618C15.2138 7.47618 15.1624 7.47621 15.1109 7.47623C14.9378 7.47632 14.7646 7.4764 14.5914 7.47552C14.5806 7.47474 14.5697 7.47705 14.5601 7.4822C14.5504 7.48735 14.5424 7.49513 14.537 7.50464C14.423 7.67151 14.3084 7.83788 14.1931 8.00376C14.1199 8.10903 14.0465 8.21409 13.973 8.31915C13.8827 8.44827 13.7924 8.57739 13.7027 8.70689C13.5943 8.86319 13.4865 9.01982 13.3787 9.17645C13.2953 9.29749 13.212 9.41853 13.1284 9.53941C12.9696 9.76872 12.8106 9.99791 12.6514 10.227C12.5034 10.4394 12.3555 10.6519 12.2078 10.8646C12.064 11.0718 11.9203 11.2792 11.7766 11.4866C11.6326 11.6951 11.4884 11.9035 11.344 12.1117C11.1762 12.3526 11.0087 12.5937 10.8416 12.8351C10.7845 12.9175 10.7278 13.0001 10.6711 13.0827C10.6186 13.1593 10.566 13.236 10.5131 13.3124C10.3622 13.5296 10.2115 13.7468 10.061 13.9642C9.93702 14.1444 9.81275 14.3244 9.68824 14.5042C9.53389 14.7272 9.37926 14.95 9.22433 15.1726C9.16632 15.256 9.1081 15.3392 9.04988 15.4224C8.97455 15.53 8.89922 15.6377 8.82434 15.7456C8.75977 15.8388 8.69565 15.9322 8.63154 16.0256C8.57385 16.1097 8.51615 16.1938 8.45813 16.2776C8.39432 16.3698 8.33006 16.4617 8.26581 16.5536C8.22474 16.6123 8.18368 16.6711 8.14273 16.7299C8.1253 16.7549 8.10812 16.7801 8.09094 16.8053C8.07554 16.828 8.06013 16.8506 8.04455 16.873C8.0437 16.8743 8.04282 16.8755 8.04194 16.8767C8.03671 16.8838 8.03153 16.8909 8.03506 16.9001C8.03889 16.9101 8.04728 16.9092 8.05513 16.9083C8.05728 16.9081 8.0594 16.9079 8.06136 16.9079C8.51159 16.9075 8.96182 16.9075 9.41204 16.9079C9.4233 16.9089 9.43461 16.9067 9.44466 16.9015C9.45471 16.8962 9.46311 16.8883 9.46888 16.8785C9.57224 16.7282 9.67641 16.5784 9.78058 16.4287C9.82946 16.3585 9.87833 16.2882 9.92713 16.2179C10.0463 16.0453 10.1656 15.8729 10.2851 15.7005C10.4229 15.503 10.5603 15.3052 10.6974 15.1071C10.7597 15.0169 10.8218 14.9265 10.8839 14.8361C10.9482 14.7425 11.0125 14.6489 11.0771 14.5555C11.1297 14.4795 11.1827 14.4038 11.2357 14.328C11.2858 14.2565 11.3359 14.1849 11.3856 14.1132C11.5471 13.8788 11.7089 13.6446 11.871 13.4106L12.3429 12.7311C12.4805 12.5333 12.6179 12.3353 12.7553 12.1373C12.8807 11.9567 13.006 11.7759 13.1311 11.595C13.2386 11.4387 13.3463 11.2826 13.4543 11.1267C13.5931 10.9268 13.7319 10.7268 13.8705 10.5268C14.0233 10.3057 14.1762 10.0848 14.3293 9.86406C14.4621 9.6737 14.5946 9.48313 14.7267 9.29235C14.7786 9.21753 14.8301 9.14252 14.8817 9.06751C14.9344 8.9909 14.987 8.91429 15.04 8.83788C15.1808 8.63566 15.3214 8.43336 15.462 8.23096L15.774 7.78018L15.9652 7.50515C15.9665 7.50322 15.9684 7.50144 15.9702 7.49967C15.9749 7.49506 15.9797 7.49042 15.9762 7.48285C15.972 7.47356 15.9635 7.47438 15.9556 7.47516C15.9534 7.47537 15.9513 7.47558 15.9493 7.47558L15.4345 7.47593L15.2653 7.47594Z" fill="#8B8D98"/>
</svg>