<svg width="464" height="319" viewBox="0 0 464 319" fill="none" xmlns="http://www.w3.org/2000/svg">
<rect width="464.003" height="319" rx="12" fill="#E3E8FF"/>
<g filter="url(#filter0_dd_945_7532)">
<g clip-path="url(#clip0_945_7532)">
<rect x="40" y="40" width="384.003" height="239" rx="11.6585" fill="white"/>
<rect x="39.9961" y="40" width="384.003" height="29.1463" fill="#F7F8FA"/>
<path d="M111.404 51.7174C111.404 48.4655 114.041 45.8293 117.292 45.8293H226.473C229.725 45.8293 232.362 48.4655 232.362 51.7174V69.1464H111.404V51.7174Z" fill="white"/>
<rect x="118.691" y="53.1158" width="59.75" height="8.7439" rx="1.96272" fill="#EFF0F3"/>
<circle cx="59.6709" cy="54.5731" r="5.10061" fill="#FF5F57"/>
<circle cx="75.7022" cy="54.5731" r="5.10061" fill="#FEBC2E"/>
<circle cx="91.7315" cy="54.5731" r="5.10061" fill="#28C840"/>
<path d="M39.9961 97.564H423.999" stroke="#EFF0F3" stroke-width="0.87439"/>
<rect x="57.4863" y="76.4329" width="349.027" height="13.8445" rx="6.92226" fill="#F7F8FA"/>
<path d="M272.72 205.869L237.8 145.475C237.204 144.451 236.349 143.602 235.321 143.012C234.294 142.421 233.129 142.111 231.944 142.111C230.759 142.111 229.595 142.421 228.567 143.012C227.54 143.602 226.685 144.451 226.088 145.475L191.216 205.869C190.63 206.865 190.325 208.002 190.334 209.157C190.343 210.313 190.665 211.444 191.266 212.431C191.867 213.418 192.725 214.223 193.747 214.762C194.77 215.3 195.919 215.551 197.073 215.487H266.867C268.021 215.551 269.17 215.3 270.193 214.762C271.215 214.223 272.073 213.418 272.674 212.431C273.275 211.444 273.597 210.313 273.606 209.157C273.615 208.002 273.31 206.865 272.724 205.869H272.72ZM232.209 206.881C230.855 206.879 229.558 206.34 228.602 205.382C227.646 204.424 227.11 203.126 227.112 201.772C227.113 200.419 227.652 199.122 228.61 198.166C229.568 197.21 230.867 196.674 232.22 196.675C232.89 196.676 233.553 196.808 234.172 197.066C234.791 197.323 235.353 197.699 235.827 198.174C236.3 198.648 236.675 199.211 236.931 199.83C237.187 200.45 237.318 201.113 237.317 201.783C237.316 202.453 237.184 203.117 236.927 203.736C236.669 204.354 236.293 204.917 235.819 205.39C235.344 205.863 234.781 206.238 234.162 206.494C233.543 206.75 232.879 206.881 232.209 206.881ZM237.392 186.867C237.391 188.221 236.852 189.518 235.894 190.475C234.936 191.432 233.638 191.969 232.284 191.969C231.623 191.965 230.97 191.829 230.363 191.569C229.756 191.309 229.207 190.93 228.749 190.455C228.29 189.979 227.932 189.417 227.694 188.801C227.456 188.184 227.344 187.527 227.364 186.867V165.444C227.344 164.784 227.456 164.127 227.694 163.511C227.932 162.894 228.29 162.332 228.749 161.856C229.207 161.381 229.756 161.002 230.363 160.742C230.97 160.482 231.623 160.346 232.284 160.342C233.638 160.342 234.936 160.879 235.894 161.836C236.852 162.793 237.391 164.091 237.392 165.444V186.867Z" fill="#EFF0F3"/>
</g>
</g>
<defs>
<filter id="filter0_dd_945_7532" x="20" y="40" width="424.004" height="279" filterUnits="userSpaceOnUse" color-interpolation-filters="sRGB">
<feFlood flood-opacity="0" result="BackgroundImageFix"/>
<feColorMatrix in="SourceAlpha" type="matrix" values="0 0 0 0 0 0 0 0 0 0 0 0 0 0 0 0 0 0 127 0" result="hardAlpha"/>
<feOffset dy="20"/>
<feGaussianBlur stdDeviation="10"/>
<feComposite in2="hardAlpha" operator="out"/>
<feColorMatrix type="matrix" values="0 0 0 0 0 0 0 0 0 0 0 0 0 0 0.333333 0 0 0 0.0235 0"/>
<feBlend mode="normal" in2="BackgroundImageFix" result="effect1_dropShadow_945_7532"/>
<feColorMatrix in="SourceAlpha" type="matrix" values="0 0 0 0 0 0 0 0 0 0 0 0 0 0 0 0 0 0 127 0" result="hardAlpha"/>
<feOffset dy="8"/>
<feGaussianBlur stdDeviation="4"/>
<feComposite in2="hardAlpha" operator="out"/>
<feColorMatrix type="matrix" values="0 0 0 0 0 0 0 0 0 0 0 0 0 0 0.333333 0 0 0 0.0235 0"/>
<feBlend mode="normal" in2="effect1_dropShadow_945_7532" result="effect2_dropShadow_945_7532"/>
<feBlend mode="normal" in="SourceGraphic" in2="effect2_dropShadow_945_7532" result="shape"/>
</filter>
<clipPath id="clip0_945_7532">
<rect x="40" y="40" width="384.003" height="239" rx="11.6585" fill="white"/>
</clipPath>
</defs>
</svg>
