<svg xmlns="http://www.w3.org/2000/svg" width="21" height="21" viewBox="0 0 21 21" fill="none">
  <g clip-path="url(#clip0_958_13846)">
    <mask id="mask0_958_13846" style="mask-type:alpha" maskUnits="userSpaceOnUse" x="0" y="0" width="21" height="21">
      <rect x="0.25" y="0.5" width="20" height="20" fill="#D9D9D9"/>
    </mask>
    <g mask="url(#mask0_958_13846)">
      <path d="M1.91602 14.7535C1.91602 14.3805 2.00644 14.0377 2.18728 13.7251C2.36813 13.4124 2.61769 13.1621 2.93598 12.974C3.71723 12.511 4.5455 12.1566 5.42079 11.9106C6.29608 11.6647 7.21115 11.5417 8.16602 11.5417C9.12088 11.5417 10.036 11.6647 10.9112 11.9106C11.7865 12.1566 12.6148 12.511 13.3961 12.974C13.7143 13.1621 13.9639 13.4124 14.1447 13.7251C14.3256 14.0377 14.416 14.3805 14.416 14.7535V15.1875C14.416 15.6172 14.2629 15.9851 13.9568 16.2911C13.6506 16.5971 13.2826 16.75 12.8526 16.75H3.47237C3.04244 16.75 2.67556 16.5971 2.37174 16.2911C2.06793 15.9851 1.91602 15.6172 1.91602 15.1875V14.7535ZM17.0202 16.75H15.5662C15.6964 16.5041 15.7977 16.2496 15.87 15.9865C15.9423 15.7234 15.9785 15.4571 15.9785 15.1875V14.7535C15.9785 14.1459 15.8375 13.5816 15.5553 13.0608C15.2732 12.54 14.8934 12.1132 14.416 11.7804C14.9803 11.8962 15.5264 12.0517 16.0545 12.247C16.5825 12.4423 17.0853 12.6847 17.5627 12.974C17.881 13.1621 18.1306 13.4129 18.3114 13.7265C18.4923 14.04 18.5827 14.3824 18.5827 14.7535V15.1875C18.5827 15.6172 18.4297 15.9851 18.1237 16.2911C17.8177 16.5971 17.4499 16.75 17.0202 16.75ZM8.16602 10.5C7.29796 10.5 6.56011 10.1962 5.95247 9.58859C5.34483 8.98095 5.04102 8.2431 5.04102 7.37505C5.04102 6.50699 5.34483 5.76915 5.95247 5.16151C6.56011 4.55387 7.29796 4.25005 8.16602 4.25005C9.03407 4.25005 9.77192 4.55387 10.3796 5.16151C10.9872 5.76915 11.291 6.50699 11.291 7.37505C11.291 8.2431 10.9872 8.98095 10.3796 9.58859C9.77192 10.1962 9.03407 10.5 8.16602 10.5ZM15.4577 7.37505C15.4577 8.2431 15.1539 8.98095 14.5462 9.58859C13.9386 10.1962 13.2007 10.5 12.3327 10.5C12.2169 10.5 12.1084 10.4964 12.0072 10.4892C11.9059 10.482 11.7974 10.4639 11.6816 10.4349C12.0433 10.0154 12.3291 9.54881 12.5388 9.03521C12.7486 8.52161 12.8535 7.96822 12.8535 7.37505C12.8535 6.78188 12.7486 6.22849 12.5388 5.71489C12.3291 5.20129 12.0433 4.73471 11.6816 4.31515C11.7974 4.28622 11.9059 4.26813 12.0072 4.2609C12.1084 4.25367 12.2169 4.25005 12.3327 4.25005C13.2007 4.25005 13.9386 4.55387 14.5462 5.16151C15.1539 5.76915 15.4577 6.50699 15.4577 7.37505ZM3.47852 15.1875H12.8535V14.7535C12.8535 14.6599 12.8316 14.5748 12.7879 14.4982C12.7441 14.4216 12.6864 14.362 12.6148 14.3195C11.9348 13.9289 11.2187 13.6287 10.4664 13.4189C9.71405 13.2091 8.94727 13.1042 8.16602 13.1042C7.38477 13.1042 6.61798 13.2055 5.86567 13.408C5.11335 13.6106 4.39721 13.9144 3.71723 14.3195C3.64562 14.3604 3.58793 14.4176 3.54416 14.4912C3.5004 14.5648 3.47852 14.6516 3.47852 14.7515V15.1875ZM8.17062 8.93755C8.60158 8.93755 8.96897 8.78411 9.27279 8.47722C9.57661 8.17032 9.72852 7.8014 9.72852 7.37045C9.72852 6.93949 9.57507 6.5721 9.26819 6.26828C8.96128 5.96446 8.59236 5.81255 8.16142 5.81255C7.73045 5.81255 7.36306 5.96599 7.05924 6.27288C6.75542 6.57978 6.60352 6.9487 6.60352 7.37965C6.60352 7.81061 6.75696 8.178 7.06385 8.48182C7.37075 8.78564 7.73967 8.93755 8.17062 8.93755Z" fill="#8B8D98"/>
    </g>
  </g>
  <defs>
    <clipPath id="clip0_958_13846">
      <rect width="20" height="20" fill="white" transform="translate(0.25 0.5)"/>
    </clipPath>
  </defs>
</svg>