<svg width="17" height="16" viewBox="0 0 17 16" fill="none" xmlns="http://www.w3.org/2000/svg">
<path d="M14 2.66659C14.131 2.66605 14.259 2.62689 14.3679 2.55402C14.4768 2.48115 14.5619 2.37778 14.6124 2.25685C14.6629 2.13593 14.6766 2.00279 14.6519 1.8741C14.6271 1.7454 14.565 1.62685 14.4733 1.53326C14.4113 1.47077 14.3376 1.42118 14.2563 1.38733C14.1751 1.35349 14.088 1.33606 14 1.33606C13.912 1.33606 13.8248 1.35349 13.7436 1.38733C13.6623 1.42118 13.5886 1.47077 13.5266 1.53326C13.4667 1.59469 13.4191 1.66713 13.3866 1.74659C13.3493 1.82571 13.331 1.91247 13.3333 1.99993C13.3333 2.17674 13.4035 2.34631 13.5286 2.47133C13.6536 2.59635 13.8231 2.66659 14 2.66659ZM14 8.66659C13.8231 8.66659 13.6536 8.73683 13.5286 8.86185C13.4035 8.98688 13.3333 9.15645 13.3333 9.33326V9.59326L12.3466 8.60659C12.175 8.43385 11.9709 8.29676 11.7461 8.2032C11.5212 8.10965 11.2801 8.06149 11.0366 8.06149C10.7931 8.06149 10.552 8.10965 10.3272 8.2032C10.1024 8.29676 9.89826 8.43385 9.72663 8.60659L9.25996 9.07326L7.60663 7.41326C7.2526 7.0785 6.78386 6.89197 6.29663 6.89197C5.80939 6.89197 5.34065 7.0785 4.98663 7.41326L3.99996 8.39993V4.66659C3.99996 4.48978 4.0702 4.32021 4.19522 4.19519C4.32025 4.07016 4.48982 3.99993 4.66663 3.99993H11.3333C11.5101 3.99993 11.6797 3.92969 11.8047 3.80466C11.9297 3.67964 12 3.51007 12 3.33326C12 3.15645 11.9297 2.98688 11.8047 2.86185C11.6797 2.73683 11.5101 2.66659 11.3333 2.66659H4.66663C4.13619 2.66659 3.62749 2.87731 3.25241 3.25238C2.87734 3.62745 2.66663 4.13616 2.66663 4.66659V12.6666C2.66663 13.197 2.87734 13.7057 3.25241 14.0808C3.62749 14.4559 4.13619 14.6666 4.66663 14.6666H12.6666C13.1971 14.6666 13.7058 14.4559 14.0808 14.0808C14.4559 13.7057 14.6666 13.197 14.6666 12.6666V9.33326C14.6666 9.15645 14.5964 8.98688 14.4714 8.86185C14.3463 8.73683 14.1768 8.66659 14 8.66659ZM4.66663 13.3333C4.48982 13.3333 4.32025 13.263 4.19522 13.138C4.0702 13.013 3.99996 12.8434 3.99996 12.6666V10.2866L5.93329 8.35326C6.03123 8.25993 6.16134 8.20786 6.29663 8.20786C6.43192 8.20786 6.56202 8.25993 6.65996 8.35326L8.77329 10.4666L11.6333 13.3333H4.66663ZM13.3333 12.6666C13.3277 12.7934 13.2861 12.916 13.2133 13.0199L10.2066 9.99993L10.6733 9.53326C10.7707 9.43637 10.9026 9.38198 11.04 9.38198C11.1774 9.38198 11.3092 9.43637 11.4066 9.53326L13.3333 11.4799V12.6666ZM14 3.33326C13.8231 3.33326 13.6536 3.4035 13.5286 3.52852C13.4035 3.65355 13.3333 3.82311 13.3333 3.99993V6.66659C13.3333 6.8434 13.4035 7.01297 13.5286 7.138C13.6536 7.26302 13.8231 7.33326 14 7.33326C14.1768 7.33326 14.3463 7.26302 14.4714 7.138C14.5964 7.01297 14.6666 6.8434 14.6666 6.66659V3.99993C14.6666 3.82311 14.5964 3.65355 14.4714 3.52852C14.3463 3.4035 14.1768 3.33326 14 3.33326Z" fill="#8B8D98"/>
</svg>
