<svg xmlns="http://www.w3.org/2000/svg" width="26" height="26" viewBox="0 0 26 26" fill="none">
  <path d="M12.5897 0.787247C12.5897 0.787247 19.7644 0.316903 23.7211 7.45197L12.1234 7.6943C12.1234 7.6943 9.93134 7.66797 8.11996 10.3643C7.60439 11.489 7.05436 12.6503 7.74776 14.8983C6.7813 13.3382 2.61333 6.42005 2.61333 6.42005C2.61333 6.42005 5.34274 1.22611 12.5897 0.787247Z" fill="#EA4335"/>
  <path d="M23.5878 18.8902C23.5878 18.8902 20.4093 25.34 12.251 25.1968L17.8397 15.0321C17.8397 15.0321 18.9584 13.1471 17.5302 10.2293C16.8141 9.22095 16.0841 8.16364 13.7899 7.6395C15.6246 7.58327 23.699 7.43245 23.699 7.43245C23.699 7.43245 26.8319 12.3949 23.5878 18.8902Z" fill="#FBBC05"/>
  <path d="M2.41287 19.3816C2.41287 19.3816 -1.58396 13.4016 2.62104 6.40856L8.6284 16.3332C8.6284 16.3332 9.70118 18.2445 12.9419 18.4665C14.1731 18.3507 15.4537 18.2462 17.055 16.5228C16.1857 18.1398 12.2775 25.2077 12.2775 25.2077C12.2775 25.2077 6.41467 25.4392 2.41287 19.3816Z" fill="#34A853"/>
  <path d="M7.38382 13.2024C7.36125 12.1275 7.65793 11.0701 8.23632 10.1639C8.81471 9.25761 9.64884 8.54324 10.6332 8.11108C11.6176 7.67892 12.7081 7.54839 13.7666 7.73599C14.8252 7.92359 15.8044 8.4209 16.5803 9.16502C17.3563 9.90914 17.8941 10.8667 18.1259 11.9165C18.3576 12.9663 18.2729 14.0613 17.8823 15.0629C17.4918 16.0645 16.813 16.9279 15.9318 17.5437C15.0506 18.1596 14.0065 18.5003 12.9317 18.5227C11.4905 18.5528 10.0964 18.0092 9.05599 17.0115C8.01557 16.0137 7.41408 14.6436 7.38382 13.2024Z" fill="white"/>
  <path d="M8.29353 13.1834C8.27472 12.2885 8.52166 11.4082 9.00312 10.6537C9.48459 9.89912 10.179 9.30429 10.9984 8.94437C11.8179 8.58444 12.7257 8.47558 13.6071 8.63155C14.4884 8.78752 15.3037 9.20131 15.9499 9.82062C16.5961 10.4399 17.0442 11.2369 17.2375 12.1109C17.4308 12.9848 17.3606 13.8964 17.0359 14.7305C16.7111 15.5646 16.1463 16.2836 15.413 16.7967C14.6796 17.3098 13.8106 17.594 12.9157 17.6132C12.3214 17.626 11.7303 17.5216 11.1762 17.3058C10.6222 17.0901 10.1161 16.7673 9.68689 16.356C9.25765 15.9446 8.91366 15.4527 8.67459 14.9083C8.43551 14.3639 8.30602 13.7778 8.29353 13.1834Z" fill="#4285F4"/>
</svg>