<svg width="127" height="26" viewBox="0 0 127 26" fill="none" xmlns="http://www.w3.org/2000/svg">
<path d="M19.4653 23.5293C20.5417 22.9279 21.3523 22.065 22.0561 21.1237C23.5248 19.1604 24.5249 16.9857 24.7929 14.5126C25.0479 12.157 24.66 9.92574 23.5727 7.81427C22.4113 5.55899 20.7313 3.84411 18.4084 2.78729C17.8593 2.53888 17.2971 2.32752 16.6914 2.28829C15.9549 2.24254 15.6149 2.59554 15.6411 3.33204C15.6629 3.95524 15.9636 4.4782 16.2621 4.99899C17.3124 6.81847 18.6656 8.40914 20.0383 9.98021C20.9601 11.0349 21.8556 12.12 22.5072 13.3599C23.601 15.4365 23.37 17.4956 22.2108 19.4829C21.921 19.9797 21.6247 20.4765 21.1801 20.8317C20.984 20.7533 21.0341 20.6269 21.0581 20.5332C21.3588 19.3216 20.8947 18.2823 20.3216 17.2734C19.0316 15.005 17.3211 13.0461 15.7195 11.0044C14.2836 9.1718 12.9696 7.25645 12.1568 5.04693C11.9498 4.48256 11.7973 3.90512 11.7864 3.29718C11.7515 1.38182 12.8519 0.235663 14.7826 0.196441C16.3602 0.163756 17.7852 0.721583 19.1253 1.46681C23.1369 3.69594 25.5316 7.11699 25.9369 11.6755C26.4076 17.0054 24.2351 21.1803 19.7202 24.0741C18.1905 25.0546 16.4865 25.6299 14.6714 25.8369C14.5494 25.85 14.4056 25.9197 14.3119 25.802C14.2247 25.6909 14.325 25.5994 14.4099 25.5297C15.9984 24.2462 15.8307 22.564 15.3644 20.8905C14.7913 18.8379 13.6277 17.0707 12.414 15.3384C10.7775 13.0047 8.75758 10.9629 7.26278 8.52027C6.90106 7.92976 6.57421 7.32618 6.32362 6.67901C5.7135 5.09922 5.62851 3.57173 6.76814 2.14666C5.9314 2.60861 5.26244 3.26449 4.64142 3.95742C2.93525 5.86406 1.79563 8.06704 1.32932 10.5947C0.398881 15.6544 2.98755 21.0082 7.60052 23.0892C8.13438 23.331 8.68349 23.5163 9.26311 23.5838C10.0301 23.6753 10.4485 23.27 10.3788 22.5008C10.3265 21.9103 10.065 21.3874 9.76864 20.884C8.67913 19.0253 7.29764 17.391 5.88346 15.7807C4.87675 14.6324 3.90491 13.447 3.28825 12.0372C2.39268 9.98893 2.73914 8.06704 4.01169 6.27807C4.21216 5.99698 4.43442 5.73332 4.65232 5.46748C4.70897 5.39775 4.79177 5.33674 4.88983 5.38032C4.99442 5.42825 4.97481 5.53285 4.95302 5.61783C4.65667 6.81193 5.24719 7.77069 5.78758 8.736C7.00783 10.9172 8.65299 12.7911 10.1935 14.7392C11.5707 16.4802 12.8258 18.2997 13.68 20.3632C13.8608 20.7968 14.0155 21.2501 14.1201 21.7077C14.837 24.8258 12.5643 25.8761 10.4703 25.643C9.09533 25.4904 7.83368 24.9653 6.65047 24.2745C2.86117 22.0716 0.597171 18.7813 0.095998 14.4232C-0.3507 10.5315 0.760597 7.05816 3.4495 4.14699C5.57404 1.84595 8.19104 0.477534 11.2961 0.0504468C11.4334 0.0308357 11.6164 -0.069399 11.6971 0.083132C11.8017 0.281422 11.5794 0.35333 11.4639 0.451385C10.54 1.24237 10.2567 2.2774 10.3526 3.43881C10.5008 5.22125 11.27 6.7836 12.1438 8.30237C13.4621 10.5947 15.1726 12.5972 16.8308 14.6389C17.6894 15.6958 18.4847 16.8071 19.1319 18.0077C20.0885 19.7771 20.6877 21.5922 19.4631 23.5293H19.4653Z" fill="#646AEE"/>
<path d="M39.008 7.76663C40.1813 7.76663 41.2107 7.99596 42.096 8.45463C42.992 8.9133 43.68 9.5693 44.16 10.4226C44.6507 11.2653 44.896 12.2466 44.896 13.3666C44.896 14.4866 44.6507 15.468 44.16 16.3106C43.68 17.1426 42.992 17.788 42.096 18.2466C41.2107 18.7053 40.1813 18.9346 39.008 18.9346H35.104V7.76663H39.008ZM38.928 17.0306C40.1013 17.0306 41.008 16.7106 41.648 16.0706C42.288 15.4306 42.608 14.5293 42.608 13.3666C42.608 12.204 42.288 11.2973 41.648 10.6466C41.008 9.9853 40.1013 9.65463 38.928 9.65463H37.344V17.0306H38.928ZM54.8128 14.3106C54.8128 14.6306 54.7914 14.9186 54.7488 15.1746H48.2688C48.3221 15.8146 48.5461 16.316 48.9408 16.6786C49.3354 17.0413 49.8208 17.2226 50.3968 17.2226C51.2288 17.2226 51.8208 16.8653 52.1728 16.1506H54.5888C54.3328 17.004 53.8421 17.708 53.1168 18.2626C52.3914 18.8066 51.5008 19.0786 50.4448 19.0786C49.5914 19.0786 48.8234 18.892 48.1408 18.5186C47.4688 18.1346 46.9408 17.596 46.5568 16.9026C46.1834 16.2093 45.9967 15.4093 45.9967 14.5026C45.9967 13.5853 46.1834 12.78 46.5568 12.0866C46.9301 11.3933 47.4528 10.86 48.1248 10.4866C48.7968 10.1133 49.5701 9.92663 50.4448 9.92663C51.2874 9.92663 52.0394 10.108 52.7008 10.4706C53.3728 10.8333 53.8901 11.3506 54.2528 12.0226C54.6261 12.684 54.8128 13.4466 54.8128 14.3106ZM52.4928 13.6706C52.4821 13.0946 52.2741 12.636 51.8688 12.2946C51.4634 11.9426 50.9674 11.7666 50.3808 11.7666C49.8261 11.7666 49.3568 11.9373 48.9728 12.2786C48.5994 12.6093 48.3701 13.0733 48.2848 13.6706H52.4928ZM60.5118 11.9106H58.9598V18.9346H56.6878V11.9106H55.6798V10.0706H56.6878V9.62263C56.6878 8.53463 56.9971 7.73463 57.6158 7.22263C58.2344 6.71063 59.1678 6.47063 60.4158 6.50263V8.39063C59.8718 8.37996 59.4931 8.47063 59.2798 8.66263C59.0664 8.85463 58.9598 9.2013 58.9598 9.70263V10.0706H60.5118V11.9106ZM65.3554 19.0786C64.63 19.0786 63.9794 18.9506 63.4034 18.6946C62.8274 18.428 62.3687 18.0706 62.0274 17.6226C61.6967 17.1746 61.5154 16.6786 61.4834 16.1346H63.7394C63.782 16.476 63.9474 16.7586 64.2354 16.9826C64.534 17.2066 64.902 17.3186 65.3394 17.3186C65.766 17.3186 66.0967 17.2333 66.3314 17.0626C66.5767 16.892 66.6994 16.6733 66.6994 16.4066C66.6994 16.1186 66.55 15.9053 66.2514 15.7666C65.9634 15.6173 65.4994 15.4573 64.8594 15.2866C64.198 15.1266 63.654 14.9613 63.2274 14.7906C62.8114 14.62 62.4487 14.3586 62.1394 14.0066C61.8407 13.6546 61.6914 13.18 61.6914 12.5826C61.6914 12.092 61.83 11.644 62.1074 11.2386C62.3954 10.8333 62.8007 10.5133 63.3234 10.2786C63.8567 10.044 64.4807 9.92663 65.1954 9.92663C66.2514 9.92663 67.094 10.1933 67.7234 10.7266C68.3527 11.2493 68.6994 11.9586 68.7634 12.8546H66.6194C66.5874 12.5026 66.438 12.2253 66.1714 12.0226C65.9154 11.8093 65.5687 11.7026 65.1314 11.7026C64.726 11.7026 64.4114 11.7773 64.1874 11.9266C63.974 12.076 63.8674 12.284 63.8674 12.5506C63.8674 12.8493 64.0167 13.0786 64.3154 13.2386C64.614 13.388 65.078 13.5426 65.7074 13.7026C66.3474 13.8626 66.8754 14.028 67.2914 14.1986C67.7074 14.3693 68.0647 14.636 68.3634 14.9986C68.6727 15.3506 68.8327 15.82 68.8434 16.4066C68.8434 16.9186 68.6994 17.3773 68.4114 17.7826C68.134 18.188 67.7287 18.508 67.1954 18.7426C66.6727 18.9666 66.0594 19.0786 65.3554 19.0786ZM74.6181 19.0786C73.7648 19.0786 72.9968 18.892 72.3141 18.5186C71.6315 18.1346 71.0928 17.596 70.6981 16.9026C70.3141 16.2093 70.1221 15.4093 70.1221 14.5026C70.1221 13.596 70.3195 12.796 70.7141 12.1026C71.1195 11.4093 71.6688 10.876 72.3621 10.5026C73.0555 10.1186 73.8288 9.92663 74.6821 9.92663C75.5355 9.92663 76.3088 10.1186 77.0021 10.5026C77.6955 10.876 78.2395 11.4093 78.6341 12.1026C79.0395 12.796 79.2421 13.596 79.2421 14.5026C79.2421 15.4093 79.0341 16.2093 78.6181 16.9026C78.2128 17.596 77.6581 18.1346 76.9541 18.5186C76.2608 18.892 75.4821 19.0786 74.6181 19.0786ZM74.6181 17.1266C75.0235 17.1266 75.4021 17.0306 75.7541 16.8386C76.1168 16.636 76.4048 16.3373 76.6181 15.9426C76.8315 15.548 76.9381 15.068 76.9381 14.5026C76.9381 13.66 76.7141 13.0146 76.2661 12.5666C75.8288 12.108 75.2901 11.8786 74.6501 11.8786C74.0101 11.8786 73.4715 12.108 73.0341 12.5666C72.6075 13.0146 72.3941 13.66 72.3941 14.5026C72.3941 15.3453 72.6021 15.996 73.0181 16.4546C73.4448 16.9026 73.9781 17.1266 74.6181 17.1266ZM83.1253 7.09463V18.9346H80.8853V7.09463H83.1253ZM93.7064 10.0706V18.9346H91.4504V17.8146C91.1624 18.1986 90.7837 18.5026 90.3144 18.7266C89.8557 18.94 89.3544 19.0466 88.8104 19.0466C88.117 19.0466 87.5037 18.9026 86.9704 18.6146C86.437 18.316 86.0157 17.884 85.7064 17.3186C85.4077 16.7426 85.2584 16.06 85.2584 15.2706V10.0706H87.4984V14.9506C87.4984 15.6546 87.6744 16.1986 88.0264 16.5826C88.3784 16.956 88.8584 17.1426 89.4664 17.1426C90.085 17.1426 90.5704 16.956 90.9224 16.5826C91.2744 16.1986 91.4504 15.6546 91.4504 14.9506V10.0706H93.7064ZM98.5245 11.9106V16.1986C98.5245 16.4973 98.5938 16.716 98.7325 16.8546C98.8818 16.9826 99.1272 17.0466 99.4685 17.0466H100.509V18.9346H99.1005C97.2125 18.9346 96.2685 18.0173 96.2685 16.1826V11.9106H95.2125V10.0706H96.2685V7.87863H98.5245V10.0706H100.509V11.9106H98.5245ZM103.256 9.01463C102.861 9.01463 102.53 8.89196 102.264 8.64663C102.008 8.39063 101.88 8.07596 101.88 7.70263C101.88 7.3293 102.008 7.01996 102.264 6.77463C102.53 6.51863 102.861 6.39063 103.256 6.39063C103.65 6.39063 103.976 6.51863 104.232 6.77463C104.498 7.01996 104.632 7.3293 104.632 7.70263C104.632 8.07596 104.498 8.39063 104.232 8.64663C103.976 8.89196 103.65 9.01463 103.256 9.01463ZM104.36 10.0706V18.9346H102.12V10.0706H104.36ZM110.509 19.0786C109.655 19.0786 108.887 18.892 108.205 18.5186C107.522 18.1346 106.983 17.596 106.589 16.9026C106.205 16.2093 106.013 15.4093 106.013 14.5026C106.013 13.596 106.21 12.796 106.605 12.1026C107.01 11.4093 107.559 10.876 108.253 10.5026C108.946 10.1186 109.719 9.92663 110.573 9.92663C111.426 9.92663 112.199 10.1186 112.893 10.5026C113.586 10.876 114.13 11.4093 114.525 12.1026C114.93 12.796 115.133 13.596 115.133 14.5026C115.133 15.4093 114.925 16.2093 114.509 16.9026C114.103 17.596 113.549 18.1346 112.845 18.5186C112.151 18.892 111.373 19.0786 110.509 19.0786ZM110.509 17.1266C110.914 17.1266 111.293 17.0306 111.645 16.8386C112.007 16.636 112.295 16.3373 112.509 15.9426C112.722 15.548 112.829 15.068 112.829 14.5026C112.829 13.66 112.605 13.0146 112.157 12.5666C111.719 12.108 111.181 11.8786 110.541 11.8786C109.901 11.8786 109.362 12.108 108.925 12.5666C108.498 13.0146 108.285 13.66 108.285 14.5026C108.285 15.3453 108.493 15.996 108.909 16.4546C109.335 16.9026 109.869 17.1266 110.509 17.1266ZM121.688 9.94263C122.744 9.94263 123.597 10.2786 124.248 10.9506C124.899 11.612 125.224 12.54 125.224 13.7346V18.9346H122.984V14.0386C122.984 13.3346 122.808 12.796 122.456 12.4226C122.104 12.0386 121.624 11.8466 121.016 11.8466C120.397 11.8466 119.907 12.0386 119.544 12.4226C119.192 12.796 119.016 13.3346 119.016 14.0386V18.9346H116.776V10.0706H119.016V11.1746C119.315 10.7906 119.693 10.492 120.152 10.2786C120.621 10.0546 121.133 9.94263 121.688 9.94263Z" fill="#1E1F24"/>
</svg>
