<svg xmlns="http://www.w3.org/2000/svg" width="20" height="20" viewBox="0 0 20 20" fill="none">
  <path d="M16.1706 4.46165C15.0025 3.92691 13.7695 3.54755 12.5029 3.33325C12.3295 3.64309 12.1727 3.96187 12.033 4.28827C10.6839 4.08496 9.31183 4.08496 7.96265 4.28827C7.8229 3.96191 7.66608 3.64313 7.49282 3.33325C6.2254 3.54936 4.99153 3.92962 3.82234 4.46445C1.50119 7.89859 0.871965 11.2474 1.18658 14.5487C2.5459 15.5531 4.06737 16.3169 5.68485 16.8069C6.04906 16.3171 6.37133 15.7974 6.64826 15.2535C6.12228 15.057 5.61461 14.8146 5.13113 14.5292C5.25837 14.4369 5.38282 14.3418 5.50307 14.2495C6.90988 14.9111 8.44533 15.2541 9.99994 15.2541C11.5545 15.2541 13.09 14.9111 14.4968 14.2495C14.6185 14.3488 14.7429 14.4439 14.8688 14.5292C14.3843 14.8151 13.8757 15.0579 13.3488 15.2549C13.6254 15.7986 13.9477 16.3178 14.3122 16.8069C15.9311 16.3188 17.4537 15.5554 18.8133 14.5501C19.1825 10.7217 18.1827 7.4036 16.1706 4.46165ZM7.04677 12.5185C6.17005 12.5185 5.44574 11.7228 5.44574 10.7441C5.44574 9.76527 6.14488 8.96267 7.04398 8.96267C7.94307 8.96267 8.66179 9.76527 8.64641 10.7441C8.63102 11.7228 7.94027 12.5185 7.04677 12.5185ZM12.9531 12.5185C12.075 12.5185 11.3535 11.7228 11.3535 10.7441C11.3535 9.76527 12.0526 8.96267 12.9531 8.96267C13.8536 8.96267 14.5667 9.76527 14.5513 10.7441C14.536 11.7228 13.8466 12.5185 12.9531 12.5185Z" fill="#1E1F24"/>
</svg>