<svg width="1920" height="352" viewBox="0 0 1920 352" fill="none" xmlns="http://www.w3.org/2000/svg">
<g clip-path="url(#clip0_883_5313)">
<mask id="mask0_883_5313" style="mask-type:alpha" maskUnits="userSpaceOnUse" x="0" y="0" width="1920" height="352">
<rect width="1920" height="352" fill="url(#paint0_linear_883_5313)"/>
</mask>
<g mask="url(#mask0_883_5313)">
<path fill-rule="evenodd" clip-rule="evenodd" d="M959.693 -36.6309L953.692 9.12288L985.596 26.2089L979.851 100.903H950.668L933.583 244.849L969.115 269.647L962.614 356.135H916.345L893.513 541.662C889.28 542.721 885.651 546.349 885.197 550.583C884.593 555.724 888.373 559.958 893.967 559.958C899.562 559.958 904.4 555.724 905.005 550.583C905.459 546.349 902.888 542.721 898.806 541.662L920.428 359.613H966.999L973.349 268.588L937.816 243.942L953.995 103.02H983.328L988.923 25.9065L957.019 8.97167L962.765 -36.5406C964.882 -36.843 966.545 -37.5991 966.696 -38.6575C966.696 -39.8671 964.882 -40.9255 962.16 -40.9255C959.438 -40.9255 957.17 -40.0183 957.019 -38.6575C957.019 -37.6922 958.025 -36.9785 959.693 -36.6309ZM1242.47 5.34177L1260.17 55.995L1303.86 75.8027L1359.51 214.305H1470.04L1742.35 719.779H1748.4L1472.46 211.886H1362.38L1306.74 75.1979L1262.89 55.3902L1245.2 5.34177C1247.31 5.03936 1248.52 4.13214 1248.07 2.92252C1247.62 1.56168 1244.89 0.352051 1242.02 0.352051C1239.15 0.352051 1237.33 1.41048 1237.79 2.92252C1238.24 4.13214 1240.21 5.03936 1242.47 5.34177ZM1785.31 109.067L1697.91 27.1146C1695.19 26.8122 1692.47 25.7538 1691.11 24.5442C1689.45 23.0321 1690.51 21.8225 1693.53 21.8225C1696.55 21.8225 1700.18 23.0321 1701.85 24.5442C1703.21 25.7538 1702.75 26.8122 1700.79 27.1146L1787.73 108.311L1852.44 131.445L1978.09 243.033H1937.57L2274 555.118H2268.71L1930.92 240.463H1971.29L1850.03 132.352L1785.31 109.067ZM1574.06 69.4512L1621.09 127.211L1682.02 151.706L1752.03 232.449H1712.11L2016.79 604.41H2022.23L1718.01 235.019H1758.08L1684.59 150.799L1623.66 126.455L1577.09 69.4512C1579.2 69.1488 1579.96 67.9392 1578.75 66.4271C1577.39 64.7639 1573.61 63.4031 1570.59 63.4031C1567.56 63.4031 1566.05 64.7639 1567.41 66.4271C1568.62 67.788 1571.34 68.9976 1574.06 69.4512ZM1739.78 244.848H1780.31L1780.46 244.697L1694.57 148.078L1633.49 123.885L1595.08 77.7684H1615.65C1615.04 76.4075 1616.4 75.3491 1619.12 75.3491C1622.3 75.3491 1626.23 76.8612 1627.74 78.5244C1629.25 80.1876 1627.89 81.6997 1624.72 81.6997C1622 81.6997 1618.82 80.6412 1617.01 79.2804H1599.47L1636.06 122.978L1697.15 147.171L1786.66 247.419H1745.98L2039.77 595.339H2034.33L1739.78 244.848ZM1704.56 143.846L1643.47 119.956H1643.62L1616.25 87.9009H1647.4C1646.8 86.5401 1648.16 85.4817 1650.88 85.4817C1654.21 85.4817 1658.14 86.9937 1659.8 88.8082C1661.46 90.6226 1660.26 92.1346 1656.93 92.1346C1654.21 92.1346 1651.03 91.0762 1649.07 89.7154H1620.94L1646.19 119.2L1707.28 143.09L1812.52 258.459H1771.24L2052.63 584.454H2047.19L1764.89 255.737H1806.02L1704.56 143.846ZM1681.72 165.919C1683.23 167.734 1682.63 169.397 1680.21 169.851V170.002L1723.91 221.714H1684.44L1918.2 515.2H1913.06L1678.7 219.143H1718.01L1676.73 169.851C1673.55 169.397 1670.08 167.885 1668.56 165.919C1666.75 163.651 1668.11 161.837 1671.74 161.837C1675.37 161.837 1679.75 163.651 1681.72 165.919ZM1656.16 152.464C1657.65 154.252 1657.09 155.745 1654.76 156.223L1700.32 211.434H1661.31L1904.89 524.728H1899.75L1655.71 209.014H1694.57L1651.18 156.244C1648 155.791 1644.82 154.279 1643.31 152.464C1641.5 150.347 1643.01 148.533 1646.49 148.533C1649.97 148.533 1654.35 150.347 1656.16 152.464ZM1668.72 197.671L1627.9 146.716C1624.72 146.262 1621.54 144.75 1620.18 142.936C1618.52 140.668 1620.03 139.004 1623.51 139.004C1626.99 139.004 1631.37 140.819 1633.04 142.936C1634.55 144.75 1633.64 146.262 1631.37 146.716L1674.31 200.091H1635.91L1887.66 532.739H1882.52L1630.47 197.671H1668.72ZM1596.92 171.063H1633.96L1575.45 96.3684H1538.85L1581.19 154.279H1601.76L1575.9 120.107C1578.17 119.654 1579.07 118.293 1577.71 116.63C1576.2 114.664 1572.27 113.001 1568.79 113.001C1565.32 113.001 1563.8 114.664 1565.32 116.63C1566.52 118.293 1569.55 119.654 1572.42 120.107L1596.46 152.163H1582.85L1543.24 98.1828H1573.48L1628.52 168.946H1591.62L1771.86 415.862H1776.55L1596.77 171.063H1596.92ZM1703.65 43.5967L1776.23 112.848L1841.09 136.285L1944.06 229.728H1904.3L2258.27 565.401H2263.56L1910.8 232.299H1950.72L1843.51 135.529L1778.65 112.092L1706.52 43.5967C1708.49 43.2943 1709.09 42.0847 1707.58 40.8751C1705.92 39.2118 1702.14 38.0022 1699.11 38.0022C1696.09 38.0022 1695.03 39.2118 1696.69 40.8751C1698.06 42.2359 1700.93 43.2943 1703.65 43.5967ZM1764.74 116.023L1706.07 58.8676H1705.62C1702.9 58.5652 1699.87 57.3556 1698.51 55.9948C1696.85 54.3315 1697.91 52.9707 1701.08 52.9707C1704.26 52.9707 1708.19 54.3315 1709.85 55.9948C1711.37 57.3556 1710.76 58.5652 1708.8 58.8676L1767.01 115.267L1831.72 138.854L1920.18 220.202H1880.87L2248.14 573.867H2242.85L1874.67 217.783H1913.98L1829.46 139.762L1764.74 116.023ZM948.076 -29.2836L942.179 9.42451L973.78 26.5105L967.43 92.7377H934.165L911.182 251.955L949.134 281.894L943.54 339.805H898.33L856.597 628.604C851.91 629.813 847.979 633.896 847.223 638.885C846.316 644.934 850.398 649.772 856.295 649.772C862.192 649.772 867.635 644.782 868.543 638.885C869.147 633.896 866.426 629.813 862.192 628.604L902.11 343.131H947.471L953.217 280.684L915.114 250.897L936.887 94.5522H970.152L976.351 25.9057L944.749 8.9709L950.344 -28.9812C952.612 -29.1324 954.426 -30.0396 954.578 -31.2493C954.729 -32.4589 952.763 -33.5173 950.042 -33.5173C947.32 -33.5173 945.052 -32.4589 944.901 -31.2493C944.749 -30.1909 945.959 -29.4348 947.925 -29.1324L948.076 -29.2836ZM1248.97 59.4731L1235.06 17.136C1232.79 16.8336 1230.83 15.7752 1230.37 14.5656C1229.92 13.2047 1231.73 11.9951 1234.76 11.9951C1237.78 11.9951 1240.5 13.0535 1240.96 14.5656C1241.41 15.7752 1240.05 16.8336 1237.93 17.136L1251.84 58.8682L1295.54 78.8271L1351.64 223.529H1463.38L1723.9 719.931H1717.85L1460.96 225.948H1348.92L1292.67 79.432L1248.97 59.4731ZM1252.31 129.632L1233.64 67.5973C1231.17 67.1146 1229.17 65.936 1228.73 64.6149C1228.12 62.9517 1230.24 61.5908 1233.41 61.5908C1236.59 61.5908 1239.46 62.9517 1240.07 64.6149C1240.52 66.1269 1239.01 67.3366 1236.74 67.639L1255.49 129.028L1304.18 153.523L1347.12 272.369H1305.23L1411.08 610.914H1405.48L1300.24 269.496H1341.98L1300.85 154.279L1252.31 129.632ZM1239.76 133.714L1225.09 81.5485L1224.94 81.6997C1222.37 81.2461 1220.25 80.0364 1219.8 78.5244C1219.19 76.8612 1221.46 75.3491 1224.63 75.3491C1227.81 75.3491 1230.83 76.71 1231.29 78.5244C1231.74 80.0364 1230.38 81.2461 1227.96 81.6997L1242.63 132.958L1291.16 157.755L1326.55 260.876H1285.27L1391.56 622.253H1385.97L1280.58 258.154H1321.71L1288.14 158.662L1239.76 133.714ZM1211.79 84.424L1225.55 137.043L1273.78 162.143L1300.09 245.305H1259.57L1363.29 631.63H1368.89L1264.1 248.026H1304.78L1276.96 161.236L1228.72 136.136L1214.96 84.424C1217.38 83.9704 1218.89 82.7608 1218.44 81.2488C1217.99 79.4343 1214.96 78.0735 1211.79 78.0735C1208.61 78.0735 1206.34 79.5855 1206.8 81.2488C1207.25 82.7608 1209.37 83.9704 1211.94 84.424H1211.79ZM1460.07 272.821C1459.92 270.553 1461.89 268.89 1465.37 268.89L1465.52 269.041C1469.6 269.041 1474.14 271.309 1475.65 274.333C1477.16 277.358 1475.04 279.777 1470.81 279.777C1467.33 279.777 1463.55 278.114 1461.59 275.845H1425.9L1447.67 324.079L1518.29 363.997L1621.41 568.273H1565.31L1886.01 1270.61H1877.4L1557.6 563.133H1613.55L1514.51 365.358L1443.89 325.289L1420.46 272.821H1460.07ZM1503.75 371.103L1433.14 330.58L1402.45 259.364H1424.67C1426.49 261.632 1430.12 263.144 1433.59 263.144C1437.68 263.144 1439.95 260.876 1438.58 258.003C1437.22 255.13 1432.84 252.862 1428.76 252.862C1425.43 252.862 1423.31 254.525 1423.46 256.642H1397.31L1429.51 331.941L1499.97 372.615L1582.08 543.022H1527.19L1854.39 1297.98H1863.01L1534.45 547.86H1589.64L1503.6 371.103H1503.75ZM1416.22 336.023L1486.38 376.999H1486.53L1555.48 525.028H1501.35L1833.24 1320.81H1824.47L1494.24 520.34H1548.07L1482.75 378.511L1412.59 337.384L1374.34 243.184C1371.01 242.579 1367.99 240.614 1367.08 238.346C1365.87 235.473 1368.29 233.356 1372.22 233.356C1376.15 233.356 1380.24 235.624 1381.45 238.346C1382.35 240.765 1380.99 242.579 1378.12 243.184L1416.22 336.023ZM1473.81 409.512C1477.14 408.604 1478.65 405.883 1477.14 402.707C1475.48 398.776 1470.19 395.601 1465.5 395.601C1460.81 395.601 1458.24 398.776 1459.9 402.707C1461.26 406.034 1465.2 408.756 1469.13 409.512L1506.63 496.151H1454.01L1687.62 1102.78H1695.48L1460.81 500.687H1513.73L1473.81 409.512ZM1448.73 379.721C1450.09 382.745 1448.43 385.467 1445.25 386.223L1485.62 482.691H1433.61L1672.06 1125.46H1664.2L1427.11 478.306H1478.97L1440.87 386.223C1436.94 385.467 1433.16 382.897 1431.95 379.721C1430.43 376.092 1433.01 373.068 1437.54 373.068C1442.08 373.068 1447.22 375.941 1448.73 379.721ZM1418.32 370.047C1421.49 369.291 1423.16 366.72 1421.8 363.696C1420.29 360.067 1415.45 357.194 1410.91 357.194C1406.37 357.194 1403.8 360.067 1405.16 363.696C1406.37 366.72 1409.85 369.291 1413.78 370.047L1448.41 458.047H1397.6L1634.69 1144.21H1642.71L1403.96 462.281H1455.06L1418.32 370.047ZM1318.99 286.428H1365.56L1412.58 411.625H1364.04L1517.97 881.112H1511.17L1358.15 407.845H1406.53L1362.53 289.453H1323.82L1353.31 379.116H1371L1352.4 325.439C1348.92 324.683 1345.6 322.415 1344.69 319.693C1343.63 316.367 1346.2 313.796 1350.59 313.796C1354.97 313.796 1359.36 316.367 1360.57 319.693C1361.47 322.415 1359.96 324.683 1356.79 325.439L1376.9 382.745H1350.13L1318.99 286.428ZM1521.16 160.025H1489.86L1593.89 332.397L1654.67 362.638L1724.07 469.841H1672.21L1814.8 707.836C1810.86 709.197 1810.11 713.884 1813.43 719.478C1817.52 726.283 1825.98 731.877 1832.18 731.877C1838.38 731.877 1840.2 726.283 1836.12 719.478C1832.64 713.884 1826.29 709.197 1820.69 707.836L1679.62 474.226H1731.63L1658 361.277L1597.06 331.036L1494.4 162.293H1526.15L1467.63 72.3267L1419.25 52.6702L1386.74 -1.91431H1384.02L1416.68 53.275L1464.91 72.9315L1521.16 160.025ZM1500.95 150.043H1465.06L1575.29 340.711L1643.48 377.302L1688.54 449.124H1638.04L1854.26 823.05C1850.03 824.714 1849.42 830.308 1853.2 836.961C1857.89 845.126 1867.26 851.628 1874.07 851.628C1880.87 851.628 1882.69 844.975 1877.85 836.961C1873.92 830.308 1866.81 824.714 1860.76 823.05L1645.14 453.358H1695.8L1646.96 375.941L1578.77 339.501L1469.6 152.311H1505.73L1455.23 72.4755L1407.3 52.819L1380.69 6.7019H1377.97L1404.73 53.4238L1452.66 73.0803L1500.95 150.043ZM1396.09 59.1707L1372.73 16.9756C1370.34 16.6613 1368.11 15.612 1367.51 14.4145C1366.76 13.0536 1368.42 11.844 1371.29 11.844C1374.17 11.844 1377.19 12.9024 1377.95 14.4145C1378.7 15.6241 1377.64 16.6825 1375.53 16.9849L1398.81 58.5659L1446.9 78.5248L1488.48 146.415H1452.64L1776.52 719.931H1770.47L1448.1 144.298H1483.79L1444.17 79.1296L1396.09 59.1707ZM1629.71 307.298L1543.68 176.96H1543.53C1540.35 176.507 1537.18 174.843 1535.97 172.878C1534.45 170.458 1536.27 168.644 1539.9 168.644C1543.53 168.644 1547.76 170.61 1549.27 172.878C1550.63 174.843 1549.57 176.507 1547.15 176.96L1632.89 305.937L1710 344.343L1850.47 539.547H1795.73L2237.85 1198.04H2229.69L1787.42 534.708H1842L1706.83 345.704L1629.71 307.298ZM1551.54 198.279C1549.88 195.859 1545.65 193.742 1541.87 193.742C1538.09 193.742 1536.27 195.708 1537.94 198.279C1539.3 200.395 1542.47 202.059 1545.8 202.663L1617.02 313.647L1694.13 352.657L1807.53 515.504H1753.86L2212.61 1223.29H2220.92L1762.02 520.191H1815.85L1697.46 351.297L1620.34 312.437L1549.43 202.663C1552 202.059 1553.06 200.395 1551.7 198.279H1551.54ZM1604.47 317.579L1681.43 356.892L1777.75 498.419H1724.98L2196.28 1244.31H2187.81L1717.11 493.883H1769.73L1678.1 358.253L1601.14 318.789L1543.83 226.554C1540.51 226.101 1537.18 224.135 1535.82 222.018C1534.16 219.448 1536.12 217.331 1539.9 217.331C1543.68 217.331 1548.22 219.448 1549.88 222.018C1551.24 224.135 1550.18 225.95 1547.61 226.554L1604.47 317.579ZM1063.91 21.673L1066.48 75.3503L1105.49 96.3676L1115.62 193.289H1077.52L1092.79 467.724H1097.63L1081.15 195.708H1119.4L1108.52 95.6116L1069.51 74.5943L1066.63 21.673C1068.9 21.3706 1070.41 20.3122 1070.41 19.1025C1070.41 17.5905 1067.84 16.3809 1064.97 16.3809C1062.1 16.3809 1059.68 17.5905 1059.83 19.1025C1059.83 20.3122 1061.64 21.3706 1063.91 21.673ZM1054.09 78.6776L1052.73 33.9213L1052.88 33.6189C1050.62 33.3165 1048.8 32.258 1048.8 30.8972C1048.8 29.3852 1051.22 28.1755 1054.09 28.1755C1056.97 28.1755 1059.54 29.3852 1059.54 30.8972C1059.54 32.258 1057.87 33.3165 1055.61 33.6189L1057.12 77.7703L1095.98 98.9389L1103.84 185.881H1066.19L1078.29 476.192H1073.3L1062.41 183.613H1100.06L1092.95 99.8461L1054.09 78.6776ZM1040.01 81.7L1039.56 36.7506C1037.3 36.401 1035.77 35.3747 1035.77 34.0709C1035.77 32.4076 1038.19 31.198 1041.22 31.198C1044.24 31.198 1046.66 32.5588 1046.66 34.0709C1046.66 35.4317 1045 36.4901 1042.73 36.7925L1043.33 81.2464L1081.89 102.566L1086.88 175.598H1049.69L1056.04 483.902H1051.05L1046.06 173.329H1083.1L1078.57 103.171L1040.01 81.7ZM1256.7 198.429H1190.62V198.731L1198.48 238.649L1252.61 271.309L1293.89 434.609H1244.15L1349.23 949.004H1342.13L1238.55 430.526H1288L1248.83 272.367L1194.85 239.556L1186.54 196.161H1256.09C1256.39 194.195 1258.51 192.834 1261.69 192.834C1265.47 192.834 1269.25 194.649 1269.85 197.219C1270.46 199.79 1268.04 201.755 1264.26 201.755C1261.08 201.755 1258.06 200.394 1256.7 198.429ZM1265.3 414.501H1216.61L1316.71 967.452H1323.81L1221.9 418.281H1270.89L1237.78 276.754L1183.95 243.641L1173.37 184.671H1226.74C1227.95 186.486 1230.97 187.846 1234 187.846C1237.78 187.846 1240.2 185.881 1239.59 183.461C1238.99 181.042 1235.51 179.228 1231.73 179.228C1228.71 179.228 1226.44 180.589 1226.14 182.403H1169.43L1180.32 244.699L1234.15 277.964L1265.45 414.349L1265.3 414.501ZM1163.41 249.385L1147.38 144.904V144.753C1144.51 144.299 1142.39 142.787 1142.09 140.972C1141.79 138.856 1144.36 137.192 1147.84 137.192C1151.31 137.192 1154.49 138.856 1154.79 140.972C1155.09 142.787 1153.28 144.299 1150.71 144.753L1167.04 248.176L1220.56 281.743L1245.82 400.438H1197.73L1293.75 983.026H1286.49L1192.59 396.658H1240.52L1216.78 282.953L1163.41 249.385ZM1201.35 308.053C1204.53 307.297 1206.49 305.18 1206.04 302.459C1205.43 299.283 1201.5 296.713 1197.27 296.713C1193.03 296.713 1190.01 299.283 1190.62 302.459C1191.07 305.18 1193.94 307.297 1197.27 308.053L1209.82 377.456H1162.79L1223.12 831.974H1229.63L1167.63 381.085H1214.81L1201.2 308.053H1201.35ZM1185.92 283.861C1186.38 286.432 1184.41 288.549 1181.23 289.153L1194.24 366.721H1147.82L1204.97 848.002H1198.32L1142.98 363.243H1189.25L1177.3 289.153C1173.98 288.549 1171.25 286.432 1170.8 283.861C1170.35 280.837 1173.37 278.418 1177.45 278.418C1181.54 278.418 1185.47 280.837 1185.92 283.861ZM1156.89 275.997L1167.02 347.063H1121.51L1169.44 861.155H1176.1L1126.2 350.389H1171.86L1160.97 275.846C1164 275.241 1166.12 273.124 1165.66 270.705C1165.21 267.832 1161.58 265.413 1157.5 265.413C1153.41 265.413 1150.39 267.832 1150.84 270.705C1151.15 273.124 1153.87 275.241 1157.04 275.846L1156.89 275.997ZM1120.47 286.429H1096.27L1090.68 207.35H1133.17L1145.87 309.866H1102.17L1129.54 672.15H1123.79L1097.94 306.69H1141.48L1129.99 209.769H1094.76L1100.36 283.405H1116.38L1112.3 239.556C1109.13 238.951 1106.71 237.137 1106.55 234.869C1106.25 232.147 1109.28 230.03 1113.21 230.03C1117.14 230.03 1120.47 232.147 1120.77 234.869C1120.92 237.137 1118.95 238.951 1115.93 239.556L1120.47 286.429ZM822.293 -32.4582L805.66 11.8445L833.482 29.0817L795.681 147.172H896.987L822.595 551.037H827.887L900.767 145.055H799.763L836.506 28.4769L808.533 11.3909L824.712 -32.307C826.829 -32.6094 828.643 -33.3654 829.097 -34.4238C829.55 -35.6335 827.736 -36.6919 825.014 -36.6919C822.293 -36.6919 819.873 -35.6335 819.268 -34.4238C818.815 -33.3654 820.025 -32.4582 821.99 -32.307L822.293 -32.4582ZM807.568 -22.2102L793.099 14.5652L820.77 31.9536L778.433 156.697H881.1L801.265 550.885H806.557L885.031 154.58H782.666L823.945 31.3488L796.275 14.1116L810.488 -22.1773C812.756 -22.4797 814.57 -23.3869 815.024 -24.4453C815.478 -25.655 813.663 -26.7134 810.942 -26.7134C808.22 -26.7134 805.649 -25.655 805.045 -24.4453C804.606 -23.4229 805.72 -22.5415 807.568 -22.2102ZM857.507 192.532C854.331 192.532 851.458 193.893 850.249 195.858H814.262L802.317 239.254L840.874 272.065L805.795 430.073H756.351L616.186 947.945H623.292L759.98 434.155H809.726L845.259 271.007L806.551 238.347L817.438 198.429H849.947C850.249 200.395 852.668 201.755 855.844 201.755C859.624 201.755 863.101 199.79 863.706 197.219C864.311 194.649 861.589 192.834 857.809 192.834L857.507 192.532ZM789.032 243.489L827.287 276.603L826.984 276.905L793.568 418.281H744.73L588.536 966.697H581.43L741.252 414.349H789.94L822.751 277.964L784.647 244.699L803.094 182.403H826.984C828.194 180.589 831.218 179.228 834.242 179.228C837.871 179.228 840.442 181.042 839.837 183.461C839.232 185.881 835.754 187.846 831.974 187.846C828.95 187.846 826.682 186.486 826.38 184.671H806.118L789.032 243.489ZM807.912 281.44L770.263 248.024L794.304 171.213C797.177 170.759 799.747 169.096 800.352 167.282C801.108 165.014 798.689 163.199 795.06 163.199C791.431 163.199 787.953 165.014 787.197 167.282C786.593 169.247 788.105 170.759 790.826 171.213L766.18 249.083L803.83 282.65L774.043 396.355H726.111L544.364 982.118H551.622L729.438 400.135H777.52L808.063 281.592L807.912 281.44ZM783.572 302.156C782.816 304.878 779.792 306.995 776.314 307.751V307.902L755.599 380.782H708.423L558.429 831.218H551.928L705.248 377.153H752.121L772.231 307.751C769.207 306.995 767.393 304.727 768.149 302.156C769.056 298.981 773.29 296.411 777.524 296.411C781.757 296.411 784.479 298.981 783.572 302.156ZM772.253 283.558C771.505 286.101 768.685 288.2 765.258 288.831L741.71 366.267H695.29L526.093 847.094H519.44L691.964 362.789H738.232L761.064 288.85C758.04 288.246 756.376 286.129 757.132 283.558C758.04 280.534 762.273 278.115 766.356 278.115C770.438 278.115 773.16 280.534 772.253 283.558ZM758.036 270.554C757.28 272.973 754.256 275.09 750.929 275.695L750.778 275.846L726.586 350.238H680.922L490.859 860.399H484.206L677.898 346.76H723.41L746.847 275.695C743.823 275.09 742.311 272.973 743.067 270.554C744.125 267.681 748.208 265.262 752.29 265.262C756.373 265.262 758.943 267.681 758.036 270.554ZM755.305 207.047H712.817L681.216 285.975H705.408L722.797 239.102C726.123 238.497 728.996 236.682 729.752 234.414C730.81 231.693 728.391 229.576 724.46 229.576C720.528 229.576 716.446 231.693 715.539 234.414C714.632 236.682 716.144 238.497 719.017 239.102L702.535 282.951H686.508L715.539 209.315H750.769L716.748 306.085H673.202L527.441 671.091H533.338L676.226 309.109H719.924L755.457 206.744L755.305 207.047ZM936.582 -22.333L930.407 14.4134L961.857 31.8018L955.507 87.7471H922.544L847.245 551.035H852.537L925.417 89.5616H958.531L964.882 31.197L933.28 13.9598L939.328 -22.3291C941.445 -22.6315 943.108 -23.5388 943.26 -24.5972C943.411 -25.8068 941.445 -26.8652 938.723 -26.8652C936.002 -26.8652 933.582 -25.8068 933.431 -24.5972C933.281 -23.5432 934.63 -22.6392 936.582 -22.333ZM989.057 115.417L982.253 224.283L1027.01 255.885L1025.8 407.693H977.415L949.896 897.896H956.7L981.648 411.474H1030.18L1030.64 254.827L985.731 223.376L991.93 115.568C994.501 115.114 996.466 113.753 996.618 112.09C996.618 110.125 994.047 108.613 990.721 108.613C987.394 108.613 984.521 110.125 984.37 112.09C984.37 113.753 986.033 115.114 988.604 115.568L989.057 115.417ZM976.211 129.632C979.689 129.632 982.26 131.295 982.26 133.412V133.563C982.26 135.227 980.143 136.739 977.421 137.192L970.466 228.671L1015.07 260.574L1012.05 396.355H964.115L927.675 915.438H920.72L959.73 392.575H1007.36L1010.84 261.633L966.383 229.578L973.943 137.041C971.222 136.587 969.407 135.227 969.558 133.412C969.861 131.295 972.734 129.632 976.211 129.632ZM996.782 265.112L952.631 232.905L960.04 157.303C962.762 156.85 965.03 155.338 965.181 153.523C965.332 151.255 962.61 149.592 959.133 149.592C955.655 149.592 952.48 151.406 952.328 153.523C952.177 155.338 953.992 156.85 956.713 157.303L948.851 233.964L992.851 266.321L987.71 375.49H940.837L887.765 929.954H894.72L944.92 379.119H991.944L996.782 265.112ZM447.767 153.523L499.63 87.2957H499.781C497.664 86.8421 496.757 85.6325 497.966 84.1204C499.479 82.306 503.107 80.7939 506.434 80.7939C509.76 80.7939 511.121 82.306 509.76 84.1204C508.551 85.6325 505.678 86.8421 502.956 87.2957L452.152 152.616L474.227 178.774L338.295 366.871H469.54L-11.59 1187.76H-19.7549L463.038 370.5H331.189L469.843 179.832L447.767 153.523ZM474.672 102.416L430.218 157.907L451.689 184.519L300.637 386.981H434.603L-53.3311 1187.91H-45.166L441.407 383.352H307.894L455.923 183.612L434.301 157L477.847 102.416C480.72 101.962 483.593 100.752 484.954 99.0892C486.466 97.2748 484.954 95.6116 481.627 95.6116C478.301 95.6116 474.37 97.1236 472.858 99.0892C471.648 100.601 472.404 101.962 474.521 102.416H474.672ZM331.628 252.259L401.031 168.341L400.728 168.644C398.309 168.19 397.704 166.678 399.216 164.712C401.182 162.444 405.567 160.63 409.196 160.63C412.825 160.63 414.185 162.444 412.371 164.712C410.859 166.527 407.533 168.19 404.357 168.644L336.316 251.352L356.879 285.07L226.995 454.116H176.342L-263.963 993.308H-271.221L174.981 449.882H225.483L352.041 286.129L331.628 252.259ZM370.637 187.393L310.911 257.853L330.568 292.177L218.828 433.401H169.233L-317.643 1012.96H-310.234L170.594 437.332H220.491L335.708 290.816L315.901 256.644L374.265 187.241C377.592 186.788 381.07 185.124 382.733 183.008C384.698 180.588 383.338 178.774 379.557 178.774C375.777 178.774 371.241 180.74 369.276 183.008C367.612 184.973 368.217 186.637 370.637 187.241V187.393ZM289.135 262.389L350.977 191.172L351.128 191.021C348.709 190.416 347.953 188.753 349.768 186.787C351.733 184.368 356.421 182.403 360.201 182.403C363.981 182.403 365.341 184.368 363.225 186.787C361.41 188.753 357.932 190.568 354.606 191.021L294.125 261.18L313.176 295.805L213.987 418.583H164.997L-358.017 1029.29H-365.426L163.636 414.651H212.323L308.035 297.015L289.135 262.389ZM375.335 449.124C371.253 449.124 366.263 451.543 363.088 454.869H315.156L262.084 532.588L285.823 593.221L85.6292 911.353H12.9003L-979.601 2376.82H-965.992L13.9586 919.972H87.1412L292.627 590.953L268.586 530.471L317.122 458.952H360.366C359.308 462.278 361.273 464.849 365.356 464.849C370.346 464.849 376.696 461.22 379.418 456.986C382.14 452.752 380.325 449.124 375.335 449.124ZM240.456 540.454L263.287 601.994H263.438L80.9355 885.652H9.41626L-1070.03 2446.98H-1083.94L8.20667 877.638H79.2723L256.181 604.413L233.802 542.571L311.975 431.285H343.425C346.6 428.11 351.439 425.842 355.521 425.842C360.36 425.842 362.174 429.168 359.453 433.251C356.731 437.333 350.532 440.811 345.542 440.811C341.459 440.811 339.645 438.392 340.703 435.216H313.941L240.456 540.454ZM232.298 611.064L210.978 548.617L309.412 411.778C313.645 410.871 318.333 408.149 320.752 404.974C323.474 401.042 321.961 397.867 317.274 397.867C312.587 397.867 306.388 401.042 303.515 404.974C301.095 408.3 301.851 411.022 304.875 411.778L204.325 550.734L225.342 613.484L73.9874 839.836H4.73621L-1190.08 2506.55H-1175.86L5.49219 847.698H75.1971L232.298 611.216V611.064ZM86.9741 619.987H53.7094H53.5581L170.59 474.832H227.14L83.9501 664.895H23.1661L-644.247 1497.57H-653.924L22.1078 658.846H82.5892L218.824 479.065H171.951L63.5376 614.393H85.6133L149.573 532.742C146.397 531.684 146.095 528.206 149.27 524.124C153.201 519.285 160.61 515.354 165.902 515.354C171.195 515.354 172.404 519.285 168.624 524.124C165.449 528.206 159.854 531.684 154.865 532.742L86.9741 619.987ZM603.039 294.143H565.692L434.749 543.175L463.176 589.141L382.282 757.28H316.357L99.8333 1165.53C91.9706 1168.1 82.7472 1176.57 77.1527 1187C70.3485 1199.55 71.8606 1209.83 80.4791 1209.83C89.0978 1209.83 101.345 1199.55 107.847 1187C113.139 1176.72 112.837 1168.1 107.847 1165.53L318.776 764.235H385.003L469.677 586.722L440.949 540.907L568.111 297.016H605.458L664.125 174.692L635.699 148.685L673.651 77.6194H670.627L631.919 149.592L660.194 175.599L602.888 293.992L603.039 294.143ZM550.883 280.383H593.22H593.372L645.839 175.901L618.018 149.894L652.039 88.9592H655.214L621.949 148.987L649.922 174.994L595.942 283.256H553.454L405.728 553.608L433.398 609.251L372.917 730.668H308.806L-47.4296 1382.66C-41.9862 1385.98 -42.4398 1396.72 -49.5464 1409.72C-58.1649 1425.6 -73.1342 1438.75 -82.8113 1438.75C-92.4883 1438.75 -93.093 1425.6 -84.172 1409.72C-76.9142 1396.72 -65.574 1385.98 -56.5017 1382.66L306.387 724.015H370.195L426.745 611.519L399.226 555.725L550.883 280.383ZM599.868 157.605L631.71 102.221C629.443 101.729 628.473 100.405 629.353 98.9379C630.563 96.9722 634.04 95.4602 637.367 95.4602C640.693 95.4602 642.508 96.9722 641.449 98.9379C640.542 100.601 637.82 101.811 635.099 102.264L603.951 156.849L631.621 183.31L583.992 275.393H541.957L26.6553 1187.91H18.4902L539.538 272.52H581.421L627.387 184.217L599.868 157.605ZM516.849 505.676L605.001 317.73L604.698 318.032C601.674 317.427 600.465 315.159 601.674 312.438C603.186 309.262 607.874 306.692 612.259 306.692C616.643 306.692 618.912 309.262 617.4 312.438C616.19 315.008 612.712 317.276 609.083 318.032L522.595 504.013L529.399 514.597L684.383 173.179H721.428L749.854 103.172L721.428 81.7008L742.294 36.4909C740.177 36.1885 738.967 35.1301 739.572 33.7693C740.177 32.106 743.352 30.8964 746.225 30.8964C749.098 30.8964 751.063 32.2572 750.307 33.7693C749.703 35.1301 747.435 36.1885 745.015 36.4909L724.754 80.9448L753.331 102.265L723.998 175.296H686.802L532.272 519.133L543.159 536.068L695.874 183.763H733.524L765.73 99.9965L736.85 78.828L756.507 34.0717C754.39 33.7693 753.18 32.5597 753.785 31.35C754.541 29.838 757.414 28.6284 760.438 28.6284C763.462 28.6284 765.276 29.838 764.672 31.35C764.067 32.7109 761.95 33.7693 759.531 34.0717L740.328 78.072L769.208 99.2405L736.246 186.031H698.596L546.485 540.906L556.162 556.178L706.761 193.138H744.864L780.397 96.2164L751.215 75.1991L773.744 21.673C771.627 21.3706 770.417 20.3122 770.871 19.1025C771.627 17.5905 774.349 16.3809 777.373 16.3809C780.397 16.3809 782.212 17.5905 781.607 19.1025C781.002 20.3122 779.036 21.3706 776.617 21.673L754.541 74.5943L783.724 95.6116L747.586 195.557H709.482L559.64 561.168V561.47L432.326 872.042H361.563L-245.52 2197.34H-258.372L358.539 863.877H429L553.44 563.436L516.849 505.676ZM583.54 347.668C585.203 344.19 582.935 341.317 578.399 341.317C573.863 341.317 568.873 344.19 567.21 347.668C565.698 350.541 567.21 353.111 570.234 353.716L491.457 515.05L526.989 573.868L415.25 831.973H346.301L-340.617 2259.03H-327.462L349.174 839.684H418.425L533.189 571.752L497.354 513.236L574.467 353.867C578.247 353.111 582.028 350.692 583.388 347.819L583.54 347.668ZM470.434 520.947L505.059 580.37H505.362L404.963 803.849H337.375L-412.747 2311.2H-426.053L334.653 796.44H401.787L498.86 582.487L464.537 522.912L533.183 387.887C530.008 387.131 528.647 384.561 530.31 381.386C532.125 377.606 537.568 374.582 542.104 374.582C546.64 374.582 548.908 377.606 547.094 381.386C545.431 384.41 541.5 387.131 537.568 387.887L470.434 520.947ZM272.978 108.311L196.772 178.923L210.38 207.047L176.057 240.463L73.5405 340.408H28.3307L-415.452 753.648H-409.253L29.0867 343.735H74.4478L179.988 240.463L215.218 205.988L258.916 163.047C262.092 162.593 265.72 161.081 267.686 159.115C269.954 156.847 268.896 155.033 265.267 155.033C261.638 155.033 256.951 156.847 254.682 159.115C252.717 160.93 253.171 162.593 255.439 163.047L214.009 203.569L210.38 196.16L278.875 130.235C281.899 129.782 285.377 128.421 287.191 126.606C289.308 124.49 288.25 122.978 284.772 122.978C281.294 122.978 276.909 124.641 274.641 126.606C272.827 128.27 273.281 129.782 275.549 130.235L209.17 193.741L201.308 177.865L276.154 108.16C279.178 107.706 282.504 106.345 284.167 104.833C286.284 102.867 285.226 101.355 281.899 101.355C278.573 101.355 274.188 102.867 272.071 104.833C270.256 106.496 270.71 107.857 272.827 108.16L272.978 108.311ZM177.098 183.611L242.116 124.339H241.965C239.848 123.886 239.545 122.525 241.36 120.862C243.477 118.896 248.013 117.233 251.49 117.233C254.968 117.233 255.875 118.896 253.758 120.862C251.944 122.525 248.466 123.886 245.442 124.339L181.634 182.553L194.789 210.979L70.6509 330.43H25.8945L-450.095 768.013H-456.294L25.1384 327.255H69.7437L190.102 212.038L177.098 183.611ZM223.513 127.665L156.53 187.391L168.928 216.12L66.5636 312.285H22.7146L-497.729 779.807H-491.378L23.4706 315.46H67.4708L173.918 215.061L161.368 186.333L226.991 127.514C230.166 127.061 233.644 125.7 235.458 124.037C237.726 122.071 236.819 120.408 233.341 120.408C229.864 120.408 225.328 122.071 223.059 124.037C221.094 125.7 221.547 127.212 223.664 127.514L223.513 127.665ZM232.903 347.97H154.428V347.818L101.507 404.671L114.813 452.149L-103.071 700.728H-165.67L-1031.16 1636.38H-1041.44L-165.821 694.377H-103.525L108.463 453.963L95.459 406.334L153.219 344.643H235.776C238.951 342.073 243.79 340.107 247.419 340.107C251.955 340.107 253.165 342.829 250.292 346.306C247.419 349.784 241.37 352.657 236.834 352.657C232.903 352.657 231.542 350.691 232.903 347.97ZM-105.195 669.428H-166.281L-1120.53 1675.69H-1110.09L-166.13 675.476H-104.741L87.59 460.767L75.3424 412.533L155.027 328.766H218.23C216.869 331.336 218.23 333.302 222.01 333.302C226.395 333.302 232.443 330.58 235.316 327.254C238.189 323.927 236.979 321.206 232.594 321.206C228.965 321.206 224.278 323.02 221.103 325.591H153.968L69.2943 414.196L81.2394 462.581L-105.043 669.428H-105.195ZM41.6232 420.7L185.569 273.276H185.871C183.301 272.671 182.999 270.555 185.418 268.135C188.291 265.263 193.885 262.843 197.968 262.843C202.05 262.843 203.109 265.263 200.236 268.135C197.817 270.555 193.583 272.671 189.803 273.276L48.125 419.037L59.0116 467.875L-105.498 647.354H-165.526L-1189.33 1708.65H-1199.91L-165.677 641.608H-105.952L52.3586 469.69L41.6232 420.7ZM7.61133 498.719C4.03101 502.597 -1.90417 505.74 -6.85449 506.84L-111.235 617.414H-169.751L-946.635 1400.5H-955.858L-169.902 611.97H-111.688L-12.0452 506.884C-15.0692 505.976 -14.918 502.65 -11.1378 498.719C-6.75293 494.031 1.1095 490.251 6.25049 490.251C11.3914 490.251 11.9962 494.031 7.61133 498.719ZM13.5077 470.9C10.0299 474.68 4.13293 477.855 -0.705566 478.762H-0.554321L-112.747 595.34H-170.205L-1015.74 1431.8H-1025.11L-170.356 590.048H-113.201L-5.69519 478.762C-8.71924 477.704 -8.56812 474.68 -4.93921 470.9C-0.554321 466.515 6.85474 462.886 11.9956 462.886C17.1366 462.886 17.7413 466.515 13.5077 470.9ZM-9.01575 459.559L-113.8 565.553H-169.896L-1094.66 1458.11H-1085.28L-169.745 570.694H-113.498L-4.17725 459.559C0.51001 458.652 6.40698 455.628 9.88464 451.999C14.1184 447.766 13.3623 444.288 8.5238 444.288C3.6853 444.288 -3.87488 447.766 -8.10864 451.999C-11.7375 455.628 -11.8888 458.652 -8.86462 459.559H-9.01575ZM-70.119 474.83H-99.4525V474.679L21.3591 360.52H71.8612L-77.8304 509.456H-131.205L-754.92 1101.27H-762.632L-131.357 504.92H-78.2839L63.9987 364.149H22.1152L-90.0779 470.597H-70.7238L-4.49658 406.637C-7.21826 405.73 -7.06702 403.009 -3.7406 399.833C0.341919 396.053 7.44849 392.878 12.1359 392.878C16.8231 392.878 17.428 395.902 13.4966 399.833C10.1702 403.009 4.72681 405.73 0.190796 406.637L-70.119 474.83Z" fill="#EFF1FF" style="mix-blend-mode:color-dodge"/>
</g>
</g>
<defs>
<linearGradient id="paint0_linear_883_5313" x1="960" y1="52" x2="960" y2="352" gradientUnits="userSpaceOnUse">
<stop stop-color="white" stop-opacity="0"/>
<stop offset="1" stop-color="white"/>
</linearGradient>
<clipPath id="clip0_883_5313">
<rect width="1920" height="352" fill="white"/>
</clipPath>
</defs>
</svg>
