<svg xmlns="http://www.w3.org/2000/svg" width="16" height="16" viewBox="0 0 16 16" fill="none">
  <g clip-path="url(#clip0_909_7372)">
    <path fill-rule="evenodd" clip-rule="evenodd" d="M0.666687 7.99984C0.666687 3.94975 3.94993 0.666504 8.00002 0.666504C12.0501 0.666504 15.3334 3.94975 15.3334 7.99984C15.3334 12.0499 12.0501 15.3332 8.00002 15.3332C3.94993 15.3332 0.666687 12.0499 0.666687 7.99984Z" fill="#FFEBEB"/>
    <path fill-rule="evenodd" clip-rule="evenodd" d="M7.33331 5.33317C7.33331 4.96498 7.63179 4.6665 7.99998 4.6665H8.00665C8.37484 4.6665 8.67331 4.96498 8.67331 5.33317C8.67331 5.70136 8.37484 5.99984 8.00665 5.99984H7.99998C7.63179 5.99984 7.33331 5.70136 7.33331 5.33317ZM7.99998 7.33317C8.36817 7.33317 8.66665 7.63165 8.66665 7.99984V10.6665C8.66665 11.0347 8.36817 11.3332 7.99998 11.3332C7.63179 11.3332 7.33331 11.0347 7.33331 10.6665V7.99984C7.33331 7.63165 7.63179 7.33317 7.99998 7.33317Z" fill="#E5484D"/>
  </g>
  <defs>
    <clipPath id="clip0_909_7372">
      <rect width="16" height="16" fill="white"/>
    </clipPath>
  </defs>
</svg>