<svg xmlns="http://www.w3.org/2000/svg" width="25" height="24" viewBox="0 0 25 24" fill="none">
  <path d="M9.19357 11.3728C10.1923 11.3728 11.0011 12.1805 10.9842 13.1677C10.9842 14.1558 10.194 14.9626 9.19357 14.9626C8.21164 14.9626 7.4029 14.1558 7.4029 13.1677C7.4029 12.1805 8.19315 11.3728 9.19357 11.3728ZM15.5996 11.3728C16.6 11.3728 17.3903 12.1805 17.3903 13.1677C17.3903 14.1558 16.6 14.9626 15.5996 14.9626C14.6177 14.9626 13.8098 14.1558 13.8098 13.1677C13.8098 12.1805 14.5992 11.3728 15.5996 11.3728ZM17.2591 19.8333C21.0431 19.7019 22.5 16.9687 22.5 16.9687C22.5 10.8987 20.0326 5.97907 20.0326 5.97907C17.5694 3.94485 15.2222 4.00015 15.2222 4.00015L14.9826 4.30202C17.8939 5.28196 19.2449 6.69703 19.2449 6.69703C17.6553 5.73134 15.9035 5.11627 14.0914 4.88762C12.9418 4.74772 11.7806 4.7599 10.6337 4.92389C10.5303 4.92389 10.4445 4.94202 10.3428 4.96015C9.74338 5.01816 8.28647 5.26202 6.45544 6.14949C5.8224 6.46859 5.44494 6.69703 5.44494 6.69703C5.44494 6.69703 6.86654 5.20581 9.94767 4.22678L9.77617 4.00015C9.77617 4.00015 7.43064 3.94485 4.96574 5.97998C4.96574 5.97998 2.5 10.8987 2.5 16.9678C2.5 16.9678 3.93758 19.7001 7.72236 19.8324C7.72236 19.8324 8.35456 18.9857 8.87074 18.2696C6.69504 17.5516 5.87453 16.0432 5.87453 16.0432C5.87453 16.0432 6.04435 16.1765 6.35204 16.365C6.36885 16.3831 6.38567 16.4031 6.42013 16.4203C6.47226 16.4602 6.52354 16.4783 6.57566 16.5155C7.00273 16.7793 7.43064 16.9869 7.82409 17.1564C8.52606 17.4583 9.36507 17.7601 10.3428 17.9677C11.8065 18.2772 13.3115 18.2833 14.7774 17.9859C15.6312 17.8215 16.4641 17.5498 17.2591 17.1763C17.9527 16.8868 18.6135 16.5133 19.2289 16.0631C19.2289 16.0631 18.3731 17.6087 16.1293 18.3077C16.5005 18.8213 16.8778 19.3299 17.2608 19.8333H17.2591Z" fill="#646AEE"/>
</svg>