<svg xmlns="http://www.w3.org/2000/svg" width="25" height="24" viewBox="0 0 25 24" fill="none">
  <path d="M15.7701 16.5871L17.4107 8.85268C17.4777 8.5253 17.4386 8.29092 17.2935 8.14955C17.1484 8.00818 16.9568 7.98214 16.7188 8.07143L7.07589 11.7879C6.86012 11.8698 6.71317 11.9628 6.63504 12.067C6.55692 12.1711 6.54762 12.2697 6.60714 12.3627C6.66667 12.4557 6.78571 12.5283 6.96429 12.5804L9.4308 13.3504L15.1562 9.74554C15.3125 9.64137 15.4315 9.61905 15.5134 9.67857C15.5655 9.71577 15.5506 9.77158 15.4688 9.84598L10.8371 14.0312L10.6585 16.5759C10.8296 16.5759 10.997 16.494 11.1607 16.3304L12.3661 15.1696L14.8661 17.0112C15.3423 17.279 15.6436 17.1376 15.7701 16.5871ZM22.5 12C22.5 13.3542 22.2359 14.6488 21.7076 15.8839C21.1793 17.119 20.4688 18.183 19.5759 19.0759C18.683 19.9688 17.619 20.6793 16.3839 21.2076C15.1488 21.7359 13.8542 22 12.5 22C11.1458 22 9.85119 21.7359 8.61607 21.2076C7.38095 20.6793 6.31696 19.9688 5.42411 19.0759C4.53125 18.183 3.82068 17.119 3.29241 15.8839C2.76414 14.6488 2.5 13.3542 2.5 12C2.5 10.6458 2.76414 9.35119 3.29241 8.11607C3.82068 6.88095 4.53125 5.81696 5.42411 4.92411C6.31696 4.03125 7.38095 3.32068 8.61607 2.79241C9.85119 2.26414 11.1458 2 12.5 2C13.8542 2 15.1488 2.26414 16.3839 2.79241C17.619 3.32068 18.683 4.03125 19.5759 4.92411C20.4688 5.81696 21.1793 6.88095 21.7076 8.11607C22.2359 9.35119 22.5 10.6458 22.5 12Z" fill="#646AEE"/>
</svg>