<svg xmlns="http://www.w3.org/2000/svg" width="112" height="28" viewBox="0 0 112 28" fill="none">
  <path d="M9.52045 10.8261C10.7593 10.8261 11.7529 11.188 12.5011 11.9117C13.2494 12.6354 13.6235 13.7087 13.6235 15.1316V20.7618H11.3236V15.426C11.3236 14.5673 11.1212 13.9233 10.7164 13.494C10.3116 13.0524 9.73511 12.8316 8.98686 12.8316C8.14049 12.8316 7.47198 13.0892 6.98133 13.6044C6.49068 14.1073 6.24536 14.8372 6.24536 15.7939V20.7618H3.94543V10.9365H6.13496V12.2061C6.51521 11.7522 6.9936 11.4088 7.57011 11.1757C8.14663 10.9426 8.79674 10.8261 9.52045 10.8261Z" fill="#1E1F24"/>
  <path d="M19.025 20.8906C18.2277 20.8906 17.4488 20.7863 16.6883 20.5778C15.9278 20.3693 15.3206 20.1055 14.8668 19.7866L15.7499 18.0387C16.1915 18.3331 16.719 18.5723 17.3323 18.7562C17.9579 18.928 18.5712 19.0138 19.1722 19.0138C20.546 19.0138 21.2329 18.652 21.2329 17.9283C21.2329 17.5848 21.0551 17.3456 20.6994 17.2107C20.3559 17.0758 19.7978 16.947 19.025 16.8243C18.2154 16.7016 17.5531 16.5606 17.0379 16.4011C16.535 16.2417 16.0934 15.9657 15.7131 15.5732C15.3451 15.1684 15.1611 14.6103 15.1611 13.8988C15.1611 12.9666 15.5475 12.2245 16.3203 11.6725C17.1054 11.1082 18.1602 10.8261 19.485 10.8261C20.1596 10.8261 20.8343 10.9058 21.5089 11.0653C22.1836 11.2125 22.7356 11.4149 23.1649 11.6725L22.2817 13.4204C21.4476 12.9298 20.5092 12.6844 19.4666 12.6844C18.792 12.6844 18.2768 12.7887 17.9211 12.9972C17.5776 13.1935 17.4059 13.4572 17.4059 13.7884C17.4059 14.1564 17.5899 14.4201 17.9579 14.5796C18.3381 14.7268 18.9208 14.8678 19.7058 15.0028C20.4908 15.1254 21.1348 15.2665 21.6377 15.426C22.1406 15.5854 22.57 15.8553 22.9257 16.2355C23.2937 16.6158 23.4777 17.1555 23.4777 17.8547C23.4777 18.7746 23.079 19.5106 22.2817 20.0626C21.4844 20.6146 20.3988 20.8906 19.025 20.8906Z" fill="#1E1F24"/>
  <path d="M30.4262 20.2282C30.1563 20.449 29.8251 20.6146 29.4326 20.725C29.0523 20.8354 28.6476 20.8906 28.2182 20.8906C27.1388 20.8906 26.3047 20.6084 25.7159 20.0442C25.1271 19.48 24.8328 18.6581 24.8328 17.5787V12.85H23.4777L24.3438 11.0101H24.8328V8.76538H27.1327V11.0101H29.7638V12.85H27.1327V17.5235C27.1327 18.0019 27.2492 18.3699 27.4823 18.6274C27.7276 18.8728 28.0649 18.9954 28.4942 18.9954C29.0094 18.9954 29.4387 18.8605 29.7822 18.5906L30.4262 20.2282Z" fill="#1E1F24"/>
  <path d="M37.2214 10.8261C38.1782 10.8261 39.0307 11.0346 39.7789 11.4517C40.5395 11.8687 41.1344 12.4575 41.5637 13.218C41.993 13.9785 42.2077 14.8556 42.2077 15.8491C42.2077 16.8427 41.993 17.7259 41.5637 18.4987C41.1344 19.2592 40.5395 19.8479 39.7789 20.265C39.0307 20.682 38.1782 20.8906 37.2214 20.8906C36.5468 20.8906 35.9273 20.774 35.3631 20.541C34.8111 20.3079 34.345 19.9583 33.9647 19.4922V20.7618H31.7752V7.10944H34.0751V12.1325C34.4677 11.7031 34.9276 11.3781 35.4551 11.1573C35.9948 10.9365 36.5836 10.8261 37.2214 10.8261ZM36.9638 18.9218C37.8102 18.9218 38.5033 18.6397 39.043 18.0755C39.595 17.5112 39.8709 16.7691 39.8709 15.8491C39.8709 14.9292 39.595 14.1871 39.043 13.6228C38.5033 13.0586 37.8102 12.7764 36.9638 12.7764C36.4119 12.7764 35.9151 12.9052 35.4735 13.1628C35.0319 13.4082 34.6823 13.7639 34.4247 14.23C34.1671 14.6961 34.0383 15.2358 34.0383 15.8491C34.0383 16.4625 34.1671 17.0022 34.4247 17.4683C34.6823 17.9344 35.0319 18.2963 35.4735 18.5539C35.9151 18.7992 36.4119 18.9218 36.9638 18.9218Z" fill="#1E1F24"/>
  <path d="M46.0264 12.3717C46.6888 11.3413 47.8541 10.8261 49.5223 10.8261V13.0156C49.326 12.9788 49.1482 12.9604 48.9887 12.9604C48.0933 12.9604 47.3941 13.2242 46.8912 13.7516C46.3883 14.2668 46.1368 15.015 46.1368 15.9963V20.7618H43.8369V10.9365H46.0264V12.3717Z" fill="#1E1F24"/>
  <path d="M55.2474 20.8906C54.2538 20.8906 53.3584 20.6759 52.561 20.2466C51.7637 19.8173 51.1382 19.2224 50.6843 18.4619C50.2427 17.6891 50.0219 16.8182 50.0219 15.8491C50.0219 14.8801 50.2427 14.0153 50.6843 13.2548C51.1382 12.4943 51.7637 11.8994 52.561 11.4701C53.3584 11.0408 54.2538 10.8261 55.2474 10.8261C56.2532 10.8261 57.1548 11.0408 57.9521 11.4701C58.7494 11.8994 59.3688 12.4943 59.8104 13.2548C60.2643 14.0153 60.4912 14.8801 60.4912 15.8491C60.4912 16.8182 60.2643 17.6891 59.8104 18.4619C59.3688 19.2224 58.7494 19.8173 57.9521 20.2466C57.1548 20.6759 56.2532 20.8906 55.2474 20.8906ZM55.2474 18.9218C56.0937 18.9218 56.7929 18.6397 57.3449 18.0755C57.8969 17.5112 58.1729 16.7691 58.1729 15.8491C58.1729 14.9292 57.8969 14.1871 57.3449 13.6228C56.7929 13.0586 56.0937 12.7764 55.2474 12.7764C54.401 12.7764 53.7018 13.0586 53.1498 13.6228C52.6101 14.1871 52.3403 14.9292 52.3403 15.8491C52.3403 16.7691 52.6101 17.5112 53.1498 18.0755C53.7018 18.6397 54.401 18.9218 55.2474 18.9218Z" fill="#1E1F24"/>
  <path d="M77.2444 10.9365V16.3643C77.2444 17.7995 76.8703 18.9157 76.122 19.713C75.3738 20.4981 74.3005 20.8906 72.9021 20.8906C71.3934 20.8906 70.3078 20.3815 69.6455 19.3634C69.302 19.8786 68.8604 20.265 68.3207 20.5226C67.7932 20.7679 67.1493 20.8906 66.3888 20.8906C64.9904 20.8906 63.9171 20.4981 63.1689 19.713C62.4329 18.9157 62.0649 17.7995 62.0649 16.3643V10.9365H64.3648V16.1619C64.3648 17.0942 64.5243 17.7811 64.8432 18.2227C65.1744 18.6642 65.6957 18.885 66.4072 18.885C67.1186 18.885 67.6461 18.6642 67.9895 18.2227C68.333 17.7688 68.5047 17.0819 68.5047 16.1619V10.9365H70.8046V16.1619C70.8046 17.0819 70.9763 17.7688 71.3198 18.2227C71.6632 18.6642 72.1907 18.885 72.9021 18.885C73.6136 18.885 74.1288 18.6642 74.4477 18.2227C74.7789 17.7811 74.9445 17.0942 74.9445 16.1619V10.9365H77.2444Z" fill="#1E1F24"/>
  <path d="M82.6624 20.8906C81.8651 20.8906 81.0862 20.7863 80.3257 20.5778C79.5652 20.3693 78.958 20.1055 78.5042 19.7866L79.3873 18.0387C79.8289 18.3331 80.3564 18.5723 80.9697 18.7562C81.5953 18.928 82.2086 19.0138 82.8096 19.0138C84.1835 19.0138 84.8704 18.652 84.8704 17.9283C84.8704 17.5848 84.6925 17.3456 84.3368 17.2107C83.9933 17.0758 83.4352 16.947 82.6624 16.8243C81.8529 16.7016 81.1905 16.5606 80.6753 16.4011C80.1724 16.2417 79.7308 15.9657 79.3505 15.5732C78.9826 15.1684 78.7986 14.6103 78.7986 13.8988C78.7986 12.9666 79.1849 12.2245 79.9577 11.6725C80.7428 11.1082 81.7977 10.8261 83.1224 10.8261C83.7971 10.8261 84.4717 10.9058 85.1463 11.0653C85.821 11.2125 86.373 11.4149 86.8023 11.6725L85.9191 13.4204C85.085 12.9298 84.1466 12.6844 83.104 12.6844C82.4294 12.6844 81.9142 12.7887 81.5585 12.9972C81.215 13.1935 81.0433 13.4572 81.0433 13.7884C81.0433 14.1564 81.2273 14.4201 81.5953 14.5796C81.9755 14.7268 82.5582 14.8678 83.3432 15.0028C84.1282 15.1254 84.7722 15.2665 85.2751 15.426C85.7781 15.5854 86.2074 15.8553 86.5631 16.2355C86.9311 16.6158 87.1151 17.1555 87.1151 17.8547C87.1151 18.7746 86.7164 19.5106 85.9191 20.0626C85.1218 20.6146 84.0363 20.8906 82.6624 20.8906Z" fill="#1E1F24"/>
  <path d="M93.2172 18.9402C94.2844 18.9402 95.1737 18.5845 95.8851 17.8731L97.0995 19.2898C96.6702 19.8173 96.1182 20.2159 95.4435 20.4858C94.7689 20.7556 94.0084 20.8906 93.162 20.8906C92.0826 20.8906 91.1319 20.6759 90.3101 20.2466C89.4883 19.8173 88.8504 19.2224 88.3966 18.4619C87.955 17.6891 87.7342 16.8182 87.7342 15.8491C87.7342 14.8924 87.9489 14.0337 88.3782 13.2732C88.8198 12.5005 89.4208 11.8994 90.1813 11.4701C90.9541 11.0408 91.825 10.8261 92.794 10.8261C93.714 10.8261 94.5481 11.0285 95.2963 11.4333C96.0569 11.8258 96.6579 12.3962 97.0995 13.1444C97.5411 13.8804 97.7619 14.7452 97.7619 15.7387L90.2365 17.2107C90.4696 17.7749 90.8437 18.2043 91.3589 18.4987C91.8741 18.793 92.4935 18.9402 93.2172 18.9402ZM92.794 12.666C91.9477 12.666 91.2607 12.942 90.7333 13.494C90.2181 14.046 89.9605 14.7881 89.9605 15.7203V15.7387L95.5171 14.6716C95.3577 14.0705 95.0326 13.586 94.542 13.218C94.0636 12.85 93.4809 12.666 92.794 12.666Z" fill="#1E1F24"/>
  <path d="M101.609 12.3717C102.271 11.3413 103.437 10.8261 105.105 10.8261V13.0156C104.909 12.9788 104.731 12.9604 104.571 12.9604C103.676 12.9604 102.977 13.2242 102.474 13.7516C101.971 14.2668 101.719 15.015 101.719 15.9963V20.7618H99.4195V10.9365H101.609V12.3717Z" fill="#1E1F24"/>
</svg>