<svg xmlns="http://www.w3.org/2000/svg" width="28" height="28" viewBox="0 0 28 28" fill="none">
  <path d="M25.7544 12.2215L5.23652 14.3906C5.23146 14.2682 5.22825 14.1454 5.22825 14.0217C5.22825 9.17724 9.15549 5.25 14 5.25C15.3361 5.24882 16.6548 5.55348 17.855 6.14063C19.0552 6.72779 20.105 7.58186 20.9242 8.63743L20.0267 9.4963C18.7194 8.33143 17.0289 7.68891 15.2779 7.69142C14.054 7.69085 12.8504 8.00463 11.7826 8.6027C10.7147 9.20078 9.81842 10.0631 9.1795 11.107H25.7544V12.2215ZM2.24561 16.893H18.8205C18.1816 17.9369 17.2852 18.7992 16.2174 19.3973C15.1496 19.9954 13.946 20.3092 12.7221 20.3086C10.9711 20.3111 9.28055 19.6686 7.97325 18.5037L7.07578 19.3626C7.89493 20.4181 8.94481 21.2722 10.145 21.8594C11.3452 22.4465 12.6639 22.7512 14 22.75C18.8445 22.75 22.7717 18.8228 22.7717 13.9783C22.7717 13.8546 22.7685 13.7318 22.7635 13.6094L2.24561 15.7785V16.893Z" fill="#646AEE"/>
</svg>