<svg xmlns="http://www.w3.org/2000/svg" width="89" height="88" viewBox="0 0 89 88" fill="none">
  <g clip-path="url(#clip0_707_5995)">
    <path d="M88.5 37.2899L11.6959 45.4161C11.6769 44.9576 11.6649 44.4973 11.6649 44.0342C11.6649 25.8848 26.3657 11.1719 44.5 11.1719C49.5015 11.1675 54.4376 12.3088 58.9303 14.5085C63.423 16.7082 67.353 19.9079 70.4193 23.8625L67.0598 27.0802C62.1662 22.7161 55.8379 20.309 49.2835 20.3184C44.702 20.3162 40.1968 21.4918 36.1996 23.7324C32.2024 25.973 28.8472 29.2036 26.4556 33.1145H88.5V37.2899ZM0.5 54.7911H62.5444C60.1528 58.702 56.7976 61.9325 52.8004 64.1731C48.8032 66.4137 44.298 67.5893 39.7165 67.5872C33.1621 67.5966 26.8338 65.1894 21.9402 60.8254L18.5807 64.043C21.647 67.9976 25.577 71.1973 30.0697 73.397C34.5624 75.5967 39.4985 76.7381 44.5 76.7336C62.6343 76.7336 77.3351 62.0207 77.3351 43.8713C77.3351 43.4082 77.3231 42.9479 77.3041 42.4895L0.5 50.6156V54.7911Z" fill="#646AEE"/>
  </g>
  <defs>
    <clipPath id="clip0_707_5995">
      <rect width="88" height="88" fill="white" transform="translate(0.5)"/>
    </clipPath>
  </defs>
</svg>