<svg xmlns="http://www.w3.org/2000/svg" width="207" height="28" viewBox="0 0 207 28" fill="none">
  <path d="M12.061 7.5514C14.5782 7.5514 16.5969 8.28661 18.1171 9.75701C19.6374 11.2274 20.3975 13.4081 20.3975 16.2991V27.7383H15.7246V16.8972C15.7246 15.1527 15.3134 13.8442 14.491 12.972C13.6685 12.0748 12.4972 11.6262 10.9769 11.6262C9.25731 11.6262 7.89906 12.1495 6.90217 13.1963C5.90529 14.2181 5.40685 15.7009 5.40685 17.6449V27.7383H0.733948V7.7757H5.18255V10.3551C5.95513 9.43302 6.92709 8.7352 8.09843 8.26168C9.26977 7.78816 10.5906 7.5514 12.061 7.5514Z" fill="#1E1F24"/>
  <path d="M31.3721 28C29.7521 28 28.1696 27.7882 26.6244 27.3645C25.0793 26.9408 23.8456 26.405 22.9235 25.757L24.7179 22.2056C25.6151 22.8037 26.6867 23.2897 27.9328 23.6636C29.2039 24.0125 30.45 24.1869 31.6712 24.1869C34.4624 24.1869 35.8581 23.4517 35.8581 21.9813C35.8581 21.2835 35.4967 20.7975 34.774 20.5234C34.0761 20.2492 32.9422 19.9875 31.3721 19.7383C29.7272 19.4891 28.3814 19.2025 27.3347 18.8785C26.3129 18.5545 25.4157 17.9938 24.6431 17.1963C23.8955 16.3738 23.5216 15.2399 23.5216 13.7944C23.5216 11.9003 24.3067 10.3925 25.8768 9.27103C27.4718 8.12461 29.6151 7.5514 32.3067 7.5514C33.6774 7.5514 35.0481 7.7134 36.4188 8.03738C37.7895 8.33645 38.911 8.74766 39.7833 9.27103L37.9889 12.8224C36.2942 11.8255 34.3877 11.3271 32.2693 11.3271C30.8986 11.3271 29.8518 11.5389 29.1291 11.9626C28.4313 12.3614 28.0824 12.8972 28.0824 13.5701C28.0824 14.3178 28.4562 14.8536 29.2039 15.1776C29.9764 15.4766 31.1602 15.7632 32.7553 16.0374C34.3503 16.2866 35.6587 16.5732 36.6805 16.8972C37.7023 17.2212 38.5746 17.7695 39.2973 18.5421C40.045 19.3146 40.4188 20.4112 40.4188 21.8318C40.4188 23.7009 39.6088 25.1963 37.9889 26.3178C36.369 27.4393 34.1634 28 31.3721 28Z" fill="#1E1F24"/>
  <path d="M54.5365 26.6542C53.9882 27.1028 53.3153 27.4393 52.5178 27.6636C51.7452 27.8879 50.9228 28 50.0505 28C47.8574 28 46.1627 27.4268 44.9664 26.2804C43.7702 25.134 43.172 23.4642 43.172 21.271V11.6636H40.4188L42.1785 7.92524H43.172V3.36449H47.8449V7.92524H53.1907V11.6636H47.8449V21.1589C47.8449 22.1308 48.0817 22.8785 48.5552 23.4019C49.0536 23.9003 49.739 24.1495 50.6113 24.1495C51.658 24.1495 52.5303 23.8754 53.2281 23.3271L54.5365 26.6542Z" fill="#1E1F24"/>
  <path d="M68.3429 7.5514C70.2868 7.5514 72.0189 7.97508 73.5391 8.82243C75.0843 9.66978 76.293 10.866 77.1653 12.4112C78.0376 13.9564 78.4737 15.7383 78.4737 17.757C78.4737 19.7757 78.0376 21.5701 77.1653 23.1402C76.293 24.6854 75.0843 25.8816 73.5391 26.729C72.0189 27.5763 70.2868 28 68.3429 28C66.9722 28 65.7136 27.7632 64.5672 27.2897C63.4457 26.8162 62.4986 26.1059 61.7261 25.1589V27.7383H57.2775V0H61.9504V10.2056C62.7479 9.33334 63.6824 8.6729 64.7541 8.2243C65.8507 7.7757 67.0469 7.5514 68.3429 7.5514ZM67.8195 24C69.5391 24 70.9472 23.4268 72.0438 22.2804C73.1653 21.134 73.7261 19.6262 73.7261 17.757C73.7261 15.8879 73.1653 14.3801 72.0438 13.2336C70.9472 12.0872 69.5391 11.514 67.8195 11.514C66.698 11.514 65.6887 11.7757 64.7915 12.2991C63.8943 12.7975 63.184 13.5203 62.6606 14.4673C62.1373 15.4143 61.8756 16.5109 61.8756 17.757C61.8756 19.0031 62.1373 20.0997 62.6606 21.0467C63.184 21.9938 63.8943 22.729 64.7915 23.2523C65.6887 23.7508 66.698 24 67.8195 24Z" fill="#1E1F24"/>
  <path d="M86.2325 10.6916C87.5783 8.59813 89.9459 7.5514 93.3353 7.5514V12C92.9365 11.9252 92.5752 11.8879 92.2512 11.8879C90.4319 11.8879 89.0113 12.4237 87.9895 13.4953C86.9677 14.5421 86.4568 16.0623 86.4568 18.0561V27.7383H81.7839V7.7757H86.2325V10.6916Z" fill="#1E1F24"/>
  <path d="M104.967 28C102.949 28 101.129 27.5639 99.5093 26.6916C97.8894 25.8193 96.6184 24.6106 95.6963 23.0654C94.7991 21.4953 94.3505 19.7259 94.3505 17.757C94.3505 15.7882 94.7991 14.0312 95.6963 12.486C96.6184 10.9408 97.8894 9.73209 99.5093 8.85981C101.129 7.98754 102.949 7.5514 104.967 7.5514C107.011 7.5514 108.843 7.98754 110.463 8.85981C112.083 9.73209 113.341 10.9408 114.238 12.486C115.16 14.0312 115.621 15.7882 115.621 17.757C115.621 19.7259 115.16 21.4953 114.238 23.0654C113.341 24.6106 112.083 25.8193 110.463 26.6916C108.843 27.5639 107.011 28 104.967 28ZM104.967 24C106.687 24 108.107 23.4268 109.229 22.2804C110.35 21.134 110.911 19.6262 110.911 17.757C110.911 15.8879 110.35 14.3801 109.229 13.2336C108.107 12.0872 106.687 11.514 104.967 11.514C103.248 11.514 101.827 12.0872 100.706 13.2336C99.609 14.3801 99.0607 15.8879 99.0607 17.757C99.0607 19.6262 99.609 21.134 100.706 22.2804C101.827 23.4268 103.248 24 104.967 24Z" fill="#1E1F24"/>
  <path d="M149.66 7.7757V18.8037C149.66 21.7196 148.9 23.9875 147.38 25.6075C145.859 27.2025 143.679 28 140.838 28C137.772 28 135.567 26.9657 134.221 24.8972C133.523 25.9439 132.626 26.729 131.529 27.2523C130.458 27.7508 129.149 28 127.604 28C124.763 28 122.582 27.2025 121.062 25.6075C119.567 23.9875 118.819 21.7196 118.819 18.8037V7.7757H123.492V18.3925C123.492 20.2866 123.816 21.6822 124.464 22.5794C125.137 23.4766 126.196 23.9252 127.641 23.9252C129.087 23.9252 130.158 23.4766 130.856 22.5794C131.554 21.6573 131.903 20.2617 131.903 18.3925V7.7757H136.576V18.3925C136.576 20.2617 136.925 21.6573 137.623 22.5794C138.32 23.4766 139.392 23.9252 140.838 23.9252C142.283 23.9252 143.33 23.4766 143.978 22.5794C144.651 21.6822 144.987 20.2866 144.987 18.3925V7.7757H149.66Z" fill="#1E1F24"/>
  <path d="M160.668 28C159.048 28 157.466 27.7882 155.921 27.3645C154.375 26.9408 153.142 26.405 152.22 25.757L154.014 22.2056C154.911 22.8037 155.983 23.2897 157.229 23.6636C158.5 24.0125 159.746 24.1869 160.967 24.1869C163.759 24.1869 165.154 23.4517 165.154 21.9813C165.154 21.2835 164.793 20.7975 164.07 20.5234C163.372 20.2492 162.238 19.9875 160.668 19.7383C159.023 19.4891 157.678 19.2025 156.631 18.8785C155.609 18.5545 154.712 17.9938 153.939 17.1963C153.192 16.3738 152.818 15.2399 152.818 13.7944C152.818 11.9003 153.603 10.3925 155.173 9.27103C156.768 8.12461 158.911 7.5514 161.603 7.5514C162.974 7.5514 164.344 7.7134 165.715 8.03738C167.086 8.33645 168.207 8.74766 169.079 9.27103L167.285 12.8224C165.59 11.8255 163.684 11.3271 161.565 11.3271C160.195 11.3271 159.148 11.5389 158.425 11.9626C157.727 12.3614 157.378 12.8972 157.378 13.5701C157.378 14.3178 157.752 14.8536 158.5 15.1776C159.273 15.4766 160.456 15.7632 162.051 16.0374C163.646 16.2866 164.955 16.5732 165.977 16.8972C166.998 17.2212 167.871 17.7695 168.593 18.5421C169.341 19.3146 169.715 20.4112 169.715 21.8318C169.715 23.7009 168.905 25.1963 167.285 26.3178C165.665 27.4393 163.459 28 160.668 28Z" fill="#1E1F24"/>
  <path d="M182.113 24.0374C184.281 24.0374 186.088 23.3146 187.534 21.8692L190.001 24.7477C189.129 25.8193 188.007 26.6293 186.636 27.1776C185.266 27.7259 183.72 28 182.001 28C179.808 28 177.876 27.5639 176.206 26.6916C174.537 25.8193 173.241 24.6106 172.319 23.0654C171.421 21.4953 170.973 19.7259 170.973 17.757C170.973 15.8131 171.409 14.0685 172.281 12.5234C173.178 10.9533 174.4 9.73209 175.945 8.85981C177.515 7.98754 179.284 7.5514 181.253 7.5514C183.122 7.5514 184.817 7.96262 186.337 8.78505C187.882 9.58256 189.104 10.7414 190.001 12.2617C190.898 13.757 191.347 15.514 191.347 17.5327L176.057 20.5234C176.53 21.6698 177.291 22.5421 178.337 23.1402C179.384 23.7383 180.643 24.0374 182.113 24.0374ZM181.253 11.2897C179.534 11.2897 178.138 11.8505 177.066 12.972C176.02 14.0935 175.496 15.6012 175.496 17.4953V17.5327L186.786 15.3645C186.462 14.1433 185.801 13.1589 184.805 12.4112C183.833 11.6636 182.649 11.2897 181.253 11.2897Z" fill="#1E1F24"/>
  <path d="M199.163 10.6916C200.509 8.59813 202.877 7.5514 206.266 7.5514V12C205.867 11.9252 205.506 11.8879 205.182 11.8879C203.363 11.8879 201.942 12.4237 200.92 13.4953C199.898 14.5421 199.388 16.0623 199.388 18.0561V27.7383H194.715V7.7757H199.163V10.6916Z" fill="#1E1F24"/>
</svg>