<svg xmlns="http://www.w3.org/2000/svg" width="48" height="48" viewBox="0 0 48 48" fill="none">
  <path fill-rule="evenodd" clip-rule="evenodd" d="M8.81711 15.443C8.81711 14.0143 8.89283 12.6066 9.64999 11.3274C11.1173 8.84494 13.3574 7.85668 16.1276 8.01659C18.9839 8.18173 21.3154 10.0691 22.0073 12.7849C22.3754 14.2319 22.3023 15.7287 22.1431 17.215C21.9029 19.4878 20.7358 21.1786 18.7359 22.1458C15.7908 23.5693 11.6395 23.0686 9.66043 19.6215C8.9085 18.3108 8.81189 16.8926 8.8145 15.4403L8.81711 15.443ZM34.1464 37.7411C34.8261 37.7408 35.5058 37.7405 36.1855 37.7405V37.7432C36.7361 37.7432 37.2864 37.7437 37.8367 37.7443C39.3036 37.7459 40.7699 37.7474 42.2375 37.7379C43.308 37.73 43.932 37.2163 43.9607 36.1861C43.964 36.061 43.9674 35.9359 43.9709 35.8109L43.9711 35.8043C44.0229 33.9316 44.0747 32.0609 43.4855 30.2224C42.697 27.7609 40.0862 25.5747 37.5197 25.2732C36.2835 25.1283 35.0509 25.1453 33.8174 25.1623C33.579 25.1656 33.3406 25.1689 33.102 25.171C32.5242 25.1756 31.9457 25.1646 31.3669 25.1537H31.3669H31.3669H31.3668C29.974 25.1273 28.5799 25.1008 27.191 25.2916C27.1405 25.2985 27.0869 25.3016 27.0327 25.3046C26.8213 25.3166 26.6016 25.329 26.5226 25.5773C26.4556 25.7896 26.6019 25.9362 26.7419 26.0765C26.7765 26.1112 26.8106 26.1455 26.8412 26.1802C27.3973 26.8225 27.8933 27.5014 28.2902 28.2616C29.5643 30.706 29.4654 33.3176 29.3667 35.9242C29.3542 36.2555 29.3416 36.5867 29.3319 36.9174L29.3298 36.9834C29.3076 37.6813 29.3057 37.7405 30.0682 37.7405C31.4276 37.7423 32.787 37.7417 34.1464 37.7411ZM6.00975 37.7403H15.5134C16.5837 37.7403 17.6544 37.7409 18.7251 37.7415C20.8669 37.7426 23.0091 37.7438 25.1501 37.7403C26.5235 37.7377 27.0326 37.2632 27.043 35.9079C27.0535 34.668 27.0352 33.4255 26.9778 32.1803C26.8133 28.6755 23.6489 25.1681 19.5472 25.1603C18.8853 25.159 18.2235 25.1563 17.5617 25.1537C15.5761 25.1459 13.5905 25.138 11.6049 25.1655C7.66766 25.2206 4.57115 28.0569 4.09597 31.9601C3.98593 32.8627 3.9958 33.7666 4.00565 34.6699C4.0096 35.0312 4.01354 35.3923 4.00981 35.7533C3.99414 37.258 4.49282 37.7403 6.00975 37.7403ZM26.8359 10.8633C25.8777 12.2709 25.6531 13.8359 25.755 15.4874L25.7602 15.49C25.7602 15.6085 25.7583 15.727 25.7565 15.8455C25.7525 16.099 25.7486 16.3522 25.7628 16.6041C25.9064 19.2622 27.1622 21.1732 29.5616 22.3213C30.7261 22.8797 31.9636 22.8482 33.2012 22.8168C34.5014 22.7827 35.6711 22.3371 36.6763 21.5166C38.1462 20.316 38.9556 18.7694 39.094 16.8426C39.2141 15.1702 39.2715 13.4978 38.6109 11.9406C37.611 9.58665 35.7364 8.27596 33.2351 8.0479C30.6373 7.81197 28.3919 8.57741 26.8359 10.8633Z" fill="#1A1A1A"/>
</svg>
