<svg xmlns="http://www.w3.org/2000/svg" width="21" height="20" viewBox="0 0 21 20" fill="none">
  <path fill-rule="evenodd" clip-rule="evenodd" d="M4.17429 6.43449C4.17429 5.83922 4.20583 5.25268 4.52132 4.71967C5.1327 3.68531 6.06609 3.27354 7.22032 3.34016C8.41044 3.40897 9.38191 4.19539 9.6702 5.32695C9.82359 5.92987 9.79312 6.55354 9.72676 7.17284C9.62668 8.11982 9.1404 8.82432 8.3071 9.22735C7.07998 9.82044 5.35027 9.61182 4.52567 8.17552C4.21236 7.6294 4.17211 7.0385 4.1732 6.4334L4.17429 6.43449ZM14.7298 15.7254L15.5794 15.7251V15.7262C15.8088 15.7262 16.0381 15.7265 16.2674 15.7267C16.8786 15.7274 17.4896 15.728 18.1011 15.724C18.5471 15.7208 18.8071 15.5067 18.8191 15.0774L18.8234 14.9184C18.845 14.1381 18.8666 13.3586 18.6211 12.5926C18.2926 11.567 17.2047 10.656 16.1353 10.5304C15.6202 10.47 15.1067 10.4771 14.5927 10.4842L14.5925 10.4842C14.4932 10.4856 14.394 10.487 14.2946 10.4878C14.0539 10.4898 13.8128 10.4852 13.5717 10.4806H13.5716C12.9913 10.4696 12.4104 10.4586 11.8317 10.5381C11.8106 10.541 11.7883 10.5422 11.7658 10.5435C11.6777 10.5485 11.5861 10.5536 11.5532 10.6571C11.5253 10.7456 11.5862 10.8067 11.6446 10.8651L11.6446 10.8652L11.6446 10.8652C11.659 10.8796 11.6732 10.8939 11.6859 10.9083C11.9176 11.1759 12.1243 11.4588 12.2897 11.7756C12.8206 12.7941 12.7794 13.8822 12.7383 14.9683L12.7382 14.9684L12.7382 14.9685C12.733 15.1065 12.7278 15.2444 12.7238 15.3822L12.7229 15.4097C12.7136 15.7005 12.7128 15.7251 13.0305 15.7251C13.5969 15.7259 14.1634 15.7256 14.7298 15.7254ZM3.00536 15.725H6.9652C7.40937 15.725 7.85365 15.7253 8.29797 15.7255H8.29809L8.30344 15.7255C9.19586 15.726 10.0884 15.7265 10.9805 15.725C11.5527 15.7239 11.7649 15.5262 11.7692 14.9615C11.7736 14.4449 11.766 13.9272 11.742 13.4084C11.6735 11.948 10.355 10.4866 8.64596 10.4833C8.37044 10.4828 8.09493 10.4817 7.81941 10.4806L7.81869 10.4806C6.99135 10.4773 6.16401 10.4741 5.33666 10.4855C3.69616 10.5085 2.40595 11.6903 2.20796 13.3166C2.16211 13.6927 2.16622 14.0693 2.17032 14.4457C2.17197 14.5962 2.17361 14.7467 2.17206 14.8971C2.16553 15.524 2.37331 15.725 3.00536 15.725ZM11.6837 4.5263C11.2845 5.11284 11.1909 5.76491 11.2333 6.45302L11.2355 6.45411C11.2355 6.5035 11.2347 6.55288 11.234 6.60223C11.2323 6.70787 11.2307 6.81334 11.2366 6.91831C11.2964 8.02585 11.8197 8.82209 12.8194 9.3005C13.3046 9.53314 13.8203 9.52004 14.3359 9.50693C14.8777 9.49273 15.365 9.30705 15.7839 8.96518C16.3963 8.46493 16.7336 7.82051 16.7912 7.01771C16.8413 6.32086 16.8652 5.62401 16.59 4.97521C16.1733 3.99438 15.3922 3.44826 14.3501 3.35323C13.2676 3.25493 12.3321 3.57387 11.6837 4.5263Z" fill="white"/>
</svg>
