<svg width="17" height="16" viewBox="0 0 17 16" fill="none" xmlns="http://www.w3.org/2000/svg">
<path d="M4.33341 13.3914H6.07361C6.3005 13.3914 6.526 13.4184 6.74596 13.4724L8.58468 13.9192C8.98364 14.0164 9.39927 14.0259 9.8024 13.9476L11.8354 13.552C12.3724 13.4474 12.8665 13.1903 13.2536 12.8136L14.692 11.4144C15.1028 11.0155 15.1028 10.3683 14.692 9.96868C14.3222 9.60893 13.7366 9.56843 13.3182 9.87351L11.6418 11.0965C11.4017 11.272 11.1096 11.3665 10.8092 11.3665H9.19041L10.2208 11.3665C10.8016 11.3665 11.272 10.9089 11.272 10.3439V10.1394C11.272 9.6703 10.9438 9.26128 10.4761 9.14788L8.88581 8.76113C8.627 8.69836 8.36195 8.66664 8.09551 8.66664C7.4523 8.66664 6.28801 9.19918 6.28801 9.19918L4.33341 10.0166M1.66675 9.7333L1.66675 13.6C1.66675 13.9733 1.66675 14.16 1.73941 14.3026C1.80333 14.4281 1.90531 14.5301 2.03075 14.594C2.17336 14.6666 2.36005 14.6666 2.73341 14.6666H3.26675C3.64012 14.6666 3.8268 14.6666 3.96941 14.594C4.09485 14.5301 4.19684 14.4281 4.26075 14.3026C4.33341 14.16 4.33341 13.9733 4.33341 13.6V9.7333C4.33341 9.35994 4.33341 9.17325 4.26075 9.03064C4.19684 8.9052 4.09485 8.80322 3.96941 8.7393C3.8268 8.66664 3.64012 8.66664 3.26675 8.66664H2.73341C2.36005 8.66664 2.17336 8.66664 2.03075 8.7393C1.90531 8.80322 1.80333 8.9052 1.73941 9.03064C1.66675 9.17325 1.66675 9.35994 1.66675 9.7333ZM11.7943 2.39481C11.3965 1.56224 10.4791 1.12116 9.58704 1.54689C8.69494 1.97261 8.31488 2.98222 8.68838 3.86852C8.91922 4.41628 9.58058 5.47997 10.0521 6.21266C10.2264 6.48338 10.3135 6.61874 10.4407 6.69792C10.5499 6.76584 10.6865 6.80245 10.815 6.79821C10.9648 6.79325 11.1079 6.71959 11.3942 6.57226C12.1689 6.17351 13.2735 5.58301 13.7473 5.22405C14.5139 4.64325 14.7038 3.57569 14.1299 2.76413C13.5559 1.95257 12.5552 1.87272 11.7943 2.39481Z" stroke="#8B8D98" stroke-width="1.2" stroke-linecap="round" stroke-linejoin="round"/>
</svg>
