<svg xmlns="http://www.w3.org/2000/svg" width="16" height="17" viewBox="0 0 16 17" fill="none">
  <path fill-rule="evenodd" clip-rule="evenodd" d="M7.33331 3.16671C4.75598 3.16671 2.66665 5.25605 2.66665 7.83337C2.66665 10.4107 4.75598 12.5 7.33331 12.5C8.59061 12.5 9.73178 12.0028 10.5709 11.1943C10.5885 11.1715 10.6077 11.1495 10.6286 11.1286C10.6495 11.1077 10.6714 11.0885 10.6942 11.071C11.5028 10.2318 12 9.09067 12 7.83337C12 5.25605 9.91064 3.16671 7.33331 3.16671ZM12.0212 11.5785C12.8423 10.5521 13.3333 9.25005 13.3333 7.83337C13.3333 4.51967 10.647 1.83337 7.33331 1.83337C4.0196 1.83337 1.33331 4.51967 1.33331 7.83337C1.33331 11.1471 4.0196 13.8334 7.33331 13.8334C8.74999 13.8334 10.052 13.3424 11.0784 12.5213L13.5286 14.9714C13.7889 15.2318 14.211 15.2318 14.4714 14.9714C14.7317 14.7111 14.7317 14.289 14.4714 14.0286L12.0212 11.5785Z" fill="#8C8C8C"/>
</svg>
