<svg xmlns="http://www.w3.org/2000/svg" width="68" height="68" viewBox="0 0 68 68" fill="none">
  <path fill-rule="evenodd" clip-rule="evenodd" d="M33.9945 62.3332C49.6425 62.3332 62.3278 49.6479 62.3278 33.9998C62.3278 18.3518 49.6425 5.6665 33.9945 5.6665C18.3464 5.6665 5.66113 18.3518 5.66113 33.9998C5.66113 49.6479 18.3464 62.3332 33.9945 62.3332ZM43.3588 27.6212L30.9821 39.9979L24.6158 33.6315C23.5944 32.6101 21.9384 32.6101 20.9171 33.6315L20.8092 33.7394C19.7878 34.7608 19.7878 36.4167 20.8092 37.4381L29.1313 45.7602C29.6187 46.2476 30.2506 46.5024 30.889 46.5246C31.5895 46.5498 32.2981 46.295 32.8329 45.7603L47.1654 31.4278C48.1867 30.4064 48.1867 28.7505 47.1654 27.7291L47.0575 27.6212C46.0361 26.5998 44.3801 26.5998 43.3588 27.6212Z" fill="#56B882"/>
</svg>