<svg xmlns="http://www.w3.org/2000/svg" width="20" height="20" viewBox="0 0 20 20" fill="none">
  <path fill-rule="evenodd" clip-rule="evenodd" d="M18.8889 9.99997C18.8889 14.9092 14.9092 18.8889 9.99997 18.8889C5.09078 18.8889 1.11108 14.9092 1.11108 9.99997C1.11108 5.09078 5.09078 1.11108 9.99997 1.11108C14.9092 1.11108 18.8889 5.09078 18.8889 9.99997ZM10.3186 7.6731C9.45406 8.0327 7.72613 8.777 5.13484 9.90598C4.71405 10.0733 4.49363 10.237 4.47356 10.3971C4.43965 10.6676 4.77841 10.7741 5.23972 10.9192C5.30246 10.9389 5.36748 10.9593 5.43413 10.981C5.88798 11.1285 6.49849 11.3011 6.81587 11.308C7.10376 11.3142 7.42509 11.1955 7.77984 10.9519C10.201 9.3176 11.4508 8.49153 11.5292 8.47372C11.5846 8.46116 11.6613 8.44536 11.7133 8.49155C11.7652 8.53775 11.7601 8.62524 11.7546 8.64871C11.7211 8.79177 10.3913 10.028 9.70316 10.6678C9.48863 10.8672 9.33645 11.0087 9.30535 11.041C9.23566 11.1134 9.16464 11.1819 9.09638 11.2477C8.67474 11.6541 8.35855 11.9589 9.11389 12.4567C9.47687 12.6959 9.76732 12.8937 10.0571 13.091C10.3736 13.3065 10.6892 13.5215 11.0976 13.7892C11.2016 13.8574 11.301 13.9283 11.3978 13.9973C11.7661 14.2598 12.097 14.4957 12.5057 14.4581C12.7432 14.4362 12.9886 14.2129 13.1132 13.5468C13.4077 11.9725 13.9865 8.56164 14.1203 7.15609C14.132 7.03295 14.1172 6.87535 14.1054 6.80617C14.0936 6.73698 14.0688 6.63841 13.9789 6.56544C13.8724 6.47903 13.708 6.4608 13.6344 6.4621C13.3001 6.46799 12.7872 6.64635 10.3186 7.6731Z" fill="#1E1F24"/>
</svg>