<svg xmlns="http://www.w3.org/2000/svg" width="24" height="24" viewBox="0 0 24 24" fill="none">
  <circle cx="12" cy="12" r="10" fill="#CACED4"/>
  <path fill-rule="evenodd" clip-rule="evenodd" d="M8.34214 14.6466C8.0693 14.9194 8.11088 15.4034 8.43501 15.7275C8.75915 16.0516 9.24309 16.0932 9.51594 15.8204L12.1629 13.1734L14.7425 15.7531C15.0097 16.0203 15.489 15.9742 15.813 15.6502C16.1371 15.3261 16.1832 14.8468 15.916 14.5797L13.3363 12L15.9835 9.35285C16.2563 9.08001 16.2147 8.59606 15.8906 8.27193C15.5664 7.94779 15.0825 7.90621 14.8097 8.17905L12.1625 10.8262L9.58283 8.24651C9.31566 7.97933 8.83638 8.02543 8.51234 8.34947C8.1883 8.67351 8.1422 9.15279 8.40938 9.41996L10.9891 11.9996L8.34214 14.6466Z" fill="white"/>
</svg>
