<svg xmlns="http://www.w3.org/2000/svg" width="24" height="24" viewBox="0 0 24 24" fill="none">
  <path fill-rule="evenodd" clip-rule="evenodd" d="M4.8648 2.40003C4.87499 2.40003 4.8852 2.40003 4.89542 2.40003H8.54342C8.55363 2.40003 8.56384 2.40003 8.57404 2.40003C8.81632 2.4 9.05228 2.39997 9.25212 2.4163C9.47157 2.43423 9.73051 2.47653 9.99108 2.6093C10.3523 2.79337 10.6461 3.0871 10.8301 3.44837C10.9629 3.70893 11.0052 3.96788 11.0231 4.18733C11.0395 4.38716 11.0394 4.62313 11.0394 4.86542V8.57463C11.0394 8.81692 11.0395 9.05289 11.0231 9.25273C11.0052 9.47218 10.9629 9.73112 10.8301 9.99169C10.6461 10.353 10.3523 10.6467 9.99108 10.8308C9.73051 10.9635 9.47157 11.0058 9.25212 11.0238C9.05228 11.0401 8.81631 11.0401 8.57402 11.04H4.86481C4.62252 11.0401 4.38655 11.0401 4.18672 11.0238C3.96727 11.0058 3.70832 10.9635 3.44776 10.8308C3.08649 10.6467 2.79276 10.353 2.60869 9.99169C2.47592 9.73112 2.43362 9.47218 2.41569 9.25273C2.39936 9.05289 2.39939 8.81694 2.39942 8.57465C2.39942 8.56445 2.39942 8.55424 2.39942 8.54403V4.89603C2.39942 4.88581 2.39942 4.8756 2.39942 4.86541C2.39939 4.62312 2.39936 4.38716 2.41569 4.18733C2.43362 3.96788 2.47592 3.70893 2.60869 3.44837C2.79276 3.0871 3.08649 2.79337 3.44776 2.6093C3.70832 2.47653 3.96727 2.43423 4.18672 2.4163C4.38655 2.39997 4.62251 2.4 4.8648 2.40003ZM4.33041 4.33102C4.33004 4.335 4.32967 4.33922 4.32931 4.34368C4.32016 4.4556 4.31942 4.61136 4.31942 4.89603V8.54403C4.31942 8.82869 4.32016 8.98446 4.32931 9.09638C4.32967 9.10083 4.33004 9.10505 4.33041 9.10904C4.33439 9.1094 4.33861 9.10977 4.34307 9.11014C4.45499 9.11928 4.61075 9.12003 4.89542 9.12003H8.54342C8.82808 9.12003 8.98385 9.11928 9.09577 9.11014C9.10022 9.10977 9.10444 9.1094 9.10843 9.10904C9.10879 9.10505 9.10916 9.10083 9.10952 9.09638C9.11867 8.98446 9.11942 8.82869 9.11942 8.54403V4.89603C9.11942 4.61136 9.11867 4.4556 9.10952 4.34368C9.10916 4.33922 9.10879 4.335 9.10843 4.33102C9.10444 4.33065 9.10022 4.33028 9.09577 4.32992C8.98385 4.32077 8.82808 4.32003 8.54342 4.32003H4.89542C4.61075 4.32003 4.45499 4.32077 4.34307 4.32992C4.33861 4.33028 4.33439 4.33065 4.33041 4.33102ZM15.4248 2.40003H19.134C19.3763 2.4 19.6123 2.39997 19.8121 2.4163C20.0316 2.43423 20.2905 2.47653 20.5511 2.6093C20.9123 2.79337 21.2061 3.0871 21.3901 3.44837C21.5229 3.70893 21.5652 3.96788 21.5831 4.18733C21.5995 4.38716 21.5994 4.62311 21.5994 4.86539V8.57467C21.5994 8.81695 21.5995 9.0529 21.5831 9.25273C21.5652 9.47218 21.5229 9.73112 21.3901 9.99169C21.2061 10.353 20.9123 10.6467 20.5511 10.8308C20.2905 10.9635 20.0316 11.0058 19.8121 11.0238C19.6123 11.0401 19.3763 11.0401 19.134 11.04H15.4248C15.1825 11.0401 14.9465 11.0401 14.7467 11.0238C14.5273 11.0058 14.2683 10.9635 14.0077 10.8308C13.6465 10.6467 13.3528 10.353 13.1687 9.99169C13.0359 9.73112 12.9936 9.47218 12.9757 9.25273C12.9594 9.05289 12.9594 8.81693 12.9594 8.57463V4.86542C12.9594 4.62313 12.9594 4.38716 12.9757 4.18733C12.9936 3.96788 13.0359 3.70893 13.1687 3.44837C13.3528 3.0871 13.6465 2.79337 14.0077 2.6093C14.2683 2.47653 14.5273 2.43423 14.7467 2.4163C14.9465 2.39997 15.1825 2.4 15.4248 2.40003ZM14.8904 4.33102C14.89 4.335 14.8897 4.33922 14.8893 4.34368C14.8802 4.4556 14.8794 4.61136 14.8794 4.89603V8.54403C14.8794 8.82869 14.8802 8.98446 14.8893 9.09638C14.8897 9.10083 14.89 9.10505 14.8904 9.10904C14.8944 9.1094 14.8986 9.10977 14.9031 9.11014C15.015 9.11928 15.1707 9.12003 15.4554 9.12003H19.1034C19.3881 9.12003 19.5438 9.11928 19.6558 9.11014C19.6602 9.10977 19.6644 9.1094 19.6684 9.10903C19.6688 9.10505 19.6692 9.10083 19.6695 9.09638C19.6787 8.98446 19.6794 8.82869 19.6794 8.54403V4.89603C19.6794 4.61136 19.6787 4.4556 19.6695 4.34368C19.6692 4.33922 19.6688 4.335 19.6684 4.33102C19.6644 4.33065 19.6602 4.33028 19.6558 4.32992C19.5438 4.32077 19.3881 4.32003 19.1034 4.32003H15.4554C15.1707 4.32003 15.015 4.32077 14.9031 4.32992C14.8986 4.33028 14.8944 4.33065 14.8904 4.33102ZM4.86481 12.96H8.57402C8.81631 12.96 9.05228 12.96 9.25212 12.9763C9.47157 12.9942 9.73051 13.0365 9.99108 13.1693C10.3523 13.3534 10.6461 13.6471 10.8301 14.0084C10.9629 14.2689 11.0052 14.5279 11.0231 14.7473C11.0395 14.9472 11.0394 15.1831 11.0394 15.4254V19.1346C11.0394 19.3769 11.0395 19.6129 11.0231 19.8127C11.0052 20.0322 10.9629 20.2911 10.8301 20.5517C10.6461 20.913 10.3523 21.2067 9.99108 21.3908C9.73051 21.5235 9.47157 21.5658 9.25212 21.5838C9.05229 21.6001 8.81634 21.6001 8.57406 21.6H4.86478C4.6225 21.6001 4.38654 21.6001 4.18672 21.5838C3.96727 21.5658 3.70832 21.5235 3.44776 21.3908C3.08649 21.2067 2.79276 20.913 2.60869 20.5517C2.47592 20.2911 2.43362 20.0322 2.41569 19.8127C2.39936 19.6129 2.39939 19.3769 2.39942 19.1346V15.4254C2.39939 15.1831 2.39936 14.9472 2.41569 14.7473C2.43362 14.5279 2.47592 14.2689 2.60869 14.0084C2.79276 13.6471 3.08649 13.3534 3.44776 13.1693C3.70832 13.0365 3.96727 12.9942 4.18672 12.9763C4.38655 12.96 4.62252 12.96 4.86481 12.96ZM4.33041 14.891C4.33004 14.895 4.32967 14.8992 4.32931 14.9037C4.32016 15.0156 4.31942 15.1714 4.31942 15.456V19.104C4.31942 19.3887 4.32016 19.5444 4.32931 19.6564C4.32967 19.6608 4.33004 19.665 4.33041 19.669C4.33439 19.6694 4.33861 19.6698 4.34307 19.6701C4.45499 19.6793 4.61075 19.68 4.89542 19.68H8.54342C8.82808 19.68 8.98385 19.6793 9.09577 19.6701C9.10022 19.6698 9.10444 19.6694 9.10843 19.669C9.10879 19.665 9.10916 19.6608 9.10952 19.6564C9.11867 19.5444 9.11942 19.3887 9.11942 19.104V15.456C9.11942 15.1714 9.11867 15.0156 9.10952 14.9037C9.10916 14.8992 9.10879 14.895 9.10843 14.891C9.10444 14.8906 9.10022 14.8903 9.09577 14.8899C8.98385 14.8808 8.82808 14.88 8.54342 14.88H4.89542C4.61075 14.88 4.45499 14.8808 4.34307 14.8899C4.33861 14.8903 4.33439 14.8906 4.33041 14.891ZM15.4248 12.96H19.134C19.3763 12.96 19.6123 12.96 19.8121 12.9763C20.0316 12.9942 20.2905 13.0365 20.5511 13.1693C20.9123 13.3534 21.2061 13.6471 21.3901 14.0084C21.5229 14.2689 21.5652 14.5279 21.5831 14.7473C21.5995 14.9472 21.5994 15.1831 21.5994 15.4254V19.1347C21.5994 19.3769 21.5995 19.6129 21.5831 19.8127C21.5652 20.0322 21.5229 20.2911 21.3901 20.5517C21.2061 20.913 20.9123 21.2067 20.5511 21.3908C20.2905 21.5235 20.0316 21.5658 19.8121 21.5838C19.6123 21.6001 19.3763 21.6001 19.1341 21.6H15.4248C15.1825 21.6001 14.9465 21.6001 14.7467 21.5838C14.5273 21.5658 14.2683 21.5235 14.0077 21.3908C13.6465 21.2067 13.3528 20.913 13.1687 20.5517C13.0359 20.2911 12.9936 20.0322 12.9757 19.8127C12.9594 19.6129 12.9594 19.3769 12.9594 19.1346V15.4254C12.9594 15.1831 12.9594 14.9472 12.9757 14.7473C12.9936 14.5279 13.0359 14.2689 13.1687 14.0084C13.3528 13.6471 13.6465 13.3534 14.0077 13.1693C14.2683 13.0365 14.5273 12.9942 14.7467 12.9763C14.9465 12.96 15.1825 12.96 15.4248 12.96ZM14.8904 14.891C14.89 14.895 14.8897 14.8992 14.8893 14.9037C14.8802 15.0156 14.8794 15.1714 14.8794 15.456V19.104C14.8794 19.3887 14.8802 19.5444 14.8893 19.6564C14.8897 19.6608 14.89 19.665 14.8904 19.669C14.8944 19.6694 14.8986 19.6698 14.9031 19.6701C15.015 19.6793 15.1707 19.68 15.4554 19.68H19.1034C19.3881 19.68 19.5438 19.6793 19.6558 19.6701C19.6602 19.6698 19.6644 19.6694 19.6684 19.669C19.6688 19.665 19.6692 19.6608 19.6695 19.6564C19.6787 19.5444 19.6794 19.3887 19.6794 19.104V15.456C19.6794 15.1714 19.6787 15.0156 19.6695 14.9037C19.6692 14.8992 19.6688 14.895 19.6684 14.891C19.6644 14.8906 19.6602 14.8903 19.6558 14.8899C19.5438 14.8808 19.3881 14.88 19.1034 14.88H15.4554C15.1707 14.88 15.015 14.8808 14.9031 14.8899C14.8986 14.8903 14.8944 14.8906 14.8904 14.891Z" fill="#1A1A1A"/>
</svg>