<svg xmlns="http://www.w3.org/2000/svg" width="24" height="24" viewBox="0 0 24 24" fill="none">
  <path fill-rule="evenodd" clip-rule="evenodd" d="M18 3H6C5.20435 3 4.44129 3.31607 3.87868 3.87868C3.31607 4.44129 3 5.20435 3 6V18C3 18.7956 3.31607 19.5587 3.87868 20.1213C4.44129 20.6839 5.20435 21 6 21H18C18.7956 21 19.5587 20.6839 20.1213 20.1213C20.6839 19.5587 21 18.7956 21 18V6C21 5.20435 20.6839 4.44129 20.1213 3.87868C19.5587 3.31607 18.7956 3 18 3ZM19 18C19 18.2652 18.8946 18.5196 18.7071 18.7071C18.5196 18.8946 18.2652 19 18 19H6C5.73478 19 5.48043 18.8946 5.29289 18.7071C5.10536 18.5196 5 18.2652 5 18V11H19V18ZM5 9V6C5 5.73478 5.10536 5.48043 5.29289 5.29289C5.48043 5.10536 5.73478 5 6 5H18C18.2652 5 18.5196 5.10536 18.7071 5.29289C18.8946 5.48043 19 5.73478 19 6V9H5ZM7.00078 7.03004C7.00076 7.16137 7.02661 7.29142 7.07686 7.41277C7.1271 7.53411 7.20076 7.64437 7.29362 7.73724C7.38648 7.83012 7.49673 7.90379 7.61806 7.95405C7.7394 8.00432 7.86945 8.03019 8.00078 8.03019C8.13212 8.03019 8.26216 8.00432 8.3835 7.95405C8.50484 7.90379 8.61508 7.83012 8.70794 7.73724C8.8008 7.64437 8.87446 7.53411 8.9247 7.41277C8.97495 7.29142 9.0008 7.16137 9.00078 7.03004C9.0008 6.8987 8.97495 6.76865 8.9247 6.64731C8.87446 6.52596 8.8008 6.4157 8.70794 6.32283C8.61508 6.22996 8.50484 6.15628 8.3835 6.10602C8.26216 6.05575 8.13212 6.02988 8.00078 6.02988C7.86945 6.02988 7.7394 6.05575 7.61806 6.10602C7.49673 6.15628 7.38648 6.22996 7.29362 6.32283C7.20076 6.4157 7.1271 6.52596 7.07686 6.64731C7.02661 6.76865 7.00076 6.8987 7.00078 7.03004ZM11.2921 7.73699C11.1046 7.54945 10.9992 7.2951 10.9992 7.02988C10.9992 6.76467 11.1046 6.51031 11.2921 6.32278C11.4796 6.13524 11.734 6.02988 11.9992 6.02988C12.2644 6.02988 12.5188 6.13524 12.7063 6.32278C12.8939 6.51031 12.9992 6.76467 12.9992 7.02988C12.9992 7.2951 12.8939 7.54945 12.7063 7.73699C12.5188 7.92453 12.2644 8.02988 11.9992 8.02988C11.734 8.02988 11.4796 7.92453 11.2921 7.73699Z" fill="#1E1F24"/>
</svg>