<svg xmlns="http://www.w3.org/2000/svg" width="24" height="24" viewBox="0 0 24 24" fill="none">
  <mask id="mask0_1989_5319" style="mask-type:alpha" maskUnits="userSpaceOnUse" x="0" y="0" width="24" height="24">
    <rect width="24" height="24" fill="#D9D9D9"/>
  </mask>
  <g mask="url(#mask0_1989_5319)">
    <path d="M6.64328 21.6429C5.16113 21.6429 3.89774 21.1206 2.8531 20.0759C1.80845 19.0313 1.28613 17.7679 1.28613 16.2858C1.28613 14.9822 1.69238 13.8438 2.50488 12.8706C3.31738 11.8974 4.3397 11.2858 5.57185 11.0358V13.259C4.94685 13.4733 4.43345 13.8572 4.03167 14.4108C3.62988 14.9643 3.42899 15.5893 3.42899 16.2858C3.42899 17.1786 3.74149 17.9376 4.36649 18.5626C4.99149 19.1876 5.75042 19.5001 6.64328 19.5001C7.53613 19.5001 8.29506 19.1876 8.92006 18.5626C9.54506 17.9376 9.85756 17.1786 9.85756 16.2858V15.2143H16.1522C16.2951 15.0536 16.4692 14.9242 16.6745 14.8259C16.8799 14.7277 17.1076 14.6786 17.3576 14.6786C17.804 14.6786 18.1835 14.8349 18.496 15.1474C18.8085 15.4599 18.9647 15.8393 18.9647 16.2858C18.9647 16.7322 18.8085 17.1117 18.496 17.4242C18.1835 17.7367 17.804 17.8929 17.3576 17.8929C17.1076 17.8929 16.8799 17.8438 16.6745 17.7456C16.4692 17.6474 16.2951 17.5179 16.1522 17.3572H11.8933C11.6433 18.5893 11.0317 19.6117 10.0585 20.4242C9.08524 21.2367 7.94685 21.6429 6.64328 21.6429ZM17.3576 21.6429C16.3576 21.6429 15.4513 21.3974 14.6388 20.9063C13.8263 20.4152 13.1879 19.7679 12.7236 18.9643H15.5897C15.8397 19.1429 16.1165 19.2768 16.4201 19.3661C16.7236 19.4554 17.0361 19.5001 17.3576 19.5001C18.2504 19.5001 19.0093 19.1876 19.6343 18.5626C20.2593 17.9376 20.5718 17.1786 20.5718 16.2858C20.5718 15.3929 20.2593 14.634 19.6343 14.009C19.0093 13.384 18.2504 13.0715 17.3576 13.0715C17.0004 13.0715 16.6701 13.1206 16.3665 13.2188C16.0629 13.317 15.7772 13.4643 15.5093 13.6608L12.2415 8.22327C11.8665 8.15184 11.554 7.97327 11.304 7.68755C11.054 7.40184 10.929 7.05362 10.929 6.64291C10.929 6.19648 11.0852 5.81702 11.3977 5.50452C11.7102 5.19202 12.0897 5.03577 12.5361 5.03577C12.9826 5.03577 13.362 5.19202 13.6745 5.50452C13.987 5.81702 14.1433 6.19648 14.1433 6.64291V6.87059C14.1433 6.93309 14.1254 7.00898 14.0897 7.09827L16.4201 11.009C16.5629 10.9733 16.7147 10.9509 16.8754 10.942C17.0361 10.9331 17.1968 10.9286 17.3576 10.9286C18.8397 10.9286 20.1031 11.4509 21.1477 12.4956C22.1924 13.5402 22.7147 14.8036 22.7147 16.2858C22.7147 17.7679 22.1924 19.0313 21.1477 20.0759C20.1031 21.1206 18.8397 21.6429 17.3576 21.6429ZM6.64328 17.8929C6.19685 17.8929 5.81738 17.7367 5.50488 17.4242C5.19238 17.1117 5.03613 16.7322 5.03613 16.2858C5.03613 15.8929 5.16113 15.5536 5.41113 15.2679C5.66113 14.9822 5.9647 14.7947 6.32185 14.7054L8.8397 10.5268C8.32185 10.0447 7.9156 9.4688 7.62095 8.79916C7.32631 8.12952 7.17899 7.41077 7.17899 6.64291C7.17899 5.16077 7.70131 3.89737 8.74595 2.85273C9.7906 1.80809 11.054 1.28577 12.5361 1.28577C14.0183 1.28577 15.2817 1.80809 16.3263 2.85273C17.371 3.89737 17.8933 5.16077 17.8933 6.64291H15.7504C15.7504 5.75005 15.4379 4.99112 14.8129 4.36612C14.1879 3.74112 13.429 3.42862 12.5361 3.42862C11.6433 3.42862 10.8843 3.74112 10.2593 4.36612C9.63435 4.99112 9.32185 5.75005 9.32185 6.64291C9.32185 7.41077 9.55399 8.08487 10.0183 8.66523C10.4826 9.24559 11.0718 9.61612 11.7861 9.77684L8.17006 15.8036C8.20578 15.8929 8.2281 15.9733 8.23703 16.0447C8.24595 16.1161 8.25042 16.1965 8.25042 16.2858C8.25042 16.7322 8.09417 17.1117 7.78167 17.4242C7.46917 17.7367 7.0897 17.8929 6.64328 17.8929Z" fill="#1A1A1A"/>
  </g>
</svg>