<svg xmlns="http://www.w3.org/2000/svg" width="24" height="24" viewBox="0 0 24 24" fill="none">
  <mask id="mask0_1989_2098" style="mask-type:alpha" maskUnits="userSpaceOnUse" x="0" y="0" width="24" height="24">
    <rect width="24" height="24" fill="#D9D9D9"/>
  </mask>
  <g mask="url(#mask0_1989_2098)">
    <path d="M2.40039 16.9C2.40039 16.4703 2.50456 16.0754 2.71289 15.7152C2.92122 15.3551 3.20872 15.0667 3.57539 14.85C4.47539 14.3167 5.42956 13.9083 6.43789 13.625C7.44622 13.3417 8.50039 13.2 9.60039 13.2C10.7004 13.2 11.7546 13.3417 12.7629 13.625C13.7712 13.9083 14.7254 14.3167 15.6254 14.85C15.9921 15.0667 16.2796 15.3551 16.4879 15.7152C16.6962 16.0754 16.8004 16.4703 16.8004 16.9V17.4C16.8004 17.895 16.624 18.3187 16.2713 18.6712C15.9186 19.0237 15.4947 19.2 14.9994 19.2H4.19332C3.69803 19.2 3.27539 19.0237 2.92539 18.6712C2.57539 18.3187 2.40039 17.895 2.40039 17.4V16.9ZM19.8004 19.2H18.1254C18.2754 18.9167 18.3921 18.6234 18.4754 18.3204C18.5587 18.0173 18.6004 17.7105 18.6004 17.4V16.9C18.6004 16.2 18.4379 15.55 18.1129 14.95C17.7879 14.35 17.3504 13.8583 16.8004 13.475C17.4504 13.6083 18.0796 13.7875 18.6879 14.0125C19.2962 14.2375 19.8754 14.5167 20.4254 14.85C20.7921 15.0667 21.0796 15.3556 21.2879 15.7168C21.4962 16.078 21.6004 16.4724 21.6004 16.9V17.4C21.6004 17.895 21.4241 18.3187 21.0716 18.6712C20.7191 19.0237 20.2954 19.2 19.8004 19.2ZM9.60039 12C8.60039 12 7.75039 11.65 7.05039 10.95C6.35039 10.25 6.00039 9.39999 6.00039 8.39999C6.00039 7.39999 6.35039 6.54999 7.05039 5.84999C7.75039 5.14999 8.60039 4.79999 9.60039 4.79999C10.6004 4.79999 11.4504 5.14999 12.1504 5.84999C12.8504 6.54999 13.2004 7.39999 13.2004 8.39999C13.2004 9.39999 12.8504 10.25 12.1504 10.95C11.4504 11.65 10.6004 12 9.60039 12ZM18.0004 8.39999C18.0004 9.39999 17.6504 10.25 16.9504 10.95C16.2504 11.65 15.4004 12 14.4004 12C14.2671 12 14.1421 11.9958 14.0254 11.9875C13.9087 11.9792 13.7837 11.9583 13.6504 11.925C14.0671 11.4417 14.3962 10.9042 14.6379 10.3125C14.8796 9.72082 15.0004 9.08332 15.0004 8.39999C15.0004 7.71665 14.8796 7.07915 14.6379 6.48749C14.3962 5.89582 14.0671 5.35832 13.6504 4.87499C13.7837 4.84165 13.9087 4.82082 14.0254 4.81249C14.1421 4.80415 14.2671 4.79999 14.4004 4.79999C15.4004 4.79999 16.2504 5.14999 16.9504 5.84999C17.6504 6.54999 18.0004 7.39999 18.0004 8.39999ZM4.20039 17.4H15.0004V16.9C15.0004 16.7921 14.9752 16.6941 14.9248 16.6059C14.8743 16.5176 14.8079 16.449 14.7254 16.4C13.9421 15.95 13.1171 15.6042 12.2504 15.3625C11.3837 15.1208 10.5004 15 9.60039 15C8.70039 15 7.81706 15.1167 6.95039 15.35C6.08372 15.5833 5.25872 15.9333 4.47539 16.4C4.39289 16.4471 4.32643 16.513 4.27602 16.5978C4.2256 16.6826 4.20039 16.7825 4.20039 16.8977V17.4ZM9.60569 10.2C10.1022 10.2 10.5254 10.0232 10.8754 9.66969C11.2254 9.31614 11.4004 8.89114 11.4004 8.39469C11.4004 7.89822 11.2236 7.47499 10.8701 7.12499C10.5165 6.77499 10.0915 6.59999 9.59509 6.59999C9.09862 6.59999 8.67539 6.77675 8.32539 7.13029C7.97539 7.48384 7.80039 7.90884 7.80039 8.40529C7.80039 8.90175 7.97716 9.32499 8.33069 9.67499C8.68424 10.025 9.10924 10.2 9.60569 10.2Z" fill="#1A1A1A"/>
  </g>
</svg>