<svg width="608" height="340" viewBox="0 0 608 340" fill="none" xmlns="http://www.w3.org/2000/svg">
<rect width="608" height="340" rx="16" fill="#FEF7ED"/>
<path d="M50 73C50 66.3726 55.3726 61 62 61H546C552.627 61 558 66.3726 558 73V340H50L50 73Z" fill="white"/>
<g clip-path="url(#clip0_1058_32742)">
<rect x="162" y="237.2" width="283.2" height="93.6" rx="7.2" fill="#FFF7EE"/>
<path opacity="0.5" d="M514.8 281.694C506.766 281.694 498.633 283.139 491.368 286.713C484.871 289.906 479.317 294.823 473.639 299.284C469.2 302.781 464.663 306.178 459.629 308.738C442.148 317.634 419.559 315.302 403.838 303.669C397.069 298.65 390.845 292.796 383.555 288.639C365.95 278.577 342.543 279.641 325.88 291.326C317.003 297.535 309.564 305.468 299.497 309.802C293.522 312.362 287.099 313.883 280.603 314.212C270.635 314.694 260.568 312.362 251.765 307.572C242.963 302.781 235.673 294.772 226.945 289.349C213.803 281.188 195.231 279.033 180.725 284.533C171.402 288.056 163.641 294.747 155.681 300.805C150.796 304.505 145.713 308.028 140.134 310.537C133.687 313.376 126.943 314.085 120 314.085" stroke="#FFD9A7" stroke-width="3" stroke-miterlimit="10"/>
<path d="M158.251 286.697C166.155 289.567 174.183 292.059 182.164 294.687C192.403 298.055 202.241 302.359 212.883 304.519C229.897 307.978 243.756 304.489 258.806 296.303C266.184 292.285 273.439 287.936 281.312 284.96C289.293 281.955 297.862 280.399 306.215 282.816C311.613 284.371 316.624 286.969 321.775 289.204C332.572 293.901 344.373 296.695 355.881 292.905C374.969 286.606 381.388 266.851 397.768 257.14C412.988 248.108 428.317 253.968 437.968 267.38C449.445 283.314 456.824 301.649 475.184 311.542" stroke="#FFD9A7" stroke-width="3" stroke-miterlimit="10"/>
</g>
<g opacity="0.5">
<rect x="291.6" y="195.2" width="11.04" height="28.8" rx="2.4" fill="#FFD9A7"/>
<rect x="307.44" y="201.2" width="11.04" height="22.8" rx="2.4" fill="#FFD9A7"/>
<rect x="323.28" y="185.6" width="11.04" height="38.4" rx="2.4" fill="#FFD9A7"/>
<rect x="339.12" y="190.4" width="11.04" height="33.6" rx="2.4" fill="#FFD9A7"/>
<rect x="354.96" y="198.237" width="11.04" height="25.7627" rx="2.4" fill="#FFD9A7"/>
<rect x="370.8" y="178.4" width="11.04" height="45.6" rx="2.4" fill="#FFD9A7"/>
<rect x="386.64" y="198.237" width="11.04" height="25.7627" rx="2.4" fill="#FFD9A7"/>
<rect x="402.48" y="208.8" width="11.04" height="15.2" rx="2.4" fill="#FFD9A7"/>
<rect x="418.32" y="207.2" width="11.04" height="16.8" rx="2.4" fill="#FFD9A7"/>
<rect x="434.16" y="190.4" width="11.04" height="33.6" rx="2.4" fill="#FFD9A7"/>
</g>
<rect x="162" y="128" width="120" height="96" rx="7.2" fill="#FFF7EE"/>
<path fill-rule="evenodd" clip-rule="evenodd" d="M232.303 159.2C230.241 159.2 228.57 160.871 228.57 162.933C228.57 164.995 230.241 166.667 232.303 166.667C234.365 166.667 236.036 164.995 236.036 162.933C236.036 160.871 234.365 159.2 232.303 159.2ZM215.964 166.488C216.865 166.121 217.874 166.121 218.776 166.488C219.454 166.763 219.924 167.241 220.266 167.65C220.591 168.04 220.942 168.547 221.318 169.091L226.533 176.623C226.877 176.107 227.198 175.632 227.499 175.26C227.84 174.836 228.314 174.337 229.006 174.05C229.922 173.67 230.951 173.67 231.867 174.05C232.559 174.337 233.033 174.836 233.374 175.26C233.702 175.666 234.054 176.194 234.433 176.763L240.139 185.322C240.603 186.018 241.021 186.644 241.309 187.176C241.597 187.707 241.926 188.437 241.875 189.289C241.81 190.379 241.271 191.385 240.401 192.044C239.72 192.559 238.93 192.69 238.328 192.745C237.726 192.8 236.974 192.8 236.137 192.8H206.189C205.335 192.8 204.57 192.8 203.96 192.744C203.352 192.689 202.55 192.557 201.864 192.032C200.99 191.363 200.455 190.343 200.403 189.243C200.362 188.381 200.71 187.647 201.011 187.115C201.312 186.581 201.748 185.952 202.233 185.251L213.379 169.151C213.393 169.131 213.407 169.111 213.421 169.091C213.798 168.547 214.148 168.04 214.474 167.65C214.816 167.241 215.285 166.763 215.964 166.488Z" fill="#FFD9A7"/>
<path d="M50 73C50 66.3726 55.3726 61 62 61H546C552.627 61 558 66.3726 558 73V105H50V73Z" fill="#373737"/>
<path d="M130 83C130 77.4772 134.477 73 140 73H280C285.523 73 290 77.4772 290 83V105H130V83Z" fill="white"/>
<rect x="142" y="85" width="80" height="12" rx="2" fill="#E7E8EC"/>
<circle cx="72" cy="83" r="6" fill="#FF5F57"/>
<circle cx="90" cy="83" r="6" fill="#FEBC2E"/>
<circle cx="108" cy="83" r="6" fill="#28C840"/>
<rect x="254" y="175" width="100" height="100" rx="50" fill="#FA8525"/>
<path d="M291.5 216.667H310.25V210.714C310.25 208.978 309.642 207.502 308.427 206.287C307.212 205.072 305.736 204.464 304 204.464C302.264 204.464 300.788 205.072 299.573 206.287C298.868 206.992 298.367 207.785 298.071 208.665C297.705 209.756 296.817 210.714 295.667 210.714C294.516 210.714 293.558 209.773 293.772 208.642C294.151 206.636 295.104 204.87 296.63 203.344C298.661 201.313 301.118 200.298 304 200.298C306.882 200.298 309.339 201.313 311.37 203.344C313.401 205.376 314.417 207.832 314.417 210.714V216.667H316.5C317.646 216.667 318.627 217.075 319.443 217.891C320.259 218.707 320.667 219.687 320.667 220.833V241.667C320.667 242.812 320.259 243.793 319.443 244.609C318.627 245.425 317.646 245.833 316.5 245.833H291.5C290.354 245.833 289.373 245.425 288.557 244.609C287.741 243.793 287.333 242.812 287.333 241.667V220.833C287.333 219.687 287.741 218.707 288.557 217.891C289.373 217.075 290.354 216.667 291.5 216.667ZM304 235.417C305.146 235.417 306.127 235.009 306.943 234.193C307.759 233.377 308.167 232.396 308.167 231.25C308.167 230.104 307.759 229.123 306.943 228.307C306.127 227.491 305.146 227.083 304 227.083C302.854 227.083 301.873 227.491 301.057 228.307C300.241 229.123 299.833 230.104 299.833 231.25C299.833 232.396 300.241 233.377 301.057 234.193C301.873 235.009 302.854 235.417 304 235.417Z" fill="white"/>
<defs>
<clipPath id="clip0_1058_32742">
<rect x="162" y="237.2" width="283.2" height="93.6" rx="7.2" fill="white"/>
</clipPath>
</defs>
</svg>
