<svg width="608" height="340" viewBox="0 0 608 340" fill="none" xmlns="http://www.w3.org/2000/svg">
<rect width="608" height="340" rx="16" fill="#EFF1FF"/>
<path d="M50 73C50 66.3726 55.3726 61 62 61H546C552.627 61 558 66.3726 558 73V340H50L50 73Z" fill="white"/>
<g clip-path="url(#clip0_1058_32714)">
<rect x="162" y="237" width="177" height="94" rx="7.2" fill="#F7F9FF"/>
<path d="M495.8 281.494C487.766 281.494 479.633 282.939 472.368 286.513C465.871 289.706 460.317 294.623 454.639 299.084C450.2 302.581 445.663 305.978 440.629 308.537C423.148 317.434 400.559 315.102 384.838 303.468C378.069 298.45 371.845 292.595 364.555 288.439C346.95 278.377 323.543 279.441 306.88 291.125C298.003 297.335 290.564 305.268 280.497 309.602C274.522 312.162 268.099 313.683 261.603 314.012C251.635 314.494 241.568 312.162 232.765 307.372C223.963 302.581 216.673 294.572 207.945 289.149C194.803 280.987 176.231 278.833 161.725 284.333C152.402 287.856 144.641 294.547 136.681 300.604C131.796 304.305 126.713 307.828 121.134 310.337C114.687 313.176 107.943 313.885 101 313.885" stroke="#E3E8FF" stroke-width="3" stroke-miterlimit="10"/>
<path d="M139.251 286.497C147.155 289.367 155.182 291.859 163.164 294.487C173.403 297.855 183.241 302.159 193.883 304.319C210.897 307.777 224.756 304.289 239.806 296.103C247.184 292.085 254.439 287.736 262.312 284.76C270.293 281.755 278.862 280.199 287.215 282.616C292.613 284.171 297.624 286.769 302.775 289.004C313.572 293.701 325.373 296.495 336.881 292.704C355.968 286.406 362.388 266.651 378.768 256.94C393.988 247.908 409.317 253.768 418.968 267.18C430.445 283.114 437.824 301.449 456.184 311.342" stroke="#C5CFFF" stroke-width="3" stroke-miterlimit="10"/>
</g>
<rect x="162" y="128" width="120" height="96" rx="7.2" fill="#F7F9FF"/>
<path fill-rule="evenodd" clip-rule="evenodd" d="M232.303 159.2C230.241 159.2 228.57 160.871 228.57 162.933C228.57 164.995 230.241 166.667 232.303 166.667C234.365 166.667 236.036 164.995 236.036 162.933C236.036 160.871 234.365 159.2 232.303 159.2ZM215.964 166.488C216.865 166.121 217.874 166.121 218.776 166.488C219.454 166.763 219.924 167.241 220.266 167.65C220.591 168.04 220.942 168.547 221.318 169.091L226.533 176.623C226.877 176.107 227.198 175.632 227.499 175.26C227.84 174.836 228.314 174.337 229.006 174.05C229.922 173.67 230.951 173.67 231.867 174.05C232.559 174.337 233.033 174.836 233.374 175.26C233.702 175.666 234.054 176.194 234.433 176.763L240.139 185.322C240.603 186.018 241.021 186.644 241.309 187.176C241.597 187.707 241.926 188.437 241.875 189.289C241.81 190.379 241.271 191.385 240.401 192.044C239.72 192.559 238.93 192.69 238.328 192.745C237.726 192.8 236.974 192.8 236.137 192.8H206.189C205.335 192.8 204.57 192.8 203.96 192.744C203.352 192.689 202.55 192.557 201.864 192.032C200.99 191.363 200.455 190.343 200.403 189.243C200.362 188.381 200.71 187.647 201.011 187.115C201.312 186.581 201.748 185.952 202.233 185.251L213.379 169.151C213.393 169.131 213.407 169.111 213.421 169.091C213.798 168.547 214.148 168.04 214.474 167.65C214.816 167.241 215.285 166.763 215.964 166.488Z" fill="#C5CFFF"/>
<rect x="351" y="237" width="94" height="94" rx="8" fill="#F7F9FF"/>
<path d="M413.181 283.828C413.651 284.037 414.184 284.056 414.668 283.882C415.152 283.708 415.551 283.354 415.781 282.894L419.781 274.894C420.018 274.419 420.057 273.87 419.889 273.367C419.721 272.863 419.359 272.447 418.885 272.21C418.41 271.973 417.861 271.934 417.357 272.102C416.854 272.27 416.438 272.631 416.201 273.106L413.061 279.4L408.489 277.36L412.661 275.886C412.986 275.771 413.277 275.574 413.503 275.314C413.73 275.053 413.886 274.739 413.955 274.4L415.955 264.4C416.061 263.88 415.956 263.34 415.664 262.897C415.371 262.455 414.915 262.146 414.395 262.04C413.875 261.934 413.334 262.039 412.892 262.331C412.449 262.624 412.141 263.08 412.035 263.6L410.257 272.484L405.995 274V264C405.995 263.47 405.784 262.961 405.409 262.586C405.034 262.211 404.525 262 403.995 262C403.464 262 402.956 262.211 402.581 262.586C402.205 262.961 401.995 263.47 401.995 264V267.112C400.787 266.385 399.404 266 397.995 266C396.585 266 395.202 266.385 393.995 267.112V264C393.995 263.47 393.784 262.961 393.409 262.586C393.034 262.211 392.525 262 391.995 262C391.464 262 390.956 262.211 390.581 262.586C390.205 262.961 389.995 263.47 389.995 264V274L385.733 272.492L383.955 263.6C383.902 263.343 383.8 263.098 383.652 262.881C383.505 262.663 383.317 262.476 383.098 262.331C382.879 262.187 382.633 262.086 382.375 262.036C382.117 261.986 381.852 261.988 381.595 262.04C381.075 262.146 380.619 262.455 380.326 262.897C380.033 263.34 379.929 263.88 380.035 264.4L382.035 274.4C382.103 274.74 382.257 275.056 382.484 275.318C382.711 275.58 383.002 275.779 383.329 275.894L387.501 277.368L382.929 279.4L379.795 273.106C379.558 272.631 379.142 272.27 378.638 272.102C378.135 271.934 377.585 271.973 377.111 272.21C376.636 272.447 376.275 272.863 376.107 273.367C375.939 273.87 375.978 274.419 376.215 274.894L380.215 282.894C380.445 283.354 380.843 283.708 381.328 283.882C381.812 284.056 382.344 284.037 382.815 283.828L384.995 282.86C384.78 283.408 384.6 283.968 384.457 284.538L381.111 286.21C380.852 286.339 380.625 286.523 380.445 286.749C380.264 286.974 380.134 287.236 380.065 287.516L376.065 303.516C375.936 304.03 376.018 304.575 376.29 305.029C376.563 305.484 377.005 305.811 377.519 305.94C377.675 305.979 377.834 305.999 377.995 306C378.441 306 378.873 305.85 379.224 305.575C379.576 305.301 379.825 304.917 379.933 304.484L383.709 289.376L384.055 289.204C384.351 292.697 385.948 295.951 388.529 298.323C391.11 300.694 394.487 302.011 397.993 302.011C401.498 302.011 404.876 300.694 407.457 298.323C410.038 295.951 411.635 292.697 411.931 289.204L412.277 289.376L416.053 304.484C416.161 304.917 416.411 305.302 416.763 305.577C417.115 305.851 417.548 306.001 417.995 306C418.159 306 418.323 305.98 418.483 305.94C418.997 305.811 419.439 305.484 419.711 305.029C419.984 304.575 420.065 304.03 419.937 303.516L415.937 287.516C415.867 287.236 415.737 286.974 415.557 286.749C415.376 286.523 415.149 286.339 414.891 286.21L411.545 284.538C411.401 283.968 411.221 283.408 411.007 282.86L413.181 283.828ZM397.995 270C398.569 270 399.136 270.124 399.658 270.362C400.18 270.601 400.644 270.949 401.02 271.383C401.395 271.818 401.673 272.327 401.834 272.878C401.995 273.429 402.035 274.008 401.953 274.576C400.664 274.211 399.334 274.018 397.995 274C396.656 274.019 395.325 274.212 394.037 274.576C393.954 274.008 393.995 273.429 394.156 272.878C394.317 272.327 394.594 271.818 394.97 271.383C395.345 270.949 395.81 270.601 396.332 270.362C396.854 270.124 397.421 270 397.995 270ZM397.995 298C395.343 298.009 392.796 296.963 390.914 295.094C389.033 293.225 387.971 290.684 387.963 288.032C387.954 285.38 389 282.833 390.869 280.952C392.738 279.07 395.279 278.009 397.931 278H398.059C400.711 278.009 403.251 279.07 405.12 280.952C406.99 282.833 408.035 285.38 408.027 288.032C408.018 290.684 406.957 293.225 405.075 295.094C403.194 296.963 400.647 298.009 397.995 298ZM399.995 292C399.995 292.531 399.784 293.039 399.409 293.414C399.034 293.789 398.525 294 397.995 294C396.403 294 394.877 293.368 393.752 292.243C392.627 291.118 391.995 289.591 391.995 288C391.995 287.47 392.206 286.961 392.581 286.586C392.956 286.211 393.464 286.001 393.995 286.001C394.525 286.001 395.034 286.211 395.409 286.586C395.784 286.961 395.995 287.47 395.995 288C395.995 288.531 396.205 289.039 396.581 289.414C396.956 289.789 397.464 290 397.995 290C398.525 290 399.034 290.211 399.409 290.586C399.784 290.961 399.995 291.47 399.995 292Z" fill="#C5CFFF"/>
<rect x="294" y="132" width="80" height="14" rx="2" fill="#E3E8FF"/>
<rect x="420" y="206" width="25" height="14" rx="2" fill="#E3E8FF"/>
<rect x="294" y="158" width="151" height="10" rx="2" fill="#EFF1FF"/>
<rect x="294" y="172" width="52" height="10" rx="2" fill="#EFF1FF"/>
<path d="M50 73C50 66.3726 55.3726 61 62 61H546C552.627 61 558 66.3726 558 73V105H50V73Z" fill="#373737"/>
<path d="M130 83C130 77.4772 134.477 73 140 73H280C285.523 73 290 77.4772 290 83V105H130V83Z" fill="white"/>
<rect x="142" y="85" width="80" height="12" rx="2" fill="#E7E8EC"/>
<circle cx="72" cy="83" r="6" fill="#FF5F57"/>
<circle cx="90" cy="83" r="6" fill="#FEBC2E"/>
<circle cx="108" cy="83" r="6" fill="#28C840"/>
<path d="M511.069 270.581C510.738 269.556 511.821 268.647 512.773 269.151L530.361 278.46C531.326 278.971 531.163 280.402 530.107 280.682L523.201 282.517C522.857 282.608 522.57 282.848 522.42 283.172L519.414 289.654C518.955 290.646 517.518 290.558 517.182 289.518L511.069 270.581Z" fill="#646AEE"/>
<path d="M512.939 259.987V257M505.095 263.095L502.982 260.982M505.095 278.904L502.982 281.016M520.904 263.095L523.016 260.982M501.987 270.939H499" stroke="#646AEE" stroke-width="2" stroke-linecap="round" stroke-linejoin="round"/>
<defs>
<clipPath id="clip0_1058_32714">
<rect x="162" y="237" width="177" height="94" rx="7.2" fill="white"/>
</clipPath>
</defs>
</svg>
