<svg width="608" height="340" viewBox="0 0 608 340" fill="none" xmlns="http://www.w3.org/2000/svg">
<rect width="608" height="340" rx="16" fill="#EFF1FF"/>
<g filter="url(#filter0_d_1058_32775)">
<rect x="54" y="55" width="500" height="97" rx="12" fill="#FDFDFF" shape-rendering="crispEdges"/>
<rect x="54.5" y="55.5" width="499" height="96" rx="11.5" stroke="#C5CFFF" shape-rendering="crispEdges"/>
<g clip-path="url(#clip0_1058_32775)">
<path fill-rule="evenodd" clip-rule="evenodd" d="M92 81.5C94.4746 81.5 96.5 83.5254 96.5 86C97.3281 86 98 86.6719 98 87.5V91.5C98 91.7675 97.9299 92.0187 97.8071 92.2362C97.0667 91.4867 96.0911 90.97 95 90.8059V86C95 84.3457 93.6543 83 92 83H84C82.3457 83 81 84.3457 81 86V93C81 94.6543 82.3457 96 84 96H89.2561C89.282 96.5254 89.389 97.0295 89.5648 97.5H84C81.5254 97.5 79.5 95.4746 79.5 93C78.6719 93 78 92.3281 78 91.5V87.5C78 86.6719 78.6719 86 79.5 86C79.5 83.5254 81.5254 81.5 84 81.5H92ZM84.875 86.6875C84.3572 86.6875 83.9375 87.1072 83.9375 87.625V89.8125C83.9375 90.3303 84.3572 90.75 84.875 90.75C85.3928 90.75 85.8125 90.3303 85.8125 89.8125V87.625C85.8125 87.1072 85.3928 86.6875 84.875 86.6875ZM90.1875 87.625C90.1875 87.1072 90.6072 86.6875 91.125 86.6875C91.6428 86.6875 92.0625 87.1072 92.0625 87.625V89.8125C92.0625 90.3303 91.6428 90.75 91.125 90.75C90.6072 90.75 90.1875 90.3303 90.1875 89.8125V87.625ZM98 95.75C98 97.8211 96.3211 99.5 94.25 99.5C92.1789 99.5 90.5 97.8211 90.5 95.75C90.5 93.6789 92.1789 92 94.25 92C96.3211 92 98 93.6789 98 95.75ZM93.6623 94.2894C93.8398 94.4669 93.8398 94.7547 93.6623 94.9322L92.8474 95.7472L93.6623 96.5621C93.8398 96.7396 93.8398 97.0274 93.6623 97.2049C93.4848 97.3824 93.197 97.3824 93.0195 97.2049L91.8831 96.0686C91.7056 95.8911 91.7056 95.6033 91.8831 95.4257L93.0195 94.2894C93.197 94.1119 93.4848 94.1119 93.6623 94.2894ZM94.8377 94.2894C95.0152 94.1119 95.303 94.1119 95.4805 94.2894L96.6169 95.4257C96.7944 95.6033 96.7944 95.8911 96.6169 96.0686L95.4805 97.2049C95.303 97.3824 95.0152 97.3824 94.8377 97.2049C94.6602 97.0274 94.6602 96.7396 94.8377 96.5621L95.6526 95.7472L94.8377 94.9322C94.6602 94.7547 94.6602 94.4669 94.8377 94.2894Z" fill="#1E1F24"/>
</g>
<path d="M112.916 92.012H108.842L108.142 94H106.476L109.962 84.256H111.81L115.296 94H113.616L112.916 92.012ZM112.468 90.71L110.886 86.188L109.29 90.71H112.468ZM120.704 86.16C121.31 86.16 121.852 86.286 122.328 86.538C122.813 86.79 123.191 87.1633 123.462 87.658C123.732 88.1527 123.868 88.75 123.868 89.45V94H122.286V89.688C122.286 88.9973 122.113 88.47 121.768 88.106C121.422 87.7327 120.951 87.546 120.354 87.546C119.756 87.546 119.28 87.7327 118.926 88.106C118.58 88.47 118.408 88.9973 118.408 89.688V94H116.812V86.286H118.408V87.168C118.669 86.8507 119 86.6033 119.402 86.426C119.812 86.2487 120.246 86.16 120.704 86.16ZM127.766 87.588V91.858C127.766 92.1473 127.831 92.3573 127.962 92.488C128.102 92.6093 128.335 92.67 128.662 92.67H129.642V94H128.382C127.663 94 127.112 93.832 126.73 93.496C126.347 93.16 126.156 92.614 126.156 91.858V87.588H125.246V86.286H126.156V84.368H127.766V86.286H129.642V87.588H127.766ZM131.925 85.264C131.635 85.264 131.393 85.166 131.197 84.97C131.001 84.774 130.903 84.5313 130.903 84.242C130.903 83.9527 131.001 83.71 131.197 83.514C131.393 83.318 131.635 83.22 131.925 83.22C132.205 83.22 132.443 83.318 132.639 83.514C132.835 83.71 132.933 83.9527 132.933 84.242C132.933 84.5313 132.835 84.774 132.639 84.97C132.443 85.166 132.205 85.264 131.925 85.264ZM132.709 86.286V94H131.113V86.286H132.709ZM140.726 88.26V89.604H134.972V88.26H140.726ZM146.171 84.27C147.207 84.27 148.113 84.4707 148.887 84.872C149.671 85.264 150.273 85.8333 150.693 86.58C151.123 87.3173 151.337 88.1807 151.337 89.17C151.337 90.1593 151.123 91.018 150.693 91.746C150.273 92.474 149.671 93.034 148.887 93.426C148.113 93.8087 147.207 94 146.171 94H142.993V84.27H146.171ZM146.171 92.698C147.31 92.698 148.183 92.39 148.789 91.774C149.396 91.158 149.699 90.29 149.699 89.17C149.699 88.0407 149.396 87.1587 148.789 86.524C148.183 85.8893 147.31 85.572 146.171 85.572H144.589V92.698H146.171ZM159.989 89.954C159.989 90.2433 159.97 90.5047 159.933 90.738H154.039C154.086 91.354 154.314 91.8487 154.725 92.222C155.136 92.5953 155.64 92.782 156.237 92.782C157.096 92.782 157.702 92.4227 158.057 91.704H159.779C159.546 92.4133 159.121 92.9967 158.505 93.454C157.898 93.902 157.142 94.126 156.237 94.126C155.5 94.126 154.837 93.9627 154.249 93.636C153.67 93.3 153.213 92.8333 152.877 92.236C152.55 91.6293 152.387 90.9293 152.387 90.136C152.387 89.3427 152.546 88.6473 152.863 88.05C153.19 87.4433 153.642 86.9767 154.221 86.65C154.809 86.3233 155.481 86.16 156.237 86.16C156.965 86.16 157.614 86.3187 158.183 86.636C158.752 86.9533 159.196 87.4013 159.513 87.98C159.83 88.5493 159.989 89.2073 159.989 89.954ZM158.323 89.45C158.314 88.862 158.104 88.3907 157.693 88.036C157.282 87.6813 156.774 87.504 156.167 87.504C155.616 87.504 155.145 87.6813 154.753 88.036C154.361 88.3813 154.128 88.8527 154.053 89.45H158.323ZM163.422 87.588V91.858C163.422 92.1473 163.487 92.3573 163.618 92.488C163.758 92.6093 163.991 92.67 164.318 92.67H165.298V94H164.038C163.319 94 162.768 93.832 162.386 93.496C162.003 93.16 161.812 92.614 161.812 91.858V87.588H160.902V86.286H161.812V84.368H163.422V86.286H165.298V87.588H163.422ZM173.839 89.954C173.839 90.2433 173.82 90.5047 173.783 90.738H167.889C167.935 91.354 168.164 91.8487 168.575 92.222C168.985 92.5953 169.489 92.782 170.087 92.782C170.945 92.782 171.552 92.4227 171.907 91.704H173.629C173.395 92.4133 172.971 92.9967 172.355 93.454C171.748 93.902 170.992 94.126 170.087 94.126C169.349 94.126 168.687 93.9627 168.099 93.636C167.52 93.3 167.063 92.8333 166.727 92.236C166.4 91.6293 166.237 90.9293 166.237 90.136C166.237 89.3427 166.395 88.6473 166.713 88.05C167.039 87.4433 167.492 86.9767 168.071 86.65C168.659 86.3233 169.331 86.16 170.087 86.16C170.815 86.16 171.463 86.3187 172.033 86.636C172.602 86.9533 173.045 87.4013 173.363 87.98C173.68 88.5493 173.839 89.2073 173.839 89.954ZM172.173 89.45C172.163 88.862 171.953 88.3907 171.543 88.036C171.132 87.6813 170.623 87.504 170.017 87.504C169.466 87.504 168.995 87.6813 168.603 88.036C168.211 88.3813 167.977 88.8527 167.903 89.45H172.173ZM174.877 90.136C174.877 89.3427 175.036 88.6473 175.353 88.05C175.68 87.4433 176.128 86.9767 176.697 86.65C177.267 86.3233 177.92 86.16 178.657 86.16C179.591 86.16 180.361 86.384 180.967 86.832C181.583 87.2707 181.999 87.9007 182.213 88.722H180.491C180.351 88.3393 180.127 88.0407 179.819 87.826C179.511 87.6113 179.124 87.504 178.657 87.504C178.004 87.504 177.481 87.7373 177.089 88.204C176.707 88.6613 176.515 89.3053 176.515 90.136C176.515 90.9667 176.707 91.6153 177.089 92.082C177.481 92.5487 178.004 92.782 178.657 92.782C179.581 92.782 180.193 92.376 180.491 91.564H182.213C181.989 92.348 181.569 92.9733 180.953 93.44C180.337 93.8973 179.572 94.126 178.657 94.126C177.92 94.126 177.267 93.9627 176.697 93.636C176.128 93.3 175.68 92.8333 175.353 92.236C175.036 91.6293 174.877 90.9293 174.877 90.136ZM185.666 87.588V91.858C185.666 92.1473 185.731 92.3573 185.862 92.488C186.002 92.6093 186.235 92.67 186.562 92.67H187.542V94H186.282C185.563 94 185.013 93.832 184.63 93.496C184.247 93.16 184.056 92.614 184.056 91.858V87.588H183.146V86.286H184.056V84.368H185.666V86.286H187.542V87.588H185.666ZM189.825 85.264C189.536 85.264 189.293 85.166 189.097 84.97C188.901 84.774 188.803 84.5313 188.803 84.242C188.803 83.9527 188.901 83.71 189.097 83.514C189.293 83.318 189.536 83.22 189.825 83.22C190.105 83.22 190.343 83.318 190.539 83.514C190.735 83.71 190.833 83.9527 190.833 84.242C190.833 84.5313 190.735 84.774 190.539 84.97C190.343 85.166 190.105 85.264 189.825 85.264ZM190.609 86.286V94H189.013V86.286H190.609ZM196.05 94.126C195.322 94.126 194.664 93.9627 194.076 93.636C193.488 93.3 193.026 92.8333 192.69 92.236C192.354 91.6293 192.186 90.9293 192.186 90.136C192.186 89.352 192.359 88.6567 192.704 88.05C193.05 87.4433 193.521 86.9767 194.118 86.65C194.716 86.3233 195.383 86.16 196.12 86.16C196.858 86.16 197.525 86.3233 198.122 86.65C198.72 86.9767 199.191 87.4433 199.536 88.05C199.882 88.6567 200.054 89.352 200.054 90.136C200.054 90.92 199.877 91.6153 199.522 92.222C199.168 92.8287 198.682 93.3 198.066 93.636C197.46 93.9627 196.788 94.126 196.05 94.126ZM196.05 92.74C196.461 92.74 196.844 92.642 197.198 92.446C197.562 92.25 197.856 91.956 198.08 91.564C198.304 91.172 198.416 90.696 198.416 90.136C198.416 89.576 198.309 89.1047 198.094 88.722C197.88 88.33 197.595 88.036 197.24 87.84C196.886 87.644 196.503 87.546 196.092 87.546C195.682 87.546 195.299 87.644 194.944 87.84C194.599 88.036 194.324 88.33 194.118 88.722C193.913 89.1047 193.81 89.576 193.81 90.136C193.81 90.9667 194.02 91.6107 194.44 92.068C194.87 92.516 195.406 92.74 196.05 92.74ZM205.524 86.16C206.131 86.16 206.672 86.286 207.148 86.538C207.633 86.79 208.011 87.1633 208.282 87.658C208.553 88.1527 208.688 88.75 208.688 89.45V94H207.106V89.688C207.106 88.9973 206.933 88.47 206.588 88.106C206.243 87.7327 205.771 87.546 205.174 87.546C204.577 87.546 204.101 87.7327 203.746 88.106C203.401 88.47 203.228 88.9973 203.228 89.688V94H201.632V86.286H203.228V87.168C203.489 86.8507 203.821 86.6033 204.222 86.426C204.633 86.2487 205.067 86.16 205.524 86.16ZM219.569 89.002C220.091 89.0953 220.535 89.3707 220.899 89.828C221.263 90.2853 221.445 90.8033 221.445 91.382C221.445 91.8767 221.314 92.3247 221.053 92.726C220.801 93.118 220.432 93.4307 219.947 93.664C219.461 93.888 218.897 94 218.253 94H214.361V84.27H218.071C218.733 84.27 219.303 84.382 219.779 84.606C220.255 84.83 220.614 85.1333 220.857 85.516C221.099 85.8893 221.221 86.3093 221.221 86.776C221.221 87.336 221.071 87.8027 220.773 88.176C220.474 88.5493 220.073 88.8247 219.569 89.002ZM215.957 88.358H217.931C218.453 88.358 218.859 88.2413 219.149 88.008C219.447 87.7653 219.597 87.42 219.597 86.972C219.597 86.5333 219.447 86.1927 219.149 85.95C218.859 85.698 218.453 85.572 217.931 85.572H215.957V88.358ZM218.113 92.698C218.654 92.698 219.079 92.5673 219.387 92.306C219.695 92.0447 219.849 91.6807 219.849 91.214C219.849 90.738 219.685 90.36 219.359 90.08C219.032 89.8 218.598 89.66 218.057 89.66H215.957V92.698H218.113ZM226.525 94.126C225.797 94.126 225.139 93.9627 224.551 93.636C223.963 93.3 223.501 92.8333 223.165 92.236C222.829 91.6293 222.661 90.9293 222.661 90.136C222.661 89.352 222.834 88.6567 223.179 88.05C223.524 87.4433 223.996 86.9767 224.593 86.65C225.19 86.3233 225.858 86.16 226.595 86.16C227.332 86.16 228 86.3233 228.597 86.65C229.194 86.9767 229.666 87.4433 230.011 88.05C230.356 88.6567 230.529 89.352 230.529 90.136C230.529 90.92 230.352 91.6153 229.997 92.222C229.642 92.8287 229.157 93.3 228.541 93.636C227.934 93.9627 227.262 94.126 226.525 94.126ZM226.525 92.74C226.936 92.74 227.318 92.642 227.673 92.446C228.037 92.25 228.331 91.956 228.555 91.564C228.779 91.172 228.891 90.696 228.891 90.136C228.891 89.576 228.784 89.1047 228.569 88.722C228.354 88.33 228.07 88.036 227.715 87.84C227.36 87.644 226.978 87.546 226.567 87.546C226.156 87.546 225.774 87.644 225.419 87.84C225.074 88.036 224.798 88.33 224.593 88.722C224.388 89.1047 224.285 89.576 224.285 90.136C224.285 90.9667 224.495 91.6107 224.915 92.068C225.344 92.516 225.881 92.74 226.525 92.74ZM233.969 87.588V91.858C233.969 92.1473 234.034 92.3573 234.165 92.488C234.305 92.6093 234.538 92.67 234.865 92.67H235.845V94H234.585C233.866 94 233.315 93.832 232.933 93.496C232.55 93.16 232.359 92.614 232.359 91.858V87.588H231.449V86.286H232.359V84.368H233.969V86.286H235.845V87.588H233.969Z" fill="#1E1F24"/>
<rect x="78" y="108" width="402" height="16" rx="2" fill="#646AEE"/>
<path d="M499.232 118.832C499.339 119.365 499.568 119.771 499.92 120.048C500.272 120.325 500.747 120.464 501.344 120.464C502.101 120.464 502.656 120.165 503.008 119.568C503.36 118.971 503.536 117.952 503.536 116.512C503.28 116.875 502.917 117.157 502.448 117.36C501.989 117.552 501.488 117.648 500.944 117.648C500.251 117.648 499.621 117.509 499.056 117.232C498.491 116.944 498.043 116.523 497.712 115.968C497.392 115.403 497.232 114.72 497.232 113.92C497.232 112.747 497.573 111.813 498.256 111.12C498.949 110.416 499.899 110.064 501.104 110.064C502.555 110.064 503.584 110.549 504.192 111.52C504.811 112.48 505.12 113.957 505.12 115.952C505.12 117.328 505.003 118.453 504.768 119.328C504.544 120.203 504.149 120.864 503.584 121.312C503.019 121.76 502.235 121.984 501.232 121.984C500.091 121.984 499.211 121.685 498.592 121.088C497.973 120.491 497.627 119.739 497.552 118.832H499.232ZM501.264 116.112C501.904 116.112 502.405 115.915 502.768 115.52C503.141 115.115 503.328 114.581 503.328 113.92C503.328 113.184 503.131 112.613 502.736 112.208C502.352 111.792 501.824 111.584 501.152 111.584C500.48 111.584 499.947 111.797 499.552 112.224C499.168 112.64 498.976 113.189 498.976 113.872C498.976 114.523 499.163 115.061 499.536 115.488C499.92 115.904 500.496 116.112 501.264 116.112ZM509.388 118.832C509.495 119.365 509.724 119.771 510.076 120.048C510.428 120.325 510.903 120.464 511.5 120.464C512.258 120.464 512.812 120.165 513.164 119.568C513.516 118.971 513.692 117.952 513.692 116.512C513.436 116.875 513.074 117.157 512.604 117.36C512.146 117.552 511.644 117.648 511.1 117.648C510.407 117.648 509.778 117.509 509.212 117.232C508.647 116.944 508.199 116.523 507.868 115.968C507.548 115.403 507.388 114.72 507.388 113.92C507.388 112.747 507.73 111.813 508.412 111.12C509.106 110.416 510.055 110.064 511.26 110.064C512.711 110.064 513.74 110.549 514.348 111.52C514.967 112.48 515.276 113.957 515.276 115.952C515.276 117.328 515.159 118.453 514.924 119.328C514.7 120.203 514.306 120.864 513.74 121.312C513.175 121.76 512.391 121.984 511.388 121.984C510.247 121.984 509.367 121.685 508.748 121.088C508.13 120.491 507.783 119.739 507.708 118.832H509.388ZM511.42 116.112C512.06 116.112 512.562 115.915 512.924 115.52C513.298 115.115 513.484 114.581 513.484 113.92C513.484 113.184 513.287 112.613 512.892 112.208C512.508 111.792 511.98 111.584 511.308 111.584C510.636 111.584 510.103 111.797 509.708 112.224C509.324 112.64 509.132 113.189 509.132 113.872C509.132 114.523 509.319 115.061 509.692 115.488C510.076 115.904 510.652 116.112 511.42 116.112ZM516.985 113.152C516.985 112.373 517.209 111.765 517.657 111.328C518.115 110.88 518.702 110.656 519.417 110.656C520.131 110.656 520.713 110.88 521.161 111.328C521.619 111.765 521.849 112.373 521.849 113.152C521.849 113.931 521.619 114.544 521.161 114.992C520.713 115.44 520.131 115.664 519.417 115.664C518.702 115.664 518.115 115.44 517.657 114.992C517.209 114.544 516.985 113.931 516.985 113.152ZM526.745 110.864L520.361 122H518.569L524.953 110.864H526.745ZM519.417 111.76C518.745 111.76 518.409 112.224 518.409 113.152C518.409 114.091 518.745 114.56 519.417 114.56C519.737 114.56 519.982 114.448 520.153 114.224C520.334 113.989 520.424 113.632 520.424 113.152C520.424 112.224 520.089 111.76 519.417 111.76ZM523.497 119.696C523.497 118.917 523.721 118.309 524.169 117.872C524.627 117.424 525.214 117.2 525.929 117.2C526.633 117.2 527.209 117.424 527.657 117.872C528.115 118.309 528.345 118.917 528.345 119.696C528.345 120.475 528.115 121.088 527.657 121.536C527.209 121.984 526.633 122.208 525.929 122.208C525.214 122.208 524.627 121.984 524.169 121.536C523.721 121.088 523.497 120.475 523.497 119.696ZM525.913 118.304C525.241 118.304 524.905 118.768 524.905 119.696C524.905 120.624 525.241 121.088 525.913 121.088C526.585 121.088 526.921 120.624 526.921 119.696C526.921 118.768 526.585 118.304 525.913 118.304Z" fill="#646AEE"/>
</g>
<rect x="518" y="43" width="48" height="48" rx="24" fill="#2ECC9C"/>
<path d="M550.727 61L538.727 73L533.273 67.5455" stroke="white" stroke-width="4" stroke-linecap="square"/>
<rect x="54.5" y="192.5" width="499" height="96" rx="11.5" fill="#FDFDFF"/>
<rect x="54.5" y="192.5" width="499" height="96" rx="11.5" stroke="#C5CFFF"/>
<path fill-rule="evenodd" clip-rule="evenodd" d="M84.069 218.25H91.931C92.5347 218.25 93.033 218.25 93.4389 218.283C93.8604 218.318 94.248 218.392 94.612 218.577C95.1765 218.865 95.6354 219.324 95.923 219.888C96.1085 220.252 96.1824 220.64 96.2169 221.061C96.25 221.467 96.25 221.965 96.25 222.569V230.431C96.25 231.035 96.25 231.533 96.2169 231.939C96.1824 232.36 96.1085 232.748 95.923 233.112C95.6354 233.676 95.1765 234.135 94.612 234.423C94.4846 234.488 94.3535 234.54 94.2175 234.581C93.6571 234.751 92.9458 234.75 92.0246 234.75C91.9835 234.75 91.9419 234.75 91.9 234.75H84.1C84.0581 234.75 84.0165 234.75 83.9754 234.75C83.0542 234.75 82.3429 234.751 81.7825 234.581C81.6465 234.54 81.5154 234.488 81.388 234.423C80.8235 234.135 80.3646 233.676 80.077 233.112C79.8915 232.748 79.8176 232.36 79.7831 231.939C79.75 231.533 79.75 231.035 79.75 230.431V222.569C79.75 221.965 79.75 221.467 79.7831 221.061C79.8176 220.64 79.8915 220.252 80.077 219.888C80.3646 219.324 80.8235 218.865 81.388 218.577C81.752 218.392 82.1396 218.318 82.5611 218.283C82.967 218.25 83.4653 218.25 84.069 218.25ZM82.6833 219.778C82.3545 219.805 82.1863 219.854 82.069 219.913C81.7868 220.057 81.5573 220.287 81.4135 220.569C81.3537 220.686 81.305 220.854 81.2782 221.183C81.2506 221.521 81.25 221.958 81.25 222.6V230.4C81.25 231.042 81.2506 231.479 81.2782 231.817C81.2977 232.055 81.3286 232.209 81.367 232.321C81.7228 230.928 82.8474 229.855 84.2684 229.572C84.632 229.5 85.05 229.5 85.6632 229.5C85.6917 229.5 85.7206 229.5 85.75 229.5H90.25C90.2794 229.5 90.3083 229.5 90.3368 229.5C90.95 229.5 91.368 229.5 91.7316 229.572C93.1526 229.855 94.2772 230.928 94.633 232.321C94.6714 232.209 94.7023 232.055 94.7218 231.817C94.7494 231.479 94.75 231.042 94.75 230.4V222.6C94.75 221.958 94.7494 221.521 94.7218 221.183C94.695 220.854 94.6463 220.686 94.5865 220.569C94.4427 220.287 94.2132 220.057 93.931 219.913C93.8137 219.854 93.6455 219.805 93.3167 219.778C92.9792 219.751 92.5424 219.75 91.9 219.75H84.1C83.4576 219.75 83.0208 219.751 82.6833 219.778ZM84.25 224.625C84.25 222.554 85.9289 220.875 88 220.875C90.0711 220.875 91.75 222.554 91.75 224.625C91.75 226.696 90.0711 228.375 88 228.375C85.9289 228.375 84.25 226.696 84.25 224.625Z" fill="#1E1F24"/>
<path d="M114.82 221.27V231H113.224V226.744H108.646V231H107.05V221.27H108.646V225.442H113.224V221.27H114.82ZM123.907 223.286V231H122.311V230.09C122.059 230.407 121.728 230.659 121.317 230.846C120.916 231.023 120.486 231.112 120.029 231.112C119.422 231.112 118.876 230.986 118.391 230.734C117.915 230.482 117.537 230.109 117.257 229.614C116.986 229.119 116.851 228.522 116.851 227.822V223.286H118.433V227.584C118.433 228.275 118.606 228.807 118.951 229.18C119.296 229.544 119.768 229.726 120.365 229.726C120.962 229.726 121.434 229.544 121.779 229.18C122.134 228.807 122.311 228.275 122.311 227.584V223.286H123.907ZM135.351 223.16C135.958 223.16 136.499 223.286 136.975 223.538C137.46 223.79 137.838 224.163 138.109 224.658C138.389 225.153 138.529 225.75 138.529 226.45V231H136.947V226.688C136.947 225.997 136.774 225.47 136.429 225.106C136.084 224.733 135.612 224.546 135.015 224.546C134.418 224.546 133.942 224.733 133.587 225.106C133.242 225.47 133.069 225.997 133.069 226.688V231H131.487V226.688C131.487 225.997 131.314 225.47 130.969 225.106C130.624 224.733 130.152 224.546 129.555 224.546C128.958 224.546 128.482 224.733 128.127 225.106C127.782 225.47 127.609 225.997 127.609 226.688V231H126.013V223.286H127.609V224.168C127.87 223.851 128.202 223.603 128.603 223.426C129.004 223.249 129.434 223.16 129.891 223.16C130.507 223.16 131.058 223.291 131.543 223.552C132.028 223.813 132.402 224.191 132.663 224.686C132.896 224.219 133.26 223.851 133.755 223.58C134.25 223.3 134.782 223.16 135.351 223.16ZM140.028 227.108C140.028 226.333 140.186 225.647 140.504 225.05C140.83 224.453 141.269 223.991 141.82 223.664C142.38 223.328 142.996 223.16 143.668 223.16C144.274 223.16 144.802 223.281 145.25 223.524C145.707 223.757 146.071 224.051 146.342 224.406V223.286H147.952V231H146.342V229.852C146.071 230.216 145.702 230.519 145.236 230.762C144.769 231.005 144.237 231.126 143.64 231.126C142.977 231.126 142.37 230.958 141.82 230.622C141.269 230.277 140.83 229.801 140.504 229.194C140.186 228.578 140.028 227.883 140.028 227.108ZM146.342 227.136C146.342 226.604 146.23 226.142 146.006 225.75C145.791 225.358 145.506 225.059 145.152 224.854C144.797 224.649 144.414 224.546 144.004 224.546C143.593 224.546 143.21 224.649 142.856 224.854C142.501 225.05 142.212 225.344 141.988 225.736C141.773 226.119 141.666 226.576 141.666 227.108C141.666 227.64 141.773 228.107 141.988 228.508C142.212 228.909 142.501 229.217 142.856 229.432C143.22 229.637 143.602 229.74 144.004 229.74C144.414 229.74 144.797 229.637 145.152 229.432C145.506 229.227 145.791 228.928 146.006 228.536C146.23 228.135 146.342 227.668 146.342 227.136ZM153.94 223.16C154.547 223.16 155.088 223.286 155.564 223.538C156.049 223.79 156.427 224.163 156.698 224.658C156.969 225.153 157.104 225.75 157.104 226.45V231H155.522V226.688C155.522 225.997 155.349 225.47 155.004 225.106C154.659 224.733 154.187 224.546 153.59 224.546C152.993 224.546 152.517 224.733 152.162 225.106C151.817 225.47 151.644 225.997 151.644 226.688V231H150.048V223.286H151.644V224.168C151.905 223.851 152.237 223.603 152.638 223.426C153.049 223.249 153.483 223.16 153.94 223.16Z" fill="#1E1F24"/>
<rect x="78" y="245" width="403" height="16" rx="2" fill="#E3E8FF"/>
<rect x="78" y="245" width="80.6" height="16" rx="2" fill="#646AEE"/>
<path d="M498.968 256.52C499.992 255.635 500.797 254.909 501.384 254.344C501.981 253.768 502.477 253.171 502.872 252.552C503.267 251.933 503.464 251.315 503.464 250.696C503.464 250.056 503.309 249.555 503 249.192C502.701 248.829 502.227 248.648 501.576 248.648C500.947 248.648 500.456 248.851 500.104 249.256C499.763 249.651 499.581 250.184 499.56 250.856H497.8C497.832 249.64 498.195 248.712 498.888 248.072C499.592 247.421 500.483 247.096 501.56 247.096C502.723 247.096 503.629 247.416 504.28 248.056C504.941 248.696 505.272 249.549 505.272 250.616C505.272 251.384 505.075 252.125 504.68 252.84C504.296 253.544 503.832 254.179 503.288 254.744C502.755 255.299 502.072 255.944 501.24 256.68L500.52 257.32H505.592V258.84H497.816V257.512L498.968 256.52ZM507.194 253.016C507.194 251.171 507.504 249.731 508.122 248.696C508.752 247.651 509.829 247.128 511.354 247.128C512.88 247.128 513.952 247.651 514.57 248.696C515.2 249.731 515.514 251.171 515.514 253.016C515.514 254.883 515.2 256.344 514.57 257.4C513.952 258.445 512.88 258.968 511.354 258.968C509.829 258.968 508.752 258.445 508.122 257.4C507.504 256.344 507.194 254.883 507.194 253.016ZM513.722 253.016C513.722 252.152 513.664 251.421 513.546 250.824C513.44 250.227 513.216 249.741 512.874 249.368C512.533 248.984 512.026 248.792 511.354 248.792C510.682 248.792 510.176 248.984 509.834 249.368C509.493 249.741 509.264 250.227 509.146 250.824C509.04 251.421 508.986 252.152 508.986 253.016C508.986 253.912 509.04 254.664 509.146 255.272C509.253 255.88 509.477 256.371 509.818 256.744C510.17 257.117 510.682 257.304 511.354 257.304C512.026 257.304 512.533 257.117 512.874 256.744C513.226 256.371 513.456 255.88 513.562 255.272C513.669 254.664 513.722 253.912 513.722 253.016ZM517.156 250.152C517.156 249.373 517.38 248.765 517.828 248.328C518.287 247.88 518.874 247.656 519.588 247.656C520.303 247.656 520.884 247.88 521.332 248.328C521.791 248.765 522.02 249.373 522.02 250.152C522.02 250.931 521.791 251.544 521.332 251.992C520.884 252.44 520.303 252.664 519.588 252.664C518.874 252.664 518.287 252.44 517.828 251.992C517.38 251.544 517.156 250.931 517.156 250.152ZM526.916 247.864L520.532 259H518.74L525.124 247.864H526.916ZM519.588 248.76C518.916 248.76 518.58 249.224 518.58 250.152C518.58 251.091 518.916 251.56 519.588 251.56C519.908 251.56 520.154 251.448 520.324 251.224C520.506 250.989 520.596 250.632 520.596 250.152C520.596 249.224 520.26 248.76 519.588 248.76ZM523.668 256.696C523.668 255.917 523.892 255.309 524.34 254.872C524.799 254.424 525.386 254.2 526.1 254.2C526.804 254.2 527.38 254.424 527.828 254.872C528.287 255.309 528.516 255.917 528.516 256.696C528.516 257.475 528.287 258.088 527.828 258.536C527.38 258.984 526.804 259.208 526.1 259.208C525.386 259.208 524.799 258.984 524.34 258.536C523.892 258.088 523.668 257.475 523.668 256.696ZM526.084 255.304C525.412 255.304 525.076 255.768 525.076 256.696C525.076 257.624 525.412 258.088 526.084 258.088C526.756 258.088 527.092 257.624 527.092 256.696C527.092 255.768 526.756 255.304 526.084 255.304Z" fill="#646AEE"/>
<defs>
<filter id="filter0_d_1058_32775" x="54" y="55" width="500" height="101" filterUnits="userSpaceOnUse" color-interpolation-filters="sRGB">
<feFlood flood-opacity="0" result="BackgroundImageFix"/>
<feColorMatrix in="SourceAlpha" type="matrix" values="0 0 0 0 0 0 0 0 0 0 0 0 0 0 0 0 0 0 127 0" result="hardAlpha"/>
<feOffset dy="4"/>
<feComposite in2="hardAlpha" operator="out"/>
<feColorMatrix type="matrix" values="0 0 0 0 0.772549 0 0 0 0 0.811765 0 0 0 0 1 0 0 0 1 0"/>
<feBlend mode="normal" in2="BackgroundImageFix" result="effect1_dropShadow_1058_32775"/>
<feBlend mode="normal" in="SourceGraphic" in2="effect1_dropShadow_1058_32775" result="shape"/>
</filter>
<clipPath id="clip0_1058_32775">
<rect width="20" height="20" fill="white" transform="translate(78 79.5)"/>
</clipPath>
</defs>
</svg>
