<svg width="608" height="340" viewBox="0 0 608 340" fill="none" xmlns="http://www.w3.org/2000/svg">
<rect width="608" height="340" rx="16" fill="#FEF7ED"/>
<g filter="url(#filter0_d_1058_32615)">
<rect x="134" y="40" width="340" height="76" rx="12" fill="#FFFEFD" shape-rendering="crispEdges"/>
<rect x="134.5" y="40.5" width="339" height="75" rx="11.5" stroke="#FFD9A7" shape-rendering="crispEdges"/>
<path fill-rule="evenodd" clip-rule="evenodd" d="M174 63.3333C167.373 63.3333 162 68.7059 162 75.3333C162 78.7016 163.529 81.6537 165.61 84.356C167.349 86.6142 169.575 88.8208 171.799 91.0251L171.8 91.0261C172.22 91.4427 172.64 91.8593 173.057 92.2762C173.578 92.7969 174.422 92.7969 174.943 92.2762C175.36 91.859 175.78 91.4421 176.201 91.0252C178.425 88.8208 180.651 86.6142 182.39 84.356C184.471 81.6537 186 78.7016 186 75.3333C186 68.7059 180.627 63.3333 174 63.3333ZM174 79.3333C176.209 79.3333 178 77.5425 178 75.3333C178 73.1242 176.209 71.3333 174 71.3333C171.791 71.3333 170 73.1242 170 75.3333C170 77.5425 171.791 79.3333 174 79.3333Z" fill="#FA8525"/>
<path d="M209.904 67.728H205.248L204.448 70H202.544L206.528 58.864H208.64L212.624 70H210.704L209.904 67.728ZM209.392 66.24L207.584 61.072L205.76 66.24H209.392ZM222.34 61.184V70H220.516V68.96C220.228 69.3227 219.85 69.6107 219.38 69.824C218.922 70.0267 218.431 70.128 217.908 70.128C217.215 70.128 216.591 69.984 216.036 69.696C215.492 69.408 215.06 68.9813 214.74 68.416C214.431 67.8507 214.276 67.168 214.276 66.368V61.184H216.084V66.096C216.084 66.8853 216.282 67.4933 216.676 67.92C217.071 68.336 217.61 68.544 218.292 68.544C218.975 68.544 219.514 68.336 219.908 67.92C220.314 67.4933 220.516 66.8853 220.516 66.096V61.184H222.34ZM226.875 62.672V67.552C226.875 67.8827 226.95 68.1227 227.099 68.272C227.259 68.4107 227.526 68.48 227.899 68.48H229.019V70H227.579C226.758 70 226.128 69.808 225.691 69.424C225.254 69.04 225.035 68.416 225.035 67.552V62.672H223.995V61.184H225.035V58.992H226.875V61.184H229.019V62.672H226.875ZM234.524 70.144C233.692 70.144 232.94 69.9573 232.268 69.584C231.596 69.2 231.068 68.6667 230.684 67.984C230.3 67.2907 230.108 66.4907 230.108 65.584C230.108 64.688 230.305 63.8933 230.7 63.2C231.095 62.5067 231.633 61.9733 232.316 61.6C232.999 61.2267 233.761 61.04 234.604 61.04C235.447 61.04 236.209 61.2267 236.892 61.6C237.575 61.9733 238.113 62.5067 238.508 63.2C238.903 63.8933 239.1 64.688 239.1 65.584C239.1 66.48 238.897 67.2747 238.492 67.968C238.087 68.6613 237.532 69.2 236.828 69.584C236.135 69.9573 235.367 70.144 234.524 70.144ZM234.524 68.56C234.993 68.56 235.431 68.448 235.836 68.224C236.252 68 236.588 67.664 236.844 67.216C237.1 66.768 237.228 66.224 237.228 65.584C237.228 64.944 237.105 64.4053 236.86 63.968C236.615 63.52 236.289 63.184 235.884 62.96C235.479 62.736 235.041 62.624 234.572 62.624C234.103 62.624 233.665 62.736 233.26 62.96C232.865 63.184 232.551 63.52 232.316 63.968C232.081 64.4053 231.964 64.944 231.964 65.584C231.964 66.5333 232.204 67.2693 232.684 67.792C233.175 68.304 233.788 68.56 234.524 68.56ZM251.575 61.04C252.268 61.04 252.887 61.184 253.431 61.472C253.986 61.76 254.418 62.1867 254.727 62.752C255.047 63.3173 255.207 64 255.207 64.8V70H253.399V65.072C253.399 64.2827 253.202 63.68 252.807 63.264C252.412 62.8373 251.874 62.624 251.191 62.624C250.508 62.624 249.964 62.8373 249.559 63.264C249.164 63.68 248.967 64.2827 248.967 65.072V70H247.159V65.072C247.159 64.2827 246.962 63.68 246.567 63.264C246.172 62.8373 245.634 62.624 244.951 62.624C244.268 62.624 243.724 62.8373 243.319 63.264C242.924 63.68 242.727 64.2827 242.727 65.072V70H240.903V61.184H242.727V62.192C243.026 61.8293 243.404 61.5467 243.863 61.344C244.322 61.1413 244.812 61.04 245.335 61.04C246.039 61.04 246.668 61.1893 247.223 61.488C247.778 61.7867 248.204 62.2187 248.503 62.784C248.77 62.2507 249.186 61.8293 249.751 61.52C250.316 61.2 250.924 61.04 251.575 61.04ZM256.92 65.552C256.92 64.6667 257.101 63.8827 257.464 63.2C257.837 62.5173 258.339 61.9893 258.968 61.616C259.608 61.232 260.312 61.04 261.08 61.04C261.773 61.04 262.376 61.1787 262.888 61.456C263.411 61.7227 263.827 62.0587 264.136 62.464V61.184H265.976V70H264.136V68.688C263.827 69.104 263.405 69.4507 262.872 69.728C262.339 70.0053 261.731 70.144 261.048 70.144C260.291 70.144 259.597 69.952 258.968 69.568C258.339 69.1733 257.837 68.6293 257.464 67.936C257.101 67.232 256.92 66.4373 256.92 65.552ZM264.136 65.584C264.136 64.976 264.008 64.448 263.752 64C263.507 63.552 263.181 63.2107 262.776 62.976C262.371 62.7413 261.933 62.624 261.464 62.624C260.995 62.624 260.557 62.7413 260.152 62.976C259.747 63.2 259.416 63.536 259.16 63.984C258.915 64.4213 258.792 64.944 258.792 65.552C258.792 66.16 258.915 66.6933 259.16 67.152C259.416 67.6107 259.747 67.9627 260.152 68.208C260.568 68.4427 261.005 68.56 261.464 68.56C261.933 68.56 262.371 68.4427 262.776 68.208C263.181 67.9733 263.507 67.632 263.752 67.184C264.008 66.7253 264.136 66.192 264.136 65.584ZM270.5 62.672V67.552C270.5 67.8827 270.575 68.1227 270.724 68.272C270.884 68.4107 271.151 68.48 271.524 68.48H272.644V70H271.204C270.383 70 269.753 69.808 269.316 69.424C268.879 69.04 268.66 68.416 268.66 67.552V62.672H267.62V61.184H268.66V58.992H270.5V61.184H272.644V62.672H270.5ZM275.253 60.016C274.922 60.016 274.645 59.904 274.421 59.68C274.197 59.456 274.085 59.1787 274.085 58.848C274.085 58.5173 274.197 58.24 274.421 58.016C274.645 57.792 274.922 57.68 275.253 57.68C275.573 57.68 275.845 57.792 276.069 58.016C276.293 58.24 276.405 58.5173 276.405 58.848C276.405 59.1787 276.293 59.456 276.069 59.68C275.845 59.904 275.573 60.016 275.253 60.016ZM276.149 61.184V70H274.325V61.184H276.149ZM277.936 65.584C277.936 64.6773 278.117 63.8827 278.48 63.2C278.853 62.5067 279.365 61.9733 280.016 61.6C280.666 61.2267 281.413 61.04 282.256 61.04C283.322 61.04 284.202 61.296 284.896 61.808C285.6 62.3093 286.074 63.0293 286.32 63.968H284.352C284.192 63.5307 283.936 63.1893 283.584 62.944C283.232 62.6987 282.789 62.576 282.256 62.576C281.509 62.576 280.912 62.8427 280.464 63.376C280.026 63.8987 279.808 64.6347 279.808 65.584C279.808 66.5333 280.026 67.2747 280.464 67.808C280.912 68.3413 281.509 68.608 282.256 68.608C283.312 68.608 284.01 68.144 284.352 67.216H286.32C286.064 68.112 285.584 68.8267 284.88 69.36C284.176 69.8827 283.301 70.144 282.256 70.144C281.413 70.144 280.666 69.9573 280.016 69.584C279.365 69.2 278.853 68.6667 278.48 67.984C278.117 67.2907 277.936 66.4907 277.936 65.584Z" fill="#62636C"/>
<path d="M213.56 86.36C213.56 87.1067 213.38 87.8067 213.02 88.46C212.673 89.1133 212.12 89.64 211.36 90.04C210.613 90.44 209.667 90.64 208.52 90.64H206.18V96H203.38V82.04H208.52C209.6 82.04 210.52 82.2267 211.28 82.6C212.04 82.9733 212.607 83.4867 212.98 84.14C213.367 84.7933 213.56 85.5333 213.56 86.36ZM208.4 88.38C209.173 88.38 209.747 88.2067 210.12 87.86C210.493 87.5 210.68 87 210.68 86.36C210.68 85 209.92 84.32 208.4 84.32H206.18V88.38H208.4ZM218.348 86.64C218.708 86.0533 219.175 85.5933 219.748 85.26C220.335 84.9267 221.001 84.76 221.748 84.76V87.7H221.008C220.128 87.7 219.461 87.9067 219.008 88.32C218.568 88.7333 218.348 89.4533 218.348 90.48V96H215.548V84.92H218.348V86.64ZM228.554 96.18C227.487 96.18 226.527 95.9467 225.674 95.48C224.821 95 224.147 94.3267 223.654 93.46C223.174 92.5933 222.934 91.5933 222.934 90.46C222.934 89.3267 223.181 88.3267 223.674 87.46C224.181 86.5933 224.867 85.9267 225.734 85.46C226.601 84.98 227.567 84.74 228.634 84.74C229.701 84.74 230.667 84.98 231.534 85.46C232.401 85.9267 233.081 86.5933 233.574 87.46C234.081 88.3267 234.334 89.3267 234.334 90.46C234.334 91.5933 234.074 92.5933 233.554 93.46C233.047 94.3267 232.354 95 231.474 95.48C230.607 95.9467 229.634 96.18 228.554 96.18ZM228.554 93.74C229.061 93.74 229.534 93.62 229.974 93.38C230.427 93.1267 230.787 92.7533 231.054 92.26C231.321 91.7667 231.454 91.1667 231.454 90.46C231.454 89.4067 231.174 88.6 230.614 88.04C230.067 87.4667 229.394 87.18 228.594 87.18C227.794 87.18 227.121 87.4667 226.574 88.04C226.041 88.6 225.774 89.4067 225.774 90.46C225.774 91.5133 226.034 92.3267 226.554 92.9C227.087 93.46 227.754 93.74 228.554 93.74ZM242.508 96L240.228 92.56L238.208 96H235.208L238.828 90.44L235.168 84.92H238.328L240.588 88.34L242.628 84.92H245.628L241.988 90.44L245.668 96H242.508ZM257.789 84.92L250.929 101.24H247.949L250.349 95.72L245.909 84.92H249.049L251.909 92.66L254.809 84.92H257.789ZM271.264 96L268.184 90.56H266.864V96H264.064V82.04H269.304C270.384 82.04 271.304 82.2333 272.064 82.62C272.824 82.9933 273.39 83.5067 273.764 84.16C274.15 84.8 274.344 85.52 274.344 86.32C274.344 87.24 274.077 88.0733 273.544 88.82C273.01 89.5533 272.217 90.06 271.164 90.34L274.504 96H271.264ZM266.864 88.46H269.204C269.964 88.46 270.53 88.28 270.904 87.92C271.277 87.5467 271.464 87.0333 271.464 86.38C271.464 85.74 271.277 85.2467 270.904 84.9C270.53 84.54 269.964 84.36 269.204 84.36H266.864V88.46ZM281.796 96.18C280.729 96.18 279.769 95.9467 278.916 95.48C278.063 95 277.389 94.3267 276.896 93.46C276.416 92.5933 276.176 91.5933 276.176 90.46C276.176 89.3267 276.423 88.3267 276.916 87.46C277.423 86.5933 278.109 85.9267 278.976 85.46C279.843 84.98 280.809 84.74 281.876 84.74C282.943 84.74 283.909 84.98 284.776 85.46C285.643 85.9267 286.323 86.5933 286.816 87.46C287.323 88.3267 287.576 89.3267 287.576 90.46C287.576 91.5933 287.316 92.5933 286.796 93.46C286.289 94.3267 285.596 95 284.716 95.48C283.849 95.9467 282.876 96.18 281.796 96.18ZM281.796 93.74C282.303 93.74 282.776 93.62 283.216 93.38C283.669 93.1267 284.029 92.7533 284.296 92.26C284.563 91.7667 284.696 91.1667 284.696 90.46C284.696 89.4067 284.416 88.6 283.856 88.04C283.309 87.4667 282.636 87.18 281.836 87.18C281.036 87.18 280.363 87.4667 279.816 88.04C279.283 88.6 279.016 89.4067 279.016 90.46C279.016 91.5133 279.276 92.3267 279.796 92.9C280.329 93.46 280.996 93.74 281.796 93.74ZM292.89 87.22V92.58C292.89 92.9533 292.977 93.2267 293.15 93.4C293.337 93.56 293.643 93.64 294.07 93.64H295.37V96H293.61C291.25 96 290.07 94.8533 290.07 92.56V87.22H288.75V84.92H290.07V82.18H292.89V84.92H295.37V87.22H292.89ZM296.664 90.42C296.664 89.3 296.884 88.3067 297.324 87.44C297.777 86.5733 298.384 85.9067 299.144 85.44C299.917 84.9733 300.777 84.74 301.724 84.74C302.551 84.74 303.271 84.9067 303.884 85.24C304.511 85.5733 305.011 85.9933 305.384 86.5V84.92H308.204V96H305.384V94.38C305.024 94.9 304.524 95.3333 303.884 95.68C303.257 96.0133 302.531 96.18 301.704 96.18C300.771 96.18 299.917 95.94 299.144 95.46C298.384 94.98 297.777 94.3067 297.324 93.44C296.884 92.56 296.664 91.5533 296.664 90.42ZM305.384 90.46C305.384 89.78 305.251 89.2 304.984 88.72C304.717 88.2267 304.357 87.8533 303.904 87.6C303.451 87.3333 302.964 87.2 302.444 87.2C301.924 87.2 301.444 87.3267 301.004 87.58C300.564 87.8333 300.204 88.2067 299.924 88.7C299.657 89.18 299.524 89.7533 299.524 90.42C299.524 91.0867 299.657 91.6733 299.924 92.18C300.204 92.6733 300.564 93.0533 301.004 93.32C301.457 93.5867 301.937 93.72 302.444 93.72C302.964 93.72 303.451 93.5933 303.904 93.34C304.357 93.0733 304.717 92.7 304.984 92.22C305.251 91.7267 305.384 91.14 305.384 90.46ZM314.199 87.22V92.58C314.199 92.9533 314.285 93.2267 314.459 93.4C314.645 93.56 314.952 93.64 315.379 93.64H316.679V96H314.919C312.559 96 311.379 94.8533 311.379 92.56V87.22H310.059V84.92H311.379V82.18H314.199V84.92H316.679V87.22H314.199ZM320.113 83.6C319.619 83.6 319.206 83.4467 318.873 83.14C318.553 82.82 318.393 82.4267 318.393 81.96C318.393 81.4933 318.553 81.1067 318.873 80.8C319.206 80.48 319.619 80.32 320.113 80.32C320.606 80.32 321.013 80.48 321.333 80.8C321.666 81.1067 321.833 81.4933 321.833 81.96C321.833 82.4267 321.666 82.82 321.333 83.14C321.013 83.4467 320.606 83.6 320.113 83.6ZM321.493 84.92V96H318.693V84.92H321.493ZM329.179 96.18C328.112 96.18 327.152 95.9467 326.299 95.48C325.446 95 324.772 94.3267 324.279 93.46C323.799 92.5933 323.559 91.5933 323.559 90.46C323.559 89.3267 323.806 88.3267 324.299 87.46C324.806 86.5933 325.492 85.9267 326.359 85.46C327.226 84.98 328.192 84.74 329.259 84.74C330.326 84.74 331.292 84.98 332.159 85.46C333.026 85.9267 333.706 86.5933 334.199 87.46C334.706 88.3267 334.959 89.3267 334.959 90.46C334.959 91.5933 334.699 92.5933 334.179 93.46C333.672 94.3267 332.979 95 332.099 95.48C331.232 95.9467 330.259 96.18 329.179 96.18ZM329.179 93.74C329.686 93.74 330.159 93.62 330.599 93.38C331.052 93.1267 331.412 92.7533 331.679 92.26C331.946 91.7667 332.079 91.1667 332.079 90.46C332.079 89.4067 331.799 88.6 331.239 88.04C330.692 87.4667 330.019 87.18 329.219 87.18C328.419 87.18 327.746 87.4667 327.199 88.04C326.666 88.6 326.399 89.4067 326.399 90.46C326.399 91.5133 326.659 92.3267 327.179 92.9C327.712 93.46 328.379 93.74 329.179 93.74ZM343.153 84.76C344.473 84.76 345.539 85.18 346.353 86.02C347.166 86.8467 347.573 88.0067 347.573 89.5V96H344.773V89.88C344.773 89 344.553 88.3267 344.113 87.86C343.673 87.38 343.073 87.14 342.313 87.14C341.539 87.14 340.926 87.38 340.473 87.86C340.033 88.3267 339.813 89 339.813 89.88V96H337.013V84.92H339.813V86.3C340.186 85.82 340.659 85.4467 341.233 85.18C341.819 84.9 342.459 84.76 343.153 84.76Z" fill="#62636C"/>
</g>
<g filter="url(#filter1_d_1058_32615)">
<rect x="134" y="132" width="340" height="76" rx="12" fill="#FFFEFD" shape-rendering="crispEdges"/>
<rect x="134.5" y="132.5" width="339" height="75" rx="11.5" stroke="#FFD9A7" shape-rendering="crispEdges"/>
<path d="M179.774 175.329C179.876 175.062 179.912 174.774 179.879 174.49C179.846 174.207 179.744 173.935 179.583 173.698C179.418 173.502 179.215 173.34 178.987 173.222C178.758 173.103 178.508 173.031 178.251 173.008L167.214 172.882C167.15 172.882 167.087 172.82 167.023 172.82C167.009 172.809 166.997 172.795 166.988 172.778C166.98 172.762 166.976 172.744 166.976 172.726C166.976 172.707 166.98 172.689 166.988 172.673C166.997 172.657 167.009 172.643 167.023 172.632C167.087 172.506 167.15 172.443 167.277 172.443L178.378 172.318C179.083 172.241 179.754 171.979 180.323 171.56C180.891 171.141 181.337 170.58 181.613 169.935L182.248 168.304C182.248 168.241 182.311 168.178 182.248 168.116C181.903 166.597 181.066 165.231 179.864 164.225C178.662 163.219 177.162 162.629 175.59 162.544C174.018 162.459 172.46 162.883 171.155 163.753C169.849 164.623 168.866 165.89 168.356 167.363C167.693 166.895 166.884 166.673 166.072 166.736C165.327 166.818 164.632 167.148 164.102 167.673C163.571 168.197 163.237 168.884 163.154 169.621C163.112 169.998 163.133 170.38 163.217 170.75C162.012 170.783 160.866 171.28 160.025 172.135C159.184 172.99 158.713 174.136 158.714 175.329C158.703 175.56 158.725 175.792 158.777 176.019C158.78 176.068 158.801 176.114 158.836 176.148C158.871 176.183 158.918 176.204 158.967 176.207H179.33C179.457 176.207 179.583 176.144 179.583 176.019L179.774 175.329Z" fill="#F48120"/>
<path d="M183.263 168.304H182.945C182.882 168.304 182.819 168.367 182.755 168.429L182.311 169.935C182.209 170.202 182.173 170.489 182.206 170.773C182.239 171.057 182.34 171.328 182.501 171.565C182.667 171.761 182.869 171.923 183.098 172.041C183.327 172.16 183.576 172.233 183.833 172.255L186.181 172.381C186.244 172.381 186.307 172.443 186.371 172.443C186.386 172.454 186.398 172.469 186.406 172.485C186.414 172.501 186.418 172.519 186.418 172.538C186.418 172.556 186.414 172.574 186.406 172.59C186.398 172.606 186.386 172.621 186.371 172.632C186.307 172.757 186.244 172.82 186.117 172.82L183.707 172.945C183.002 173.023 182.331 173.284 181.762 173.703C181.193 174.122 180.748 174.683 180.471 175.329L180.345 175.893C180.281 175.956 180.345 176.081 180.471 176.081H188.845C188.871 176.085 188.897 176.083 188.922 176.075C188.947 176.066 188.969 176.053 188.987 176.034C189.006 176.016 189.02 175.994 189.028 175.969C189.036 175.945 189.039 175.919 189.035 175.893C189.186 175.362 189.271 174.814 189.289 174.262C189.279 172.685 188.641 171.175 187.513 170.06C186.385 168.945 184.858 168.314 183.263 168.304Z" fill="#FAAD3F"/>
<path d="M209.904 159.728H205.248L204.448 162H202.544L206.528 150.864H208.64L212.624 162H210.704L209.904 159.728ZM209.392 158.24L207.584 153.072L205.76 158.24H209.392ZM222.34 153.184V162H220.516V160.96C220.228 161.323 219.85 161.611 219.38 161.824C218.922 162.027 218.431 162.128 217.908 162.128C217.215 162.128 216.591 161.984 216.036 161.696C215.492 161.408 215.06 160.981 214.74 160.416C214.431 159.851 214.276 159.168 214.276 158.368V153.184H216.084V158.096C216.084 158.885 216.282 159.493 216.676 159.92C217.071 160.336 217.61 160.544 218.292 160.544C218.975 160.544 219.514 160.336 219.908 159.92C220.314 159.493 220.516 158.885 220.516 158.096V153.184H222.34ZM226.875 154.672V159.552C226.875 159.883 226.95 160.123 227.099 160.272C227.259 160.411 227.526 160.48 227.899 160.48H229.019V162H227.579C226.758 162 226.128 161.808 225.691 161.424C225.254 161.04 225.035 160.416 225.035 159.552V154.672H223.995V153.184H225.035V150.992H226.875V153.184H229.019V154.672H226.875ZM234.524 162.144C233.692 162.144 232.94 161.957 232.268 161.584C231.596 161.2 231.068 160.667 230.684 159.984C230.3 159.291 230.108 158.491 230.108 157.584C230.108 156.688 230.305 155.893 230.7 155.2C231.095 154.507 231.633 153.973 232.316 153.6C232.999 153.227 233.761 153.04 234.604 153.04C235.447 153.04 236.209 153.227 236.892 153.6C237.575 153.973 238.113 154.507 238.508 155.2C238.903 155.893 239.1 156.688 239.1 157.584C239.1 158.48 238.897 159.275 238.492 159.968C238.087 160.661 237.532 161.2 236.828 161.584C236.135 161.957 235.367 162.144 234.524 162.144ZM234.524 160.56C234.993 160.56 235.431 160.448 235.836 160.224C236.252 160 236.588 159.664 236.844 159.216C237.1 158.768 237.228 158.224 237.228 157.584C237.228 156.944 237.105 156.405 236.86 155.968C236.615 155.52 236.289 155.184 235.884 154.96C235.479 154.736 235.041 154.624 234.572 154.624C234.103 154.624 233.665 154.736 233.26 154.96C232.865 155.184 232.551 155.52 232.316 155.968C232.081 156.405 231.964 156.944 231.964 157.584C231.964 158.533 232.204 159.269 232.684 159.792C233.175 160.304 233.788 160.56 234.524 160.56ZM251.575 153.04C252.268 153.04 252.887 153.184 253.431 153.472C253.986 153.76 254.418 154.187 254.727 154.752C255.047 155.317 255.207 156 255.207 156.8V162H253.399V157.072C253.399 156.283 253.202 155.68 252.807 155.264C252.412 154.837 251.874 154.624 251.191 154.624C250.508 154.624 249.964 154.837 249.559 155.264C249.164 155.68 248.967 156.283 248.967 157.072V162H247.159V157.072C247.159 156.283 246.962 155.68 246.567 155.264C246.172 154.837 245.634 154.624 244.951 154.624C244.268 154.624 243.724 154.837 243.319 155.264C242.924 155.68 242.727 156.283 242.727 157.072V162H240.903V153.184H242.727V154.192C243.026 153.829 243.404 153.547 243.863 153.344C244.322 153.141 244.812 153.04 245.335 153.04C246.039 153.04 246.668 153.189 247.223 153.488C247.778 153.787 248.204 154.219 248.503 154.784C248.77 154.251 249.186 153.829 249.751 153.52C250.316 153.2 250.924 153.04 251.575 153.04ZM256.92 157.552C256.92 156.667 257.101 155.883 257.464 155.2C257.837 154.517 258.339 153.989 258.968 153.616C259.608 153.232 260.312 153.04 261.08 153.04C261.773 153.04 262.376 153.179 262.888 153.456C263.411 153.723 263.827 154.059 264.136 154.464V153.184H265.976V162H264.136V160.688C263.827 161.104 263.405 161.451 262.872 161.728C262.339 162.005 261.731 162.144 261.048 162.144C260.291 162.144 259.597 161.952 258.968 161.568C258.339 161.173 257.837 160.629 257.464 159.936C257.101 159.232 256.92 158.437 256.92 157.552ZM264.136 157.584C264.136 156.976 264.008 156.448 263.752 156C263.507 155.552 263.181 155.211 262.776 154.976C262.371 154.741 261.933 154.624 261.464 154.624C260.995 154.624 260.557 154.741 260.152 154.976C259.747 155.2 259.416 155.536 259.16 155.984C258.915 156.421 258.792 156.944 258.792 157.552C258.792 158.16 258.915 158.693 259.16 159.152C259.416 159.611 259.747 159.963 260.152 160.208C260.568 160.443 261.005 160.56 261.464 160.56C261.933 160.56 262.371 160.443 262.776 160.208C263.181 159.973 263.507 159.632 263.752 159.184C264.008 158.725 264.136 158.192 264.136 157.584ZM270.5 154.672V159.552C270.5 159.883 270.575 160.123 270.724 160.272C270.884 160.411 271.151 160.48 271.524 160.48H272.644V162H271.204C270.383 162 269.753 161.808 269.316 161.424C268.879 161.04 268.66 160.416 268.66 159.552V154.672H267.62V153.184H268.66V150.992H270.5V153.184H272.644V154.672H270.5ZM275.253 152.016C274.922 152.016 274.645 151.904 274.421 151.68C274.197 151.456 274.085 151.179 274.085 150.848C274.085 150.517 274.197 150.24 274.421 150.016C274.645 149.792 274.922 149.68 275.253 149.68C275.573 149.68 275.845 149.792 276.069 150.016C276.293 150.24 276.405 150.517 276.405 150.848C276.405 151.179 276.293 151.456 276.069 151.68C275.845 151.904 275.573 152.016 275.253 152.016ZM276.149 153.184V162H274.325V153.184H276.149ZM277.936 157.584C277.936 156.677 278.117 155.883 278.48 155.2C278.853 154.507 279.365 153.973 280.016 153.6C280.666 153.227 281.413 153.04 282.256 153.04C283.322 153.04 284.202 153.296 284.896 153.808C285.6 154.309 286.074 155.029 286.32 155.968H284.352C284.192 155.531 283.936 155.189 283.584 154.944C283.232 154.699 282.789 154.576 282.256 154.576C281.509 154.576 280.912 154.843 280.464 155.376C280.026 155.899 279.808 156.635 279.808 157.584C279.808 158.533 280.026 159.275 280.464 159.808C280.912 160.341 281.509 160.608 282.256 160.608C283.312 160.608 284.01 160.144 284.352 159.216H286.32C286.064 160.112 285.584 160.827 284.88 161.36C284.176 161.883 283.301 162.144 282.256 162.144C281.413 162.144 280.666 161.957 280.016 161.584C279.365 161.2 278.853 160.667 278.48 159.984C278.117 159.291 277.936 158.491 277.936 157.584Z" fill="#62636C"/>
<path d="M202.7 181C202.7 179.627 203.007 178.4 203.62 177.32C204.247 176.227 205.093 175.38 206.16 174.78C207.24 174.167 208.447 173.86 209.78 173.86C211.34 173.86 212.707 174.26 213.88 175.06C215.053 175.86 215.873 176.967 216.34 178.38H213.12C212.8 177.713 212.347 177.213 211.76 176.88C211.187 176.547 210.52 176.38 209.76 176.38C208.947 176.38 208.22 176.573 207.58 176.96C206.953 177.333 206.46 177.867 206.1 178.56C205.753 179.253 205.58 180.067 205.58 181C205.58 181.92 205.753 182.733 206.1 183.44C206.46 184.133 206.953 184.673 207.58 185.06C208.22 185.433 208.947 185.62 209.76 185.62C210.52 185.62 211.187 185.453 211.76 185.12C212.347 184.773 212.8 184.267 213.12 183.6H216.34C215.873 185.027 215.053 186.14 213.88 186.94C212.72 187.727 211.353 188.12 209.78 188.12C208.447 188.12 207.24 187.82 206.16 187.22C205.093 186.607 204.247 185.76 203.62 184.68C203.007 183.6 202.7 182.373 202.7 181ZM221.532 173.2V188H218.732V173.2H221.532ZM229.218 188.18C228.151 188.18 227.191 187.947 226.338 187.48C225.485 187 224.811 186.327 224.318 185.46C223.838 184.593 223.598 183.593 223.598 182.46C223.598 181.327 223.845 180.327 224.338 179.46C224.845 178.593 225.531 177.927 226.398 177.46C227.265 176.98 228.231 176.74 229.298 176.74C230.365 176.74 231.331 176.98 232.198 177.46C233.065 177.927 233.745 178.593 234.238 179.46C234.745 180.327 234.998 181.327 234.998 182.46C234.998 183.593 234.738 184.593 234.218 185.46C233.711 186.327 233.018 187 232.138 187.48C231.271 187.947 230.298 188.18 229.218 188.18ZM229.218 185.74C229.725 185.74 230.198 185.62 230.638 185.38C231.091 185.127 231.451 184.753 231.718 184.26C231.985 183.767 232.118 183.167 232.118 182.46C232.118 181.407 231.838 180.6 231.278 180.04C230.731 179.467 230.058 179.18 229.258 179.18C228.458 179.18 227.785 179.467 227.238 180.04C226.705 180.6 226.438 181.407 226.438 182.46C226.438 183.513 226.698 184.327 227.218 184.9C227.751 185.46 228.418 185.74 229.218 185.74ZM247.512 176.92V188H244.692V186.6C244.332 187.08 243.859 187.46 243.272 187.74C242.699 188.007 242.072 188.14 241.392 188.14C240.525 188.14 239.759 187.96 239.092 187.6C238.425 187.227 237.899 186.687 237.512 185.98C237.139 185.26 236.952 184.407 236.952 183.42V176.92H239.752V183.02C239.752 183.9 239.972 184.58 240.412 185.06C240.852 185.527 241.452 185.76 242.212 185.76C242.985 185.76 243.592 185.527 244.032 185.06C244.472 184.58 244.692 183.9 244.692 183.02V176.92H247.512ZM249.555 182.42C249.555 181.3 249.775 180.307 250.215 179.44C250.668 178.573 251.281 177.907 252.055 177.44C252.828 176.973 253.688 176.74 254.635 176.74C255.355 176.74 256.041 176.9 256.695 177.22C257.348 177.527 257.868 177.94 258.255 178.46V173.2H261.095V188H258.255V186.36C257.908 186.907 257.421 187.347 256.795 187.68C256.168 188.013 255.441 188.18 254.615 188.18C253.681 188.18 252.828 187.94 252.055 187.46C251.281 186.98 250.668 186.307 250.215 185.44C249.775 184.56 249.555 183.553 249.555 182.42ZM258.275 182.46C258.275 181.78 258.141 181.2 257.875 180.72C257.608 180.227 257.248 179.853 256.795 179.6C256.341 179.333 255.855 179.2 255.335 179.2C254.815 179.2 254.335 179.327 253.895 179.58C253.455 179.833 253.095 180.207 252.815 180.7C252.548 181.18 252.415 181.753 252.415 182.42C252.415 183.087 252.548 183.673 252.815 184.18C253.095 184.673 253.455 185.053 253.895 185.32C254.348 185.587 254.828 185.72 255.335 185.72C255.855 185.72 256.341 185.593 256.795 185.34C257.248 185.073 257.608 184.7 257.875 184.22C258.141 183.727 258.275 183.14 258.275 182.46ZM268.909 179.22H266.969V188H264.129V179.22H262.869V176.92H264.129V176.36C264.129 175 264.516 174 265.289 173.36C266.063 172.72 267.229 172.42 268.789 172.46V174.82C268.109 174.807 267.636 174.92 267.369 175.16C267.103 175.4 266.969 175.833 266.969 176.46V176.92H268.909V179.22ZM273.524 173.2V188H270.724V173.2H273.524ZM275.57 182.42C275.57 181.3 275.79 180.307 276.23 179.44C276.683 178.573 277.29 177.907 278.05 177.44C278.823 176.973 279.683 176.74 280.63 176.74C281.457 176.74 282.177 176.907 282.79 177.24C283.417 177.573 283.917 177.993 284.29 178.5V176.92H287.11V188H284.29V186.38C283.93 186.9 283.43 187.333 282.79 187.68C282.163 188.013 281.437 188.18 280.61 188.18C279.677 188.18 278.823 187.94 278.05 187.46C277.29 186.98 276.683 186.307 276.23 185.44C275.79 184.56 275.57 183.553 275.57 182.42ZM284.29 182.46C284.29 181.78 284.157 181.2 283.89 180.72C283.623 180.227 283.263 179.853 282.81 179.6C282.357 179.333 281.87 179.2 281.35 179.2C280.83 179.2 280.35 179.327 279.91 179.58C279.47 179.833 279.11 180.207 278.83 180.7C278.563 181.18 278.43 181.753 278.43 182.42C278.43 183.087 278.563 183.673 278.83 184.18C279.11 184.673 279.47 185.053 279.91 185.32C280.363 185.587 280.843 185.72 281.35 185.72C281.87 185.72 282.357 185.593 282.81 185.34C283.263 185.073 283.623 184.7 283.89 184.22C284.157 183.727 284.29 183.14 284.29 182.46ZM292.645 178.64C293.005 178.053 293.472 177.593 294.045 177.26C294.632 176.927 295.298 176.76 296.045 176.76V179.7H295.305C294.425 179.7 293.758 179.907 293.305 180.32C292.865 180.733 292.645 181.453 292.645 182.48V188H289.845V176.92H292.645V178.64ZM308.231 182.22C308.231 182.62 308.204 182.98 308.151 183.3H300.051C300.117 184.1 300.397 184.727 300.891 185.18C301.384 185.633 301.991 185.86 302.711 185.86C303.751 185.86 304.491 185.413 304.931 184.52H307.951C307.631 185.587 307.017 186.467 306.111 187.16C305.204 187.84 304.091 188.18 302.771 188.18C301.704 188.18 300.744 187.947 299.891 187.48C299.051 187 298.391 186.327 297.911 185.46C297.444 184.593 297.211 183.593 297.211 182.46C297.211 181.313 297.444 180.307 297.911 179.44C298.377 178.573 299.031 177.907 299.871 177.44C300.711 176.973 301.677 176.74 302.771 176.74C303.824 176.74 304.764 176.967 305.591 177.42C306.431 177.873 307.077 178.52 307.531 179.36C307.997 180.187 308.231 181.14 308.231 182.22ZM305.331 181.42C305.317 180.7 305.057 180.127 304.551 179.7C304.044 179.26 303.424 179.04 302.691 179.04C301.997 179.04 301.411 179.253 300.931 179.68C300.464 180.093 300.177 180.673 300.071 181.42H305.331ZM319.86 188.14C318.887 188.14 318.007 187.973 317.22 187.64C316.447 187.307 315.833 186.827 315.38 186.2C314.927 185.573 314.693 184.833 314.68 183.98H317.68C317.72 184.553 317.92 185.007 318.28 185.34C318.653 185.673 319.16 185.84 319.8 185.84C320.453 185.84 320.967 185.687 321.34 185.38C321.713 185.06 321.9 184.647 321.9 184.14C321.9 183.727 321.773 183.387 321.52 183.12C321.267 182.853 320.947 182.647 320.56 182.5C320.187 182.34 319.667 182.167 319 181.98C318.093 181.713 317.353 181.453 316.78 181.2C316.22 180.933 315.733 180.54 315.32 180.02C314.92 179.487 314.72 178.78 314.72 177.9C314.72 177.073 314.927 176.353 315.34 175.74C315.753 175.127 316.333 174.66 317.08 174.34C317.827 174.007 318.68 173.84 319.64 173.84C321.08 173.84 322.247 174.193 323.14 174.9C324.047 175.593 324.547 176.567 324.64 177.82H321.56C321.533 177.34 321.327 176.947 320.94 176.64C320.567 176.32 320.067 176.16 319.44 176.16C318.893 176.16 318.453 176.3 318.12 176.58C317.8 176.86 317.64 177.267 317.64 177.8C317.64 178.173 317.76 178.487 318 178.74C318.253 178.98 318.56 179.18 318.92 179.34C319.293 179.487 319.813 179.66 320.48 179.86C321.387 180.127 322.127 180.393 322.7 180.66C323.273 180.927 323.767 181.327 324.18 181.86C324.593 182.393 324.8 183.093 324.8 183.96C324.8 184.707 324.607 185.4 324.22 186.04C323.833 186.68 323.267 187.193 322.52 187.58C321.773 187.953 320.887 188.14 319.86 188.14ZM332.148 188.18C331.081 188.18 330.121 187.947 329.268 187.48C328.414 187 327.741 186.327 327.248 185.46C326.768 184.593 326.528 183.593 326.528 182.46C326.528 181.327 326.774 180.327 327.268 179.46C327.774 178.593 328.461 177.927 329.328 177.46C330.194 176.98 331.161 176.74 332.228 176.74C333.294 176.74 334.261 176.98 335.128 177.46C335.994 177.927 336.674 178.593 337.168 179.46C337.674 180.327 337.928 181.327 337.928 182.46C337.928 183.593 337.668 184.593 337.148 185.46C336.641 186.327 335.948 187 335.068 187.48C334.201 187.947 333.228 188.18 332.148 188.18ZM332.148 185.74C332.654 185.74 333.128 185.62 333.568 185.38C334.021 185.127 334.381 184.753 334.648 184.26C334.914 183.767 335.048 183.167 335.048 182.46C335.048 181.407 334.768 180.6 334.208 180.04C333.661 179.467 332.988 179.18 332.188 179.18C331.388 179.18 330.714 179.467 330.168 180.04C329.634 180.6 329.368 181.407 329.368 182.46C329.368 183.513 329.628 184.327 330.148 184.9C330.681 185.46 331.348 185.74 332.148 185.74ZM342.782 173.2V188H339.982V173.2H342.782ZM350.168 185.42L352.968 176.92H355.948L351.848 188H348.448L344.368 176.92H347.368L350.168 185.42ZM367.821 182.22C367.821 182.62 367.794 182.98 367.741 183.3H359.641C359.707 184.1 359.987 184.727 360.481 185.18C360.974 185.633 361.581 185.86 362.301 185.86C363.341 185.86 364.081 185.413 364.521 184.52H367.541C367.221 185.587 366.607 186.467 365.701 187.16C364.794 187.84 363.681 188.18 362.361 188.18C361.294 188.18 360.334 187.947 359.481 187.48C358.641 187 357.981 186.327 357.501 185.46C357.034 184.593 356.801 183.593 356.801 182.46C356.801 181.313 357.034 180.307 357.501 179.44C357.967 178.573 358.621 177.907 359.461 177.44C360.301 176.973 361.267 176.74 362.361 176.74C363.414 176.74 364.354 176.967 365.181 177.42C366.021 177.873 366.667 178.52 367.121 179.36C367.587 180.187 367.821 181.14 367.821 182.22ZM364.921 181.42C364.907 180.7 364.647 180.127 364.141 179.7C363.634 179.26 363.014 179.04 362.281 179.04C361.587 179.04 361.001 179.253 360.521 179.68C360.054 180.093 359.767 180.673 359.661 181.42H364.921ZM372.664 178.64C373.024 178.053 373.491 177.593 374.064 177.26C374.651 176.927 375.318 176.76 376.064 176.76V179.7H375.324C374.444 179.7 373.778 179.907 373.324 180.32C372.884 180.733 372.664 181.453 372.664 182.48V188H369.864V176.92H372.664V178.64Z" fill="#62636C"/>
</g>
<g filter="url(#filter2_d_1058_32615)">
<rect x="134" y="224" width="340" height="76" rx="12" fill="#FFFEFD" shape-rendering="crispEdges"/>
<rect x="134.5" y="224.5" width="339" height="75" rx="11.5" stroke="#FFD9A7" shape-rendering="crispEdges"/>
<path d="M185.032 253.097C184.897 252.929 184.759 252.764 184.616 252.601C182.334 250.004 179.187 248.33 175.762 247.892C172.337 247.454 168.871 248.283 166.012 250.223L170.105 256.282C171.493 255.34 173.176 254.938 174.838 255.151C176.501 255.363 178.029 256.176 179.137 257.437C179.385 257.719 179.609 258.02 179.806 258.336L176.183 261.967H188.222V249.9L185.032 253.097Z" fill="#FA8525"/>
<path d="M173.934 247.779H161.895L165.048 250.94C162.692 252.849 160.998 255.472 160.232 258.432C159.366 261.781 159.747 265.333 161.305 268.421L167.82 265.118C167.063 263.619 166.878 261.895 167.299 260.268C167.719 258.642 168.717 257.225 170.105 256.284C170.16 256.246 170.215 256.21 170.271 256.175L173.934 259.847V247.779Z" fill="#FFCB80"/>
<path d="M159.778 262.1H171.817L168.18 265.745C168.951 266.943 170.077 267.877 171.408 268.411C172.964 269.035 174.694 269.069 176.274 268.506C177.853 267.944 179.174 266.824 179.988 265.355L185.253 270.62C183.593 272.804 181.327 274.472 178.718 275.401C175.465 276.56 171.902 276.49 168.697 275.205C166.442 274.301 164.473 272.839 162.961 270.976L159.778 274.167V262.1Z" fill="#FFE6C2"/>
<path d="M209.904 251.728H205.248L204.448 254H202.544L206.528 242.864H208.64L212.624 254H210.704L209.904 251.728ZM209.392 250.24L207.584 245.072L205.76 250.24H209.392ZM222.34 245.184V254H220.516V252.96C220.228 253.323 219.85 253.611 219.38 253.824C218.922 254.027 218.431 254.128 217.908 254.128C217.215 254.128 216.591 253.984 216.036 253.696C215.492 253.408 215.06 252.981 214.74 252.416C214.431 251.851 214.276 251.168 214.276 250.368V245.184H216.084V250.096C216.084 250.885 216.282 251.493 216.676 251.92C217.071 252.336 217.61 252.544 218.292 252.544C218.975 252.544 219.514 252.336 219.908 251.92C220.314 251.493 220.516 250.885 220.516 250.096V245.184H222.34ZM226.875 246.672V251.552C226.875 251.883 226.95 252.123 227.099 252.272C227.259 252.411 227.526 252.48 227.899 252.48H229.019V254H227.579C226.758 254 226.128 253.808 225.691 253.424C225.254 253.04 225.035 252.416 225.035 251.552V246.672H223.995V245.184H225.035V242.992H226.875V245.184H229.019V246.672H226.875ZM234.524 254.144C233.692 254.144 232.94 253.957 232.268 253.584C231.596 253.2 231.068 252.667 230.684 251.984C230.3 251.291 230.108 250.491 230.108 249.584C230.108 248.688 230.305 247.893 230.7 247.2C231.095 246.507 231.633 245.973 232.316 245.6C232.999 245.227 233.761 245.04 234.604 245.04C235.447 245.04 236.209 245.227 236.892 245.6C237.575 245.973 238.113 246.507 238.508 247.2C238.903 247.893 239.1 248.688 239.1 249.584C239.1 250.48 238.897 251.275 238.492 251.968C238.087 252.661 237.532 253.2 236.828 253.584C236.135 253.957 235.367 254.144 234.524 254.144ZM234.524 252.56C234.993 252.56 235.431 252.448 235.836 252.224C236.252 252 236.588 251.664 236.844 251.216C237.1 250.768 237.228 250.224 237.228 249.584C237.228 248.944 237.105 248.405 236.86 247.968C236.615 247.52 236.289 247.184 235.884 246.96C235.479 246.736 235.041 246.624 234.572 246.624C234.103 246.624 233.665 246.736 233.26 246.96C232.865 247.184 232.551 247.52 232.316 247.968C232.081 248.405 231.964 248.944 231.964 249.584C231.964 250.533 232.204 251.269 232.684 251.792C233.175 252.304 233.788 252.56 234.524 252.56ZM251.575 245.04C252.268 245.04 252.887 245.184 253.431 245.472C253.986 245.76 254.418 246.187 254.727 246.752C255.047 247.317 255.207 248 255.207 248.8V254H253.399V249.072C253.399 248.283 253.202 247.68 252.807 247.264C252.412 246.837 251.874 246.624 251.191 246.624C250.508 246.624 249.964 246.837 249.559 247.264C249.164 247.68 248.967 248.283 248.967 249.072V254H247.159V249.072C247.159 248.283 246.962 247.68 246.567 247.264C246.172 246.837 245.634 246.624 244.951 246.624C244.268 246.624 243.724 246.837 243.319 247.264C242.924 247.68 242.727 248.283 242.727 249.072V254H240.903V245.184H242.727V246.192C243.026 245.829 243.404 245.547 243.863 245.344C244.322 245.141 244.812 245.04 245.335 245.04C246.039 245.04 246.668 245.189 247.223 245.488C247.778 245.787 248.204 246.219 248.503 246.784C248.77 246.251 249.186 245.829 249.751 245.52C250.316 245.2 250.924 245.04 251.575 245.04ZM256.92 249.552C256.92 248.667 257.101 247.883 257.464 247.2C257.837 246.517 258.339 245.989 258.968 245.616C259.608 245.232 260.312 245.04 261.08 245.04C261.773 245.04 262.376 245.179 262.888 245.456C263.411 245.723 263.827 246.059 264.136 246.464V245.184H265.976V254H264.136V252.688C263.827 253.104 263.405 253.451 262.872 253.728C262.339 254.005 261.731 254.144 261.048 254.144C260.291 254.144 259.597 253.952 258.968 253.568C258.339 253.173 257.837 252.629 257.464 251.936C257.101 251.232 256.92 250.437 256.92 249.552ZM264.136 249.584C264.136 248.976 264.008 248.448 263.752 248C263.507 247.552 263.181 247.211 262.776 246.976C262.371 246.741 261.933 246.624 261.464 246.624C260.995 246.624 260.557 246.741 260.152 246.976C259.747 247.2 259.416 247.536 259.16 247.984C258.915 248.421 258.792 248.944 258.792 249.552C258.792 250.16 258.915 250.693 259.16 251.152C259.416 251.611 259.747 251.963 260.152 252.208C260.568 252.443 261.005 252.56 261.464 252.56C261.933 252.56 262.371 252.443 262.776 252.208C263.181 251.973 263.507 251.632 263.752 251.184C264.008 250.725 264.136 250.192 264.136 249.584ZM270.5 246.672V251.552C270.5 251.883 270.575 252.123 270.724 252.272C270.884 252.411 271.151 252.48 271.524 252.48H272.644V254H271.204C270.383 254 269.753 253.808 269.316 253.424C268.879 253.04 268.66 252.416 268.66 251.552V246.672H267.62V245.184H268.66V242.992H270.5V245.184H272.644V246.672H270.5ZM275.253 244.016C274.922 244.016 274.645 243.904 274.421 243.68C274.197 243.456 274.085 243.179 274.085 242.848C274.085 242.517 274.197 242.24 274.421 242.016C274.645 241.792 274.922 241.68 275.253 241.68C275.573 241.68 275.845 241.792 276.069 242.016C276.293 242.24 276.405 242.517 276.405 242.848C276.405 243.179 276.293 243.456 276.069 243.68C275.845 243.904 275.573 244.016 275.253 244.016ZM276.149 245.184V254H274.325V245.184H276.149ZM277.936 249.584C277.936 248.677 278.117 247.883 278.48 247.2C278.853 246.507 279.365 245.973 280.016 245.6C280.666 245.227 281.413 245.04 282.256 245.04C283.322 245.04 284.202 245.296 284.896 245.808C285.6 246.309 286.074 247.029 286.32 247.968H284.352C284.192 247.531 283.936 247.189 283.584 246.944C283.232 246.699 282.789 246.576 282.256 246.576C281.509 246.576 280.912 246.843 280.464 247.376C280.026 247.899 279.808 248.635 279.808 249.584C279.808 250.533 280.026 251.275 280.464 251.808C280.912 252.341 281.509 252.608 282.256 252.608C283.312 252.608 284.01 252.144 284.352 251.216H286.32C286.064 252.112 285.584 252.827 284.88 253.36C284.176 253.883 283.301 254.144 282.256 254.144C281.413 254.144 280.666 253.957 280.016 253.584C279.365 253.2 278.853 252.667 278.48 251.984C278.117 251.291 277.936 250.491 277.936 249.584Z" fill="#62636C"/>
<path d="M202.7 273C202.7 271.627 203.007 270.4 203.62 269.32C204.247 268.227 205.093 267.38 206.16 266.78C207.24 266.167 208.447 265.86 209.78 265.86C211.34 265.86 212.707 266.26 213.88 267.06C215.053 267.86 215.873 268.967 216.34 270.38H213.12C212.8 269.713 212.347 269.213 211.76 268.88C211.187 268.547 210.52 268.38 209.76 268.38C208.947 268.38 208.22 268.573 207.58 268.96C206.953 269.333 206.46 269.867 206.1 270.56C205.753 271.253 205.58 272.067 205.58 273C205.58 273.92 205.753 274.733 206.1 275.44C206.46 276.133 206.953 276.673 207.58 277.06C208.22 277.433 208.947 277.62 209.76 277.62C210.52 277.62 211.187 277.453 211.76 277.12C212.347 276.773 212.8 276.267 213.12 275.6H216.34C215.873 277.027 215.053 278.14 213.88 278.94C212.72 279.727 211.353 280.12 209.78 280.12C208.447 280.12 207.24 279.82 206.16 279.22C205.093 278.607 204.247 277.76 203.62 276.68C203.007 275.6 202.7 274.373 202.7 273ZM227.292 277.34H221.732L220.812 280H217.872L222.892 266.02H226.152L231.172 280H228.212L227.292 277.34ZM226.532 275.1L224.512 269.26L222.492 275.1H226.532ZM243.228 270.36C243.228 271.107 243.048 271.807 242.688 272.46C242.341 273.113 241.788 273.64 241.028 274.04C240.281 274.44 239.335 274.64 238.188 274.64H235.848V280H233.048V266.04H238.188C239.268 266.04 240.188 266.227 240.948 266.6C241.708 266.973 242.275 267.487 242.648 268.14C243.035 268.793 243.228 269.533 243.228 270.36ZM238.068 272.38C238.841 272.38 239.415 272.207 239.788 271.86C240.161 271.5 240.348 271 240.348 270.36C240.348 269 239.588 268.32 238.068 268.32H235.848V272.38H238.068ZM254.716 266.04V268.3H250.996V280H248.196V268.3H244.476V266.04H254.716ZM256.079 273C256.079 271.627 256.386 270.4 256.999 269.32C257.626 268.227 258.472 267.38 259.539 266.78C260.619 266.167 261.826 265.86 263.159 265.86C264.719 265.86 266.086 266.26 267.259 267.06C268.432 267.86 269.252 268.967 269.719 270.38H266.499C266.179 269.713 265.726 269.213 265.139 268.88C264.566 268.547 263.899 268.38 263.139 268.38C262.326 268.38 261.599 268.573 260.959 268.96C260.332 269.333 259.839 269.867 259.479 270.56C259.132 271.253 258.959 272.067 258.959 273C258.959 273.92 259.132 274.733 259.479 275.44C259.839 276.133 260.332 276.673 260.959 277.06C261.599 277.433 262.326 277.62 263.139 277.62C263.899 277.62 264.566 277.453 265.139 277.12C265.726 276.773 266.179 276.267 266.499 275.6H269.719C269.252 277.027 268.432 278.14 267.259 278.94C266.099 279.727 264.732 280.12 263.159 280.12C261.826 280.12 260.619 279.82 259.539 279.22C258.472 278.607 257.626 277.76 256.999 276.68C256.386 275.6 256.079 274.373 256.079 273ZM283.69 266.04V280H280.89V274.06H274.91V280H272.11V266.04H274.91V271.78H280.89V266.04H283.69ZM295.006 277.34H289.446L288.526 280H285.586L290.606 266.02H293.866L298.886 280H295.926L295.006 277.34ZM294.246 275.1L292.226 269.26L290.206 275.1H294.246ZM310.348 280.14C309.375 280.14 308.495 279.973 307.708 279.64C306.935 279.307 306.322 278.827 305.868 278.2C305.415 277.573 305.182 276.833 305.168 275.98H308.168C308.208 276.553 308.408 277.007 308.768 277.34C309.142 277.673 309.648 277.84 310.288 277.84C310.942 277.84 311.455 277.687 311.828 277.38C312.202 277.06 312.388 276.647 312.388 276.14C312.388 275.727 312.262 275.387 312.008 275.12C311.755 274.853 311.435 274.647 311.048 274.5C310.675 274.34 310.155 274.167 309.488 273.98C308.582 273.713 307.842 273.453 307.268 273.2C306.708 272.933 306.222 272.54 305.808 272.02C305.408 271.487 305.208 270.78 305.208 269.9C305.208 269.073 305.415 268.353 305.828 267.74C306.242 267.127 306.822 266.66 307.568 266.34C308.315 266.007 309.168 265.84 310.128 265.84C311.568 265.84 312.735 266.193 313.628 266.9C314.535 267.593 315.035 268.567 315.128 269.82H312.048C312.022 269.34 311.815 268.947 311.428 268.64C311.055 268.32 310.555 268.16 309.928 268.16C309.382 268.16 308.942 268.3 308.608 268.58C308.288 268.86 308.128 269.267 308.128 269.8C308.128 270.173 308.248 270.487 308.488 270.74C308.742 270.98 309.048 271.18 309.408 271.34C309.782 271.487 310.302 271.66 310.968 271.86C311.875 272.127 312.615 272.393 313.188 272.66C313.762 272.927 314.255 273.327 314.668 273.86C315.082 274.393 315.288 275.093 315.288 275.96C315.288 276.707 315.095 277.4 314.708 278.04C314.322 278.68 313.755 279.193 313.008 279.58C312.262 279.953 311.375 280.14 310.348 280.14ZM322.636 280.18C321.569 280.18 320.609 279.947 319.756 279.48C318.903 279 318.229 278.327 317.736 277.46C317.256 276.593 317.016 275.593 317.016 274.46C317.016 273.327 317.263 272.327 317.756 271.46C318.263 270.593 318.949 269.927 319.816 269.46C320.683 268.98 321.649 268.74 322.716 268.74C323.783 268.74 324.749 268.98 325.616 269.46C326.483 269.927 327.163 270.593 327.656 271.46C328.163 272.327 328.416 273.327 328.416 274.46C328.416 275.593 328.156 276.593 327.636 277.46C327.129 278.327 326.436 279 325.556 279.48C324.689 279.947 323.716 280.18 322.636 280.18ZM322.636 277.74C323.143 277.74 323.616 277.62 324.056 277.38C324.509 277.127 324.869 276.753 325.136 276.26C325.403 275.767 325.536 275.167 325.536 274.46C325.536 273.407 325.256 272.6 324.696 272.04C324.149 271.467 323.476 271.18 322.676 271.18C321.876 271.18 321.203 271.467 320.656 272.04C320.123 272.6 319.856 273.407 319.856 274.46C319.856 275.513 320.116 276.327 320.636 276.9C321.169 277.46 321.836 277.74 322.636 277.74ZM333.27 265.2V280H330.47V265.2H333.27ZM340.656 277.42L343.456 268.92H346.436L342.336 280H338.936L334.856 268.92H337.856L340.656 277.42ZM349.429 267.6C348.936 267.6 348.522 267.447 348.189 267.14C347.869 266.82 347.709 266.427 347.709 265.96C347.709 265.493 347.869 265.107 348.189 264.8C348.522 264.48 348.936 264.32 349.429 264.32C349.922 264.32 350.329 264.48 350.649 264.8C350.982 265.107 351.149 265.493 351.149 265.96C351.149 266.427 350.982 266.82 350.649 267.14C350.329 267.447 349.922 267.6 349.429 267.6ZM350.809 268.92V280H348.009V268.92H350.809ZM359.715 268.76C361.035 268.76 362.102 269.18 362.915 270.02C363.729 270.847 364.135 272.007 364.135 273.5V280H361.335V273.88C361.335 273 361.115 272.327 360.675 271.86C360.235 271.38 359.635 271.14 358.875 271.14C358.102 271.14 357.489 271.38 357.035 271.86C356.595 272.327 356.375 273 356.375 273.88V280H353.575V268.92H356.375V270.3C356.749 269.82 357.222 269.447 357.795 269.18C358.382 268.9 359.022 268.76 359.715 268.76ZM371.138 268.74C371.965 268.74 372.691 268.907 373.318 269.24C373.945 269.56 374.438 269.98 374.798 270.5V268.92H377.618V280.08C377.618 281.107 377.411 282.02 376.998 282.82C376.585 283.633 375.965 284.273 375.138 284.74C374.311 285.22 373.311 285.46 372.138 285.46C370.565 285.46 369.271 285.093 368.258 284.36C367.258 283.627 366.691 282.627 366.558 281.36H369.338C369.485 281.867 369.798 282.267 370.278 282.56C370.771 282.867 371.365 283.02 372.058 283.02C372.871 283.02 373.531 282.773 374.038 282.28C374.545 281.8 374.798 281.067 374.798 280.08V278.36C374.438 278.88 373.938 279.313 373.298 279.66C372.671 280.007 371.951 280.18 371.138 280.18C370.205 280.18 369.351 279.94 368.578 279.46C367.805 278.98 367.191 278.307 366.738 277.44C366.298 276.56 366.078 275.553 366.078 274.42C366.078 273.3 366.298 272.307 366.738 271.44C367.191 270.573 367.798 269.907 368.558 269.44C369.331 268.973 370.191 268.74 371.138 268.74ZM374.798 274.46C374.798 273.78 374.665 273.2 374.398 272.72C374.131 272.227 373.771 271.853 373.318 271.6C372.865 271.333 372.378 271.2 371.858 271.2C371.338 271.2 370.858 271.327 370.418 271.58C369.978 271.833 369.618 272.207 369.338 272.7C369.071 273.18 368.938 273.753 368.938 274.42C368.938 275.087 369.071 275.673 369.338 276.18C369.618 276.673 369.978 277.053 370.418 277.32C370.871 277.587 371.351 277.72 371.858 277.72C372.378 277.72 372.865 277.593 373.318 277.34C373.771 277.073 374.131 276.7 374.398 276.22C374.665 275.727 374.798 275.14 374.798 274.46Z" fill="#62636C"/>
</g>
<defs>
<filter id="filter0_d_1058_32615" x="134" y="40" width="343" height="80" filterUnits="userSpaceOnUse" color-interpolation-filters="sRGB">
<feFlood flood-opacity="0" result="BackgroundImageFix"/>
<feColorMatrix in="SourceAlpha" type="matrix" values="0 0 0 0 0 0 0 0 0 0 0 0 0 0 0 0 0 0 127 0" result="hardAlpha"/>
<feOffset dx="3" dy="4"/>
<feComposite in2="hardAlpha" operator="out"/>
<feColorMatrix type="matrix" values="0 0 0 0 1 0 0 0 0 0.85098 0 0 0 0 0.654902 0 0 0 1 0"/>
<feBlend mode="normal" in2="BackgroundImageFix" result="effect1_dropShadow_1058_32615"/>
<feBlend mode="normal" in="SourceGraphic" in2="effect1_dropShadow_1058_32615" result="shape"/>
</filter>
<filter id="filter1_d_1058_32615" x="134" y="132" width="343" height="80" filterUnits="userSpaceOnUse" color-interpolation-filters="sRGB">
<feFlood flood-opacity="0" result="BackgroundImageFix"/>
<feColorMatrix in="SourceAlpha" type="matrix" values="0 0 0 0 0 0 0 0 0 0 0 0 0 0 0 0 0 0 127 0" result="hardAlpha"/>
<feOffset dx="3" dy="4"/>
<feComposite in2="hardAlpha" operator="out"/>
<feColorMatrix type="matrix" values="0 0 0 0 1 0 0 0 0 0.85098 0 0 0 0 0.654902 0 0 0 1 0"/>
<feBlend mode="normal" in2="BackgroundImageFix" result="effect1_dropShadow_1058_32615"/>
<feBlend mode="normal" in="SourceGraphic" in2="effect1_dropShadow_1058_32615" result="shape"/>
</filter>
<filter id="filter2_d_1058_32615" x="134" y="224" width="343" height="80" filterUnits="userSpaceOnUse" color-interpolation-filters="sRGB">
<feFlood flood-opacity="0" result="BackgroundImageFix"/>
<feColorMatrix in="SourceAlpha" type="matrix" values="0 0 0 0 0 0 0 0 0 0 0 0 0 0 0 0 0 0 127 0" result="hardAlpha"/>
<feOffset dx="3" dy="4"/>
<feComposite in2="hardAlpha" operator="out"/>
<feColorMatrix type="matrix" values="0 0 0 0 1 0 0 0 0 0.85098 0 0 0 0 0.654902 0 0 0 1 0"/>
<feBlend mode="normal" in2="BackgroundImageFix" result="effect1_dropShadow_1058_32615"/>
<feBlend mode="normal" in="SourceGraphic" in2="effect1_dropShadow_1058_32615" result="shape"/>
</filter>
</defs>
</svg>
