<svg width="608" height="340" viewBox="0 0 608 340" fill="none" xmlns="http://www.w3.org/2000/svg">
<rect width="608" height="340" rx="16" fill="#FEF7ED"/>
<g filter="url(#filter0_d_1058_32680)">
<rect x="72" y="106" width="128" height="128" rx="12" fill="#FFFEFD" shape-rendering="crispEdges"/>
<rect x="72.5" y="106.5" width="127" height="127" rx="11.5" stroke="#FFD9A7" shape-rendering="crispEdges"/>
<g clip-path="url(#clip0_1058_32680)">
<path d="M115.375 143.405H150.878C156.702 143.405 161.424 148.126 161.424 153.95V189.453C161.424 195.277 156.702 199.998 150.878 199.998H115.375C109.551 199.998 104.83 195.277 104.83 189.453V153.95C104.83 148.126 109.551 143.405 115.375 143.405Z" fill="url(#paint0_radial_1058_32680)"/>
<path d="M115.375 144.192C109.986 144.192 105.618 148.561 105.618 153.95V189.453C105.618 194.842 109.986 199.211 115.375 199.211H150.878C156.267 199.211 160.636 194.842 160.636 189.453V153.95C160.636 148.561 156.267 144.192 150.878 144.192H115.375ZM115.375 142.617H150.878C157.137 142.617 162.211 147.691 162.211 153.95V189.453C162.211 195.712 157.137 200.786 150.878 200.786H115.375C109.116 200.786 104.042 195.712 104.042 189.453V153.95C104.042 147.691 109.116 142.617 115.375 142.617Z" fill="#2B2B2B"/>
<path opacity="0.81" d="M115.64 145.485H150.406C155.405 145.485 159.458 149.538 159.458 154.537V175.606C159.458 180.605 155.405 184.658 150.406 184.658H115.64C110.641 184.658 106.588 180.605 106.588 175.606V154.537C106.588 149.538 110.641 145.485 115.64 145.485Z" fill="url(#paint1_linear_1058_32680)"/>
<path d="M128.88 173.756L123.684 175.495C122.983 173.432 121.5 172.4 119.233 172.4C116.813 172.4 115.604 173.183 115.604 174.75C115.604 175.374 115.83 175.902 116.282 176.335C116.734 176.768 117.756 177.144 119.348 177.462C122.009 177.997 123.958 178.538 125.193 179.086C126.428 179.633 127.469 180.515 128.316 181.731C129.163 182.948 129.586 184.307 129.586 185.81C129.586 188.166 128.679 190.203 126.864 191.922C125.05 193.642 122.359 194.501 118.794 194.501C116.119 194.501 113.843 193.893 111.965 192.677C110.086 191.461 108.848 189.656 108.249 187.262L113.903 185.982C114.54 188.414 116.31 189.63 119.214 189.63C120.615 189.63 121.659 189.36 122.347 188.818C123.034 188.277 123.378 187.631 123.378 186.879C123.378 186.115 123.066 185.523 122.442 185.103C121.818 184.683 120.615 184.288 118.832 183.919C115.508 183.231 113.139 182.292 111.726 181.101C110.312 179.91 109.606 178.169 109.606 175.877C109.606 173.559 110.449 171.604 112.137 170.012C113.824 168.421 116.113 167.625 119.004 167.625C124.123 167.625 127.415 169.669 128.88 173.756ZM149.35 185.409H136.934C136.921 185.752 136.915 186.052 136.915 186.306C136.915 187.682 137.281 188.72 138.013 189.42C138.746 190.12 139.621 190.471 140.64 190.471C142.537 190.471 143.677 189.458 144.059 187.433L149.217 187.815C147.778 192.273 144.855 194.501 140.449 194.501C138.526 194.501 136.893 194.116 135.549 193.346C134.206 192.575 133.098 191.451 132.225 189.974C131.353 188.497 130.917 186.727 130.917 184.664C130.917 181.595 131.792 179.118 133.543 177.233C135.294 175.348 137.545 174.406 140.296 174.406C142.779 174.406 144.909 175.281 146.686 177.032C148.462 178.783 149.35 181.575 149.35 185.409ZM136.915 182.104H143.773C143.594 179.455 142.505 178.131 140.506 178.131C138.367 178.131 137.17 179.455 136.915 182.104Z" fill="#EEEEEE"/>
<path d="M119.004 168.077C116.222 168.077 114.045 168.834 112.447 170.342C110.85 171.848 110.058 173.684 110.058 175.877C110.058 178.043 110.713 179.656 112.018 180.755C113.363 181.888 115.667 182.802 118.924 183.475C120.761 183.856 122.009 184.265 122.695 184.728C123.445 185.232 123.831 185.966 123.831 186.879C123.831 187.776 123.419 188.55 122.627 189.174C121.847 189.787 120.707 190.083 119.214 190.083C116.283 190.083 114.374 188.881 113.59 186.517L108.81 187.599C109.418 189.661 110.549 191.221 112.211 192.297C114.012 193.463 116.203 194.049 118.794 194.049C122.253 194.049 124.832 193.224 126.553 191.594C128.279 189.959 129.134 188.039 129.134 185.81C129.134 184.399 128.738 183.13 127.945 181.99C127.144 180.84 126.167 180.013 125.009 179.5C123.811 178.968 121.89 178.435 119.259 177.906C117.587 177.572 116.502 177.173 115.969 176.662C115.428 176.144 115.151 175.497 115.151 174.75C115.151 172.882 116.594 171.948 119.233 171.947C121.532 171.948 123.131 172.956 123.953 174.927L128.288 173.477C126.82 169.869 123.756 168.077 119.004 168.077ZM123.4 176.067L123.255 175.64C122.618 173.763 121.308 172.853 119.233 172.853C117.033 172.853 116.056 173.485 116.056 174.75C116.056 175.25 116.232 175.661 116.595 176.008C116.966 176.363 117.925 176.716 119.437 177.018C122.128 177.559 124.104 178.108 125.376 178.672C126.689 179.254 127.794 180.19 128.688 181.473C129.587 182.765 130.039 184.215 130.039 185.81C130.039 188.292 129.079 190.448 127.176 192.251C125.267 194.059 122.466 194.954 118.794 194.954C116.036 194.954 113.674 194.323 111.719 193.057C109.741 191.777 108.436 189.874 107.81 187.371L107.698 186.922L114.231 185.444L114.341 185.867C114.923 188.09 116.507 189.178 119.214 189.178C120.522 189.178 121.471 188.932 122.067 188.463C122.65 188.004 122.926 187.485 122.926 186.879C122.926 186.265 122.688 185.814 122.189 185.478C121.628 185.1 120.469 184.72 118.74 184.362C115.349 183.66 112.916 182.696 111.434 181.447C109.912 180.165 109.153 178.295 109.153 175.877C109.153 173.434 110.048 171.36 111.826 169.683C113.603 168.007 116.004 167.172 119.004 167.172C124.305 167.172 127.773 169.325 129.306 173.604L129.462 174.039L123.4 176.067ZM146.368 177.355C144.676 175.687 142.66 174.858 140.296 174.858C137.669 174.858 135.539 175.75 133.875 177.541C132.206 179.338 131.37 181.704 131.37 184.664C131.37 186.649 131.786 188.34 132.615 189.744C133.449 191.155 134.501 192.223 135.774 192.953C137.045 193.682 138.601 194.049 140.449 194.049C144.471 194.049 147.163 192.13 148.598 188.223L144.417 187.914C143.919 189.889 142.632 190.923 140.64 190.923C139.505 190.923 138.517 190.528 137.701 189.747C136.87 188.953 136.462 187.797 136.462 186.306C136.462 186.046 136.469 185.741 136.482 185.392L136.498 184.956H148.894C148.827 181.468 147.977 178.941 146.368 177.355ZM137.368 186.306C137.368 187.567 137.692 188.486 138.326 189.093C138.974 189.713 139.738 190.018 140.64 190.018C142.313 190.018 143.272 189.167 143.614 187.35L143.689 186.952L149.824 187.407L149.647 187.955C148.149 192.595 145.056 194.954 140.449 194.954C138.451 194.954 136.74 194.55 135.324 193.738C133.911 192.928 132.747 191.747 131.836 190.204C130.92 188.654 130.464 186.804 130.464 184.664C130.464 181.485 131.379 178.898 133.212 176.925C135.05 174.946 137.422 173.953 140.296 173.953C142.898 173.953 145.142 174.876 147.003 176.71C148.878 178.558 149.803 181.465 149.803 185.409L149.803 185.861H137.373C137.369 186.023 137.368 186.171 137.368 186.306ZM136.417 182.557L136.464 182.061C136.74 179.196 138.112 177.678 140.506 177.678C142.773 177.678 144.031 179.209 144.224 182.074L144.257 182.557H136.417ZM143.277 181.651C143.027 179.553 142.119 178.583 140.506 178.583C138.754 178.583 137.748 179.56 137.427 181.651H143.277Z" fill="#232323"/>
<path d="M130.979 161.141L141.626 172.498L167.438 145.774L163.888 139.527L142.336 162.135L134.954 155.179L130.979 161.141Z" fill="url(#paint2_linear_1058_32680)"/>
<path d="M131.395 160.26L141.9 167.886L166.558 144.029L164.088 139.51L142.394 162.543L135.154 155.871L131.395 160.26Z" fill="url(#paint3_radial_1058_32680)"/>
<path d="M163.981 138.774L167.999 145.845L141.622 173.155L130.403 161.189L134.875 154.482L142.319 161.497L163.981 138.774ZM141.631 171.842L166.877 145.703L163.796 140.28L142.353 162.773L135.034 155.875L131.555 161.093L141.631 171.842Z" fill="black"/>
</g>
</g>
<g filter="url(#filter1_d_1058_32680)">
<rect x="240" y="106" width="128" height="128" rx="12" fill="#FFFEFD" shape-rendering="crispEdges"/>
<rect x="240.5" y="106.5" width="127" height="127" rx="11.5" stroke="#FFD9A7" shape-rendering="crispEdges"/>
<g clip-path="url(#clip1_1058_32680)">
<path d="M330.267 174.751H277.791V171.792C277.791 169.803 279.403 168.191 281.391 168.191H326.667C328.655 168.191 330.267 169.803 330.267 171.792V174.751Z" fill="#DFDEDF"/>
<path d="M326.611 209.071H281.447C279.428 209.071 277.791 207.434 277.791 205.415V174.751H330.267V205.415C330.267 207.434 328.631 209.071 326.611 209.071Z" fill="white"/>
<path d="M329.616 174.156V171.502C329.616 169.935 328.346 168.665 326.779 168.665H281.36C279.793 168.665 278.523 169.935 278.523 171.502V174.156H329.616ZM329.616 205.795V175.346H278.523V205.795C278.523 207.361 279.793 208.631 281.36 208.631H326.779C328.346 208.631 329.616 207.361 329.616 205.795ZM281.627 167.475L281.803 165.546L281.053 167.491C281.155 167.483 281.256 167.475 281.36 167.475H281.627ZM326.201 164.223L326.463 167.475H326.779C326.948 167.475 327.113 167.489 327.277 167.509L326.201 164.223ZM329.804 168.853C330.425 169.561 330.806 170.487 330.806 171.502V205.795C330.806 208.015 328.999 209.822 326.779 209.822H281.36C279.14 209.822 277.333 208.015 277.333 205.795V171.502C277.333 170.426 277.76 169.45 278.45 168.726L282.465 158.321L284.215 139.197L286.19 139.378L284.613 156.608L285.169 156.823L284.415 158.777L283.618 167.475H324.473L322.206 139.33L324.183 139.171L325.52 155.77L325.521 155.77L329.804 168.853ZM281.752 170.605C282.249 170.605 282.651 171.007 282.651 171.504C282.651 172 282.249 172.402 281.752 172.402C281.256 172.402 280.854 172 280.854 171.504C280.854 171.007 281.256 170.605 281.752 170.605ZM284.825 170.605C285.321 170.605 285.723 171.007 285.723 171.504C285.723 172 285.321 172.402 284.825 172.402C284.328 172.402 283.926 172 283.926 171.504C283.926 171.007 284.328 170.605 284.825 170.605ZM287.8 170.605C288.296 170.605 288.698 171.007 288.698 171.504C288.698 172 288.296 172.402 287.8 172.402C287.304 172.402 286.901 172 286.901 171.504C286.901 171.007 287.304 170.605 287.8 170.605Z" fill="black"/>
<path d="M284.857 190.104C285.012 189.925 285.093 189.691 285.093 189.399C285.093 189.108 285.012 188.882 284.857 188.704C284.695 188.525 284.467 188.441 284.175 188.441H282.745V190.367H284.175C284.467 190.367 284.695 190.282 284.857 190.104ZM284.175 187.285C284.792 187.285 285.28 187.473 285.645 187.858C286.011 188.243 286.19 188.76 286.19 189.399C286.19 190.047 286.011 190.555 285.654 190.94C285.288 191.326 284.801 191.523 284.175 191.523H282.745V194.116H281.639V187.285H284.175ZM290.137 191.474V189.481H291.327V193.981H290.137V193.575C289.776 193.936 289.308 194.116 288.721 194.116C288.18 194.116 287.748 193.936 287.414 193.584C287.081 193.232 286.918 192.782 286.918 192.223V189.481H288.108V191.97C288.108 192.286 288.189 192.547 288.361 192.737C288.523 192.926 288.739 193.025 289.019 193.025C289.767 193.025 290.137 192.511 290.137 191.474ZM295.97 192.709C296.205 192.466 296.322 192.141 296.322 191.736C296.322 191.33 296.205 190.996 295.97 190.753C295.727 190.509 295.429 190.383 295.059 190.383C294.726 190.383 294.428 190.509 294.167 190.762C293.905 191.014 293.779 191.339 293.779 191.736C293.779 192.132 293.905 192.457 294.167 192.7C294.428 192.953 294.726 193.079 295.059 193.079C295.429 193.079 295.727 192.953 295.97 192.709ZM295.267 189.346C295.853 189.346 296.376 189.572 296.818 190.023C297.26 190.482 297.476 191.05 297.476 191.736C297.476 192.421 297.26 192.989 296.818 193.44C296.376 193.891 295.862 194.116 295.267 194.116C294.681 194.116 294.185 193.954 293.779 193.629V196.127H292.589V189.481H293.779V189.842C294.176 189.509 294.672 189.346 295.267 189.346ZM301.758 192.709C301.993 192.466 302.11 192.141 302.11 191.736C302.11 191.33 301.993 190.996 301.758 190.753C301.515 190.509 301.217 190.383 300.848 190.383C300.514 190.383 300.217 190.509 299.955 190.762C299.694 191.014 299.567 191.339 299.567 191.736C299.567 192.132 299.694 192.457 299.955 192.7C300.217 192.953 300.514 193.079 300.848 193.079C301.217 193.079 301.515 192.953 301.758 192.709ZM301.055 189.346C301.641 189.346 302.164 189.572 302.606 190.023C303.047 190.482 303.264 191.05 303.264 191.736C303.264 192.421 303.047 192.989 302.606 193.44C302.164 193.891 301.65 194.116 301.055 194.116C300.469 194.116 299.973 193.954 299.567 193.629V196.127H298.377V189.481H299.567V189.842C299.964 189.509 300.46 189.346 301.055 189.346ZM305.022 191.213H307.195C307.123 190.933 306.987 190.726 306.798 190.59C306.609 190.455 306.383 190.383 306.131 190.383C305.887 190.383 305.653 190.455 305.445 190.6C305.229 190.744 305.085 190.951 305.022 191.213ZM306.131 189.346C306.744 189.346 307.276 189.563 307.718 189.987C308.159 190.419 308.385 190.969 308.412 191.645V192.051H304.986C305.049 192.367 305.184 192.619 305.392 192.809C305.599 192.998 305.833 193.097 306.113 193.097C306.627 193.097 306.996 192.899 307.231 192.502L308.295 192.727C308.105 193.187 307.817 193.53 307.438 193.765C307.059 193.999 306.618 194.116 306.113 194.116C305.463 194.116 304.913 193.891 304.472 193.449C304.03 193.007 303.804 192.43 303.804 191.736C303.804 191.042 304.03 190.464 304.481 190.014C304.922 189.572 305.473 189.346 306.131 189.346ZM311.694 193.007C311.919 193.007 312.171 192.935 312.442 192.791L312.784 193.782C312.37 194.008 311.982 194.116 311.612 194.116C311.062 194.116 310.629 193.963 310.314 193.665C309.998 193.368 309.845 192.926 309.845 192.322V190.455H308.88V189.481H309.845V188.12H311.035V189.481H312.505V190.455H311.035V192.232C311.035 192.746 311.252 193.007 311.694 193.007ZM314.191 191.213H316.363C316.291 190.933 316.156 190.726 315.967 190.59C315.777 190.455 315.552 190.383 315.299 190.383C315.056 190.383 314.822 190.455 314.614 190.6C314.398 190.744 314.254 190.951 314.191 191.213ZM315.299 189.346C315.913 189.346 316.445 189.563 316.887 189.987C317.328 190.419 317.554 190.969 317.581 191.645V192.051H314.155C314.218 192.367 314.353 192.619 314.56 192.809C314.768 192.998 315.002 193.097 315.282 193.097C315.796 193.097 316.165 192.899 316.4 192.502L317.463 192.727C317.274 193.187 316.986 193.53 316.607 193.765C316.228 193.999 315.787 194.116 315.282 194.116C314.632 194.116 314.082 193.891 313.641 193.449C313.199 193.007 312.973 192.43 312.973 191.736C312.973 191.042 313.199 190.464 313.65 190.014C314.091 189.572 314.642 189.346 315.299 189.346ZM319.537 191.213H321.71C321.638 190.933 321.502 190.726 321.313 190.59C321.124 190.455 320.898 190.383 320.646 190.383C320.403 190.383 320.168 190.455 319.961 190.6C319.744 190.744 319.6 190.951 319.537 191.213ZM320.646 189.346C321.259 189.346 321.791 189.563 322.233 189.987C322.675 190.419 322.9 190.969 322.927 191.645V192.051H319.501C319.564 192.367 319.699 192.619 319.907 192.809C320.114 192.998 320.348 193.097 320.628 193.097C321.142 193.097 321.512 192.899 321.746 192.502L322.81 192.727C322.62 193.187 322.332 193.53 321.953 193.765C321.575 193.999 321.133 194.116 320.628 194.116C319.979 194.116 319.429 193.891 318.987 193.449C318.545 193.007 318.319 192.43 318.319 191.736C318.319 191.042 318.545 190.464 318.996 190.014C319.438 189.572 319.988 189.346 320.646 189.346ZM326.632 189.418C326.768 189.418 326.876 189.427 326.948 189.454L326.885 190.6H326.624C325.551 190.6 325.018 191.24 325.018 192.529V193.981H323.828V189.482H325.018V190.302C325.424 189.716 325.965 189.418 326.632 189.418Z" fill="black"/>
<path d="M321.426 157.705L327.847 154.605V151.505L313.012 144.42L327.847 136.781V133.792L321.648 130.913L304.082 139.659L286.221 130.913L280.464 134.013V136.67L294.413 144.309L280.464 151.395V154.605L286.442 157.705L304.156 148.627L321.426 157.705Z" fill="#00D8A2"/>
<path d="M322.231 156.441V155.105L327.065 152.601V154.101L322.231 156.441ZM280.853 152.566L285.523 155.247V156.314L280.853 153.951V152.566ZM304.776 146.927L320.843 154.866V156.462L304.776 148.231V146.927ZM286.912 155.098L303.388 146.929V148.231L286.912 156.567V155.098ZM298.578 141.75L281.905 133.7L286.223 131.505L304.082 140.763L321.642 131.509L326.113 133.799L309.853 141.982C309.203 142.309 309.204 143.237 309.855 143.563L325.946 151.617L321.776 153.778L304.082 144.712L286.076 153.963L281.963 151.602L298.587 143.338C299.246 143.011 299.24 142.069 298.578 141.75ZM281.061 136.427V134.962L296.611 142.72L295.039 143.348L281.061 136.427ZM312.947 143.435C312.925 143.422 311.457 142.729 311.457 142.729L327.065 134.874V136.346L312.947 143.435ZM314.509 144.204L328.227 137.316C328.366 137.246 328.453 137.104 328.453 136.949V133.69C328.453 133.535 328.367 133.394 328.23 133.324L321.831 130.046C321.714 129.986 321.575 129.986 321.458 130.046L304.266 138.769C304.151 138.828 304.013 138.829 303.897 138.77L286.403 130.043C286.286 129.985 286.149 129.986 286.033 130.045L279.689 133.268C279.551 133.339 279.464 133.48 279.464 133.635V136.947C279.464 137.103 279.553 137.246 279.693 137.315L293.469 144.121L279.757 150.93C279.62 150.998 279.532 151.137 279.529 151.291L279.469 154.547C279.466 154.705 279.554 154.85 279.695 154.921L286.282 158.254C286.398 158.313 286.535 158.313 286.652 158.255L303.897 149.596C304.013 149.537 304.151 149.537 304.267 149.597L321.297 158.255C321.411 158.313 321.546 158.315 321.662 158.259L328.221 155.083C328.363 155.015 328.453 154.871 328.453 154.713V151.311C328.453 151.154 328.364 151.011 328.223 150.942L314.509 144.204Z" fill="black"/>
</g>
</g>
<g filter="url(#filter2_d_1058_32680)">
<rect x="408" y="106" width="128" height="128" rx="12" fill="#FFFEFD" shape-rendering="crispEdges"/>
<rect x="408.5" y="106.5" width="127" height="127" rx="11.5" stroke="#FFD9A7" shape-rendering="crispEdges"/>
<rect x="438" y="136" width="68" height="68" rx="34" fill="#2D4552"/>
<path d="M463.333 172.939C461.576 173.438 460.423 174.312 459.664 175.186C460.391 174.55 461.366 173.965 462.68 173.593C464.024 173.212 465.171 173.215 466.118 173.397V172.656C465.31 172.583 464.383 172.641 463.333 172.939ZM459.584 166.71L453.058 168.43C453.058 168.43 453.177 168.598 453.397 168.822L458.93 167.364C458.93 167.364 458.852 168.374 458.171 169.278C459.459 168.303 459.584 166.71 459.584 166.71ZM465.046 182.047C455.862 184.521 451.004 173.878 449.533 168.354C448.853 165.804 448.556 163.873 448.477 162.627C448.469 162.497 448.473 162.388 448.482 162.288C448.005 162.317 447.777 162.564 447.824 163.28C447.903 164.526 448.2 166.457 448.879 169.007C450.35 174.531 455.209 185.174 464.393 182.7C466.392 182.162 467.893 181.181 469.021 179.929C467.982 180.867 466.681 181.606 465.046 182.047ZM466.772 160.197V160.85H470.374C470.3 160.619 470.226 160.41 470.152 160.197H466.772Z" fill="#2D4552"/>
<path d="M471.179 165.58C472.799 166.04 473.656 167.176 474.109 168.181L475.915 168.694C475.915 168.694 475.669 165.176 472.487 164.272C469.51 163.426 467.678 165.926 467.456 166.249C468.321 165.633 469.586 165.127 471.179 165.58ZM485.558 168.197C482.578 167.347 480.747 169.852 480.527 170.171C481.394 169.555 482.658 169.05 484.25 169.504C485.868 169.965 486.724 171.099 487.178 172.105L488.987 172.62C488.987 172.62 488.737 169.101 485.558 168.197ZM483.763 177.472L468.737 173.271C468.737 173.271 468.9 174.096 469.524 175.164L482.175 178.701C483.217 178.098 483.763 177.472 483.763 177.472ZM473.345 186.514C461.448 183.324 462.886 168.165 464.811 160.982C465.604 158.021 466.419 155.821 467.095 154.346C466.692 154.263 466.358 154.475 466.028 155.147C465.31 156.602 464.393 158.971 463.505 162.289C461.58 169.472 460.142 184.63 472.039 187.82C477.646 189.323 482.015 187.039 485.271 183.454C482.18 186.253 478.234 187.823 473.345 186.514Z" fill="#2D4552"/>
<path d="M466.772 178.495V175.436L458.273 177.846C458.273 177.846 458.901 174.197 463.333 172.939C464.678 172.558 465.825 172.561 466.772 172.744V160.197H471.028C470.564 158.765 470.116 157.663 469.74 156.897C469.117 155.629 468.478 156.469 467.029 157.682C466.008 158.534 463.428 160.354 459.546 161.4C455.663 162.447 452.524 162.169 451.215 161.942C449.358 161.622 448.387 161.214 448.478 162.627C448.557 163.872 448.854 165.803 449.533 168.354C451.004 173.877 455.863 184.52 465.047 182.047C467.446 181.4 469.139 180.123 470.313 178.494H466.772V178.495ZM453.057 168.43L459.584 166.71C459.584 166.71 459.393 169.221 456.947 169.866C454.499 170.51 453.057 168.43 453.057 168.43Z" fill="#E2574C"/>
<path d="M491.334 160.342C489.638 160.639 485.568 161.01 480.538 159.662C475.507 158.314 472.169 155.958 470.846 154.85C468.971 153.28 468.146 152.188 467.335 153.839C466.617 155.295 465.7 157.665 464.811 160.982C462.887 168.165 461.449 183.324 473.345 186.513C485.24 189.7 491.572 175.853 493.497 168.669C494.385 165.352 494.774 162.841 494.882 161.222C495.004 159.387 493.744 159.92 491.334 160.342ZM467.431 166.285C467.431 166.285 469.306 163.369 472.486 164.273C475.668 165.177 475.914 168.694 475.914 168.694L467.431 166.285ZM475.194 179.37C469.6 177.732 468.738 173.271 468.738 173.271L483.763 177.472C483.763 177.471 480.73 180.988 475.194 179.37ZM480.506 170.204C480.506 170.204 482.378 167.29 485.558 168.196C488.737 169.101 488.987 172.619 488.987 172.619L480.506 170.204Z" fill="#2EAD33"/>
<path d="M463.802 176.278L458.273 177.845C458.273 177.845 458.873 174.424 462.946 173.068L459.815 161.318L459.545 161.4C455.663 162.447 452.524 162.169 451.214 161.942C449.358 161.622 448.386 161.214 448.477 162.627C448.556 163.872 448.853 165.803 449.533 168.354C451.003 173.877 455.862 184.52 465.046 182.047L465.317 181.962L463.802 176.278ZM453.057 168.43L459.584 166.71C459.584 166.71 459.393 169.221 456.947 169.866C454.499 170.51 453.057 168.43 453.057 168.43Z" fill="#D65348"/>
<path d="M475.446 179.431L475.193 179.37C469.6 177.732 468.737 173.271 468.737 173.271L476.485 175.437L480.587 159.675L480.537 159.662C475.506 158.314 472.168 155.958 470.845 154.85C468.97 153.28 468.146 152.188 467.334 153.839C466.617 155.295 465.7 157.665 464.811 160.982C462.887 168.165 461.449 183.324 473.345 186.513L473.589 186.568L475.446 179.431ZM467.431 166.285C467.431 166.285 469.306 163.369 472.486 164.273C475.668 165.177 475.914 168.694 475.914 168.694L467.431 166.285Z" fill="#1D8D22"/>
<path d="M464.084 176.198L462.601 176.619C462.951 178.593 463.569 180.489 464.538 182.163C464.706 182.126 464.874 182.094 465.046 182.047C465.496 181.925 465.913 181.775 466.315 181.611C465.233 180.004 464.516 178.153 464.084 176.198ZM463.505 162.289C462.743 165.133 462.061 169.226 462.249 173.332C462.584 173.186 462.939 173.051 463.333 172.939L463.608 172.877C463.273 168.492 463.997 164.022 464.812 160.982C465.018 160.212 465.225 159.497 465.432 158.83C465.099 159.041 464.741 159.258 464.333 159.482C464.058 160.331 463.78 161.259 463.505 162.289Z" fill="#C04B41"/>
</g>
<defs>
<filter id="filter0_d_1058_32680" x="72" y="106" width="131" height="132" filterUnits="userSpaceOnUse" color-interpolation-filters="sRGB">
<feFlood flood-opacity="0" result="BackgroundImageFix"/>
<feColorMatrix in="SourceAlpha" type="matrix" values="0 0 0 0 0 0 0 0 0 0 0 0 0 0 0 0 0 0 127 0" result="hardAlpha"/>
<feOffset dx="3" dy="4"/>
<feComposite in2="hardAlpha" operator="out"/>
<feColorMatrix type="matrix" values="0 0 0 0 1 0 0 0 0 0.85098 0 0 0 0 0.654902 0 0 0 1 0"/>
<feBlend mode="normal" in2="BackgroundImageFix" result="effect1_dropShadow_1058_32680"/>
<feBlend mode="normal" in="SourceGraphic" in2="effect1_dropShadow_1058_32680" result="shape"/>
</filter>
<filter id="filter1_d_1058_32680" x="240" y="106" width="131" height="132" filterUnits="userSpaceOnUse" color-interpolation-filters="sRGB">
<feFlood flood-opacity="0" result="BackgroundImageFix"/>
<feColorMatrix in="SourceAlpha" type="matrix" values="0 0 0 0 0 0 0 0 0 0 0 0 0 0 0 0 0 0 127 0" result="hardAlpha"/>
<feOffset dx="3" dy="4"/>
<feComposite in2="hardAlpha" operator="out"/>
<feColorMatrix type="matrix" values="0 0 0 0 1 0 0 0 0 0.85098 0 0 0 0 0.654902 0 0 0 1 0"/>
<feBlend mode="normal" in2="BackgroundImageFix" result="effect1_dropShadow_1058_32680"/>
<feBlend mode="normal" in="SourceGraphic" in2="effect1_dropShadow_1058_32680" result="shape"/>
</filter>
<filter id="filter2_d_1058_32680" x="408" y="106" width="131" height="132" filterUnits="userSpaceOnUse" color-interpolation-filters="sRGB">
<feFlood flood-opacity="0" result="BackgroundImageFix"/>
<feColorMatrix in="SourceAlpha" type="matrix" values="0 0 0 0 0 0 0 0 0 0 0 0 0 0 0 0 0 0 127 0" result="hardAlpha"/>
<feOffset dx="3" dy="4"/>
<feComposite in2="hardAlpha" operator="out"/>
<feColorMatrix type="matrix" values="0 0 0 0 1 0 0 0 0 0.85098 0 0 0 0 0.654902 0 0 0 1 0"/>
<feBlend mode="normal" in2="BackgroundImageFix" result="effect1_dropShadow_1058_32680"/>
<feBlend mode="normal" in="SourceGraphic" in2="effect1_dropShadow_1058_32680" result="shape"/>
</filter>
<radialGradient id="paint0_radial_1058_32680" cx="0" cy="0" r="1" gradientUnits="userSpaceOnUse" gradientTransform="translate(638.667 13322.5) scale(15216.5)">
<stop stop-color="#212121"/>
<stop offset="1" stop-color="#B8B8B8"/>
</radialGradient>
<linearGradient id="paint1_linear_1058_32680" x1="6992.83" y1="13280.4" x2="6992.83" y2="145.485" gradientUnits="userSpaceOnUse">
<stop stop-color="#4B4B4B"/>
<stop offset="1" stop-color="white"/>
</linearGradient>
<linearGradient id="paint2_linear_1058_32680" x1="3061.17" y1="7032.64" x2="5040.11" y2="2389.55" gradientUnits="userSpaceOnUse">
<stop stop-color="#26761E"/>
<stop offset="1" stop-color="#2CB134" stop-opacity="0.996078"/>
</linearGradient>
<radialGradient id="paint3_radial_1058_32680" cx="0" cy="0" r="1" gradientUnits="userSpaceOnUse" gradientTransform="translate(2351.7 3572.76) scale(3765.88 3765.87)">
<stop stop-color="white"/>
<stop offset="1" stop-color="white" stop-opacity="0"/>
</radialGradient>
<clipPath id="clip0_1058_32680">
<rect width="64" height="62.25" fill="white" transform="translate(104 138.711)"/>
</clipPath>
<clipPath id="clip1_1058_32680">
<rect width="53.4726" height="80" fill="white" transform="translate(277.333 130)"/>
</clipPath>
</defs>
</svg>
