<svg width="608" height="340" viewBox="0 0 608 340" fill="none" xmlns="http://www.w3.org/2000/svg">
<rect width="608" height="340" rx="16" fill="#EFF1FF"/>
<rect x="100.5" y="54.5" width="71" height="71" rx="19.5" fill="white"/>
<rect x="100.5" y="54.5" width="71" height="71" rx="19.5" stroke="#C5CFFF"/>
<path d="M128 96C127.264 96 126.667 96.597 126.667 97.3334C126.667 98.0697 127.264 98.6667 128 98.6667H128.013C128.75 98.6667 129.347 98.0697 129.347 97.3334C129.347 96.597 128.75 96 128.013 96H128Z" fill="#646AEE"/>
<path d="M136 96C135.264 96 134.667 96.597 134.667 97.3334C134.667 98.0697 135.264 98.6667 136 98.6667H144C144.736 98.6667 145.333 98.0697 145.333 97.3334C145.333 96.597 144.736 96 144 96H136Z" fill="#646AEE"/>
<path fill-rule="evenodd" clip-rule="evenodd" d="M142.079 76.6667H129.921C128.914 76.6667 128.08 76.6667 127.398 76.7208C126.687 76.7771 126.033 76.898 125.411 77.199C124.442 77.6676 123.638 78.4184 123.104 79.3526C122.761 79.9526 122.595 80.5966 122.49 81.3015C122.389 81.9785 122.332 82.8102 122.262 83.8152L121.384 96.547C121.351 96.8044 121.333 97.0668 121.333 97.3334C121.333 100.647 124.02 103.333 127.333 103.333H144.667C147.98 103.333 150.667 100.647 150.667 97.3334C150.667 97.0668 150.649 96.8044 150.616 96.547L149.738 83.815C149.668 82.8102 149.611 81.9784 149.51 81.3015C149.405 80.5967 149.239 79.9526 148.896 79.3526C148.362 78.4184 147.558 77.6676 146.589 77.199C145.967 76.898 145.313 76.7771 144.602 76.7208C143.92 76.6667 143.086 76.6667 142.079 76.6667ZM124.038 96.8285L124 97.3755C124.023 99.197 125.506 100.667 127.333 100.667H144.667C146.494 100.667 147.977 99.197 148 97.3755L147.962 96.8285C147.719 95.2271 146.336 94 144.667 94H127.333C125.664 94 124.281 95.2271 124.038 96.8285ZM130 87.5111C130 88.8857 131.074 90 132.4 90H139.3C140.791 90 142 88.7464 142 87.2C142 85.9715 141.237 84.9277 140.176 84.5506C139.949 82.3669 138.166 80.6667 136 80.6667C133.68 80.6667 131.8 82.6167 131.8 85.0222C131.8 85.0484 131.8 85.0745 131.801 85.1005C130.765 85.3765 130 86.3512 130 87.5111Z" fill="#646AEE"/>
<rect x="212.5" y="54.5" width="71" height="71" rx="19.5" fill="white"/>
<rect x="212.5" y="54.5" width="71" height="71" rx="19.5" stroke="#C5CFFF"/>
<path d="M240 96C239.264 96 238.667 96.597 238.667 97.3334C238.667 98.0697 239.264 98.6667 240 98.6667H240.013C240.75 98.6667 241.347 98.0697 241.347 97.3334C241.347 96.597 240.75 96 240.013 96H240Z" fill="#646AEE"/>
<path d="M248 96C247.264 96 246.667 96.597 246.667 97.3334C246.667 98.0697 247.264 98.6667 248 98.6667H256C256.736 98.6667 257.333 98.0697 257.333 97.3334C257.333 96.597 256.736 96 256 96H248Z" fill="#646AEE"/>
<path fill-rule="evenodd" clip-rule="evenodd" d="M254.079 76.6667H241.921C240.914 76.6667 240.08 76.6667 239.398 76.7208C238.687 76.7771 238.033 76.898 237.411 77.199C236.442 77.6676 235.638 78.4184 235.104 79.3526C234.761 79.9526 234.595 80.5966 234.49 81.3015C234.389 81.9785 234.332 82.8102 234.262 83.8152L233.384 96.547C233.351 96.8044 233.333 97.0668 233.333 97.3334C233.333 100.647 236.02 103.333 239.333 103.333H256.667C259.98 103.333 262.667 100.647 262.667 97.3334C262.667 97.0668 262.649 96.8044 262.616 96.547L261.738 83.815C261.668 82.8102 261.611 81.9784 261.51 81.3015C261.405 80.5967 261.239 79.9526 260.896 79.3526C260.362 78.4184 259.558 77.6676 258.589 77.199C257.967 76.898 257.313 76.7771 256.602 76.7208C255.92 76.6667 255.086 76.6667 254.079 76.6667ZM236.038 96.8285L236 97.3755C236.023 99.197 237.506 100.667 239.333 100.667H256.667C258.494 100.667 259.977 99.197 260 97.3755L259.962 96.8285C259.719 95.2271 258.336 94 256.667 94H239.333C237.664 94 236.281 95.2271 236.038 96.8285ZM242 87.5111C242 88.8857 243.074 90 244.4 90H251.3C252.791 90 254 88.7464 254 87.2C254 85.9715 253.237 84.9277 252.176 84.5506C251.949 82.3669 250.166 80.6667 248 80.6667C245.68 80.6667 243.8 82.6167 243.8 85.0222C243.8 85.0484 243.8 85.0745 243.801 85.1005C242.765 85.3765 242 86.3512 242 87.5111Z" fill="#646AEE"/>
<rect x="324.5" y="54.5" width="71" height="71" rx="19.5" fill="white"/>
<rect x="324.5" y="54.5" width="71" height="71" rx="19.5" stroke="#C5CFFF"/>
<path d="M352 96C351.264 96 350.667 96.597 350.667 97.3334C350.667 98.0697 351.264 98.6667 352 98.6667H352.013C352.75 98.6667 353.347 98.0697 353.347 97.3334C353.347 96.597 352.75 96 352.013 96H352Z" fill="#646AEE"/>
<path d="M360 96C359.264 96 358.667 96.597 358.667 97.3334C358.667 98.0697 359.264 98.6667 360 98.6667H368C368.736 98.6667 369.333 98.0697 369.333 97.3334C369.333 96.597 368.736 96 368 96H360Z" fill="#646AEE"/>
<path fill-rule="evenodd" clip-rule="evenodd" d="M366.079 76.6667H353.921C352.914 76.6667 352.08 76.6667 351.398 76.7208C350.687 76.7771 350.033 76.898 349.411 77.199C348.442 77.6676 347.638 78.4184 347.104 79.3526C346.761 79.9526 346.595 80.5966 346.49 81.3015C346.389 81.9785 346.332 82.8102 346.262 83.8152L345.384 96.547C345.351 96.8044 345.333 97.0668 345.333 97.3334C345.333 100.647 348.02 103.333 351.333 103.333H368.667C371.98 103.333 374.667 100.647 374.667 97.3334C374.667 97.0668 374.649 96.8044 374.616 96.547L373.738 83.815C373.668 82.8102 373.611 81.9784 373.51 81.3015C373.405 80.5967 373.239 79.9526 372.896 79.3526C372.362 78.4184 371.558 77.6676 370.589 77.199C369.967 76.898 369.313 76.7771 368.602 76.7208C367.92 76.6667 367.086 76.6667 366.079 76.6667ZM348.038 96.8285L348 97.3755C348.023 99.197 349.506 100.667 351.333 100.667H368.667C370.494 100.667 371.977 99.197 372 97.3755L371.962 96.8285C371.719 95.2271 370.336 94 368.667 94H351.333C349.664 94 348.281 95.2271 348.038 96.8285ZM354 87.5111C354 88.8857 355.074 90 356.4 90H363.3C364.791 90 366 88.7464 366 87.2C366 85.9715 365.237 84.9277 364.176 84.5506C363.949 82.3669 362.166 80.6667 360 80.6667C357.68 80.6667 355.8 82.6167 355.8 85.0222C355.8 85.0484 355.8 85.0745 355.801 85.1005C354.765 85.3765 354 86.3512 354 87.5111Z" fill="#646AEE"/>
<rect x="436.5" y="54.5" width="71" height="71" rx="19.5" fill="white"/>
<rect x="436.5" y="54.5" width="71" height="71" rx="19.5" stroke="#C5CFFF"/>
<path d="M464 96C463.264 96 462.667 96.597 462.667 97.3334C462.667 98.0697 463.264 98.6667 464 98.6667H464.013C464.75 98.6667 465.347 98.0697 465.347 97.3334C465.347 96.597 464.75 96 464.013 96H464Z" fill="#646AEE"/>
<path d="M472 96C471.264 96 470.667 96.597 470.667 97.3334C470.667 98.0697 471.264 98.6667 472 98.6667H480C480.736 98.6667 481.333 98.0697 481.333 97.3334C481.333 96.597 480.736 96 480 96H472Z" fill="#646AEE"/>
<path fill-rule="evenodd" clip-rule="evenodd" d="M478.079 76.6667H465.921C464.914 76.6667 464.08 76.6667 463.398 76.7208C462.687 76.7771 462.033 76.898 461.411 77.199C460.442 77.6676 459.638 78.4184 459.104 79.3526C458.761 79.9526 458.595 80.5966 458.49 81.3015C458.389 81.9785 458.332 82.8102 458.262 83.8152L457.384 96.547C457.351 96.8044 457.333 97.0668 457.333 97.3334C457.333 100.647 460.02 103.333 463.333 103.333H480.667C483.98 103.333 486.667 100.647 486.667 97.3334C486.667 97.0668 486.649 96.8044 486.616 96.547L485.738 83.815C485.668 82.8102 485.611 81.9784 485.51 81.3015C485.405 80.5967 485.239 79.9526 484.896 79.3526C484.362 78.4184 483.558 77.6676 482.589 77.199C481.967 76.898 481.313 76.7771 480.602 76.7208C479.92 76.6667 479.086 76.6667 478.079 76.6667ZM460.038 96.8285L460 97.3755C460.023 99.197 461.506 100.667 463.333 100.667H480.667C482.494 100.667 483.977 99.197 484 97.3755L483.962 96.8285C483.719 95.2271 482.336 94 480.667 94H463.333C461.664 94 460.281 95.2271 460.038 96.8285ZM466 87.5111C466 88.8857 467.074 90 468.4 90H475.3C476.791 90 478 88.7464 478 87.2C478 85.9715 477.237 84.9277 476.176 84.5506C475.949 82.3669 474.166 80.6667 472 80.6667C469.68 80.6667 467.8 82.6167 467.8 85.0222C467.8 85.0484 467.8 85.0745 467.801 85.1005C466.765 85.3765 466 86.3512 466 87.5111Z" fill="#646AEE"/>
<rect x="278" y="220" width="56" height="56" rx="28" fill="#646EE6"/>
<g clip-path="url(#clip0_1131_17499)">
<path d="M307.067 249.067L304.8 251.333L302.667 249.2L304.933 246.933C305.126 246.677 305.219 246.359 305.197 246.039C305.174 245.719 305.036 245.417 304.809 245.191C304.583 244.964 304.281 244.826 303.961 244.803C303.641 244.781 303.323 244.874 303.067 245.067L300.8 247.333L299.933 246.467C299.815 246.337 299.67 246.234 299.51 246.163C299.349 246.093 299.176 246.056 299 246.056C298.825 246.056 298.651 246.093 298.49 246.163C298.33 246.234 298.185 246.337 298.067 246.467L296.067 248.467C295.439 249.072 294.938 249.796 294.595 250.598C294.251 251.399 294.072 252.261 294.067 253.133C294.042 254.476 294.464 255.789 295.267 256.867L293.067 259.067C292.937 259.185 292.834 259.33 292.763 259.49C292.693 259.651 292.656 259.824 292.656 260C292.656 260.175 292.693 260.349 292.763 260.51C292.834 260.67 292.937 260.815 293.067 260.933C293.185 261.063 293.33 261.166 293.49 261.237C293.651 261.307 293.825 261.344 294 261.344C294.176 261.344 294.349 261.307 294.51 261.237C294.67 261.166 294.815 261.063 294.933 260.933L297.067 258.8C298.213 259.624 299.589 260.067 301 260.067C302.769 260.063 304.467 259.369 305.733 258.133L307.733 256.133C307.985 255.887 308.128 255.552 308.133 255.2C308.144 255.024 308.113 254.848 308.044 254.686C307.974 254.524 307.868 254.38 307.733 254.267L306.667 253.2L308.933 250.933C309.126 250.677 309.219 250.359 309.197 250.039C309.174 249.719 309.036 249.417 308.809 249.191C308.583 248.964 308.281 248.826 307.961 248.803C307.641 248.781 307.323 248.874 307.067 249.067ZM303.867 256.267C303.108 257.004 302.091 257.416 301.033 257.416C299.975 257.416 298.959 257.004 298.2 256.267L297.933 256C297.187 255.229 296.759 254.206 296.733 253.133C296.748 252.078 297.18 251.072 297.933 250.333L299 249.267L304.867 255.2L303.867 256.267Z" fill="white"/>
<path d="M318.933 235.067C318.815 234.937 318.67 234.834 318.51 234.763C318.349 234.693 318.176 234.656 318 234.656C317.824 234.656 317.651 234.693 317.49 234.763C317.33 234.834 317.185 234.937 317.067 235.067L314.8 237.333C313.522 236.381 311.945 235.918 310.356 236.028C308.766 236.138 307.268 236.814 306.133 237.933L304.133 239.933C303.882 240.179 303.738 240.515 303.733 240.867C303.723 241.043 303.754 241.219 303.823 241.381C303.892 241.543 303.999 241.686 304.133 241.8L311.933 249.6C312.052 249.729 312.196 249.833 312.357 249.903C312.518 249.974 312.691 250.01 312.867 250.01C313.042 250.01 313.216 249.974 313.376 249.903C313.537 249.833 313.681 249.729 313.8 249.6L315.8 247.667C316.421 247.046 316.912 246.308 317.244 245.495C317.576 244.682 317.742 243.811 317.733 242.933C317.728 241.635 317.358 240.365 316.667 239.267L318.933 236.933C319.063 236.815 319.166 236.67 319.237 236.51C319.307 236.349 319.344 236.176 319.344 236C319.344 235.824 319.307 235.651 319.237 235.49C319.166 235.33 319.063 235.185 318.933 235.067Z" fill="white"/>
</g>
<path d="M299.44 300.34H293.88L292.96 303H290.02L295.04 289.02H298.3L303.32 303H300.36L299.44 300.34ZM298.68 298.1L296.66 292.26L294.64 298.1H298.68ZM315.376 293.36C315.376 294.107 315.196 294.807 314.836 295.46C314.49 296.113 313.936 296.64 313.176 297.04C312.43 297.44 311.483 297.64 310.336 297.64H307.996V303H305.196V289.04H310.336C311.416 289.04 312.336 289.227 313.096 289.6C313.856 289.973 314.423 290.487 314.796 291.14C315.183 291.793 315.376 292.533 315.376 293.36ZM310.216 295.38C310.99 295.38 311.563 295.207 311.936 294.86C312.31 294.5 312.496 294 312.496 293.36C312.496 292 311.736 291.32 310.216 291.32H307.996V295.38H310.216ZM320.164 289.04V303H317.364V289.04H320.164Z" fill="#646AEE"/>
<path d="M136 130V155C136 168.255 146.745 179 160 179H282C295.255 179 306 189.745 306 203V216" stroke="#C5CFFF" stroke-width="2" stroke-linecap="round" stroke-linejoin="bevel"/>
<path d="M472 130V155C472 168.255 461.255 179 448 179H330C316.745 179 306 189.745 306 203V216" stroke="#C5CFFF" stroke-width="2" stroke-linecap="round" stroke-linejoin="bevel"/>
<path d="M248 130V155C248 168.255 258.745 179 272 179H282C295.255 179 306 189.745 306 203V216" stroke="#C5CFFF" stroke-width="2" stroke-linecap="round" stroke-linejoin="bevel"/>
<path d="M360 130V155C360 168.255 349.255 179 336 179H330C316.745 179 306 189.745 306 203V216" stroke="#C5CFFF" stroke-width="2" stroke-linecap="round" stroke-linejoin="bevel"/>
<defs>
<clipPath id="clip0_1131_17499">
<rect width="32" height="32" fill="white" transform="translate(290 232)"/>
</clipPath>
</defs>
</svg>
