<svg width="608" height="340" viewBox="0 0 608 340" fill="none" xmlns="http://www.w3.org/2000/svg">
<rect width="608" height="340" rx="16" fill="#EFF1FF"/>
<path d="M50 73C50 66.3726 55.3726 61 62 61H546C552.627 61 558 66.3726 558 73V340H50L50 73Z" fill="white"/>
<g clip-path="url(#clip0_1058_32573)">
<rect x="162" y="237.2" width="283.2" height="93.6" rx="7.2" fill="#F7F9FF"/>
<path d="M514.8 281.694C506.766 281.694 498.633 283.139 491.368 286.713C484.871 289.906 479.317 294.823 473.639 299.284C469.2 302.781 464.663 306.178 459.629 308.737C442.148 317.634 419.559 315.302 403.838 303.668C397.069 298.65 390.845 292.795 383.555 288.639C365.95 278.577 342.543 279.641 325.88 291.325C317.003 297.535 309.564 305.468 299.497 309.802C293.522 312.362 287.099 313.883 280.603 314.212C270.635 314.694 260.568 312.362 251.765 307.572C242.963 302.781 235.673 294.772 226.945 289.349C213.803 281.187 195.231 279.033 180.725 284.533C171.402 288.056 163.641 294.747 155.681 300.805C150.796 304.505 145.713 308.028 140.134 310.537C133.687 313.376 126.943 314.085 120 314.085" stroke="#E3E8FF" stroke-width="3" stroke-miterlimit="10"/>
<path d="M158.251 286.697C166.155 289.567 174.182 292.059 182.164 294.687C192.403 298.055 202.241 302.359 212.883 304.519C229.897 307.978 243.756 304.489 258.806 296.303C266.184 292.285 273.439 287.936 281.312 284.96C289.293 281.955 297.862 280.399 306.215 282.816C311.613 284.371 316.624 286.969 321.775 289.204C332.572 293.901 344.373 296.695 355.881 292.904C374.968 286.606 381.388 266.851 397.768 257.14C412.988 248.108 428.317 253.968 437.968 267.38C449.445 283.314 456.824 301.649 475.184 311.542" stroke="#C5CFFF" stroke-width="3" stroke-miterlimit="10"/>
</g>
<rect x="291.6" y="195.2" width="11.04" height="28.8" rx="2.4" fill="#EFF1FF"/>
<rect x="307.44" y="201.2" width="11.04" height="22.8" rx="2.4" fill="#EFF1FF"/>
<rect x="323.28" y="185.6" width="11.04" height="38.4" rx="2.4" fill="#EFF1FF"/>
<rect x="339.12" y="190.4" width="11.04" height="33.6" rx="2.4" fill="#EFF1FF"/>
<rect x="354.96" y="198.237" width="11.04" height="25.7627" rx="2.4" fill="#EFF1FF"/>
<rect x="370.8" y="178.4" width="11.04" height="45.6" rx="2.4" fill="#EFF1FF"/>
<rect x="386.64" y="198.237" width="11.04" height="25.7627" rx="2.4" fill="#EFF1FF"/>
<rect x="402.48" y="208.8" width="11.04" height="15.2" rx="2.4" fill="#EFF1FF"/>
<rect x="418.32" y="207.2" width="11.04" height="16.8" rx="2.4" fill="#EFF1FF"/>
<rect x="434.16" y="190.4" width="11.04" height="33.6" rx="2.4" fill="#EFF1FF"/>
<rect x="162" y="128" width="120" height="96" rx="7.2" fill="#F7F9FF"/>
<path fill-rule="evenodd" clip-rule="evenodd" d="M232.303 159.2C230.241 159.2 228.57 160.871 228.57 162.933C228.57 164.995 230.241 166.667 232.303 166.667C234.365 166.667 236.036 164.995 236.036 162.933C236.036 160.871 234.365 159.2 232.303 159.2ZM215.964 166.488C216.865 166.121 217.874 166.121 218.776 166.488C219.454 166.763 219.924 167.241 220.266 167.65C220.591 168.04 220.942 168.547 221.318 169.091L226.533 176.623C226.877 176.107 227.198 175.632 227.498 175.26C227.84 174.836 228.313 174.337 229.006 174.05C229.922 173.67 230.951 173.67 231.866 174.05C232.559 174.337 233.033 174.836 233.374 175.26C233.701 175.665 234.053 176.194 234.433 176.763L240.139 185.322C240.603 186.018 241.021 186.644 241.309 187.176C241.597 187.707 241.926 188.437 241.875 189.289C241.81 190.379 241.271 191.385 240.401 192.044C239.72 192.559 238.93 192.69 238.328 192.745C237.726 192.8 236.973 192.8 236.136 192.8H206.189C205.335 192.8 204.57 192.8 203.96 192.744C203.352 192.689 202.55 192.557 201.864 192.032C200.99 191.363 200.455 190.343 200.403 189.243C200.362 188.381 200.71 187.647 201.01 187.115C201.312 186.581 201.748 185.952 202.233 185.251L213.379 169.151C213.393 169.131 213.407 169.111 213.421 169.091C213.797 168.547 214.148 168.04 214.474 167.65C214.816 167.241 215.285 166.763 215.964 166.488Z" fill="#C5CFFF"/>
<path d="M50 73C50 66.3726 55.3726 61 62 61H546C552.627 61 558 66.3726 558 73V105H50V73Z" fill="#373737"/>
<path d="M130 83C130 77.4772 134.477 73 140 73H280C285.523 73 290 77.4772 290 83V105H130V83Z" fill="white"/>
<rect x="142" y="85" width="80" height="12" rx="2" fill="#E7E8EC"/>
<circle cx="72" cy="83" r="6" fill="#FF5F57"/>
<circle cx="90" cy="83" r="6" fill="#FEBC2E"/>
<circle cx="108" cy="83" r="6" fill="#28C840"/>
<rect x="486" y="33" width="100" height="100" rx="50" fill="#646EE6"/>
<path d="M523.5 74.6667H542.25V68.7143C542.25 66.9782 541.642 65.5025 540.427 64.2872C539.212 63.0719 537.736 62.4643 536 62.4643C534.264 62.4643 532.788 63.0719 531.573 64.2872C530.868 64.9922 530.367 65.7848 530.071 66.6651C529.705 67.7557 528.817 68.7143 527.667 68.7143C526.516 68.7143 525.558 67.773 525.772 66.6425C526.152 64.6364 527.104 62.8704 528.63 61.3445C530.661 59.3132 533.118 58.2976 536 58.2976C538.882 58.2976 541.339 59.3132 543.37 61.3445C545.401 63.3757 546.417 65.8323 546.417 68.7143V74.6667H548.5C549.646 74.6667 550.627 75.0746 551.443 75.8906C552.259 76.7066 552.667 77.6875 552.667 78.8333V99.6667C552.667 100.812 552.259 101.793 551.443 102.609C550.627 103.425 549.646 103.833 548.5 103.833H523.5C522.354 103.833 521.373 103.425 520.557 102.609C519.741 101.793 519.333 100.812 519.333 99.6667V78.8333C519.333 77.6875 519.741 76.7066 520.557 75.8906C521.373 75.0746 522.354 74.6667 523.5 74.6667ZM536 93.4167C537.146 93.4167 538.127 93.0087 538.943 92.1927C539.759 91.3767 540.167 90.3958 540.167 89.25C540.167 88.1042 539.759 87.1233 538.943 86.3073C538.127 85.4913 537.146 85.0833 536 85.0833C534.854 85.0833 533.873 85.4913 533.057 86.3073C532.241 87.1233 531.833 88.1042 531.833 89.25C531.833 90.3958 532.241 91.3767 533.057 92.1927C533.873 93.0087 534.854 93.4167 536 93.4167Z" fill="white"/>
<rect x="20.5" y="213.5" width="79" height="79" rx="15.5" fill="#FDFDFF"/>
<rect x="20.5" y="213.5" width="79" height="79" rx="15.5" stroke="#C5CFFF"/>
<path fill-rule="evenodd" clip-rule="evenodd" d="M45.0044 252.635C45.0015 252.756 45.0001 252.878 45.0001 253C45.0001 259.839 49.5764 265.608 55.8336 267.414L55.8337 265.808C55.8337 265.211 56.0472 264.634 56.4355 264.181L57.701 265.266L57.7364 265.296M57.701 265.266L56.4355 264.181L59.9223 260.113L56.0374 257.893C55.6494 257.672 55.3279 257.35 55.1064 256.962L56.554 256.136L55.1064 256.962L52.2683 251.988L45.0044 252.635M41.7815 250.937C41.7057 251.614 41.6667 252.303 41.6667 253C41.6667 262.192 48.4313 269.804 57.2537 271.129C58.1496 271.264 59.0667 271.333 60.0001 271.333C70.1253 271.333 78.3334 263.125 78.3334 253C78.3334 250.086 77.6522 247.326 76.4393 244.876C76.5854 244.276 76.6667 243.651 76.6667 243C76.6667 238.398 72.9358 234.667 68.3334 234.667C67.1498 234.667 66.0238 234.913 65.004 235.358C63.4117 234.907 61.7327 234.667 60.0001 234.667C50.5897 234.667 42.8352 241.757 41.7873 250.886C41.7851 250.903 41.7832 250.92 41.7815 250.937ZM45.4734 249.247C47.1397 242.779 53.0118 238 60.0001 238C60.5421 238 61.077 238.029 61.6035 238.085C60.5953 239.463 60.0001 241.162 60.0001 243C60.0001 245.369 61.0781 247.393 62.4296 249.148C63.5539 250.607 64.9928 252.034 66.3814 253.41C66.6418 253.668 66.9004 253.924 67.1549 254.179C67.8058 254.829 68.8611 254.829 69.5119 254.179C69.7664 253.924 70.025 253.668 70.2854 253.41C71.674 252.034 73.113 250.607 74.2372 249.148C74.3024 249.063 74.3671 248.978 74.4309 248.892C74.8016 250.196 75.0001 251.574 75.0001 253C75.0001 261.284 68.2844 268 60.0001 268C59.7205 268 59.4427 267.992 59.1669 267.977L59.167 266.117L63.1094 261.517C64.1308 260.325 63.8143 258.498 62.4516 257.719L57.8888 255.112L54.8984 249.872C54.4139 249.023 53.479 248.534 52.5053 248.621L45.4734 249.247ZM68.3334 238C65.572 238 63.3334 240.239 63.3334 243C63.3334 244.313 63.922 245.622 65.0705 247.114C65.9629 248.272 67.0837 249.408 68.3334 250.65C69.5831 249.408 70.704 248.272 71.5963 247.114C72.7448 245.622 73.3334 244.313 73.3334 243C73.3334 240.239 71.0948 238 68.3334 238ZM66.2501 242.583C66.2501 241.433 67.1828 240.5 68.3334 240.5C69.484 240.5 70.4167 241.433 70.4167 242.583C70.4167 243.734 69.484 244.667 68.3334 244.667C67.1828 244.667 66.2501 243.734 66.2501 242.583Z" fill="#646AEE"/>
<rect x="232.5" y="20.5" width="79" height="79" rx="15.5" fill="#FDFDFF"/>
<rect x="232.5" y="20.5" width="79" height="79" rx="15.5" stroke="#C5CFFF"/>
<path fill-rule="evenodd" clip-rule="evenodd" d="M264.499 45.3411C266.707 44.0638 269.271 43.3333 272 43.3333C280.284 43.3333 287 50.0491 287 58.3333C287 62.6111 286.403 66.7521 285.286 70.6762C285.034 71.5615 284.112 72.0749 283.227 71.8229C282.341 71.571 281.828 70.649 282.08 69.7637C283.113 66.1335 283.667 62.2995 283.667 58.3333C283.667 51.89 278.443 46.6667 272 46.6667C269.872 46.6667 267.882 47.2348 266.168 48.2264C265.371 48.6874 264.352 48.4151 263.891 47.6183C263.43 46.8215 263.702 45.802 264.499 45.3411ZM261.285 50.224C262.082 50.6849 262.354 51.7045 261.893 52.5012C260.901 54.2155 260.333 56.2056 260.333 58.3333C260.333 61.1988 259.675 63.9152 258.499 66.3352C258.097 67.1631 257.1 67.5082 256.272 67.106C255.444 66.7038 255.099 65.7066 255.501 64.8786C256.461 62.9027 257 60.6833 257 58.3333C257 55.604 257.731 53.0401 259.008 50.8321C259.469 50.0354 260.488 49.7631 261.285 50.224ZM263.667 58.3333C263.667 53.731 267.398 50 272 50C276.602 50 280.333 53.731 280.333 58.3333C280.333 60.1041 280.213 61.8487 279.979 63.5589C279.855 64.4709 279.014 65.1092 278.102 64.9847C277.19 64.8601 276.552 64.0198 276.676 63.1078C276.89 61.5466 277 59.9527 277 58.3333C277 55.5719 274.761 53.3333 272 53.3333C269.238 53.3333 267 55.5719 267 58.3333C267 63.226 265.599 67.7763 263.18 71.623C263.156 71.6602 263.133 71.6975 263.111 71.735C262.641 72.5264 261.619 72.787 260.827 72.3169C260.036 71.8469 259.775 70.8243 260.245 70.0329C260.282 69.971 260.32 69.9094 260.358 69.8482L261.769 70.7356L260.358 69.8481C262.453 66.5175 263.667 62.5799 263.667 58.3333ZM272 56.6667C272.92 56.6667 273.667 57.4129 273.667 58.3333C273.667 64.5185 271.892 70.2941 268.823 75.1728C268.332 75.952 267.304 76.1862 266.524 75.6961C265.745 75.206 265.511 74.1771 266.001 73.3979C268.745 69.0352 270.333 63.8722 270.333 58.3333C270.333 57.4129 271.079 56.6667 272 56.6667ZM277.738 66.7297C278.624 66.9803 279.139 67.9015 278.888 68.7872C278.229 71.1173 277.355 73.3581 276.289 75.4859C275.877 76.3089 274.875 76.6418 274.052 76.2295C273.229 75.8172 272.896 74.8158 273.309 73.9929C274.282 72.0506 275.079 70.0057 275.681 67.8795C275.932 66.9938 276.853 66.479 277.738 66.7297Z" fill="#646AEE"/>
<rect x="508.5" y="213.5" width="79" height="79" rx="15.5" fill="#FDFDFF"/>
<rect x="508.5" y="213.5" width="79" height="79" rx="15.5" stroke="#C5CFFF"/>
<path fill-rule="evenodd" clip-rule="evenodd" d="M539.264 236.333L556.735 236.333C558.077 236.333 559.184 236.333 560.086 236.407C561.023 236.484 561.884 236.648 562.693 237.06C563.948 237.699 564.968 238.719 565.607 239.973C566.019 240.782 566.183 241.643 566.26 242.58C566.333 243.482 566.333 244.59 566.333 245.931V260.069C566.333 261.41 566.333 262.518 566.26 263.42C566.183 264.357 566.019 265.218 565.607 266.027C564.968 267.281 563.948 268.301 562.693 268.94C561.884 269.352 561.023 269.516 560.086 269.593C559.184 269.667 558.077 269.667 556.736 269.667H539.265C537.923 269.667 536.816 269.667 535.914 269.593C534.977 269.516 534.116 269.352 533.307 268.94C532.052 268.301 531.032 267.281 530.393 266.027C529.981 265.218 529.817 264.357 529.74 263.42C529.667 262.518 529.667 261.41 529.667 260.069L529.667 248.001C529.667 248.001 529.667 248.001 529.667 248.001C529.667 248.001 529.667 247.999 529.667 247.999L529.667 245.931C529.667 244.59 529.667 243.482 529.74 242.58C529.817 241.643 529.981 240.782 530.393 239.973C531.032 238.719 532.052 237.699 533.307 237.06C534.116 236.648 534.977 236.484 535.914 236.407C536.816 236.333 537.923 236.333 539.264 236.333ZM533 249.667V260C533 261.428 533.001 262.398 533.063 263.148C533.122 263.879 533.23 264.253 533.363 264.513C533.683 265.141 534.193 265.65 534.82 265.97C535.081 266.103 535.454 266.211 536.185 266.271C536.935 266.332 537.906 266.333 539.333 266.333H556.667C558.094 266.333 559.065 266.332 559.815 266.271C560.546 266.211 560.919 266.103 561.18 265.97C561.807 265.65 562.317 265.141 562.637 264.513C562.769 264.253 562.878 263.879 562.937 263.148C562.999 262.398 563 261.428 563 260V249.667H533ZM563 246.333H533V246C533 244.572 533.001 243.602 533.063 242.852C533.122 242.121 533.23 241.747 533.363 241.487C533.683 240.859 534.193 240.35 534.82 240.03C535.081 239.897 535.454 239.789 536.185 239.729C536.935 239.668 537.906 239.667 539.333 239.667L556.667 239.667C558.094 239.667 559.065 239.668 559.815 239.729C560.546 239.789 560.919 239.897 561.18 240.03C561.807 240.35 562.317 240.859 562.637 241.487C562.769 241.747 562.878 242.121 562.937 242.852C562.999 243.602 563 244.572 563 246V246.333ZM545.845 252.655C546.496 253.306 546.496 254.361 545.845 255.012L542.857 258L545.845 260.988C546.496 261.639 546.496 262.694 545.845 263.345C545.194 263.996 544.139 263.996 543.488 263.345L539.321 259.179C538.671 258.528 538.671 257.472 539.321 256.821L543.488 252.655C544.139 252.004 545.194 252.004 545.845 252.655ZM550.155 252.655C550.806 252.004 551.861 252.004 552.512 252.655L556.678 256.821C557.329 257.472 557.329 258.528 556.678 259.179L552.512 263.345C551.861 263.996 550.806 263.996 550.155 263.345C549.504 262.694 549.504 261.639 550.155 260.988L553.143 258L550.155 255.012C549.504 254.361 549.504 253.306 550.155 252.655Z" fill="#646AEE"/>
<defs>
<clipPath id="clip0_1058_32573">
<rect x="162" y="237.2" width="283.2" height="93.6" rx="7.2" fill="white"/>
</clipPath>
</defs>
</svg>
