<svg width="608" height="340" viewBox="0 0 608 340" fill="none" xmlns="http://www.w3.org/2000/svg">
<rect width="608" height="340" rx="16" fill="#EFF1FF"/>
<mask id="mask0_1058_33341" style="mask-type:alpha" maskUnits="userSpaceOnUse" x="0" y="0" width="378" height="340">
<path d="M0 16C0 7.16344 7.16344 0 16 0H378V340H16C7.16345 340 0 332.837 0 324V16Z" fill="#EFF1FF"/>
</mask>
<g mask="url(#mask0_1058_33341)">
<rect width="608" height="340" rx="16" fill="#EFF1FF"/>
<path d="M50 73C50 66.3726 55.3726 61 62 61H546C552.627 61 558 66.3726 558 73V340H50L50 73Z" fill="white"/>
<g clip-path="url(#clip0_1058_33341)">
<rect x="162" y="237.2" width="283.2" height="93.6" rx="7.2" fill="#F7F9FF"/>
<path d="M514.8 281.694C506.766 281.694 498.633 283.139 491.368 286.713C484.871 289.906 479.317 294.823 473.639 299.284C469.2 302.781 464.663 306.178 459.629 308.737C442.148 317.633 419.559 315.302 403.838 303.668C397.069 298.65 390.845 292.795 383.555 288.639C365.95 278.577 342.543 279.641 325.88 291.325C317.003 297.535 309.564 305.468 299.497 309.802C293.522 312.362 287.099 313.882 280.603 314.212C270.635 314.693 260.568 312.362 251.765 307.571C242.963 302.781 235.673 294.772 226.945 289.348C213.803 281.187 195.231 279.033 180.725 284.533C171.402 288.056 163.641 294.747 155.681 300.804C150.796 304.505 145.713 308.028 140.134 310.537C133.687 313.375 126.943 314.085 120 314.085" stroke="#E3E8FF" stroke-width="3" stroke-miterlimit="10"/>
<path d="M158.251 286.697C166.155 289.567 174.183 292.059 182.164 294.687C192.403 298.055 202.241 302.359 212.883 304.519C229.897 307.977 243.756 304.489 258.806 296.303C266.184 292.285 273.439 287.935 281.312 284.96C289.293 281.955 297.862 280.399 306.215 282.815C311.613 284.371 316.624 286.969 321.775 289.204C332.572 293.901 344.373 296.695 355.881 292.904C374.969 286.606 381.388 266.851 397.768 257.14C412.988 248.108 428.317 253.968 437.968 267.38C449.445 283.314 456.824 301.649 475.184 311.542" stroke="#C5CFFF" stroke-width="3" stroke-miterlimit="10"/>
</g>
<rect x="291.6" y="195.2" width="11.04" height="28.8" rx="2.4" fill="#EFF1FF"/>
<rect x="307.44" y="201.2" width="11.04" height="22.8" rx="2.4" fill="#EFF1FF"/>
<rect x="323.28" y="185.6" width="11.04" height="38.4" rx="2.4" fill="#EFF1FF"/>
<rect x="339.12" y="190.4" width="11.04" height="33.6" rx="2.4" fill="#EFF1FF"/>
<rect x="354.96" y="198.237" width="11.04" height="25.7627" rx="2.4" fill="#EFF1FF"/>
<rect x="370.8" y="178.4" width="11.04" height="45.6" rx="2.4" fill="#EFF1FF"/>
<rect x="162" y="128" width="120" height="96" rx="7.2" fill="#F7F9FF"/>
<path fill-rule="evenodd" clip-rule="evenodd" d="M232.303 159.2C230.241 159.2 228.57 160.871 228.57 162.933C228.57 164.995 230.241 166.667 232.303 166.667C234.365 166.667 236.036 164.995 236.036 162.933C236.036 160.871 234.365 159.2 232.303 159.2ZM215.964 166.488C216.865 166.121 217.874 166.121 218.776 166.488C219.454 166.763 219.924 167.241 220.266 167.65C220.591 168.04 220.942 168.547 221.318 169.091L226.533 176.623C226.877 176.107 227.198 175.632 227.499 175.26C227.84 174.836 228.314 174.337 229.006 174.05C229.922 173.67 230.951 173.67 231.867 174.05C232.559 174.337 233.033 174.836 233.374 175.26C233.702 175.665 234.054 176.194 234.433 176.763L240.139 185.322C240.603 186.018 241.021 186.644 241.309 187.176C241.597 187.707 241.926 188.437 241.875 189.289C241.81 190.379 241.271 191.385 240.401 192.044C239.72 192.559 238.93 192.69 238.328 192.745C237.726 192.8 236.974 192.8 236.137 192.8H206.189C205.335 192.8 204.57 192.8 203.96 192.744C203.352 192.689 202.55 192.557 201.864 192.032C200.99 191.363 200.455 190.343 200.403 189.243C200.362 188.381 200.71 187.647 201.011 187.115C201.312 186.581 201.748 185.952 202.233 185.251L213.379 169.151C213.393 169.131 213.407 169.111 213.421 169.091C213.798 168.547 214.148 168.04 214.474 167.65C214.816 167.241 215.285 166.763 215.964 166.488Z" fill="#C5CFFF"/>
<path d="M50 73C50 66.3726 55.3726 61 62 61H546C552.627 61 558 66.3726 558 73V105H50V73Z" fill="#373737"/>
<path d="M130 83C130 77.4772 134.477 73 140 73H280C285.523 73 290 77.4772 290 83V105H130V83Z" fill="white"/>
<rect x="142" y="85" width="80" height="12" rx="2" fill="#E7E8EC"/>
<circle cx="72" cy="83" r="6" fill="#FF5F57"/>
<circle cx="90" cy="83" r="6" fill="#FEBC2E"/>
<circle cx="108" cy="83" r="6" fill="#28C840"/>
</g>
<mask id="mask1_1058_33341" style="mask-type:alpha" maskUnits="userSpaceOnUse" x="378" y="0" width="230" height="340">
<path d="M378 0H592C600.837 0 608 7.16344 608 16V324C608 332.837 600.837 340 592 340H378V0Z" fill="#EFF1FF"/>
</mask>
<g mask="url(#mask1_1058_33341)">
<rect width="608" height="340" rx="16" fill="#EFF0F3"/>
<path d="M50 73C50 66.3726 55.3726 61 62 61H546C552.627 61 558 66.3726 558 73V340H50L50 73Z" fill="#FDFDFF"/>
<path d="M50 73C50 66.3726 55.3726 61 62 61H546C552.627 61 558 66.3726 558 73V105H50V73Z" fill="#CDCED7"/>
<path d="M58.5 73C58.5 66.6487 63.6487 61.5 70 61.5H547C552.799 61.5 557.5 66.201 557.5 72V347.5H58.5V73Z" stroke="#B9BBC6"/>
<path d="M58.5 79C58.5 72.6487 63.6487 67.5 70 67.5H547C549.485 67.5 551.5 69.5147 551.5 72V344.5H58.5V79Z" stroke="#B9BBC6"/>
<path d="M555 78V72C555 67.5817 551.418 64 547 64H541" stroke="#B9BBC6" stroke-width="6"/>
<circle cx="542" cy="77" r="3.5" fill="#B9BBC6" stroke="#B9BBC6"/>
<rect x="410" y="124" width="108" height="108" rx="10" fill="#E0E1E6" stroke="#E0E1E6"/>
<rect x="410" y="295" width="108" height="20" rx="6" fill="#C5CFFF" stroke="#C5CFFF"/>
<rect x="410" y="119" width="108" height="108" rx="10" fill="#FDFDFF" stroke="#E0E1E6"/>
<path fill-rule="evenodd" clip-rule="evenodd" d="M445.918 135.192C445.873 135.192 445.829 135.192 445.785 135.192C445.179 135.196 444.685 134.709 444.681 134.104C444.677 133.498 445.165 133.004 445.77 133C445.819 133 445.869 133 445.918 133H446.057C446.662 133 447.153 133.491 447.153 134.096C447.153 134.701 446.662 135.192 446.057 135.192H445.918ZM448.299 134.096C448.299 133.491 448.79 133 449.395 133H449.673C450.279 133 450.769 133.491 450.769 134.096C450.769 134.701 450.279 135.192 449.673 135.192H449.395C448.79 135.192 448.299 134.701 448.299 134.096ZM451.916 134.096C451.916 133.491 452.406 133 453.012 133H453.29C453.895 133 454.386 133.491 454.386 134.096C454.386 134.701 453.895 135.192 453.29 135.192H453.012C452.406 135.192 451.916 134.701 451.916 134.096ZM455.532 134.096C455.532 133.491 456.023 133 456.628 133H456.906C457.511 133 458.002 133.491 458.002 134.096C458.002 134.701 457.511 135.192 456.906 135.192H456.628C456.023 135.192 455.532 134.701 455.532 134.096ZM459.149 134.096C459.149 133.491 459.639 133 460.244 133H460.523C461.128 133 461.619 133.491 461.619 134.096C461.619 134.701 461.128 135.192 460.523 135.192H460.244C459.639 135.192 459.149 134.701 459.149 134.096ZM462.765 134.096C462.765 133.491 463.256 133 463.861 133H464.139C464.744 133 465.235 133.491 465.235 134.096C465.235 134.701 464.744 135.192 464.139 135.192H463.861C463.256 135.192 462.765 134.701 462.765 134.096ZM466.381 134.096C466.381 133.491 466.872 133 467.477 133H467.756C468.361 133 468.851 133.491 468.851 134.096C468.851 134.701 468.361 135.192 467.756 135.192H467.477C466.872 135.192 466.381 134.701 466.381 134.096ZM469.998 134.096C469.998 133.491 470.489 133 471.094 133H471.372C471.977 133 472.468 133.491 472.468 134.096C472.468 134.701 471.977 135.192 471.372 135.192H471.094C470.489 135.192 469.998 134.701 469.998 134.096ZM473.614 134.096C473.614 133.491 474.105 133 474.71 133H474.988C475.594 133 476.084 133.491 476.084 134.096C476.084 134.701 475.594 135.192 474.988 135.192H474.71C474.105 135.192 473.614 134.701 473.614 134.096ZM477.231 134.096C477.231 133.491 477.721 133 478.327 133H478.605C479.21 133 479.701 133.491 479.701 134.096C479.701 134.701 479.21 135.192 478.605 135.192H478.327C477.721 135.192 477.231 134.701 477.231 134.096ZM480.847 134.096C480.847 133.491 481.338 133 481.943 133H482.082C482.131 133 482.181 133 482.23 133C482.835 133.004 483.323 133.498 483.319 134.104C483.315 134.709 482.821 135.196 482.215 135.192C482.171 135.192 482.127 135.192 482.082 135.192H481.943C481.338 135.192 480.847 134.701 480.847 134.096ZM484.481 134.204C484.582 133.607 485.147 133.204 485.744 133.305C485.841 133.321 485.937 133.338 486.034 133.355C486.629 133.464 487.024 134.035 486.916 134.63C486.807 135.225 486.236 135.62 485.641 135.512C485.554 135.496 485.467 135.481 485.38 135.466C484.783 135.366 484.381 134.8 484.481 134.204ZM443.519 134.204C443.619 134.8 443.217 135.366 442.62 135.466C442.533 135.481 442.446 135.496 442.359 135.512C441.764 135.62 441.193 135.225 441.084 134.63C440.976 134.035 441.371 133.464 441.966 133.355C442.063 133.338 442.159 133.321 442.256 133.305C442.853 133.204 443.418 133.607 443.519 134.204ZM439.958 134.931C440.161 135.501 439.864 136.128 439.294 136.331C439.21 136.361 439.127 136.391 439.045 136.422C438.478 136.633 437.847 136.344 437.636 135.776C437.425 135.209 437.714 134.578 438.281 134.367C438.373 134.333 438.465 134.3 438.558 134.267C439.128 134.064 439.755 134.361 439.958 134.931ZM488.042 134.931C488.245 134.361 488.872 134.064 489.442 134.267C489.535 134.3 489.627 134.333 489.719 134.367C490.286 134.578 490.575 135.209 490.364 135.776C490.153 136.344 489.522 136.633 488.955 136.422C488.872 136.391 488.79 136.361 488.706 136.331C488.136 136.128 487.839 135.501 488.042 134.931ZM436.579 136.27C436.878 136.796 436.695 137.465 436.169 137.765C436.092 137.809 436.016 137.853 435.94 137.898C435.418 138.204 434.746 138.03 434.44 137.508C434.133 136.986 434.307 136.315 434.829 136.008C434.914 135.958 434.999 135.909 435.084 135.861C435.61 135.561 436.279 135.745 436.579 136.27ZM491.421 136.27C491.721 135.745 492.39 135.561 492.916 135.861C493.001 135.909 493.086 135.958 493.171 136.008C493.693 136.315 493.867 136.986 493.56 137.508C493.254 138.03 492.582 138.204 492.06 137.898C491.984 137.853 491.908 137.809 491.831 137.765C491.305 137.465 491.122 136.796 491.421 136.27ZM494.515 138.178C494.901 137.712 495.592 137.647 496.058 138.033C496.134 138.096 496.209 138.159 496.284 138.223C496.744 138.615 496.8 139.307 496.408 139.768C496.015 140.228 495.324 140.284 494.863 139.892C494.796 139.834 494.728 139.777 494.66 139.721C494.194 139.335 494.129 138.644 494.515 138.178ZM433.485 138.178C433.871 138.644 433.806 139.335 433.34 139.721C433.272 139.777 433.204 139.834 433.137 139.892C432.676 140.284 431.985 140.228 431.592 139.768C431.2 139.307 431.256 138.615 431.716 138.223C431.791 138.159 431.866 138.096 431.942 138.033C432.408 137.647 433.099 137.712 433.485 138.178ZM497.232 140.592C497.693 140.2 498.385 140.256 498.777 140.716C498.841 140.791 498.904 140.866 498.967 140.942C499.353 141.408 499.288 142.099 498.822 142.485C498.356 142.871 497.665 142.806 497.279 142.34C497.223 142.272 497.166 142.204 497.108 142.137C496.716 141.676 496.772 140.985 497.232 140.592ZM430.768 140.592C431.228 140.985 431.284 141.676 430.892 142.137C430.834 142.205 430.777 142.272 430.721 142.34C430.335 142.806 429.644 142.871 429.178 142.485C428.712 142.099 428.647 141.408 429.033 140.942C429.096 140.866 429.159 140.791 429.223 140.716C429.615 140.256 430.307 140.2 430.768 140.592ZM499.492 143.44C500.014 143.133 500.685 143.307 500.992 143.829C501.042 143.914 501.091 143.999 501.139 144.084C501.439 144.61 501.255 145.279 500.73 145.579C500.204 145.878 499.535 145.695 499.235 145.169C499.191 145.092 499.147 145.016 499.102 144.94C498.796 144.418 498.97 143.746 499.492 143.44ZM428.508 143.44C429.03 143.746 429.204 144.418 428.898 144.94C428.853 145.016 428.809 145.092 428.765 145.169C428.465 145.695 427.796 145.878 427.27 145.579C426.745 145.279 426.561 144.61 426.861 144.084C426.909 143.999 426.958 143.914 427.008 143.829C427.315 143.307 427.986 143.133 428.508 143.44ZM501.224 146.636C501.791 146.425 502.422 146.714 502.633 147.281C502.667 147.373 502.7 147.465 502.733 147.558C502.936 148.128 502.639 148.755 502.069 148.958C501.499 149.161 500.872 148.864 500.669 148.294C500.639 148.21 500.609 148.127 500.578 148.045C500.367 147.478 500.656 146.847 501.224 146.636ZM426.776 146.636C427.344 146.847 427.633 147.478 427.422 148.045C427.391 148.127 427.361 148.21 427.331 148.294C427.128 148.864 426.501 149.161 425.931 148.958C425.361 148.755 425.064 148.128 425.267 147.558C425.3 147.465 425.333 147.373 425.367 147.281C425.578 146.714 426.209 146.425 426.776 146.636ZM502.37 150.084C502.965 149.976 503.536 150.371 503.645 150.966C503.662 151.063 503.679 151.159 503.695 151.256C503.796 151.853 503.393 152.418 502.796 152.519C502.2 152.619 501.634 152.217 501.534 151.62C501.519 151.533 501.504 151.446 501.488 151.359C501.38 150.764 501.775 150.193 502.37 150.084ZM425.63 150.084C426.225 150.193 426.62 150.764 426.512 151.359C426.496 151.446 426.481 151.533 426.466 151.62C426.366 152.217 425.8 152.619 425.204 152.519C424.607 152.418 424.204 151.853 424.305 151.256C424.321 151.159 424.338 151.063 424.355 150.966C424.464 150.371 425.035 149.976 425.63 150.084ZM502.896 153.681C503.502 153.677 503.996 154.165 504 154.77C504 154.819 504 154.869 504 154.918V155.057C504 155.662 503.509 156.153 502.904 156.153C502.299 156.153 501.808 155.662 501.808 155.057V154.918C501.808 154.873 501.808 154.829 501.808 154.785C501.804 154.179 502.291 153.685 502.896 153.681ZM425.104 153.681C425.709 153.685 426.196 154.179 426.192 154.785C426.192 154.829 426.192 154.873 426.192 154.918V155.057C426.192 155.662 425.701 156.153 425.096 156.153C424.491 156.153 424 155.662 424 155.057V154.918C424 154.869 424 154.819 424 154.77C424.004 154.165 424.498 153.677 425.104 153.681ZM502.904 157.299C503.509 157.299 504 157.79 504 158.395V158.673C504 159.279 503.509 159.769 502.904 159.769C502.299 159.769 501.808 159.279 501.808 158.673V158.395C501.808 157.79 502.299 157.299 502.904 157.299ZM425.096 157.299C425.701 157.299 426.192 157.79 426.192 158.395V158.673C426.192 159.279 425.701 159.769 425.096 159.769C424.491 159.769 424 159.279 424 158.673V158.395C424 157.79 424.491 157.299 425.096 157.299ZM502.904 160.916C503.509 160.916 504 161.406 504 162.012V162.29C504 162.895 503.509 163.386 502.904 163.386C502.299 163.386 501.808 162.895 501.808 162.29V162.012C501.808 161.406 502.299 160.916 502.904 160.916ZM425.096 160.916C425.701 160.916 426.192 161.406 426.192 162.012V162.29C426.192 162.895 425.701 163.386 425.096 163.386C424.491 163.386 424 162.895 424 162.29V162.012C424 161.406 424.491 160.916 425.096 160.916ZM502.904 164.532C503.509 164.532 504 165.023 504 165.628V165.906C504 166.511 503.509 167.002 502.904 167.002C502.299 167.002 501.808 166.511 501.808 165.906V165.628C501.808 165.023 502.299 164.532 502.904 164.532ZM425.096 164.532C425.701 164.532 426.192 165.023 426.192 165.628V165.906C426.192 166.511 425.701 167.002 425.096 167.002C424.491 167.002 424 166.511 424 165.906V165.628C424 165.023 424.491 164.532 425.096 164.532ZM502.904 168.149C503.509 168.149 504 168.639 504 169.244V169.523C504 170.128 503.509 170.619 502.904 170.619C502.299 170.619 501.808 170.128 501.808 169.523V169.244C501.808 168.639 502.299 168.149 502.904 168.149ZM425.096 168.149C425.701 168.149 426.192 168.639 426.192 169.244V169.523C426.192 170.128 425.701 170.619 425.096 170.619C424.491 170.619 424 170.128 424 169.523V169.244C424 168.639 424.491 168.149 425.096 168.149ZM425.096 171.765C425.701 171.765 426.192 172.256 426.192 172.861V173.139C426.192 173.744 425.701 174.235 425.096 174.235C424.491 174.235 424 173.744 424 173.139V172.861C424 172.256 424.491 171.765 425.096 171.765ZM502.904 171.765C503.509 171.765 504 172.256 504 172.861V173.139C504 173.744 503.509 174.235 502.904 174.235C502.299 174.235 501.808 173.744 501.808 173.139V172.861C501.808 172.256 502.299 171.765 502.904 171.765ZM425.096 175.381C425.701 175.381 426.192 175.872 426.192 176.477V176.756C426.192 177.361 425.701 177.851 425.096 177.851C424.491 177.851 424 177.361 424 176.756V176.477C424 175.872 424.491 175.381 425.096 175.381ZM502.904 175.381C503.509 175.381 504 175.872 504 176.477V176.756C504 177.361 503.509 177.851 502.904 177.851C502.299 177.851 501.808 177.361 501.808 176.756V176.477C501.808 175.872 502.299 175.381 502.904 175.381ZM425.096 178.998C425.701 178.998 426.192 179.489 426.192 180.094V180.372C426.192 180.977 425.701 181.468 425.096 181.468C424.491 181.468 424 180.977 424 180.372V180.094C424 179.489 424.491 178.998 425.096 178.998ZM502.904 178.998C503.509 178.998 504 179.489 504 180.094V180.372C504 180.977 503.509 181.468 502.904 181.468C502.299 181.468 501.808 180.977 501.808 180.372V180.094C501.808 179.489 502.299 178.998 502.904 178.998ZM502.904 182.614C503.509 182.614 504 183.105 504 183.71V183.988C504 184.594 503.509 185.084 502.904 185.084C502.299 185.084 501.808 184.594 501.808 183.988V183.71C501.808 183.105 502.299 182.614 502.904 182.614ZM425.096 182.614C425.701 182.614 426.192 183.105 426.192 183.71V183.988C426.192 184.594 425.701 185.084 425.096 185.084C424.491 185.084 424 184.594 424 183.988V183.71C424 183.105 424.491 182.614 425.096 182.614ZM502.904 186.231C503.509 186.231 504 186.721 504 187.327V187.605C504 188.21 503.509 188.701 502.904 188.701C502.299 188.701 501.808 188.21 501.808 187.605V187.327C501.808 186.721 502.299 186.231 502.904 186.231ZM425.096 186.231C425.701 186.231 426.192 186.721 426.192 187.327V187.605C426.192 188.21 425.701 188.701 425.096 188.701C424.491 188.701 424 188.21 424 187.605V187.327C424 186.721 424.491 186.231 425.096 186.231ZM502.904 189.847C503.509 189.847 504 190.338 504 190.943V191.082L504 191.141L504 191.23C503.996 191.835 503.502 192.323 502.896 192.319C502.291 192.315 501.804 191.821 501.808 191.215L501.808 191.164L501.808 191.082V190.943C501.808 190.338 502.299 189.847 502.904 189.847ZM425.096 189.847C425.701 189.847 426.192 190.338 426.192 190.943V191.082C426.192 191.127 426.192 191.171 426.192 191.215C426.196 191.821 425.709 192.315 425.104 192.319C424.498 192.323 424.004 191.835 424 191.23C424 191.181 424 191.131 424 191.082V190.943C424 190.338 424.491 189.847 425.096 189.847ZM502.796 193.481C503.393 193.582 503.796 194.147 503.695 194.744C503.679 194.841 503.662 194.937 503.645 195.034C503.536 195.629 502.965 196.024 502.37 195.916C501.775 195.807 501.38 195.236 501.488 194.641C501.504 194.554 501.519 194.467 501.534 194.38C501.634 193.783 502.2 193.381 502.796 193.481ZM425.204 193.481C425.8 193.381 426.366 193.783 426.466 194.38C426.481 194.467 426.496 194.554 426.512 194.641C426.62 195.236 426.225 195.807 425.63 195.916C425.035 196.024 424.464 195.629 424.355 195.034C424.338 194.937 424.321 194.841 424.305 194.744C424.204 194.147 424.607 193.582 425.204 193.481ZM425.931 197.042C426.501 196.839 427.128 197.136 427.331 197.706C427.361 197.79 427.391 197.872 427.422 197.955C427.633 198.522 427.344 199.153 426.776 199.364C426.209 199.575 425.578 199.286 425.367 198.719C425.333 198.627 425.3 198.535 425.267 198.442C425.064 197.872 425.361 197.245 425.931 197.042ZM502.069 197.042C502.639 197.245 502.936 197.872 502.733 198.442C502.7 198.535 502.667 198.627 502.633 198.719C502.422 199.286 501.791 199.575 501.224 199.364C500.656 199.153 500.367 198.522 500.578 197.955C500.609 197.872 500.639 197.79 500.669 197.706C500.872 197.136 501.499 196.839 502.069 197.042ZM427.27 200.421C427.796 200.122 428.465 200.305 428.765 200.831C428.809 200.908 428.853 200.984 428.898 201.06C429.204 201.582 429.03 202.254 428.508 202.56C427.986 202.867 427.315 202.693 427.008 202.171C426.958 202.086 426.909 202.001 426.861 201.916C426.561 201.39 426.745 200.721 427.27 200.421ZM500.73 200.421C501.255 200.721 501.439 201.39 501.139 201.916C501.091 202.001 501.042 202.086 500.992 202.171C500.685 202.693 500.014 202.867 499.492 202.56C498.97 202.254 498.796 201.582 499.102 201.06C499.147 200.984 499.191 200.908 499.235 200.831C499.535 200.305 500.204 200.122 500.73 200.421ZM429.178 203.515C429.644 203.129 430.335 203.194 430.721 203.66C430.777 203.728 430.834 203.796 430.892 203.863C431.284 204.324 431.228 205.015 430.768 205.408C430.307 205.8 429.615 205.744 429.223 205.284C429.159 205.209 429.096 205.134 429.033 205.058C428.647 204.592 428.712 203.901 429.178 203.515ZM498.822 203.515C499.288 203.901 499.353 204.592 498.967 205.058C498.904 205.134 498.841 205.209 498.777 205.284C498.385 205.744 497.693 205.8 497.232 205.408C496.772 205.015 496.716 204.324 497.108 203.863C497.138 203.828 497.168 203.793 497.198 203.757C497.225 203.725 497.252 203.692 497.279 203.66C497.665 203.194 498.356 203.129 498.822 203.515ZM431.592 206.232C431.985 205.772 432.676 205.716 433.137 206.108C433.205 206.166 433.272 206.223 433.34 206.279C433.806 206.665 433.871 207.356 433.485 207.822C433.099 208.288 432.408 208.353 431.942 207.967C431.866 207.904 431.791 207.841 431.716 207.777C431.256 207.385 431.2 206.693 431.592 206.232ZM496.408 206.232C496.8 206.693 496.744 207.385 496.284 207.777C496.209 207.841 496.134 207.904 496.058 207.967C495.592 208.353 494.901 208.288 494.515 207.822C494.129 207.356 494.194 206.665 494.66 206.279C494.698 206.247 494.737 206.215 494.775 206.183L494.81 206.153L494.863 206.108C495.324 205.716 496.015 205.772 496.408 206.232ZM434.44 208.492C434.746 207.97 435.418 207.796 435.94 208.102C436.016 208.147 436.092 208.191 436.169 208.235C436.695 208.535 436.878 209.204 436.579 209.73C436.279 210.255 435.61 210.439 435.084 210.139C434.999 210.091 434.914 210.042 434.829 209.992C434.307 209.685 434.133 209.014 434.44 208.492ZM493.56 208.492C493.867 209.014 493.693 209.685 493.171 209.992C493.112 210.027 493.053 210.061 492.993 210.095L492.916 210.139C492.39 210.439 491.721 210.255 491.421 209.73C491.122 209.204 491.305 208.535 491.831 208.235C491.908 208.191 491.984 208.147 492.06 208.102C492.582 207.796 493.254 207.97 493.56 208.492ZM437.636 210.224C437.847 209.656 438.478 209.367 439.045 209.578C439.127 209.609 439.21 209.639 439.294 209.669C439.864 209.872 440.161 210.499 439.958 211.069C439.755 211.639 439.128 211.936 438.558 211.733C438.465 211.7 438.373 211.667 438.281 211.633C437.714 211.422 437.425 210.791 437.636 210.224ZM490.364 210.224C490.575 210.791 490.286 211.422 489.719 211.633C489.627 211.667 489.535 211.7 489.442 211.733C488.872 211.936 488.245 211.639 488.042 211.069C487.839 210.499 488.136 209.872 488.706 209.669C488.79 209.639 488.872 209.609 488.955 209.578C489.522 209.367 490.153 209.656 490.364 210.224ZM441.084 211.37C441.193 210.775 441.764 210.38 442.359 210.488C442.446 210.504 442.533 210.519 442.62 210.534C443.217 210.634 443.619 211.2 443.519 211.796C443.418 212.393 442.853 212.796 442.256 212.695C442.159 212.679 442.063 212.662 441.966 212.645C441.371 212.536 440.976 211.965 441.084 211.37ZM486.916 211.37C487.024 211.965 486.629 212.536 486.034 212.645C485.937 212.662 485.841 212.679 485.744 212.695C485.147 212.796 484.582 212.393 484.481 211.796C484.381 211.2 484.783 210.634 485.38 210.534C485.442 210.523 485.504 210.513 485.566 210.502L485.641 210.488C486.236 210.38 486.807 210.775 486.916 211.37ZM444.681 211.896C444.685 211.291 445.179 210.804 445.785 210.808C445.829 210.808 445.873 210.808 445.918 210.808H446.057C446.662 210.808 447.153 211.299 447.153 211.904C447.153 212.509 446.662 213 446.057 213H445.918C445.869 213 445.819 213 445.77 213C445.165 212.996 444.677 212.502 444.681 211.896ZM483.319 211.896C483.323 212.502 482.835 212.996 482.23 213C482.181 213 482.131 213 482.082 213H481.943C481.338 213 480.847 212.509 480.847 211.904C480.847 211.299 481.338 210.808 481.943 210.808H482.082C482.127 210.808 482.171 210.808 482.215 210.808C482.821 210.804 483.315 211.291 483.319 211.896ZM448.299 211.904C448.299 211.299 448.79 210.808 449.395 210.808H449.673C450.279 210.808 450.769 211.299 450.769 211.904C450.769 212.509 450.279 213 449.673 213H449.395C448.79 213 448.299 212.509 448.299 211.904ZM451.916 211.904C451.916 211.299 452.406 210.808 453.012 210.808H453.29C453.895 210.808 454.386 211.299 454.386 211.904C454.386 212.509 453.895 213 453.29 213H453.012C452.406 213 451.916 212.509 451.916 211.904ZM455.532 211.904C455.532 211.299 456.023 210.808 456.628 210.808H456.906C457.511 210.808 458.002 211.299 458.002 211.904C458.002 212.509 457.511 213 456.906 213H456.628C456.023 213 455.532 212.509 455.532 211.904ZM459.149 211.904C459.149 211.299 459.639 210.808 460.244 210.808H460.523C461.128 210.808 461.619 211.299 461.619 211.904C461.619 212.509 461.128 213 460.523 213H460.244C459.639 213 459.149 212.509 459.149 211.904ZM462.765 211.904C462.765 211.299 463.256 210.808 463.861 210.808H464.139C464.744 210.808 465.235 211.299 465.235 211.904C465.235 212.509 464.744 213 464.139 213H463.861C463.256 213 462.765 212.509 462.765 211.904ZM466.381 211.904C466.381 211.299 466.872 210.808 467.477 210.808H467.756C468.361 210.808 468.851 211.299 468.851 211.904C468.851 212.509 468.361 213 467.756 213H467.477C466.872 213 466.381 212.509 466.381 211.904ZM469.998 211.904C469.998 211.299 470.489 210.808 471.094 210.808H471.372C471.977 210.808 472.468 211.299 472.468 211.904C472.468 212.509 471.977 213 471.372 213H471.094C470.489 213 469.998 212.509 469.998 211.904ZM473.614 211.904C473.614 211.299 474.105 210.808 474.71 210.808H474.988C475.594 210.808 476.084 211.299 476.084 211.904C476.084 212.509 475.594 213 474.988 213H474.71C474.105 213 473.614 212.509 473.614 211.904ZM477.231 211.904C477.231 211.299 477.721 210.808 478.327 210.808H478.605C479.21 210.808 479.701 211.299 479.701 211.904C479.701 212.509 479.21 213 478.605 213H478.327C477.721 213 477.231 212.509 477.231 211.904ZM446.465 138.479C446.422 138.479 446.379 138.48 446.336 138.48C445.731 138.484 445.237 137.997 445.232 137.392C445.228 136.787 445.715 136.293 446.32 136.288C446.368 136.288 446.417 136.288 446.465 136.288H446.6C447.206 136.288 447.696 136.778 447.696 137.384C447.696 137.989 447.206 138.479 446.6 138.479H446.465ZM448.741 137.384C448.741 136.778 449.232 136.288 449.837 136.288H450.107C450.712 136.288 451.203 136.778 451.203 137.384C451.203 137.989 450.712 138.479 450.107 138.479H449.837C449.232 138.479 448.741 137.989 448.741 137.384ZM452.248 137.384C452.248 136.778 452.739 136.288 453.344 136.288H453.614C454.219 136.288 454.71 136.778 454.71 137.384C454.71 137.989 454.219 138.479 453.614 138.479H453.344C452.739 138.479 452.248 137.989 452.248 137.384ZM455.755 137.384C455.755 136.778 456.246 136.288 456.851 136.288H457.121C457.726 136.288 458.217 136.778 458.217 137.384C458.217 137.989 457.726 138.479 457.121 138.479H456.851C456.246 138.479 455.755 137.989 455.755 137.384ZM459.262 137.384C459.262 136.778 459.753 136.288 460.358 136.288H460.628C461.233 136.288 461.724 136.778 461.724 137.384C461.724 137.989 461.233 138.479 460.628 138.479H460.358C459.753 138.479 459.262 137.989 459.262 137.384ZM462.769 137.384C462.769 136.778 463.26 136.288 463.865 136.288H464.135C464.74 136.288 465.23 136.778 465.23 137.384C465.23 137.989 464.74 138.479 464.135 138.479H463.865C463.26 138.479 462.769 137.989 462.769 137.384ZM466.276 137.384C466.276 136.778 466.766 136.288 467.372 136.288H467.641C468.247 136.288 468.737 136.778 468.737 137.384C468.737 137.989 468.247 138.479 467.641 138.479H467.372C466.766 138.479 466.276 137.989 466.276 137.384ZM469.783 137.384C469.783 136.778 470.273 136.288 470.878 136.288H471.148C471.753 136.288 472.244 136.778 472.244 137.384C472.244 137.989 471.753 138.479 471.148 138.479H470.878C470.273 138.479 469.783 137.989 469.783 137.384ZM473.289 137.384C473.289 136.778 473.78 136.288 474.385 136.288H474.655C475.26 136.288 475.751 136.778 475.751 137.384C475.751 137.989 475.26 138.479 474.655 138.479H474.385C473.78 138.479 473.289 137.989 473.289 137.384ZM476.796 137.384C476.796 136.778 477.287 136.288 477.892 136.288H478.162C478.767 136.288 479.258 136.778 479.258 137.384C479.258 137.989 478.767 138.479 478.162 138.479H477.892C477.287 138.479 476.796 137.989 476.796 137.384ZM480.303 137.384C480.303 136.778 480.794 136.288 481.399 136.288H481.534C481.582 136.288 481.631 136.288 481.679 136.288C482.285 136.293 482.771 136.787 482.767 137.392C482.762 137.997 482.268 138.484 481.663 138.48C481.62 138.48 481.577 138.479 481.534 138.479H481.399C480.794 138.479 480.303 137.989 480.303 137.384ZM444.147 137.497C444.26 138.092 443.869 138.665 443.275 138.778C443.191 138.794 443.107 138.811 443.024 138.828C442.431 138.95 441.851 138.568 441.729 137.975C441.608 137.383 441.989 136.803 442.582 136.681C442.676 136.662 442.771 136.643 442.866 136.625C443.46 136.512 444.034 136.903 444.147 137.497ZM483.852 137.497C483.965 136.903 484.539 136.512 485.134 136.625C485.228 136.643 485.323 136.662 485.417 136.681C486.01 136.803 486.392 137.383 486.27 137.975C486.148 138.568 485.568 138.95 484.976 138.828C484.892 138.811 484.808 138.794 484.725 138.778C484.13 138.665 483.739 138.092 483.852 137.497ZM440.685 138.292C440.913 138.853 440.643 139.492 440.082 139.719C440.003 139.751 439.924 139.784 439.845 139.817C439.288 140.054 438.645 139.793 438.409 139.236C438.173 138.678 438.433 138.035 438.991 137.799C439.079 137.762 439.168 137.725 439.258 137.688C439.819 137.461 440.458 137.731 440.685 138.292ZM487.314 138.292C487.541 137.731 488.181 137.461 488.741 137.688C488.831 137.725 488.92 137.762 489.009 137.799C489.566 138.035 489.826 138.678 489.59 139.236C489.354 139.793 488.711 140.054 488.154 139.817C488.075 139.784 487.996 139.751 487.917 139.719C487.356 139.492 487.086 138.853 487.314 138.292ZM437.448 139.751C437.78 140.256 437.641 140.936 437.135 141.269C437.064 141.316 436.993 141.364 436.922 141.412C436.422 141.752 435.74 141.622 435.399 141.122C435.059 140.622 435.189 139.94 435.689 139.6C435.769 139.545 435.849 139.492 435.93 139.438C436.435 139.106 437.115 139.245 437.448 139.751ZM490.552 139.751C490.885 139.245 491.564 139.106 492.07 139.438C492.15 139.492 492.231 139.545 492.31 139.6C492.811 139.94 492.94 140.622 492.6 141.122C492.259 141.622 491.578 141.752 491.077 141.412C491.007 141.364 490.936 141.316 490.864 141.269C490.359 140.936 490.219 140.256 490.552 139.751ZM434.557 141.814C434.982 142.246 434.977 142.939 434.545 143.364C434.484 143.424 434.424 143.485 434.364 143.546C433.939 143.977 433.245 143.982 432.814 143.557C432.383 143.133 432.378 142.439 432.802 142.008C432.87 141.939 432.938 141.871 433.007 141.803C433.438 141.378 434.132 141.383 434.557 141.814ZM493.442 141.814C493.867 141.383 494.561 141.378 494.992 141.803C495.061 141.871 495.129 141.939 495.197 142.008C495.622 142.439 495.616 143.133 495.185 143.557C494.754 143.982 494.06 143.977 493.635 143.546C493.575 143.485 493.515 143.424 493.454 143.364C493.023 142.939 493.018 142.246 493.442 141.814ZM432.122 144.4C432.622 144.74 432.752 145.422 432.411 145.922C432.363 145.993 432.316 146.064 432.269 146.135C431.936 146.641 431.256 146.781 430.751 146.448C430.245 146.115 430.105 145.435 430.438 144.93C430.491 144.849 430.545 144.769 430.599 144.689C430.94 144.189 431.621 144.059 432.122 144.4ZM495.878 144.4C496.378 144.059 497.06 144.189 497.4 144.689C497.454 144.769 497.508 144.849 497.561 144.93C497.894 145.435 497.754 146.115 497.249 146.448C496.743 146.781 496.064 146.641 495.731 146.135C495.684 146.064 495.636 145.993 495.588 145.922C495.248 145.422 495.377 144.74 495.878 144.4ZM430.235 147.409C430.793 147.645 431.053 148.288 430.817 148.846C430.784 148.924 430.751 149.003 430.719 149.082C430.491 149.643 429.852 149.913 429.291 149.686C428.731 149.458 428.46 148.819 428.688 148.258C428.724 148.169 428.761 148.08 428.799 147.991C429.035 147.434 429.678 147.173 430.235 147.409ZM497.764 147.409C498.321 147.173 498.964 147.434 499.2 147.991C499.238 148.08 499.275 148.169 499.311 148.258C499.539 148.819 499.269 149.458 498.708 149.686C498.147 149.913 497.508 149.643 497.28 149.082C497.248 149.003 497.215 148.924 497.182 148.846C496.946 148.288 497.207 147.645 497.764 147.409ZM428.975 150.73C429.568 150.852 429.95 151.431 429.828 152.024C429.811 152.107 429.794 152.191 429.778 152.275C429.665 152.87 429.092 153.26 428.497 153.147C427.902 153.034 427.512 152.461 427.625 151.866C427.643 151.771 427.662 151.677 427.681 151.582C427.803 150.99 428.382 150.608 428.975 150.73ZM499.024 150.73C499.617 150.608 500.196 150.99 500.318 151.582C500.338 151.677 500.356 151.771 500.374 151.866C500.487 152.461 500.097 153.034 499.502 153.147C498.908 153.26 498.334 152.87 498.221 152.275C498.205 152.191 498.189 152.107 498.172 152.024C498.05 151.431 498.431 150.852 499.024 150.73ZM428.392 154.233C428.997 154.237 429.484 154.731 429.48 155.337C429.479 155.38 429.479 155.423 429.479 155.466V155.601C429.479 156.206 428.988 156.696 428.383 156.696C427.778 156.696 427.287 156.206 427.287 155.601V155.466C427.287 155.417 427.288 155.369 427.288 155.32C427.292 154.715 427.787 154.228 428.392 154.233ZM499.607 154.233C500.213 154.228 500.707 154.715 500.711 155.32C500.712 155.341 500.712 155.362 500.712 155.382C500.712 155.41 500.712 155.438 500.712 155.466V155.601C500.712 156.206 500.221 156.697 499.616 156.697C499.011 156.697 498.52 156.206 498.52 155.601V155.466C498.52 155.445 498.52 155.425 498.52 155.405C498.52 155.382 498.52 155.359 498.52 155.337C498.515 154.731 499.002 154.237 499.607 154.233ZM428.383 157.742C428.988 157.742 429.479 158.232 429.479 158.838V159.107C429.479 159.713 428.988 160.203 428.383 160.203C427.778 160.203 427.287 159.713 427.287 159.107V158.838C427.287 158.232 427.778 157.742 428.383 157.742ZM499.616 157.742C500.221 157.742 500.712 158.232 500.712 158.838V159.107C500.712 159.713 500.221 160.203 499.616 160.203C499.011 160.203 498.52 159.713 498.52 159.107V158.838C498.52 158.232 499.011 157.742 499.616 157.742ZM428.383 161.249C428.988 161.249 429.479 161.739 429.479 162.345V162.614C429.479 163.22 428.988 163.71 428.383 163.71C427.778 163.71 427.287 163.22 427.287 162.614V162.345C427.287 161.739 427.778 161.249 428.383 161.249ZM499.616 161.249C500.221 161.249 500.712 161.739 500.712 162.345V162.614C500.712 163.22 500.221 163.71 499.616 163.71C499.011 163.71 498.52 163.22 498.52 162.614V162.345C498.52 161.739 499.011 161.249 499.616 161.249ZM428.383 164.756C428.988 164.756 429.479 165.246 429.479 165.851V166.121C429.479 166.726 428.988 167.217 428.383 167.217C427.778 167.217 427.287 166.726 427.287 166.121V165.851C427.287 165.246 427.778 164.756 428.383 164.756ZM499.616 164.756C500.221 164.756 500.712 165.246 500.712 165.851V166.121C500.712 166.726 500.221 167.217 499.616 167.217C499.011 167.217 498.52 166.726 498.52 166.121V165.851C498.52 165.246 499.011 164.756 499.616 164.756ZM428.383 168.262C428.988 168.262 429.479 168.753 429.479 169.358V169.628C429.479 170.233 428.988 170.724 428.383 170.724C427.778 170.724 427.287 170.233 427.287 169.628V169.358C427.287 168.753 427.778 168.262 428.383 168.262ZM499.616 168.262C500.221 168.262 500.712 168.753 500.712 169.358V169.628C500.712 170.233 500.221 170.724 499.616 170.724C499.011 170.724 498.52 170.233 498.52 169.628V169.358C498.52 168.753 499.011 168.262 499.616 168.262ZM428.383 171.769C428.988 171.769 429.479 172.26 429.479 172.865V173.135C429.479 173.74 428.988 174.231 428.383 174.231C427.778 174.231 427.287 173.74 427.287 173.135V172.865C427.287 172.26 427.778 171.769 428.383 171.769ZM499.616 171.769C500.221 171.769 500.712 172.26 500.712 172.865V173.135C500.712 173.74 500.221 174.231 499.616 174.231C499.011 174.231 498.52 173.74 498.52 173.135V172.865C498.52 172.26 499.011 171.769 499.616 171.769ZM428.383 175.276C428.988 175.276 429.479 175.767 429.479 176.372V176.642C429.479 177.247 428.988 177.738 428.383 177.738C427.778 177.738 427.287 177.247 427.287 176.642V176.372C427.287 175.767 427.778 175.276 428.383 175.276ZM499.616 175.276C500.221 175.276 500.712 175.767 500.712 176.372V176.642C500.712 177.247 500.221 177.738 499.616 177.738C499.011 177.738 498.52 177.247 498.52 176.642V176.372C498.52 175.767 499.011 175.276 499.616 175.276ZM428.383 178.783C428.988 178.783 429.479 179.274 429.479 179.879V180.149C429.479 180.754 428.988 181.244 428.383 181.244C427.778 181.244 427.287 180.754 427.287 180.149V179.879C427.287 179.274 427.778 178.783 428.383 178.783ZM499.616 178.783C500.221 178.783 500.712 179.274 500.712 179.879V180.149C500.712 180.754 500.221 181.244 499.616 181.244C499.011 181.244 498.52 180.754 498.52 180.149V179.879C498.52 179.274 499.011 178.783 499.616 178.783ZM428.383 182.29C428.988 182.29 429.479 182.78 429.479 183.386V183.655C429.479 184.261 428.988 184.751 428.383 184.751C427.778 184.751 427.287 184.261 427.287 183.655V183.386C427.287 182.78 427.778 182.29 428.383 182.29ZM499.616 182.29C500.221 182.29 500.712 182.78 500.712 183.386V183.655C500.712 184.261 500.221 184.751 499.616 184.751C499.011 184.751 498.52 184.261 498.52 183.655V183.386C498.52 182.78 499.011 182.29 499.616 182.29ZM428.383 185.797C428.988 185.797 429.479 186.287 429.479 186.892V187.162C429.479 187.767 428.988 188.258 428.383 188.258C427.778 188.258 427.287 187.767 427.287 187.162V186.892C427.287 186.287 427.778 185.797 428.383 185.797ZM499.616 185.797C500.221 185.797 500.712 186.287 500.712 186.892V187.162C500.712 187.767 500.221 188.258 499.616 188.258C499.011 188.258 498.52 187.767 498.52 187.162V186.892C498.52 186.287 499.011 185.797 499.616 185.797ZM428.383 189.303C428.988 189.303 429.479 189.794 429.479 190.399V190.534L429.479 190.597L429.48 190.663C429.484 191.269 428.997 191.763 428.392 191.767C427.787 191.772 427.292 191.285 427.288 190.68C427.288 190.631 427.287 190.583 427.287 190.534V190.399C427.287 189.794 427.778 189.303 428.383 189.303ZM499.616 189.303C500.221 189.303 500.712 189.794 500.712 190.399V190.534C500.712 190.583 500.712 190.631 500.711 190.68C500.707 191.285 500.213 191.772 499.607 191.767C499.002 191.763 498.515 191.269 498.52 190.663C498.52 190.62 498.52 190.577 498.52 190.534V190.399C498.52 189.794 499.011 189.303 499.616 189.303ZM428.497 192.853C429.092 192.74 429.665 193.13 429.778 193.725C429.794 193.809 429.811 193.892 429.828 193.976C429.95 194.569 429.568 195.148 428.975 195.27C428.382 195.392 427.803 195.01 427.681 194.418C427.662 194.323 427.643 194.229 427.625 194.134C427.512 193.539 427.902 192.966 428.497 192.853ZM499.502 192.853C500.097 192.966 500.487 193.539 500.374 194.134C500.356 194.229 500.338 194.323 500.318 194.418C500.196 195.01 499.617 195.392 499.024 195.27C498.431 195.148 498.05 194.569 498.172 193.976C498.189 193.892 498.205 193.809 498.221 193.725C498.334 193.13 498.908 192.74 499.502 192.853ZM429.291 196.314C429.852 196.087 430.491 196.357 430.719 196.918C430.751 196.997 430.784 197.076 430.817 197.154C431.053 197.711 430.793 198.355 430.235 198.591C429.678 198.827 429.035 198.566 428.799 198.009C428.761 197.92 428.724 197.831 428.688 197.742C428.46 197.181 428.731 196.542 429.291 196.314ZM498.708 196.314C499.269 196.542 499.539 197.181 499.311 197.742C499.275 197.831 499.238 197.92 499.2 198.009C498.964 198.566 498.321 198.827 497.764 198.591C497.207 198.355 496.946 197.711 497.182 197.154C497.215 197.076 497.248 196.997 497.28 196.918C497.508 196.357 498.147 196.087 498.708 196.314ZM430.751 199.552C431.256 199.219 431.936 199.359 432.269 199.864C432.316 199.936 432.363 200.007 432.411 200.078C432.752 200.578 432.622 201.26 432.122 201.6C431.621 201.941 430.94 201.811 430.599 201.311C430.545 201.231 430.491 201.151 430.438 201.07C430.105 200.565 430.245 199.885 430.751 199.552ZM497.249 199.552C497.754 199.885 497.894 200.565 497.561 201.07C497.508 201.151 497.454 201.231 497.4 201.311C497.06 201.811 496.378 201.941 495.878 201.6C495.377 201.26 495.248 200.578 495.588 200.078C495.636 200.007 495.684 199.936 495.731 199.864C496.064 199.359 496.743 199.219 497.249 199.552ZM432.814 202.443C433.245 202.018 433.939 202.023 434.364 202.454C434.424 202.515 434.484 202.576 434.545 202.636C434.977 203.061 434.982 203.754 434.557 204.186C434.132 204.617 433.438 204.622 433.007 204.197C432.938 204.129 432.87 204.061 432.802 203.992C432.378 203.561 432.383 202.867 432.814 202.443ZM495.185 202.443C495.616 202.867 495.622 203.561 495.197 203.992C495.129 204.061 495.061 204.129 494.992 204.197C494.561 204.622 493.867 204.617 493.442 204.186C493.018 203.754 493.023 203.061 493.454 202.636C493.515 202.576 493.575 202.515 493.635 202.454C494.06 202.023 494.754 202.018 495.185 202.443ZM435.399 204.878C435.74 204.377 436.422 204.248 436.922 204.588C436.993 204.636 437.064 204.684 437.135 204.731C437.641 205.064 437.78 205.744 437.448 206.249C437.115 206.754 436.435 206.894 435.93 206.561C435.849 206.508 435.769 206.455 435.689 206.4C435.189 206.06 435.059 205.378 435.399 204.878ZM492.6 204.878C492.94 205.378 492.811 206.06 492.31 206.4C492.231 206.455 492.15 206.508 492.07 206.561C491.564 206.894 490.885 206.754 490.552 206.249C490.219 205.744 490.359 205.064 490.864 204.731C490.936 204.684 491.007 204.636 491.077 204.588C491.578 204.248 492.259 204.377 492.6 204.878ZM438.409 206.764C438.645 206.207 439.288 205.946 439.845 206.183C439.924 206.216 440.003 206.249 440.082 206.281C440.643 206.508 440.913 207.147 440.685 207.708C440.458 208.269 439.819 208.539 439.258 208.312C439.168 208.275 439.079 208.238 438.991 208.201C438.433 207.965 438.173 207.321 438.409 206.764ZM489.59 206.764C489.826 207.321 489.566 207.965 489.009 208.201C488.92 208.238 488.831 208.275 488.741 208.312C488.181 208.539 487.541 208.269 487.314 207.708C487.086 207.147 487.356 206.508 487.917 206.281C487.996 206.249 488.075 206.216 488.154 206.183C488.711 205.946 489.354 206.207 489.59 206.764ZM441.729 208.024C441.851 207.432 442.431 207.05 443.024 207.172C443.107 207.189 443.191 207.206 443.275 207.222C443.869 207.334 444.26 207.908 444.147 208.503C444.034 209.097 443.46 209.488 442.866 209.375C442.771 209.357 442.676 209.338 442.582 209.319C441.989 209.197 441.608 208.617 441.729 208.024ZM486.27 208.024C486.392 208.617 486.01 209.197 485.417 209.319C485.323 209.338 485.228 209.357 485.134 209.375C484.539 209.488 483.965 209.097 483.852 208.503C483.739 207.908 484.13 207.334 484.725 207.222C484.808 207.206 484.892 207.189 484.976 207.172C485.568 207.05 486.148 207.432 486.27 208.024ZM445.232 208.608C445.237 208.003 445.731 207.516 446.336 207.52C446.379 207.52 446.422 207.521 446.465 207.521H446.6C447.206 207.521 447.696 208.011 447.696 208.616C447.696 209.222 447.206 209.712 446.6 209.712H446.465L446.375 209.712L446.32 209.712C445.715 209.707 445.228 209.213 445.232 208.608ZM482.767 208.608C482.771 209.213 482.285 209.707 481.679 209.712L481.593 209.712L481.534 209.712H481.399C480.794 209.712 480.303 209.222 480.303 208.616C480.303 208.011 480.794 207.521 481.399 207.521H481.534L481.605 207.52L481.663 207.52C482.268 207.516 482.762 208.003 482.767 208.608ZM448.741 208.616C448.741 208.011 449.232 207.521 449.837 207.521H450.107C450.712 207.521 451.203 208.011 451.203 208.616C451.203 209.222 450.712 209.712 450.107 209.712H449.837C449.232 209.712 448.741 209.222 448.741 208.616ZM452.248 208.616C452.248 208.011 452.739 207.521 453.344 207.521H453.614C454.219 207.521 454.71 208.011 454.71 208.616C454.71 209.222 454.219 209.712 453.614 209.712H453.344C452.739 209.712 452.248 209.222 452.248 208.616ZM455.755 208.616C455.755 208.011 456.246 207.521 456.851 207.521H457.121C457.726 207.521 458.217 208.011 458.217 208.616C458.217 209.222 457.726 209.712 457.121 209.712H456.851C456.246 209.712 455.755 209.222 455.755 208.616ZM459.262 208.616C459.262 208.011 459.753 207.521 460.358 207.521H460.628C461.233 207.521 461.724 208.011 461.724 208.616C461.724 209.222 461.233 209.712 460.628 209.712H460.358C459.753 209.712 459.262 209.222 459.262 208.616ZM462.769 208.616C462.769 208.011 463.26 207.521 463.865 207.521H464.135C464.74 207.521 465.23 208.011 465.23 208.616C465.23 209.222 464.74 209.712 464.135 209.712H463.865C463.26 209.712 462.769 209.222 462.769 208.616ZM466.276 208.616C466.276 208.011 466.766 207.521 467.372 207.521H467.641C468.247 207.521 468.737 208.011 468.737 208.616C468.737 209.222 468.247 209.712 467.641 209.712H467.372C466.766 209.712 466.276 209.222 466.276 208.616ZM469.783 208.616C469.783 208.011 470.273 207.521 470.878 207.521H471.148C471.753 207.521 472.244 208.011 472.244 208.616C472.244 209.222 471.753 209.712 471.148 209.712H470.878C470.273 209.712 469.783 209.222 469.783 208.616ZM473.289 208.616C473.289 208.011 473.78 207.521 474.385 207.521H474.655C475.26 207.521 475.751 208.011 475.751 208.616C475.751 209.222 475.26 209.712 474.655 209.712H474.385C473.78 209.712 473.289 209.222 473.289 208.616ZM476.796 208.616C476.796 208.011 477.287 207.521 477.892 207.521H478.162C478.767 207.521 479.258 208.011 479.258 208.616C479.258 209.222 478.767 209.712 478.162 209.712H477.892C477.287 209.712 476.796 209.222 476.796 208.616ZM446.89 141.768C446.931 141.767 446.973 141.767 447.014 141.767H447.145C447.75 141.767 448.24 141.277 448.24 140.671C448.24 140.066 447.75 139.575 447.145 139.575H447.014C446.966 139.575 446.919 139.576 446.872 139.576C446.266 139.581 445.78 140.076 445.785 140.681C445.79 141.286 446.285 141.773 446.89 141.768ZM450.28 139.575C449.675 139.575 449.185 140.066 449.185 140.671C449.185 141.277 449.675 141.767 450.28 141.767H450.542C451.147 141.767 451.638 141.277 451.638 140.671C451.638 140.066 451.147 139.575 450.542 139.575H450.28ZM453.678 139.575C453.072 139.575 452.582 140.066 452.582 140.671C452.582 141.277 453.072 141.767 453.678 141.767H453.939C454.544 141.767 455.035 141.277 455.035 140.671C455.035 140.066 454.544 139.575 453.939 139.575H453.678ZM457.075 139.575C456.47 139.575 455.979 140.066 455.979 140.671C455.979 141.277 456.47 141.767 457.075 141.767H457.336C457.942 141.767 458.432 141.277 458.432 140.671C458.432 140.066 457.942 139.575 457.336 139.575H457.075ZM460.472 139.575C459.867 139.575 459.376 140.066 459.376 140.671C459.376 141.277 459.867 141.767 460.472 141.767H460.734C461.339 141.767 461.829 141.277 461.829 140.671C461.829 140.066 461.339 139.575 460.734 139.575H460.472ZM463.87 139.575C463.264 139.575 462.774 140.066 462.774 140.671C462.774 141.277 463.264 141.767 463.87 141.767H464.131C464.736 141.767 465.227 141.277 465.227 140.671C465.227 140.066 464.736 139.575 464.131 139.575H463.87ZM467.267 139.575C466.662 139.575 466.171 140.066 466.171 140.671C466.171 141.277 466.662 141.767 467.267 141.767H467.528C468.133 141.767 468.624 141.277 468.624 140.671C468.624 140.066 468.133 139.575 467.528 139.575H467.267ZM470.664 139.575C470.059 139.575 469.568 140.066 469.568 140.671C469.568 141.277 470.059 141.767 470.664 141.767H470.925C471.531 141.767 472.021 141.277 472.021 140.671C472.021 140.066 471.531 139.575 470.925 139.575H470.664ZM474.061 139.575C473.456 139.575 472.965 140.066 472.965 140.671C472.965 141.277 473.456 141.767 474.061 141.767H474.323C474.928 141.767 475.419 141.277 475.419 140.671C475.419 140.066 474.928 139.575 474.323 139.575H474.061ZM477.459 139.575C476.853 139.575 476.363 140.066 476.363 140.671C476.363 141.277 476.853 141.767 477.459 141.767H477.72C478.325 141.767 478.816 141.277 478.816 140.671C478.816 140.066 478.325 139.575 477.72 139.575H477.459ZM480.856 139.575C480.251 139.575 479.76 140.066 479.76 140.671C479.76 141.277 480.251 141.767 480.856 141.767H480.986C481.028 141.767 481.069 141.767 481.11 141.768C481.715 141.773 482.21 141.286 482.215 140.681C482.221 140.076 481.734 139.581 481.129 139.576C481.081 139.576 481.034 139.575 480.986 139.575H480.856ZM443.961 142.095C444.553 141.966 444.927 141.382 444.798 140.79C444.669 140.199 444.085 139.824 443.494 139.953C443.401 139.974 443.309 139.995 443.217 140.016C442.628 140.156 442.264 140.746 442.403 141.335C442.542 141.924 443.133 142.289 443.722 142.149C443.801 142.13 443.881 142.112 443.961 142.095ZM484.506 139.953C483.915 139.824 483.331 140.199 483.202 140.79C483.073 141.382 483.448 141.966 484.039 142.095C484.119 142.112 484.199 142.13 484.279 142.149C484.868 142.289 485.458 141.924 485.598 141.335C485.737 140.746 485.372 140.156 484.783 140.016C484.691 139.995 484.599 139.974 484.506 139.953ZM440.943 143.122C441.49 142.863 441.724 142.21 441.466 141.663C441.208 141.115 440.555 140.881 440.007 141.139C439.922 141.18 439.837 141.221 439.752 141.263C439.209 141.53 438.986 142.187 439.254 142.73C439.521 143.273 440.178 143.496 440.721 143.228C440.795 143.192 440.869 143.157 440.943 143.122ZM487.993 141.139C487.446 140.881 486.792 141.115 486.534 141.663C486.276 142.21 486.51 142.863 487.058 143.122C487.132 143.157 487.206 143.192 487.279 143.228C487.822 143.496 488.479 143.273 488.747 142.73C489.014 142.187 488.791 141.53 488.249 141.263C488.164 141.221 488.079 141.18 487.993 141.139ZM438.228 144.798C438.704 144.424 438.787 143.736 438.414 143.259C438.04 142.783 437.351 142.7 436.875 143.074C436.801 143.132 436.727 143.191 436.653 143.251C436.184 143.632 436.112 144.323 436.494 144.792C436.876 145.262 437.566 145.333 438.036 144.952C438.099 144.9 438.163 144.849 438.228 144.798ZM491.125 143.074C490.649 142.7 489.96 142.783 489.587 143.259C489.213 143.736 489.296 144.424 489.772 144.798C489.837 144.849 489.901 144.9 489.965 144.952C490.434 145.333 491.124 145.262 491.506 144.792C491.888 144.323 491.817 143.632 491.347 143.251C491.274 143.191 491.2 143.132 491.125 143.074ZM435.952 147.036C436.333 146.566 436.262 145.876 435.792 145.494C435.323 145.112 434.632 145.184 434.251 145.653C434.191 145.727 434.132 145.801 434.074 145.875C433.7 146.351 433.783 147.04 434.26 147.414C434.736 147.787 435.425 147.704 435.798 147.228C435.849 147.163 435.9 147.099 435.952 147.036ZM493.75 145.653C493.368 145.184 492.678 145.112 492.208 145.494C491.738 145.876 491.667 146.566 492.049 147.036C492.1 147.099 492.152 147.163 492.202 147.228C492.576 147.704 493.265 147.787 493.741 147.414C494.217 147.04 494.3 146.351 493.927 145.875C493.868 145.801 493.809 145.727 493.75 145.653ZM434.229 149.721C434.496 149.178 434.273 148.521 433.73 148.254C433.188 147.986 432.531 148.209 432.263 148.752C432.221 148.836 432.18 148.922 432.139 149.007C431.881 149.555 432.116 150.208 432.663 150.466C433.21 150.724 433.863 150.49 434.122 149.943C434.157 149.868 434.192 149.795 434.229 149.721ZM495.738 148.752C495.47 148.209 494.813 147.986 494.27 148.254C493.727 148.521 493.504 149.178 493.772 149.721C493.808 149.795 493.844 149.868 493.879 149.943C494.137 150.49 494.79 150.724 495.337 150.466C495.885 150.208 496.119 149.555 495.861 149.007C495.821 148.922 495.779 148.836 495.738 148.752ZM433.149 152.721C433.289 152.132 432.924 151.542 432.335 151.403C431.746 151.263 431.156 151.628 431.016 152.217C430.995 152.309 430.974 152.401 430.953 152.494C430.824 153.085 431.199 153.669 431.791 153.798C432.382 153.927 432.966 153.553 433.095 152.961C433.112 152.881 433.131 152.801 433.149 152.721ZM496.984 152.217C496.845 151.628 496.254 151.263 495.665 151.403C495.076 151.542 494.712 152.132 494.851 152.721C494.87 152.801 494.888 152.881 494.906 152.961C495.035 153.553 495.619 153.927 496.21 153.798C496.801 153.669 497.176 153.085 497.047 152.494C497.027 152.401 497.006 152.309 496.984 152.217ZM432.768 155.89C432.773 155.285 432.287 154.79 431.681 154.785C431.076 154.78 430.581 155.266 430.576 155.871C430.576 155.919 430.576 155.966 430.576 156.014V156.144C430.576 156.75 431.066 157.24 431.671 157.24C432.277 157.24 432.767 156.75 432.767 156.144V156.014C432.767 155.972 432.767 155.931 432.768 155.89ZM497.424 155.871C497.419 155.266 496.924 154.78 496.319 154.785C495.714 154.79 495.227 155.285 495.233 155.89C495.233 155.931 495.233 155.972 495.233 156.014V156.144C495.233 156.75 495.724 157.24 496.329 157.24C496.934 157.24 497.425 156.75 497.425 156.144V156.014C497.425 155.966 497.425 155.919 497.424 155.871ZM432.767 159.28C432.767 158.675 432.277 158.184 431.671 158.184C431.066 158.184 430.576 158.675 430.576 159.28V159.542C430.576 160.147 431.066 160.638 431.671 160.638C432.277 160.638 432.767 160.147 432.767 159.542V159.28ZM497.425 159.28C497.425 158.675 496.934 158.184 496.329 158.184C495.724 158.184 495.233 158.675 495.233 159.28V159.542C495.233 160.147 495.724 160.638 496.329 160.638C496.934 160.638 497.425 160.147 497.425 159.542V159.28ZM432.767 162.678C432.767 162.072 432.277 161.582 431.671 161.582C431.066 161.582 430.576 162.072 430.576 162.678V162.939C430.576 163.544 431.066 164.035 431.671 164.035C432.277 164.035 432.767 163.544 432.767 162.939V162.678ZM497.425 162.678C497.425 162.072 496.934 161.582 496.329 161.582C495.724 161.582 495.233 162.072 495.233 162.678V162.939C495.233 163.544 495.724 164.035 496.329 164.035C496.934 164.035 497.425 163.544 497.425 162.939V162.678ZM432.767 166.075C432.767 165.47 432.277 164.979 431.671 164.979C431.066 164.979 430.576 165.47 430.576 166.075V166.336C430.576 166.941 431.066 167.432 431.671 167.432C432.277 167.432 432.767 166.941 432.767 166.336V166.075ZM497.425 166.075C497.425 165.47 496.934 164.979 496.329 164.979C495.724 164.979 495.233 165.47 495.233 166.075V166.336C495.233 166.941 495.724 167.432 496.329 167.432C496.934 167.432 497.425 166.941 497.425 166.336V166.075ZM432.767 169.472C432.767 168.867 432.277 168.376 431.671 168.376C431.066 168.376 430.576 168.867 430.576 169.472V169.733C430.576 170.339 431.066 170.829 431.671 170.829C432.277 170.829 432.767 170.339 432.767 169.733V169.472ZM497.425 169.472C497.425 168.867 496.934 168.376 496.329 168.376C495.724 168.376 495.233 168.867 495.233 169.472V169.733C495.233 170.339 495.724 170.829 496.329 170.829C496.934 170.829 497.425 170.339 497.425 169.733V169.472ZM432.767 172.869C432.767 172.264 432.277 171.774 431.671 171.774C431.066 171.774 430.576 172.264 430.576 172.869V173.131C430.576 173.736 431.066 174.227 431.671 174.227C432.277 174.227 432.767 173.736 432.767 173.131V172.869ZM497.425 172.869C497.425 172.264 496.934 171.774 496.329 171.774C495.724 171.774 495.233 172.264 495.233 172.869V173.131C495.233 173.736 495.724 174.227 496.329 174.227C496.934 174.227 497.425 173.736 497.425 173.131V172.869ZM432.767 176.267C432.767 175.661 432.277 175.171 431.671 175.171C431.066 175.171 430.576 175.661 430.576 176.267V176.528C430.576 177.133 431.066 177.624 431.671 177.624C432.277 177.624 432.767 177.133 432.767 176.528V176.267ZM497.425 176.267C497.425 175.661 496.934 175.171 496.329 175.171C495.724 175.171 495.233 175.661 495.233 176.267V176.528C495.233 177.133 495.724 177.624 496.329 177.624C496.934 177.624 497.425 177.133 497.425 176.528V176.267ZM432.767 179.664C432.767 179.059 432.277 178.568 431.671 178.568C431.066 178.568 430.576 179.059 430.576 179.664V179.925C430.576 180.53 431.066 181.021 431.671 181.021C432.277 181.021 432.767 180.53 432.767 179.925V179.664ZM497.425 179.664C497.425 179.059 496.934 178.568 496.329 178.568C495.724 178.568 495.233 179.059 495.233 179.664V179.925C495.233 180.53 495.724 181.021 496.329 181.021C496.934 181.021 497.425 180.53 497.425 179.925V179.664ZM432.767 183.061C432.767 182.456 432.277 181.965 431.671 181.965C431.066 181.965 430.576 182.456 430.576 183.061V183.323C430.576 183.928 431.066 184.418 431.671 184.418C432.277 184.418 432.767 183.928 432.767 183.323V183.061ZM497.425 183.061C497.425 182.456 496.934 181.965 496.329 181.965C495.724 181.965 495.233 182.456 495.233 183.061V183.323C495.233 183.928 495.724 184.418 496.329 184.418C496.934 184.418 497.425 183.928 497.425 183.323V183.061ZM432.767 186.458C432.767 185.853 432.277 185.363 431.671 185.363C431.066 185.363 430.576 185.853 430.576 186.458V186.72C430.576 187.325 431.066 187.816 431.671 187.816C432.277 187.816 432.767 187.325 432.767 186.72V186.458ZM497.425 186.458C497.425 185.853 496.934 185.363 496.329 185.363C495.724 185.363 495.233 185.853 495.233 186.458V186.72C495.233 187.325 495.724 187.816 496.329 187.816C496.934 187.816 497.425 187.325 497.425 186.72V186.458ZM432.767 189.856C432.767 189.25 432.277 188.76 431.671 188.76C431.066 188.76 430.576 189.25 430.576 189.856V189.986C430.576 190.034 430.576 190.081 430.576 190.129C430.581 190.734 431.076 191.22 431.681 191.215C432.287 191.21 432.773 190.715 432.768 190.11C432.767 190.069 432.767 190.028 432.767 189.986V189.856ZM497.425 189.856C497.425 189.25 496.934 188.76 496.329 188.76C495.724 188.76 495.233 189.25 495.233 189.856V189.986C495.233 190.028 495.233 190.069 495.233 190.11C495.227 190.715 495.714 191.21 496.319 191.215C496.924 191.22 497.419 190.734 497.424 190.129C497.424 190.101 497.425 190.074 497.425 190.046C497.425 190.026 497.425 190.006 497.425 189.986V189.856ZM433.095 193.039C432.966 192.448 432.382 192.073 431.791 192.202C431.199 192.331 430.824 192.915 430.953 193.506C430.974 193.599 430.995 193.691 431.016 193.783C431.156 194.372 431.746 194.737 432.335 194.597C432.924 194.458 433.289 193.868 433.149 193.279C433.131 193.199 433.112 193.119 433.095 193.039ZM497.047 193.506C497.176 192.915 496.801 192.331 496.21 192.202C495.619 192.073 495.035 192.448 494.906 193.039C494.895 193.089 494.883 193.139 494.872 193.189C494.865 193.219 494.858 193.249 494.851 193.279C494.712 193.868 495.076 194.458 495.665 194.597C496.254 194.737 496.845 194.372 496.984 193.783C497.006 193.691 497.027 193.599 497.047 193.506ZM434.122 196.058C433.863 195.51 433.21 195.276 432.663 195.534C432.116 195.792 431.881 196.445 432.139 196.993C432.18 197.078 432.221 197.164 432.263 197.248C432.531 197.791 433.188 198.014 433.73 197.747C434.273 197.479 434.496 196.822 434.229 196.279C434.192 196.206 434.157 196.132 434.122 196.058ZM495.861 196.993C496.119 196.445 495.885 195.792 495.337 195.534C494.79 195.276 494.137 195.51 493.879 196.058C493.844 196.132 493.808 196.206 493.772 196.279C493.504 196.822 493.727 197.479 494.27 197.747C494.813 198.014 495.47 197.791 495.738 197.248C495.779 197.164 495.82 197.078 495.861 196.993ZM435.798 198.772C435.425 198.296 434.736 198.213 434.26 198.586C433.783 198.96 433.7 199.649 434.074 200.125C434.132 200.2 434.191 200.273 434.251 200.347C434.632 200.816 435.323 200.888 435.792 200.506C436.262 200.124 436.333 199.434 435.952 198.964C435.9 198.901 435.849 198.837 435.798 198.772ZM493.927 200.125C494.3 199.649 494.217 198.96 493.741 198.586C493.265 198.213 492.576 198.296 492.202 198.772C492.152 198.837 492.1 198.901 492.049 198.964C491.667 199.434 491.738 200.124 492.208 200.506C492.678 200.888 493.368 200.816 493.75 200.347C493.809 200.273 493.868 200.2 493.927 200.125ZM438.036 201.049C437.566 200.667 436.876 200.738 436.494 201.208C436.112 201.678 436.184 202.368 436.653 202.75C436.727 202.809 436.801 202.868 436.875 202.927C437.351 203.3 438.04 203.217 438.414 202.741C438.787 202.265 438.704 201.576 438.228 201.202C438.163 201.151 438.099 201.1 438.036 201.049ZM491.347 202.75C491.817 202.368 491.888 201.678 491.506 201.208C491.124 200.738 490.434 200.667 489.965 201.049C489.901 201.1 489.837 201.151 489.772 201.202C489.296 201.576 489.213 202.265 489.587 202.741C489.96 203.217 490.649 203.3 491.125 202.927C491.2 202.868 491.274 202.809 491.347 202.75ZM440.721 202.772C440.178 202.504 439.521 202.727 439.254 203.27C438.986 203.813 439.209 204.47 439.752 204.737C439.837 204.779 439.922 204.82 440.007 204.861C440.555 205.119 441.208 204.885 441.466 204.337C441.724 203.79 441.49 203.137 440.943 202.879C440.869 202.844 440.795 202.808 440.721 202.772ZM488.249 204.737C488.791 204.47 489.014 203.813 488.747 203.27C488.479 202.727 487.822 202.504 487.279 202.772C487.206 202.808 487.132 202.844 487.058 202.879C486.51 203.137 486.276 203.79 486.534 204.337C486.792 204.885 487.446 205.119 487.993 204.861C488.079 204.82 488.164 204.779 488.249 204.737ZM443.722 203.851C443.133 203.712 442.542 204.076 442.403 204.665C442.264 205.254 442.628 205.845 443.217 205.984C443.309 206.006 443.401 206.027 443.494 206.047C444.085 206.176 444.669 205.801 444.798 205.21C444.927 204.618 444.553 204.034 443.961 203.905C443.881 203.888 443.801 203.87 443.722 203.851ZM484.783 205.984C485.372 205.845 485.737 205.254 485.598 204.665C485.458 204.076 484.868 203.712 484.279 203.851C484.231 203.862 484.182 203.873 484.134 203.884C484.102 203.891 484.071 203.898 484.039 203.905C483.448 204.034 483.073 204.618 483.202 205.21C483.331 205.801 483.915 206.176 484.506 206.047C484.599 206.027 484.691 206.006 484.783 205.984ZM446.89 204.232C446.285 204.227 445.79 204.714 445.785 205.319C445.78 205.924 446.266 206.419 446.872 206.424C446.919 206.425 446.966 206.425 447.014 206.425H447.145C447.75 206.425 448.24 205.934 448.24 205.329C448.24 204.724 447.75 204.233 447.145 204.233H447.014C446.973 204.233 446.931 204.233 446.89 204.232ZM481.129 206.424C481.734 206.419 482.221 205.924 482.215 205.319C482.21 204.714 481.715 204.227 481.11 204.232C481.069 204.233 481.028 204.233 480.986 204.233H480.856C480.251 204.233 479.76 204.724 479.76 205.329C479.76 205.934 480.251 206.425 480.856 206.425H480.986C481.034 206.425 481.081 206.425 481.129 206.424ZM450.28 204.233C449.675 204.233 449.185 204.724 449.185 205.329C449.185 205.934 449.675 206.425 450.28 206.425H450.542C451.147 206.425 451.638 205.934 451.638 205.329C451.638 204.724 451.147 204.233 450.542 204.233H450.28ZM453.678 204.233C453.072 204.233 452.582 204.724 452.582 205.329C452.582 205.934 453.072 206.425 453.678 206.425H453.939C454.544 206.425 455.035 205.934 455.035 205.329C455.035 204.724 454.544 204.233 453.939 204.233H453.678ZM457.075 204.233C456.47 204.233 455.979 204.724 455.979 205.329C455.979 205.934 456.47 206.425 457.075 206.425H457.336C457.942 206.425 458.432 205.934 458.432 205.329C458.432 204.724 457.942 204.233 457.336 204.233H457.075ZM460.472 204.233C459.867 204.233 459.376 204.724 459.376 205.329C459.376 205.934 459.867 206.425 460.472 206.425H460.734C461.339 206.425 461.829 205.934 461.829 205.329C461.829 204.724 461.339 204.233 460.734 204.233H460.472ZM463.87 204.233C463.264 204.233 462.774 204.724 462.774 205.329C462.774 205.934 463.264 206.425 463.87 206.425H464.131C464.736 206.425 465.227 205.934 465.227 205.329C465.227 204.724 464.736 204.233 464.131 204.233H463.87ZM467.267 204.233C466.662 204.233 466.171 204.724 466.171 205.329C466.171 205.934 466.662 206.425 467.267 206.425H467.528C468.133 206.425 468.624 205.934 468.624 205.329C468.624 204.724 468.133 204.233 467.528 204.233H467.267ZM470.664 204.233C470.059 204.233 469.568 204.724 469.568 205.329C469.568 205.934 470.059 206.425 470.664 206.425H470.925C471.531 206.425 472.021 205.934 472.021 205.329C472.021 204.724 471.531 204.233 470.925 204.233H470.664ZM474.061 204.233C473.456 204.233 472.965 204.724 472.965 205.329C472.965 205.934 473.456 206.425 474.061 206.425H474.323C474.928 206.425 475.419 205.934 475.419 205.329C475.419 204.724 474.928 204.233 474.323 204.233H474.061ZM477.459 204.233C476.853 204.233 476.363 204.724 476.363 205.329C476.363 205.934 476.853 206.425 477.459 206.425H477.72C478.325 206.425 478.816 205.934 478.816 205.329C478.816 204.724 478.325 204.233 477.72 204.233H477.459Z" fill="#E0E1E6"/>
<path d="M437 156.959C437 150.906 441.906 146 447.959 146H480.835C486.888 146 491.794 150.906 491.794 156.959V189.836C491.794 195.888 486.888 200.795 480.835 200.795H447.959C441.906 200.795 437 195.888 437 189.836V156.959Z" fill="#E0E1E6"/>
<path d="M480.241 170.561L452.102 173.536C452.095 173.368 452.09 173.199 452.09 173.03C452.09 166.386 457.476 161 464.12 161C465.953 160.998 467.761 161.416 469.407 162.221C471.053 163.027 472.493 164.198 473.616 165.646L472.386 166.823C470.593 165.226 468.274 164.345 465.873 164.348C464.194 164.347 462.544 164.778 461.079 165.598C459.615 166.418 458.386 167.601 457.509 169.032H480.241V170.561ZM448 176.968H470.731C469.855 178.399 468.626 179.582 467.161 180.402C465.697 181.222 464.046 181.653 462.368 181.652C459.966 181.655 457.648 180.774 455.855 179.177L454.624 180.354C455.748 181.802 457.187 182.973 458.833 183.779C460.479 184.584 462.288 185.002 464.12 185C470.764 185 476.15 179.614 476.15 172.97C476.15 172.801 476.146 172.632 476.139 172.464L448 175.439V176.968Z" fill="#B9BBC6"/>
<circle cx="419" cy="128" r="3" fill="#E0E1E6"/>
<circle cx="509" cy="128" r="3" fill="#E0E1E6"/>
<circle cx="509" cy="218" r="3" fill="#E0E1E6"/>
<circle cx="419" cy="218" r="3" fill="#E0E1E6"/>
<path d="M371 161H409.5" stroke="#EFF0F3"/>
<path d="M371 157H409.5" stroke="#EFF0F3"/>
<path d="M371 165H409.5" stroke="#EFF0F3"/>
<path d="M371 169H409.5" stroke="#EFF0F3"/>
<path d="M371 173H409.5" stroke="#EFF0F3"/>
<path d="M371 177H409.5" stroke="#EFF0F3"/>
<path d="M371 181H409.5" stroke="#EFF0F3"/>
<path d="M371 185H409.5" stroke="#EFF0F3"/>
<path d="M371 189H409.5" stroke="#EFF0F3"/>
<rect x="215" y="145" width="195" height="8" fill="#EFF0F3"/>
<rect x="215" y="161" width="195" height="8" fill="#EFF0F3"/>
<rect x="215" y="177" width="195" height="8" fill="#EFF0F3"/>
<rect x="215" y="193" width="195" height="8" fill="#EFF0F3"/>
<g clip-path="url(#clip1_1058_33341)">
<mask id="path-53-inside-1_1058_33341" fill="white">
<path d="M422 229H506V290H422V229Z"/>
</mask>
<path d="M422 229H506V290H422V229Z" fill="white"/>
<path d="M455.598 248.064C455.478 247.973 455.338 247.911 455.191 247.881C455.043 247.851 454.89 247.855 454.744 247.892C454.502 247.96 454.252 247.996 454 248C452.346 248 451 246.654 450.997 245.062C451.002 245.028 451.013 244.928 451.014 244.894C451.021 244.738 450.99 244.582 450.925 244.44C450.861 244.297 450.763 244.172 450.641 244.074C450.519 243.976 450.376 243.908 450.223 243.876C450.07 243.844 449.911 243.848 449.76 243.888C449.513 243.958 449.257 243.995 449 244C447.346 244 446 242.654 446 241C446 240.783 446.031 240.556 446.099 240.284C446.138 240.129 446.138 239.967 446.101 239.811C446.064 239.655 445.99 239.511 445.885 239.39C445.781 239.269 445.649 239.175 445.5 239.115C445.352 239.056 445.191 239.033 445.032 239.048C442.555 239.279 440.255 240.428 438.583 242.27C436.912 244.112 435.99 246.513 436 249C436 254.514 440.486 259 446 259C451.514 259 456 254.514 456 249C456 248.951 455.997 248.903 455.993 248.84C455.99 248.689 455.952 248.541 455.884 248.407C455.816 248.273 455.718 248.155 455.598 248.064ZM442.5 243C442.898 243 443.279 243.158 443.561 243.439C443.842 243.721 444 244.102 444 244.5C444 244.898 443.842 245.279 443.561 245.561C443.279 245.842 442.898 246 442.5 246C442.102 246 441.721 245.842 441.439 245.561C441.158 245.279 441 244.898 441 244.5C441 244.102 441.158 243.721 441.439 243.439C441.721 243.158 442.102 243 442.5 243ZM440.5 251C440.102 251 439.721 250.842 439.439 250.561C439.158 250.279 439 249.898 439 249.5C439 249.102 439.158 248.721 439.439 248.439C439.721 248.158 440.102 248 440.5 248C440.898 248 441.279 248.158 441.561 248.439C441.842 248.721 442 249.102 442 249.5C442 249.898 441.842 250.279 441.561 250.561C441.279 250.842 440.898 251 440.5 251ZM443.5 255C443.102 255 442.721 254.842 442.439 254.561C442.158 254.279 442 253.898 442 253.5C442 253.102 442.158 252.721 442.439 252.439C442.721 252.158 443.102 252 443.5 252C443.898 252 444.279 252.158 444.561 252.439C444.842 252.721 445 253.102 445 253.5C445 253.898 444.842 254.279 444.561 254.561C444.279 254.842 443.898 255 443.5 255ZM446 248.5C446 248.102 446.158 247.721 446.439 247.439C446.721 247.158 447.102 247 447.5 247C447.898 247 448.279 247.158 448.561 247.439C448.842 247.721 449 248.102 449 248.5C449 248.898 448.842 249.279 448.561 249.561C448.279 249.842 447.898 250 447.5 250C447.102 250 446.721 249.842 446.439 249.561C446.158 249.279 446 248.898 446 248.5ZM449.5 255C449.102 255 448.721 254.842 448.439 254.561C448.158 254.279 448 253.898 448 253.5C448 253.102 448.158 252.721 448.439 252.439C448.721 252.158 449.102 252 449.5 252C449.898 252 450.279 252.158 450.561 252.439C450.842 252.721 451 253.102 451 253.5C451 253.898 450.842 254.279 450.561 254.561C450.279 254.842 449.898 255 449.5 255Z" fill="#646AEE"/>
<path fill-rule="evenodd" clip-rule="evenodd" d="M475.499 240.205C476.824 239.438 478.362 239 480 239C484.971 239 489 243.029 489 248C489 250.567 488.642 253.051 487.971 255.406C487.82 255.937 487.267 256.245 486.736 256.094C486.205 255.943 485.897 255.389 486.048 254.858C486.668 252.68 487 250.38 487 248C487 244.134 483.866 241 480 241C478.723 241 477.529 241.341 476.501 241.936C476.023 242.212 475.411 242.049 475.134 241.571C474.858 241.093 475.021 240.481 475.499 240.205ZM473.571 243.134C474.049 243.411 474.212 244.023 473.936 244.501C473.341 245.529 473 246.723 473 248C473 249.719 472.605 251.349 471.899 252.801C471.658 253.298 471.06 253.505 470.563 253.264C470.066 253.022 469.859 252.424 470.101 251.927C470.676 250.742 471 249.41 471 248C471 246.362 471.438 244.824 472.205 243.499C472.481 243.021 473.093 242.858 473.571 243.134ZM475 248C475 245.239 477.238 243 480 243C482.761 243 485 245.239 485 248C485 249.062 484.928 250.109 484.787 251.135C484.713 251.683 484.208 252.066 483.661 251.991C483.114 251.916 482.731 251.412 482.806 250.865C482.934 249.928 483 248.972 483 248C483 246.343 481.657 245 480 245C478.343 245 477 246.343 477 248C477 250.936 476.16 253.666 474.708 255.974C474.694 255.996 474.68 256.019 474.667 256.041C474.385 256.516 473.771 256.672 473.296 256.39C472.821 256.108 472.665 255.495 472.947 255.02C472.969 254.983 472.992 254.946 473.015 254.909L473.861 255.441L473.015 254.909C474.272 252.911 475 250.548 475 248ZM480 247C480.552 247 481 247.448 481 248C481 251.711 479.935 255.176 478.094 258.104C477.799 258.571 477.182 258.712 476.715 258.418C476.247 258.124 476.107 257.506 476.401 257.039C478.047 254.421 479 251.323 479 248C479 247.448 479.448 247 480 247ZM483.443 253.038C483.974 253.188 484.283 253.741 484.133 254.272C483.737 255.67 483.213 257.015 482.573 258.292C482.326 258.785 481.725 258.985 481.231 258.738C480.737 258.49 480.538 257.889 480.785 257.396C481.369 256.23 481.847 255.003 482.208 253.728C482.359 253.196 482.912 252.887 483.443 253.038Z" fill="#646AEE"/>
<g clip-path="url(#clip2_1058_33341)">
<path d="M446 293C440.477 293 436 288.522 436 283C436 277.478 440.477 273 446 273C451.523 273 456 277.478 456 283C456 288.522 451.523 293 446 293ZM446.775 283.443V278.783C446.775 278.329 446.405 277.951 445.951 277.951C445.842 277.951 445.734 277.973 445.634 278.015C445.534 278.057 445.442 278.118 445.366 278.195C445.289 278.272 445.228 278.364 445.187 278.465C445.146 278.565 445.125 278.673 445.126 278.782V283.788C445.125 284.006 445.209 284.215 445.362 284.371L447.705 286.74C447.781 286.817 447.872 286.877 447.972 286.918C448.071 286.96 448.178 286.98 448.286 286.98C448.394 286.979 448.501 286.957 448.6 286.915C448.7 286.873 448.79 286.811 448.865 286.734C449.019 286.578 449.106 286.368 449.107 286.149C449.108 285.93 449.023 285.719 448.871 285.561L446.775 283.443Z" fill="#646AEE"/>
</g>
<path d="M477.3 274.248C477.888 274.248 478.45 274.5 478.843 274.938L480.662 276.971C480.755 277.074 480.867 277.156 480.994 277.212C481.12 277.269 481.256 277.298 481.394 277.297H486.626C487.581 277.297 488.497 277.677 489.172 278.352C489.847 279.027 490.226 279.943 490.226 280.897V288.239C490.226 289.194 489.847 290.11 489.172 290.785C488.497 291.46 487.581 291.839 486.626 291.839H473.238C472.283 291.839 471.368 291.46 470.692 290.785C470.017 290.11 469.638 289.194 469.638 288.239V277.848C469.638 276.894 470.017 275.978 470.692 275.303C471.368 274.628 472.283 274.248 473.238 274.248H477.3ZM479.932 280.487C479.77 280.487 479.614 280.545 479.491 280.649C479.368 280.754 479.286 280.899 479.26 281.058L479.25 281.169V286.085L477.6 284.436C477.48 284.314 477.319 284.241 477.147 284.232C476.976 284.223 476.808 284.279 476.676 284.389C476.544 284.499 476.459 284.654 476.436 284.824C476.414 284.994 476.457 285.166 476.556 285.306L476.636 285.401L479.448 288.214C479.686 288.45 480.053 288.477 480.318 288.292L480.413 288.214L483.227 285.4C483.35 285.28 483.423 285.118 483.431 284.947C483.44 284.776 483.384 284.608 483.274 284.476C483.164 284.344 483.009 284.259 482.839 284.236C482.669 284.214 482.497 284.257 482.357 284.356L482.262 284.435L480.613 286.083V281.169C480.613 280.988 480.541 280.815 480.414 280.687C480.286 280.559 480.112 280.487 479.932 280.487ZM487.807 274.35C487.915 274.35 488.021 274.371 488.12 274.413C488.22 274.454 488.31 274.514 488.386 274.59C488.462 274.666 488.522 274.756 488.563 274.856C488.604 274.955 488.626 275.061 488.626 275.169C488.626 275.276 488.604 275.383 488.563 275.482C488.522 275.581 488.462 275.671 488.386 275.747C488.31 275.823 488.22 275.884 488.12 275.925C488.021 275.966 487.915 275.987 487.807 275.987H482.556C482.449 275.987 482.342 275.966 482.243 275.925C482.144 275.884 482.053 275.823 481.977 275.747C481.901 275.671 481.841 275.581 481.8 275.482C481.759 275.383 481.738 275.276 481.738 275.169C481.738 275.061 481.759 274.955 481.8 274.856C481.841 274.756 481.901 274.666 481.977 274.59C482.053 274.514 482.144 274.454 482.243 274.413C482.342 274.371 482.449 274.35 482.556 274.35H487.807Z" fill="#646AEE"/>
</g>
<path d="M505 229V290H507V229H505ZM423 290V229H421V290H423Z" fill="#C5CFFF" mask="url(#path-53-inside-1_1058_33341)"/>
<mask id="path-59-inside-2_1058_33341" fill="white">
<path d="M422 312H506V340H422V312Z"/>
</mask>
<path d="M422 312H506V340H422V312Z" fill="white"/>
<path d="M506 340V341H507V340H506ZM422 340H421V341H422V340ZM505 312V340H507V312H505ZM506 339H422V341H506V339ZM423 340V312H421V340H423Z" fill="#C5CFFF" mask="url(#path-59-inside-2_1058_33341)"/>
<path fill-rule="evenodd" clip-rule="evenodd" d="M431 340V312H432L433 340H431Z" fill="#C5CFFF"/>
<path fill-rule="evenodd" clip-rule="evenodd" d="M440.051 340L440.551 312H441.551L443.551 340H440.051Z" fill="#C5CFFF"/>
<path fill-rule="evenodd" clip-rule="evenodd" d="M450.602 340V312H451.602L453.602 340H450.602Z" fill="#C5CFFF"/>
<path fill-rule="evenodd" clip-rule="evenodd" d="M460.653 340V312H461.653V340H460.653Z" fill="#C5CFFF"/>
<path fill-rule="evenodd" clip-rule="evenodd" d="M468.704 340V312H469.704V340H468.704Z" fill="#C5CFFF"/>
<path fill-rule="evenodd" clip-rule="evenodd" d="M476.755 340V312H477.755L478.898 340H476.755Z" fill="#C5CFFF"/>
<path fill-rule="evenodd" clip-rule="evenodd" d="M485.949 340V312H486.949L488.949 340H485.949Z" fill="#C5CFFF"/>
<path fill-rule="evenodd" clip-rule="evenodd" d="M496 340V312H497V340H496Z" fill="#C5CFFF"/>
<rect x="410" y="290" width="108" height="20" rx="6" fill="#FDFDFF" stroke="#C5CFFF"/>
<circle cx="509" cy="300" r="3" fill="#B0BBFC"/>
<circle cx="419" cy="300" r="3" fill="#B0BBFC"/>
</g>
<path d="M378 0V340" stroke="#646EE6" stroke-width="3"/>
<rect x="361" y="158" width="34" height="24" rx="12" fill="#646AEE"/>
<path d="M375 165L370 170L375 175M381 165L386 170L381 175" stroke="white" stroke-width="2" stroke-linecap="round" stroke-linejoin="round"/>
<defs>
<clipPath id="clip0_1058_33341">
<rect x="162" y="237.2" width="283.2" height="93.6" rx="7.2" fill="white"/>
</clipPath>
<clipPath id="clip1_1058_33341">
<path d="M422 229H506V290H422V229Z" fill="white"/>
</clipPath>
<clipPath id="clip2_1058_33341">
<rect width="20" height="20" fill="white" transform="translate(436 273)"/>
</clipPath>
</defs>
</svg>
