<svg width="608" height="340" viewBox="0 0 608 340" fill="none" xmlns="http://www.w3.org/2000/svg">
<rect width="608" height="340" rx="16" fill="#FEF7ED"/>
<rect x="204" y="110" width="200" height="140" rx="8" fill="white"/>
<path d="M204 118C204 113.582 207.582 110 212 110H396C400.418 110 404 113.582 404 118V134H204V118Z" fill="#373737"/>
<circle cx="218" cy="122" r="4" fill="#FF5F57"/>
<circle cx="230" cy="122" r="4" fill="#FEBC2E"/>
<circle cx="242" cy="122" r="4" fill="#28C840"/>
<rect x="274" y="162" width="60" height="60" rx="30" fill="#FA8525"/>
<path d="M296 201C293.055 201 290.667 198.612 290.667 195.667C290.667 193.181 292.367 191.093 294.668 190.501C294.667 190.445 294.667 190.389 294.667 190.333C294.667 185.179 298.845 181 304 181C308.813 181 312.775 184.643 313.279 189.323C315.638 190.131 317.333 192.367 317.333 195C317.333 198.314 314.647 201 311.333 201C306.348 201 301.584 201 296 201Z" fill="white"/>
<ellipse cx="304" cy="180" rx="210" ry="130" stroke="#FFD9A7" stroke-linecap="round"/>
<rect x="104.5" y="224.5" width="63" height="63" rx="31.5" fill="#FFFEFD"/>
<rect x="104.5" y="224.5" width="63" height="63" rx="31.5" stroke="#FFD9A7"/>
<path d="M145.333 246.667C145.333 244.1 143.233 242 140.667 242H131.333C128.767 242 126.667 244.1 126.667 246.667V265.333C126.667 267.9 128.767 270 131.333 270H140.667C143.233 270 145.333 267.9 145.333 265.333V246.667ZM137.167 267.667H134.833C134.133 267.667 133.667 267.2 133.667 266.5C133.667 265.8 134.133 265.333 134.833 265.333H137.167C137.867 265.333 138.333 265.8 138.333 266.5C138.333 267.2 137.867 267.667 137.167 267.667ZM143 261.833C143 262.533 142.533 263 141.833 263H130.167C129.467 263 129 262.533 129 261.833V247.833C129 247.133 129.467 246.667 130.167 246.667H141.833C142.533 246.667 143 247.133 143 247.833V261.833Z" fill="#FA8525"/>
<rect x="152" y="272" width="16" height="16" rx="8" fill="#2ECC9C"/>
<path fill-rule="evenodd" clip-rule="evenodd" d="M163.852 278L158.909 282.943L156.148 280.182L157.091 279.239L158.909 281.057L162.909 277.057L163.852 278Z" fill="white"/>
<rect x="440.5" y="224.5" width="63" height="63" rx="31.5" fill="#FFFEFD"/>
<rect x="440.5" y="224.5" width="63" height="63" rx="31.5" stroke="#FFD9A7"/>
<rect x="488" y="272" width="16" height="16" rx="8" fill="#2ECC9C"/>
<path fill-rule="evenodd" clip-rule="evenodd" d="M499.852 278L494.909 282.943L492.148 280.182L493.091 279.239L494.909 281.057L498.909 277.057L499.852 278Z" fill="white"/>
<path fill-rule="evenodd" clip-rule="evenodd" d="M474.576 241.334H469.092C466.971 241.334 465.273 241.334 463.917 241.476C462.521 241.624 461.333 241.934 460.293 242.66C459.593 243.15 458.985 243.76 458.493 244.462C457.769 245.496 457.457 246.684 457.311 248.082C457.167 249.438 457.167 251.136 457.167 253.258V253.41C457.167 255.532 457.167 257.228 457.311 258.586C457.457 259.982 457.769 261.17 458.495 262.208C458.985 262.908 459.594 263.517 460.295 264.008C461.331 264.732 462.519 265.044 463.915 265.192C465.211 265.328 466.817 265.332 468.804 265.332C468.855 265.772 468.841 266.216 468.76 266.652L468.76 266.656C468.67 267.141 468.625 267.385 468.254 267.692C467.884 268 467.52 268 466.791 268H465.167C464.822 268.013 464.496 268.159 464.257 268.408C464.018 268.656 463.884 268.988 463.884 269.333C463.884 269.678 464.018 270.009 464.257 270.258C464.496 270.506 464.822 270.652 465.167 270.666H478.5C478.68 270.673 478.859 270.643 479.026 270.58C479.194 270.516 479.347 270.419 479.477 270.294C479.606 270.17 479.709 270.02 479.779 269.855C479.85 269.69 479.886 269.512 479.886 269.333C479.886 269.153 479.85 268.976 479.779 268.81C479.709 268.645 479.606 268.496 479.477 268.371C479.347 268.247 479.194 268.15 479.026 268.086C478.859 268.022 478.68 267.993 478.5 268H476.876C476.148 268 475.782 268 475.412 267.692C475.042 267.384 474.996 267.14 474.906 266.654C474.826 266.218 474.811 265.774 474.862 265.334C476.852 265.334 478.458 265.328 479.754 265.19C481.15 265.044 482.338 264.732 483.374 264.006C484.074 263.516 484.684 262.906 485.174 262.206C485.898 261.17 486.21 259.982 486.358 258.586C486.5 257.23 486.5 255.53 486.5 253.41V253.258C486.5 251.136 486.5 249.438 486.358 248.08C486.21 246.684 485.9 245.496 485.172 244.46C484.684 243.76 484.072 243.15 483.372 242.66C482.338 241.936 481.15 241.624 479.752 241.476C478.396 241.334 476.696 241.334 474.576 241.334ZM469.793 259.293C469.981 259.105 470.235 259 470.5 259H473.166C473.432 259 473.686 259.105 473.873 259.293C474.061 259.48 474.166 259.735 474.166 260C474.166 260.265 474.061 260.52 473.873 260.707C473.686 260.895 473.432 261 473.166 261H470.5C470.235 261 469.981 260.895 469.793 260.707C469.606 260.52 469.5 260.265 469.5 260C469.5 259.735 469.606 259.48 469.793 259.293ZM464.001 245C462.344 245 461.001 246.343 461.001 248V254C461.001 255.657 462.344 257 464.001 257H479.671C481.328 257 482.671 255.657 482.671 254V248C482.671 246.343 481.328 245 479.671 245H464.001Z" fill="#FA8525"/>
<rect x="272.5" y="18.5" width="63" height="63" rx="31.5" fill="#FFFEFD"/>
<rect x="272.5" y="18.5" width="63" height="63" rx="31.5" stroke="#FFD9A7"/>
<rect x="320" y="66" width="16" height="16" rx="8" fill="#2ECC9C"/>
<path fill-rule="evenodd" clip-rule="evenodd" d="M331.852 71.9999L326.909 76.9427L324.148 74.1818L325.091 73.2389L326.909 75.0571L330.909 71.0571L331.852 71.9999Z" fill="white"/>
<path d="M302.016 43.7812H299.047C298.161 43.7812 297.719 44.224 297.719 45.1094C297.719 45.9948 298.161 46.4375 299.047 46.4375H302.016C302.901 46.4375 303.344 45.9948 303.344 45.1094C303.344 44.224 302.901 43.7812 302.016 43.7812Z" fill="#FA8525"/>
<path fill-rule="evenodd" clip-rule="evenodd" d="M316.047 57.8222L315.436 56.2347C315.286 55.8434 315.208 55.4277 315.208 55.0084V42.9078C315.208 40.8531 313.543 39.1875 311.488 39.1875H296.705C294.65 39.1875 292.985 40.8531 292.985 42.9078V55.0084C292.985 55.4278 292.908 55.8434 292.757 56.2347L292.146 57.8225C291.627 59.1734 292.624 60.6253 294.071 60.6253H314.122C315.57 60.6253 316.567 59.1734 316.047 57.8225L316.047 57.8222ZM310.673 54.2634H297.52C296.115 54.2634 295.412 53.5608 295.412 52.1556V43.6306C295.412 42.2254 296.115 41.5228 297.52 41.5228H310.673C312.079 41.5228 312.781 42.2254 312.781 43.6306V52.1556C312.781 53.5608 312.079 54.2634 310.673 54.2634Z" fill="#FA8525"/>
</svg>
