<svg width="608" height="340" viewBox="0 0 608 340" fill="none" xmlns="http://www.w3.org/2000/svg">
<g clip-path="url(#clip0_1058_33276)">
<rect width="608" height="340" rx="16" fill="#EFF1FF"/>
<path d="M558 346H564V340V73C564 63.0589 555.941 55 546 55H62C52.0589 55 44 63.0589 44 73V340V346H50H558Z" fill="white" stroke="#C5CFFF" stroke-width="12"/>
<g clip-path="url(#clip1_1058_33276)">
<rect x="162" y="237.2" width="283.2" height="93.6" rx="7.2" fill="#F7F9FF"/>
<path d="M514.8 281.694C506.766 281.694 498.633 283.139 491.368 286.713C484.871 289.906 479.317 294.823 473.639 299.284C469.2 302.781 464.663 306.178 459.629 308.737C442.148 317.633 419.559 315.302 403.838 303.668C397.069 298.65 390.845 292.795 383.555 288.639C365.95 278.577 342.543 279.641 325.88 291.325C317.003 297.535 309.564 305.468 299.497 309.802C293.522 312.362 287.099 313.882 280.603 314.212C270.635 314.693 260.568 312.362 251.765 307.571C242.963 302.781 235.673 294.772 226.945 289.348C213.803 281.187 195.231 279.033 180.725 284.533C171.402 288.056 163.641 294.747 155.681 300.804C150.796 304.505 145.713 308.028 140.134 310.537C133.687 313.375 126.943 314.085 120 314.085" stroke="#E3E8FF" stroke-width="3" stroke-miterlimit="10"/>
<path d="M158.251 286.697C166.155 289.567 174.182 292.059 182.164 294.687C192.403 298.055 202.241 302.359 212.883 304.519C229.897 307.977 243.756 304.489 258.806 296.303C266.184 292.285 273.439 287.935 281.312 284.96C289.293 281.955 297.862 280.399 306.215 282.815C311.613 284.371 316.624 286.969 321.775 289.204C332.572 293.901 344.373 296.695 355.881 292.904C374.968 286.606 381.388 266.851 397.768 257.14C412.988 248.108 428.317 253.968 437.968 267.38C449.445 283.314 456.824 301.649 475.184 311.542" stroke="#C5CFFF" stroke-width="3" stroke-miterlimit="10"/>
</g>
<rect x="291.6" y="195.2" width="11.04" height="28.8" rx="2.4" fill="#EFF1FF"/>
<rect x="307.44" y="201.2" width="11.04" height="22.8" rx="2.4" fill="#EFF1FF"/>
<rect x="323.28" y="185.6" width="11.04" height="38.4" rx="2.4" fill="#EFF1FF"/>
<rect x="339.12" y="190.4" width="11.04" height="33.6" rx="2.4" fill="#EFF1FF"/>
<rect x="354.96" y="198.237" width="11.04" height="25.7627" rx="2.4" fill="#EFF1FF"/>
<rect x="370.8" y="178.4" width="11.04" height="45.6" rx="2.4" fill="#EFF1FF"/>
<rect x="386.64" y="198.237" width="11.04" height="25.7627" rx="2.4" fill="#EFF1FF"/>
<rect x="402.48" y="208.8" width="11.04" height="15.2" rx="2.4" fill="#EFF1FF"/>
<rect x="418.32" y="207.2" width="11.04" height="16.8" rx="2.4" fill="#EFF1FF"/>
<rect x="434.16" y="190.4" width="11.04" height="33.6" rx="2.4" fill="#EFF1FF"/>
<rect x="162" y="128" width="120" height="96" rx="7.2" fill="#F7F9FF"/>
<path fill-rule="evenodd" clip-rule="evenodd" d="M232.303 159.2C230.241 159.2 228.57 160.871 228.57 162.933C228.57 164.995 230.241 166.667 232.303 166.667C234.365 166.667 236.036 164.995 236.036 162.933C236.036 160.871 234.365 159.2 232.303 159.2ZM215.964 166.488C216.865 166.121 217.874 166.121 218.776 166.488C219.454 166.763 219.924 167.241 220.266 167.65C220.591 168.04 220.942 168.547 221.318 169.091L226.533 176.623C226.877 176.107 227.198 175.632 227.498 175.26C227.84 174.836 228.313 174.337 229.006 174.05C229.922 173.67 230.951 173.67 231.866 174.05C232.559 174.337 233.033 174.836 233.374 175.26C233.701 175.665 234.053 176.194 234.433 176.763L240.139 185.322C240.603 186.018 241.021 186.644 241.309 187.176C241.597 187.707 241.926 188.437 241.875 189.289C241.81 190.379 241.271 191.385 240.401 192.044C239.72 192.559 238.93 192.69 238.328 192.745C237.726 192.8 236.973 192.8 236.136 192.8H206.189C205.335 192.8 204.57 192.8 203.96 192.744C203.352 192.689 202.55 192.557 201.864 192.032C200.99 191.363 200.455 190.343 200.403 189.243C200.362 188.381 200.71 187.647 201.01 187.115C201.312 186.581 201.748 185.952 202.233 185.251L213.379 169.151C213.393 169.131 213.407 169.111 213.421 169.091C213.797 168.547 214.148 168.04 214.474 167.65C214.816 167.241 215.285 166.763 215.964 166.488Z" fill="#C5CFFF"/>
<path d="M50 73C50 66.3726 55.3726 61 62 61H546C552.627 61 558 66.3726 558 73V105H50V73Z" fill="#373737"/>
<path d="M130 83C130 77.4772 134.477 73 140 73H280C285.523 73 290 77.4772 290 83V105H130V83Z" fill="white"/>
<rect x="142" y="85" width="80" height="12" rx="2" fill="#E7E8EC"/>
<circle cx="72" cy="83" r="6" fill="#FF5F57"/>
<circle cx="90" cy="83" r="6" fill="#FEBC2E"/>
<circle cx="108" cy="83" r="6" fill="#28C840"/>
<path d="M274.8 258C263.865 258 255 249.165 255 238.267C255 229.07 261.313 221.342 269.855 219.154C269.852 218.947 269.85 218.741 269.85 218.533C269.85 199.461 285.363 184 304.5 184C322.369 184 337.078 197.48 338.949 214.794C347.705 217.784 354 226.059 354 235.8C354 248.061 344.027 258 331.725 258C313.216 258 295.529 258 274.8 258Z" fill="#646AEE"/>
<path fill-rule="evenodd" clip-rule="evenodd" d="M304.174 203.039C304.537 202.987 304.905 202.987 305.267 203.039C305.682 203.098 306.071 203.243 306.422 203.374C306.452 203.385 306.481 203.396 306.51 203.406L317.909 207.629C317.994 207.661 318.078 207.692 318.16 207.722C319.503 208.218 320.584 208.617 321.412 209.339C322.14 209.972 322.702 210.773 323.049 211.673C323.444 212.7 323.443 213.848 323.441 215.262C323.441 215.35 323.441 215.439 323.441 215.53V225.574C323.441 231.374 320.247 236.235 316.748 239.836C313.228 243.459 309.196 246.022 307.06 247.253C307.033 247.268 307.006 247.284 306.978 247.3C306.581 247.53 306.126 247.794 305.522 247.922C305.03 248.026 304.412 248.026 303.92 247.922C303.315 247.794 302.861 247.53 302.463 247.3C302.435 247.284 302.408 247.268 302.381 247.253C300.246 246.022 296.213 243.459 292.693 239.836C289.194 236.235 286 231.374 286 225.574V215.53C286 215.439 286 215.35 286 215.262C285.998 213.848 285.997 212.7 286.392 211.673C286.739 210.773 287.301 209.972 288.029 209.339C288.858 208.617 289.938 208.218 291.281 207.722C291.364 207.692 291.448 207.661 291.532 207.629L302.931 203.406C302.96 203.396 302.989 203.385 303.019 203.374C303.37 203.243 303.759 203.098 304.174 203.039ZM303.007 243.635C300.907 242.342 297.845 240.22 295.152 237.447C291.924 234.126 289.428 230.083 289.428 225.574V215.53C289.428 213.709 289.455 213.258 289.591 212.905C289.736 212.53 289.971 212.193 290.28 211.924C290.573 211.669 291 211.482 292.723 210.844L303.007 207.034V243.635Z" fill="white"/>
<rect x="291" y="53" width="20" height="5" rx="2.5" fill="#94A0F4"/>
<rect x="313" y="53" width="5" height="5" rx="2.5" fill="#94A0F4"/>
</g>
<defs>
<clipPath id="clip0_1058_33276">
<rect width="608" height="340" rx="16" fill="white"/>
</clipPath>
<clipPath id="clip1_1058_33276">
<rect x="162" y="237.2" width="283.2" height="93.6" rx="7.2" fill="white"/>
</clipPath>
</defs>
</svg>
