<svg width="608" height="340" viewBox="0 0 608 340" fill="none" xmlns="http://www.w3.org/2000/svg">
<g clip-path="url(#clip0_1058_33312)">
<rect width="608" height="340" rx="16" fill="#FEF7ED"/>
<path d="M50 73C50 66.3726 55.3726 61 62 61H546C552.627 61 558 66.3726 558 73V340H50L50 73Z" fill="#FCF9F5"/>
<path d="M558 346H564V340V73C564 63.0589 555.941 55 546 55H62C52.0589 55 44 63.0589 44 73V340V346H50H558Z" stroke="#FFD9A7" stroke-opacity="0.6" stroke-width="12"/>
<rect x="290" y="52" width="20" height="5" rx="2.5" fill="#FFC67A"/>
<rect x="312" y="52" width="5" height="5" rx="2.5" fill="#FFC67A"/>
<path d="M85.5049 99H84.5049V100V340V341H85.5049H522.494H523.494V340V100V99H522.494H85.5049Z" fill="white" stroke="#FA8525" stroke-width="2"/>
<path d="M85.5049 100H522.494V137.849H85.5049V100Z" fill="#373737"/>
<path d="M154.322 118.925C154.322 114.174 158.173 110.323 162.924 110.323H283.354C288.105 110.323 291.956 114.174 291.956 118.925V137.85H154.322V118.925Z" fill="white"/>
<rect x="164.645" y="120.645" width="68.8172" height="10.3226" rx="1.72043" fill="#E7E8EC"/>
<circle cx="104.43" cy="118.925" r="5.16129" fill="#FF5F57"/>
<circle cx="119.914" cy="118.925" r="5.16129" fill="#FEBC2E"/>
<circle cx="135.398" cy="118.925" r="5.16129" fill="#28C840"/>
<g clip-path="url(#clip1_1058_33312)">
<rect x="181.849" y="232.473" width="243.613" height="80.5161" rx="6.19355" fill="#FFF7EE"/>
<path d="M178.408 282.442C185.509 286.308 192.721 289.665 199.891 293.206C209.09 297.744 217.928 303.543 227.489 306.452C242.774 311.112 255.225 306.412 268.746 295.383C275.375 289.971 281.892 284.111 288.965 280.102C296.135 276.053 303.834 273.957 311.338 277.213C316.187 279.308 320.69 282.808 325.317 285.82C335.017 292.148 345.619 295.912 355.958 290.805C373.106 282.32 378.873 255.705 393.589 242.621C407.263 230.453 421.034 238.348 429.705 256.417C440.016 277.884 446.644 302.586 463.139 315.914" stroke="#FFD9A7" stroke-width="2.58065" stroke-miterlimit="10"/>
</g>
<path d="M326.483 182.134C326.815 181.565 327.637 181.565 327.969 182.134L332.492 189.889C332.827 190.463 332.413 191.183 331.749 191.183H322.702C322.038 191.183 321.624 190.463 321.959 189.889L326.483 182.134Z" fill="#FA8525"/>
<path d="M347.286 191.557C347.506 192.768 348.002 193.704 348.772 194.365C349.571 194.998 350.63 195.314 351.952 195.314C353.658 195.314 354.897 194.612 355.668 193.209C356.439 191.777 356.824 189.382 356.824 186.024C356.191 186.905 355.296 187.593 354.14 188.089C353.011 188.584 351.787 188.832 350.465 188.832C348.704 188.832 347.107 188.474 345.676 187.758C344.272 187.015 343.157 185.928 342.331 184.496C341.505 183.037 341.092 181.276 341.092 179.211C341.092 176.156 342.001 173.733 343.817 171.944C345.634 170.127 348.112 169.219 351.25 169.219C355.159 169.219 357.911 170.471 359.508 172.976C361.132 175.481 361.944 179.252 361.944 184.29C361.944 187.868 361.627 190.8 360.994 193.085C360.389 195.369 359.329 197.104 357.815 198.287C356.328 199.471 354.291 200.063 351.704 200.063C349.667 200.063 347.933 199.677 346.501 198.907C345.07 198.108 343.969 197.076 343.198 195.81C342.455 194.516 342.028 193.098 341.918 191.557H347.286ZM351.663 184.125C353.094 184.125 354.223 183.684 355.048 182.803C355.874 181.923 356.287 180.739 356.287 179.252C356.287 177.628 355.847 176.376 354.966 175.495C354.113 174.587 352.943 174.132 351.456 174.132C349.97 174.132 348.786 174.6 347.905 175.536C347.052 176.445 346.625 177.656 346.625 179.17C346.625 180.629 347.038 181.826 347.864 182.762C348.717 183.671 349.984 184.125 351.663 184.125ZM366.444 184.579C366.444 179.817 367.297 176.087 369.004 173.389C370.738 170.692 373.601 169.343 377.592 169.343C381.583 169.343 384.432 170.692 386.139 173.389C387.873 176.087 388.74 179.817 388.74 184.579C388.74 189.369 387.873 193.126 386.139 195.851C384.432 198.576 381.583 199.939 377.592 199.939C373.601 199.939 370.738 198.576 369.004 195.851C367.297 193.126 366.444 189.369 366.444 184.579ZM383.042 184.579C383.042 182.542 382.905 180.835 382.629 179.459C382.382 178.055 381.859 176.913 381.06 176.032C380.29 175.151 379.133 174.711 377.592 174.711C376.05 174.711 374.881 175.151 374.082 176.032C373.312 176.913 372.789 178.055 372.513 179.459C372.266 180.835 372.142 182.542 372.142 184.579C372.142 186.671 372.266 188.433 372.513 189.864C372.761 191.268 373.284 192.41 374.082 193.291C374.881 194.144 376.05 194.571 377.592 194.571C379.133 194.571 380.303 194.144 381.102 193.291C381.9 192.41 382.423 191.268 382.671 189.864C382.918 188.433 383.042 186.671 383.042 184.579ZM392.477 177.312C392.477 175.22 393.082 173.582 394.293 172.398C395.532 171.215 397.115 170.623 399.042 170.623C400.969 170.623 402.538 171.215 403.749 172.398C404.987 173.582 405.607 175.22 405.607 177.312C405.607 179.431 404.987 181.083 403.749 182.267C402.538 183.45 400.969 184.042 399.042 184.042C397.115 184.042 395.532 183.45 394.293 182.267C393.082 181.083 392.477 179.431 392.477 177.312ZM418.985 171.118L402.758 200.021H397.142L413.328 171.118H418.985ZM399 174.091C397.486 174.091 396.729 175.165 396.729 177.312C396.729 179.486 397.486 180.574 399 180.574C399.744 180.574 400.322 180.312 400.735 179.789C401.147 179.239 401.354 178.413 401.354 177.312C401.354 175.165 400.569 174.091 399 174.091ZM410.603 193.787C410.603 191.667 411.209 190.029 412.42 188.873C413.658 187.689 415.241 187.098 417.168 187.098C419.095 187.098 420.65 187.689 421.834 188.873C423.045 190.029 423.651 191.667 423.651 193.787C423.651 195.906 423.045 197.558 421.834 198.741C420.65 199.925 419.095 200.517 417.168 200.517C415.214 200.517 413.631 199.925 412.42 198.741C411.209 197.558 410.603 195.906 410.603 193.787ZM417.127 190.566C415.558 190.566 414.773 191.64 414.773 193.787C414.773 195.961 415.558 197.049 417.127 197.049C418.668 197.049 419.439 195.961 419.439 193.787C419.439 191.64 418.668 190.566 417.127 190.566Z" fill="#FA8525"/>
<rect x="181.849" y="164.516" width="68.8172" height="12.043" rx="1.72043" fill="#FFD9A7"/>
<rect x="181.849" y="185.161" width="86.0215" height="8.60215" rx="1.72043" fill="#FFF7EE"/>
<rect x="181.849" y="197.204" width="44.7312" height="8.60215" rx="1.72043" fill="#FFF7EE"/>
<path d="M523 99L553 62" stroke="url(#paint0_linear_1058_33312)" stroke-width="2"/>
<path d="M85 99L55 62" stroke="url(#paint1_linear_1058_33312)" stroke-width="2"/>
<rect x="483" y="215" width="80" height="80" rx="40" fill="#FA8525"/>
<path d="M511.8 267.5C507.676 267.5 504.333 264.157 504.333 260.033C504.333 256.553 506.714 253.63 509.935 252.801C509.934 252.723 509.933 252.645 509.933 252.567C509.933 245.35 515.784 239.5 523 239.5C529.738 239.5 535.286 244.601 535.991 251.152C539.293 252.283 541.667 255.414 541.667 259.1C541.667 263.739 537.906 267.5 533.267 267.5C526.287 267.5 519.617 267.5 511.8 267.5Z" fill="white"/>
</g>
<defs>
<linearGradient id="paint0_linear_1058_33312" x1="523" y1="99" x2="553" y2="62" gradientUnits="userSpaceOnUse">
<stop stop-color="#FA8525"/>
<stop offset="1" stop-color="#FFE5C3"/>
</linearGradient>
<linearGradient id="paint1_linear_1058_33312" x1="85" y1="99" x2="55" y2="62" gradientUnits="userSpaceOnUse">
<stop stop-color="#FA8525"/>
<stop offset="1" stop-color="#FFE5C3"/>
</linearGradient>
<clipPath id="clip0_1058_33312">
<rect width="608" height="340" rx="16" fill="white"/>
</clipPath>
<clipPath id="clip1_1058_33312">
<rect x="181.849" y="232.473" width="243.613" height="80.5161" rx="6.19355" fill="white"/>
</clipPath>
</defs>
</svg>
