<svg width="608" height="340" viewBox="0 0 608 340" fill="none" xmlns="http://www.w3.org/2000/svg">
<rect width="608" height="340" rx="16" fill="#EFF1FF"/>
<rect x="170.5" y="100.5" width="267" height="139" rx="69.5" stroke="#C5CFFF" stroke-dasharray="4 4"/>
<g filter="url(#filter0_d_1058_32880)">
<rect x="234" y="144" width="140" height="52" rx="26" fill="white" shape-rendering="crispEdges"/>
<rect x="234.5" y="144.5" width="139" height="51" rx="25.5" stroke="#C5CFFF" shape-rendering="crispEdges"/>
<circle cx="260" cy="170" r="20" fill="#F7F9FF"/>
<path fill-rule="evenodd" clip-rule="evenodd" d="M245.455 183.727V182.97C245.455 182.119 245.704 181.323 246.204 180.582C246.703 179.841 247.375 179.265 248.22 178.856C250.181 177.923 252.143 177.223 254.106 176.757C256.069 176.29 258.034 176.057 260 176.057C261.966 176.057 263.931 176.29 265.894 176.757C267.857 177.223 269.819 177.923 271.78 178.856C272.625 179.265 273.297 179.841 273.796 180.582C274.296 181.323 274.545 182.119 274.545 182.97V183.727C270.899 187.59 265.731 190 260 190C254.269 190 249.101 187.59 245.455 183.727ZM254.864 171.5C256.288 172.924 258 173.636 260 173.636C262 173.636 263.712 172.924 265.136 171.5C266.561 170.076 267.273 168.364 267.273 166.364C267.273 164.364 266.561 162.651 265.136 161.227C263.712 159.803 262 159.091 260 159.091C258 159.091 256.288 159.803 254.864 161.227C253.439 162.651 252.727 164.364 252.727 166.364C252.727 168.364 253.439 170.076 254.864 171.5Z" fill="#C5CFFF"/>
<circle cx="304" cy="170" r="20" fill="#E3E8FF"/>
<path fill-rule="evenodd" clip-rule="evenodd" d="M289.455 183.727V182.97C289.455 182.119 289.704 181.323 290.204 180.582C290.703 179.841 291.375 179.265 292.22 178.856C294.181 177.923 296.143 177.223 298.106 176.757C300.069 176.29 302.034 176.057 304 176.057C305.966 176.057 307.931 176.29 309.894 176.757C311.857 177.223 313.819 177.923 315.78 178.856C316.625 179.265 317.297 179.841 317.796 180.582C318.296 181.323 318.545 182.119 318.545 182.97V183.727C314.899 187.59 309.731 190 304 190C298.269 190 293.101 187.59 289.455 183.727ZM298.864 171.5C300.288 172.924 302 173.636 304 173.636C306 173.636 307.712 172.924 309.136 171.5C310.561 170.076 311.273 168.364 311.273 166.364C311.273 164.364 310.561 162.651 309.136 161.227C307.712 159.803 306 159.091 304 159.091C302 159.091 300.288 159.803 298.864 161.227C297.439 162.651 296.727 164.364 296.727 166.364C296.727 168.364 297.439 170.076 298.864 171.5Z" fill="#646AEE"/>
<circle cx="348" cy="170" r="20" fill="#F7F9FF"/>
<path fill-rule="evenodd" clip-rule="evenodd" d="M333.455 183.727V182.97C333.455 182.119 333.704 181.323 334.204 180.582C334.703 179.841 335.375 179.265 336.22 178.856C338.181 177.923 340.143 177.223 342.106 176.757C344.069 176.29 346.034 176.057 348 176.057C349.966 176.057 351.931 176.29 353.894 176.757C355.857 177.223 357.819 177.923 359.78 178.856C360.625 179.265 361.297 179.841 361.796 180.582C362.296 181.323 362.545 182.119 362.545 182.97V183.727C358.899 187.59 353.731 190 348 190C342.269 190 337.101 187.59 333.455 183.727ZM342.864 171.5C344.288 172.924 346 173.636 348 173.636C350 173.636 351.712 172.924 353.136 171.5C354.561 170.076 355.273 168.364 355.273 166.364C355.273 164.364 354.561 162.651 353.136 161.227C351.712 159.803 350 159.091 348 159.091C346 159.091 344.288 159.803 342.864 161.227C341.439 162.651 340.727 164.364 340.727 166.364C340.727 168.364 341.439 170.076 342.864 171.5Z" fill="#C5CFFF"/>
</g>
<rect x="150.5" y="150.5" width="39" height="39" rx="19.5" fill="white"/>
<rect x="150.5" y="150.5" width="39" height="39" rx="19.5" stroke="#C5CFFF"/>
<path d="M177.758 176.895C168.953 181.085 163.488 177.579 159.99 175.45C159.774 175.315 159.406 175.481 159.725 175.848C160.89 177.261 164.71 180.667 169.695 180.667C174.684 180.667 177.651 177.945 178.023 177.47C178.391 176.999 178.131 176.739 177.758 176.895ZM180.231 175.529C179.995 175.221 178.793 175.164 178.037 175.257C177.28 175.347 176.144 175.81 176.242 176.087C176.293 176.192 176.397 176.145 176.917 176.098C177.438 176.046 178.9 175.862 179.204 176.26C179.51 176.66 178.738 178.57 178.597 178.878C178.461 179.185 178.649 179.265 178.905 179.06C179.157 178.855 179.614 178.324 179.921 177.573C180.225 176.817 180.411 175.763 180.231 175.529Z" fill="#FF9900"/>
<path fill-rule="evenodd" clip-rule="evenodd" d="M171.838 168.344C171.838 169.443 171.866 170.36 171.31 171.337C170.861 172.131 170.151 172.619 169.357 172.619C168.273 172.619 167.642 171.793 167.642 170.575C167.642 168.169 169.797 167.733 171.838 167.733V168.344ZM174.684 175.223C174.497 175.39 174.227 175.402 174.017 175.291C173.08 174.513 172.913 174.151 172.397 173.409C170.849 174.989 169.754 175.461 167.745 175.461C165.371 175.461 163.521 173.996 163.521 171.063C163.521 168.773 164.764 167.213 166.53 166.451C168.063 165.776 170.202 165.657 171.838 165.47V165.105C171.838 164.434 171.889 163.64 171.496 163.061C171.151 162.541 170.492 162.326 169.912 162.326C168.837 162.326 167.876 162.878 167.642 164.021C167.594 164.275 167.408 164.525 167.154 164.537L164.415 164.244C164.184 164.192 163.93 164.005 163.994 163.652C164.625 160.334 167.622 159.333 170.305 159.333C171.679 159.333 173.473 159.698 174.557 160.738C175.93 162.021 175.799 163.731 175.799 165.593V169.991C175.799 171.313 176.347 171.893 176.863 172.607C177.046 172.861 177.085 173.167 176.855 173.357C176.28 173.838 175.255 174.731 174.692 175.231L174.684 175.223Z" fill="#000008"/>
<path d="M177.758 176.895C168.953 181.085 163.488 177.579 159.99 175.45C159.774 175.315 159.406 175.481 159.725 175.848C160.89 177.261 164.71 180.667 169.695 180.667C174.684 180.667 177.651 177.945 178.023 177.47C178.391 176.999 178.131 176.739 177.758 176.895ZM180.231 175.529C179.995 175.221 178.793 175.164 178.037 175.257C177.28 175.347 176.144 175.81 176.242 176.087C176.293 176.192 176.397 176.145 176.917 176.098C177.438 176.046 178.9 175.862 179.204 176.26C179.51 176.66 178.738 178.57 178.597 178.878C178.461 179.185 178.649 179.265 178.905 179.06C179.157 178.855 179.614 178.324 179.921 177.573C180.225 176.817 180.411 175.763 180.231 175.529Z" fill="#FF9900"/>
<path fill-rule="evenodd" clip-rule="evenodd" d="M171.838 168.344C171.838 169.443 171.866 170.36 171.31 171.337C170.861 172.131 170.151 172.619 169.357 172.619C168.273 172.619 167.642 171.793 167.642 170.575C167.642 168.169 169.797 167.733 171.838 167.733V168.344ZM174.684 175.223C174.497 175.39 174.227 175.402 174.017 175.291C173.08 174.513 172.913 174.151 172.397 173.409C170.849 174.989 169.754 175.461 167.745 175.461C165.371 175.461 163.521 173.996 163.521 171.063C163.521 168.773 164.764 167.213 166.53 166.451C168.063 165.776 170.202 165.657 171.838 165.47V165.105C171.838 164.434 171.889 163.64 171.496 163.061C171.151 162.541 170.492 162.326 169.912 162.326C168.837 162.326 167.876 162.878 167.642 164.021C167.594 164.275 167.408 164.525 167.154 164.537L164.415 164.244C164.184 164.192 163.93 164.005 163.994 163.652C164.625 160.334 167.622 159.333 170.305 159.333C171.679 159.333 173.473 159.698 174.557 160.738C175.93 162.021 175.799 163.731 175.799 165.593V169.991C175.799 171.313 176.347 171.893 176.863 172.607C177.046 172.861 177.085 173.167 176.855 173.357C176.28 173.838 175.255 174.731 174.692 175.231L174.684 175.223Z" fill="#000008"/>
<rect x="196.5" y="86.5" width="39" height="39" rx="19.5" fill="white"/>
<rect x="196.5" y="86.5" width="39" height="39" rx="19.5" stroke="#C5CFFF"/>
<path d="M226.667 106C226.667 100.109 221.891 95.3333 216 95.3333C210.109 95.3333 205.333 100.109 205.333 106C205.333 111.324 209.234 115.737 214.333 116.537V109.083H211.625V106H214.333V103.65C214.333 100.977 215.926 99.4999 218.362 99.4999C219.529 99.4999 220.75 99.7083 220.75 99.7083V102.333H219.405C218.08 102.333 217.667 103.156 217.667 103.999V106H220.625L220.152 109.083H217.667V116.537C222.766 115.737 226.667 111.324 226.667 106Z" fill="#1877F2"/>
<path d="M220.152 109.083L220.625 106H217.667V103.999C217.667 103.156 218.08 102.333 219.405 102.333H220.75V99.7083C220.75 99.7083 219.529 99.4999 218.362 99.4999C215.926 99.4999 214.333 100.977 214.333 103.65V106H211.625V109.083H214.333V116.537C214.876 116.622 215.433 116.667 216 116.667C216.567 116.667 217.124 116.622 217.667 116.537V109.083H220.152Z" fill="white"/>
<rect x="196.5" y="214.5" width="39" height="39" rx="19.5" fill="white"/>
<rect x="196.5" y="214.5" width="39" height="39" rx="19.5" stroke="#C5CFFF"/>
<path d="M226.667 234C226.667 228.109 221.891 223.333 216 223.333C210.109 223.333 205.333 228.109 205.333 234C205.333 239.324 209.234 243.737 214.333 244.537V237.083H211.625V234H214.333V231.65C214.333 228.977 215.926 227.5 218.362 227.5C219.529 227.5 220.75 227.708 220.75 227.708V230.333H219.405C218.08 230.333 217.667 231.156 217.667 231.999V234H220.625L220.152 237.083H217.667V244.537C222.766 243.737 226.667 239.324 226.667 234Z" fill="#1877F2"/>
<path d="M220.152 237.083L220.625 234H217.667V231.999C217.667 231.156 218.08 230.333 219.405 230.333H220.75V227.708C220.75 227.708 219.529 227.5 218.362 227.5C215.926 227.5 214.333 228.977 214.333 231.65V234H211.625V237.083H214.333V244.537C214.876 244.622 215.433 244.667 216 244.667C216.567 244.667 217.124 244.622 217.667 244.537V237.083H220.152Z" fill="white"/>
<rect x="372.5" y="214.5" width="39" height="39" rx="19.5" fill="white"/>
<rect x="372.5" y="214.5" width="39" height="39" rx="19.5" stroke="#C5CFFF"/>
<path d="M402.667 234C402.667 228.109 397.891 223.333 392 223.333C386.109 223.333 381.333 228.109 381.333 234C381.333 239.324 385.234 243.737 390.333 244.537V237.083H387.625V234H390.333V231.65C390.333 228.977 391.926 227.5 394.362 227.5C395.529 227.5 396.75 227.708 396.75 227.708V230.333H395.405C394.08 230.333 393.667 231.156 393.667 231.999V234H396.625L396.152 237.083H393.667V244.537C398.766 243.737 402.667 239.324 402.667 234Z" fill="#1877F2"/>
<path d="M396.152 237.083L396.625 234H393.667V231.999C393.667 231.156 394.08 230.333 395.405 230.333H396.75V227.708C396.75 227.708 395.529 227.5 394.362 227.5C391.926 227.5 390.333 228.977 390.333 231.65V234H387.625V237.083H390.333V244.537C390.876 244.622 391.433 244.667 392 244.667C392.567 244.667 393.124 244.622 393.667 244.537V237.083H396.152Z" fill="white"/>
<rect x="284.5" y="80.5" width="39" height="39" rx="19.5" fill="white"/>
<rect x="284.5" y="80.5" width="39" height="39" rx="19.5" stroke="#C5CFFF"/>
<path d="M311.758 106.895C302.953 111.085 297.488 107.579 293.99 105.45C293.774 105.315 293.406 105.481 293.725 105.848C294.89 107.261 298.71 110.667 303.695 110.667C308.684 110.667 311.651 107.945 312.023 107.47C312.391 106.999 312.131 106.739 311.758 106.895ZM314.231 105.529C313.995 105.221 312.793 105.164 312.037 105.257C311.28 105.347 310.144 105.81 310.242 106.087C310.293 106.192 310.397 106.145 310.917 106.098C311.438 106.046 312.9 105.862 313.204 106.26C313.51 106.66 312.738 108.57 312.597 108.878C312.461 109.185 312.649 109.265 312.905 109.06C313.157 108.855 313.614 108.324 313.921 107.573C314.225 106.817 314.411 105.763 314.231 105.529Z" fill="#FF9900"/>
<path fill-rule="evenodd" clip-rule="evenodd" d="M305.838 98.344C305.838 99.4435 305.866 100.36 305.31 101.337C304.861 102.131 304.151 102.619 303.357 102.619C302.273 102.619 301.642 101.793 301.642 100.575C301.642 98.1692 303.797 97.7326 305.838 97.7326V98.344ZM308.684 105.223C308.497 105.39 308.227 105.402 308.017 105.291C307.08 104.513 306.913 104.151 306.397 103.409C304.849 104.989 303.754 105.461 301.745 105.461C299.371 105.461 297.521 103.996 297.521 101.063C297.521 98.7727 298.764 97.2126 300.53 96.4506C302.063 95.7757 304.202 95.6566 305.838 95.4701V95.1049C305.838 94.434 305.889 93.6401 305.496 93.0606C305.151 92.5406 304.492 92.3262 303.912 92.3262C302.837 92.3262 301.876 92.8779 301.642 94.0211C301.594 94.2753 301.408 94.5254 301.154 94.5372L298.415 94.2435C298.184 94.1918 297.93 94.0053 297.994 93.652C298.625 90.3336 301.622 89.3332 304.305 89.3332C305.679 89.3332 307.473 89.6984 308.557 90.7385C309.93 92.0206 309.799 93.7314 309.799 95.5931V99.9913C309.799 101.313 310.347 101.893 310.863 102.607C311.046 102.861 311.085 103.167 310.855 103.357C310.28 103.838 309.255 104.731 308.692 105.231L308.684 105.223Z" fill="#000008"/>
<path d="M311.758 106.895C302.953 111.085 297.488 107.579 293.99 105.45C293.774 105.315 293.406 105.481 293.725 105.848C294.89 107.261 298.71 110.667 303.695 110.667C308.684 110.667 311.651 107.945 312.023 107.47C312.391 106.999 312.131 106.739 311.758 106.895ZM314.231 105.529C313.995 105.221 312.793 105.164 312.037 105.257C311.28 105.347 310.144 105.81 310.242 106.087C310.293 106.192 310.397 106.145 310.917 106.098C311.438 106.046 312.9 105.862 313.204 106.26C313.51 106.66 312.738 108.57 312.597 108.878C312.461 109.185 312.649 109.265 312.905 109.06C313.157 108.855 313.614 108.324 313.921 107.573C314.225 106.817 314.411 105.763 314.231 105.529Z" fill="#FF9900"/>
<path fill-rule="evenodd" clip-rule="evenodd" d="M305.838 98.344C305.838 99.4435 305.866 100.36 305.31 101.337C304.861 102.131 304.151 102.619 303.357 102.619C302.273 102.619 301.642 101.793 301.642 100.575C301.642 98.1692 303.797 97.7326 305.838 97.7326V98.344ZM308.684 105.223C308.497 105.39 308.227 105.402 308.017 105.291C307.08 104.513 306.913 104.151 306.397 103.409C304.849 104.989 303.754 105.461 301.745 105.461C299.371 105.461 297.521 103.996 297.521 101.063C297.521 98.7727 298.764 97.2126 300.53 96.4506C302.063 95.7757 304.202 95.6566 305.838 95.4701V95.1049C305.838 94.434 305.889 93.6401 305.496 93.0606C305.151 92.5406 304.492 92.3262 303.912 92.3262C302.837 92.3262 301.876 92.8779 301.642 94.0211C301.594 94.2753 301.408 94.5254 301.154 94.5372L298.415 94.2435C298.184 94.1918 297.93 94.0053 297.994 93.652C298.625 90.3336 301.622 89.3332 304.305 89.3332C305.679 89.3332 307.473 89.6984 308.557 90.7385C309.93 92.0206 309.799 93.7314 309.799 95.5931V99.9913C309.799 101.313 310.347 101.893 310.863 102.607C311.046 102.861 311.085 103.167 310.855 103.357C310.28 103.838 309.255 104.731 308.692 105.231L308.684 105.223Z" fill="#000008"/>
<rect x="284.5" y="220.5" width="39" height="39" rx="19.5" fill="white"/>
<rect x="284.5" y="220.5" width="39" height="39" rx="19.5" stroke="#C5CFFF"/>
<path d="M311.758 246.895C302.953 251.085 297.488 247.579 293.99 245.45C293.774 245.315 293.406 245.481 293.725 245.848C294.89 247.261 298.71 250.667 303.695 250.667C308.684 250.667 311.651 247.945 312.023 247.47C312.391 246.999 312.131 246.739 311.758 246.895ZM314.231 245.529C313.995 245.221 312.793 245.164 312.037 245.257C311.28 245.347 310.144 245.81 310.242 246.087C310.293 246.192 310.397 246.145 310.917 246.098C311.438 246.046 312.9 245.862 313.204 246.26C313.51 246.66 312.738 248.57 312.597 248.878C312.461 249.185 312.649 249.265 312.905 249.06C313.157 248.855 313.614 248.324 313.921 247.573C314.225 246.817 314.411 245.763 314.231 245.529Z" fill="#FF9900"/>
<path fill-rule="evenodd" clip-rule="evenodd" d="M305.838 238.344C305.838 239.443 305.866 240.36 305.31 241.337C304.861 242.131 304.151 242.619 303.357 242.619C302.273 242.619 301.642 241.793 301.642 240.575C301.642 238.169 303.797 237.733 305.838 237.733V238.344ZM308.684 245.223C308.497 245.39 308.227 245.402 308.017 245.291C307.08 244.513 306.913 244.151 306.397 243.409C304.849 244.989 303.754 245.461 301.745 245.461C299.371 245.461 297.521 243.996 297.521 241.063C297.521 238.773 298.764 237.213 300.53 236.451C302.063 235.776 304.202 235.657 305.838 235.47V235.105C305.838 234.434 305.889 233.64 305.496 233.061C305.151 232.541 304.492 232.326 303.912 232.326C302.837 232.326 301.876 232.878 301.642 234.021C301.594 234.275 301.408 234.525 301.154 234.537L298.415 234.244C298.184 234.192 297.93 234.005 297.994 233.652C298.625 230.334 301.622 229.333 304.305 229.333C305.679 229.333 307.473 229.698 308.557 230.738C309.93 232.021 309.799 233.731 309.799 235.593V239.991C309.799 241.313 310.347 241.893 310.863 242.607C311.046 242.861 311.085 243.167 310.855 243.357C310.28 243.838 309.255 244.731 308.692 245.231L308.684 245.223Z" fill="#000008"/>
<path d="M311.758 246.895C302.953 251.085 297.488 247.579 293.99 245.45C293.774 245.315 293.406 245.481 293.725 245.848C294.89 247.261 298.71 250.667 303.695 250.667C308.684 250.667 311.651 247.945 312.023 247.47C312.391 246.999 312.131 246.739 311.758 246.895ZM314.231 245.529C313.995 245.221 312.793 245.164 312.037 245.257C311.28 245.347 310.144 245.81 310.242 246.087C310.293 246.192 310.397 246.145 310.917 246.098C311.438 246.046 312.9 245.862 313.204 246.26C313.51 246.66 312.738 248.57 312.597 248.878C312.461 249.185 312.649 249.265 312.905 249.06C313.157 248.855 313.614 248.324 313.921 247.573C314.225 246.817 314.411 245.763 314.231 245.529Z" fill="#FF9900"/>
<path fill-rule="evenodd" clip-rule="evenodd" d="M305.838 238.344C305.838 239.443 305.866 240.36 305.31 241.337C304.861 242.131 304.151 242.619 303.357 242.619C302.273 242.619 301.642 241.793 301.642 240.575C301.642 238.169 303.797 237.733 305.838 237.733V238.344ZM308.684 245.223C308.497 245.39 308.227 245.402 308.017 245.291C307.08 244.513 306.913 244.151 306.397 243.409C304.849 244.989 303.754 245.461 301.745 245.461C299.371 245.461 297.521 243.996 297.521 241.063C297.521 238.773 298.764 237.213 300.53 236.451C302.063 235.776 304.202 235.657 305.838 235.47V235.105C305.838 234.434 305.889 233.64 305.496 233.061C305.151 232.541 304.492 232.326 303.912 232.326C302.837 232.326 301.876 232.878 301.642 234.021C301.594 234.275 301.408 234.525 301.154 234.537L298.415 234.244C298.184 234.192 297.93 234.005 297.994 233.652C298.625 230.334 301.622 229.333 304.305 229.333C305.679 229.333 307.473 229.698 308.557 230.738C309.93 232.021 309.799 233.731 309.799 235.593V239.991C309.799 241.313 310.347 241.893 310.863 242.607C311.046 242.861 311.085 243.167 310.855 243.357C310.28 243.838 309.255 244.731 308.692 245.231L308.684 245.223Z" fill="#000008"/>
<rect x="372.5" y="86.5" width="39" height="39" rx="19.5" fill="white"/>
<rect x="372.5" y="86.5" width="39" height="39" rx="19.5" stroke="#C5CFFF"/>
<path d="M402.667 106C402.667 100.109 397.891 95.3333 392 95.3333C386.109 95.3333 381.333 100.109 381.333 106C381.333 111.324 385.234 115.737 390.333 116.537V109.083H387.625V106H390.333V103.65C390.333 100.977 391.926 99.4999 394.362 99.4999C395.529 99.4999 396.75 99.7083 396.75 99.7083V102.333H395.405C394.08 102.333 393.667 103.156 393.667 103.999V106H396.625L396.152 109.083H393.667V116.537C398.766 115.737 402.667 111.324 402.667 106Z" fill="#1877F2"/>
<path d="M396.152 109.083L396.625 106H393.667V103.999C393.667 103.156 394.08 102.333 395.405 102.333H396.75V99.7083C396.75 99.7083 395.529 99.4999 394.362 99.4999C391.926 99.4999 390.333 100.977 390.333 103.65V106H387.625V109.083H390.333V116.537C390.876 116.622 391.433 116.667 392 116.667C392.567 116.667 393.124 116.622 393.667 116.537V109.083H396.152Z" fill="white"/>
<rect x="418.5" y="150.5" width="39" height="39" rx="19.5" fill="white"/>
<rect x="418.5" y="150.5" width="39" height="39" rx="19.5" stroke="#C5CFFF"/>
<path d="M445.758 176.895C436.953 181.085 431.488 177.579 427.99 175.45C427.774 175.315 427.406 175.481 427.725 175.848C428.89 177.261 432.71 180.667 437.695 180.667C442.684 180.667 445.651 177.945 446.023 177.47C446.391 176.999 446.131 176.739 445.758 176.895ZM448.231 175.529C447.995 175.221 446.793 175.164 446.037 175.257C445.28 175.347 444.144 175.81 444.242 176.087C444.293 176.192 444.397 176.145 444.917 176.098C445.438 176.046 446.9 175.862 447.204 176.26C447.51 176.66 446.738 178.57 446.597 178.878C446.461 179.185 446.649 179.265 446.905 179.06C447.157 178.855 447.614 178.324 447.921 177.573C448.225 176.817 448.411 175.763 448.231 175.529Z" fill="#FF9900"/>
<path fill-rule="evenodd" clip-rule="evenodd" d="M439.838 168.344C439.838 169.443 439.866 170.36 439.31 171.337C438.861 172.131 438.151 172.619 437.357 172.619C436.273 172.619 435.642 171.793 435.642 170.575C435.642 168.169 437.797 167.733 439.838 167.733V168.344ZM442.684 175.223C442.497 175.39 442.227 175.402 442.017 175.291C441.08 174.513 440.913 174.151 440.397 173.409C438.849 174.989 437.754 175.461 435.745 175.461C433.371 175.461 431.521 173.996 431.521 171.063C431.521 168.773 432.764 167.213 434.53 166.451C436.063 165.776 438.202 165.657 439.838 165.47V165.105C439.838 164.434 439.889 163.64 439.496 163.061C439.151 162.541 438.492 162.326 437.912 162.326C436.837 162.326 435.876 162.878 435.642 164.021C435.594 164.275 435.408 164.525 435.154 164.537L432.415 164.244C432.184 164.192 431.93 164.005 431.994 163.652C432.625 160.334 435.622 159.333 438.305 159.333C439.679 159.333 441.473 159.698 442.557 160.738C443.93 162.021 443.799 163.731 443.799 165.593V169.991C443.799 171.313 444.347 171.893 444.863 172.607C445.046 172.861 445.085 173.167 444.855 173.357C444.28 173.838 443.255 174.731 442.692 175.231L442.684 175.223Z" fill="#000008"/>
<path d="M445.758 176.895C436.953 181.085 431.488 177.579 427.99 175.45C427.774 175.315 427.406 175.481 427.725 175.848C428.89 177.261 432.71 180.667 437.695 180.667C442.684 180.667 445.651 177.945 446.023 177.47C446.391 176.999 446.131 176.739 445.758 176.895ZM448.231 175.529C447.995 175.221 446.793 175.164 446.037 175.257C445.28 175.347 444.144 175.81 444.242 176.087C444.293 176.192 444.397 176.145 444.917 176.098C445.438 176.046 446.9 175.862 447.204 176.26C447.51 176.66 446.738 178.57 446.597 178.878C446.461 179.185 446.649 179.265 446.905 179.06C447.157 178.855 447.614 178.324 447.921 177.573C448.225 176.817 448.411 175.763 448.231 175.529Z" fill="#FF9900"/>
<path fill-rule="evenodd" clip-rule="evenodd" d="M439.838 168.344C439.838 169.443 439.866 170.36 439.31 171.337C438.861 172.131 438.151 172.619 437.357 172.619C436.273 172.619 435.642 171.793 435.642 170.575C435.642 168.169 437.797 167.733 439.838 167.733V168.344ZM442.684 175.223C442.497 175.39 442.227 175.402 442.017 175.291C441.08 174.513 440.913 174.151 440.397 173.409C438.849 174.989 437.754 175.461 435.745 175.461C433.371 175.461 431.521 173.996 431.521 171.063C431.521 168.773 432.764 167.213 434.53 166.451C436.063 165.776 438.202 165.657 439.838 165.47V165.105C439.838 164.434 439.889 163.64 439.496 163.061C439.151 162.541 438.492 162.326 437.912 162.326C436.837 162.326 435.876 162.878 435.642 164.021C435.594 164.275 435.408 164.525 435.154 164.537L432.415 164.244C432.184 164.192 431.93 164.005 431.994 163.652C432.625 160.334 435.622 159.333 438.305 159.333C439.679 159.333 441.473 159.698 442.557 160.738C443.93 162.021 443.799 163.731 443.799 165.593V169.991C443.799 171.313 444.347 171.893 444.863 172.607C445.046 172.861 445.085 173.167 444.855 173.357C444.28 173.838 443.255 174.731 442.692 175.231L442.684 175.223Z" fill="#000008"/>
<g opacity="0.5">
<rect x="94.5" y="44.5" width="419" height="251" rx="125.5" stroke="#C5CFFF" stroke-dasharray="4 4"/>
<rect x="74.5" y="150.5" width="39" height="39" rx="19.5" fill="white"/>
<rect x="74.5" y="150.5" width="39" height="39" rx="19.5" stroke="#C5CFFF"/>
<path d="M101.405 163.354C100.003 162.712 98.5234 162.257 97.0035 162C96.7955 162.372 96.6073 162.754 96.4397 163.146C94.8207 162.902 93.1743 162.902 91.5552 163.146C91.3876 162.754 91.1994 162.372 90.9915 162C89.4706 162.259 87.9899 162.716 86.5869 163.357C83.8015 167.478 83.0464 171.497 83.424 175.459C85.0552 176.664 86.8809 177.58 88.8219 178.168C89.2589 177.581 89.6457 176.957 89.978 176.304C89.3468 176.068 88.7376 175.778 88.1574 175.435C88.3101 175.324 88.4595 175.21 88.6038 175.099C90.2919 175.893 92.1345 176.305 94 176.305C95.8655 176.305 97.7081 175.893 99.3962 175.099C99.5422 175.219 99.6916 175.333 99.8426 175.435C99.2613 175.778 98.651 176.07 98.0187 176.306C98.3506 176.958 98.7373 177.581 99.1748 178.168C101.117 177.583 102.945 176.666 104.576 175.46C105.019 170.866 103.819 166.884 101.405 163.354ZM90.4562 173.022C89.4041 173.022 88.535 172.067 88.535 170.893C88.535 169.718 89.3739 168.755 90.4528 168.755C91.5318 168.755 92.3942 169.718 92.3758 170.893C92.3573 172.067 91.5284 173.022 90.4562 173.022ZM97.5438 173.022C96.4901 173.022 95.6242 172.067 95.6242 170.893C95.6242 169.718 96.4632 168.755 97.5438 168.755C98.6244 168.755 99.4801 169.718 99.4617 170.893C99.4432 172.067 98.616 173.022 97.5438 173.022Z" fill="#5865F2"/>
<rect x="156.5" y="32.5" width="39" height="39" rx="19.5" fill="white"/>
<rect x="156.5" y="32.5" width="39" height="39" rx="19.5" stroke="#C5CFFF"/>
<path d="M183.405 45.354C182.003 44.7123 180.524 44.2571 179.004 43.9999C178.796 44.3717 178.607 44.7543 178.44 45.146C176.821 44.902 175.174 44.902 173.555 45.146C173.388 44.7543 173.199 44.3718 172.992 43.9999C171.471 44.2593 169.99 44.7156 168.587 45.3574C165.802 49.4783 165.046 53.497 165.424 57.4585C167.055 58.6637 168.881 59.5803 170.822 60.1684C171.259 59.5806 171.646 58.957 171.978 58.3042C171.347 58.0685 170.738 57.7776 170.157 57.435C170.31 57.3243 170.46 57.2102 170.604 57.0994C172.292 57.8933 174.135 58.305 176 58.305C177.866 58.305 179.708 57.8933 181.396 57.0994C181.542 57.2186 181.692 57.3327 181.843 57.435C181.261 57.7782 180.651 58.0696 180.019 58.3059C180.351 58.9583 180.737 59.5814 181.175 60.1684C183.117 59.5826 184.945 58.6665 186.576 57.4602C187.019 52.8661 185.819 48.8844 183.405 45.354ZM172.456 55.0222C171.404 55.0222 170.535 54.0674 170.535 52.8929C170.535 51.7184 171.374 50.7552 172.453 50.7552C173.532 50.7552 174.394 51.7184 174.376 52.8929C174.357 54.0674 173.528 55.0222 172.456 55.0222ZM179.544 55.0222C178.49 55.0222 177.624 54.0674 177.624 52.8929C177.624 51.7184 178.463 50.7552 179.544 50.7552C180.624 50.7552 181.48 51.7184 181.462 52.8929C181.443 54.0674 180.616 55.0222 179.544 55.0222Z" fill="#5865F2"/>
<rect x="412.5" y="32.5" width="39" height="39" rx="19.5" fill="white"/>
<rect x="412.5" y="32.5" width="39" height="39" rx="19.5" stroke="#C5CFFF"/>
<path d="M432.266 50.0606V54.1915H438.007C437.755 55.52 436.998 56.6449 435.864 57.4013L439.326 60.0874C441.343 58.2256 442.506 55.491 442.506 52.2425C442.506 51.4862 442.438 50.7588 442.312 50.0607L432.266 50.0606Z" fill="#4285F4"/>
<path d="M426.288 54.0303L425.508 54.628L422.744 56.7807C424.499 60.2619 428.096 62.6668 432.266 62.6668C435.146 62.6668 437.561 61.7165 439.325 60.0874L435.864 57.4013C434.913 58.0413 433.701 58.4292 432.266 58.4292C429.493 58.4292 427.136 56.5577 426.293 54.0365L426.288 54.0303Z" fill="#34A853"/>
<path d="M422.744 47.2194C422.017 48.6545 421.6 50.2739 421.6 52C421.6 53.726 422.017 55.3456 422.744 56.7807C422.744 56.7903 426.293 54.0266 426.293 54.0266C426.08 53.3866 425.954 52.7079 425.954 51.9999C425.954 51.2919 426.08 50.6132 426.293 49.9732L422.744 47.2194Z" fill="#FBBC05"/>
<path d="M432.266 45.5806C433.837 45.5806 435.234 46.1236 436.349 47.1709L439.403 44.1164C437.551 42.3904 435.146 41.3333 432.266 41.3333C428.097 41.3333 424.499 43.7285 422.744 47.2194L426.293 49.9734C427.136 47.4521 429.493 45.5806 432.266 45.5806Z" fill="#EA4335"/>
<rect x="412.5" y="268.5" width="39" height="39" rx="19.5" fill="white"/>
<rect x="412.5" y="268.5" width="39" height="39" rx="19.5" stroke="#C5CFFF"/>
<path d="M432.266 286.061V290.192H438.007C437.755 291.52 436.998 292.645 435.864 293.401L439.326 296.087C441.343 294.226 442.506 291.491 442.506 288.243C442.506 287.486 442.438 286.759 442.312 286.061L432.266 286.061Z" fill="#4285F4"/>
<path d="M426.288 290.03L425.508 290.628L422.744 292.781C424.499 296.262 428.096 298.667 432.266 298.667C435.146 298.667 437.561 297.716 439.325 296.087L435.864 293.401C434.913 294.041 433.701 294.429 432.266 294.429C429.493 294.429 427.136 292.558 426.293 290.036L426.288 290.03Z" fill="#34A853"/>
<path d="M422.744 283.219C422.017 284.655 421.6 286.274 421.6 288C421.6 289.726 422.017 291.346 422.744 292.781C422.744 292.79 426.293 290.027 426.293 290.027C426.08 289.387 425.954 288.708 425.954 288C425.954 287.292 426.08 286.613 426.293 285.973L422.744 283.219Z" fill="#FBBC05"/>
<path d="M432.266 281.581C433.837 281.581 435.234 282.124 436.349 283.171L439.403 280.116C437.551 278.39 435.146 277.333 432.266 277.333C428.097 277.333 424.499 279.728 422.744 283.219L426.293 285.973C427.136 283.452 429.493 281.581 432.266 281.581Z" fill="#EA4335"/>
<rect x="156.5" y="268.5" width="39" height="39" rx="19.5" fill="white"/>
<rect x="156.5" y="268.5" width="39" height="39" rx="19.5" stroke="#C5CFFF"/>
<path d="M183.405 281.354C182.003 280.712 180.524 280.257 179.004 280C178.796 280.372 178.607 280.754 178.44 281.146C176.821 280.902 175.174 280.902 173.555 281.146C173.388 280.754 173.199 280.372 172.992 280C171.471 280.259 169.99 280.716 168.587 281.357C165.802 285.478 165.046 289.497 165.424 293.459C167.055 294.664 168.881 295.58 170.822 296.168C171.259 295.581 171.646 294.957 171.978 294.304C171.347 294.068 170.738 293.778 170.157 293.435C170.31 293.324 170.46 293.21 170.604 293.099C172.292 293.893 174.135 294.305 176 294.305C177.866 294.305 179.708 293.893 181.396 293.099C181.542 293.219 181.692 293.333 181.843 293.435C181.261 293.778 180.651 294.07 180.019 294.306C180.351 294.958 180.737 295.581 181.175 296.168C183.117 295.583 184.945 294.666 186.576 293.46C187.019 288.866 185.819 284.884 183.405 281.354ZM172.456 291.022C171.404 291.022 170.535 290.067 170.535 288.893C170.535 287.718 171.374 286.755 172.453 286.755C173.532 286.755 174.394 287.718 174.376 288.893C174.357 290.067 173.528 291.022 172.456 291.022ZM179.544 291.022C178.49 291.022 177.624 290.067 177.624 288.893C177.624 287.718 178.463 286.755 179.544 286.755C180.624 286.755 181.48 287.718 181.462 288.893C181.443 290.067 180.616 291.022 179.544 291.022Z" fill="#5865F2"/>
<rect x="494.5" y="150.5" width="39" height="39" rx="19.5" fill="white"/>
<rect x="494.5" y="150.5" width="39" height="39" rx="19.5" stroke="#C5CFFF"/>
<path d="M514.266 168.061V172.192H520.007C519.755 173.52 518.998 174.645 517.864 175.401L521.326 178.087C523.343 176.226 524.506 173.491 524.506 170.243C524.506 169.486 524.438 168.759 524.312 168.061L514.266 168.061Z" fill="#4285F4"/>
<path d="M508.288 172.03L507.508 172.628L504.744 174.781C506.499 178.262 510.096 180.667 514.266 180.667C517.146 180.667 519.561 179.716 521.325 178.087L517.864 175.401C516.913 176.041 515.701 176.429 514.266 176.429C511.493 176.429 509.136 174.558 508.293 172.036L508.288 172.03Z" fill="#34A853"/>
<path d="M504.744 165.219C504.017 166.655 503.6 168.274 503.6 170C503.6 171.726 504.017 173.346 504.744 174.781C504.744 174.79 508.293 172.027 508.293 172.027C508.08 171.387 507.954 170.708 507.954 170C507.954 169.292 508.08 168.613 508.293 167.973L504.744 165.219Z" fill="#FBBC05"/>
<path d="M514.266 163.581C515.837 163.581 517.234 164.124 518.349 165.171L521.403 162.116C519.551 160.39 517.146 159.333 514.266 159.333C510.097 159.333 506.499 161.728 504.744 165.219L508.293 167.973C509.136 165.452 511.493 163.581 514.266 163.581Z" fill="#EA4335"/>
<rect x="468.5" y="226.5" width="39" height="39" rx="19.5" fill="white"/>
<rect x="468.5" y="226.5" width="39" height="39" rx="19.5" stroke="#C5CFFF"/>
<path d="M495.405 239.354C494.003 238.712 492.524 238.257 491.004 238C490.796 238.372 490.607 238.754 490.44 239.146C488.821 238.902 487.174 238.902 485.555 239.146C485.388 238.754 485.199 238.372 484.992 238C483.471 238.259 481.99 238.716 480.587 239.357C477.802 243.478 477.046 247.497 477.424 251.459C479.055 252.664 480.881 253.58 482.822 254.168C483.259 253.581 483.646 252.957 483.978 252.304C483.347 252.068 482.738 251.778 482.157 251.435C482.31 251.324 482.46 251.21 482.604 251.099C484.292 251.893 486.135 252.305 488 252.305C489.866 252.305 491.708 251.893 493.396 251.099C493.542 251.219 493.692 251.333 493.843 251.435C493.261 251.778 492.651 252.07 492.019 252.306C492.351 252.958 492.737 253.581 493.175 254.168C495.117 253.583 496.945 252.666 498.576 251.46C499.019 246.866 497.819 242.884 495.405 239.354ZM484.456 249.022C483.404 249.022 482.535 248.067 482.535 246.893C482.535 245.718 483.374 244.755 484.453 244.755C485.532 244.755 486.394 245.718 486.376 246.893C486.357 248.067 485.528 249.022 484.456 249.022ZM491.544 249.022C490.49 249.022 489.624 248.067 489.624 246.893C489.624 245.718 490.463 244.755 491.544 244.755C492.624 244.755 493.48 245.718 493.462 246.893C493.443 248.067 492.616 249.022 491.544 249.022Z" fill="#5865F2"/>
<rect x="100.5" y="226.5" width="39" height="39" rx="19.5" fill="white"/>
<rect x="100.5" y="226.5" width="39" height="39" rx="19.5" stroke="#C5CFFF"/>
<path d="M120.266 244.061V248.192H126.007C125.755 249.52 124.998 250.645 123.864 251.401L127.326 254.087C129.343 252.226 130.506 249.491 130.506 246.243C130.506 245.486 130.438 244.759 130.312 244.061L120.266 244.061Z" fill="#4285F4"/>
<path d="M114.288 248.03L113.508 248.628L110.744 250.781C112.499 254.262 116.096 256.667 120.266 256.667C123.146 256.667 125.561 255.716 127.325 254.087L123.864 251.401C122.913 252.041 121.701 252.429 120.266 252.429C117.493 252.429 115.136 250.558 114.293 248.036L114.288 248.03Z" fill="#34A853"/>
<path d="M110.744 241.219C110.017 242.655 109.6 244.274 109.6 246C109.6 247.726 110.017 249.346 110.744 250.781C110.744 250.79 114.293 248.027 114.293 248.027C114.08 247.387 113.954 246.708 113.954 246C113.954 245.292 114.08 244.613 114.293 243.973L110.744 241.219Z" fill="#FBBC05"/>
<path d="M120.266 239.581C121.837 239.581 123.234 240.124 124.349 241.171L127.403 238.116C125.551 236.39 123.146 235.333 120.266 235.333C116.097 235.333 112.499 237.728 110.744 241.219L114.293 243.973C115.136 241.452 117.493 239.581 120.266 239.581Z" fill="#EA4335"/>
<rect x="328.5" y="276.5" width="39" height="39" rx="19.5" fill="white"/>
<rect x="328.5" y="276.5" width="39" height="39" rx="19.5" stroke="#C5CFFF"/>
<path d="M355.405 289.354C354.003 288.712 352.524 288.257 351.004 288C350.796 288.372 350.607 288.754 350.44 289.146C348.821 288.902 347.174 288.902 345.555 289.146C345.388 288.754 345.199 288.372 344.992 288C343.471 288.259 341.99 288.716 340.587 289.357C337.802 293.478 337.046 297.497 337.424 301.459C339.055 302.664 340.881 303.58 342.822 304.168C343.259 303.581 343.646 302.957 343.978 302.304C343.347 302.068 342.738 301.778 342.157 301.435C342.31 301.324 342.46 301.21 342.604 301.099C344.292 301.893 346.135 302.305 348 302.305C349.866 302.305 351.708 301.893 353.396 301.099C353.542 301.219 353.692 301.333 353.843 301.435C353.261 301.778 352.651 302.07 352.019 302.306C352.351 302.958 352.737 303.581 353.175 304.168C355.117 303.583 356.945 302.666 358.576 301.46C359.019 296.866 357.819 292.884 355.405 289.354ZM344.456 299.022C343.404 299.022 342.535 298.067 342.535 296.893C342.535 295.718 343.374 294.755 344.453 294.755C345.532 294.755 346.394 295.718 346.376 296.893C346.357 298.067 345.528 299.022 344.456 299.022ZM351.544 299.022C350.49 299.022 349.624 298.067 349.624 296.893C349.624 295.718 350.463 294.755 351.544 294.755C352.624 294.755 353.48 295.718 353.462 296.893C353.443 298.067 352.616 299.022 351.544 299.022Z" fill="#5865F2"/>
<rect x="240.5" y="276.5" width="39" height="39" rx="19.5" fill="white"/>
<rect x="240.5" y="276.5" width="39" height="39" rx="19.5" stroke="#C5CFFF"/>
<path d="M260.266 294.061V298.192H266.007C265.755 299.52 264.998 300.645 263.864 301.401L267.326 304.087C269.343 302.226 270.506 299.491 270.506 296.243C270.506 295.486 270.438 294.759 270.312 294.061L260.266 294.061Z" fill="#4285F4"/>
<path d="M254.288 298.03L253.508 298.628L250.744 300.781C252.499 304.262 256.096 306.667 260.266 306.667C263.146 306.667 265.561 305.716 267.325 304.087L263.864 301.401C262.913 302.041 261.701 302.429 260.266 302.429C257.493 302.429 255.136 300.558 254.293 298.036L254.288 298.03Z" fill="#34A853"/>
<path d="M250.744 291.219C250.017 292.655 249.6 294.274 249.6 296C249.6 297.726 250.017 299.346 250.744 300.781C250.744 300.79 254.293 298.027 254.293 298.027C254.08 297.387 253.954 296.708 253.954 296C253.954 295.292 254.08 294.613 254.293 293.973L250.744 291.219Z" fill="#FBBC05"/>
<path d="M260.266 289.581C261.837 289.581 263.234 290.124 264.349 291.171L267.403 288.116C265.551 286.39 263.146 285.333 260.266 285.333C256.097 285.333 252.499 287.728 250.744 291.219L254.293 293.973C255.136 291.452 257.493 289.581 260.266 289.581Z" fill="#EA4335"/>
<rect x="468.5" y="74.5" width="39" height="39" rx="19.5" fill="white"/>
<rect x="468.5" y="74.5" width="39" height="39" rx="19.5" stroke="#C5CFFF"/>
<path d="M495.405 87.354C494.003 86.7123 492.524 86.2571 491.004 85.9999C490.796 86.3717 490.607 86.7543 490.44 87.146C488.821 86.902 487.174 86.902 485.555 87.146C485.388 86.7543 485.199 86.3718 484.992 85.9999C483.471 86.2593 481.99 86.7156 480.587 87.3574C477.802 91.4783 477.046 95.497 477.424 99.4585C479.055 100.664 480.881 101.58 482.822 102.168C483.259 101.581 483.646 100.957 483.978 100.304C483.347 100.068 482.738 99.7776 482.157 99.435C482.31 99.3243 482.46 99.2102 482.604 99.0994C484.292 99.8933 486.135 100.305 488 100.305C489.866 100.305 491.708 99.8933 493.396 99.0994C493.542 99.2186 493.692 99.3327 493.843 99.435C493.261 99.7782 492.651 100.07 492.019 100.306C492.351 100.958 492.737 101.581 493.175 102.168C495.117 101.583 496.945 100.666 498.576 99.4602C499.019 94.8661 497.819 90.8844 495.405 87.354ZM484.456 97.0222C483.404 97.0222 482.535 96.0674 482.535 94.8929C482.535 93.7184 483.374 92.7552 484.453 92.7552C485.532 92.7552 486.394 93.7184 486.376 94.8929C486.357 96.0674 485.528 97.0222 484.456 97.0222ZM491.544 97.0222C490.49 97.0222 489.624 96.0674 489.624 94.8929C489.624 93.7184 490.463 92.7552 491.544 92.7552C492.624 92.7552 493.48 93.7184 493.462 94.8929C493.443 96.0674 492.616 97.0222 491.544 97.0222Z" fill="#5865F2"/>
<rect x="100.5" y="74.5" width="39" height="39" rx="19.5" fill="white"/>
<rect x="100.5" y="74.5" width="39" height="39" rx="19.5" stroke="#C5CFFF"/>
<path d="M120.266 92.0606V96.1915H126.007C125.755 97.52 124.998 98.6449 123.864 99.4013L127.326 102.087C129.343 100.226 130.506 97.491 130.506 94.2425C130.506 93.4862 130.438 92.7588 130.312 92.0607L120.266 92.0606Z" fill="#4285F4"/>
<path d="M114.288 96.0303L113.508 96.628L110.744 98.7807C112.499 102.262 116.096 104.667 120.266 104.667C123.146 104.667 125.561 103.716 127.325 102.087L123.864 99.4013C122.913 100.041 121.701 100.429 120.266 100.429C117.493 100.429 115.136 98.5577 114.293 96.0365L114.288 96.0303Z" fill="#34A853"/>
<path d="M110.744 89.2194C110.017 90.6545 109.6 92.2739 109.6 94C109.6 95.726 110.017 97.3456 110.744 98.7807C110.744 98.7903 114.293 96.0266 114.293 96.0266C114.08 95.3866 113.954 94.7079 113.954 93.9999C113.954 93.2919 114.08 92.6132 114.293 91.9732L110.744 89.2194Z" fill="#FBBC05"/>
<path d="M120.266 87.5806C121.837 87.5806 123.234 88.1236 124.349 89.1709L127.403 86.1164C125.551 84.3904 123.146 83.3333 120.266 83.3333C116.097 83.3333 112.499 85.7285 110.744 89.2194L114.293 91.9734C115.136 89.4521 117.493 87.5806 120.266 87.5806Z" fill="#EA4335"/>
<rect x="328.5" y="24.5" width="39" height="39" rx="19.5" fill="white"/>
<rect x="328.5" y="24.5" width="39" height="39" rx="19.5" stroke="#C5CFFF"/>
<path d="M355.405 37.354C354.003 36.7123 352.524 36.2571 351.004 35.9999C350.796 36.3717 350.607 36.7543 350.44 37.146C348.821 36.902 347.174 36.902 345.555 37.146C345.388 36.7543 345.199 36.3718 344.992 35.9999C343.471 36.2593 341.99 36.7156 340.587 37.3574C337.802 41.4783 337.046 45.497 337.424 49.4585C339.055 50.6637 340.881 51.5803 342.822 52.1684C343.259 51.5806 343.646 50.957 343.978 50.3042C343.347 50.0685 342.738 49.7776 342.157 49.435C342.31 49.3243 342.46 49.2102 342.604 49.0994C344.292 49.8933 346.135 50.305 348 50.305C349.866 50.305 351.708 49.8933 353.396 49.0994C353.542 49.2186 353.692 49.3327 353.843 49.435C353.261 49.7782 352.651 50.0696 352.019 50.3059C352.351 50.9583 352.737 51.5814 353.175 52.1684C355.117 51.5826 356.945 50.6665 358.576 49.4602C359.019 44.8661 357.819 40.8844 355.405 37.354ZM344.456 47.0222C343.404 47.0222 342.535 46.0674 342.535 44.8929C342.535 43.7184 343.374 42.7552 344.453 42.7552C345.532 42.7552 346.394 43.7184 346.376 44.8929C346.357 46.0674 345.528 47.0222 344.456 47.0222ZM351.544 47.0222C350.49 47.0222 349.624 46.0674 349.624 44.8929C349.624 43.7184 350.463 42.7552 351.544 42.7552C352.624 42.7552 353.48 43.7184 353.462 44.8929C353.443 46.0674 352.616 47.0222 351.544 47.0222Z" fill="#5865F2"/>
<rect x="240.5" y="24.5" width="39" height="39" rx="19.5" fill="white"/>
<rect x="240.5" y="24.5" width="39" height="39" rx="19.5" stroke="#C5CFFF"/>
<path d="M260.266 42.0606V46.1915H266.007C265.755 47.52 264.998 48.6449 263.864 49.4013L267.326 52.0874C269.343 50.2256 270.506 47.491 270.506 44.2425C270.506 43.4862 270.438 42.7588 270.312 42.0607L260.266 42.0606Z" fill="#4285F4"/>
<path d="M254.288 46.0303L253.508 46.628L250.744 48.7807C252.499 52.2619 256.096 54.6668 260.266 54.6668C263.146 54.6668 265.561 53.7165 267.325 52.0874L263.864 49.4013C262.913 50.0413 261.701 50.4292 260.266 50.4292C257.493 50.4292 255.136 48.5577 254.293 46.0365L254.288 46.0303Z" fill="#34A853"/>
<path d="M250.744 39.2194C250.017 40.6545 249.6 42.2739 249.6 44C249.6 45.726 250.017 47.3456 250.744 48.7807C250.744 48.7903 254.293 46.0266 254.293 46.0266C254.08 45.3866 253.954 44.7079 253.954 43.9999C253.954 43.2919 254.08 42.6132 254.293 41.9732L250.744 39.2194Z" fill="#FBBC05"/>
<path d="M260.266 37.5806C261.837 37.5806 263.234 38.1236 264.349 39.1709L267.403 36.1164C265.551 34.3904 263.146 33.3333 260.266 33.3333C256.097 33.3333 252.499 35.7285 250.744 39.2194L254.293 41.9734C255.136 39.4521 257.493 37.5806 260.266 37.5806Z" fill="#EA4335"/>
</g>
<defs>
<filter id="filter0_d_1058_32880" x="234" y="144" width="140" height="56" filterUnits="userSpaceOnUse" color-interpolation-filters="sRGB">
<feFlood flood-opacity="0" result="BackgroundImageFix"/>
<feColorMatrix in="SourceAlpha" type="matrix" values="0 0 0 0 0 0 0 0 0 0 0 0 0 0 0 0 0 0 127 0" result="hardAlpha"/>
<feOffset dy="4"/>
<feComposite in2="hardAlpha" operator="out"/>
<feColorMatrix type="matrix" values="0 0 0 0 0.772549 0 0 0 0 0.811765 0 0 0 0 1 0 0 0 1 0"/>
<feBlend mode="normal" in2="BackgroundImageFix" result="effect1_dropShadow_1058_32880"/>
<feBlend mode="normal" in="SourceGraphic" in2="effect1_dropShadow_1058_32880" result="shape"/>
</filter>
</defs>
</svg>
