<svg width="608" height="340" viewBox="0 0 608 340" fill="none" xmlns="http://www.w3.org/2000/svg">
<rect width="608" height="340" rx="16" fill="#FEF7ED"/>
<path d="M253.434 30.9675L229.985 33.4464C229.979 33.3065 229.975 33.1661 229.975 33.0248C229.975 27.4883 234.463 23 240 23C241.527 22.9987 243.034 23.3468 244.406 24.0179C245.777 24.6889 246.977 25.665 247.913 26.8714L246.888 27.8529C245.394 26.5216 243.462 25.7873 241.46 25.7902C240.062 25.7895 238.686 26.1481 237.466 26.8317C236.245 27.5152 235.221 28.5007 234.491 29.6937H253.434V30.9675ZM226.566 36.3063H245.509C244.779 37.4993 243.755 38.4848 242.534 39.1683C241.314 39.8519 239.938 40.2105 238.54 40.2098C236.538 40.2127 234.606 39.4784 233.112 38.1471L232.087 39.1287C233.023 40.335 234.223 41.3111 235.594 41.9821C236.966 42.6532 238.473 43.0013 240 43C245.537 43 250.025 38.5117 250.025 32.9752C250.025 32.8339 250.021 32.6935 250.015 32.5536L226.566 35.0325V36.3063Z" fill="#646AEE"/>
<path d="M266.88 29.3727C268.296 29.3727 269.432 29.7862 270.287 30.6133C271.142 31.4404 271.57 32.6671 271.57 34.2932V40.7277H268.941V34.6297C268.941 33.6484 268.71 32.9124 268.247 32.4217C267.785 31.9171 267.126 31.6647 266.271 31.6647C265.303 31.6647 264.539 31.9591 263.979 32.5479C263.418 33.1227 263.138 33.9568 263.138 35.0502V40.7277H260.509V29.4989H263.011V30.9498C263.446 30.4311 263.993 30.0386 264.652 29.7722C265.31 29.5059 266.053 29.3727 266.88 29.3727Z" fill="#1E1F24"/>
<path d="M277.743 40.8749C276.832 40.8749 275.941 40.7558 275.072 40.5175C274.203 40.2791 273.509 39.9777 272.991 39.6133L274 37.6156C274.505 37.9521 275.107 38.2254 275.808 38.4357C276.523 38.632 277.224 38.7301 277.911 38.7301C279.481 38.7301 280.266 38.3165 280.266 37.4894C280.266 37.0969 280.063 36.8236 279.656 36.6694C279.264 36.5152 278.626 36.368 277.743 36.2278C276.818 36.0876 276.061 35.9264 275.472 35.7441C274.897 35.5619 274.392 35.2465 273.958 34.7979C273.537 34.3353 273.327 33.6974 273.327 32.8843C273.327 31.8189 273.769 30.9708 274.652 30.34C275.549 29.6951 276.755 29.3727 278.269 29.3727C279.04 29.3727 279.811 29.4638 280.582 29.6461C281.353 29.8143 281.983 30.0456 282.474 30.34L281.465 32.3376C280.512 31.7769 279.439 31.4965 278.248 31.4965C277.476 31.4965 276.888 31.6157 276.481 31.854C276.089 32.0783 275.892 32.3797 275.892 32.7582C275.892 33.1787 276.103 33.4801 276.523 33.6624C276.958 33.8306 277.624 33.9918 278.521 34.146C279.418 34.2862 280.154 34.4474 280.729 34.6297C281.304 34.8119 281.794 35.1203 282.201 35.5549C282.621 35.9895 282.832 36.6063 282.832 37.4053C282.832 38.4567 282.376 39.2978 281.465 39.9287C280.554 40.5595 279.313 40.8749 277.743 40.8749Z" fill="#1E1F24"/>
<path d="M290.773 40.1179C290.464 40.3703 290.086 40.5595 289.637 40.6857C289.203 40.8118 288.74 40.8749 288.249 40.8749C287.016 40.8749 286.062 40.5525 285.39 39.9076C284.717 39.2628 284.38 38.3235 284.38 37.0899V31.6858H282.832L283.821 29.583H284.38V27.0176H287.009V29.583H290.016V31.6858H287.009V37.0268C287.009 37.5736 287.142 37.9941 287.408 38.2885C287.689 38.5689 288.074 38.7091 288.565 38.7091C289.154 38.7091 289.644 38.5549 290.037 38.2464L290.773 40.1179Z" fill="#1E1F24"/>
<path d="M298.539 29.3727C299.632 29.3727 300.606 29.611 301.462 30.0876C302.331 30.5643 303.011 31.2372 303.501 32.1063C303.992 32.9755 304.237 33.9778 304.237 35.1133C304.237 36.2488 303.992 37.2581 303.501 38.1413C303.011 39.0105 302.331 39.6834 301.462 40.16C300.606 40.6366 299.632 40.8749 298.539 40.8749C297.768 40.8749 297.06 40.7418 296.415 40.4754C295.784 40.209 295.251 39.8095 294.817 39.2768V40.7277H292.314V25.1251H294.943V30.8657C295.392 30.375 295.917 30.0035 296.52 29.7512C297.137 29.4989 297.81 29.3727 298.539 29.3727ZM298.244 38.6249C299.212 38.6249 300.004 38.3025 300.621 37.6577C301.251 37.0128 301.567 36.1647 301.567 35.1133C301.567 34.0619 301.251 33.2138 300.621 32.5689C300.004 31.9241 299.212 31.6016 298.244 31.6016C297.614 31.6016 297.046 31.7488 296.541 32.0432C296.036 32.3236 295.637 32.7301 295.343 33.2628C295.048 33.7956 294.901 34.4124 294.901 35.1133C294.901 35.8142 295.048 36.431 295.343 36.9637C295.637 37.4965 296.036 37.91 296.541 38.2044C297.046 38.4848 297.614 38.6249 298.244 38.6249Z" fill="#1E1F24"/>
<path d="M308.602 31.139C309.359 29.9615 310.69 29.3727 312.597 29.3727V31.875C312.373 31.8329 312.169 31.8119 311.987 31.8119C310.964 31.8119 310.165 32.1133 309.59 32.7161C309.015 33.3049 308.728 34.16 308.728 35.2815V40.7277H306.099V29.4989H308.602V31.139Z" fill="#1E1F24"/>
<path d="M319.14 40.8749C318.004 40.8749 316.981 40.6296 316.07 40.139C315.159 39.6483 314.444 38.9684 313.925 38.0993C313.42 37.2161 313.168 36.2208 313.168 35.1133C313.168 34.0058 313.42 33.0175 313.925 32.1484C314.444 31.2792 315.159 30.5993 316.07 30.1087C316.981 29.618 318.004 29.3727 319.14 29.3727C320.289 29.3727 321.32 29.618 322.231 30.1087C323.142 30.5993 323.85 31.2792 324.355 32.1484C324.873 33.0175 325.133 34.0058 325.133 35.1133C325.133 36.2208 324.873 37.2161 324.355 38.0993C323.85 38.9684 323.142 39.6483 322.231 40.139C321.32 40.6296 320.289 40.8749 319.14 40.8749ZM319.14 38.6249C320.107 38.6249 320.906 38.3025 321.537 37.6577C322.168 37.0128 322.483 36.1647 322.483 35.1133C322.483 34.0619 322.168 33.2138 321.537 32.5689C320.906 31.9241 320.107 31.6016 319.14 31.6016C318.173 31.6016 317.373 31.9241 316.743 32.5689C316.126 33.2138 315.817 34.0619 315.817 35.1133C315.817 36.1647 316.126 37.0128 316.743 37.6577C317.373 38.3025 318.173 38.6249 319.14 38.6249Z" fill="#1E1F24"/>
<path d="M344.279 29.4989V35.7021C344.279 37.3422 343.852 38.6179 342.997 39.5291C342.141 40.4263 340.915 40.8749 339.317 40.8749C337.592 40.8749 336.352 40.2932 335.595 39.1296C335.202 39.7184 334.698 40.16 334.081 40.4544C333.478 40.7347 332.742 40.8749 331.873 40.8749C330.275 40.8749 329.048 40.4263 328.193 39.5291C327.352 38.6179 326.931 37.3422 326.931 35.7021V29.4989H329.56V35.4708C329.56 36.5362 329.742 37.3212 330.106 37.8259C330.485 38.3306 331.081 38.5829 331.894 38.5829C332.707 38.5829 333.31 38.3306 333.702 37.8259C334.095 37.3072 334.291 36.5222 334.291 35.4708V29.4989H336.92V35.4708C336.92 36.5222 337.116 37.3072 337.508 37.8259C337.901 38.3306 338.504 38.5829 339.317 38.5829C340.13 38.5829 340.719 38.3306 341.083 37.8259C341.462 37.3212 341.651 36.5362 341.651 35.4708V29.4989H344.279Z" fill="#1E1F24"/>
<path d="M350.471 40.8749C349.56 40.8749 348.67 40.7558 347.801 40.5175C346.932 40.2791 346.238 39.9777 345.719 39.6133L346.728 37.6156C347.233 37.9521 347.836 38.2254 348.537 38.4357C349.252 38.632 349.953 38.7301 350.64 38.7301C352.21 38.7301 352.995 38.3165 352.995 37.4894C352.995 37.0969 352.791 36.8236 352.385 36.6694C351.992 36.5152 351.354 36.368 350.471 36.2278C349.546 36.0876 348.789 35.9264 348.2 35.7441C347.626 35.5619 347.121 35.2465 346.686 34.7979C346.266 34.3353 346.055 33.6974 346.055 32.8843C346.055 31.8189 346.497 30.9708 347.38 30.34C348.277 29.6951 349.483 29.3727 350.997 29.3727C351.768 29.3727 352.539 29.4638 353.31 29.6461C354.081 29.8143 354.712 30.0456 355.203 30.34L354.193 32.3376C353.24 31.7769 352.168 31.4965 350.976 31.4965C350.205 31.4965 349.616 31.6157 349.21 31.854C348.817 32.0783 348.621 32.3797 348.621 32.7582C348.621 33.1787 348.831 33.4801 349.252 33.6624C349.686 33.8306 350.352 33.9918 351.249 34.146C352.147 34.2862 352.883 34.4474 353.457 34.6297C354.032 34.8119 354.523 35.1203 354.929 35.5549C355.35 35.9895 355.56 36.6063 355.56 37.4053C355.56 38.4567 355.104 39.2978 354.193 39.9287C353.282 40.5595 352.041 40.8749 350.471 40.8749Z" fill="#1E1F24"/>
<path d="M362.534 38.646C363.754 38.646 364.77 38.2394 365.583 37.4264L366.971 39.0455C366.48 39.6483 365.849 40.1039 365.078 40.4123C364.307 40.7207 363.438 40.8749 362.471 40.8749C361.237 40.8749 360.151 40.6296 359.212 40.139C358.272 39.6483 357.543 38.9684 357.025 38.0993C356.52 37.2161 356.268 36.2208 356.268 35.1133C356.268 34.0198 356.513 33.0385 357.004 32.1694C357.508 31.2862 358.195 30.5993 359.064 30.1087C359.947 29.618 360.943 29.3727 362.05 29.3727C363.102 29.3727 364.055 29.604 364.91 30.0666C365.779 30.5152 366.466 31.1671 366.971 32.0222C367.475 32.8633 367.728 33.8516 367.728 34.9871L359.127 36.6694C359.394 37.3142 359.821 37.8049 360.41 38.1413C360.999 38.4778 361.707 38.646 362.534 38.646ZM362.05 31.4755C361.083 31.4755 360.298 31.7909 359.695 32.4217C359.106 33.0526 358.812 33.9007 358.812 34.9661V34.9871L365.162 33.7675C364.98 33.0806 364.609 32.5269 364.048 32.1063C363.501 31.6858 362.835 31.4755 362.05 31.4755Z" fill="#1E1F24"/>
<path d="M372.125 31.139C372.882 29.9615 374.213 29.3727 376.12 29.3727V31.875C375.896 31.8329 375.692 31.8119 375.51 31.8119C374.487 31.8119 373.688 32.1133 373.113 32.7161C372.538 33.3049 372.251 34.16 372.251 35.2815V40.7277H369.622V29.4989H372.125V31.139Z" fill="#1E1F24"/>
<path d="M50 73C50 66.3726 55.3726 61 62 61H546C552.627 61 558 66.3726 558 73V340H50L50 73Z" fill="white"/>
<g clip-path="url(#clip0_1058_32980)">
<rect x="162" y="215" width="283.2" height="93.6" rx="7.2" fill="#FFF7EE"/>
<path d="M158 273.089C166.255 277.583 174.639 281.486 182.974 285.602C193.668 290.877 203.942 297.618 215.056 301.001C232.826 306.418 247.3 300.953 263.018 288.133C270.724 281.841 278.3 275.028 286.523 270.368C294.858 265.661 303.808 263.225 312.531 267.01C318.169 269.446 323.403 273.514 328.782 277.015C340.058 284.372 352.384 288.748 364.402 282.811C384.337 272.947 391.041 242.007 408.148 226.797C424.044 212.652 440.052 221.83 450.133 242.835C462.119 267.79 469.825 296.506 489 312" stroke="#FFD9A7" stroke-width="3" stroke-miterlimit="10"/>
</g>
<path d="M50 73C50 66.3726 55.3726 61 62 61H546C552.627 61 558 66.3726 558 73V105H50V73Z" fill="#373737"/>
<path d="M130 83C130 77.4772 134.477 73 140 73H280C285.523 73 290 77.4772 290 83V105H130V83Z" fill="white"/>
<rect x="142" y="85" width="80" height="12" rx="2" fill="#E7E8EC"/>
<circle cx="72" cy="83" r="6" fill="#FF5F57"/>
<circle cx="90" cy="83" r="6" fill="#FEBC2E"/>
<circle cx="108" cy="83" r="6" fill="#28C840"/>
<path d="M330.136 156.481C330.522 155.819 331.478 155.819 331.864 156.481L337.123 165.496C337.512 166.163 337.031 167 336.259 167H325.741C324.969 167 324.488 166.163 324.877 165.496L330.136 156.481Z" fill="#FA8525"/>
<path d="M354.32 168.16C354.576 169.568 355.152 170.656 356.048 171.424C356.976 172.16 358.208 172.528 359.744 172.528C361.728 172.528 363.168 171.712 364.064 170.08C364.96 168.416 365.408 165.632 365.408 161.728C364.672 162.752 363.632 163.552 362.288 164.128C360.976 164.704 359.552 164.992 358.016 164.992C355.968 164.992 354.112 164.576 352.448 163.744C350.816 162.88 349.52 161.616 348.56 159.952C347.6 158.256 347.12 156.208 347.12 153.808C347.12 150.256 348.176 147.44 350.288 145.36C352.4 143.248 355.28 142.192 358.928 142.192C363.472 142.192 366.672 143.648 368.528 146.56C370.416 149.472 371.36 153.856 371.36 159.712C371.36 163.872 370.992 167.28 370.256 169.936C369.552 172.592 368.32 174.608 366.56 175.984C364.832 177.36 362.464 178.048 359.456 178.048C357.088 178.048 355.072 177.6 353.408 176.704C351.744 175.776 350.464 174.576 349.568 173.104C348.704 171.6 348.208 169.952 348.08 168.16H354.32ZM359.408 159.52C361.072 159.52 362.384 159.008 363.344 157.984C364.304 156.96 364.784 155.584 364.784 153.856C364.784 151.968 364.272 150.512 363.248 149.488C362.256 148.432 360.896 147.904 359.168 147.904C357.44 147.904 356.064 148.448 355.04 149.536C354.048 150.592 353.552 152 353.552 153.76C353.552 155.456 354.032 156.848 354.992 157.936C355.984 158.992 357.456 159.52 359.408 159.52ZM376.591 160.048C376.591 154.512 377.583 150.176 379.567 147.04C381.583 143.904 384.911 142.336 389.551 142.336C394.191 142.336 397.503 143.904 399.487 147.04C401.503 150.176 402.511 154.512 402.511 160.048C402.511 165.616 401.503 169.984 399.487 173.152C397.503 176.32 394.191 177.904 389.551 177.904C384.911 177.904 381.583 176.32 379.567 173.152C377.583 169.984 376.591 165.616 376.591 160.048ZM395.887 160.048C395.887 157.68 395.727 155.696 395.407 154.096C395.119 152.464 394.511 151.136 393.583 150.112C392.687 149.088 391.343 148.576 389.551 148.576C387.759 148.576 386.399 149.088 385.471 150.112C384.575 151.136 383.967 152.464 383.647 154.096C383.359 155.696 383.215 157.68 383.215 160.048C383.215 162.48 383.359 164.528 383.647 166.192C383.935 167.824 384.543 169.152 385.471 170.176C386.399 171.168 387.759 171.664 389.551 171.664C391.343 171.664 392.703 171.168 393.631 170.176C394.559 169.152 395.167 167.824 395.455 166.192C395.743 164.528 395.887 162.48 395.887 160.048ZM406.854 151.6C406.854 149.168 407.558 147.264 408.966 145.888C410.406 144.512 412.246 143.824 414.486 143.824C416.726 143.824 418.55 144.512 419.958 145.888C421.398 147.264 422.118 149.168 422.118 151.6C422.118 154.064 421.398 155.984 419.958 157.36C418.55 158.736 416.726 159.424 414.486 159.424C412.246 159.424 410.406 158.736 408.966 157.36C407.558 155.984 406.854 154.064 406.854 151.6ZM437.67 144.4L418.806 178H412.278L431.094 144.4H437.67ZM414.438 147.856C412.678 147.856 411.798 149.104 411.798 151.6C411.798 154.128 412.678 155.392 414.438 155.392C415.302 155.392 415.974 155.088 416.454 154.48C416.934 153.84 417.174 152.88 417.174 151.6C417.174 149.104 416.262 147.856 414.438 147.856ZM427.926 170.752C427.926 168.288 428.63 166.384 430.038 165.04C431.478 163.664 433.318 162.976 435.558 162.976C437.798 162.976 439.606 163.664 440.982 165.04C442.39 166.384 443.094 168.288 443.094 170.752C443.094 173.216 442.39 175.136 440.982 176.512C439.606 177.888 437.798 178.576 435.558 178.576C433.286 178.576 431.446 177.888 430.038 176.512C428.63 175.136 427.926 173.216 427.926 170.752ZM435.51 167.008C433.686 167.008 432.774 168.256 432.774 170.752C432.774 173.28 433.686 174.544 435.51 174.544C437.302 174.544 438.198 173.28 438.198 170.752C438.198 168.256 437.302 167.008 435.51 167.008Z" fill="#FA8525"/>
<rect x="162" y="136" width="80" height="14" rx="2" fill="#FFD9A7"/>
<rect x="162" y="160" width="100" height="10" rx="2" fill="#FFF7EE"/>
<rect x="162" y="174" width="52" height="10" rx="2" fill="#FFF7EE"/>
<defs>
<clipPath id="clip0_1058_32980">
<rect x="162" y="215" width="283.2" height="93.6" rx="7.2" fill="white"/>
</clipPath>
</defs>
</svg>
