<svg width="608" height="340" viewBox="0 0 608 340" fill="none" xmlns="http://www.w3.org/2000/svg">
<g clip-path="url(#clip0_1058_33157)">
<rect width="608" height="340" rx="16" fill="#FEF7ED"/>
<rect x="204.5" y="70.5" width="199" height="199" rx="99.5" fill="#FFFEFD"/>
<rect x="204.5" y="70.5" width="199" height="199" rx="99.5" stroke="#FFD9A7" stroke-linecap="round"/>
<path opacity="0.3" d="M302.272 151.789C302.272 151.127 302.272 151.127 302.272 151.789V151.789ZM346.417 199.468H345.099C345.099 199.468 345.758 200.13 346.417 199.468ZM376.066 102.124C372.113 102.124 369.478 102.124 366.183 104.11C364.865 104.773 364.207 106.097 362.23 106.759C360.912 107.421 358.936 106.759 357.618 107.421C352.347 109.408 353.006 120.003 346.417 118.679C343.122 118.017 341.146 114.043 339.169 111.395C337.851 109.408 335.216 107.421 337.192 104.773H334.557C335.875 102.124 339.169 102.786 339.828 101.462C341.146 98.1505 335.875 98.1505 333.898 97.4883C335.875 95.5017 336.534 98.1505 338.51 97.4883C340.487 96.8261 337.851 94.8395 336.534 94.1773C335.875 94.1773 329.945 96.1639 333.239 92.8528C328.627 90.204 324.015 86.893 319.403 84.2441C318.744 87.5552 325.333 89.5418 327.968 90.204C327.309 91.5284 325.332 93.5151 324.015 92.8528C322.697 92.1906 323.356 89.5418 320.72 90.204C319.403 94.1773 324.015 92.8528 324.674 95.5017C325.332 98.1505 322.697 96.8261 322.038 96.8261C322.038 96.8261 320.061 94.8395 320.061 96.1639C320.061 97.4883 322.697 97.4883 323.356 98.8127C320.061 98.8127 318.085 97.4883 315.449 96.1639C312.155 94.1773 310.837 94.1773 306.884 94.1773C308.202 93.515 309.519 93.5151 310.837 92.8528C311.496 92.1906 313.473 90.204 313.473 89.5418C314.131 87.5552 313.473 87.5552 311.496 86.2308C310.837 85.5686 308.86 82.9197 306.225 82.9197C298.977 81.5953 303.589 89.5418 298.318 90.8662C297.001 90.8662 294.365 90.204 293.706 91.5284C293.047 92.1906 293.047 94.1773 292.388 94.8395C291.071 96.1639 289.094 96.1639 287.776 97.4883C286.458 98.1505 283.164 100.799 282.505 102.124C279.211 108.084 289.094 110.07 293.047 111.395C295.024 112.057 299.636 113.381 300.295 114.706C301.613 116.692 298.977 118.017 301.613 119.341C302.272 120.003 304.248 120.003 304.907 118.679C306.225 117.355 304.248 117.355 304.248 115.368C303.589 112.719 304.907 113.381 306.225 112.719C308.86 110.732 308.202 110.07 307.543 106.759C306.884 105.435 304.907 100.799 306.884 99.4749C308.86 98.1505 313.473 100.137 315.449 100.799C317.426 100.799 318.744 103.448 319.403 104.773C320.061 105.435 321.379 106.759 322.697 106.759C324.674 106.759 324.015 104.773 324.674 104.11C327.968 102.124 328.627 104.773 329.945 107.421C331.262 110.07 331.921 110.732 333.898 112.719C334.557 113.381 339.169 116.03 338.51 118.017C338.51 119.341 333.898 120.666 332.58 121.328C327.968 122.652 319.403 118.679 318.744 125.963C320.72 125.301 325.332 121.328 326.65 123.314C327.309 123.977 325.991 125.301 326.65 126.625C327.309 129.274 329.286 128.612 331.921 127.95H331.262C333.898 126.625 333.898 126.625 335.216 124.639C335.875 123.977 336.534 121.99 337.192 121.328C339.169 119.341 339.828 120.666 341.146 121.99C341.805 122.652 344.44 127.288 343.781 126.625C339.828 125.963 336.534 125.963 333.239 127.95C331.262 129.274 329.945 130.599 327.968 131.261C327.309 131.261 323.356 131.923 324.015 131.261C324.674 130.599 326.65 129.936 327.968 128.612C325.333 127.288 323.356 129.936 321.379 131.261C319.403 131.923 318.744 133.91 317.426 135.896C316.767 136.559 315.449 136.559 314.79 137.883C314.131 138.545 314.131 139.87 313.473 141.194C312.814 141.856 311.496 141.194 311.496 142.518C310.837 143.843 312.155 144.505 311.496 145.829C310.837 147.154 308.202 148.478 306.884 149.803L307.543 149.14C306.225 150.465 304.907 151.127 304.248 152.451C304.907 154.438 306.225 159.074 305.566 159.736C302.272 162.385 300.295 157.087 298.977 155.763C295.683 151.127 289.753 154.438 285.141 154.438C279.87 155.1 274.598 161.722 277.893 167.682C279.211 170.331 282.505 171.656 285.141 170.993C287.776 170.331 288.435 166.358 291.071 166.358C295.683 166.358 291.071 170.993 291.071 172.98C290.412 174.304 291.729 174.967 293.047 174.967C294.365 174.967 296.342 174.304 297.001 174.967C297.659 175.629 297.659 177.615 298.318 176.953C296.342 178.278 297.001 182.251 298.977 183.575C300.954 184.9 303.589 183.575 305.566 184.237C309.519 185.562 307.543 184.237 311.496 181.589C314.131 180.264 314.131 181.589 316.108 181.589C317.426 181.589 318.085 180.264 320.061 180.264C321.379 180.926 322.038 181.589 324.015 182.251H325.991C329.286 182.913 331.921 184.9 334.557 186.886C336.534 188.211 338.51 188.211 341.146 188.873C343.122 189.535 346.417 192.184 346.417 194.833C346.417 195.495 344.44 197.482 344.44 198.144C345.099 198.806 348.393 197.482 349.052 197.482C349.052 198.144 346.417 199.468 346.417 198.806C346.417 199.468 347.735 200.13 348.393 200.13C349.711 196.157 351.688 198.806 353.664 199.468C355.641 200.13 358.277 200.13 360.253 200.793C362.23 201.455 366.183 202.779 367.501 204.104C368.819 206.09 368.16 208.739 366.842 210.726C365.524 213.375 362.889 214.037 361.571 216.686C360.912 218.672 361.571 221.321 360.912 223.308C360.253 226.619 359.594 225.294 357.618 227.281C355.641 229.268 357.618 228.605 354.982 229.93C352.347 231.254 350.37 230.592 348.393 233.241V232.579C347.735 233.903 347.076 235.89 347.076 236.552C346.417 238.538 345.099 239.201 343.781 240.525C343.122 241.187 338.51 247.809 338.51 247.147C337.851 246.485 334.557 247.809 334.557 247.147C334.557 247.809 334.557 247.809 335.216 248.472C334.557 253.769 331.921 254.431 326.65 254.431C327.309 257.08 324.674 256.418 323.356 257.742C322.697 258.405 322.697 261.054 322.038 261.716C322.038 262.378 319.403 265.027 319.403 265.689C319.403 266.351 320.061 267.013 320.72 267.676C316.767 268.338 313.473 269 309.519 269C310.178 268.338 310.178 267.013 308.202 267.013C308.86 265.027 310.178 264.365 310.837 263.04V261.054C311.496 258.405 311.496 259.729 310.837 257.742C309.519 253.107 311.496 251.783 312.814 247.147C314.131 242.512 314.131 237.214 314.79 231.916C315.449 229.93 316.108 224.632 314.79 222.645C314.131 219.997 310.178 218.01 308.202 216.686C305.566 214.037 304.248 212.05 302.272 208.739C301.613 207.415 300.295 206.09 299.636 204.104C298.318 200.793 299.636 202.779 299.636 200.793C299.636 198.806 299.636 196.819 300.295 194.833C300.954 192.846 302.93 190.86 304.248 188.873C304.907 186.886 304.248 184.237 302.272 183.575C300.954 182.913 299.636 184.237 298.977 183.575C297.659 183.575 295.683 182.251 294.365 180.926C292.388 179.602 291.729 177.615 289.753 176.291C288.435 174.967 287.117 175.629 285.141 175.629C283.164 174.967 282.505 172.98 281.187 172.318C279.211 170.993 277.893 172.98 275.916 172.318C273.94 172.318 271.304 169.669 269.327 169.007C265.374 167.682 263.397 165.696 262.08 161.722C260.762 158.411 258.785 157.087 256.809 154.438C254.832 151.789 254.173 149.803 250.879 148.478C250.22 148.478 251.538 151.127 251.538 151.789C252.855 153.776 254.832 155.763 256.15 158.411C258.126 161.722 257.468 161.722 255.491 159.074C252.855 155.763 250.22 152.452 248.243 149.14C249.561 150.465 249.561 149.14 248.243 147.816C246.925 146.492 244.949 145.829 244.29 144.505C239.678 140.532 239.019 134.572 239.019 128.612C239.019 126.625 239.678 125.301 239.678 123.314C239.678 121.99 238.36 120.666 237.042 119.341C236.383 118.679 235.724 117.355 235.724 117.355C234.407 115.368 233.748 114.043 232.43 112.719C231.771 112.057 229.136 110.07 226.5 108.084C237.042 94.8395 250.879 84.2441 266.692 77.6221C266.692 78.2843 267.351 78.9465 267.351 80.2709C269.327 82.2575 270.645 82.2575 272.622 82.9197C272.622 85.5686 268.669 86.2308 266.692 85.5686C264.056 84.9064 260.762 84.2441 258.785 86.893C260.103 87.5552 264.056 90.8662 263.397 87.5552H271.304C272.622 87.5552 275.916 88.8796 276.575 88.2174C277.234 88.2174 277.234 86.2308 277.893 85.5686C277.234 85.5686 276.575 84.9064 275.916 85.5686C277.893 83.5819 279.211 84.9064 281.846 86.2308C279.211 87.5552 281.187 91.5284 283.164 88.2174C285.141 85.5686 282.505 84.2441 280.528 82.9197C283.164 79.6087 284.482 79.6087 287.117 82.9197C287.776 80.9331 289.094 81.5953 291.071 81.5953V80.9331C290.412 80.9331 289.094 80.2709 288.435 80.2709C290.412 76.9599 289.094 76.2977 291.729 75.6355C293.706 74.9732 299.636 75.6354 300.954 73.6488C297.001 74.311 291.729 74.9732 287.776 76.2977C285.799 76.9599 284.482 79.6087 282.505 78.2843C280.528 76.2977 283.823 73.6488 285.141 72.9866H284.482C291.071 71.6622 298.318 71 305.566 71C310.178 71 314.79 71.6622 319.403 71.6622C318.085 72.3244 318.744 72.9866 318.085 73.6488C316.108 74.9732 312.155 76.2977 309.519 77.6221C312.814 77.6221 320.72 80.9331 322.038 76.2977C320.72 76.2977 320.061 76.2977 318.744 75.6355C320.72 74.311 322.697 72.9866 325.333 72.3244C344.44 76.9599 362.889 87.5552 376.066 102.124ZM394.515 141.856C394.515 141.194 395.174 141.194 395.174 141.194C395.833 140.532 395.174 139.87 395.833 139.207C396.492 138.545 397.151 138.545 397.81 137.883L398.469 137.221C400.445 141.856 401.763 146.492 402.422 151.789L400.445 152.451C399.127 152.451 398.469 151.789 397.81 151.127L395.174 148.478C394.515 147.154 395.174 146.492 395.174 145.167C394.515 143.843 393.856 142.518 394.515 141.856ZM394.833 193.508C392.856 191.522 390.88 189.535 389.562 187.548C388.244 184.9 388.903 182.913 388.903 180.264C388.903 178.278 387.585 174.967 388.903 172.98L390.88 170.993C391.539 169.669 391.539 168.344 392.856 167.02C394.174 165.696 395.492 165.033 396.81 163.709C398.127 162.385 398.127 161.722 398.786 159.736C399.445 158.411 400.763 156.425 402.081 155.763C402.74 161.06 403.398 165.696 403.398 170.993C403.398 179.602 402.081 188.873 400.104 196.819C398.127 196.157 396.151 194.833 394.833 193.508Z" fill="url(#paint0_linear_1058_33157)"/>
<rect x="264" y="130" width="80" height="80" rx="40" fill="#FA8525"/>
<path d="M295.114 153.892V186H288.674V153.892H295.114ZM324.891 163.828C324.891 165.545 324.477 167.155 323.649 168.658C322.851 170.161 321.579 171.372 319.831 172.292C318.113 173.212 315.936 173.672 313.299 173.672H307.917V186H301.477V153.892H313.299C315.783 153.892 317.899 154.321 319.647 155.18C321.395 156.039 322.698 157.219 323.557 158.722C324.446 160.225 324.891 161.927 324.891 163.828ZM313.023 168.474C314.801 168.474 316.12 168.075 316.979 167.278C317.837 166.45 318.267 165.3 318.267 163.828C318.267 160.7 316.519 159.136 313.023 159.136H307.917V168.474H313.023Z" fill="white"/>
<rect x="284.5" y="50.5" width="39" height="39" rx="19.5" fill="#FFFEFD"/>
<rect x="284.5" y="50.5" width="39" height="39" rx="19.5" stroke="#D8D9E0"/>
<path fill-rule="evenodd" clip-rule="evenodd" d="M304 61C300.134 61 297 64.134 297 68C297 69.8921 297.853 71.678 299.292 73.5467C300.507 75.1245 302.063 76.6673 303.732 78.3233C303.821 78.4115 303.91 78.5 304 78.5889C304.09 78.5 304.179 78.4115 304.268 78.3233C305.937 76.6673 307.493 75.1245 308.708 73.5467C310.147 71.678 311 69.8921 311 68C311 64.134 307.866 61 304 61ZM295 68C295 63.0294 299.029 59 304 59C308.971 59 313 63.0294 313 68C313 70.5262 311.853 72.7402 310.292 74.767C308.988 76.4607 307.319 78.1156 305.651 79.7689C305.335 80.0816 305.02 80.3943 304.707 80.7071C304.317 81.0976 303.683 81.0976 303.293 80.7071C302.98 80.3943 302.665 80.0816 302.349 79.7689C300.681 78.1156 299.012 76.4607 297.708 74.767C296.147 72.7402 295 70.5262 295 68ZM304 66C302.895 66 302 66.8954 302 68C302 69.1046 302.895 70 304 70C305.105 70 306 69.1046 306 68C306 66.8954 305.105 66 304 66ZM300 68C300 65.7909 301.791 64 304 64C306.209 64 308 65.7909 308 68C308 70.2091 306.209 72 304 72C301.791 72 300 70.2091 300 68Z" fill="#62636C"/>
<rect x="312" y="78" width="12" height="12" rx="6" fill="#E5484D"/>
<path fill-rule="evenodd" clip-rule="evenodd" d="M316.25 81.5428L318 83.2928L319.75 81.5428L320.457 82.25L318.707 84L320.457 85.75L319.75 86.4571L318 84.7071L316.25 86.4571L315.543 85.75L317.293 84L315.543 82.25L316.25 81.5428Z" fill="white"/>
<rect x="284.5" y="250.5" width="39" height="39" rx="19.5" fill="#FFFEFD"/>
<rect x="284.5" y="250.5" width="39" height="39" rx="19.5" stroke="#FFD9A7"/>
<path fill-rule="evenodd" clip-rule="evenodd" d="M304 261C300.134 261 297 264.134 297 268C297 269.892 297.853 271.678 299.292 273.547C300.507 275.125 302.063 276.667 303.732 278.323C303.821 278.412 303.91 278.5 304 278.589C304.09 278.5 304.179 278.412 304.268 278.323C305.937 276.667 307.493 275.125 308.708 273.547C310.147 271.678 311 269.892 311 268C311 264.134 307.866 261 304 261ZM295 268C295 263.029 299.029 259 304 259C308.971 259 313 263.029 313 268C313 270.526 311.853 272.74 310.292 274.767C308.988 276.461 307.319 278.116 305.651 279.769C305.335 280.082 305.02 280.394 304.707 280.707C304.317 281.098 303.683 281.098 303.293 280.707C302.98 280.394 302.665 280.082 302.349 279.769C300.681 278.116 299.012 276.461 297.708 274.767C296.147 272.74 295 270.526 295 268ZM304 266C302.895 266 302 266.895 302 268C302 269.105 302.895 270 304 270C305.105 270 306 269.105 306 268C306 266.895 305.105 266 304 266ZM300 268C300 265.791 301.791 264 304 264C306.209 264 308 265.791 308 268C308 270.209 306.209 272 304 272C301.791 272 300 270.209 300 268Z" fill="#FA8525"/>
<rect x="312" y="278" width="12" height="12" rx="6" fill="#2ECC9C"/>
<path fill-rule="evenodd" clip-rule="evenodd" d="M320.889 282.5L317.182 286.207L315.111 284.136L315.818 283.429L317.182 284.793L320.182 281.793L320.889 282.5Z" fill="white"/>
<rect x="384.5" y="150.5" width="39" height="39" rx="19.5" fill="#FFFEFD"/>
<rect x="384.5" y="150.5" width="39" height="39" rx="19.5" stroke="#FFD9A7"/>
<path fill-rule="evenodd" clip-rule="evenodd" d="M404 161C400.134 161 397 164.134 397 168C397 169.892 397.853 171.678 399.292 173.547C400.507 175.125 402.063 176.667 403.732 178.323C403.821 178.412 403.91 178.5 404 178.589C404.09 178.5 404.179 178.412 404.268 178.323C405.937 176.667 407.493 175.125 408.708 173.547C410.147 171.678 411 169.892 411 168C411 164.134 407.866 161 404 161ZM395 168C395 163.029 399.029 159 404 159C408.971 159 413 163.029 413 168C413 170.526 411.853 172.74 410.292 174.767C408.988 176.461 407.319 178.116 405.651 179.769C405.335 180.082 405.02 180.394 404.707 180.707C404.317 181.098 403.683 181.098 403.293 180.707C402.98 180.394 402.665 180.082 402.349 179.769C400.681 178.116 399.012 176.461 397.708 174.767C396.147 172.74 395 170.526 395 168ZM404 166C402.895 166 402 166.895 402 168C402 169.105 402.895 170 404 170C405.105 170 406 169.105 406 168C406 166.895 405.105 166 404 166ZM400 168C400 165.791 401.791 164 404 164C406.209 164 408 165.791 408 168C408 170.209 406.209 172 404 172C401.791 172 400 170.209 400 168Z" fill="#FA8525"/>
<rect x="412" y="178" width="12" height="12" rx="6" fill="#2ECC9C"/>
<path fill-rule="evenodd" clip-rule="evenodd" d="M420.889 182.5L417.182 186.207L415.111 184.136L415.818 183.429L417.182 184.793L420.182 181.793L420.889 182.5Z" fill="white"/>
<rect x="184.5" y="150.5" width="39" height="39" rx="19.5" fill="#FFFEFD"/>
<rect x="184.5" y="150.5" width="39" height="39" rx="19.5" stroke="#FFD9A7"/>
<path fill-rule="evenodd" clip-rule="evenodd" d="M204 161C200.134 161 197 164.134 197 168C197 169.892 197.853 171.678 199.292 173.547C200.507 175.125 202.063 176.667 203.732 178.323C203.821 178.412 203.91 178.5 204 178.589C204.09 178.5 204.179 178.412 204.268 178.323C205.937 176.667 207.493 175.125 208.708 173.547C210.147 171.678 211 169.892 211 168C211 164.134 207.866 161 204 161ZM195 168C195 163.029 199.029 159 204 159C208.971 159 213 163.029 213 168C213 170.526 211.853 172.74 210.292 174.767C208.988 176.461 207.319 178.116 205.651 179.769C205.335 180.082 205.02 180.394 204.707 180.707C204.317 181.098 203.683 181.098 203.293 180.707C202.98 180.394 202.665 180.082 202.349 179.769C200.681 178.116 199.012 176.461 197.708 174.767C196.147 172.74 195 170.526 195 168ZM204 166C202.895 166 202 166.895 202 168C202 169.105 202.895 170 204 170C205.105 170 206 169.105 206 168C206 166.895 205.105 166 204 166ZM200 168C200 165.791 201.791 164 204 164C206.209 164 208 165.791 208 168C208 170.209 206.209 172 204 172C201.791 172 200 170.209 200 168Z" fill="#FA8525"/>
<rect x="212" y="178" width="12" height="12" rx="6" fill="#2ECC9C"/>
<path fill-rule="evenodd" clip-rule="evenodd" d="M220.889 182.5L217.182 186.207L215.111 184.136L215.818 183.429L217.182 184.793L220.182 181.793L220.889 182.5Z" fill="white"/>
<g opacity="0.6">
<circle cx="304" cy="170" r="160" stroke="#FFD9A7" stroke-linecap="round" stroke-dasharray="3 4"/>
<circle cx="304" cy="170" r="229" stroke="#FFD9A7" stroke-linecap="round" stroke-dasharray="3 4"/>
<rect x="398.5" y="36.5" width="39" height="39" rx="19.5" fill="#FFFEFD"/>
<rect x="398.5" y="36.5" width="39" height="39" rx="19.5" stroke="#FFD9A7"/>
<path fill-rule="evenodd" clip-rule="evenodd" d="M418 47C414.134 47 411 50.134 411 54C411 55.8921 411.853 57.678 413.292 59.5467C414.507 61.1245 416.063 62.6673 417.732 64.3233C417.821 64.4115 417.91 64.5 418 64.5889C418.09 64.5 418.179 64.4115 418.268 64.3233C419.937 62.6673 421.493 61.1245 422.708 59.5467C424.147 57.678 425 55.8921 425 54C425 50.134 421.866 47 418 47ZM409 54C409 49.0294 413.029 45 418 45C422.971 45 427 49.0294 427 54C427 56.5262 425.853 58.7402 424.292 60.767C422.988 62.4607 421.319 64.1156 419.651 65.7689C419.335 66.0816 419.02 66.3943 418.707 66.7071C418.317 67.0976 417.683 67.0976 417.293 66.7071C416.98 66.3943 416.665 66.0816 416.349 65.7689C414.681 64.1156 413.012 62.4607 411.708 60.767C410.147 58.7402 409 56.5262 409 54ZM418 52C416.895 52 416 52.8954 416 54C416 55.1046 416.895 56 418 56C419.105 56 420 55.1046 420 54C420 52.8954 419.105 52 418 52ZM414 54C414 51.7909 415.791 50 418 50C420.209 50 422 51.7909 422 54C422 56.2091 420.209 58 418 58C415.791 58 414 56.2091 414 54Z" fill="#FA8525"/>
<rect x="426" y="64" width="12" height="12" rx="6" fill="#2ECC9C"/>
<path fill-rule="evenodd" clip-rule="evenodd" d="M434.889 68.5L431.182 72.2071L429.111 70.1363L429.818 69.4292L431.182 70.7928L434.182 67.7928L434.889 68.5Z" fill="white"/>
<rect x="513.5" y="150.5" width="39" height="39" rx="19.5" fill="#FFFEFD"/>
<rect x="513.5" y="150.5" width="39" height="39" rx="19.5" stroke="#FFD9A7"/>
<path fill-rule="evenodd" clip-rule="evenodd" d="M533 161C529.134 161 526 164.134 526 168C526 169.892 526.853 171.678 528.292 173.547C529.507 175.125 531.063 176.667 532.732 178.323C532.821 178.412 532.91 178.5 533 178.589C533.09 178.5 533.179 178.412 533.268 178.323C534.937 176.667 536.493 175.125 537.708 173.547C539.147 171.678 540 169.892 540 168C540 164.134 536.866 161 533 161ZM524 168C524 163.029 528.029 159 533 159C537.971 159 542 163.029 542 168C542 170.526 540.853 172.74 539.292 174.767C537.988 176.461 536.319 178.116 534.651 179.769C534.335 180.082 534.02 180.394 533.707 180.707C533.317 181.098 532.683 181.098 532.293 180.707C531.98 180.394 531.665 180.082 531.349 179.769C529.681 178.116 528.012 176.461 526.708 174.767C525.147 172.74 524 170.526 524 168ZM533 166C531.895 166 531 166.895 531 168C531 169.105 531.895 170 533 170C534.105 170 535 169.105 535 168C535 166.895 534.105 166 533 166ZM529 168C529 165.791 530.791 164 533 164C535.209 164 537 165.791 537 168C537 170.209 535.209 172 533 172C530.791 172 529 170.209 529 168Z" fill="#FA8525"/>
<rect x="541" y="178" width="12" height="12" rx="6" fill="#2ECC9C"/>
<path fill-rule="evenodd" clip-rule="evenodd" d="M549.889 182.5L546.182 186.207L544.111 184.136L544.818 183.429L546.182 184.793L549.182 181.793L549.889 182.5Z" fill="white"/>
<rect x="398.5" y="264.5" width="39" height="39" rx="19.5" fill="#FFFEFD"/>
<rect x="398.5" y="264.5" width="39" height="39" rx="19.5" stroke="#FFD9A7"/>
<path fill-rule="evenodd" clip-rule="evenodd" d="M418 275C414.134 275 411 278.134 411 282C411 283.892 411.853 285.678 413.292 287.547C414.507 289.125 416.063 290.667 417.732 292.323C417.821 292.412 417.91 292.5 418 292.589C418.09 292.5 418.179 292.412 418.268 292.323C419.937 290.667 421.493 289.125 422.708 287.547C424.147 285.678 425 283.892 425 282C425 278.134 421.866 275 418 275ZM409 282C409 277.029 413.029 273 418 273C422.971 273 427 277.029 427 282C427 284.526 425.853 286.74 424.292 288.767C422.988 290.461 421.319 292.116 419.651 293.769C419.335 294.082 419.02 294.394 418.707 294.707C418.317 295.098 417.683 295.098 417.293 294.707C416.98 294.394 416.665 294.082 416.349 293.769C414.681 292.116 413.012 290.461 411.708 288.767C410.147 286.74 409 284.526 409 282ZM418 280C416.895 280 416 280.895 416 282C416 283.105 416.895 284 418 284C419.105 284 420 283.105 420 282C420 280.895 419.105 280 418 280ZM414 282C414 279.791 415.791 278 418 278C420.209 278 422 279.791 422 282C422 284.209 420.209 286 418 286C415.791 286 414 284.209 414 282Z" fill="#FA8525"/>
<rect x="426" y="292" width="12" height="12" rx="6" fill="#2ECC9C"/>
<path fill-rule="evenodd" clip-rule="evenodd" d="M434.889 296.5L431.182 300.207L429.111 298.136L429.818 297.429L431.182 298.793L434.182 295.793L434.889 296.5Z" fill="white"/>
<rect x="170.5" y="264.5" width="39" height="39" rx="19.5" fill="#FFFEFD"/>
<rect x="170.5" y="264.5" width="39" height="39" rx="19.5" stroke="#FFD9A7"/>
<path fill-rule="evenodd" clip-rule="evenodd" d="M190 275C186.134 275 183 278.134 183 282C183 283.892 183.853 285.678 185.292 287.547C186.507 289.125 188.063 290.667 189.732 292.323C189.821 292.412 189.91 292.5 190 292.589C190.09 292.5 190.179 292.412 190.268 292.323C191.937 290.667 193.493 289.125 194.708 287.547C196.147 285.678 197 283.892 197 282C197 278.134 193.866 275 190 275ZM181 282C181 277.029 185.029 273 190 273C194.971 273 199 277.029 199 282C199 284.526 197.853 286.74 196.292 288.767C194.988 290.461 193.319 292.116 191.651 293.769C191.335 294.082 191.02 294.394 190.707 294.707C190.317 295.098 189.683 295.098 189.293 294.707C188.98 294.394 188.665 294.082 188.349 293.769C186.681 292.116 185.012 290.461 183.708 288.767C182.147 286.74 181 284.526 181 282ZM190 280C188.895 280 188 280.895 188 282C188 283.105 188.895 284 190 284C191.105 284 192 283.105 192 282C192 280.895 191.105 280 190 280ZM186 282C186 279.791 187.791 278 190 278C192.209 278 194 279.791 194 282C194 284.209 192.209 286 190 286C187.791 286 186 284.209 186 282Z" fill="#FA8525"/>
<rect x="198" y="292" width="12" height="12" rx="6" fill="#2ECC9C"/>
<path fill-rule="evenodd" clip-rule="evenodd" d="M206.889 296.5L203.182 300.207L201.111 298.136L201.818 297.429L203.182 298.793L206.182 295.793L206.889 296.5Z" fill="white"/>
<rect x="170.5" y="36.5" width="39" height="39" rx="19.5" fill="#FFFEFD"/>
<rect x="170.5" y="36.5" width="39" height="39" rx="19.5" stroke="#FFD9A7"/>
<path fill-rule="evenodd" clip-rule="evenodd" d="M190 47C186.134 47 183 50.134 183 54C183 55.8921 183.853 57.678 185.292 59.5467C186.507 61.1245 188.063 62.6673 189.732 64.3233C189.821 64.4115 189.91 64.5 190 64.5889C190.09 64.5 190.179 64.4115 190.268 64.3233C191.937 62.6673 193.493 61.1245 194.708 59.5467C196.147 57.678 197 55.8921 197 54C197 50.134 193.866 47 190 47ZM181 54C181 49.0294 185.029 45 190 45C194.971 45 199 49.0294 199 54C199 56.5262 197.853 58.7402 196.292 60.767C194.988 62.4607 193.319 64.1156 191.651 65.7689C191.335 66.0816 191.02 66.3943 190.707 66.7071C190.317 67.0976 189.683 67.0976 189.293 66.7071C188.98 66.3943 188.665 66.0816 188.349 65.7689C186.681 64.1156 185.012 62.4607 183.708 60.767C182.147 58.7402 181 56.5262 181 54ZM190 52C188.895 52 188 52.8954 188 54C188 55.1046 188.895 56 190 56C191.105 56 192 55.1046 192 54C192 52.8954 191.105 52 190 52ZM186 54C186 51.7909 187.791 50 190 50C192.209 50 194 51.7909 194 54C194 56.2091 192.209 58 190 58C187.791 58 186 56.2091 186 54Z" fill="#FA8525"/>
<rect x="198" y="64" width="12" height="12" rx="6" fill="#2ECC9C"/>
<path fill-rule="evenodd" clip-rule="evenodd" d="M206.889 68.5L203.182 72.2071L201.111 70.1363L201.818 69.4292L203.182 70.7928L206.182 67.7928L206.889 68.5Z" fill="white"/>
<rect x="55.5" y="150.5" width="39" height="39" rx="19.5" fill="#FFFEFD"/>
<rect x="55.5" y="150.5" width="39" height="39" rx="19.5" stroke="#FFD9A7"/>
<path fill-rule="evenodd" clip-rule="evenodd" d="M75 161C71.134 161 68 164.134 68 168C68 169.892 68.8532 171.678 70.2923 173.547C71.5074 175.125 73.0627 176.667 74.7323 178.323C74.8212 178.412 74.9105 178.5 75 178.589C75.0895 178.5 75.1788 178.412 75.2677 178.323C76.9373 176.667 78.4926 175.125 79.7077 173.547C81.1468 171.678 82 169.892 82 168C82 164.134 78.866 161 75 161ZM66 168C66 163.029 70.0294 159 75 159C79.9706 159 84 163.029 84 168C84 170.526 82.8532 172.74 81.2923 174.767C79.988 176.461 78.3185 178.116 76.6508 179.769C76.3354 180.082 76.02 180.394 75.7071 180.707C75.3166 181.098 74.6834 181.098 74.2929 180.707C73.98 180.394 73.6646 180.082 73.3492 179.769C71.6815 178.116 70.012 176.461 68.7077 174.767C67.1468 172.74 66 170.526 66 168ZM75 166C73.8954 166 73 166.895 73 168C73 169.105 73.8954 170 75 170C76.1046 170 77 169.105 77 168C77 166.895 76.1046 166 75 166ZM71 168C71 165.791 72.7909 164 75 164C77.2091 164 79 165.791 79 168C79 170.209 77.2091 172 75 172C72.7909 172 71 170.209 71 168Z" fill="#FA8525"/>
<rect x="83" y="178" width="12" height="12" rx="6" fill="#2ECC9C"/>
<path fill-rule="evenodd" clip-rule="evenodd" d="M91.8889 182.5L88.1818 186.207L86.1111 184.136L86.8182 183.429L88.1818 184.793L91.1818 181.793L91.8889 182.5Z" fill="white"/>
</g>
<path d="M413.626 121.192L414.121 115.439L408.892 117.886L413.626 121.192ZM350.696 58.9155C350.441 58.8085 350.148 58.9281 350.041 59.1827C349.934 59.4373 350.054 59.7304 350.308 59.8374L350.696 58.9155ZM412.166 116.893C399.369 90.8271 377.558 70.2073 350.696 58.9155L350.308 59.8374C376.947 71.0354 398.578 91.4841 411.268 117.333L412.166 116.893Z" fill="#FA8525"/>
<path d="M352.808 279.626L358.554 280.193L356.173 274.933L352.808 279.626ZM415.084 216.696C415.191 216.441 415.072 216.148 414.817 216.041C414.563 215.934 414.27 216.054 414.163 216.308L415.084 216.696ZM414.163 216.308C413.968 216.77 413.771 217.231 413.572 217.69L414.489 218.089C414.69 217.626 414.889 217.162 415.084 216.696L414.163 216.308ZM412.339 220.428C411.916 221.337 411.482 222.239 411.037 223.135L411.933 223.579C412.381 222.676 412.819 221.766 413.245 220.85L412.339 220.428ZM409.668 225.808C409.201 226.694 408.722 227.573 408.233 228.445L409.105 228.934C409.598 228.055 410.081 227.168 410.553 226.275L409.668 225.808ZM406.731 231.046C406.219 231.907 405.697 232.762 405.165 233.609L406.011 234.141C406.548 233.287 407.075 232.426 407.591 231.557L406.731 231.046ZM403.534 236.131C402.98 236.965 402.416 237.792 401.841 238.611L402.66 239.185C403.239 238.359 403.808 237.525 404.367 236.684L403.534 236.131ZM400.086 241.048C399.49 241.853 398.885 242.651 398.27 243.44L399.059 244.055C399.679 243.259 400.289 242.455 400.89 241.643L400.086 241.048ZM396.395 245.786C395.76 246.56 395.115 247.326 394.461 248.084L395.218 248.737C395.877 247.973 396.527 247.201 397.168 246.42L396.395 245.786ZM392.47 250.333C391.797 251.074 391.115 251.806 390.423 252.53L391.147 253.221C391.844 252.491 392.532 251.752 393.21 251.005L392.47 250.333ZM388.322 254.676C387.613 255.382 386.895 256.08 386.168 256.768L386.855 257.494C387.588 256.8 388.312 256.097 389.028 255.385L388.322 254.676ZM383.961 258.806C383.217 259.476 382.465 260.136 381.704 260.787L382.355 261.547C383.122 260.89 383.88 260.224 384.63 259.549L383.961 258.806ZM379.398 262.711C378.622 263.343 377.837 263.965 377.045 264.577L377.656 265.368C378.455 264.751 379.246 264.124 380.029 263.487L379.398 262.711ZM374.645 266.383C373.838 266.974 373.023 267.556 372.2 268.128L372.771 268.949C373.601 268.372 374.422 267.786 375.236 267.189L374.645 266.383ZM369.713 269.811C368.878 270.361 368.035 270.901 367.184 271.43L367.713 272.279C368.57 271.745 369.42 271.2 370.263 270.646L369.713 269.811ZM364.615 272.986C363.753 273.493 362.884 273.99 362.008 274.477L362.494 275.351C363.377 274.86 364.253 274.359 365.123 273.848L364.615 272.986ZM359.365 275.901C358.478 276.365 357.585 276.817 356.686 277.259L357.127 278.157C358.034 277.711 358.934 277.255 359.828 276.787L359.365 275.901Z" fill="#FA8525"/>
<path d="M194.375 218.808L193.807 224.554L199.067 222.173L194.375 218.808ZM257.304 281.084C257.559 281.191 257.852 281.072 257.959 280.817C258.066 280.563 257.946 280.27 257.692 280.163L257.304 281.084ZM257.692 280.163C257.23 279.968 256.769 279.771 256.31 279.572L255.911 280.489C256.374 280.69 256.838 280.889 257.304 281.084L257.692 280.163ZM253.572 278.339C252.663 277.916 251.761 277.482 250.865 277.037L250.421 277.933C251.324 278.381 252.234 278.819 253.15 279.245L253.572 278.339ZM248.192 275.668C247.306 275.201 246.427 274.722 245.555 274.233L245.066 275.105C245.945 275.598 246.832 276.081 247.725 276.553L248.192 275.668ZM242.954 272.731C242.093 272.219 241.238 271.697 240.391 271.165L239.859 272.011C240.713 272.548 241.574 273.075 242.443 273.591L242.954 272.731ZM237.869 269.534C237.035 268.98 236.208 268.416 235.389 267.841L234.815 268.66C235.641 269.239 236.475 269.808 237.316 270.367L237.869 269.534ZM232.952 266.086C232.147 265.49 231.349 264.885 230.56 264.27L229.945 265.059C230.741 265.679 231.545 266.289 232.357 266.89L232.952 266.086ZM228.214 262.395C227.44 261.76 226.674 261.115 225.916 260.461L225.263 261.218C226.027 261.877 226.799 262.527 227.58 263.168L228.214 262.395ZM223.667 258.47C222.926 257.797 222.194 257.115 221.47 256.423L220.779 257.147C221.509 257.844 222.248 258.532 222.995 259.21L223.667 258.47ZM219.324 254.322C218.618 253.613 217.92 252.895 217.232 252.168L216.506 252.855C217.2 253.588 217.903 254.312 218.615 255.028L219.324 254.322ZM215.194 249.961C214.524 249.217 213.864 248.465 213.213 247.704L212.453 248.355C213.11 249.122 213.776 249.88 214.451 250.63L215.194 249.961ZM211.289 245.398C210.657 244.622 210.035 243.837 209.423 243.045L208.632 243.656C209.249 244.455 209.876 245.246 210.513 246.029L211.289 245.398ZM207.617 240.645C207.026 239.838 206.444 239.023 205.872 238.2L205.051 238.771C205.628 239.601 206.214 240.422 206.811 241.236L207.617 240.645ZM204.189 235.713C203.639 234.878 203.099 234.035 202.57 233.184L201.721 233.713C202.255 234.57 202.8 235.42 203.354 236.263L204.189 235.713ZM201.014 230.615C200.507 229.753 200.01 228.884 199.523 228.008L198.649 228.494C199.14 229.377 199.641 230.253 200.152 231.123L201.014 230.615ZM198.099 225.365C197.635 224.478 197.183 223.585 196.741 222.686L195.843 223.127C196.289 224.034 196.745 224.934 197.213 225.828L198.099 225.365Z" fill="#FA8525"/>
<path d="M255.192 60.3745L249.446 59.8071L251.827 65.0666L255.192 60.3745ZM192.916 123.304C192.809 123.559 192.928 123.852 193.183 123.959C193.437 124.066 193.73 123.946 193.837 123.692L192.916 123.304ZM193.837 123.692C194.032 123.23 194.229 122.769 194.428 122.31L193.511 121.911C193.31 122.374 193.111 122.838 192.916 123.304L193.837 123.692ZM195.661 119.572C196.084 118.663 196.518 117.761 196.963 116.865L196.067 116.421C195.619 117.324 195.181 118.234 194.755 119.15L195.661 119.572ZM198.332 114.192C198.799 113.306 199.278 112.427 199.767 111.555L198.895 111.066C198.402 111.945 197.919 112.832 197.447 113.725L198.332 114.192ZM201.269 108.954C201.781 108.093 202.303 107.238 202.835 106.391L201.989 105.859C201.452 106.713 200.925 107.574 200.409 108.443L201.269 108.954ZM204.466 103.869C205.02 103.035 205.584 102.208 206.159 101.389L205.34 100.815C204.761 101.641 204.192 102.475 203.633 103.316L204.466 103.869ZM207.914 98.9519C208.51 98.1466 209.115 97.3492 209.73 96.5597L208.941 95.9452C208.321 96.7412 207.711 97.5453 207.11 98.3574L207.914 98.9519ZM211.605 94.214C212.24 93.4398 212.885 92.6737 213.539 91.9161L212.782 91.2626C212.123 92.0266 211.473 92.7991 210.832 93.5798L211.605 94.214ZM215.53 89.6675C216.203 88.9263 216.885 88.1936 217.577 87.4696L216.853 86.779C216.156 87.509 215.468 88.2478 214.79 88.9952L215.53 89.6675ZM219.678 85.3239C220.387 84.6175 221.105 83.9201 221.832 83.2316L221.145 82.5055C220.412 83.1997 219.688 83.903 218.972 84.6153L219.678 85.3239ZM224.039 81.1941C224.783 80.5244 225.535 79.8639 226.296 79.2127L225.645 78.453C224.878 79.1096 224.12 79.7757 223.37 80.451L224.039 81.1941ZM228.602 77.2886C229.378 76.6572 230.163 76.0353 230.955 75.4231L230.344 74.6316C229.545 75.249 228.754 75.8761 227.971 76.5128L228.602 77.2886ZM233.355 73.6172C234.162 73.0257 234.977 72.444 235.8 71.8723L235.229 71.0512C234.399 71.6277 233.578 72.2142 232.764 72.8107L233.355 73.6172ZM238.287 70.1895C239.122 69.6394 239.965 69.0994 240.816 68.5697L240.287 67.7209C239.43 68.255 238.58 68.7995 237.737 69.3543L238.287 70.1895ZM243.385 67.014C244.247 66.5067 245.116 66.0098 245.992 65.5234L245.506 64.6491C244.623 65.1395 243.747 65.6406 242.877 66.1522L243.385 67.014ZM248.635 64.0988C249.522 63.6355 250.415 63.1828 251.314 62.741L250.873 61.8435C249.966 62.289 249.066 62.7454 248.172 63.2126L248.635 64.0988Z" fill="#FA8525"/>
</g>
<defs>
<linearGradient id="paint0_linear_1058_33157" x1="277" y1="112" x2="335.5" y2="235" gradientUnits="userSpaceOnUse">
<stop stop-color="#FFD9A7"/>
<stop offset="1" stop-color="#FFD9A7"/>
</linearGradient>
<clipPath id="clip0_1058_33157">
<rect width="608" height="340" rx="16" fill="white"/>
</clipPath>
</defs>
</svg>
