<svg width="24" height="24" viewBox="0 0 24 24" fill="none" xmlns="http://www.w3.org/2000/svg">
<g id="server-01">
<g id="Subtract">
<path fill-rule="evenodd" clip-rule="evenodd" d="M18.8385 1H5.16146C4.63433 0.999984 4.17954 0.999969 3.80497 1.03057C3.40963 1.06287 3.01641 1.13419 2.63803 1.32698C2.07354 1.6146 1.6146 2.07354 1.32698 2.63803C1.13419 3.01641 1.06287 3.40963 1.03057 3.80497C0.999969 4.17954 0.999984 4.63428 1 5.16142V6.83855C0.999984 7.36568 0.999969 7.82047 1.03057 8.19503C1.06287 8.59038 1.13419 8.98359 1.32698 9.36197C1.6146 9.92646 2.07354 10.3854 2.63803 10.673C3.01641 10.8658 3.40963 10.9371 3.80497 10.9694C4.17954 11 4.63431 11 5.16145 11H18.8385C19.3657 11 19.8205 11 20.195 10.9694C20.5904 10.9371 20.9836 10.8658 21.362 10.673C21.9265 10.3854 22.3854 9.92646 22.673 9.36197C22.8658 8.98359 22.9371 8.59038 22.9694 8.19503C23 7.82046 23 7.36571 23 6.83857V5.16144C23 4.6343 23 4.17954 22.9694 3.80497C22.9371 3.40963 22.8658 3.01641 22.673 2.63803C22.3854 2.07355 21.9265 1.6146 21.362 1.32698C20.9836 1.13419 20.5904 1.06287 20.195 1.03057C19.8205 0.999969 19.3657 0.999984 18.8385 1ZM8 6C8 6.82843 7.32843 7.5 6.5 7.5C5.67157 7.5 5 6.82843 5 6C5 5.17157 5.67157 4.5 6.5 4.5C7.32843 4.5 8 5.17157 8 6Z" fill="#FA8525"/>
<path fill-rule="evenodd" clip-rule="evenodd" d="M18.8385 13H5.16148C4.63433 13 4.17954 13 3.80497 13.0306C3.40963 13.0629 3.01641 13.1342 2.63803 13.327C2.07354 13.6146 1.6146 14.0735 1.32698 14.638C1.13419 15.0164 1.06287 15.4096 1.03057 15.805C0.999969 16.1795 0.999984 16.6343 1 17.1614V18.8385C0.999984 19.3657 0.999969 19.8205 1.03057 20.195C1.06287 20.5904 1.13419 20.9836 1.32698 21.362C1.6146 21.9265 2.07355 22.3854 2.63803 22.673C3.01641 22.8658 3.40963 22.9371 3.80497 22.9694C4.17954 23 4.6343 23 5.16144 23H18.8386C19.3657 23 19.8205 23 20.195 22.9694C20.5904 22.9371 20.9836 22.8658 21.362 22.673C21.9265 22.3854 22.3854 21.9265 22.673 21.362C22.8658 20.9836 22.9371 20.5904 22.9694 20.195C23 19.8205 23 19.3657 23 18.8386V17.1614C23 16.6343 23 16.1795 22.9694 15.805C22.9371 15.4096 22.8658 15.0164 22.673 14.638C22.3854 14.0735 21.9265 13.6146 21.362 13.327C20.9836 13.1342 20.5904 13.0629 20.195 13.0306C19.8205 13 19.3657 13 18.8385 13ZM8 18C8 18.8284 7.32843 19.5 6.5 19.5C5.67157 19.5 5 18.8284 5 18C5 17.1716 5.67157 16.5 6.5 16.5C7.32843 16.5 8 17.1716 8 18Z" fill="#FA8525"/>
</g>
</g>
</svg>
