<svg width="29" height="28" viewBox="0 0 29 28" fill="none" xmlns="http://www.w3.org/2000/svg">
<g id="cloud-02">
<path id="Icon (Stroke)" fill-rule="evenodd" clip-rule="evenodd" d="M5.35857 12.1415C5.7126 7.3099 9.7447 3.5 14.6666 3.5C19.2373 3.5 23.0393 6.78453 23.8434 11.1226C26.0047 12.154 27.5 14.3595 27.5 16.9167C27.5 20.4605 24.6271 23.3333 21.0833 23.3333H7.66665C4.44499 23.3333 1.83331 20.7217 1.83331 17.5C1.83331 15.0971 3.28531 13.0357 5.35857 12.1415ZM14.6666 5.83333C10.8007 5.83333 7.66665 8.96734 7.66665 12.8333C7.66665 12.8755 7.66702 12.9175 7.66776 12.9595C7.67727 13.4995 7.31486 13.9755 6.79175 14.11C5.28144 14.4982 4.16665 15.8704 4.16665 17.5C4.16665 19.433 5.73365 21 7.66665 21H21.0833C23.3385 21 25.1666 19.1718 25.1666 16.9167C25.1666 15.1268 24.0144 13.6031 22.4078 13.0526C21.9793 12.9058 21.6745 12.5242 21.626 12.0738C21.2482 8.56563 18.2757 5.83333 14.6666 5.83333Z" fill="#1E1F24"/>
</g>
</svg>
