<svg width="29" height="28" viewBox="0 0 29 28" fill="none" xmlns="http://www.w3.org/2000/svg">
<g id="u:data-sharing">
<path id="Vector" d="M24.2733 4.51513C23.7921 3.50974 23.0329 2.66327 22.0856 2.07589C21.1383 1.48852 20.0426 1.18484 18.9281 1.20079C17.8136 1.21675 16.727 1.55168 15.7969 2.16593C14.8668 2.78018 14.1322 3.64805 13.6799 4.6668H8.49995C7.57169 4.6668 6.68145 5.03555 6.02508 5.69192C5.3687 6.3483 4.99995 7.23854 4.99995 8.1668V12.8335C4.99995 13.1429 5.12287 13.4396 5.34166 13.6584C5.56045 13.8772 5.8572 14.0001 6.16662 14.0001C6.47604 14.0001 6.77278 13.8772 6.99157 13.6584C7.21037 13.4396 7.33328 13.1429 7.33328 12.8335V8.1668C7.33328 7.85738 7.4562 7.56063 7.67499 7.34184C7.89378 7.12305 8.19053 7.00013 8.49995 7.00013H11.7433C11.1625 7.63904 10.8384 8.47007 10.8333 9.33346C10.8333 10.2617 11.202 11.152 11.8584 11.8083C12.5148 12.4647 13.405 12.8335 14.3333 12.8335H22.8849C23.9008 12.8408 24.886 12.4857 25.6636 11.8319C26.4412 11.1781 26.9602 10.2686 27.1275 9.26652C27.2947 8.26448 27.0992 7.23564 26.5761 6.36479C26.0529 5.49393 25.2365 4.83812 24.2733 4.51513ZM22.4999 15.1668C22.1905 15.1668 21.8938 15.2897 21.675 15.5085C21.4562 15.7273 21.3333 16.024 21.3333 16.3335V19.8335C21.3333 20.1429 21.2104 20.4396 20.9916 20.6584C20.7728 20.8772 20.476 21.0001 20.1666 21.0001H17.5299C17.3045 20.4228 16.956 19.9014 16.5087 19.4723C16.0615 19.0431 15.5261 18.7165 14.9399 18.5151C14.4113 17.3932 13.5387 16.4689 12.449 15.8766C11.3593 15.2842 10.1092 15.0546 8.88014 15.2211C7.65107 15.3876 6.50706 15.9415 5.6142 16.8023C4.72135 17.6632 4.12612 18.7863 3.91495 20.0085C3.12487 20.2681 2.45307 20.8007 2.01993 21.5107C1.5868 22.2206 1.42063 23.0616 1.5512 23.883C1.68178 24.7043 2.10056 25.4523 2.73251 25.993C3.36446 26.5336 4.16829 26.8316 4.99995 26.8335H13.5516C14.5505 26.8335 15.5178 26.4833 16.2852 25.8438C17.0526 25.2043 17.5715 24.316 17.7516 23.3335H20.1666C21.0949 23.3335 21.9851 22.9647 22.6415 22.3083C23.2979 21.652 23.6666 20.7617 23.6666 19.8335V16.3335C23.6666 16.024 23.5437 15.7273 23.3249 15.5085C23.1061 15.2897 22.8094 15.1668 22.4999 15.1668Z" fill="#54D38F"/>
</g>
</svg>
