<svg width="64" height="64" viewBox="0 0 64 64" fill="none" xmlns="http://www.w3.org/2000/svg">
<circle cx="32" cy="37" r="13" fill="url(#paint0_linear_581_5569)" fill-opacity="0.4"/>
<path d="M23.5 29.832V31.64H18.844V34.504H22.412V36.28H18.844V41H16.604V29.832H23.5ZM26.6884 33.512C26.9764 33.0427 27.3497 32.6747 27.8084 32.408C28.2777 32.1413 28.811 32.008 29.4084 32.008V34.36H28.8164C28.1124 34.36 27.579 34.5253 27.2164 34.856C26.8644 35.1867 26.6884 35.7627 26.6884 36.584V41H24.4484V32.136H26.6884V33.512ZM38.5171 36.376C38.5171 36.696 38.4958 36.984 38.4531 37.24H31.9731C32.0265 37.88 32.2505 38.3813 32.6451 38.744C33.0398 39.1067 33.5251 39.288 34.1011 39.288C34.9331 39.288 35.5251 38.9307 35.8771 38.216H38.2931C38.0371 39.0693 37.5465 39.7733 36.8211 40.328C36.0958 40.872 35.2051 41.144 34.1491 41.144C33.2958 41.144 32.5278 40.9573 31.8451 40.584C31.1731 40.2 30.6451 39.6613 30.2611 38.968C29.8878 38.2747 29.7011 37.4747 29.7011 36.568C29.7011 35.6507 29.8878 34.8453 30.2611 34.152C30.6345 33.4587 31.1571 32.9253 31.8291 32.552C32.5011 32.1787 33.2745 31.992 34.1491 31.992C34.9918 31.992 35.7438 32.1733 36.4051 32.536C37.0771 32.8987 37.5945 33.416 37.9571 34.088C38.3305 34.7493 38.5171 35.512 38.5171 36.376ZM36.1971 35.736C36.1865 35.16 35.9785 34.7013 35.5731 34.36C35.1678 34.008 34.6718 33.832 34.0851 33.832C33.5305 33.832 33.0611 34.0027 32.6771 34.344C32.3038 34.6747 32.0745 35.1387 31.9891 35.736H36.1971ZM47.7521 36.376C47.7521 36.696 47.7308 36.984 47.6881 37.24H41.2081C41.2615 37.88 41.4855 38.3813 41.8801 38.744C42.2748 39.1067 42.7601 39.288 43.3361 39.288C44.1681 39.288 44.7601 38.9307 45.1121 38.216H47.5281C47.2721 39.0693 46.7815 39.7733 46.0561 40.328C45.3308 40.872 44.4401 41.144 43.3841 41.144C42.5308 41.144 41.7628 40.9573 41.0801 40.584C40.4081 40.2 39.8801 39.6613 39.4961 38.968C39.1228 38.2747 38.9361 37.4747 38.9361 36.568C38.9361 35.6507 39.1228 34.8453 39.4961 34.152C39.8695 33.4587 40.3921 32.9253 41.0641 32.552C41.7361 32.1787 42.5095 31.992 43.3841 31.992C44.2268 31.992 44.9788 32.1733 45.6401 32.536C46.3121 32.8987 46.8295 33.416 47.1921 34.088C47.5655 34.7493 47.7521 35.512 47.7521 36.376ZM45.4321 35.736C45.4215 35.16 45.2135 34.7013 44.8081 34.36C44.4028 34.008 43.9068 33.832 43.3201 33.832C42.7655 33.832 42.2961 34.0027 41.9121 34.344C41.5388 34.6747 41.3095 35.1387 41.2241 35.736H45.4321Z" fill="#54D38F"/>
<rect x="7" y="9" width="50" height="46" rx="6" stroke="#1E1F24" stroke-width="2"/>
<path d="M8 15C8 12.2386 10.2386 10 13 10H51C53.7614 10 56 12.2386 56 15V20H8V15Z" fill="#D8D9E0"/>
<circle cx="14" cy="15" r="2" fill="white"/>
<circle cx="20" cy="15" r="2" fill="white"/>
<circle cx="26" cy="15" r="2" fill="#54D38F"/>
<defs>
<linearGradient id="paint0_linear_581_5569" x1="32" y1="24" x2="32" y2="50" gradientUnits="userSpaceOnUse">
<stop stop-color="#54D38F"/>
<stop offset="1" stop-color="#54D38F" stop-opacity="0"/>
</linearGradient>
</defs>
</svg>
