<svg width="28" height="28" viewBox="0 0 28 28" fill="none" xmlns="http://www.w3.org/2000/svg">
<g id="gift-01">
<path id="Icon (Stroke)" fill-rule="evenodd" clip-rule="evenodd" d="M9.87503 3.49984C9.58351 3.49984 9.29959 3.61755 9.08693 3.83408C8.87357 4.05132 8.75003 4.35037 8.75003 4.6665C8.75003 4.98264 8.87357 5.28168 9.08693 5.49893C9.29959 5.71546 9.58351 5.83317 9.87503 5.83317H12.4067C12.3222 5.63326 12.225 5.42619 12.1142 5.22099C11.5473 4.17161 10.8197 3.49984 9.87503 3.49984ZM12.8334 8.1665V11.6665L4.20003 11.6665C3.85408 11.6665 3.66478 11.6656 3.52877 11.6545C3.52335 11.654 3.51823 11.6536 3.51338 11.6531C3.51294 11.6483 3.51249 11.6432 3.51205 11.6378C3.50093 11.5017 3.50003 11.3125 3.50003 10.9665V8.8665C3.50003 8.52056 3.50093 8.33126 3.51205 8.19524C3.51249 8.18983 3.51294 8.1847 3.51338 8.17986C3.51823 8.17941 3.52335 8.17897 3.52877 8.17852C3.66478 8.16741 3.85408 8.1665 4.20003 8.1665H12.8334ZM6.61447 5.83317C6.4846 5.46139 6.41669 5.06712 6.41669 4.6665C6.41669 3.74496 6.77604 2.85702 7.42222 2.1991C8.0691 1.54046 8.95097 1.1665 9.87503 1.1665C11.9688 1.1665 13.268 2.58803 14 3.81744C14.7321 2.58803 16.0312 1.1665 18.125 1.1665C19.0491 1.1665 19.931 1.54046 20.5778 2.1991C21.224 2.85702 21.5834 3.74496 21.5834 4.6665C21.5834 5.06712 21.5154 5.46139 21.3856 5.83317L23.8372 5.83317C24.1317 5.83313 24.4184 5.8331 24.6613 5.85294C24.928 5.87473 25.2427 5.92614 25.5593 6.08749C25.9984 6.31119 26.3553 6.66815 26.579 7.10719C26.7404 7.42385 26.7918 7.73854 26.8136 8.00524C26.8334 8.24808 26.8334 8.53483 26.8334 8.82927V11.0037C26.8334 11.2982 26.8334 11.5849 26.8136 11.8278C26.7918 12.0945 26.7404 12.4092 26.579 12.7258C26.3553 13.1649 25.9984 13.5218 25.5593 13.7455C25.2427 13.9069 24.928 13.9583 24.6613 13.9801C24.6094 13.9843 24.5556 13.9876 24.5 13.9903V21.9782C24.5001 22.5932 24.5001 23.1237 24.4644 23.5607C24.4267 24.0219 24.3435 24.4807 24.1186 24.9221C23.783 25.5807 23.2476 26.1161 22.589 26.4517C22.1476 26.6766 21.6888 26.7598 21.2276 26.7975C20.7906 26.8332 20.26 26.8332 19.645 26.8332H14.0017C14.0011 26.8332 14.0006 26.8332 14 26.8332C13.9995 26.8332 13.9989 26.8332 13.9984 26.8332H8.35503C7.74004 26.8332 7.20949 26.8332 6.77249 26.7975C6.31126 26.7598 5.8525 26.6766 5.41106 26.4517C4.75249 26.1161 4.21706 25.5807 3.8815 24.9221C3.65658 24.4807 3.57338 24.0219 3.53569 23.5607C3.49999 23.1237 3.5 22.5931 3.50003 21.9781L3.50003 13.9903C3.4445 13.9876 3.39063 13.9843 3.33876 13.9801C3.07207 13.9583 2.75738 13.9069 2.44072 13.7455C2.00167 13.5218 1.64472 13.1649 1.42101 12.7258C1.25966 12.4092 1.20825 12.0945 1.18646 11.8278C1.16662 11.5849 1.16666 11.2982 1.16669 11.0037L1.16669 8.8665C1.16669 8.85409 1.16669 8.84168 1.16669 8.82929C1.16666 8.53484 1.16662 8.24809 1.18646 8.00524C1.20825 7.73854 1.25966 7.42385 1.42101 7.10719C1.64472 6.66815 2.00167 6.31119 2.44072 6.08749C2.75738 5.92614 3.07207 5.87473 3.33876 5.85294C3.58161 5.8331 3.86837 5.83313 4.16281 5.83317C4.17521 5.83317 4.18761 5.83317 4.20003 5.83317H6.61447ZM5.83336 13.9998V21.9332C5.83336 22.6058 5.83427 23.0401 5.86128 23.3707C5.88717 23.6876 5.93113 23.8051 5.96052 23.8628C6.07237 24.0823 6.25085 24.2608 6.47037 24.3727C6.52806 24.4021 6.64556 24.446 6.9625 24.4719C7.29306 24.4989 7.72738 24.4998 8.40003 24.4998H12.8334V13.9998H5.83336ZM15.1667 13.9998V24.4998H19.6C20.2727 24.4998 20.707 24.4989 21.0376 24.4719C21.3545 24.446 21.472 24.4021 21.5297 24.3727C21.7492 24.2608 21.9277 24.0823 22.0395 23.8628C22.0689 23.8051 22.1129 23.6876 22.1388 23.3707C22.1658 23.0401 22.1667 22.6058 22.1667 21.9332V13.9998H15.1667ZM23.8 11.6665C24.146 11.6665 24.3353 11.6656 24.4713 11.6545C24.4767 11.654 24.4818 11.6536 24.4867 11.6531C24.4871 11.6483 24.4876 11.6432 24.488 11.6378C24.4991 11.5017 24.5 11.3125 24.5 10.9665V8.8665C24.5 8.52056 24.4991 8.33126 24.488 8.19524C24.4876 8.18983 24.4871 8.1847 24.4867 8.17986C24.4818 8.17941 24.4767 8.17897 24.4713 8.17852C24.3353 8.16741 24.146 8.1665 23.8 8.1665H15.1667V11.6665H23.8ZM18.125 5.83317C18.4165 5.83317 18.7005 5.71546 18.9131 5.49893C19.1265 5.28168 19.25 4.98264 19.25 4.6665C19.25 4.35037 19.1265 4.05132 18.9131 3.83408C18.7005 3.61755 18.4165 3.49984 18.125 3.49984C17.1804 3.49984 16.4527 4.17161 15.8859 5.22099C15.775 5.42619 15.6779 5.63326 15.5934 5.83317H18.125Z" fill="#1E1F24"/>
</g>
</svg>
