<svg width="29" height="28" viewBox="0 0 29 28" fill="none" xmlns="http://www.w3.org/2000/svg">
<g id="passcode-lock">
<path id="Icon (Stroke)" fill-rule="evenodd" clip-rule="evenodd" d="M6.68835 4.6665H22.645C23.26 4.66648 23.7905 4.66647 24.2275 4.70217C24.6888 4.73985 25.1475 4.82306 25.589 5.04798C26.2475 5.38354 26.783 5.91897 27.1185 6.57754C27.3434 7.01898 27.4266 7.47774 27.4643 7.93897C27.5 8.37597 27.5 8.90652 27.5 9.52151V12.8332C27.5 13.4775 26.9776 13.9998 26.3333 13.9998C25.689 13.9998 25.1667 13.4775 25.1667 12.8332V9.56651C25.1667 8.89386 25.1657 8.45954 25.1387 8.12898C25.1128 7.81204 25.0689 7.69454 25.0395 7.63685C24.9276 7.41733 24.7492 7.23885 24.5296 7.127C24.472 7.09761 24.3544 7.05365 24.0375 7.02775C23.7069 7.00075 23.2726 6.99984 22.6 6.99984H6.73332C6.06067 6.99984 5.62635 7.00075 5.29579 7.02775C4.97885 7.05365 4.86134 7.09761 4.80366 7.127C4.58414 7.23885 4.40566 7.41733 4.29381 7.63685C4.26442 7.69454 4.22046 7.81204 4.19456 8.12898C4.16756 8.45954 4.16665 8.89386 4.16665 9.56651V13.7665C4.16665 14.4392 4.16756 14.8735 4.19456 15.204C4.22046 15.521 4.26442 15.6385 4.29381 15.6962C4.40566 15.9157 4.58414 16.0942 4.80366 16.206C4.86134 16.2354 4.97885 16.2794 5.29579 16.3053C5.62635 16.3323 6.06067 16.3332 6.73332 16.3332H13.5C14.1443 16.3332 14.6666 16.8555 14.6666 17.4998C14.6666 18.1442 14.1443 18.6665 13.5 18.6665H6.68837C6.07335 18.6665 5.54279 18.6665 5.10578 18.6308C4.64455 18.5932 4.18579 18.51 3.74435 18.285C3.08578 17.9495 2.55035 17.414 2.21479 16.7555C1.98987 16.314 1.90666 15.8553 1.86898 15.394C1.83328 14.957 1.83329 14.4265 1.83331 13.8115V9.52154C1.83329 8.90653 1.83328 8.37597 1.86898 7.93897C1.90666 7.47774 1.98987 7.01898 2.21479 6.57754C2.55035 5.91897 3.08578 5.38354 3.74435 5.04798C4.18579 4.82306 4.64455 4.73985 5.10578 4.70217C5.54278 4.66647 6.07334 4.66648 6.68835 4.6665ZM7.37498 11.6665C7.37498 10.8611 8.0279 10.2082 8.83332 10.2082C9.63873 10.2082 10.2916 10.8611 10.2916 11.6665C10.2916 12.4719 9.63873 13.1248 8.83332 13.1248C8.0279 13.1248 7.37498 12.4719 7.37498 11.6665ZM13.2083 11.6665C13.2083 10.8611 13.8612 10.2082 14.6666 10.2082C15.4721 10.2082 16.125 10.8611 16.125 11.6665C16.125 12.4719 15.4721 13.1248 14.6666 13.1248C13.8612 13.1248 13.2083 12.4719 13.2083 11.6665ZM19.0416 11.6665C19.0416 10.8611 19.6946 10.2082 20.5 10.2082C21.3054 10.2082 21.9583 10.8611 21.9583 11.6665C21.9583 12.4719 21.3054 13.1248 20.5 13.1248C19.6946 13.1248 19.0416 12.4719 19.0416 11.6665ZM17.875 17.7915C17.875 16.0196 19.3114 14.5832 21.0833 14.5832C22.8552 14.5832 24.2917 16.0196 24.2917 17.7915V18.6992C24.5279 18.7271 24.7929 18.7851 25.0593 18.9208C25.4983 19.1445 25.8553 19.5015 26.079 19.9405C26.2403 20.2572 26.2918 20.5719 26.3135 20.8386C26.3334 21.0814 26.3334 21.3682 26.3333 21.6626V22.6704C26.3334 22.9648 26.3334 23.2516 26.3135 23.4944C26.2918 23.7611 26.2403 24.0758 26.079 24.3925C25.8553 24.8315 25.4983 25.1885 25.0593 25.4122C24.7426 25.5735 24.4279 25.6249 24.1613 25.6467C23.9184 25.6666 23.6317 25.6665 23.3372 25.6665H18.8294C18.535 25.6665 18.2482 25.6666 18.0054 25.6467C17.7387 25.6249 17.424 25.5735 17.1073 25.4122C16.6683 25.1885 16.3113 24.8315 16.0876 24.3925C15.9263 24.0758 15.8749 23.7611 15.8531 23.4944C15.8332 23.2516 15.8333 22.9648 15.8333 22.6704V21.6626C15.8333 21.3682 15.8332 21.0814 15.8531 20.8386C15.8749 20.5719 15.9263 20.2572 16.0876 19.9405C16.3113 19.5015 16.6683 19.1445 17.1073 18.9208C17.3738 18.7851 17.6388 18.7271 17.875 18.6992V17.7915ZM18.8666 20.9998C18.5207 20.9998 18.3314 21.0007 18.1954 21.0119C18.19 21.0123 18.1848 21.0128 18.18 21.0132C18.1796 21.018 18.1791 21.0232 18.1787 21.0286C18.1676 21.1646 18.1666 21.3539 18.1666 21.6998V22.6332C18.1666 22.9791 18.1676 23.1684 18.1787 23.3044C18.1791 23.3099 18.1796 23.315 18.18 23.3198C18.1848 23.3203 18.19 23.3207 18.1954 23.3212C18.3314 23.3323 18.5207 23.3332 18.8666 23.3332H23.3C23.6459 23.3332 23.8352 23.3323 23.9712 23.3212C23.9767 23.3207 23.9818 23.3203 23.9866 23.3198C23.9871 23.315 23.9875 23.3098 23.988 23.3044C23.9991 23.1684 24 22.9791 24 22.6332V21.6998C24 21.3539 23.9991 21.1646 23.988 21.0286C23.9875 21.0232 23.9871 21.018 23.9866 21.0132C23.9818 21.0128 23.9767 21.0123 23.9712 21.0119C23.8352 21.0007 23.6459 20.9998 23.3 20.9998H18.8666ZM21.9583 18.6665H20.2083V17.7915C20.2083 17.3083 20.6001 16.9165 21.0833 16.9165C21.5666 16.9165 21.9583 17.3083 21.9583 17.7915V18.6665Z" fill="#1E1F24"/>
</g>
</svg>
