<svg width="29" height="28" viewBox="0 0 29 28" fill="none" xmlns="http://www.w3.org/2000/svg">
<g id="route">
<path id="Icon (Stroke)" fill-rule="evenodd" clip-rule="evenodd" d="M6.49998 3.49984C5.21132 3.49984 4.16665 4.54451 4.16665 5.83317C4.16665 7.12184 5.21132 8.1665 6.49998 8.1665C7.78864 8.1665 8.83331 7.12184 8.83331 5.83317C8.83331 4.54451 7.78864 3.49984 6.49998 3.49984ZM1.83331 5.83317C1.83331 3.25584 3.92265 1.1665 6.49998 1.1665C9.07731 1.1665 11.1666 3.25584 11.1666 5.83317C11.1666 8.4105 9.07731 10.4998 6.49998 10.4998C3.92265 10.4998 1.83331 8.4105 1.83331 5.83317ZM18.5786 7.07575C17.6648 7.0008 16.3896 6.99984 14.5901 6.99984H14.0833C13.439 6.99984 12.9166 6.4775 12.9166 5.83317C12.9166 5.18884 13.439 4.6665 14.0833 4.6665L14.6487 4.6665C16.3767 4.66649 17.7484 4.66648 18.7693 4.75022C19.2893 4.79287 19.7707 4.8607 20.192 4.98001C20.6122 5.099 21.0452 5.28907 21.3994 5.62426C22.2743 6.45215 22.6621 7.67175 22.4259 8.85288C22.3302 9.33109 22.0865 9.73627 21.8121 10.0761C21.5371 10.4168 21.1832 10.7501 20.7833 11.0852C19.9981 11.7432 18.8783 12.5353 17.4675 13.5331L12.6777 16.921C11.2085 17.9602 10.168 18.6974 9.46526 19.2862C9.11677 19.5782 8.89223 19.8006 8.75328 19.9727C8.63826 20.1152 8.61388 20.1842 8.61139 20.1915C8.53447 20.5828 8.66275 20.9863 8.9515 21.2613C8.95772 21.2658 9.01749 21.3081 9.19367 21.3579C9.40649 21.4182 9.71822 21.4701 10.1714 21.5073C11.0851 21.5822 12.3603 21.5832 14.1599 21.5832H15.25C15.8943 21.5832 16.4166 22.1055 16.4166 22.7498C16.4166 23.3942 15.8943 23.9165 15.25 23.9165H14.1013C12.3733 23.9165 11.0016 23.9165 9.98063 23.8328C9.46064 23.7901 8.97927 23.7223 8.55793 23.603C8.13772 23.484 7.70476 23.2939 7.35053 22.9587C6.47562 22.1309 6.0879 20.9113 6.32411 19.7301C6.41975 19.2519 6.66346 18.8467 6.93782 18.5069C7.21291 18.1662 7.56674 17.8329 7.96664 17.4978C8.75182 16.8398 9.8717 16.0477 11.2825 15.0499L16.0723 11.662C17.5414 10.6228 18.582 9.88564 19.2847 9.29679C19.6332 9.00477 19.8577 8.78239 19.9967 8.61029C20.1117 8.46789 20.1361 8.39884 20.1386 8.39155C20.2155 8.00026 20.0872 7.59676 19.7985 7.32172C19.7922 7.31724 19.7325 7.27495 19.5563 7.22507C19.3435 7.1648 19.0317 7.11291 18.5786 7.07575ZM22.8333 19.8332C21.5446 19.8332 20.5 20.8778 20.5 22.1665C20.5 23.4552 21.5446 24.4998 22.8333 24.4998C24.122 24.4998 25.1666 23.4552 25.1666 22.1665C25.1666 20.8778 24.122 19.8332 22.8333 19.8332ZM18.1666 22.1665C18.1666 19.5892 20.256 17.4998 22.8333 17.4998C25.4106 17.4998 27.5 19.5892 27.5 22.1665C27.5 24.7438 25.4106 26.8332 22.8333 26.8332C20.256 26.8332 18.1666 24.7438 18.1666 22.1665Z" fill="#1E1F24"/>
</g>
</svg>
