<svg width="28" height="28" viewBox="0 0 28 28" fill="none" xmlns="http://www.w3.org/2000/svg">
<g id="u:ruler-combined">
<path id="Vector" d="M24.5 2.3335H3.49998C3.19056 2.3335 2.89381 2.45641 2.67502 2.6752C2.45623 2.894 2.33331 3.19074 2.33331 3.50016V24.5002C2.33331 24.8096 2.45623 25.1063 2.67502 25.3251C2.89381 25.5439 3.19056 25.6668 3.49998 25.6668H10.5C10.8094 25.6668 11.1061 25.5439 11.3249 25.3251C11.5437 25.1063 11.6666 24.8096 11.6666 24.5002V11.6668H24.5C24.8094 11.6668 25.1061 11.5439 25.3249 11.3251C25.5437 11.1063 25.6666 10.8096 25.6666 10.5002V3.50016C25.6666 3.19074 25.5437 2.894 25.3249 2.6752C25.1061 2.45641 24.8094 2.3335 24.5 2.3335ZM23.3333 9.3335H21V8.16683C21 7.85741 20.8771 7.56066 20.6583 7.34187C20.4395 7.12308 20.1427 7.00016 19.8333 7.00016C19.5239 7.00016 19.2271 7.12308 19.0084 7.34187C18.7896 7.56066 18.6666 7.85741 18.6666 8.16683V9.3335H16.3333V8.16683C16.3333 7.85741 16.2104 7.56066 15.9916 7.34187C15.7728 7.12308 15.4761 7.00016 15.1666 7.00016C14.8572 7.00016 14.5605 7.12308 14.3417 7.34187C14.1229 7.56066 14 7.85741 14 8.16683V9.3335H11.6666V8.16683C11.6666 7.85741 11.5437 7.56066 11.3249 7.34187C11.1061 7.12308 10.8094 7.00016 10.5 7.00016C10.1906 7.00016 9.89381 7.12308 9.67502 7.34187C9.45623 7.56066 9.33331 7.85741 9.33331 8.16683V9.3335H8.16665C7.85723 9.3335 7.56048 9.45641 7.34169 9.6752C7.1229 9.894 6.99998 10.1907 6.99998 10.5002C6.99998 10.8096 7.1229 11.1063 7.34169 11.3251C7.56048 11.5439 7.85723 11.6668 8.16665 11.6668H9.33331V14.0002H8.16665C7.85723 14.0002 7.56048 14.1231 7.34169 14.3419C7.1229 14.5607 6.99998 14.8574 6.99998 15.1668C6.99998 15.4762 7.1229 15.773 7.34169 15.9918C7.56048 16.2106 7.85723 16.3335 8.16665 16.3335H9.33331V18.6668H8.16665C7.85723 18.6668 7.56048 18.7897 7.34169 19.0085C7.1229 19.2273 6.99998 19.5241 6.99998 19.8335C6.99998 20.1429 7.1229 20.4397 7.34169 20.6585C7.56048 20.8772 7.85723 21.0002 8.16665 21.0002H9.33331V23.3335H4.66665V4.66683H23.3333V9.3335Z" fill="#1E1F24"/>
</g>
</svg>
