<svg width="29" height="28" viewBox="0 0 29 28" fill="none" xmlns="http://www.w3.org/2000/svg">
<g id="server-01">
<path id="Icon (Stroke)" fill-rule="evenodd" clip-rule="evenodd" d="M6.35507 1.1665H22.3117C22.9267 1.16648 23.4572 1.16647 23.8942 1.20217C24.3555 1.23985 24.8142 1.32306 25.2557 1.54798C25.9142 1.88354 26.4497 2.41897 26.7852 3.07754C27.0102 3.51898 27.0934 3.97774 27.131 4.43897C27.1667 4.87597 27.1667 5.40652 27.1667 6.02151V7.97817C27.1667 8.59316 27.1667 9.12371 27.131 9.56071C27.0934 10.0219 27.0102 10.4807 26.7852 10.9221C26.4497 11.5807 25.9142 12.1161 25.2557 12.4517C24.8142 12.6766 24.3555 12.7598 23.8942 12.7975C23.4572 12.8332 22.9267 12.8332 22.3117 12.8332H6.3551C5.74008 12.8332 5.20951 12.8332 4.77251 12.7975C4.31127 12.7598 3.85252 12.6766 3.41107 12.4517C2.75251 12.1161 2.21707 11.5807 1.88152 10.9221C1.65659 10.4807 1.57339 10.0219 1.5357 9.56071C1.5 9.12371 1.50002 8.59315 1.50004 7.97814V6.02154C1.50002 5.40653 1.5 4.87597 1.5357 4.43897C1.57339 3.97774 1.65659 3.51898 1.88152 3.07754C2.21707 2.41897 2.75251 1.88354 3.41107 1.54798C3.85252 1.32306 4.31127 1.23985 4.77251 1.20217C5.20951 1.16647 5.74007 1.16648 6.35507 1.1665ZM4.96252 3.52775C4.64558 3.55365 4.52807 3.59761 4.47039 3.627C4.25086 3.73885 4.07239 3.91733 3.96053 4.13685C3.93114 4.19454 3.88718 4.31204 3.86129 4.62898C3.83428 4.95954 3.83337 5.39386 3.83337 6.06651V7.93317C3.83337 8.60582 3.83428 9.04014 3.86129 9.3707C3.88718 9.68764 3.93114 9.80514 3.96053 9.86283C4.07239 10.0824 4.25086 10.2608 4.47039 10.3727C4.52807 10.4021 4.64558 10.446 4.96252 10.4719C5.29308 10.4989 5.7274 10.4998 6.40004 10.4998H22.2667C22.9394 10.4998 23.3737 10.4989 23.7042 10.4719C24.0212 10.446 24.1387 10.4021 24.1964 10.3727C24.4159 10.2608 24.5944 10.0824 24.7062 9.86283C24.7356 9.80514 24.7796 9.68764 24.8055 9.3707C24.8325 9.04014 24.8334 8.60582 24.8334 7.93317V6.06651C24.8334 5.39386 24.8325 4.95954 24.8055 4.62898C24.7796 4.31204 24.7356 4.19454 24.7062 4.13685C24.5944 3.91733 24.4159 3.73885 24.1964 3.627C24.1387 3.59761 24.0212 3.55365 23.7042 3.52775C23.3737 3.50075 22.9394 3.49984 22.2667 3.49984H6.40004C5.7274 3.49984 5.29308 3.50075 4.96252 3.52775ZM6.16671 6.99984C6.16671 6.35551 6.68904 5.83317 7.33337 5.83317H7.34504C7.98937 5.83317 8.51171 6.35551 8.51171 6.99984C8.51171 7.64417 7.98937 8.16651 7.34504 8.16651H7.33337C6.68904 8.16651 6.16671 7.64417 6.16671 6.99984ZM6.3551 15.1665H22.3117C22.9267 15.1665 23.4572 15.1665 23.8942 15.2022C24.3555 15.2399 24.8142 15.3231 25.2557 15.548C25.9142 15.8835 26.4497 16.419 26.7852 17.0775C27.0102 17.519 27.0934 17.9777 27.131 18.439C27.1667 18.876 27.1667 19.4065 27.1667 20.0215V21.9782C27.1667 22.5932 27.1667 23.1237 27.131 23.5607C27.0934 24.0219 27.0102 24.4807 26.7852 24.9221C26.4497 25.5807 25.9142 26.1161 25.2557 26.4517C24.8142 26.6766 24.3555 26.7598 23.8942 26.7975C23.4572 26.8332 22.9267 26.8332 22.3117 26.8332H6.35505C5.74005 26.8332 5.2095 26.8332 4.77251 26.7975C4.31127 26.7598 3.85252 26.6766 3.41107 26.4517C2.75251 26.1161 2.21707 25.5807 1.88152 24.9221C1.65659 24.4807 1.57339 24.0219 1.5357 23.5607C1.5 23.1237 1.50002 22.5932 1.50004 21.9781V20.0215C1.50002 19.4065 1.5 18.876 1.5357 18.439C1.57339 17.9777 1.65659 17.519 1.88152 17.0775C2.21707 16.419 2.75251 15.8835 3.41107 15.548C3.85252 15.3231 4.31127 15.2399 4.77251 15.2022C5.20951 15.1665 5.74008 15.1665 6.3551 15.1665ZM4.96252 17.5278C4.64558 17.5537 4.52807 17.5976 4.47039 17.627C4.25086 17.7389 4.07239 17.9173 3.96053 18.1369C3.93114 18.1945 3.88718 18.312 3.86129 18.629C3.83428 18.9595 3.83337 19.3939 3.83337 20.0665V21.9332C3.83337 22.6058 3.83428 23.0401 3.86129 23.3707C3.88718 23.6876 3.93114 23.8051 3.96053 23.8628C4.07238 24.0824 4.25086 24.2608 4.47039 24.3727C4.52807 24.4021 4.64558 24.446 4.96252 24.4719C5.29308 24.4989 5.7274 24.4998 6.40004 24.4998H22.2667C22.9394 24.4998 23.3737 24.4989 23.7042 24.4719C24.0212 24.446 24.1387 24.4021 24.1964 24.3727C24.4159 24.2608 24.5944 24.0824 24.7062 23.8628C24.7356 23.8051 24.7796 23.6876 24.8055 23.3707C24.8325 23.0401 24.8334 22.6058 24.8334 21.9332V20.0665C24.8334 19.3939 24.8325 18.9595 24.8055 18.629C24.7796 18.312 24.7356 18.1945 24.7062 18.1369C24.5944 17.9173 24.4159 17.7389 24.1964 17.627C24.1387 17.5976 24.0212 17.5537 23.7042 17.5278C23.3737 17.5007 22.9394 17.4998 22.2667 17.4998H6.40004C5.7274 17.4998 5.29308 17.5007 4.96252 17.5278ZM6.16671 20.9998C6.16671 20.3555 6.68904 19.8332 7.33337 19.8332H7.34504C7.98937 19.8332 8.51171 20.3555 8.51171 20.9998C8.51171 21.6442 7.98937 22.1665 7.34504 22.1665H7.33337C6.68904 22.1665 6.16671 21.6442 6.16671 20.9998Z" fill="#1E1F24"/>
</g>
</svg>
