<svg width="29" height="28" viewBox="0 0 29 28" fill="none" xmlns="http://www.w3.org/2000/svg">
<g id="server-06">
<path id="Icon (Stroke)" fill-rule="evenodd" clip-rule="evenodd" d="M5.00004 3.49984C4.35571 3.49984 3.83338 4.02217 3.83338 4.6665C3.83338 5.31084 4.35571 5.83317 5.00004 5.83317C5.64437 5.83317 6.16671 5.31084 6.16671 4.6665C6.16671 4.02217 5.64437 3.49984 5.00004 3.49984ZM1.50004 4.6665C1.50004 2.73351 3.06705 1.1665 5.00004 1.1665C6.93304 1.1665 8.50004 2.73351 8.50004 4.6665C8.50004 4.88543 8.47994 5.09967 8.44148 5.30746C10.1215 4.16652 12.1496 3.49984 14.3334 3.49984C16.5172 3.49984 18.5453 4.16652 20.2253 5.30746C20.1868 5.09966 20.1667 4.88543 20.1667 4.6665C20.1667 2.73351 21.7337 1.1665 23.6667 1.1665C25.5997 1.1665 27.1667 2.73351 27.1667 4.6665C27.1667 6.5995 25.5997 8.1665 23.6667 8.1665C23.4478 8.1665 23.2335 8.1464 23.0258 8.10795C24.1667 9.78792 24.8334 11.816 24.8334 13.9998C24.8334 16.1837 24.1667 18.2118 23.0258 19.8917C23.2335 19.8533 23.4478 19.8332 23.6667 19.8332C25.5997 19.8332 27.1667 21.4002 27.1667 23.3332C27.1667 25.2662 25.5997 26.8332 23.6667 26.8332C21.7337 26.8332 20.1667 25.2662 20.1667 23.3332C20.1667 23.1142 20.1868 22.9 20.2253 22.6922C18.5453 23.8332 16.5172 24.4998 14.3334 24.4998C12.1496 24.4998 10.1215 23.8332 8.44148 22.6922C8.47994 22.9 8.50004 23.1142 8.50004 23.3332C8.50004 25.2662 6.93304 26.8332 5.00004 26.8332C3.06705 26.8332 1.50004 25.2662 1.50004 23.3332C1.50004 21.4002 3.06705 19.8332 5.00004 19.8332C5.21897 19.8332 5.4332 19.8533 5.641 19.8917C4.50006 18.2118 3.83338 16.1837 3.83338 13.9998C3.83338 11.816 4.50006 9.78792 5.641 8.10795C5.4332 8.1464 5.21897 8.1665 5.00004 8.1665C3.06705 8.1665 1.50004 6.5995 1.50004 4.6665ZM23.6667 3.49984C23.0224 3.49984 22.5 4.02217 22.5 4.6665C22.5 5.31084 23.0224 5.83317 23.6667 5.83317C24.311 5.83317 24.8334 5.31084 24.8334 4.6665C24.8334 4.02217 24.311 3.49984 23.6667 3.49984ZM6.24941 12.8332H9.50042C9.72213 10.5032 10.4697 8.26177 11.677 6.27493C8.82544 7.2553 6.68755 9.77008 6.24941 12.8332ZM14.3334 6.50026C12.9623 8.3545 12.1038 10.5394 11.8462 12.8332H16.8218C16.564 10.5395 15.7049 8.35462 14.3334 6.50026ZM16.8218 15.1665C16.564 17.4602 15.7049 19.6451 14.3334 21.4994C12.9623 19.6452 12.1038 17.4603 11.8462 15.1665H16.8218ZM9.50042 15.1665H6.24941C6.68755 18.2296 8.82543 20.7444 11.677 21.7247C10.4697 19.7379 9.72213 17.4965 9.50042 15.1665ZM16.9901 21.7246C18.1976 19.7379 18.9457 17.4965 19.1676 15.1665H22.4173C21.9792 18.2295 19.8415 20.7442 16.9901 21.7246ZM22.4173 12.8332H19.1676C18.9457 10.5031 18.1976 8.26175 16.9901 6.27503C19.8415 7.25546 21.9792 9.77018 22.4173 12.8332ZM5.00004 22.1665C4.35571 22.1665 3.83338 22.6888 3.83338 23.3332C3.83338 23.9775 4.35571 24.4998 5.00004 24.4998C5.64437 24.4998 6.16671 23.9775 6.16671 23.3332C6.16671 22.6888 5.64437 22.1665 5.00004 22.1665ZM23.6667 22.1665C23.0224 22.1665 22.5 22.6888 22.5 23.3332C22.5 23.9775 23.0224 24.4998 23.6667 24.4998C24.311 24.4998 24.8334 23.9775 24.8334 23.3332C24.8334 22.6888 24.311 22.1665 23.6667 22.1665Z" fill="#1E1F24"/>
</g>
</svg>
